<svg width="121" height="107" viewBox="0 0 121 107" fill="none" xmlns="http://www.w3.org/2000/svg">
<g clip-path="url(#clip0_648_8830)">
<path d="M2.17081 44.2215C0.967893 46.6051 2.82781 49.0532 4.01419 51.3126C4.38996 52.0291 5.05168 52.5688 5.39672 53.3045C5.72286 53.9923 5.7394 54.7829 5.75358 55.5447C5.8103 59.027 5.85757 62.5689 4.90752 65.9174C3.85349 69.6337 1.62725 73.7298 3.58407 77.0568C4.29306 78.2605 5.45581 79.1131 6.33496 80.1975C7.21411 81.2794 6.08681 82.5094 7.11721 84.0666C8.14761 85.6238 16.5421 86.0298 21.2521 87.0115C23.6296 87.5059 26.0166 88.005 28.3066 88.8147C30.6061 89.6291 32.7874 90.7516 35.0609 91.6377C41.2859 94.0667 52.0105 93.1902 54.7425 93.3741C57.4745 93.558 58.4458 95.2155 60.4924 94.7354C62.5391 94.2554 64.6849 93.4338 66.6701 94.1288C68.8869 94.905 70.2765 97.3985 72.5737 97.8857C74.651 98.3252 79.0042 105.753 79.7156 105.175C80.4269 104.595 80.7767 103.689 81.2919 102.928C83.8868 99.0727 90.1023 99.3951 92.8721 95.6645C94.2593 93.7968 94.4933 91.2413 95.9137 89.3998C98.6669 85.8268 104.121 86.6102 108.46 87.7423C110.19 86.8371 110.698 84.1932 109.432 82.6981C107.702 80.6584 103.559 80.5772 103.493 77.8927C103.469 76.997 104.001 76.1946 104.511 75.4613C105.847 73.5387 106.248 71.5134 107.728 71.3748C109.207 71.2363 110.155 71.7689 110.888 72.8843C111.623 74.002 112.932 75.0195 114.177 74.5585C114.669 74.377 115.056 73.9901 115.427 73.6151C116.446 72.5833 117.465 71.5516 118.483 70.5198C118.805 70.1926 119.143 69.8415 119.239 69.3901C119.353 68.8575 117.812 62.8651 115.813 61.6184C113.813 60.374 109.815 65.4971 106.393 65.4493C105.232 65.4326 104.117 65.0122 103.056 64.5322C98.5558 62.4973 93.6047 54.7088 91.629 55.294C89.6533 55.8791 88.2447 58.5087 86.659 60.2188C82.4357 64.7734 81.0697 77.9213 78.2267 76.7821C75.3836 75.6428 69.0712 73.1136 64.4935 71.2769C57.7416 69.0916 58.3111 63.467 60.2254 57.3981C60.5515 56.3735 60.8777 55.3107 60.7571 54.2431C60.6413 53.2065 60.1072 52.2249 60.1734 51.1812C60.3034 49.1248 62.558 47.976 63.612 46.2134C64.6022 44.5606 53.8492 40.3834 52.0413 42.9843C51.3181 44.0256 50.1932 44.7231 49.0115 45.1601C36.6278 49.1582 19.7183 28.561 17.2132 28.9121C14.7011 29.2679 3.37137 41.8403 2.17081 44.2215Z" fill="#F2FBFF"/>
<path d="M119.231 69.3916C119.136 69.8406 118.799 70.1941 118.477 70.5189C117.459 71.5507 116.44 72.5824 115.421 73.6142C115.053 73.9892 114.665 74.3737 114.174 74.5576C112.928 75.0186 111.616 73.9987 110.884 72.8834C110.149 71.7656 109.201 71.233 107.724 71.3739C106.245 71.5125 105.843 73.5378 104.508 75.4604C103.997 76.1936 103.465 76.9961 103.489 77.8918C103.555 80.5763 107.7 80.6575 109.428 82.6972C110.695 84.1923 110.187 86.8338 108.457 87.7414C104.118 86.6093 98.6632 85.8283 95.9099 89.3989C94.4896 91.2404 94.2556 93.7959 92.8684 95.6636C91.5544 97.4358 89.4628 98.2932 87.35 99.1172V59.4058C88.6711 57.7722 89.9402 55.7946 91.6229 55.2954C93.5986 54.7079 98.5497 62.4964 103.049 64.5336C104.108 65.0113 105.226 65.4317 106.386 65.4508C109.806 65.5009 113.805 60.3755 115.807 61.6198C117.806 62.8642 119.347 68.859 119.231 69.3916Z" fill="#FE646F"/>
<path d="M29.0237 38.121V89.084C28.7851 88.9908 28.5464 88.9025 28.3053 88.8165C26.0153 88.0044 23.6283 87.5077 21.2508 87.0109C16.5408 86.0293 8.14632 85.6232 7.11591 84.066C6.08551 82.5088 7.21281 81.2788 6.33366 80.1969C5.45451 79.1126 4.29177 78.2599 3.58514 77.0562C1.62832 73.7292 3.85456 69.6331 4.90859 65.9144C5.85864 62.566 5.80901 59.024 5.75229 55.5418C5.74047 54.7799 5.72393 53.9893 5.39779 53.3015C5.05039 52.5683 4.39103 52.0285 4.01526 51.312C2.82888 49.0526 0.968961 46.6045 2.17188 44.2209C3.37244 41.8397 14.7021 29.2673 17.2049 28.9163C18.4314 28.7443 23.1108 33.5927 29.0237 38.121Z" fill="#FE646F"/>
<path d="M55.5859 33.9493C58.2257 36.032 61.7092 34.224 64.6799 34.1667C65.7363 34.1046 66.3791 34.5392 66.8541 35.4707C68.1208 37.6226 69.423 39.8892 69.5388 42.3922C69.5601 42.8627 69.5436 43.3547 69.7492 43.7774C70.0328 44.365 70.6709 44.6755 71.2711 44.9191C73.339 45.7574 75.5227 46.3067 77.7395 46.5432C80.4384 46.8346 80.9938 45.0218 78.9755 43.3189C77.9593 42.3635 77.0565 41.2888 76.2884 40.1209C76.1703 39.9417 76.0497 39.7268 76.1112 39.519C76.1632 39.347 76.3239 39.2372 76.4799 39.1464C77.229 38.7069 78.0538 38.3965 78.9046 38.2341C78.9779 37.3002 78.985 36.3592 78.9259 35.4229C78.9093 35.1554 78.8833 34.8784 78.7439 34.6491C78.5477 34.3267 78.1696 34.1762 77.8128 34.0592C76.4373 33.6126 75.0004 33.3881 73.6297 32.9223C67.7427 30.9567 71.3657 27.0732 65.0698 26.7818C62.3308 26.586 59.5917 26.3901 56.8526 26.1943C55.0021 26.0677 52.861 25.9268 53.7921 28.2411C54.1679 29.1774 54.6311 30.0467 54.9336 31.0164C55.0919 31.5227 55.255 33.677 55.5859 33.9493Z" fill="#FE646F"/>
<path d="M57.8226 19.2873C56.4259 19.1536 55.093 18.6544 53.7412 18.2747C50.4042 17.3313 46.9065 17.0829 43.5648 16.161C43.2906 16.0845 42.9976 15.989 42.8392 15.7502C42.3028 15.0337 44.0871 10.4169 44.9166 10.0515C45.2285 9.86523 45.6067 9.83418 45.9683 9.8103C47.235 9.72431 48.5017 9.63594 49.7661 9.54757C50.4893 9.54519 51.1723 9.30874 51.6945 8.79285C52.7698 7.86139 53.6774 6.73408 54.3604 5.4778C54.6558 4.93564 54.911 4.36721 55.2962 3.88715C56.3243 2.61415 58.0495 2.2129 59.6447 1.89047C60.6278 1.62298 61.2565 1.88808 61.9229 2.64997C63.9861 4.71113 65.1488 6.56451 63.8348 9.42577C63.0691 11.2624 61.9087 13.0346 61.9253 15.0289C61.9324 16.0798 62.2869 17.4411 61.5448 18.3272C60.7484 19.2802 58.9381 19.3948 57.8226 19.2873Z" fill="#FE646F"/>
<path d="M37.844 23.271C36.8278 22.3897 34.6536 19.0221 33.3088 19.3421C33.0985 19.409 32.9354 19.5714 32.7795 19.7267C31.6782 20.8301 30.0971 22.1724 29.4732 23.0369C28.8493 23.9039 28.7193 26.0702 30.1042 27.219C31.4891 28.3678 34.3251 28.4394 35.1357 30.4098C35.3956 31.0427 35.5705 31.7808 36.1306 32.1653C36.4331 32.3731 36.8042 32.4423 37.1658 32.502C38.8012 32.7719 40.4602 32.92 42.1216 32.9487C42.6604 32.9582 43.2182 32.9511 43.7097 32.7313C45.6949 31.8906 45.4302 27.9092 44.6196 26.1944C43.2442 23.486 41.2472 26.6482 37.844 23.271Z" fill="#FE646F"/>
<path d="M52.9286 82.6503L54.1883 85.9295C54.2356 86.0513 54.1198 86.1708 53.9992 86.1278L46.9566 83.6534C46.9235 83.6415 46.8904 83.6415 46.8573 83.6534L39.8147 86.1278C39.6941 86.1708 39.5783 86.0513 39.6256 85.9295L40.8829 82.6503C40.916 82.5619 40.864 82.464 40.7718 82.4473L34.6367 81.2555C34.5232 81.234 34.476 81.0955 34.5516 81.0071L37.5152 77.5679C37.5483 77.5297 37.5601 77.4795 37.5483 77.4317L36.4635 72.9989C36.4351 72.8819 36.5486 72.7792 36.6597 72.8198L42.2701 74.838C42.3812 74.8786 42.4947 74.7783 42.4663 74.6612L40.6985 66.9707C40.6726 66.8584 40.7765 66.7581 40.8876 66.7892L44.0308 67.6944C44.0804 67.7087 44.1324 67.6967 44.1726 67.6633L46.8053 65.3227C46.862 65.2726 46.9471 65.2726 47.0038 65.3227L49.6366 67.6633C49.6744 67.6967 49.7287 67.7087 49.7784 67.6944L52.9216 66.7892C53.0326 66.7581 53.1366 66.856 53.1106 66.9707L51.3429 74.6612C51.3169 74.7783 51.4279 74.8786 51.539 74.838L57.1495 72.8198C57.263 72.7792 57.374 72.8819 57.3457 72.9989L56.2609 77.4317C56.2491 77.4795 56.2609 77.5297 56.294 77.5679L59.2576 81.0071C59.3332 81.0955 59.2859 81.234 59.1725 81.2555L53.0397 82.4473C52.9476 82.464 52.8932 82.5619 52.9286 82.6503Z" fill="#FE646F"/>
<path d="M39.7674 87.9297C39.2546 87.9297 38.7488 87.7219 38.3825 87.3374C37.8626 86.7952 37.7019 85.9903 37.9713 85.2858L38.5267 83.836L34.3011 83.0144C33.6299 82.8855 33.0722 82.3982 32.8477 81.7414C32.6232 81.0846 32.7649 80.3514 33.2163 79.8284L35.6245 77.034L34.743 73.4275C34.5729 72.7301 34.795 71.9993 35.322 71.5192C35.8491 71.0392 36.5911 70.8911 37.26 71.1323L40.0699 72.145L38.9733 67.3754C38.8197 66.7091 39.0301 65.9997 39.5216 65.5268C40.0132 65.0539 40.7222 64.8772 41.3745 65.0659L43.6669 65.7274L45.6355 63.9768C46.361 63.3319 47.4552 63.3319 48.1808 63.9815L50.1447 65.7274L52.4371 65.0659C53.087 64.8772 53.7984 65.0539 54.2899 65.5268C54.7815 65.9997 54.9918 66.7067 54.8382 67.3754L53.7416 72.145L56.5563 71.1323C57.2204 70.8911 57.9625 71.0392 58.4895 71.5192C59.0165 71.9993 59.2387 72.7301 59.0685 73.4251L58.187 77.034L60.5976 79.8284C61.049 80.3538 61.1884 81.0846 60.9639 81.7414C60.7394 82.3982 60.1816 82.8855 59.5057 83.0144L55.2825 83.836L55.8379 85.2834C56.1073 85.9879 55.9466 86.7952 55.429 87.3374C54.9091 87.8795 54.1198 88.0706 53.4131 87.8222L46.9046 85.5365L40.3937 87.8246C40.1905 87.8939 39.9778 87.9297 39.7674 87.9297ZM37.7397 80.0338L41.105 80.6882C41.6675 80.7956 42.1473 81.1491 42.4261 81.6555C42.6979 82.1522 42.7405 82.7398 42.5467 83.2724L46.276 81.9612C46.6801 81.8179 47.1267 81.8179 47.5332 81.9588L51.2649 83.2748C51.0687 82.7422 51.1113 82.1546 51.3854 81.6578C51.6619 81.1515 52.144 80.798 52.7065 80.6906L56.0695 80.0361L54.9587 78.7464C54.5522 78.2783 54.3915 77.6287 54.5381 77.0149L54.8997 75.5317L52.1322 76.5276C51.4705 76.7665 50.7332 76.6208 50.2061 76.1479C49.6815 75.675 49.4546 74.9513 49.6129 74.2587L50.7615 69.2765L50.2652 69.4199C49.6295 69.6014 48.9583 69.4461 48.4667 69.0091L46.907 67.6214L45.3448 69.0091C44.8556 69.4461 44.1844 69.599 43.5558 69.4222L43.05 69.2765L44.1939 74.2563C44.3522 74.9513 44.1254 75.675 43.6007 76.1479C43.076 76.6208 42.3387 76.7665 41.677 76.5276L38.9095 75.5317L39.2688 77.0053C39.42 77.6167 39.264 78.2687 38.8528 78.7464L37.7397 80.0338ZM35.8892 82.1809L35.8869 82.1833C35.8892 82.1833 35.8892 82.1809 35.8892 82.1809ZM39.2309 82.0042C39.2309 82.0065 39.2309 82.0065 39.2286 82.0089L39.2309 82.0042ZM58.8393 79.4964C58.8369 79.4964 58.8346 79.4964 58.8322 79.4988L58.8393 79.4964ZM34.9675 79.4964L34.9746 79.4988C34.9723 79.4964 34.9699 79.4964 34.9675 79.4964ZM57.6269 76.3867L57.634 76.3963C57.6316 76.3939 57.6293 76.3891 57.6269 76.3867ZM36.0665 74.5071C36.0688 74.5071 36.0712 74.5095 36.0736 74.5095L36.0665 74.5071ZM57.7474 74.5071L57.7427 74.5095C57.7427 74.5071 57.7451 74.5071 57.7474 74.5071ZM45.834 66.6685C45.8364 66.6708 45.8387 66.6732 45.8411 66.6756L45.834 66.6685Z" fill="black"/>
<path d="M108.456 89.5332C108.307 89.5332 108.158 89.5141 108.014 89.4759C105.601 88.8477 103.642 88.5564 102.023 88.585C102.011 88.585 102.002 88.585 101.99 88.585C101.026 88.585 100.237 87.804 100.218 86.8248C100.201 85.836 100.979 85.0192 101.957 85.0025C103.715 84.969 105.665 85.2222 108.035 85.7906C108.173 85.5996 108.274 85.3583 108.324 85.098C108.416 84.6227 108.321 84.1474 108.08 83.8632C107.634 83.3354 106.712 82.9127 105.823 82.5066C104.117 81.7256 101.782 80.6533 101.716 77.9377C101.678 76.4139 102.508 75.2197 103.056 74.4316C103.425 73.899 103.725 73.3353 104.013 72.7884C104.724 71.4461 105.606 69.7743 107.558 69.5903C109.612 69.3969 111.228 70.1731 112.358 71.8927C112.828 72.6069 113.424 72.9269 113.563 72.8743C113.696 72.8242 113.991 72.528 114.166 72.3489L117.222 69.2536C117.271 69.2034 117.354 69.1198 117.423 69.0434C117.165 67.5984 115.934 64.0326 114.988 63.2277C114.461 63.34 113.232 64.1616 112.478 64.6631C110.649 65.886 108.574 67.2736 106.36 67.2378C104.845 67.2163 103.47 66.6813 102.326 66.163C99.7663 65.0047 97.2966 62.4372 95.1177 60.173C94.0872 59.1006 92.5747 57.5291 91.861 57.1159C91.0717 57.5172 90.1973 58.6469 89.415 59.6571C88.9471 60.259 88.465 60.8824 87.9474 61.4412C86.1891 63.3376 84.8396 67.4384 83.7549 70.7344C82.2849 75.1982 81.4388 77.5651 79.6995 78.3843C79.0212 78.7044 78.2649 78.7258 77.5677 78.4464L63.8889 72.9627C60.188 71.7494 57.9949 69.4494 57.3639 66.1296C56.7778 63.0438 57.6805 59.5497 58.5313 56.8532C58.796 56.0149 59.0702 55.1527 58.9922 54.4433C58.9615 54.1639 58.8646 53.8271 58.7653 53.4713C58.5668 52.7762 58.3446 51.9881 58.4014 51.0662C58.5242 49.1077 59.8075 47.7989 60.8379 46.748C61.0506 46.5307 61.261 46.3181 61.4524 46.1079C60.7363 45.6589 59.4625 45.0356 57.7798 44.5316C55.2463 43.7745 53.8024 43.8891 53.4455 44.0754C52.5876 45.2768 51.2665 46.2321 49.617 46.8412C49.5933 46.8507 49.572 46.8579 49.5484 46.865C48.2722 47.2782 46.9653 47.4645 45.6419 47.4645C36.9071 47.4645 27.4515 39.3369 21.4865 34.2067C19.8889 32.8334 18.1047 31.3001 17.2799 30.8033C16.9892 30.9729 16.4385 31.3478 15.5097 32.1432C14.7629 32.7832 13.6451 32.6901 13.0117 31.9354C12.3784 31.1806 12.4705 30.0509 13.2173 29.4109C15.3656 27.5694 16.318 27.2279 16.9655 27.1371C18.4142 26.9317 19.759 28.0184 23.7837 31.4792C30.0819 36.8936 40.6175 45.9527 48.4353 43.464C49.1254 43.2061 50.0471 42.7356 50.5906 41.9546C52.9965 38.4914 60.8946 41.4602 63.4895 43.175C66.0868 44.8899 65.5007 46.5211 65.1297 47.1421C64.6263 47.9828 63.9528 48.6683 63.3596 49.2725C62.6199 50.0272 61.9818 50.6769 61.9439 51.2955C61.925 51.5964 62.0479 52.0287 62.1779 52.4849C62.3079 52.9434 62.4568 53.4641 62.5206 54.0421C62.686 55.5157 62.2583 56.8627 61.9156 57.9471C61.2491 60.0584 60.4125 63.1394 60.8545 65.4585C61.0932 66.7219 61.788 68.5204 65.0375 69.5736C65.0753 69.5856 65.1131 69.5999 65.1509 69.6142L78.3524 74.9068C78.9692 73.9467 79.8483 71.2813 80.399 69.6071C81.6539 65.7905 83.079 61.4651 85.369 58.9956C85.7802 58.5537 86.1938 58.0187 86.631 57.4527C87.8292 55.905 89.1881 54.1519 91.1308 53.5764C93.1419 52.9793 94.9428 54.8493 97.6653 57.6796C99.6221 59.7145 101.841 62.0192 103.782 62.8981C104.597 63.2683 105.549 63.6457 106.419 63.66C106.428 63.66 106.436 63.66 106.445 63.66C107.565 63.66 109.139 62.6068 110.531 61.6777C112.606 60.2924 114.752 58.857 116.742 60.0966C117.193 60.376 118.566 61.2311 119.984 65.1599C120.275 65.9672 121.206 68.6804 120.972 69.7719C120.762 70.7487 120.124 71.3983 119.741 71.7853L116.676 74.8806C116.243 75.3176 115.652 75.9195 114.78 76.2419C112.656 77.0277 110.55 75.6186 109.406 73.8775C109.004 73.266 108.674 73.0989 107.946 73.1538C107.742 73.3425 107.383 74.0208 107.14 74.4793C106.816 75.0908 106.45 75.7834 105.956 76.4927C105.691 76.8725 105.249 77.5078 105.259 77.8493C105.27 78.2888 106.069 78.6876 107.289 79.2465C108.473 79.7887 109.815 80.4049 110.772 81.5346C111.732 82.6643 112.107 84.2143 111.805 85.7859C111.502 87.3574 110.578 88.6519 109.271 89.335C109.019 89.4663 108.737 89.5332 108.456 89.5332Z" fill="black"/>
<path d="M79.6213 107C79.5456 107 79.47 106.995 79.3944 106.988C78.2411 106.854 77.4399 105.825 75.6864 103.568C74.7789 102.4 72.9 99.983 72.1556 99.6319C70.5131 99.2689 69.3149 98.2347 68.2538 97.3223C67.5093 96.6823 66.8074 96.0756 66.089 95.8248C64.9593 95.4284 63.5319 95.8033 62.0241 96.1974C61.6554 96.293 61.2749 96.3933 60.8944 96.4816C59.2165 96.8757 57.9687 96.3121 56.9666 95.8583C56.2505 95.5335 55.5746 95.2277 54.6246 95.1633C54.0716 95.125 53.0176 95.1394 51.7957 95.1537C47.2156 95.211 39.5467 95.309 34.4231 93.3099C33.3998 92.911 32.3977 92.4668 31.4288 92.0369C30.1597 91.4756 28.9615 90.9454 27.7231 90.5059C25.5394 89.7321 23.1785 89.2401 20.8955 88.7648C19.3877 88.4496 17.4073 88.1868 15.493 87.9313C9.30115 87.1073 6.67551 86.6177 5.64511 85.0605C4.77069 83.7373 4.85577 82.4882 4.90776 81.743C4.91722 81.5902 4.9314 81.3919 4.92667 81.2845C4.65016 80.9501 4.32166 80.6205 3.97426 80.2718C3.3338 79.6293 2.60827 78.9009 2.06234 77.9718C0.096075 74.6305 1.35572 70.9548 2.46411 67.7138C2.73825 66.9137 2.99821 66.1566 3.20618 65.4209C4.09006 62.3017 4.0357 58.8792 3.98371 55.5713C3.97426 55.0316 3.9648 54.4225 3.80174 54.0738C3.71193 53.8827 3.51814 53.6439 3.31253 53.3884C3.0313 53.042 2.71462 52.648 2.45229 52.1512C2.2774 51.8192 2.08598 51.4777 1.88037 51.117C0.663268 48.9603 -0.85161 46.2758 0.594732 43.4098C1.33208 41.9505 4.45164 38.2963 7.21907 35.3204C7.89025 34.5991 9.01046 34.5633 9.72418 35.2416C10.4379 35.9198 10.4733 37.0519 9.80217 37.7732C6.57862 41.234 4.1515 44.2385 3.74974 45.0362C3.21091 46.1038 3.84664 47.3745 4.95739 49.3425C5.16536 49.7103 5.38042 50.0924 5.5813 50.4745C5.6782 50.6608 5.86254 50.8853 6.05397 51.1266C6.36828 51.5159 6.72278 51.9553 6.99692 52.5333C7.49322 53.5842 7.51212 54.6566 7.5263 55.5164C7.58302 59.087 7.64211 62.7794 6.61407 66.4121C6.3801 67.2409 6.09178 68.0792 5.81527 68.8888C4.87468 71.6379 3.98607 74.234 5.11101 76.1471C5.42769 76.6869 5.9358 77.1956 6.47463 77.7354C6.88585 78.1462 7.30888 78.5737 7.70828 79.0657C8.57561 80.1333 8.49762 81.2558 8.44563 81.9986C8.41018 82.493 8.40309 82.7199 8.52362 82.9563C9.47839 83.5224 13.5149 84.0597 15.9562 84.3846C17.9343 84.6473 19.9786 84.9196 21.6116 85.2611C24.008 85.7603 26.4871 86.2761 28.8953 87.1288C30.2613 87.6136 31.5777 88.1964 32.8515 88.7601C33.8299 89.1923 34.7516 89.6008 35.7016 89.971C40.1872 91.7216 47.4283 91.6285 51.7532 91.5759C53.1026 91.5592 54.1685 91.5449 54.8633 91.5927C56.4467 91.7001 57.5386 92.1945 58.4177 92.591C59.2803 92.9803 59.6041 93.1093 60.0956 92.9946C60.4336 92.9158 60.7763 92.8251 61.1379 92.7319C63.0001 92.2447 65.1106 91.693 67.2541 92.4429C68.6012 92.9158 69.641 93.8091 70.558 94.5972C71.4159 95.3352 72.1556 95.9729 72.9402 96.1377C74.5945 96.4888 76.1354 98.3422 78.4774 101.356C78.7705 101.734 79.1132 102.173 79.4298 102.567C79.5527 102.357 79.6803 102.142 79.8292 101.922C81.4623 99.4981 84.1375 98.4544 86.4985 97.5349C88.5049 96.7515 90.4003 96.0135 91.4567 94.5924C91.9861 93.8783 92.3358 92.9397 92.7045 91.9461C92.9243 91.3562 93.1512 90.7448 93.4301 90.1405C93.8436 89.2449 94.8977 88.8556 95.7863 89.2736C96.6725 89.6915 97.0577 90.7567 96.6441 91.6548C96.422 92.1348 96.2282 92.6555 96.025 93.2072C95.5854 94.3942 95.1293 95.6194 94.295 96.7444C92.6289 98.987 90.0529 99.9925 87.777 100.881C85.7186 101.683 83.7712 102.443 82.7621 103.943C82.6392 104.127 82.5163 104.342 82.384 104.569C82.0247 105.192 81.5805 105.971 80.8313 106.577C80.4815 106.852 80.0608 107 79.6213 107Z" fill="black"/>
<path d="M87.3502 100.455C86.3718 100.455 85.5777 99.6526 85.5777 98.6638V59.8505C85.5777 58.8617 86.3718 58.0592 87.3502 58.0592C88.3286 58.0592 89.1227 58.8617 89.1227 59.8505V98.6638C89.1227 99.6526 88.3286 100.455 87.3502 100.455Z" fill="black"/>
<path d="M29.0237 90.2227C28.0453 90.2227 27.2513 89.4202 27.2513 88.4314V38.5098C27.2513 37.521 28.0453 36.7185 29.0237 36.7185C30.0022 36.7185 30.7962 37.521 30.7962 38.5098V88.4314C30.7962 89.4226 30.0022 90.2227 29.0237 90.2227Z" fill="black"/>
<path d="M78.2854 48.3672C78.0562 48.3672 77.8104 48.3552 77.5504 48.3266C75.1682 48.071 72.8333 47.4859 70.6094 46.5831C69.7019 46.2153 68.6999 45.6874 68.1563 44.5673C67.816 43.8651 67.7924 43.1749 67.7734 42.6709C67.7711 42.6064 67.7687 42.5444 67.7664 42.4799C67.6671 40.3662 66.424 38.2525 65.3274 36.3895C65.3085 36.3585 65.292 36.3274 65.2754 36.2964C65.0935 35.9381 65.0698 35.9405 64.7791 35.9572C64.7555 35.9596 64.7319 35.9596 64.7082 35.9596C63.9449 35.974 63.0776 36.1388 62.1582 36.3131C59.8375 36.755 56.9495 37.3019 54.4917 35.3625C54.4822 35.3554 54.4704 35.3458 54.461 35.3387C53.7496 34.7511 53.5842 33.8364 53.3526 32.2672C53.3148 32.0093 53.2628 31.6606 53.2344 31.5388C53.0737 31.03 52.8468 30.5213 52.6058 29.9839C52.4521 29.6424 52.2962 29.2889 52.1449 28.9139C51.4926 27.2875 51.8708 26.2294 52.3009 25.6276C53.3597 24.1539 55.3614 24.2972 56.9708 24.4119L65.1667 24.997C69.1891 25.1905 70.2762 26.7644 71.1908 28.6488C71.7013 29.7021 72.1054 30.5333 74.1804 31.2259C74.8256 31.4456 75.4967 31.608 76.2081 31.78C76.9053 31.9496 77.6237 32.1215 78.3492 32.358C78.7486 32.4869 79.6821 32.7903 80.2422 33.7098C80.6251 34.3355 80.6676 34.9947 80.6865 35.3124C80.7504 36.3298 80.7433 37.3616 80.6629 38.379C80.5991 39.1839 80.0106 39.8479 79.226 39.9984C78.9826 40.0437 78.7439 40.1058 78.5099 40.1823C79.0086 40.8223 79.5569 41.4242 80.1453 41.9807C81.7382 43.3445 82.3314 45.0044 81.7311 46.435C81.535 46.9127 80.7196 48.3672 78.2854 48.3672ZM71.3444 42.9671C71.4106 43.0172 71.5689 43.1104 71.9305 43.2585C73.8471 44.0347 75.8607 44.541 77.9144 44.7631C77.8908 44.7416 77.8648 44.7202 77.8364 44.6963C77.8128 44.6748 77.7891 44.6557 77.7655 44.6318C76.65 43.5809 75.6551 42.3963 74.8114 41.1137C74.3411 40.402 74.2087 39.6903 74.4143 39.0024C74.6719 38.1354 75.3644 37.7294 75.5913 37.598C76.1017 37.2971 76.6382 37.0487 77.1912 36.8505C77.1959 36.4779 77.1865 36.1053 77.1676 35.7351C76.6028 35.556 76.0119 35.4127 75.3904 35.2622C74.6341 35.0783 73.8519 34.8896 73.0649 34.6221C69.5885 33.4614 68.6408 31.5149 68.0145 30.2275C67.4662 29.1026 67.263 28.6799 64.9871 28.5748C64.9729 28.5748 64.9588 28.5724 64.9446 28.5724L56.725 27.9849C56.4225 27.9634 55.9735 27.9299 55.5835 27.9276C55.6662 28.1186 55.7513 28.3097 55.8411 28.5103C56.1153 29.1241 56.3989 29.7594 56.6234 30.4759C56.7179 30.7745 56.7723 31.1327 56.8621 31.737C56.9022 32.014 56.9684 32.4607 57.0322 32.7759C58.1004 33.3754 59.4783 33.1772 61.5083 32.7927C62.5198 32.6016 63.5644 32.4033 64.6137 32.3795C65.793 32.3198 67.3882 32.6613 68.4021 34.6006C69.6405 36.7048 71.1695 39.3201 71.309 42.3079C71.3137 42.3867 71.316 42.4655 71.3184 42.5444C71.3231 42.6757 71.3302 42.862 71.3444 42.9671Z" fill="black"/>
<path d="M58.515 21.1113C58.1487 21.1113 57.8486 21.0898 57.6548 21.0707C56.4211 20.9513 55.2938 20.6098 54.2067 20.2802C53.8924 20.1846 53.5781 20.0891 53.2638 20.0007C51.6591 19.5469 50.0166 19.2627 48.2796 18.9642C46.5827 18.6704 44.8268 18.3671 43.0968 17.8894C42.7447 17.7915 41.927 17.567 41.3882 16.7812C40.7595 15.888 40.9486 14.7057 41.218 13.6644C41.2629 13.4877 42.324 9.47043 44.0398 8.49359C44.7133 8.09951 45.394 8.05413 45.8454 8.02308L49.6455 7.76036C49.6834 7.75798 49.7212 7.75559 49.759 7.75559C50.0591 7.75559 50.2931 7.67199 50.4538 7.51197C50.4822 7.48331 50.5105 7.45704 50.5412 7.43077C51.4606 6.63544 52.2239 5.68726 52.8053 4.61488C52.8667 4.50024 52.9282 4.38321 52.9896 4.26618C53.2354 3.79568 53.5119 3.26307 53.9231 2.75435C55.386 0.941576 57.695 0.459127 59.2453 0.143862C60.7885 -0.254995 62.086 0.160583 63.2062 1.41447C64.6218 2.83078 67.4649 5.73025 65.4537 10.1487C65.2505 10.636 65.0259 11.1089 64.8085 11.565C64.2319 12.7831 63.6859 13.9319 63.693 15.0114C63.6954 15.193 63.7119 15.4175 63.7308 15.6587C63.8112 16.6857 63.9341 18.2357 62.8942 19.4825C61.7386 20.8725 59.751 21.1113 58.515 21.1113ZM44.6401 14.5935C46.0084 14.9374 47.4075 15.1786 48.8775 15.4318C50.6263 15.7351 52.4366 16.0456 54.2185 16.5495C54.5565 16.6451 54.8921 16.7478 55.2277 16.8481C56.1943 17.1419 57.1041 17.4189 57.9904 17.5049C59.1484 17.6171 60.037 17.3473 60.1906 17.1705C60.2851 17.0057 60.2308 16.3155 60.2024 15.9453C60.1788 15.6539 60.1552 15.3506 60.1528 15.0425C60.1386 13.1318 60.9232 11.479 61.6157 10.0174C61.8284 9.57074 62.0269 9.148 62.2018 8.73004C62.2112 8.71093 62.2183 8.68944 62.2278 8.67033C63.0171 6.95071 62.6863 5.93087 60.6775 3.92465C60.6491 3.89599 60.6207 3.86733 60.5947 3.83628C60.4435 3.66432 60.356 3.59983 60.3253 3.58072C60.297 3.58072 60.2284 3.5855 60.1055 3.62132C60.0677 3.63088 60.0323 3.64043 59.9945 3.6476C58.6001 3.92942 57.2956 4.24708 56.6717 5.01852C56.4873 5.2478 56.3124 5.58217 56.1281 5.93565C56.0572 6.07179 55.9863 6.20554 55.9154 6.33928C55.1355 7.77469 54.1169 9.0453 52.8904 10.1153C52.0892 10.8843 51.0092 11.3166 49.8393 11.3357L46.0911 11.5937C46.0297 11.5985 45.9399 11.6032 45.8619 11.6128C45.472 12.1956 44.8929 13.6429 44.6401 14.5935ZM45.6279 11.694C45.6279 11.694 45.6256 11.694 45.6256 11.6964C45.6279 11.694 45.6279 11.694 45.6279 11.694Z" fill="black"/>
<path d="M42.3508 34.7422C42.2634 34.7422 42.176 34.7422 42.0909 34.7398C40.3491 34.7111 38.5956 34.5535 36.8798 34.2717C36.3457 34.1833 35.7289 34.0567 35.1333 33.6507C34.2163 33.0202 33.8713 32.0983 33.6208 31.4224C33.5806 31.3125 33.5404 31.205 33.4979 31.0999C33.2876 30.5912 32.4131 30.2568 31.4891 29.901C30.6241 29.569 29.7284 29.2274 28.9793 28.6041C26.7672 26.765 26.9421 23.5097 28.0434 21.9835C28.561 21.267 29.4377 20.443 30.3689 19.5713C30.773 19.1939 31.189 18.8022 31.5364 18.4559C31.7538 18.2386 32.1579 17.8349 32.7795 17.6367C32.822 17.6224 32.8622 17.6128 32.9047 17.6009C34.9112 17.1184 36.5844 19.1056 38.0614 20.8562C38.4136 21.2718 38.8106 21.7447 39.002 21.9119C39.0328 21.9382 39.0611 21.9644 39.0895 21.9931C40.3515 23.2446 41.1385 23.2207 42.1334 23.1873C43.2229 23.1514 45.0426 23.0941 46.2007 25.375C46.2078 25.3893 46.2148 25.4037 46.2219 25.4204C46.9947 27.0516 47.3351 29.9535 46.567 31.986C46.0234 33.4286 45.0994 34.0806 44.414 34.3744C43.6956 34.6896 42.9842 34.7422 42.3508 34.7422ZM37.1492 30.6796C37.2437 30.7035 37.3832 30.725 37.4446 30.7345C38.9949 30.9877 40.5784 31.131 42.15 31.1572C42.3674 31.1596 42.8188 31.1692 42.9937 31.0904C43.0031 31.0856 43.0149 31.0808 43.0244 31.076C43.0669 31.0593 43.1615 30.9471 43.2513 30.7106C43.627 29.7147 43.438 27.8709 43.0315 26.9872C42.97 26.8677 42.9228 26.8009 42.8968 26.7698C42.7668 26.7507 42.4666 26.7603 42.2445 26.765C41.0179 26.8056 38.9713 26.8701 36.6435 24.5845C36.2559 24.2382 35.8399 23.7438 35.3602 23.1753C34.9537 22.6929 34.2045 21.8044 33.6728 21.3458C33.3821 21.6277 33.0772 21.9143 32.7771 22.1937C32.0468 22.8768 31.2197 23.653 30.9054 24.0901C30.7707 24.3194 30.6525 25.3559 31.2291 25.8336C31.5293 26.082 32.1461 26.3184 32.744 26.5477C34.1076 27.0708 35.9746 27.7849 36.7711 29.7218C36.8302 29.8628 36.8845 30.0084 36.9389 30.1565C36.998 30.3237 37.0854 30.5554 37.1492 30.6796Z" fill="black"/>
</g>
<defs>
<clipPath id="clip0_648_8830">
<rect width="121" height="107" fill="white"/>
</clipPath>
</defs>
</svg>
