<svg width="311" height="245" viewBox="0 0 311 245" fill="none" xmlns="http://www.w3.org/2000/svg">
<g clip-path="url(#clip0_648_7469)">
<path d="M146.574 148.442H119.737L133.155 124.34L146.574 148.442Z" fill="#FFD912"/>
<path d="M97.1256 212.764H0L48.5533 125.478L97.1256 212.764Z" fill="#FFD912"/>
<path d="M177.103 53.4944H138.218L157.67 18.5459L177.103 53.4944Z" fill="#FFD912"/>
<path d="M293.661 89.7704H227.769L260.715 30.5684L293.661 89.7704Z" fill="#FFD912"/>
<path d="M311 207.208H234.792L272.896 138.714L311 207.208Z" fill="#FFD912"/>
<path d="M106.89 90.7565C107.365 91.2305 107.994 91.4581 108.603 91.4581C109.231 91.4581 109.84 91.2305 110.316 90.7565C119.566 81.5405 119.566 66.5599 110.316 57.3439C109.364 56.3958 107.822 56.3958 106.871 57.3439C105.919 58.2921 105.919 59.8281 106.871 60.7762C114.217 68.0959 114.217 80.0235 106.871 87.3431C105.938 88.2723 105.938 89.8083 106.89 90.7565Z" fill="#5D7BAA"/>
<path d="M123.049 74.0313C123.049 81.8819 119.984 89.2585 114.408 94.8146C113.456 95.7627 113.456 97.2987 114.408 98.2469C114.883 98.7209 115.512 98.9485 116.121 98.9485C116.749 98.9485 117.358 98.7209 117.834 98.2469C124.324 91.7805 127.902 83.1904 127.902 74.0503C127.902 64.9102 124.324 56.32 117.834 49.8537C116.882 48.9055 115.34 48.9055 114.389 49.8537C113.437 50.8018 113.437 52.3378 114.389 53.286C119.984 58.8041 123.049 66.1997 123.049 74.0313Z" fill="#5D7BAA"/>
<path d="M133.993 74.0309C133.993 84.7828 129.786 94.909 122.154 102.513C121.202 103.461 121.202 104.997 122.154 105.945C122.63 106.419 123.258 106.647 123.867 106.647C124.495 106.647 125.104 106.419 125.58 105.945C134.126 97.431 138.846 86.0912 138.846 74.0309C138.846 61.9705 134.126 50.6497 125.58 42.1164C124.628 41.1682 123.087 41.1682 122.135 42.1164C121.183 43.0645 121.183 44.6005 122.135 45.5487C129.786 53.1717 133.993 63.2789 133.993 74.0309Z" fill="#5D7BAA"/>
<path d="M76.8935 90.7559C77.3694 91.23 77.9975 91.4575 78.6065 91.4575C79.2346 91.4575 79.8437 91.23 80.3195 90.7559C81.2711 89.8078 81.2711 88.2718 80.3195 87.3236C72.9727 80.004 72.9727 68.0763 80.3195 60.7567C81.2711 59.8085 81.2711 58.2725 80.3195 57.3244C79.3678 56.3762 77.8262 56.3762 76.8745 57.3244C67.6435 66.5403 67.6435 81.5399 76.8935 90.7559Z" fill="#5D7BAA"/>
<path d="M69.3755 98.2467C69.8513 98.7208 70.4794 98.9483 71.0885 98.9483C71.6975 98.9483 72.3256 98.7208 72.8014 98.2467C73.7531 97.2986 73.7531 95.7626 72.8014 94.8144C67.2247 89.2583 64.1604 81.8818 64.1604 74.0312C64.1604 66.1805 67.2247 58.804 72.8014 53.2479C73.7531 52.2997 73.7531 50.7637 72.8014 49.8156C71.8498 48.8675 70.3081 48.8675 69.3564 49.8156C62.8662 56.2819 59.288 64.8721 59.288 74.0122C59.307 83.1902 62.8852 91.7804 69.3755 98.2467Z" fill="#5D7BAA"/>
<path d="M63.361 106.666C63.9891 106.666 64.5982 106.439 65.074 105.965C66.0257 105.017 66.0257 103.481 65.074 102.533C49.3146 86.8313 49.3146 61.2694 65.074 45.5682C66.0257 44.62 66.0257 43.0841 65.074 42.1359C64.1223 41.1878 62.5807 41.1878 61.629 42.1359C43.9664 59.7334 43.9664 88.3673 61.629 105.965C62.1048 106.42 62.7329 106.666 63.361 106.666Z" fill="#5D7BAA"/>
<path d="M133.098 238.211L126.969 210.279C126.969 210.26 117.32 166.361 117.32 166.361C117.339 166.209 117.358 166.058 117.358 165.906C117.358 165.394 117.186 164.92 116.901 164.522L95.5459 67.2992C95.2985 66.1994 94.3278 65.4219 93.2048 65.4219C92.0819 65.4219 91.1112 66.1994 90.8638 67.2992L76.6461 132.038L69.2993 165.432C69.2993 165.451 53.3116 238.211 53.3116 238.211C53.0261 239.501 53.8445 240.771 55.1387 241.037C55.31 241.075 55.4813 241.094 55.6526 241.094C56.7566 241.094 57.7463 240.335 57.9937 239.216L63.7227 213.124H122.706L128.435 239.216C128.721 240.506 129.996 241.321 131.271 241.037C132.565 240.771 133.384 239.501 133.098 238.211ZM80.9095 134.902H105.5L111.8 163.536H74.6096L80.9095 134.902ZM93.2048 78.9424L104.453 130.142H81.9563L93.2048 78.9424ZM64.7695 208.383L73.5818 168.314H112.847L121.659 208.383H64.7695Z" fill="#5D7BAA"/>
<path d="M93.2049 86.4894C100.5 86.4894 106.414 80.5973 106.414 73.3292C106.414 66.061 100.5 60.1689 93.2049 60.1689C85.9098 60.1689 79.9959 66.061 79.9959 73.3292C79.9959 80.5973 85.9098 86.4894 93.2049 86.4894Z" fill="#5D7BAA"/>
<path d="M254.776 245H158.964C156.623 245 154.739 243.122 154.739 240.79V63.7908C154.739 61.4584 156.642 59.5811 158.964 59.5811H254.795C257.136 59.5811 259.021 61.4773 259.021 63.7908V240.79C259.021 243.122 257.117 245 254.776 245Z" fill="black"/>
<path d="M157.67 240.619V63.9616C157.67 63.3358 158.184 62.8428 158.793 62.8428H254.948C255.576 62.8428 256.071 63.3548 256.071 63.9616V240.619C256.071 241.245 255.557 241.738 254.948 241.738H158.793C158.165 241.738 157.67 241.245 157.67 240.619Z" fill="#5D7AAA"/>
<g opacity="0.25">
<path d="M255.005 62.8232H215.873L256.09 130.198V64.0179C256.071 63.3542 255.595 62.8232 255.005 62.8232Z" fill="white"/>
<path d="M247.106 241.737L157.651 69.0996V136.304C175.77 170.172 198.286 212.629 213.684 241.737H247.106Z" fill="white"/>
<path d="M256.071 197.63L185.61 62.8232H173.068L256.071 219.703V197.63Z" fill="white"/>
</g>
<g opacity="0.92">
<path d="M201.75 172.903C201.75 175.709 204.034 178.004 206.87 178.004C209.687 178.004 211.99 175.728 211.99 172.903C211.99 170.096 209.706 167.802 206.87 167.802C204.053 167.802 201.75 170.077 201.75 172.903Z" fill="white"/>
<path d="M221.526 172.96C219.984 172.96 218.557 171.936 218.119 170.381C216.71 165.393 212.085 161.923 206.87 161.923C201.769 161.923 197.163 165.318 195.679 170.191C195.108 172.068 193.128 173.111 191.244 172.542C189.36 171.973 188.313 170.001 188.884 168.124C191.301 160.179 198.534 154.831 206.87 154.831C215.245 154.831 222.668 160.425 224.952 168.446C225.485 170.324 224.381 172.277 222.496 172.808C222.173 172.922 221.849 172.96 221.526 172.96Z" fill="white"/>
<path d="M233.478 168.01C231.994 168.01 230.623 167.081 230.129 165.62C226.722 155.741 217.376 149.085 206.889 149.085C196.535 149.085 187.228 155.608 183.745 165.317C183.079 167.156 181.061 168.124 179.215 167.46C177.369 166.796 176.398 164.786 177.064 162.947C181.556 150.431 193.547 142.012 206.889 142.012C220.422 142.012 232.47 150.583 236.847 163.326C237.475 165.165 236.486 167.194 234.639 167.82C234.24 167.953 233.859 168.01 233.478 168.01Z" fill="white"/>
<path d="M167.967 163.099C167.567 163.099 167.167 163.023 166.768 162.89C164.921 162.227 163.97 160.198 164.636 158.358C171.05 140.704 188.027 128.833 206.87 128.833C225.713 128.833 242.709 140.704 249.105 158.358C249.771 160.198 248.819 162.227 246.973 162.89C245.127 163.554 243.09 162.606 242.424 160.766C237.038 145.9 222.744 135.906 206.87 135.906C190.997 135.906 176.703 145.9 171.316 160.766C170.784 162.208 169.432 163.099 167.967 163.099Z" fill="white"/>
</g>
<path d="M146.079 204.04C143.795 205.5 126.989 210.943 125.561 210.886C124.134 210.829 108.127 204.571 106.68 204.381C105.234 204.192 102.055 204.836 101.085 205.974C100.133 207.112 98.0773 211.265 99.2002 210.544C100.323 209.824 104.149 207.302 104.13 207.946C104.111 208.591 102.702 210.829 103.464 211.284C104.225 211.739 106.052 208.42 106.699 208.705C107.346 208.989 122.592 216.233 123.886 216.556C125.18 216.859 143.452 213.692 144.118 213.465C144.784 213.237 146.079 204.04 146.079 204.04Z" fill="#FFB2A8"/>
<path d="M136.771 214.792C140.597 214.147 143.852 213.559 144.137 213.465C144.803 213.237 146.079 204.04 146.079 204.04C144.88 204.818 139.684 206.676 134.811 208.269C135.877 210.298 136.543 212.516 136.771 214.792Z" fill="#455E86"/>
<path d="M155.824 213.654C155.69 212.725 153.368 205.121 152.873 204.325C150.818 200.172 149.771 195.583 149.124 195.298C148.477 195.014 144.956 198.56 145.108 199.186C146.136 202.959 145.355 203.661 143.661 205.842C141.968 208.004 140.749 216.499 140.673 218.262C140.502 222.548 141.339 230.475 140.673 230.114C139.094 229.28 104.358 205.861 103.445 205.956C102.531 206.05 82.946 231.669 82.5463 232.048C82.1466 232.428 47.5826 236.789 47.0687 236.372C46.5548 235.955 42.8624 224.236 41.3969 225.089C39.9313 225.942 41.9488 243.445 43.8712 244.45C45.7935 245.436 59.8399 244.355 62.0477 244.697C64.2556 245.038 93.6045 242.895 95.9456 243.123C98.2867 243.35 141.968 244.659 144.594 244.697C152.569 244.772 154.434 240.278 155.519 236.296C156.547 232.314 156.699 220.064 155.824 213.654ZM93.6236 230.266C93.6236 230.266 102.074 220.348 103.007 219.874C103.939 219.4 112.828 225.734 114.979 229.242C105.995 229.28 93.6236 230.266 93.6236 230.266Z" fill="#FFB2A8"/>
<path d="M155.481 236.296C156.071 234.097 156.376 229.413 156.395 224.577C152.226 226.531 147.677 227.574 143.09 227.593C142.386 227.593 141.644 227.555 140.902 227.479C140.959 229.147 140.921 230.266 140.654 230.134C139.074 229.299 104.339 205.88 103.426 205.975C102.512 206.07 82.927 231.689 82.5273 232.068C82.1656 232.39 55.272 235.822 48.5533 236.353C49.0291 239.16 49.2004 242.042 49.0672 244.887C53.9396 244.868 60.5631 244.469 62.0287 244.716C64.2365 245.057 93.5855 242.915 95.9265 243.142C98.2676 243.37 141.948 244.678 144.575 244.716C152.531 244.773 154.396 240.279 155.481 236.296ZM93.6235 230.266C93.6235 230.266 102.074 220.349 103.007 219.875C103.939 219.401 112.828 225.734 114.979 229.242C105.995 229.28 93.6235 230.266 93.6235 230.266Z" fill="black"/>
<path d="M149.276 186.746C147.754 185.798 144.88 186.424 143.433 187.846C141.987 189.268 140.293 195.261 140.654 196.569C141.016 197.878 143.604 198.996 144.67 199.129C145.736 199.262 148.8 199.641 149.904 196.493C150.989 193.345 152.95 189.022 149.276 186.746Z" fill="#FFB2A8"/>
<path d="M152.854 204.325C152.093 202.789 151.465 201.196 150.951 199.773C150.913 199.792 150.894 199.811 150.856 199.849C149.428 200.968 148.039 202.239 146.307 202.883C145.983 202.997 145.679 203.073 145.374 203.13C144.499 204.04 144.48 204.761 143.642 205.842C141.948 208.003 140.73 216.499 140.654 218.262C140.559 220.708 140.787 224.311 140.883 226.909C140.997 226.966 141.111 227.004 141.225 227.061C142.615 227.819 141.606 231.081 143.167 231.441C144.556 231.764 145.945 232.048 147.373 232.124C148.953 232.2 150.532 232.01 152.093 231.764C153.502 231.536 154.91 231.271 156.204 230.702C156.547 225.354 156.433 218.092 155.824 213.635C155.69 212.725 153.349 205.121 152.854 204.325Z" fill="#455E86"/>
<path d="M149.676 206.676C144.366 206.809 142.215 213.958 140.178 217.675C137.228 223.003 136.638 225.563 132.603 226.777C128.587 227.99 117.777 231.536 113.837 232.162C109.878 232.788 108.013 232.124 105.995 232.276C103.997 232.428 101.484 233.698 101.732 234.608C101.979 235.538 106.09 234.741 107.613 234.95C109.136 235.158 104.111 235.329 105.71 236.258C107.289 237.187 109.421 236.315 111.8 235.519C114.179 234.722 113.932 235.31 118.081 234.836C122.23 234.381 134.259 234.248 139.094 232.295C142.025 231.119 144.252 228.597 146.174 226.189C148.724 223.022 151.465 219.533 153.159 215.759C154.701 212.346 154.948 206.714 149.866 206.657C149.809 206.657 149.733 206.657 149.676 206.676Z" fill="#FFB2A8"/>
<path d="M138.446 220.899C139.512 221.582 140.502 222.302 141.397 223.212C142.748 224.559 143.89 226.095 144.937 227.688C145.355 227.195 145.774 226.702 146.155 226.208C148.705 223.042 151.446 219.553 153.14 215.779C154.682 212.366 154.929 206.734 149.847 206.677C149.771 206.677 149.714 206.677 149.638 206.677C144.328 206.809 142.177 213.958 140.14 217.675C139.493 218.889 138.941 219.951 138.446 220.899Z" fill="#455E86"/>
<path d="M106.718 208.706C107.023 208.838 110.829 210.659 114.788 212.498C115.493 210.981 115.816 209.331 115.93 207.625C111.648 206.051 107.404 204.496 106.699 204.401C105.253 204.211 102.074 204.856 101.104 205.994C100.152 207.132 98.0963 211.285 99.2193 210.564C100.342 209.843 104.168 207.321 104.149 207.966C104.13 208.611 102.721 210.848 103.483 211.303C104.244 211.721 106.071 208.421 106.718 208.706Z" fill="#FFB2A8"/>
<path d="M151.579 187.164C150.894 186.178 149.904 185.381 148.838 184.926C146.783 184.073 144.385 183.674 142.31 184.509C141.511 184.831 140.749 185.381 140.369 186.14C140.064 186.746 140.007 187.467 140.216 188.093C140.426 188.738 140.921 189.268 141.53 189.534C142.025 189.743 142.558 189.78 143.09 189.799C143.795 189.799 144.518 189.724 145.203 189.591C146.535 189.325 147.868 188.813 149.181 189.136C149.409 189.193 149.619 189.268 149.79 189.42C150.152 189.724 150.19 190.255 150.171 190.729C150.095 192.397 149.428 193.99 148.762 195.526C148.61 195.868 148.477 196.209 148.21 196.455C147.735 196.929 147.011 197.043 146.345 197.119C145.869 197.176 145.393 197.233 144.937 197.176C144.461 197.119 144.004 196.91 143.7 196.55C143.471 196.266 143.338 195.886 142.995 195.792C142.767 195.716 142.5 195.811 142.253 195.811C141.796 195.792 141.454 195.375 141.339 194.938C141.225 194.502 141.301 194.047 141.358 193.611C140.959 193.914 140.807 194.407 140.673 194.881C140.464 195.64 140.255 196.474 140.502 197.233C140.883 198.314 142.082 198.826 143.167 199.148C144.175 199.452 145.222 199.679 146.288 199.679C147.125 199.679 148.001 199.527 148.762 199.167C149.714 198.712 149.961 198.048 150.285 197.119C150.456 196.645 150.628 196.19 150.799 195.716C151.446 194.009 152.36 192.284 152.436 190.425C152.569 189.287 152.245 188.15 151.579 187.164Z" fill="#121313"/>
<path d="M52.4741 235.974C49.3146 236.315 47.1829 236.505 47.0497 236.391C46.5358 235.974 42.8434 224.255 41.3778 225.108C39.9123 225.961 41.9298 243.483 43.8521 244.469C44.7848 244.943 48.5723 244.943 52.4741 244.848V235.974Z" fill="#121313"/>
<path d="M196.345 20.2712L198.363 34.0952C198.515 35.214 199.485 36.0294 200.608 36.0294H220.327C221.526 36.0294 222.496 35.1192 222.592 33.9245L223.657 19.0007C223.753 17.6544 222.649 16.5166 221.278 16.5925L198.496 17.6923C197.144 17.7492 196.155 18.9438 196.345 20.2712Z" fill="black"/>
<path d="M235.534 15.5495C235.953 17.6354 236.276 19.7213 235.534 21.0487C234.792 22.3761 231.347 25.0499 230.604 26.2445C229.862 27.4392 222.097 35.6122 220.898 35.9156C219.698 36.219 204.491 32.1799 203.882 31.7438C201.75 30.2836 202.854 24.5569 200.913 24.4431C198.972 24.3293 196.63 34.2469 201.655 34.7778C202.607 34.8726 220.745 44.8471 221.944 44.5437C223.143 44.2403 231.194 39.4806 231.804 39.784C232.394 40.0874 250.875 37.9067 250.722 35.0812C250.57 32.2558 251.617 22.7554 247.315 21.0487C245.45 20.3092 241.491 19.399 241.491 18.2233C241.491 17.0286 240.749 9.29176 239.55 7.96436C238.37 6.63696 235.363 14.7151 235.534 15.5495Z" fill="#FFB2A8"/>
<path d="M209.021 87.362C207.003 87.1344 203.444 92.1785 201.408 92.0837C200.247 99.0241 200.799 98.9293 200.57 99.0241C199.866 99.3086 191.13 103.86 191.168 104.922C191.206 105.965 204.11 103.537 205.081 103.063C205.481 102.874 205.766 102.191 208.545 93.8283C207.993 93.7524 209.573 87.4189 209.021 87.362Z" fill="#121313"/>
<path d="M227.312 92.4821C225.294 92.2545 221.735 97.2986 219.699 97.2038C218.538 104.144 219.089 104.049 218.861 104.144C218.157 104.429 209.421 108.98 209.459 110.042C209.497 111.085 222.401 108.657 223.372 108.183C223.772 107.994 224.057 107.311 226.836 98.9484C226.284 98.8726 227.864 92.539 227.312 92.4821Z" fill="#121313"/>
<path d="M231.175 70.6362C231.404 69.3846 245.05 67.3556 250.018 61.7995C250.798 60.9272 250.76 54.6315 250.817 48.4876C250.208 48.4307 249.599 48.4307 249.009 48.4307C243.128 48.5444 238.846 48.6203 232.965 48.7341C232.869 49.3409 231.137 49.777 231.061 49.8908C230.604 50.4786 209.478 53.3041 205.081 59.2774C203.863 62.4442 200.913 81.9949 200.913 94.0742C203.102 94.3018 208.298 95.1172 209.44 95.2499C210.582 95.3637 214.769 69.3467 216.082 66.3695C216.615 65.1559 227.426 60.1497 227.426 60.1497C227.426 60.1497 218.404 64.8525 217.852 67.64C217.3 70.4276 217.072 89.8455 217.852 100.218C219.984 100.692 222.097 101.166 224.228 101.659C224.78 101.792 227.217 101.906 227.788 102.039C228.32 93.183 231.004 71.6033 231.175 70.6362Z" fill="black"/>
<path d="M203.901 36.8635C209.326 39.1391 221.031 44.771 221.963 44.5435C223.163 44.2401 231.214 39.4804 231.823 39.7838C232.337 40.0493 231.727 47.0655 231.271 49.2652C237.552 50.5737 244.727 51.1615 250.837 49.6445C250.932 43.2919 250.837 36.5601 250.76 35.081C250.608 32.2556 251.655 22.7552 247.354 21.0485C245.926 20.4796 242.862 19.247 241.701 18.4316C239.569 19.0005 238.104 19.3987 235.934 19.8918C235.896 19.9866 235.477 20.6124 235.134 21.1244C234.297 22.4138 231.785 24.8411 230.624 26.2443C229.729 27.3252 222.116 35.612 220.917 35.9154C219.908 36.1619 208.831 33.4692 205.1 32.2556C204.758 33.583 204.32 35.2896 203.901 36.8635Z" fill="#455E86"/>
<path d="M222.858 32.4263C222.858 32.4263 234.716 32.3504 234.906 32.4263C235.096 32.5021 233.459 35.7069 232.603 36.0861C231.765 36.4654 218.823 35.6689 218.823 35.6689L222.858 32.4263Z" fill="black"/>
<path d="M245.165 21.1248C243.033 21.8264 235.972 38.381 235.382 38.2672C234.773 38.1534 221.183 31.8388 220.422 31.6871C219.66 31.5354 218.442 23.1917 216.634 23.1348C214.845 23.0779 215.054 28.7289 214.978 30.3218C214.902 31.9146 217.414 34.5125 218.024 34.778C218.633 35.0435 234.658 48.1279 237.323 47.7107C239.988 47.2935 249.066 34.0195 250.018 32.0663C250.97 30.0942 252.074 18.8492 245.165 21.1248Z" fill="#FFB2A8"/>
<path d="M233.288 17.4457C234.925 18.5455 237 18.337 238.389 16.5355C239.169 15.5115 240.73 12.4964 240.483 10.164C240.216 7.83153 239.759 3.09082 234.544 3.09082C231.404 3.09082 228.663 6.39036 229.52 10.164C229.938 12.0792 231.632 16.3459 233.288 17.4457Z" fill="#FFB2A8"/>
<path d="M250.018 32.0474C250.97 30.0942 252.074 18.8492 245.165 21.1248C243.033 21.8264 235.972 38.381 235.382 38.2672C234.773 38.1534 221.925 31.9905 221.183 31.8388C221.069 31.8198 220.917 31.744 220.726 31.6302C220.593 32.2939 220.46 32.9576 220.136 33.5644C219.794 34.2092 219.337 34.816 218.842 35.3659C222.23 37.9448 234.963 48.09 237.323 47.7107C239.988 47.2556 249.067 34.0006 250.018 32.0474Z" fill="#455E86"/>
<path d="M237.209 1.49793C236.238 0.77734 235.058 0.360157 233.859 0.151566C231.175 -0.303543 228.34 0.322231 226.017 1.72548C225.504 2.02889 224.971 2.484 225.028 3.09081C225.085 3.79243 225.922 4.09584 226.588 4.30443C226.779 4.36132 226.969 4.41821 227.121 4.56991C227.521 4.98709 227.121 5.68872 226.627 6.01109C226.151 6.33345 225.523 6.65582 225.446 7.22471C225.37 7.75567 225.865 8.2487 226.398 8.36248C226.931 8.47626 227.483 8.34352 228.016 8.19181C228.187 8.81759 227.692 9.38647 227.388 9.95536C227.064 10.5053 227.045 11.4345 227.673 11.5862C227.902 11.6431 228.149 11.5672 228.359 11.4724C229.938 10.8087 231.137 9.50025 232.565 8.51418C233.992 7.54708 235.915 6.94027 237.399 7.83152C238.922 8.7607 240.483 10.4105 240.235 7.47123C240.026 5.23361 239.017 2.84429 237.209 1.49793Z" fill="#121313"/>
<path d="M241.491 17.8057C241.491 17.8057 243.109 22.0154 239.245 23.0204C235.401 24.0255 235.934 19.6451 235.934 19.6451L241.491 17.8057Z" fill="#FFB2A8"/>
</g>
<defs>
<clipPath id="clip0_648_7469">
<rect width="311" height="245" fill="white"/>
</clipPath>
</defs>
</svg>
