<svg width="25" height="33" viewBox="0 0 25 33" fill="none" xmlns="http://www.w3.org/2000/svg">
<path d="M12.1925 13.5471C12.1925 12.1924 11.9941 12.1924 11.5151 12.1924C11.2783 12.1924 10.8378 12.1924 10.8378 13.6119C10.9202 14.3564 11.202 15.0648 11.6534 15.6625C11.9037 14.9773 12.0843 14.2686 12.1925 13.5471Z" fill="#455E86"/>
<path d="M12.1594 18.4941C11.9577 19.104 11.7315 19.7814 11.4801 20.5355C11.4404 20.6559 11.3994 20.7749 11.357 20.8927C12.2064 20.6235 13.0948 20.3979 13.9296 20.216C13.5102 19.8581 13.1953 19.5724 13.0683 19.4454C12.7435 19.1206 12.4406 18.8035 12.1594 18.4941Z" fill="#455E86"/>
<path d="M5.41889 25.5215C5.61326 25.6692 5.85226 25.746 6.09625 25.7392C6.48057 25.7392 7.4867 25.0552 8.50406 23.5801C8.41344 23.6231 8.32414 23.6647 8.23616 23.7064C6.85101 24.3626 5.41889 25.0413 5.41889 25.5215Z" fill="#455E86"/>
<path d="M24.1857 6.97123L17.4138 0.199267C17.3509 0.136013 17.2762 0.0858366 17.1938 0.0516347C17.1115 0.0174329 17.0232 -0.000116295 16.934 5.79948e-07H2.70945C1.99108 0.000717874 1.30233 0.286407 0.79437 0.794371C0.286406 1.30234 0.000717294 1.99108 0 2.70945V29.8039C0.000717294 30.5223 0.286406 31.211 0.79437 31.719C1.30233 32.2269 1.99108 32.5126 2.70945 32.5133H21.6756C22.3939 32.5126 23.0827 32.2269 23.5906 31.719C24.0986 31.211 24.3843 30.5223 24.385 29.8039V7.45098C24.3851 7.36181 24.3676 7.27351 24.3334 7.19117C24.2992 7.10882 24.249 7.03407 24.1857 6.97123ZM18.2888 23.0303C17.1762 22.6927 16.1535 22.1097 15.2962 21.3243C13.712 21.6028 12.1559 22.0225 10.6466 22.5785C9.2575 25.4123 7.35572 27.0945 6.09625 27.0945C5.11924 27.0945 4.06417 26.4932 4.06417 25.5221C4.06417 24.1845 5.49298 23.5072 7.65604 22.4832C8.13031 22.2584 8.64165 22.0162 9.1801 21.747C9.3296 21.6723 9.48439 21.6002 9.6438 21.5294C9.8396 21.0915 10.0248 20.6179 10.1955 20.1065C10.55 19.0409 10.8656 18.0956 11.1341 17.276C10.2103 16.26 9.63222 14.9772 9.48306 13.6121C9.48306 11.3193 10.5884 10.8378 11.5151 10.8378C12.7349 10.8378 13.5472 11.2988 13.5472 13.5472C13.3849 14.7277 13.0841 15.8849 12.6509 16.9949C13.0505 17.4712 13.5102 17.9712 14.0261 18.4872C14.5403 18.9822 15.0811 19.4488 15.6461 19.8849C16.2956 19.764 16.952 19.6834 17.6114 19.6435C18.4912 19.6435 20.3208 19.6435 20.3208 21.2449C20.3208 22.0592 19.9683 23.0303 18.2888 23.0303ZM18.9661 6.77361C18.607 6.77315 18.2627 6.63027 18.0087 6.37631C17.7547 6.12235 17.6119 5.77804 17.6114 5.41889V2.31251L22.0725 6.77361H18.9661Z" fill="#455E86"/>
<path d="M17.6114 20.998C17.532 20.998 17.3911 21.0086 17.2 21.0298C17.549 21.2954 17.9316 21.5138 18.3377 21.6794C18.9661 21.6754 18.9661 21.5491 18.9661 21.2448C18.896 21.096 18.6122 20.998 17.6114 20.998Z" fill="#455E86"/>
</svg>
