<svg width="526" height="345" viewBox="0 0 526 345" fill="none" xmlns="http://www.w3.org/2000/svg">
<rect x="1" y="1" width="523.379" height="342.166" rx="53.8992" fill="white" stroke="url(#paint0_linear_772_34313)" stroke-width="2"/>
<rect x="1" y="1.20557" width="523.379" height="342.166" rx="53.8992" fill="white" stroke="url(#paint1_linear_772_34313)" stroke-width="2"/>
<path d="M365.432 131.655C364.658 131.604 363.883 131.286 363.299 130.675C362.068 129.39 362.106 127.342 363.388 126.108L373.684 116.173C374.966 114.939 377.01 114.977 378.241 116.262C379.473 117.547 379.435 119.595 378.153 120.829L367.857 130.764C367.184 131.4 366.295 131.706 365.432 131.655Z" fill="#F9DA2F"/>
<path d="M358.718 126.414C357.004 126.312 355.658 124.874 355.696 123.132L355.861 114.723C355.899 112.942 357.359 111.53 359.136 111.555C360.876 111.619 362.336 113.056 362.298 114.837L362.133 123.246C362.094 125.027 360.635 126.439 358.857 126.414C358.806 126.414 358.768 126.414 358.718 126.414Z" fill="#F9DA2F"/>
<path d="M370.395 138.575C368.681 138.474 367.336 137.036 367.374 135.293C367.412 133.512 368.872 132.087 370.649 132.126L379.053 132.291C380.818 132.354 382.253 133.792 382.214 135.573C382.176 137.354 380.716 138.766 378.926 138.741L370.535 138.575C370.484 138.575 370.433 138.575 370.395 138.575Z" fill="#F9DA2F"/>
<path d="M325.535 174.133C319.314 174.133 314.261 169.07 314.261 162.836V102.867C314.261 78.5684 294.533 58.7991 270.285 58.7991H258.771C234.523 58.7991 214.795 78.5684 214.795 102.867V162.836C214.795 169.07 209.755 174.133 203.521 174.133C197.301 174.133 192.248 169.07 192.248 162.836V102.867C192.248 66.1139 222.094 36.2056 258.771 36.2056H270.285C306.962 36.2056 336.808 66.1012 336.808 102.867V162.836C336.808 169.07 331.768 174.133 325.535 174.133Z" fill="#1E1E1E"/>
<path d="M270.298 36.2056H264.547V58.7991H270.298C294.546 58.7991 314.274 78.5684 314.274 102.867V162.836C314.274 169.07 319.327 174.133 325.547 174.133C331.781 174.133 336.821 169.07 336.821 162.836V102.867C336.808 66.1012 306.974 36.2056 270.298 36.2056Z" fill="#1E1E1E"/>
<path d="M362.768 281.362C362.768 292.061 354.11 300.724 343.446 300.724H185.633C174.956 300.724 166.311 292.048 166.311 281.362V148.879C166.311 138.181 174.969 129.517 185.633 129.517H343.446C354.123 129.517 362.768 138.193 362.768 148.879V281.362Z" fill="#293A59"/>
<path d="M343.448 129.517H264.535V300.737H343.448C354.125 300.737 362.77 292.061 362.77 281.374V148.879C362.77 138.193 354.125 129.517 343.448 129.517Z" fill="#3D5887"/>
<path d="M337.518 235.617C337.518 239.752 334.179 243.097 330.053 243.097H199.014C194.888 243.097 191.549 239.752 191.549 235.617V194.628C191.549 190.494 194.888 187.148 199.014 187.148H330.053C334.179 187.148 337.518 190.494 337.518 194.628V235.617Z" fill="#E2C630"/>
<path d="M330.055 187.148H264.535V243.097H330.055C334.181 243.097 337.52 239.752 337.52 235.617V194.628C337.52 190.506 334.181 187.148 330.055 187.148Z" fill="#F9DA2F"/>
<path d="M429 76.6626C429 80.5287 425.91 83.6626 422.098 83.6626H379.902C376.09 83.6626 373 80.5287 373 76.6626C373 72.7965 376.09 69.6626 379.902 69.6626H422.098C425.923 69.6754 429 72.8094 429 76.6626Z" stroke="#E9E8E8" stroke-width="2" stroke-miterlimit="10" stroke-linecap="round" stroke-linejoin="round"/>
<path d="M97 240.206C97 244.072 100.09 247.206 103.902 247.206H146.098C149.91 247.206 153 244.072 153 240.206C153 236.34 149.91 233.206 146.098 233.206H103.902C100.077 233.218 97 236.352 97 240.206Z" stroke="#E9E8E8" stroke-width="2" stroke-miterlimit="10" stroke-linecap="round" stroke-linejoin="round"/>
<path d="M129 105.163C129 108.753 125.96 111.663 122.209 111.663H103.791C100.041 111.663 97 108.753 97 105.163C97 101.573 100.041 98.6626 103.791 98.6626H122.221C125.96 98.6626 129 101.573 129 105.163Z" stroke="#E9E8E8" stroke-width="2" stroke-miterlimit="10" stroke-linecap="round" stroke-linejoin="round"/>
<path d="M397 268.706C397 272.295 400.04 275.206 403.791 275.206H422.209C425.959 275.206 429 272.295 429 268.706C429 265.116 425.959 262.206 422.209 262.206H403.779C400.04 262.206 397 265.116 397 268.706Z" stroke="#E9E8E8" stroke-width="2" stroke-miterlimit="10" stroke-linecap="round" stroke-linejoin="round"/>
<path d="M160.072 89.3386C158.007 89.3386 156.323 87.6677 156.323 85.5886V85.4866C156.323 84.4789 155.507 83.6626 154.5 83.6626C153.493 83.6626 152.677 84.4789 152.677 85.4866V85.5886C152.677 87.6549 150.993 89.3386 148.928 89.3386C147.933 89.3386 147.053 90.0784 147.002 91.0606C146.951 92.1065 147.78 92.9866 148.826 92.9866H148.928C150.993 92.9866 152.677 94.6702 152.677 96.7366V96.8386C152.677 97.8463 153.493 98.6626 154.5 98.6626C155.507 98.6626 156.323 97.8463 156.323 96.8386V96.7366C156.323 94.6702 158.007 92.9866 160.072 92.9866H160.174C161.207 92.9866 162.049 92.1192 161.998 91.0606C161.947 90.0784 161.054 89.3386 160.072 89.3386ZM154.5 92.7825C153.607 92.7825 152.881 92.0555 152.881 91.1626C152.881 90.2697 153.607 89.5427 154.5 89.5427C155.393 89.5427 156.119 90.2697 156.119 91.1626C156.119 92.0555 155.393 92.7825 154.5 92.7825Z" fill="#3D5887"/>
<path opacity="0.1" d="M405.044 200.909C401.877 200.909 399.296 198.347 399.296 195.159V195.002C399.296 193.457 398.045 192.206 396.5 192.206C394.955 192.206 393.704 193.457 393.704 195.002V195.159C393.704 198.327 391.123 200.909 387.956 200.909C386.431 200.909 385.082 202.043 385.003 203.549C384.925 205.153 386.196 206.502 387.799 206.502H387.956C391.123 206.502 393.704 209.084 393.704 212.252V212.409C393.704 213.954 394.955 215.206 396.5 215.206C398.045 215.206 399.296 213.954 399.296 212.409V212.252C399.296 209.084 401.877 206.502 405.044 206.502H405.201C406.784 206.502 408.075 205.172 407.997 203.549C407.918 202.043 406.55 200.909 405.044 200.909ZM396.5 206.189C395.131 206.189 394.017 205.075 394.017 203.706C394.017 202.337 395.131 201.222 396.5 201.222C397.869 201.222 398.983 202.337 398.983 203.706C398.983 205.075 397.869 206.189 396.5 206.189Z" fill="#3D5887"/>
<path d="M315.236 233.173V196.026H323.564V233.173H315.236Z" fill="#293A59"/>
<path d="M279.904 233.173V196.026H288.029V233.173H279.904ZM287.014 233.173V226.253H303.213V233.173H287.014ZM287.014 217.755V210.834H302.045V217.755H287.014ZM287.014 202.947V196.026H302.857V202.947H287.014Z" fill="#293A59"/>
<path d="M225.535 233.173V196.026H237.012L245.492 216.89H246.457L254.836 196.026H266.515V233.173H258.289V201.471L259.457 201.573L249.656 225.642H241.734L231.883 201.573L233.152 201.471V233.173H225.535Z" fill="#293A59"/>
<path d="M203.697 233.173V196.026H212.025V233.173H203.697Z" fill="#293A59"/>
<defs>
<linearGradient id="paint0_linear_772_34313" x1="422.731" y1="412.204" x2="61.5737" y2="21.5093" gradientUnits="userSpaceOnUse">
<stop stop-color="#D3E0F5"/>
<stop offset="1" stop-color="white"/>
</linearGradient>
<linearGradient id="paint1_linear_772_34313" x1="422.731" y1="412.41" x2="61.5737" y2="21.7149" gradientUnits="userSpaceOnUse">
<stop stop-color="#D3E0F5"/>
<stop offset="1" stop-color="white"/>
</linearGradient>
</defs>
</svg>
