<svg width="20" height="27" viewBox="0 0 20 27" fill="none" xmlns="http://www.w3.org/2000/svg">
<path fill-rule="evenodd" clip-rule="evenodd" d="M14.8781 11.0091C14.8786 10.0446 14.5931 9.10164 14.0576 8.29947C13.5221 7.4973 12.7608 6.87196 11.8698 6.50254C10.9789 6.13311 9.99845 6.0362 9.05245 6.22406C8.10645 6.41193 7.23741 6.87612 6.55525 7.55794C5.8731 8.23975 5.40846 9.10856 5.22013 10.0545C5.03179 11.0004 5.12821 11.9809 5.49718 12.872C5.86616 13.7631 6.49112 14.5248 7.29302 15.0606C8.09491 15.5965 9.03772 15.8826 10.0022 15.8826C11.2945 15.8811 12.5335 15.3672 13.4475 14.4537C14.3616 13.5401 14.876 12.3014 14.8781 11.0091ZM2.10022 10.516C2.09662 8.56159 2.83266 6.87532 4.34976 5.35667C5.08651 4.61853 5.96234 4.03381 6.92656 3.63637C7.89077 3.23893 8.92424 3.03664 9.96714 3.04123H10.006C11.0542 3.03259 12.0935 3.2329 13.0633 3.63045C14.0331 4.02801 14.914 4.61485 15.6544 5.35667C17.1715 6.87517 17.9079 8.56159 17.904 10.516C17.8997 12.7706 16.881 15.3824 14.8759 18.2765C13.3463 20.4809 11.4787 22.5068 10.0024 24.0076C8.52571 22.5069 6.65845 20.481 5.12856 18.2765C3.12377 15.3824 2.10472 12.7704 2.10047 10.516H2.10022ZM9.26221 26.2404C5.29144 22.2996 0.0107685 16.3827 1.63981e-05 10.5194C-0.00458449 8.01479 0.959002 5.77816 2.86482 3.87379C3.79543 2.93899 4.90244 2.19834 6.12159 1.6948C7.34074 1.19127 8.64776 0.93488 9.96679 0.940521H10.0372C11.3563 0.934903 12.6634 1.19131 13.8827 1.69487C15.1019 2.19843 16.209 2.93911 17.1397 3.87394C19.0451 5.77831 20.0091 8.01474 20.0041 10.5196C19.9928 16.3828 14.7127 22.2996 10.7417 26.2404C10.6447 26.3378 10.5294 26.4151 10.4025 26.4678C10.2755 26.5205 10.1394 26.5477 10.002 26.5477C9.86451 26.5477 9.7284 26.5205 9.60145 26.4678C9.4745 26.4151 9.35922 26.3378 9.26221 26.2404Z" fill="#4A6590"/>
</svg>
