<svg width="288" height="266" viewBox="0 0 288 266" fill="none" xmlns="http://www.w3.org/2000/svg">
<g clip-path="url(#clip0_648_7961)">
<path d="M32.7338 227.133V70.6276C32.7338 64.4155 37.7778 59.3838 44.005 59.3838H253.965C260.192 59.3838 265.236 64.4155 265.236 70.6276V227.133C265.236 233.345 260.192 238.377 253.965 238.377H44.005C37.7778 238.377 32.7338 233.345 32.7338 227.133Z" fill="#A7BBE4"/>
<path d="M47.9396 222.626V75.1282C47.9396 70.8712 51.4008 67.4258 55.6608 67.4258H247.057C251.324 67.4258 254.778 70.8786 254.778 75.1282V222.626C254.778 226.883 251.317 230.328 247.057 230.328H55.6608C51.3934 230.335 47.9396 226.883 47.9396 222.626Z" fill="url(#paint0_linear_648_7961)"/>
<path d="M39.9521 155.746C37.7704 155.746 35.9954 153.983 35.9954 151.799C35.9954 149.622 37.763 147.852 39.9521 147.852C42.1339 147.852 43.9089 149.615 43.9089 151.799C43.9015 153.983 42.1339 155.746 39.9521 155.746Z" fill="#7393C5"/>
<path d="M58.3011 52.0278C71.0811 53.1124 84.1421 53.4739 96.5374 51.4893L78.5878 61.9879L58.3011 52.0278Z" fill="#455E86"/>
<path d="M93.5051 42.5843C94.8956 41.7875 97.7873 40.216 99.2295 39.5225C101.655 47.8446 100.701 49.9695 97.8095 50.3088C96.848 50.4195 95.9236 50.5449 94.9621 50.4712C92.6029 50.3015 90.4285 50.0211 88.3133 49.0694C88.4538 48.3094 88.4242 46.738 88.5647 45.9781C90.4507 45.6682 92.5955 45.2255 94.4814 44.9156L93.5051 42.5843Z" fill="#F7C5B4"/>
<path d="M63.1749 42.5843C61.7845 41.7875 58.8928 40.216 57.4506 39.5225C55.0248 47.8446 55.9788 49.9695 58.8706 50.3088C59.832 50.4195 61.2668 50.6851 62.2209 50.5302C64.5136 50.1539 66.2516 50.1244 68.3668 49.1727C68.2263 48.4127 68.2558 46.738 68.1153 45.9781C66.2294 45.6682 64.0846 45.2255 62.1987 44.9156L63.1749 42.5843Z" fill="#F7C5B4"/>
<path d="M66.1998 54.1378C66.1924 50.7735 65.1866 44.1039 64.9129 39.5518L63.3894 42.7612L57.2879 39.5297C57.8943 37.4418 59.551 34.7857 60.7639 32.8232C63.2785 28.7507 66.4883 26.6332 71.3917 25.2315C73.322 24.6781 75.3188 24.1838 78.1219 24.1543H78.4547C81.2577 24.1764 83.6169 24.6265 85.5694 25.0691C90.2436 26.1316 94.0302 29.6139 96.5448 33.6938C97.7577 35.6563 98.7414 37.3163 99.5697 39.3526L93.1797 42.7612L91.6562 39.5518C91.316 44.4654 90.4433 49.4455 90.0587 54.1378H66.1998Z" fill="#003A70"/>
<path d="M75.7182 16.791C75.5407 18.2002 74.6828 22.6047 74.4387 23.0622C74.0468 23.7999 72.4715 24.7369 71.8354 25.0911C71.8354 25.0911 71.9907 27.5921 78.6174 27.6585C85.1405 27.7249 85.5546 25.0689 85.5546 25.0689C84.9186 24.7148 83.0992 24.1541 82.796 23.0622C82.6555 22.5605 81.7902 18.3846 81.6127 16.9828L75.7182 16.791Z" fill="#F7C5B4"/>
<path d="M85.8801 5.41487C86.4347 8.39551 85.6434 14.4011 85.0074 16.7767C84.7485 17.7432 84.4675 18.7392 83.8462 19.5213C80.7696 23.3872 76.6723 22.1625 75.3262 21.2846C74.2686 20.591 73.4255 19.6393 72.9374 18.4736C71.6949 15.5003 71.1846 12.2246 71.4656 9.01524C71.4656 9.01524 71.1106 0.641416 79.6972 0.641416C79.6898 0.634039 84.963 0.434837 85.8801 5.41487Z" fill="#F7C5B4"/>
<path d="M71.8428 13.6267C71.6579 13.8923 71.229 13.885 70.9775 13.6858C70.7261 13.4866 70.6077 13.1546 70.5486 12.8373C70.4894 12.5274 70.4672 12.2102 70.4746 11.893C70.482 11.6642 70.519 11.4282 70.6669 11.2511C70.8148 11.0814 71.0663 11.0076 71.2807 11.074C71.4952 11.1404 71.6653 11.3396 71.6949 11.5683L71.8428 13.6267Z" fill="#F7C5B4"/>
<path d="M85.5547 11.5605C85.6286 11.3466 85.7469 11.1326 85.9688 11.0662C86.1833 10.9998 86.4421 11.0736 86.5827 11.2433C86.7306 11.413 86.7676 11.6564 86.775 11.8851C86.7898 12.2024 86.7676 12.5196 86.701 12.8295C86.6418 13.1468 86.5235 13.4788 86.272 13.678C86.0206 13.8772 85.5916 13.8845 85.4067 13.6189C85.4141 13.6263 85.2218 12.5713 85.5547 11.5605Z" fill="#F7C5B4"/>
<path d="M78.4769 13.9064C78.4769 13.9064 78.4547 13.9581 78.4473 14.0319C78.4325 14.113 78.4177 14.2384 78.3955 14.3934C78.3585 14.6959 78.3142 15.1016 78.2698 15.5C78.255 15.6992 78.2254 15.9132 78.2254 16.0829C78.2328 16.164 78.2328 16.2157 78.2698 16.2526C78.2846 16.2673 78.3585 16.3116 78.4251 16.3337C78.6913 16.4075 78.9058 16.4592 78.9058 16.4592C78.9576 16.4739 78.9872 16.5182 78.9724 16.5698C78.965 16.6141 78.9206 16.6436 78.8762 16.6362C78.8762 16.6362 78.8245 16.6362 78.7357 16.6288C78.647 16.6288 78.5138 16.6141 78.3511 16.5772C78.2698 16.5477 78.181 16.5403 78.0701 16.4296C77.9813 16.3337 77.9444 16.1936 77.9518 16.0829C77.9592 15.8689 77.9887 15.6771 78.0183 15.4705C78.0775 15.0647 78.1293 14.659 78.1884 14.3565C78.218 14.2015 78.2476 14.0835 78.2772 13.9876C78.3068 13.8843 78.3289 13.8474 78.3289 13.8474V13.84C78.3511 13.7958 78.3955 13.781 78.4399 13.8031C78.4769 13.8253 78.4916 13.8695 78.4769 13.9064Z" fill="#A3A3A3"/>
<path d="M79.7341 13.198C79.5788 12.7259 79.6972 12.1725 80.0744 11.8479C80.1039 11.8848 80.1409 11.929 80.1705 11.9659C80.2666 11.8774 80.3702 11.7889 80.4663 11.7003C80.5107 11.7298 80.5551 11.7667 80.5995 11.7962C81.3243 11.2946 82.2044 11.029 83.0771 11.0511C83.4542 11.0585 83.861 11.1322 84.1125 11.4126C84.0385 11.4864 83.9276 11.5306 83.824 11.538C82.3375 11.7151 81.4278 11.9954 79.8599 13.2423C79.8525 13.2349 79.7637 13.2792 79.7341 13.198Z" fill="#3C3C3B"/>
<path d="M72.3679 2.79577C71.828 3.68849 69.7646 7.68727 71.0737 11.1844C71.1254 11.3245 71.1994 11.4795 71.3325 11.5532C71.5988 11.7008 71.9168 11.4647 72.1239 11.2286C72.8634 10.3876 73.4699 9.42105 73.8101 8.35127C74.0616 7.56184 74.1577 6.72077 74.069 5.90183C74.069 5.90183 74.2391 6.89046 75.3706 8.26274C75.5259 8.44718 75.8735 8.82345 76.088 8.92674C76.3025 9.03003 76.6057 9.00052 76.7389 8.80132C76.8276 8.66114 76.8202 8.48407 76.8054 8.32176C76.7462 7.83482 76.6131 7.36264 76.406 6.9126C77.4858 7.91598 78.6248 8.95625 80.0374 9.39154C80.4589 9.52434 81.0136 9.54648 81.2503 9.17759C81.376 8.97838 81.3612 8.72754 81.3242 8.49883C81.2281 7.93811 80.9693 7.40691 80.5995 6.979C81.3169 7.92336 82.2635 8.69803 83.3359 9.21448C83.898 9.48746 84.5118 9.68666 85.1331 9.62026C85.7543 9.55386 86.4421 9.25136 86.5013 8.63163C86.7676 6.06415 85.8579 3.86556 85.355 3.10564C82.2044 -1.63092 78.1514 0.479135 77.3009 0.375846C75.4002 0.132378 73.3368 1.13576 72.3679 2.79577Z" fill="#090909"/>
<path d="M84.8373 7.17798C84.6524 8.44696 84.889 9.77497 85.4955 10.9038C85.5694 11.0366 85.6656 11.1768 85.8135 11.1989C85.9392 11.2136 86.065 11.1325 86.1315 11.0218C86.1981 10.9112 86.2277 10.7857 86.2499 10.6603C86.4865 9.36181 86.7084 7.97478 86.1759 6.76482C86.1389 6.67629 86.0945 6.58775 86.0132 6.52135C85.9244 6.44757 85.8135 6.42544 85.6952 6.41806C85.2292 6.41068 84.8003 6.8386 84.8225 7.3034" fill="#090909"/>
<path d="M81.9307 21.2549C81.9307 21.2549 79.2238 23.2764 75.3188 21.277C75.3188 21.277 78.7579 25.0471 81.9307 21.2549Z" fill="#F7C5B4"/>
<path d="M77.227 13.198C77.3823 12.7259 77.264 12.1725 76.8868 11.8479C76.8572 11.8848 76.8202 11.929 76.7906 11.9659C76.6945 11.8774 76.5909 11.7889 76.4948 11.7003C76.4504 11.7298 76.406 11.7667 76.3617 11.7962C75.6369 11.2946 74.7568 11.029 73.8841 11.0511C73.5069 11.0585 73.1001 11.1322 72.8487 11.4126C72.9226 11.4864 73.0336 11.5306 73.1371 11.538C74.6237 11.7151 75.5333 11.9954 77.1013 13.2423C77.1013 13.2349 77.1974 13.2792 77.227 13.198Z" fill="#3C3C3B"/>
<path d="M79.9856 17.2707C79.9856 17.2707 79.9265 17.3888 79.7785 17.5584C79.6306 17.7134 79.4087 17.8904 79.1499 18.0233C78.8836 18.1413 78.6026 18.1929 78.3881 18.2077C78.1736 18.2151 78.0331 18.1856 78.0331 18.1856C77.974 18.1708 77.9444 18.1192 77.9518 18.0601C77.9592 18.0159 78.0035 17.9864 78.0405 17.979C78.0405 17.979 78.1662 17.9642 78.3585 17.9347C78.5434 17.9126 78.7875 17.8388 79.0094 17.7281C79.2386 17.6322 79.4531 17.492 79.5936 17.3666C79.7342 17.256 79.8377 17.1527 79.8377 17.1527C79.8747 17.1158 79.9338 17.1158 79.9708 17.1527C80.0004 17.1822 80.0078 17.2264 79.9856 17.2633V17.2707Z" fill="#A3A3A3"/>
<path d="M82.6999 14.5556C82.6999 14.9171 82.478 15.2196 82.2043 15.2196C81.9307 15.2196 81.7088 14.9245 81.7088 14.5556C81.7088 14.1941 81.9307 13.8916 82.2043 13.8916C82.4706 13.899 82.6999 14.1941 82.6999 14.5556Z" fill="#3C3C3B"/>
<path d="M75.0674 14.5556C75.0674 14.9171 74.8455 15.2196 74.5719 15.2196C74.2982 15.2196 74.0764 14.9245 74.0764 14.5556C74.0764 14.1941 74.2982 13.8916 74.5719 13.8916C74.8455 13.8916 75.0674 14.1867 75.0674 14.5556Z" fill="#3C3C3B"/>
<path d="M89.9478 56.7354H66.2294C64.9204 56.7354 63.8628 55.6804 63.8628 54.3745V39.191C63.8628 37.8851 64.9204 36.8301 66.2294 36.8301H89.9478C91.2568 36.8301 92.3144 37.8851 92.3144 39.191V54.3745C92.3144 55.6804 91.2568 56.7354 89.9478 56.7354Z" fill="#FFD03F"/>
<path d="M70.2305 66.0164C80.7696 65.7213 91.9964 65.1089 101.885 61.4421C103.452 60.8593 105.028 60.1805 106.292 59.0886C107.557 57.9893 108.482 56.3957 108.415 54.7283C108.326 52.5592 106.566 50.7222 104.517 49.977C102.476 49.2318 100.213 49.3868 98.0757 49.7704C88.3798 51.5042 79.1943 57.7016 69.6906 60.9552L70.2305 66.0164Z" fill="#090909"/>
<path d="M69.735 61.3536C67.4867 61.1913 65.3345 60.8814 63.0862 60.8888C61.4961 60.8962 59.8764 60.9478 58.3899 61.4421C57.7094 61.6709 57.0512 62.0029 56.5557 62.4824C56.0528 62.9693 55.72 63.6186 55.7422 64.29C55.7644 65.227 56.467 66.0754 57.3397 66.5623C58.2124 67.0493 59.2404 67.2264 60.2462 67.3296C63.5817 67.6543 67.1539 67.1747 70.2379 66.0164L69.735 61.3536Z" fill="#121313"/>
<path d="M92.6102 51.1504C92.6102 51.1504 92.2552 51.2906 91.6414 51.5414C91.0201 51.7849 90.1474 52.1612 89.112 52.6186C88.0692 53.0686 86.8711 53.6515 85.5768 54.2491C84.29 54.8688 82.9217 55.5254 81.5535 56.1821C80.1779 56.8313 78.7949 57.4732 77.4932 58.056C76.1916 58.6389 74.9491 59.1332 73.8841 59.539C72.8191 59.9521 71.9094 60.2399 71.2733 60.4391C70.6373 60.6309 70.2675 60.7416 70.2675 60.7416C70.2675 60.7416 70.6225 60.6014 71.2438 60.3653C71.865 60.1292 72.7451 59.7677 73.7879 59.3176C74.8381 58.8823 76.0362 58.3069 77.3305 57.7167C78.6248 57.119 79.993 56.455 81.3612 55.7984C82.7442 55.1565 84.1199 54.5147 85.4141 53.9171C86.7158 53.3268 87.9509 52.8178 89.0085 52.4046C90.0661 51.9767 90.9758 51.6816 91.6044 51.4676C92.2478 51.2684 92.6102 51.1504 92.6102 51.1504Z" fill="#121313"/>
<path d="M83.8314 65.345C73.2924 65.0794 61.8881 64.5039 51.9925 60.8666C50.4172 60.2912 48.8419 59.6198 47.5772 58.5205C46.3125 57.4286 45.3806 55.835 45.4398 54.1602C45.5212 51.9911 47.2814 50.1467 49.3226 49.4015C51.3638 48.649 53.627 48.7965 55.7643 49.1728C65.4602 50.8771 74.5275 57.2146 84.0459 60.4461L83.8314 65.345Z" fill="#090909"/>
<path d="M62.2209 50.9434C62.2209 50.9434 62.5759 51.0614 63.1971 51.2606C63.811 51.4746 64.6985 51.7771 65.7339 52.1976C66.7693 52.6107 67.9748 53.1198 69.2469 53.6953C70.5116 54.2855 71.865 54.92 73.2111 55.5471C74.5497 56.1964 75.8883 56.8456 77.153 57.4358C78.4177 58.0187 79.5936 58.5868 80.6217 59.0147C81.6423 59.4574 82.5002 59.8263 83.1066 60.0623C83.7131 60.3058 84.0607 60.446 84.0607 60.446C84.0607 60.446 83.7057 60.3353 83.0844 60.1435C82.4632 59.9369 81.5757 59.6492 80.5329 59.2434C79.4901 58.8376 78.2772 58.3507 77.0051 57.7752C75.733 57.1997 74.3796 56.5726 73.0336 55.9308C71.6949 55.2815 70.3563 54.6323 69.099 54.0273C67.8343 53.4371 66.6658 52.8616 65.6451 52.4115C64.6245 51.9541 63.7814 51.5779 63.1749 51.3344C62.5611 51.0835 62.2209 50.9434 62.2209 50.9434Z" fill="#121313"/>
<path d="M83.8314 65.345C86.9229 66.4886 90.3175 66.9682 93.653 66.6362C94.6589 66.5329 95.6869 66.3558 96.5596 65.8615C97.4323 65.3745 98.1275 64.5187 98.1497 63.5817C98.1645 62.9104 97.8317 62.2537 97.3288 61.7742C96.8259 61.2946 96.175 60.9626 95.4946 60.7413C94.008 60.247 92.3884 60.1953 90.7983 60.1953C88.5499 60.1953 86.2942 60.2765 84.0533 60.4462L83.8314 65.345Z" fill="#121313"/>
<path d="M59.6545 45.3661C59.6545 45.3661 59.8025 45.2923 60.0243 45.189C60.2536 45.0931 60.5494 44.9603 60.8896 44.9013C61.2298 44.8718 61.5553 44.8939 61.7993 44.9086C62.0434 44.9234 62.2135 44.9455 62.2135 44.9455C62.2135 44.9455 62.0508 44.9824 61.8067 45.0119C61.5627 45.0488 61.2298 45.0488 60.9192 45.0857C60.616 45.13 60.298 45.2406 60.0613 45.2923C59.8172 45.3439 59.6545 45.3661 59.6545 45.3661Z" fill="#A3A3A3"/>
<path d="M79.1277 43.61C82.8478 44.4954 81.1615 48.5974 81.1615 48.5974C81.5387 50.3534 79.8303 50.1689 79.8303 50.1689C79.8303 50.1689 79.2312 50.3607 79.4235 51.1206C79.4235 51.1206 78.9058 51.3125 78.1219 51.3125C77.3305 51.3125 76.7241 51.1206 76.7241 51.1206C76.9164 50.3607 76.3173 50.1689 76.3173 50.1689C76.3173 50.1689 74.6237 50.3607 74.9861 48.5974C74.9861 48.5974 73.359 44.6946 77.0199 43.61C77.0273 43.61 77.8778 43.3075 79.1277 43.61Z" fill="white"/>
<path d="M78.5582 47.1149C78.6544 46.9526 78.8171 46.8419 78.9946 46.805C79.1795 46.7681 79.3644 46.7977 79.5493 46.8346C79.7638 46.8788 79.9782 46.9305 80.1853 47.0042C80.3406 47.0559 80.5107 47.1223 80.6069 47.2551C80.7104 47.3879 80.7326 47.5723 80.7252 47.742C80.7178 47.9486 80.6734 48.1552 80.5699 48.3396C80.4664 48.5241 80.2963 48.6716 80.0966 48.7233C79.7342 48.8192 79.3644 48.5979 79.0833 48.3544C78.7949 48.1035 78.5434 47.8306 78.5065 47.4543C78.5065 47.4543 78.5139 47.1961 78.5582 47.1149Z" fill="#FFD03F"/>
<path d="M77.7373 47.2846C77.6781 47.1076 77.545 46.96 77.3749 46.8862C77.2048 46.8124 77.0125 46.7977 76.8276 46.7977C76.6057 46.7903 76.3838 46.7977 76.1694 46.8198C76.0067 46.8346 75.8292 46.8641 75.7034 46.9674C75.5703 47.078 75.5111 47.2477 75.4816 47.4174C75.4446 47.624 75.4446 47.838 75.5037 48.0372C75.5629 48.2364 75.696 48.4134 75.8809 48.5093C76.2137 48.6864 76.6205 48.5462 76.9533 48.3692C77.2935 48.1921 77.5894 47.9781 77.7151 47.6166C77.7225 47.624 77.7669 47.3658 77.7373 47.2846Z" fill="#FFD03F"/>
<path d="M78.1514 48.1107C78.1884 48.1328 78.2328 48.1697 78.2624 48.2066C78.4029 48.391 78.4991 48.6271 78.5582 48.8706C78.5804 48.9517 78.5878 49.0624 78.536 49.1141C78.4991 49.1583 78.4399 49.1509 78.3881 49.1288C78.3363 49.1067 78.292 49.0772 78.2402 49.0698C78.181 49.0624 78.1219 49.0919 78.0701 49.1141C77.9813 49.151 77.8778 49.1657 77.8038 49.0919C77.7521 49.0403 77.7299 48.9518 77.7299 48.8632C77.7373 48.7747 77.7595 48.6935 77.7891 48.6197C77.8408 48.4796 77.9074 48.3394 77.9813 48.214C77.9813 48.214 78.0849 48.0738 78.1514 48.1107Z" fill="#FFD03F"/>
<path d="M97.0255 45.3656C97.0255 45.3656 96.8628 45.3361 96.6188 45.2845C96.3747 45.2328 96.0641 45.1222 95.7608 45.0779C95.4502 45.0336 95.1174 45.041 94.8733 45.0041C94.6293 44.9746 94.4666 44.9377 94.4666 44.9377C94.4666 44.9377 94.6293 44.9156 94.8807 44.9008C95.1248 44.8861 95.4502 44.8639 95.7904 44.8935C96.1306 44.9525 96.4339 45.0853 96.6557 45.1812C96.8776 45.2919 97.0255 45.3656 97.0255 45.3656Z" fill="#A3A3A3"/>
<path d="M174.363 142.51H125.766V185.663H174.363V142.51Z" fill="#455E86"/>
<path d="M131.039 133.022C131.039 122.582 139.603 114.046 150.061 114.046C160.526 114.046 169.083 122.589 169.083 133.022V142.51" stroke="#455E86" stroke-width="4" stroke-miterlimit="10"/>
<path d="M142.022 142.51H130.277V185.663H142.022V142.51Z" fill="#455E86"/>
<path d="M150.061 174.684C153.316 174.684 155.955 172.051 155.955 168.804C155.955 165.556 153.316 162.924 150.061 162.924C146.805 162.924 144.166 165.556 144.166 168.804C144.166 172.051 146.805 174.684 150.061 174.684Z" fill="#003A70"/>
<path d="M150.061 163.529C152.324 163.529 154.158 161.699 154.158 159.442C154.158 157.184 152.324 155.354 150.061 155.354C147.798 155.354 145.964 157.184 145.964 159.442C145.964 161.699 147.798 163.529 150.061 163.529Z" fill="#003A70"/>
<path d="M177.862 25.373V88.542" stroke="#455E86" stroke-width="0.5" stroke-miterlimit="10"/>
<path d="M127.245 24.1113V82.7871" stroke="#455E86" stroke-width="0.4819" stroke-miterlimit="10"/>
<path d="M140.062 91.898H179.814C181.205 91.898 182.344 90.7618 182.344 89.3748C182.344 87.9877 181.205 86.8516 179.814 86.8516H140.062C138.671 86.8516 137.532 87.9877 137.532 89.3748C137.532 90.7618 138.671 91.898 140.062 91.898Z" fill="#FFD03F"/>
<path d="M179.814 91.8984H175.909V96.1628H179.814V91.8984Z" fill="#FFD03F"/>
<path d="M170.538 95.3086H173.467V91.9H170.538V95.3086Z" fill="#FFD03F"/>
<path d="M164.792 95.3086H167.846V91.9H164.792V95.3086Z" fill="#FFD03F"/>
<path d="M146.315 88.5439H179.818V87.939H146.315V88.5439Z" fill="#F19091"/>
<path d="M175.91 96.165H179.815V95.3092H175.91V96.165Z" fill="#C59C1E"/>
<path d="M170.538 95.3096H173.467V94.6087H170.538V95.3096Z" fill="#C59C1E"/>
<path d="M164.792 95.3096H167.846V94.6087H164.792V95.3096Z" fill="#C59C1E"/>
<path d="M118.584 88.5411C118.584 95.7123 124.412 101.519 131.594 101.519C138.782 101.519 144.603 95.7049 144.603 88.5411C144.603 81.3698 138.775 75.5635 131.594 75.5635C124.405 75.5635 118.584 81.3698 118.584 88.5411Z" fill="#FFD03F"/>
<path d="M120.455 88.5407C120.455 94.679 125.44 99.6517 131.594 99.6517C137.747 99.6517 142.732 94.679 142.732 88.5407C142.732 82.4023 137.747 77.4297 131.594 77.4297C125.44 77.4297 120.455 82.4023 120.455 88.5407Z" fill="#EB9C12"/>
<path d="M125.167 88.5409C125.167 90.164 126.483 91.4772 128.11 91.4772C129.737 91.4772 131.054 90.164 131.054 88.5409C131.054 86.9177 129.737 85.6045 128.11 85.6045C126.483 85.6045 125.167 86.9177 125.167 88.5409Z" fill="white"/>
<path d="M118.281 20.7467C121.402 17.4857 128.339 17.3455 131.889 20.1343C135.336 12.2474 146.148 8.63968 153.655 12.8672C155.097 8.88315 161.362 4.03592 170.414 6.13122C176.516 7.54039 181.974 13.4131 180.384 19.4556C184.599 18.8506 188.859 21.7353 190.494 25.6603C192.128 29.5853 191.403 34.226 189.288 37.9075H120.049C120.049 37.9149 109.798 29.6222 118.281 20.7467Z" fill="#7393C5"/>
<path d="M81.4426 128.566H54.263V129.481H81.4426V128.566Z" fill="#455E86"/>
<path d="M81.4426 132.182H54.263V133.096H81.4426V132.182Z" fill="#455E86"/>
<path d="M81.4426 135.656H54.263V136.571H81.4426V135.656Z" fill="#455E86"/>
<path d="M68.5739 139.102H54.263V140.016H68.5739V139.102Z" fill="#455E86"/>
<path d="M107.313 191.514H11.1824V249.548H107.313V191.514Z" fill="#455E86"/>
<path d="M11.1824 191.514L59.2404 162.512L107.306 191.514H11.1824Z" fill="#455E86"/>
<path d="M92.8099 170.354H27.2609V244.657H92.8099V170.354Z" fill="white"/>
<path d="M88.2245 181.399H31.8537V183.377H88.2245V181.399Z" fill="#455E86"/>
<path d="M88.2245 186.202H31.8537V188.179H88.2245V186.202Z" fill="#455E86"/>
<path d="M88.2245 191.271H31.8537V193.248H88.2245V191.271Z" fill="#455E86"/>
<path d="M57.384 196.687H31.8537V198.664H57.384V196.687Z" fill="#455E86"/>
<path d="M88.2245 204.779H31.8537V206.757H88.2245V204.779Z" fill="#455E86"/>
<path d="M88.2245 209.582H31.8537V211.559H88.2245V209.582Z" fill="#455E86"/>
<path d="M88.2245 214.65H31.8537V216.628H88.2245V214.65Z" fill="#455E86"/>
<path d="M57.384 220.059H31.8537V222.036H57.384V220.059Z" fill="#455E86"/>
<path d="M11.1824 249.548L59.2404 220.531L107.306 249.548H11.1824Z" fill="#455E86"/>
<path d="M11.1824 191.514L59.2404 220.531L11.1824 249.548V191.514Z" fill="#7393C5"/>
<path d="M107.306 191.514L59.2404 220.531L107.306 249.548V191.514Z" fill="#7393C5"/>
<path d="M36.423 258.554C44.7555 250.241 44.7555 236.765 36.423 228.452C28.0905 220.14 14.5809 220.14 6.24839 228.452C-2.08411 236.765 -2.08412 250.241 6.24838 258.554C14.5809 266.866 28.0905 266.866 36.423 258.554Z" fill="#FFD03F"/>
<path d="M20.5751 229.657L33.4438 245.97H25.9667V257.25H15.1762V246.139H7.69904L20.5751 229.657Z" fill="white"/>
<path d="M245.637 156.956H189.059V157.871H245.637V156.956Z" fill="#455E86"/>
<path d="M245.637 160.571H189.059V161.486H245.637V160.571Z" fill="#455E86"/>
<path d="M245.637 164.039H189.059V164.954H245.637V164.039Z" fill="#455E86"/>
<path d="M245.977 167.484H189.059V168.399H245.977V167.484Z" fill="#455E86"/>
<path opacity="0.9" d="M193.422 150.058H189.059V154.669H193.422V150.058Z" fill="#FFD03F"/>
<path d="M245.637 180.543H189.059V181.458H245.637V180.543Z" fill="#455E86"/>
<path d="M245.637 184.158H189.059V185.073H245.637V184.158Z" fill="#455E86"/>
<path d="M245.637 187.626H189.059V188.541H245.637V187.626Z" fill="#455E86"/>
<path d="M245.977 191.071H189.059V191.986H245.977V191.071Z" fill="#455E86"/>
<path opacity="0.9" d="M193.422 173.645H189.059V178.256H193.422V173.645Z" fill="#FFD03F"/>
<path d="M101.093 120.059H16.8772C14.8434 120.059 13.1793 118.399 13.1793 116.371V86.6674C13.1793 84.6385 14.8434 82.9785 16.8772 82.9785H101.093C103.127 82.9785 104.791 84.6385 104.791 86.6674V116.371C104.791 118.399 103.127 120.059 101.093 120.059Z" fill="#C7D4E2"/>
<path d="M99.725 120.059H15.5164C13.4826 120.059 11.8185 118.399 11.8185 116.37V88.2534C11.8185 86.2245 13.4826 84.5645 15.5164 84.5645H99.7324C101.766 84.5645 103.43 86.2245 103.43 88.2534V116.37C103.423 118.399 101.759 120.059 99.725 120.059Z" fill="white"/>
<path d="M39.9521 112.556C38.4434 108.742 35.3002 104.927 28.7845 104.92C22.254 104.913 19.1108 108.734 17.602 112.549L39.9521 112.556Z" fill="#455E86"/>
<path d="M34.1168 97.9698C34.1168 100.906 31.728 103.289 28.7845 103.289C25.8409 103.289 23.4521 100.906 23.4521 97.9698C23.4521 95.0334 25.8409 92.6504 28.7845 92.6504C31.728 92.6504 34.1168 95.0334 34.1168 97.9698Z" fill="#455E86"/>
<path d="M99.4514 96.9961H42.8735V97.9109H99.4514V96.9961Z" fill="#455E86"/>
<path d="M99.4514 100.618H42.8735V101.533H99.4514V100.618Z" fill="#455E86"/>
<path d="M99.4514 104.086H42.8735V105.001H99.4514V104.086Z" fill="#455E86"/>
<path d="M72.6638 107.531H42.8735V108.446H72.6638V107.531Z" fill="#455E86"/>
<path d="M99.4514 96.9961H42.8735V97.9109H99.4514V96.9961Z" fill="#455E86"/>
<path d="M99.4514 100.618H42.8735V101.533H99.4514V100.618Z" fill="#455E86"/>
<path d="M99.4514 104.086H42.8735V105.001H99.4514V104.086Z" fill="#455E86"/>
<path d="M72.6638 107.531H42.8735V108.446H72.6638V107.531Z" fill="#455E86"/>
<path d="M180.502 122.811L182.528 124.906C182.528 124.906 187.025 119.521 194.68 119.816C202.327 120.118 206.528 124.906 206.528 124.906L208.628 122.811C208.628 122.811 195.582 109.642 180.502 122.811Z" fill="#7393C5"/>
<path d="M184.03 126.397L186.278 128.64C186.278 128.64 192.875 121.158 202.852 128.64L204.879 126.397C204.879 126.397 195.582 117.049 184.03 126.397Z" fill="#7393C5"/>
<path d="M189.954 132.388C189.954 132.388 194.45 127.821 198.955 132.388L201.203 129.99C201.203 129.99 194.976 124.302 187.779 129.99L189.954 132.388Z" fill="#7393C5"/>
<path d="M197.002 135.457C197.002 136.844 195.878 137.965 194.487 137.965C193.097 137.965 191.973 136.844 191.973 135.457C191.973 134.07 193.097 132.948 194.487 132.948C195.878 132.948 197.002 134.07 197.002 135.457Z" fill="#7393C5"/>
<path d="M205.359 206.129H148.781V207.044H205.359V206.129Z" fill="#455E86"/>
<path d="M205.359 209.744H148.781V210.659H205.359V209.744Z" fill="#455E86"/>
<path d="M205.359 213.219H148.781V214.134H205.359V213.219Z" fill="#455E86"/>
<path d="M205.699 216.664H148.781V217.579H205.699V216.664Z" fill="#455E86"/>
<path d="M135.654 220.205C140.306 220.205 144.078 216.443 144.078 211.802C144.078 207.161 140.306 203.398 135.654 203.398C131.001 203.398 127.23 207.161 127.23 211.802C127.23 216.443 131.001 220.205 135.654 220.205Z" stroke="#FFD03F" stroke-width="2.2528" stroke-miterlimit="10"/>
<path d="M141.593 205.929L129.715 217.777" stroke="#FFD03F" stroke-width="2.2528" stroke-miterlimit="10"/>
<path d="M204.916 223.968H126.15C123.266 223.968 120.921 221.637 120.921 218.752V204.86C120.921 201.982 123.258 199.644 126.15 199.644H204.908C207.792 199.644 210.137 201.975 210.137 204.86V218.752C210.137 221.629 207.8 223.968 204.916 223.968Z" stroke="#455E86" stroke-width="0.5" stroke-miterlimit="10"/>
<path d="M284.302 110.099H207.275C205.241 110.099 203.577 108.439 203.577 106.41V79.6137C203.577 77.5848 205.241 75.9248 207.275 75.9248H284.302C286.336 75.9248 288 77.5848 288 79.6137V106.41C288 108.439 286.336 110.099 284.302 110.099Z" fill="#C7D4E2"/>
<path d="M283.037 110.099H206.018C203.984 110.099 202.32 108.439 202.32 106.41V81.0747C202.32 79.0458 203.984 77.3857 206.018 77.3857H283.037C285.071 77.3857 286.735 79.0458 286.735 81.0747V106.41C286.735 108.439 285.071 110.099 283.037 110.099Z" fill="white"/>
<path d="M203.237 83.3981H286.735V80.6905C286.735 78.8755 285.249 77.3926 283.429 77.3926H205.626C203.806 77.3926 202.32 78.8755 202.32 80.6905V83.3981H203.237Z" fill="#455E86"/>
<path d="M243.204 99.2022L242.368 100.294V100.309L243.692 100.132V100.729L242.368 100.575V100.589L243.211 101.637L242.656 101.954L242.131 100.729H242.116L241.547 101.962L241.051 101.644L241.887 100.582V100.567L240.593 100.737V100.139L241.88 100.309V100.294L241.059 99.2317L241.591 98.9292L242.131 100.147H242.146L242.679 98.9219L243.204 99.2022Z" fill="#455E86"/>
<path d="M247.715 99.2022L246.879 100.294V100.309L248.203 100.132V100.729L246.879 100.575V100.589L247.722 101.637L247.168 101.954L246.643 100.729H246.628L246.058 101.962L245.563 101.644L246.399 100.582V100.567L245.104 100.737V100.139L246.391 100.309V100.294L245.57 99.2317L246.103 98.9292L246.643 100.147H246.657L247.19 98.9219L247.715 99.2022Z" fill="#455E86"/>
<path d="M252.227 99.2022L251.391 100.294V100.309L252.715 100.132V100.729L251.391 100.575V100.589L252.234 101.637L251.679 101.954L251.154 100.729H251.139L250.57 101.962L250.074 101.644L250.91 100.582V100.567L249.616 100.737V100.139L250.903 100.309V100.294L250.082 99.2317L250.614 98.9292L251.154 100.147H251.169L251.701 98.9219L252.227 99.2022Z" fill="#455E86"/>
<path d="M256.738 99.2022L255.902 100.294V100.309L257.226 100.132V100.729L255.902 100.575V100.589L256.745 101.637L256.191 101.954L255.666 100.729H255.651L255.081 101.962L254.586 101.644L255.421 100.582V100.567L254.127 100.737V100.139L255.414 100.309V100.294L254.593 99.2317L255.126 98.9292L255.666 100.147H255.68L256.213 98.9219L256.738 99.2022Z" fill="#455E86"/>
<path d="M261.249 99.2022L260.414 100.294V100.309L261.737 100.132V100.729L260.414 100.575V100.589L261.257 101.637L260.702 101.954L260.177 100.729H260.162L259.593 101.962L259.097 101.644L259.933 100.582V100.567L258.639 100.737V100.139L259.926 100.309V100.294L259.105 99.2317L259.637 98.9292L260.177 100.147H260.192L260.724 98.9219L261.249 99.2022Z" fill="#455E86"/>
<path d="M265.761 99.2022L264.925 100.294V100.309L266.249 100.132V100.729L264.925 100.575V100.589L265.768 101.637L265.214 101.954L264.688 100.729H264.674L264.104 101.962L263.609 101.644L264.444 100.582V100.567L263.15 100.737V100.139L264.437 100.309V100.294L263.616 99.2317L264.149 98.9292L264.688 100.147H264.703L265.236 98.9219L265.761 99.2022Z" fill="#455E86"/>
<path d="M270.272 99.2022L269.437 100.294V100.309L270.76 100.132V100.729L269.437 100.575V100.589L270.28 101.637L269.725 101.954L269.2 100.729H269.185L268.616 101.962L268.12 101.644L268.956 100.582V100.567L267.662 100.737V100.139L268.948 100.309V100.294L268.127 99.2317L268.66 98.9292L269.2 100.147H269.207L269.74 98.9219L270.272 99.2022Z" fill="#455E86"/>
<path d="M243.204 91.7794L242.368 92.8713V92.8861L243.692 92.709V93.3066L242.368 93.1517V93.1664L243.211 94.2141L242.656 94.5313L242.131 93.3066H242.116L241.547 94.5387L241.051 94.2214L241.887 93.159V93.1443L240.593 93.314V92.7164L241.88 92.8861V92.8713L241.059 91.8089L241.591 91.5064L242.131 92.7237H242.146L242.679 91.499L243.204 91.7794Z" fill="#455E86"/>
<path d="M247.715 91.7794L246.879 92.8713V92.8861L248.203 92.709V93.3066L246.879 93.1517V93.1664L247.722 94.2141L247.168 94.5313L246.643 93.3066H246.628L246.058 94.5387L245.563 94.2214L246.399 93.159V93.1443L245.104 93.314V92.7164L246.391 92.8861V92.8713L245.57 91.8089L246.103 91.5064L246.643 92.7237H246.657L247.19 91.499L247.715 91.7794Z" fill="#455E86"/>
<path d="M252.227 91.7794L251.391 92.8713V92.8861L252.715 92.709V93.3066L251.391 93.1517V93.1664L252.234 94.2141L251.679 94.5313L251.154 93.3066H251.139L250.57 94.5387L250.074 94.2214L250.91 93.159V93.1443L249.616 93.314V92.7164L250.903 92.8861V92.8713L250.082 91.8089L250.614 91.5064L251.154 92.7237H251.169L251.701 91.499L252.227 91.7794Z" fill="#455E86"/>
<path d="M256.738 91.7794L255.902 92.8713V92.8861L257.226 92.709V93.3066L255.902 93.1517V93.1664L256.745 94.2141L256.191 94.5313L255.666 93.3066H255.651L255.081 94.5387L254.586 94.2214L255.421 93.159V93.1443L254.127 93.314V92.7164L255.414 92.8861V92.8713L254.593 91.8089L255.126 91.5064L255.666 92.7237H255.68L256.213 91.499L256.738 91.7794Z" fill="#455E86"/>
<path d="M261.249 91.7794L260.414 92.8713V92.8861L261.737 92.709V93.3066L260.414 93.1517V93.1664L261.257 94.2141L260.702 94.5313L260.177 93.3066H260.162L259.593 94.5387L259.097 94.2214L259.933 93.159V93.1443L258.639 93.314V92.7164L259.926 92.8861V92.8713L259.105 91.8089L259.637 91.5064L260.177 92.7237H260.192L260.724 91.499L261.249 91.7794Z" fill="#455E86"/>
<path d="M282.89 105.636H207.127V85.959H282.89V105.636ZM207.297 105.473H282.727V86.1287H207.297V105.473Z" fill="#455E86"/>
<path d="M214.804 90.8506H215.233V93.7943H216.645V94.1485H214.804V90.8506Z" fill="#455E86"/>
<path d="M219.759 92.4662C219.759 93.6024 219.064 94.2074 218.221 94.2074C217.348 94.2074 216.734 93.5286 216.734 92.5326C216.734 91.485 217.385 90.7988 218.272 90.7988C219.175 90.7988 219.759 91.4923 219.759 92.4662ZM217.185 92.5252C217.185 93.2335 217.57 93.8606 218.243 93.8606C218.923 93.8606 219.3 93.2409 219.3 92.4884C219.3 91.8317 218.96 91.1456 218.243 91.1456C217.54 91.1456 217.185 91.7948 217.185 92.5252Z" fill="#455E86"/>
<path d="M222.828 94.0085C222.636 94.0749 222.259 94.193 221.815 94.193C221.312 94.193 220.905 94.0675 220.58 93.7577C220.291 93.4847 220.121 93.042 220.121 92.5256C220.129 91.5443 220.802 90.8213 221.911 90.8213C222.296 90.8213 222.592 90.9024 222.732 90.9762L222.629 91.323C222.451 91.2418 222.229 91.1828 221.896 91.1828C221.09 91.1828 220.565 91.6845 220.565 92.5108C220.565 93.3445 221.068 93.8462 221.845 93.8462C222.126 93.8462 222.318 93.8093 222.414 93.7577V92.7764H221.741V92.437H222.828V94.0085Z" fill="#455E86"/>
<path d="M223.915 90.8506V94.1485H223.486V90.8506H223.915Z" fill="#455E86"/>
<path d="M224.662 94.1559V90.858H225.128L226.186 92.5254C226.43 92.909 226.622 93.2631 226.778 93.5951L226.785 93.5878C226.748 93.1451 226.733 92.7467 226.733 92.2302V90.8506H227.133V94.1485H226.704L225.653 92.4737C225.424 92.1048 225.202 91.7285 225.032 91.3744L225.017 91.3818C225.04 91.7949 225.054 92.1933 225.054 92.7467V94.1559H224.662Z" fill="#455E86"/>
<path d="M214.804 98.1475C215.011 98.1106 215.277 98.0811 215.625 98.0811C216.046 98.0811 216.357 98.177 216.549 98.354C216.734 98.509 216.838 98.7524 216.838 99.0475C216.838 99.3427 216.749 99.5788 216.586 99.7558C216.357 99.9993 215.994 100.117 215.573 100.117C215.447 100.117 215.329 100.11 215.233 100.088V101.408H214.804V98.1475ZM215.225 99.7411C215.321 99.7632 215.44 99.778 215.58 99.778C216.098 99.778 216.409 99.5271 216.409 99.0697C216.409 98.6344 216.098 98.4204 215.625 98.4204C215.44 98.4204 215.299 98.4352 215.225 98.4573V99.7411Z" fill="#455E86"/>
<path d="M217.54 100.375L217.2 101.415H216.756L217.88 98.1172H218.398L219.53 101.415H219.071L218.716 100.375H217.54ZM218.62 100.043L218.295 99.0911C218.221 98.8771 218.169 98.6779 218.124 98.4861H218.117C218.065 98.6853 218.014 98.8845 217.947 99.0837L217.622 100.035H218.62V100.043Z" fill="#455E86"/>
<path d="M219.951 100.892C220.144 101.01 220.425 101.106 220.72 101.106C221.157 101.106 221.416 100.877 221.416 100.545C221.416 100.235 221.238 100.058 220.794 99.8883C220.254 99.6965 219.922 99.4161 219.922 98.9513C219.922 98.4349 220.351 98.0586 220.994 98.0586C221.334 98.0586 221.578 98.1398 221.726 98.2209L221.608 98.5677C221.497 98.5086 221.282 98.4127 220.979 98.4127C220.528 98.4127 220.358 98.6857 220.358 98.907C220.358 99.2169 220.558 99.3645 221.016 99.5415C221.578 99.7555 221.859 100.028 221.859 100.508C221.859 101.017 221.482 101.46 220.698 101.46C220.38 101.46 220.033 101.364 219.855 101.246L219.951 100.892Z" fill="#455E86"/>
<path d="M222.37 100.892C222.562 101.01 222.843 101.106 223.139 101.106C223.575 101.106 223.834 100.877 223.834 100.545C223.834 100.235 223.657 100.058 223.213 99.8883C222.673 99.6965 222.34 99.4161 222.34 98.9513C222.34 98.4349 222.769 98.0586 223.412 98.0586C223.753 98.0586 223.997 98.1398 224.145 98.2209L224.026 98.5677C223.915 98.5086 223.701 98.4127 223.398 98.4127C222.947 98.4127 222.776 98.6857 222.776 98.907C222.776 99.2169 222.976 99.3645 223.435 99.5415C223.997 99.7555 224.278 100.028 224.278 100.508C224.278 101.017 223.901 101.46 223.117 101.46C222.799 101.46 222.451 101.364 222.273 101.246L222.37 100.892Z" fill="#455E86"/>
<path d="M225.395 101.416L224.559 98.1177H225.01L225.402 99.7851C225.498 100.198 225.587 100.611 225.646 100.929H225.653C225.705 100.604 225.809 100.206 225.927 99.7851L226.371 98.1177H226.815L227.214 99.7925C227.31 100.184 227.399 100.575 227.443 100.921H227.451C227.517 100.56 227.613 100.191 227.717 99.7777L228.153 98.1104H228.59L227.65 101.408H227.206L226.792 99.6892C226.689 99.2687 226.622 98.9441 226.578 98.612H226.57C226.511 98.9367 226.437 99.2613 226.312 99.6892L225.838 101.408H225.395V101.416Z" fill="#455E86"/>
<path d="M231.836 99.726C231.836 100.862 231.141 101.467 230.298 101.467C229.425 101.467 228.811 100.788 228.811 99.7924C228.811 98.7447 229.462 98.0586 230.35 98.0586C231.252 98.0586 231.836 98.7447 231.836 99.726ZM229.27 99.7776C229.27 100.486 229.655 101.113 230.328 101.113C231.008 101.113 231.385 100.493 231.385 99.7407C231.385 99.0841 231.045 98.398 230.328 98.398C229.618 98.4053 229.27 99.0546 229.27 99.7776Z" fill="#455E86"/>
<path d="M232.391 98.1543C232.605 98.11 232.916 98.0879 233.212 98.0879C233.67 98.0879 233.966 98.1691 234.166 98.3609C234.336 98.5084 234.425 98.7298 234.425 98.988C234.425 99.4233 234.151 99.711 233.804 99.8291V99.8438C234.062 99.9323 234.21 100.168 234.292 100.508C234.403 100.965 234.477 101.29 234.543 101.415H234.099C234.048 101.319 233.974 101.039 233.878 100.626C233.781 100.168 233.604 99.9988 233.212 99.984H232.813V101.415H232.384V98.1543H232.391ZM232.82 99.6594H233.256C233.715 99.6594 234.003 99.4085 234.003 99.0323C234.003 98.6043 233.693 98.4199 233.241 98.4125C233.034 98.4125 232.886 98.4347 232.82 98.4494V99.6594Z" fill="#455E86"/>
<path d="M235.039 98.1543C235.297 98.1174 235.608 98.0879 235.948 98.0879C236.562 98.0879 236.999 98.2281 237.287 98.501C237.583 98.7666 237.753 99.1503 237.753 99.6889C237.753 100.227 237.583 100.67 237.28 100.973C236.969 101.282 236.459 101.445 235.815 101.445C235.512 101.445 235.253 101.43 235.039 101.408V98.1543ZM235.46 101.076C235.571 101.098 235.726 101.098 235.889 101.098C236.799 101.098 237.302 100.589 237.302 99.6963C237.309 98.9142 236.865 98.4199 235.963 98.4199C235.741 98.4199 235.579 98.442 235.46 98.4642V101.076Z" fill="#455E86"/>
<path d="M258.809 136.925C261.272 133.332 262.544 129.031 263.084 124.707C263.631 120.384 263.594 115.337 263.453 110.984C262.854 110.512 262.263 109.878 261.863 109.221C261.678 108.919 261.538 108.491 261.789 108.24C261.908 108.122 262.085 108.085 262.255 108.085C262.832 108.092 263.313 108.513 263.845 108.749C264.644 109.103 265.554 109.037 266.419 108.97C267.284 108.897 268.15 108.83 269.022 108.756C269.178 108.742 269.333 108.734 269.474 108.786C269.777 108.897 269.902 109.317 269.718 109.583L269.178 110.992C269.88 118.517 269.392 127.592 267.403 134.881C266.634 137.692 265.214 140.451 263.453 142.775" fill="#F7C5B4"/>
<path d="M226.533 136.977C224.071 133.384 222.799 129.082 222.259 124.759C221.711 120.436 221.748 115.389 221.889 111.036C222.488 110.564 223.08 109.93 223.479 109.273C223.664 108.97 223.804 108.542 223.553 108.292C223.435 108.174 223.257 108.137 223.087 108.137C222.51 108.144 222.029 108.565 221.497 108.801C220.698 109.155 219.788 109.088 218.923 109.022C218.058 108.948 217.193 108.882 216.32 108.808C216.165 108.793 216.009 108.786 215.869 108.838C215.565 108.948 215.44 109.369 215.625 109.634L216.165 111.044C215.462 118.569 215.95 127.644 217.94 134.933C218.709 137.744 220.129 140.503 221.889 142.827" fill="#F7C5B4"/>
<path d="M254.667 177.304C256.131 181.553 257.655 198.677 257.973 203.215C259.29 221.94 258.787 228.498 258.069 246.22C257.892 250.669 257.692 256.416 257.507 260.865H251.857C248.98 243.313 244.32 205.804 242.893 188.053C242.893 188.053 237.065 243.047 234.247 260.607H228.486C228.294 256.158 228.183 250.433 227.99 245.984C227.547 235.839 227.761 227.089 227.835 216.93C227.887 209.346 227.576 200.345 228.412 192.797C228.915 188.282 229.218 181.568 230.668 177.311H254.667V177.304Z" fill="#090909"/>
<path d="M251.879 260.88C251.783 262.156 251.953 262.931 252.663 263.624C253.373 264.318 254.334 264.657 255.259 264.967C257.174 265.616 259.179 266.251 261.161 265.889C261.664 265.801 262.226 265.557 262.344 265.048C262.455 264.568 262.115 264.118 261.782 263.772C260.702 262.643 258.861 261.61 257.514 260.857L251.879 260.88Z" fill="#121313"/>
<path d="M234.255 260.621C234.351 261.897 234.181 262.672 233.471 263.365C232.761 264.059 231.799 264.398 230.867 264.708C228.952 265.357 226.948 265.992 224.966 265.63C224.463 265.542 223.901 265.298 223.782 264.789C223.671 264.31 224.012 263.86 224.344 263.513C225.424 262.384 227.266 261.351 228.612 260.599L234.255 260.621Z" fill="#121313"/>
<path d="M234.314 138.969C233.515 139.219 232.295 139.256 231.474 139.116C230.89 139.013 230.342 138.755 229.825 138.467C228.382 137.663 227.081 136.585 226.134 135.235L221.046 141.713C221.756 143.602 222.717 145.409 224.048 146.929C225.38 148.449 227.384 149.762 229.314 150.345C230.387 157.391 230.882 171.239 230.683 177.304C230.683 177.304 234.484 177.569 240.194 177.96C240.652 177.99 241.118 178.012 241.591 178.027L242.501 178.019H242.856L243.766 178.027C244.239 178.012 244.712 177.99 245.163 177.96C250.873 177.577 254.674 177.304 254.674 177.304C254.356 164.761 255.059 161.176 256.043 150.345C257.98 149.762 259.985 148.449 261.309 146.929C262.64 145.409 263.601 143.602 264.311 141.713L259.223 135.235C258.269 136.585 256.975 137.663 255.532 138.467C255.015 138.755 254.467 139.013 253.883 139.116C253.062 139.264 251.487 139.101 250.688 138.85L234.314 138.969Z" fill="#003A70"/>
<path d="M245.666 131.406C245.844 132.683 246.029 133.966 246.206 135.243C246.273 135.715 246.354 136.512 246.584 136.932C246.946 137.596 250.104 138.533 250.681 138.85C250.681 138.85 248.203 141.005 242.279 141.322C236.348 141.647 234.314 138.969 234.314 138.969C234.883 138.637 237.805 137.5 238.152 136.822C238.367 136.401 238.426 135.597 238.478 135.125C238.618 133.841 238.759 132.557 238.907 131.273" fill="#F7C5B4"/>
<path d="M248.728 118.229C249.268 120.936 248.64 126.403 248.085 128.573C247.863 129.45 247.619 130.365 247.064 131.081C244.32 134.637 240.571 133.582 239.336 132.8C238.367 132.18 237.583 131.332 237.124 130.277C235.956 127.591 235.445 124.618 235.652 121.696C235.652 121.696 235.216 114.082 243.026 113.964C243.026 113.964 247.819 113.714 248.728 118.229Z" fill="#F7C5B4"/>
<path d="M235.852 125.283C235.689 125.526 235.297 125.526 235.068 125.349C234.832 125.172 234.728 124.87 234.669 124.582C234.61 124.301 234.58 124.014 234.595 123.726C234.602 123.519 234.632 123.298 234.765 123.143C234.898 122.988 235.127 122.914 235.327 122.973C235.527 123.032 235.682 123.209 235.712 123.416L235.852 125.283Z" fill="#F7C5B4"/>
<path d="M248.795 122.885C248.854 122.686 248.965 122.494 249.165 122.435C249.364 122.368 249.594 122.435 249.727 122.59C249.867 122.745 249.897 122.966 249.912 123.165C249.926 123.453 249.912 123.741 249.86 124.028C249.808 124.316 249.712 124.619 249.483 124.803C249.253 124.988 248.869 125.002 248.691 124.766C248.691 124.766 248.506 123.807 248.795 122.885Z" fill="#F7C5B4"/>
<path d="M237.879 117.108C238.197 118.118 238.16 119.225 237.849 120.236C237.538 121.247 236.976 122.176 236.281 122.973C236.089 123.194 235.793 123.43 235.534 123.29C235.408 123.224 235.334 123.084 235.283 122.943C234.617 121.32 234.78 119.38 235.712 117.897C235.682 116.665 236.015 115.322 236.843 114.415C237.672 113.507 238.862 112.932 240.09 112.843C241.406 112.747 242.937 112.932 244.069 112.253C244.128 112.6 244.032 112.969 243.81 113.242C245.319 113.743 247.005 113.669 248.462 113.035C248.366 113.736 248.159 114.422 247.863 115.064C248.24 115.448 248.81 115.595 249.35 115.573C249.889 115.558 250.407 115.389 250.925 115.226C250.703 116.532 250.318 118.096 249.135 118.701C246.258 120.162 243.914 119.225 242.346 118.576C242.501 118.93 242.767 119.232 243.085 119.446C242.109 119.527 241.133 119.254 240.26 118.812C239.387 118.369 238.611 117.764 237.871 117.122" fill="#090909"/>
<path d="M245.785 132.38C245.785 132.38 244.764 133.383 242.59 133.59C240.408 133.797 238.988 132.572 238.766 132.365C238.766 132.365 239.254 134.756 242.397 134.734C245.43 134.719 245.785 132.38 245.785 132.38Z" fill="#F7C5B4"/>
<path d="M239.58 124.116C239.587 124.456 239.313 124.743 238.966 124.743C238.626 124.751 238.337 124.478 238.337 124.131C238.33 123.792 238.603 123.504 238.951 123.504C239.291 123.504 239.572 123.777 239.58 124.116Z" fill="#3C3C3B"/>
<path d="M244.764 124.139C244.772 124.478 245.053 124.751 245.393 124.751C245.733 124.744 246.007 124.463 246.007 124.124C245.999 123.785 245.718 123.512 245.378 123.512C245.03 123.512 244.757 123.792 244.764 124.139Z" fill="#3C3C3B"/>
<path d="M243.618 123.261C243.425 122.899 243.381 122.464 243.514 122.08C243.603 122.191 243.788 122.198 243.884 122.095C243.921 122.051 243.951 121.992 244.002 121.962C244.047 121.94 244.091 121.94 244.143 121.933C244.35 121.911 244.535 121.8 244.72 121.711C245.541 121.32 246.569 121.401 247.323 121.918C247.146 122.125 246.828 122.117 246.554 122.147C245.489 122.265 244.816 123.135 243.758 123.29C243.751 123.298 243.647 123.312 243.618 123.261Z" fill="#3C3C3B"/>
<path d="M242.716 128.883C242.716 128.883 242.568 128.949 242.324 128.979C242.079 129.001 241.747 128.964 241.436 128.817C241.296 128.743 241.155 128.64 241.044 128.536C240.933 128.433 240.844 128.315 240.778 128.212C240.645 128.005 240.608 127.843 240.608 127.843V127.835C240.6 127.799 240.623 127.769 240.652 127.762C240.682 127.754 240.711 127.769 240.726 127.799C240.726 127.799 240.785 127.939 240.918 128.123C240.985 128.212 241.066 128.315 241.17 128.404C241.273 128.499 241.392 128.573 241.532 128.64C241.791 128.78 242.094 128.824 242.316 128.817C242.538 128.817 242.693 128.772 242.693 128.772C242.723 128.765 242.752 128.78 242.767 128.809C242.775 128.839 242.76 128.868 242.738 128.876L242.716 128.883Z" fill="#A3A3A3"/>
<path d="M248.077 119.041C247.922 120.244 248.166 121.49 248.75 122.545C248.817 122.671 248.913 122.804 249.054 122.826C249.172 122.841 249.29 122.759 249.35 122.656C249.416 122.553 249.431 122.427 249.453 122.309C249.653 121.077 249.852 119.764 249.327 118.628C249.29 118.547 249.246 118.458 249.172 118.399C249.091 118.333 248.98 118.311 248.876 118.311C248.44 118.311 248.04 118.724 248.063 119.159" fill="#090909"/>
<path d="M242.161 123.955C242.161 123.955 242.131 124.183 242.087 124.53C242.042 124.877 241.998 125.342 241.998 125.807C241.991 126.035 241.983 126.271 241.991 126.485C241.983 126.714 242.035 126.81 242.168 126.884C242.42 127.009 242.693 126.958 242.686 126.972C242.738 126.972 242.782 127.009 242.782 127.061C242.782 127.112 242.745 127.157 242.693 127.157C242.693 127.157 242.634 127.164 242.531 127.172C242.427 127.172 242.257 127.201 242.057 127.105C241.961 127.053 241.858 126.987 241.791 126.854C241.724 126.736 241.724 126.596 241.717 126.493C241.702 126.271 241.695 126.028 241.702 125.792C241.724 125.312 241.784 124.84 241.85 124.486C241.917 124.132 241.991 123.911 241.991 123.911C242.005 123.866 242.05 123.837 242.102 123.851C242.146 123.866 242.168 123.911 242.161 123.955Z" fill="#A3A3A3"/>
<path d="M241.088 123.283C241.281 122.922 241.325 122.486 241.192 122.103C241.103 122.213 240.918 122.221 240.822 122.117C240.785 122.073 240.756 122.014 240.704 121.985C240.659 121.963 240.615 121.963 240.563 121.955C240.356 121.933 240.171 121.822 239.986 121.734C239.165 121.343 238.137 121.424 237.383 121.94C237.561 122.147 237.879 122.14 238.152 122.169C239.217 122.287 239.89 123.158 240.948 123.313C240.955 123.32 241.066 123.335 241.088 123.283Z" fill="#3C3C3B"/>
<path d="M249.653 149.334C252.234 149.946 251.065 152.794 251.065 152.794C251.332 154.012 250.141 153.886 250.141 153.886C250.141 153.886 249.727 154.019 249.86 154.543C249.86 154.543 249.505 154.676 248.958 154.676C248.41 154.676 247.989 154.543 247.989 154.543C248.122 154.019 247.708 153.886 247.708 153.886C247.708 153.886 246.532 154.019 246.783 152.794C246.783 152.794 245.652 150.087 248.196 149.334C248.196 149.334 248.787 149.127 249.653 149.334Z" fill="white"/>
<path d="M249.261 151.769C249.327 151.658 249.438 151.577 249.564 151.555C249.69 151.532 249.823 151.547 249.949 151.577C250.097 151.606 250.244 151.643 250.392 151.695C250.503 151.732 250.614 151.776 250.688 151.864C250.762 151.96 250.777 152.086 250.77 152.204C250.762 152.344 250.733 152.492 250.659 152.617C250.585 152.742 250.474 152.846 250.333 152.883C250.082 152.949 249.83 152.794 249.631 152.632C249.431 152.462 249.261 152.27 249.231 152.005C249.224 151.997 249.231 151.82 249.261 151.769Z" fill="#003A70"/>
<path d="M248.691 151.879C248.654 151.761 248.558 151.658 248.44 151.606C248.322 151.555 248.188 151.547 248.063 151.54C247.907 151.54 247.759 151.54 247.604 151.555C247.493 151.562 247.367 151.584 247.279 151.658C247.19 151.732 247.146 151.857 247.123 151.968C247.101 152.108 247.094 152.256 247.138 152.396C247.183 152.536 247.271 152.661 247.397 152.728C247.626 152.846 247.907 152.757 248.137 152.632C248.373 152.507 248.58 152.359 248.662 152.108C248.677 152.116 248.714 151.938 248.691 151.879Z" fill="#003A70"/>
<path d="M248.98 152.455C249.002 152.469 249.039 152.491 249.054 152.521C249.15 152.654 249.216 152.816 249.261 152.986C249.276 153.045 249.283 153.119 249.246 153.155C249.216 153.185 249.179 153.178 249.142 153.163C249.105 153.148 249.076 153.126 249.039 153.126C249.002 153.119 248.958 153.141 248.921 153.155C248.861 153.178 248.787 153.192 248.736 153.141C248.699 153.104 248.684 153.037 248.684 152.978C248.684 152.919 248.706 152.86 248.728 152.809C248.765 152.713 248.81 152.617 248.861 152.528C248.861 152.528 248.935 152.425 248.98 152.455Z" fill="#003A70"/>
<path opacity="0.9" d="M110.565 134.816C115.353 129.532 114.939 121.377 109.642 116.601C104.345 111.826 96.1702 112.238 91.3829 117.522C86.5956 122.806 87.0089 130.961 92.3059 135.737C97.603 140.513 105.778 140.1 110.565 134.816Z" fill="#FFD03F"/>
<path d="M101.212 131.981H100.997C100.154 131.981 99.4514 131.347 99.37 130.513L98.2015 118.79C98.1053 117.831 98.8597 116.997 99.8286 116.997H102.121C103.075 116.997 103.822 117.809 103.748 118.753L102.839 130.476C102.772 131.325 102.062 131.981 101.212 131.981Z" fill="white"/>
<path d="M102.757 134.593C102.757 135.575 101.959 136.372 100.975 136.372C99.9913 136.372 99.1925 135.575 99.1925 134.593C99.1925 133.612 99.9913 132.815 100.975 132.815C101.959 132.815 102.757 133.612 102.757 134.593Z" fill="white"/>
</g>
<defs>
<linearGradient id="paint0_linear_648_7961" x1="181.833" y1="135.29" x2="18.8172" y2="208.355" gradientUnits="userSpaceOnUse">
<stop stop-color="white"/>
<stop offset="1" stop-color="#C6D4EE"/>
</linearGradient>
<clipPath id="clip0_648_7961">
<rect width="288" height="266" fill="white"/>
</clipPath>
</defs>
</svg>
