<svg width="1327" height="1542" viewBox="0 0 1327 1542" fill="none" xmlns="http://www.w3.org/2000/svg">
<g filter="url(#filter0_d_5963_184)">
<rect x="595" y="584" width="356.323" height="352.335" rx="64.9101" fill="white"/>
<rect x="596" y="585" width="354.323" height="350.335" rx="63.9101" stroke="url(#paint0_linear_5963_184)" stroke-width="2"/>
</g>
<g filter="url(#filter1_i_5963_184)">
<path d="M899.729 760.168C899.729 776.789 896.455 793.248 890.094 808.603C883.733 823.959 874.41 837.912 862.658 849.665C850.905 861.418 836.952 870.741 821.596 877.102C806.24 883.462 789.781 886.736 773.16 886.736C756.539 886.736 740.081 883.462 724.725 877.102C709.369 870.741 695.416 861.418 683.663 849.665C671.91 837.912 662.587 823.959 656.226 808.603C649.866 793.248 646.592 776.789 646.592 760.168C646.592 743.547 649.866 727.088 656.226 711.732C662.587 696.376 671.91 682.424 683.663 670.671C695.416 658.918 709.369 649.595 724.725 643.234C740.081 636.873 756.539 633.6 773.16 633.6C789.781 633.6 806.24 636.873 821.596 643.234C836.952 649.595 850.905 658.918 862.658 670.671C874.41 682.424 883.733 696.376 890.094 711.732C896.455 727.088 899.729 743.547 899.729 760.168L899.729 760.168Z" stroke="#F1F3F7" stroke-width="14.1369" stroke-linecap="round" stroke-linejoin="round"/>
</g>
<g filter="url(#filter2_i_5963_184)">
<path d="M874.671 760.168C874.671 773.499 872.045 786.699 866.944 799.015C861.842 811.331 854.365 822.521 844.939 831.947C835.513 841.373 824.322 848.851 812.006 853.952C799.69 859.054 786.49 861.679 773.159 861.679C759.829 861.679 746.629 859.054 734.313 853.952C721.997 848.851 710.806 841.373 701.38 831.947C691.954 822.521 684.477 811.331 679.375 799.015C674.274 786.699 671.648 773.499 671.648 760.168C671.648 746.837 674.274 733.637 679.375 721.321C684.477 709.005 691.954 697.815 701.38 688.388C710.806 678.962 721.997 671.485 734.313 666.384C746.629 661.282 759.829 658.656 773.159 658.656C786.49 658.656 799.69 661.282 812.006 666.384C824.322 671.485 835.513 678.962 844.939 688.388C854.365 697.815 861.842 709.005 866.944 721.321C872.045 733.637 874.671 746.837 874.671 760.168L874.671 760.168Z" stroke="#F1F3F7" stroke-width="14.1369" stroke-linecap="round" stroke-linejoin="round"/>
</g>
<g filter="url(#filter3_i_5963_184)">
<path d="M849.615 760.167C849.615 770.208 847.637 780.149 843.795 789.425C839.953 798.701 834.321 807.129 827.222 814.229C820.122 821.328 811.694 826.96 802.418 830.802C793.142 834.644 783.2 836.622 773.16 836.622C763.12 836.622 753.178 834.644 743.902 830.802C734.626 826.96 726.198 821.328 719.099 814.229C711.999 807.129 706.368 798.701 702.525 789.425C698.683 780.149 696.706 770.208 696.706 760.167C696.706 750.127 698.683 740.185 702.525 730.91C706.368 721.634 711.999 713.205 719.099 706.106C726.198 699.006 734.626 693.375 743.902 689.533C753.178 685.69 763.12 683.713 773.16 683.713C783.2 683.713 793.142 685.69 802.418 689.533C811.694 693.375 820.122 699.006 827.222 706.106C834.321 713.205 839.953 721.634 843.795 730.91C847.637 740.185 849.615 750.127 849.615 760.167L849.615 760.167Z" stroke="#F1F3F7" stroke-width="14.1369" stroke-linecap="round" stroke-linejoin="round"/>
</g>
<g filter="url(#filter4_d_5963_184)">
<path d="M899.729 760.168C899.729 784.186 892.895 807.708 880.026 827.987C867.156 848.265 848.783 864.464 827.051 874.69C805.319 884.917 781.126 888.748 757.297 885.738C733.469 882.728 710.989 873 692.483 857.69C673.977 842.381 660.209 822.122 652.787 799.28C645.365 776.437 644.596 751.955 650.569 728.692C656.542 705.428 669.011 684.345 686.519 667.904C704.027 651.462 725.852 640.342 749.444 635.841" stroke="#FFD912" stroke-width="14.1369" stroke-linecap="round" stroke-linejoin="round"/>
</g>
<g filter="url(#filter5_d_5963_184)">
<path d="M874.671 760.167C874.671 782.423 867.357 804.061 853.855 821.753C840.354 839.444 821.412 852.208 799.946 858.081C778.479 863.954 755.678 862.609 735.05 854.254C714.423 845.899 697.113 830.997 685.784 811.841C674.456 792.685 669.736 770.337 672.352 748.236C674.968 726.135 684.774 705.506 700.261 689.524C715.749 673.542 736.06 663.093 758.068 659.784C780.075 656.475 802.561 660.491 822.063 671.212" stroke="#EBDC8C" stroke-width="14.1369" stroke-linecap="round" stroke-linejoin="round"/>
</g>
<g filter="url(#filter6_d_5963_184)">
<path d="M849.615 759.693C849.615 770.067 847.477 780.332 843.333 789.855C839.188 799.378 833.124 807.958 825.512 815.066C817.899 822.174 808.901 827.657 799.07 831.177C789.24 834.696 778.787 836.175 768.357 835.523C757.927 834.87 747.744 832.1 738.436 827.384C729.128 822.668 720.893 816.108 714.238 808.109C707.584 800.111 702.65 790.843 699.738 780.88C696.827 770.917 696 760.467 697.308 750.175" stroke="#FFF5BE" stroke-width="14.1369" stroke-linecap="round" stroke-linejoin="round"/>
</g>
<path d="M751.838 772.759V762.439H753.845V772.759H751.838ZM753.563 772.759V770.992H758.016V772.759H753.563ZM762.849 773.028C762.189 773.028 761.61 772.915 761.11 772.688C760.62 772.462 760.21 772.161 759.88 771.784C759.56 771.397 759.315 770.968 759.145 770.497C758.985 770.026 758.905 769.545 758.905 769.055V768.787C758.905 768.278 758.985 767.788 759.145 767.316C759.315 766.836 759.56 766.412 759.88 766.044C760.21 765.667 760.615 765.37 761.096 765.153C761.577 764.927 762.133 764.814 762.764 764.814C763.593 764.814 764.286 764.998 764.842 765.366C765.408 765.724 765.832 766.2 766.114 766.793C766.397 767.378 766.539 768.009 766.539 768.688V769.395H759.739V768.193H765.309L764.701 768.787C764.701 768.297 764.63 767.877 764.489 767.528C764.347 767.18 764.131 766.911 763.838 766.723C763.556 766.534 763.198 766.44 762.764 766.44C762.331 766.44 761.963 766.539 761.661 766.737C761.36 766.935 761.129 767.222 760.969 767.599C760.818 767.967 760.742 768.41 760.742 768.928C760.742 769.409 760.818 769.838 760.969 770.215C761.119 770.582 761.35 770.874 761.661 771.091C761.972 771.298 762.368 771.402 762.849 771.402C763.33 771.402 763.721 771.308 764.022 771.119C764.324 770.921 764.517 770.681 764.602 770.398H766.411C766.298 770.926 766.082 771.388 765.761 771.784C765.441 772.18 765.031 772.486 764.531 772.703C764.041 772.919 763.48 773.028 762.849 773.028ZM769.652 772.759L767.249 765.083H769.27L771.575 772.759H769.652ZM770.232 772.759V771.148H772.31V772.759H770.232ZM771.009 772.759L772.988 765.083H774.883L772.805 772.759H771.009ZM779.636 773.028C778.977 773.028 778.397 772.915 777.898 772.688C777.408 772.462 776.998 772.161 776.668 771.784C776.347 771.397 776.102 770.968 775.933 770.497C775.772 770.026 775.692 769.545 775.692 769.055V768.787C775.692 768.278 775.772 767.788 775.933 767.316C776.102 766.836 776.347 766.412 776.668 766.044C776.998 765.667 777.403 765.37 777.883 765.153C778.364 764.927 778.92 764.814 779.552 764.814C780.381 764.814 781.074 764.998 781.63 765.366C782.195 765.724 782.619 766.2 782.902 766.793C783.185 767.378 783.326 768.009 783.326 768.688V769.395H776.526V768.193H782.096L781.488 768.787C781.488 768.297 781.418 767.877 781.276 767.528C781.135 767.18 780.918 766.911 780.626 766.723C780.343 766.534 779.985 766.44 779.552 766.44C779.118 766.44 778.751 766.539 778.449 766.737C778.147 766.935 777.916 767.222 777.756 767.599C777.605 767.967 777.53 768.41 777.53 768.928C777.53 769.409 777.605 769.838 777.756 770.215C777.907 770.582 778.138 770.874 778.449 771.091C778.76 771.298 779.156 771.402 779.636 771.402C780.117 771.402 780.508 771.308 780.81 771.119C781.111 770.921 781.305 770.681 781.389 770.398H783.199C783.086 770.926 782.869 771.388 782.549 771.784C782.228 772.18 781.818 772.486 781.319 772.703C780.829 772.919 780.268 773.028 779.636 773.028ZM785.067 772.759V762.439H787.032V772.759H785.067ZM784.105 763.909V762.439H787.032V763.909H784.105ZM792.06 772.999C791.005 772.999 790.175 772.778 789.572 772.335C788.978 771.883 788.667 771.261 788.639 770.469H790.406C790.434 770.733 790.58 770.973 790.844 771.19C791.108 771.407 791.523 771.515 792.088 771.515C792.56 771.515 792.932 771.43 793.205 771.261C793.488 771.091 793.629 770.86 793.629 770.568C793.629 770.313 793.521 770.111 793.304 769.96C793.097 769.809 792.739 769.71 792.23 769.663L791.551 769.592C790.694 769.498 790.034 769.253 789.572 768.857C789.11 768.462 788.879 767.934 788.879 767.274C788.879 766.746 789.011 766.303 789.275 765.945C789.539 765.587 789.902 765.318 790.364 765.139C790.835 764.951 791.372 764.857 791.975 764.857C792.918 764.857 793.681 765.064 794.265 765.479C794.85 765.893 795.156 766.501 795.184 767.302H793.417C793.398 767.038 793.266 766.812 793.021 766.624C792.776 766.435 792.423 766.341 791.961 766.341C791.546 766.341 791.226 766.421 791 766.581C790.774 766.742 790.661 766.949 790.661 767.203C790.661 767.448 790.75 767.637 790.929 767.769C791.118 767.901 791.419 767.99 791.834 768.037L792.512 768.108C793.417 768.202 794.124 768.452 794.633 768.857C795.151 769.263 795.411 769.809 795.411 770.497C795.411 771.006 795.269 771.449 794.986 771.826C794.713 772.194 794.327 772.481 793.827 772.688C793.328 772.896 792.739 772.999 792.06 772.999Z" fill="#6B7280"/>
<path d="M740.266 755.454C739.092 755.454 738.101 755.266 737.29 754.891C736.492 754.516 735.881 754.002 735.458 753.349C735.035 752.684 734.823 751.934 734.823 751.1H737.345C737.345 751.45 737.442 751.795 737.635 752.134C737.829 752.46 738.137 752.726 738.56 752.932C738.996 753.138 739.564 753.24 740.266 753.24C740.894 753.24 741.421 753.15 741.844 752.968C742.267 752.787 742.582 752.551 742.787 752.261C742.993 751.958 743.096 751.62 743.096 751.245C743.096 750.773 742.896 750.398 742.497 750.12C742.098 749.83 741.481 749.648 740.646 749.576L739.485 749.485C738.216 749.376 737.2 748.983 736.438 748.306C735.688 747.617 735.313 746.71 735.313 745.585C735.313 744.738 735.512 744.013 735.912 743.408C736.311 742.791 736.867 742.319 737.581 741.993C738.306 741.654 739.153 741.485 740.12 741.485C741.124 741.485 741.989 741.66 742.715 742.011C743.44 742.362 744.003 742.858 744.402 743.499C744.801 744.127 745 744.871 745 745.73H742.479C742.479 745.367 742.388 745.034 742.207 744.732C742.037 744.418 741.777 744.17 741.427 743.988C741.088 743.795 740.653 743.698 740.12 743.698C739.612 743.698 739.189 743.783 738.851 743.952C738.512 744.121 738.258 744.351 738.089 744.641C737.919 744.932 737.835 745.246 737.835 745.585C737.835 745.996 737.986 746.359 738.288 746.673C738.59 746.976 739.068 747.151 739.721 747.199L740.882 747.308C741.826 747.381 742.654 747.58 743.368 747.907C744.081 748.233 744.632 748.675 745.019 749.231C745.418 749.788 745.617 750.459 745.617 751.245C745.617 752.079 745.4 752.817 744.964 753.458C744.529 754.087 743.906 754.577 743.096 754.928C742.297 755.278 741.354 755.454 740.266 755.454ZM752.181 755.454C751.335 755.454 750.591 755.309 749.95 755.018C749.321 754.728 748.795 754.341 748.372 753.857C747.96 753.361 747.646 752.811 747.428 752.206C747.223 751.602 747.12 750.985 747.12 750.356V750.011C747.12 749.358 747.223 748.729 747.428 748.125C747.646 747.508 747.96 746.964 748.372 746.492C748.795 746.008 749.315 745.627 749.932 745.349C750.549 745.059 751.262 744.914 752.072 744.914C753.137 744.914 754.026 745.149 754.739 745.621C755.465 746.081 756.009 746.691 756.372 747.453C756.735 748.203 756.916 749.014 756.916 749.884V750.791H748.19V749.249H755.338L754.558 750.011C754.558 749.382 754.467 748.844 754.286 748.397C754.104 747.949 753.826 747.605 753.451 747.363C753.088 747.121 752.629 747 752.072 747C751.516 747 751.044 747.127 750.657 747.381C750.27 747.635 749.974 748.004 749.768 748.487C749.575 748.959 749.478 749.528 749.478 750.193C749.478 750.81 749.575 751.36 749.768 751.844C749.962 752.315 750.258 752.69 750.657 752.968C751.057 753.234 751.564 753.367 752.181 753.367C752.798 753.367 753.3 753.246 753.687 753.005C754.074 752.751 754.322 752.442 754.431 752.079H756.753C756.608 752.757 756.33 753.349 755.918 753.857C755.507 754.365 754.981 754.758 754.34 755.036C753.711 755.315 752.992 755.454 752.181 755.454ZM763.395 755.454C762.536 755.454 761.792 755.309 761.163 755.018C760.547 754.728 760.027 754.341 759.603 753.857C759.192 753.373 758.884 752.829 758.678 752.225C758.472 751.62 758.37 751.003 758.37 750.374V750.029C758.37 749.364 758.472 748.729 758.678 748.125C758.896 747.508 759.216 746.964 759.64 746.492C760.063 746.008 760.583 745.627 761.2 745.349C761.829 745.059 762.554 744.914 763.377 744.914C764.235 744.914 765.003 745.083 765.681 745.422C766.358 745.748 766.896 746.208 767.295 746.8C767.706 747.393 767.936 748.082 767.985 748.868H765.535C765.475 748.36 765.257 747.937 764.882 747.598C764.52 747.26 764.018 747.091 763.377 747.091C762.82 747.091 762.355 747.224 761.98 747.49C761.617 747.756 761.345 748.125 761.163 748.596C760.982 749.056 760.891 749.588 760.891 750.193C760.891 750.773 760.976 751.299 761.145 751.771C761.327 752.243 761.599 752.612 761.962 752.878C762.337 753.144 762.814 753.277 763.395 753.277C763.83 753.277 764.205 753.198 764.52 753.041C764.834 752.884 765.082 752.666 765.263 752.388C765.457 752.11 765.578 751.795 765.626 751.444H768.075C768.027 752.243 767.791 752.944 767.368 753.549C766.957 754.141 766.406 754.607 765.717 754.946C765.04 755.284 764.266 755.454 763.395 755.454ZM773.452 755.417C772.315 755.417 771.432 755.042 770.803 754.293C770.186 753.543 769.878 752.43 769.878 750.955V745.24H772.399V751.172C772.399 751.777 772.569 752.261 772.907 752.624C773.246 752.974 773.705 753.15 774.286 753.15C774.867 753.15 775.338 752.962 775.701 752.587C776.076 752.212 776.263 751.704 776.263 751.063V745.24H778.785V755.109H776.79V750.918H776.989C776.989 751.91 776.862 752.739 776.608 753.404C776.354 754.069 775.973 754.571 775.465 754.909C774.957 755.248 774.322 755.417 773.56 755.417H773.452ZM781.682 755.109V745.258H783.677V749.431H783.623C783.623 748.016 783.925 746.945 784.53 746.22C785.135 745.494 786.024 745.131 787.197 745.131H787.56V747.326H786.87C786.024 747.326 785.364 747.556 784.893 748.016C784.433 748.463 784.203 749.116 784.203 749.975V755.109H781.682ZM789.718 755.109V745.258H792.24V755.109H789.718ZM788.339 747.145V745.258H792.24V747.145H788.339ZM790.643 744.079C790.148 744.079 789.779 743.952 789.537 743.698C789.307 743.432 789.192 743.099 789.192 742.7C789.192 742.301 789.307 741.975 789.537 741.721C789.779 741.467 790.148 741.34 790.643 741.34C791.139 741.34 791.502 741.467 791.732 741.721C791.962 741.975 792.077 742.301 792.077 742.7C792.077 743.099 791.962 743.432 791.732 743.698C791.502 743.952 791.139 744.079 790.643 744.079ZM799.427 755.236C798.52 755.236 797.77 755.121 797.178 754.891C796.597 754.649 796.162 754.25 795.872 753.694C795.581 753.126 795.436 752.364 795.436 751.408L795.454 742.483H797.813L797.795 751.571C797.795 752.055 797.922 752.43 798.176 752.696C798.442 752.95 798.817 753.077 799.3 753.077H800.842V755.236H799.427ZM793.876 747.109V745.258H800.842V747.109H793.876ZM802.669 758.991V756.832H804.519C804.87 756.832 805.16 756.784 805.39 756.687C805.632 756.603 805.831 756.458 805.988 756.252C806.146 756.058 806.267 755.786 806.351 755.436L809 745.258H811.413L808.492 755.98C808.299 756.718 808.026 757.304 807.676 757.74C807.325 758.187 806.871 758.507 806.315 758.701C805.771 758.895 805.094 758.991 804.283 758.991H802.669ZM805.735 754.891V752.896H807.839V754.891H805.735ZM804.882 754.891L801.689 745.258H804.229L807.258 754.891H804.882Z" fill="#6B7280"/>
<defs>
<filter id="filter0_d_5963_184" x="0.531616" y="0.349966" width="1545.26" height="1541.27" filterUnits="userSpaceOnUse" color-interpolation-filters="sRGB">
<feFlood flood-opacity="0" result="BackgroundImageFix"/>
<feColorMatrix in="SourceAlpha" type="matrix" values="0 0 0 0 0 0 0 0 0 0 0 0 0 0 0 0 0 0 127 0" result="hardAlpha"/>
<feOffset dy="10.8183"/>
<feGaussianBlur stdDeviation="297.234"/>
<feComposite in2="hardAlpha" operator="out"/>
<feColorMatrix type="matrix" values="0 0 0 0 0 0 0 0 0 0 0 0 0 0 0 0 0 0 0.17 0"/>
<feBlend mode="normal" in2="BackgroundImageFix" result="effect1_dropShadow_5963_184"/>
<feBlend mode="normal" in="SourceGraphic" in2="effect1_dropShadow_5963_184" result="shape"/>
</filter>
<filter id="filter1_i_5963_184" x="639.523" y="626.531" width="267.274" height="268.889" filterUnits="userSpaceOnUse" color-interpolation-filters="sRGB">
<feFlood flood-opacity="0" result="BackgroundImageFix"/>
<feBlend mode="normal" in="SourceGraphic" in2="BackgroundImageFix" result="shape"/>
<feColorMatrix in="SourceAlpha" type="matrix" values="0 0 0 0 0 0 0 0 0 0 0 0 0 0 0 0 0 0 127 0" result="hardAlpha"/>
<feOffset dy="1.61565"/>
<feGaussianBlur stdDeviation="0.807825"/>
<feComposite in2="hardAlpha" operator="arithmetic" k2="-1" k3="1"/>
<feColorMatrix type="matrix" values="0 0 0 0 0.645833 0 0 0 0 0.645833 0 0 0 0 0.645833 0 0 0 0.04 0"/>
<feBlend mode="normal" in2="shape" result="effect1_innerShadow_5963_184"/>
</filter>
<filter id="filter2_i_5963_184" x="664.58" y="651.588" width="217.16" height="218.775" filterUnits="userSpaceOnUse" color-interpolation-filters="sRGB">
<feFlood flood-opacity="0" result="BackgroundImageFix"/>
<feBlend mode="normal" in="SourceGraphic" in2="BackgroundImageFix" result="shape"/>
<feColorMatrix in="SourceAlpha" type="matrix" values="0 0 0 0 0 0 0 0 0 0 0 0 0 0 0 0 0 0 127 0" result="hardAlpha"/>
<feOffset dy="1.61565"/>
<feGaussianBlur stdDeviation="0.807825"/>
<feComposite in2="hardAlpha" operator="arithmetic" k2="-1" k3="1"/>
<feColorMatrix type="matrix" values="0 0 0 0 0.645833 0 0 0 0 0.645833 0 0 0 0 0.645833 0 0 0 0.04 0"/>
<feBlend mode="normal" in2="shape" result="effect1_innerShadow_5963_184"/>
</filter>
<filter id="filter3_i_5963_184" x="689.637" y="676.644" width="167.046" height="168.662" filterUnits="userSpaceOnUse" color-interpolation-filters="sRGB">
<feFlood flood-opacity="0" result="BackgroundImageFix"/>
<feBlend mode="normal" in="SourceGraphic" in2="BackgroundImageFix" result="shape"/>
<feColorMatrix in="SourceAlpha" type="matrix" values="0 0 0 0 0 0 0 0 0 0 0 0 0 0 0 0 0 0 127 0" result="hardAlpha"/>
<feOffset dy="1.61565"/>
<feGaussianBlur stdDeviation="0.807825"/>
<feComposite in2="hardAlpha" operator="arithmetic" k2="-1" k3="1"/>
<feColorMatrix type="matrix" values="0 0 0 0 0.645833 0 0 0 0 0.645833 0 0 0 0 0.645833 0 0 0 0.04 0"/>
<feBlend mode="normal" in2="shape" result="effect1_innerShadow_5963_184"/>
</filter>
<filter id="filter4_d_5963_184" x="637.908" y="627.156" width="270.505" height="268.264" filterUnits="userSpaceOnUse" color-interpolation-filters="sRGB">
<feFlood flood-opacity="0" result="BackgroundImageFix"/>
<feColorMatrix in="SourceAlpha" type="matrix" values="0 0 0 0 0 0 0 0 0 0 0 0 0 0 0 0 0 0 127 0" result="hardAlpha"/>
<feOffset/>
<feGaussianBlur stdDeviation="0.807825"/>
<feComposite in2="hardAlpha" operator="out"/>
<feColorMatrix type="matrix" values="0 0 0 0 0.0306944 0 0 0 0 0.0816408 0 0 0 0 0.141667 0 0 0 0.2 0"/>
<feBlend mode="normal" in2="BackgroundImageFix" result="effect1_dropShadow_5963_184"/>
<feBlend mode="normal" in="SourceGraphic" in2="effect1_dropShadow_5963_184" result="shape"/>
</filter>
<filter id="filter5_d_5963_184" x="662.964" y="649.972" width="220.391" height="220.391" filterUnits="userSpaceOnUse" color-interpolation-filters="sRGB">
<feFlood flood-opacity="0" result="BackgroundImageFix"/>
<feColorMatrix in="SourceAlpha" type="matrix" values="0 0 0 0 0 0 0 0 0 0 0 0 0 0 0 0 0 0 127 0" result="hardAlpha"/>
<feOffset/>
<feGaussianBlur stdDeviation="0.807825"/>
<feComposite in2="hardAlpha" operator="out"/>
<feColorMatrix type="matrix" values="0 0 0 0 0.0306944 0 0 0 0 0.0816408 0 0 0 0 0.141667 0 0 0 0.2 0"/>
<feBlend mode="normal" in2="BackgroundImageFix" result="effect1_dropShadow_5963_184"/>
<feBlend mode="normal" in="SourceGraphic" in2="effect1_dropShadow_5963_184" result="shape"/>
</filter>
<filter id="filter6_d_5963_184" x="688.022" y="741.49" width="170.277" height="102.867" filterUnits="userSpaceOnUse" color-interpolation-filters="sRGB">
<feFlood flood-opacity="0" result="BackgroundImageFix"/>
<feColorMatrix in="SourceAlpha" type="matrix" values="0 0 0 0 0 0 0 0 0 0 0 0 0 0 0 0 0 0 127 0" result="hardAlpha"/>
<feOffset/>
<feGaussianBlur stdDeviation="0.807825"/>
<feComposite in2="hardAlpha" operator="out"/>
<feColorMatrix type="matrix" values="0 0 0 0 0.0306944 0 0 0 0 0.0816408 0 0 0 0 0.141667 0 0 0 0.2 0"/>
<feBlend mode="normal" in2="BackgroundImageFix" result="effect1_dropShadow_5963_184"/>
<feBlend mode="normal" in="SourceGraphic" in2="effect1_dropShadow_5963_184" result="shape"/>
</filter>
<linearGradient id="paint0_linear_5963_184" x1="607.517" y1="937.602" x2="621.47" y2="697.949" gradientUnits="userSpaceOnUse">
<stop stop-color="#FFF5BE"/>
<stop offset="1" stop-color="white"/>
</linearGradient>
</defs>
</svg>
