<svg width="271" height="269" viewBox="0 0 271 269" fill="none" xmlns="http://www.w3.org/2000/svg">
<g filter="url(#filter0_i_442_7503)">
<path d="M261.82 133.637C261.82 150.258 258.546 166.716 252.186 182.072C245.825 197.428 236.502 211.381 224.749 223.134C212.996 234.887 199.043 244.21 183.688 250.571C168.332 256.931 151.873 260.205 135.252 260.205C118.631 260.205 102.172 256.931 86.8163 250.571C71.4604 244.21 57.5076 234.887 45.7546 223.134C34.0017 211.381 24.6787 197.428 18.3181 182.072C11.9574 166.716 8.68364 150.258 8.68364 133.637C8.68364 117.016 11.9574 100.557 18.3181 85.2012C24.6787 69.8452 34.0017 55.8924 45.7546 44.1395C57.5076 32.3865 71.4604 23.0635 86.8164 16.7029C102.172 10.3422 118.631 7.06846 135.252 7.06847C151.873 7.06847 168.332 10.3423 183.688 16.7029C199.044 23.0636 212.996 32.3865 224.749 44.1395C236.502 55.8924 245.825 69.8452 252.186 85.2012C258.546 100.557 261.82 117.016 261.82 133.637L261.82 133.637Z" stroke="#F1F3F7" stroke-width="14.1369" stroke-linecap="round" stroke-linejoin="round"/>
</g>
<g filter="url(#filter1_i_442_7503)">
<path d="M236.763 133.637C236.763 146.967 234.137 160.168 229.036 172.483C223.934 184.799 216.457 195.99 207.031 205.416C197.604 214.842 186.414 222.32 174.098 227.421C161.782 232.522 148.582 235.148 135.251 235.148C121.921 235.148 108.72 232.522 96.4045 227.421C84.0885 222.32 72.898 214.842 63.4718 205.416C54.0456 195.99 46.5683 184.799 41.4669 172.483C36.3655 160.168 33.7398 146.967 33.7398 133.637C33.7398 120.306 36.3655 107.106 41.4669 94.79C46.5683 82.4741 54.0456 71.2836 63.4718 61.8573C72.898 52.4311 84.0885 44.9539 96.4045 39.8524C108.72 34.751 121.921 32.1253 135.251 32.1254C148.582 32.1254 161.782 34.751 174.098 39.8525C186.414 44.9539 197.604 52.4312 207.031 61.8574C216.457 71.2836 223.934 82.4741 229.036 94.79C234.137 107.106 236.763 120.306 236.763 133.637L236.763 133.637Z" stroke="#F1F3F7" stroke-width="14.1369" stroke-linecap="round" stroke-linejoin="round"/>
</g>
<g filter="url(#filter2_i_442_7503)">
<path d="M211.706 133.636C211.706 143.676 209.729 153.618 205.887 162.894C202.044 172.17 196.413 180.598 189.313 187.698C182.214 194.797 173.786 200.429 164.51 204.271C155.234 208.113 145.292 210.091 135.252 210.091C125.212 210.091 115.27 208.113 105.994 204.271C96.7182 200.429 88.2899 194.797 81.1904 187.698C74.091 180.598 68.4594 172.17 64.6172 162.894C60.775 153.618 58.7974 143.676 58.7974 133.636C58.7974 123.596 60.775 113.654 64.6172 104.378C68.4594 95.1025 74.091 86.6742 81.1904 79.5747C88.2899 72.4753 96.7182 66.8437 105.994 63.0015C115.27 59.1593 125.212 57.1817 135.252 57.1817C145.292 57.1817 155.234 59.1593 164.51 63.0015C173.786 66.8437 182.214 72.4753 189.313 79.5748C196.413 86.6742 202.044 95.1025 205.887 104.378C209.729 113.654 211.706 123.596 211.706 133.636L211.706 133.636Z" stroke="#F1F3F7" stroke-width="14.1369" stroke-linecap="round" stroke-linejoin="round"/>
</g>
<g filter="url(#filter3_d_442_7503)">
<path d="M261.821 133.637C261.821 157.655 254.987 181.177 242.118 201.455C229.248 221.734 210.875 237.933 189.143 248.159C167.411 258.385 143.218 262.217 119.389 259.207C95.5608 256.197 73.0808 246.469 54.5748 231.159C36.0687 215.85 22.3007 195.591 14.8788 172.749C7.45692 149.906 6.68752 125.424 12.6605 102.161C18.6335 78.8973 31.1022 57.8138 48.6105 41.3725C66.1187 24.9311 87.9435 13.8108 111.536 9.31034" stroke="#FFD912" stroke-width="14.1369" stroke-linecap="round" stroke-linejoin="round"/>
</g>
<g filter="url(#filter4_d_442_7503)">
<path d="M236.763 133.636C236.763 155.891 229.449 177.53 215.947 195.221C202.445 212.913 183.504 225.677 162.037 231.55C140.571 237.422 117.77 236.078 97.1422 227.723C76.5149 219.368 59.2048 204.466 47.8761 185.31C36.5473 166.154 31.8276 143.806 34.4434 121.705C37.0592 99.604 46.8656 78.9752 62.3532 62.9932C77.8408 47.0112 98.1515 36.5617 120.159 33.253C142.167 29.9443 164.652 33.9597 184.155 44.6812" stroke="#EBDC8C" stroke-width="14.1369" stroke-linecap="round" stroke-linejoin="round"/>
</g>
<g filter="url(#filter5_d_442_7503)">
<path d="M211.707 133.162C211.707 143.536 209.569 153.8 205.424 163.323C201.28 172.847 195.216 181.427 187.603 188.535C179.991 195.643 170.993 201.126 161.162 204.645C151.331 208.165 140.879 209.644 130.449 208.992C120.019 208.339 109.836 205.569 100.528 200.853C91.2198 196.137 82.9851 189.577 76.3302 181.578C69.6754 173.579 64.7414 164.312 61.8302 154.349C58.9191 144.386 58.0921 133.936 59.3998 123.644" stroke="#FFF5BE" stroke-width="14.1369" stroke-linecap="round" stroke-linejoin="round"/>
</g>
<path d="M113.93 146.228V135.908H115.937V146.228H113.93ZM115.654 146.228V144.461H120.108V146.228H115.654ZM124.941 146.497C124.281 146.497 123.701 146.384 123.202 146.157C122.712 145.931 122.302 145.63 121.972 145.253C121.651 144.866 121.406 144.437 121.237 143.966C121.077 143.495 120.996 143.014 120.996 142.524V142.256C120.996 141.747 121.077 141.257 121.237 140.785C121.406 140.305 121.651 139.881 121.972 139.513C122.302 139.136 122.707 138.839 123.188 138.622C123.668 138.396 124.224 138.283 124.856 138.283C125.685 138.283 126.378 138.467 126.934 138.834C127.499 139.193 127.923 139.668 128.206 140.262C128.489 140.847 128.63 141.478 128.63 142.157V142.863H121.83V141.662H127.4L126.793 142.256C126.793 141.765 126.722 141.346 126.58 140.997C126.439 140.649 126.222 140.38 125.93 140.192C125.647 140.003 125.289 139.909 124.856 139.909C124.422 139.909 124.055 140.008 123.753 140.206C123.452 140.404 123.221 140.691 123.06 141.068C122.91 141.436 122.834 141.879 122.834 142.397C122.834 142.878 122.91 143.306 123.06 143.683C123.211 144.051 123.442 144.343 123.753 144.56C124.064 144.767 124.46 144.871 124.941 144.871C125.421 144.871 125.812 144.777 126.114 144.588C126.416 144.39 126.609 144.15 126.694 143.867H128.503C128.39 144.395 128.173 144.857 127.853 145.253C127.532 145.648 127.122 145.955 126.623 146.171C126.133 146.388 125.572 146.497 124.941 146.497ZM131.744 146.228L129.341 138.552H131.362L133.666 146.228H131.744ZM132.323 146.228V144.616H134.402V146.228H132.323ZM133.101 146.228L135.08 138.552H136.974L134.896 146.228H133.101ZM141.728 146.497C141.068 146.497 140.489 146.384 139.989 146.157C139.499 145.931 139.089 145.63 138.759 145.253C138.439 144.866 138.194 144.437 138.024 143.966C137.864 143.495 137.784 143.014 137.784 142.524V142.256C137.784 141.747 137.864 141.257 138.024 140.785C138.194 140.305 138.439 139.881 138.759 139.513C139.089 139.136 139.495 138.839 139.975 138.622C140.456 138.396 141.012 138.283 141.643 138.283C142.473 138.283 143.165 138.467 143.722 138.834C144.287 139.193 144.711 139.668 144.994 140.262C145.277 140.847 145.418 141.478 145.418 142.157V142.863H138.618V141.662H144.188L143.58 142.256C143.58 141.765 143.509 141.346 143.368 140.997C143.227 140.649 143.01 140.38 142.718 140.192C142.435 140.003 142.077 139.909 141.643 139.909C141.21 139.909 140.842 140.008 140.541 140.206C140.239 140.404 140.008 140.691 139.848 141.068C139.697 141.436 139.622 141.879 139.622 142.397C139.622 142.878 139.697 143.306 139.848 143.683C139.999 144.051 140.23 144.343 140.541 144.56C140.852 144.767 141.248 144.871 141.728 144.871C142.209 144.871 142.6 144.777 142.902 144.588C143.203 144.39 143.396 144.15 143.481 143.867H145.291C145.178 144.395 144.961 144.857 144.64 145.253C144.32 145.648 143.91 145.955 143.411 146.171C142.92 146.388 142.36 146.497 141.728 146.497ZM147.158 146.228V135.908H149.123V146.228H147.158ZM146.197 137.378V135.908H149.123V137.378H146.197ZM154.152 146.468C153.096 146.468 152.267 146.247 151.664 145.804C151.07 145.352 150.759 144.73 150.731 143.938H152.498C152.526 144.202 152.672 144.442 152.936 144.659C153.2 144.876 153.615 144.984 154.18 144.984C154.651 144.984 155.024 144.899 155.297 144.73C155.58 144.56 155.721 144.329 155.721 144.037C155.721 143.782 155.613 143.58 155.396 143.429C155.189 143.278 154.83 143.179 154.321 143.132L153.643 143.061C152.785 142.967 152.126 142.722 151.664 142.326C151.202 141.93 150.971 141.403 150.971 140.743C150.971 140.215 151.103 139.772 151.367 139.414C151.631 139.056 151.994 138.787 152.455 138.608C152.927 138.42 153.464 138.325 154.067 138.325C155.009 138.325 155.773 138.533 156.357 138.948C156.941 139.362 157.248 139.97 157.276 140.771H155.509C155.49 140.507 155.358 140.281 155.113 140.093C154.868 139.904 154.515 139.81 154.053 139.81C153.638 139.81 153.318 139.89 153.092 140.05C152.865 140.21 152.752 140.418 152.752 140.672C152.752 140.917 152.842 141.106 153.021 141.238C153.209 141.37 153.511 141.459 153.926 141.506L154.604 141.577C155.509 141.671 156.216 141.921 156.725 142.326C157.243 142.731 157.502 143.278 157.502 143.966C157.502 144.475 157.361 144.918 157.078 145.295C156.805 145.663 156.418 145.95 155.919 146.157C155.419 146.365 154.83 146.468 154.152 146.468Z" fill="#6B7280"/>
<path d="M102.357 128.923C101.184 128.923 100.192 128.735 99.3821 128.36C98.5839 127.985 97.9731 127.471 97.5498 126.818C97.1265 126.153 96.9149 125.403 96.9149 124.569H99.4365C99.4365 124.919 99.5333 125.264 99.7268 125.603C99.9203 125.929 100.229 126.195 100.652 126.401C101.087 126.607 101.656 126.709 102.357 126.709C102.986 126.709 103.512 126.619 103.936 126.437C104.359 126.256 104.673 126.02 104.879 125.73C105.085 125.427 105.187 125.089 105.187 124.714C105.187 124.242 104.988 123.867 104.589 123.589C104.19 123.299 103.573 123.117 102.738 123.045L101.577 122.954C100.307 122.845 99.2914 122.452 98.5294 121.775C97.7796 121.085 97.4047 120.178 97.4047 119.054C97.4047 118.207 97.6042 117.481 98.0033 116.877C98.4024 116.26 98.9588 115.788 99.6723 115.462C100.398 115.123 101.245 114.954 102.212 114.954C103.216 114.954 104.081 115.129 104.806 115.48C105.532 115.831 106.094 116.326 106.494 116.967C106.893 117.596 107.092 118.34 107.092 119.199H104.571C104.571 118.836 104.48 118.503 104.298 118.201C104.129 117.887 103.869 117.639 103.518 117.457C103.18 117.264 102.744 117.167 102.212 117.167C101.704 117.167 101.281 117.252 100.942 117.421C100.604 117.59 100.35 117.82 100.18 118.11C100.011 118.401 99.9263 118.715 99.9263 119.054C99.9263 119.465 100.077 119.828 100.38 120.142C100.682 120.444 101.16 120.62 101.813 120.668L102.974 120.777C103.917 120.85 104.746 121.049 105.459 121.376C106.173 121.702 106.723 122.144 107.11 122.7C107.509 123.256 107.709 123.928 107.709 124.714C107.709 125.548 107.491 126.286 107.056 126.927C106.62 127.556 105.998 128.046 105.187 128.396C104.389 128.747 103.446 128.923 102.357 128.923ZM114.273 128.923C113.426 128.923 112.683 128.777 112.042 128.487C111.413 128.197 110.887 127.81 110.463 127.326C110.052 126.83 109.738 126.28 109.52 125.675C109.314 125.071 109.212 124.454 109.212 123.825V123.48C109.212 122.827 109.314 122.198 109.52 121.593C109.738 120.977 110.052 120.432 110.463 119.961C110.887 119.477 111.407 119.096 112.024 118.818C112.64 118.528 113.354 118.382 114.164 118.382C115.228 118.382 116.117 118.618 116.831 119.09C117.557 119.55 118.101 120.16 118.464 120.922C118.827 121.672 119.008 122.482 119.008 123.353V124.26H110.282V122.718H117.43L116.65 123.48C116.65 122.851 116.559 122.313 116.377 121.866C116.196 121.418 115.918 121.073 115.543 120.832C115.18 120.59 114.721 120.469 114.164 120.469C113.608 120.469 113.136 120.596 112.749 120.85C112.362 121.104 112.066 121.473 111.86 121.956C111.667 122.428 111.57 122.996 111.57 123.662C111.57 124.278 111.667 124.829 111.86 125.312C112.054 125.784 112.35 126.159 112.749 126.437C113.148 126.703 113.656 126.836 114.273 126.836C114.89 126.836 115.392 126.715 115.779 126.473C116.166 126.22 116.414 125.911 116.523 125.548H118.845C118.7 126.226 118.421 126.818 118.01 127.326C117.599 127.834 117.073 128.227 116.432 128.505C115.803 128.783 115.083 128.923 114.273 128.923ZM125.487 128.923C124.628 128.923 123.884 128.777 123.255 128.487C122.638 128.197 122.118 127.81 121.695 127.326C121.284 126.842 120.975 126.298 120.77 125.693C120.564 125.089 120.461 124.472 120.461 123.843V123.498C120.461 122.833 120.564 122.198 120.77 121.593C120.987 120.977 121.308 120.432 121.731 119.961C122.155 119.477 122.675 119.096 123.291 118.818C123.92 118.528 124.646 118.382 125.468 118.382C126.327 118.382 127.095 118.552 127.772 118.89C128.45 119.217 128.988 119.677 129.387 120.269C129.798 120.862 130.028 121.551 130.076 122.337H127.627C127.567 121.829 127.349 121.406 126.974 121.067C126.611 120.729 126.109 120.559 125.468 120.559C124.912 120.559 124.446 120.692 124.072 120.959C123.709 121.225 123.437 121.593 123.255 122.065C123.074 122.525 122.983 123.057 122.983 123.662C122.983 124.242 123.068 124.768 123.237 125.24C123.418 125.712 123.691 126.08 124.053 126.346C124.428 126.613 124.906 126.746 125.487 126.746C125.922 126.746 126.297 126.667 126.611 126.51C126.926 126.353 127.174 126.135 127.355 125.857C127.549 125.579 127.67 125.264 127.718 124.913H130.167C130.119 125.712 129.883 126.413 129.459 127.018C129.048 127.61 128.498 128.076 127.809 128.415C127.131 128.753 126.357 128.923 125.487 128.923ZM135.543 128.886C134.406 128.886 133.523 128.511 132.895 127.762C132.278 127.012 131.969 125.899 131.969 124.424V118.709H134.491V124.641C134.491 125.246 134.66 125.73 134.999 126.093C135.338 126.443 135.797 126.619 136.378 126.619C136.958 126.619 137.43 126.431 137.793 126.056C138.168 125.681 138.355 125.173 138.355 124.532V118.709H140.877V128.578H138.881V124.387H139.081C139.081 125.379 138.954 126.207 138.7 126.873C138.446 127.538 138.065 128.04 137.557 128.378C137.049 128.717 136.414 128.886 135.652 128.886H135.543ZM143.773 128.578V118.727H145.769V122.9H145.715C145.715 121.485 146.017 120.414 146.622 119.689C147.226 118.963 148.115 118.6 149.288 118.6H149.651V120.795H148.962C148.115 120.795 147.456 121.025 146.984 121.485C146.525 121.932 146.295 122.585 146.295 123.444V128.578H143.773ZM151.81 128.578V118.727H154.332V128.578H151.81ZM150.431 120.614V118.727H154.332V120.614H150.431ZM152.735 117.548C152.239 117.548 151.87 117.421 151.629 117.167C151.399 116.901 151.284 116.568 151.284 116.169C151.284 115.77 151.399 115.444 151.629 115.19C151.87 114.936 152.239 114.809 152.735 114.809C153.231 114.809 153.594 114.936 153.824 115.19C154.053 115.444 154.168 115.77 154.168 116.169C154.168 116.568 154.053 116.901 153.824 117.167C153.594 117.421 153.231 117.548 152.735 117.548ZM161.519 128.705C160.612 128.705 159.862 128.59 159.27 128.36C158.689 128.118 158.254 127.719 157.963 127.163C157.673 126.594 157.528 125.832 157.528 124.877L157.546 115.951H159.905L159.886 125.04C159.886 125.524 160.013 125.899 160.267 126.165C160.533 126.419 160.908 126.546 161.392 126.546H162.934V128.705H161.519ZM155.968 120.578V118.727H162.934V120.578H155.968ZM164.76 132.46V130.301H166.611C166.962 130.301 167.252 130.253 167.482 130.156C167.723 130.072 167.923 129.926 168.08 129.721C168.237 129.527 168.358 129.255 168.443 128.904L171.092 118.727H173.505L170.584 129.449C170.39 130.186 170.118 130.773 169.767 131.208C169.417 131.656 168.963 131.976 168.407 132.17C167.863 132.363 167.185 132.46 166.375 132.46H164.76ZM167.826 128.36V126.365H169.931V128.36H167.826ZM166.974 128.36L163.781 118.727H166.321L169.35 128.36H166.974Z" fill="#6B7280"/>
<defs>
<filter id="filter0_i_442_7503" x="1.61517" y="0" width="267.274" height="268.889" filterUnits="userSpaceOnUse" color-interpolation-filters="sRGB">
<feFlood flood-opacity="0" result="BackgroundImageFix"/>
<feBlend mode="normal" in="SourceGraphic" in2="BackgroundImageFix" result="shape"/>
<feColorMatrix in="SourceAlpha" type="matrix" values="0 0 0 0 0 0 0 0 0 0 0 0 0 0 0 0 0 0 127 0" result="hardAlpha"/>
<feOffset dy="1.61565"/>
<feGaussianBlur stdDeviation="0.807825"/>
<feComposite in2="hardAlpha" operator="arithmetic" k2="-1" k3="1"/>
<feColorMatrix type="matrix" values="0 0 0 0 0.645833 0 0 0 0 0.645833 0 0 0 0 0.645833 0 0 0 0.04 0"/>
<feBlend mode="normal" in2="shape" result="effect1_innerShadow_442_7503"/>
</filter>
<filter id="filter1_i_442_7503" x="26.6713" y="25.0569" width="217.16" height="218.775" filterUnits="userSpaceOnUse" color-interpolation-filters="sRGB">
<feFlood flood-opacity="0" result="BackgroundImageFix"/>
<feBlend mode="normal" in="SourceGraphic" in2="BackgroundImageFix" result="shape"/>
<feColorMatrix in="SourceAlpha" type="matrix" values="0 0 0 0 0 0 0 0 0 0 0 0 0 0 0 0 0 0 127 0" result="hardAlpha"/>
<feOffset dy="1.61565"/>
<feGaussianBlur stdDeviation="0.807825"/>
<feComposite in2="hardAlpha" operator="arithmetic" k2="-1" k3="1"/>
<feColorMatrix type="matrix" values="0 0 0 0 0.645833 0 0 0 0 0.645833 0 0 0 0 0.645833 0 0 0 0.04 0"/>
<feBlend mode="normal" in2="shape" result="effect1_innerShadow_442_7503"/>
</filter>
<filter id="filter2_i_442_7503" x="51.7289" y="50.1133" width="167.046" height="168.662" filterUnits="userSpaceOnUse" color-interpolation-filters="sRGB">
<feFlood flood-opacity="0" result="BackgroundImageFix"/>
<feBlend mode="normal" in="SourceGraphic" in2="BackgroundImageFix" result="shape"/>
<feColorMatrix in="SourceAlpha" type="matrix" values="0 0 0 0 0 0 0 0 0 0 0 0 0 0 0 0 0 0 127 0" result="hardAlpha"/>
<feOffset dy="1.61565"/>
<feGaussianBlur stdDeviation="0.807825"/>
<feComposite in2="hardAlpha" operator="arithmetic" k2="-1" k3="1"/>
<feColorMatrix type="matrix" values="0 0 0 0 0.645833 0 0 0 0 0.645833 0 0 0 0 0.645833 0 0 0 0.04 0"/>
<feBlend mode="normal" in2="shape" result="effect1_innerShadow_442_7503"/>
</filter>
<filter id="filter3_d_442_7503" x="1.23978e-05" y="0.624951" width="270.505" height="268.264" filterUnits="userSpaceOnUse" color-interpolation-filters="sRGB">
<feFlood flood-opacity="0" result="BackgroundImageFix"/>
<feColorMatrix in="SourceAlpha" type="matrix" values="0 0 0 0 0 0 0 0 0 0 0 0 0 0 0 0 0 0 127 0" result="hardAlpha"/>
<feOffset/>
<feGaussianBlur stdDeviation="0.807825"/>
<feComposite in2="hardAlpha" operator="out"/>
<feColorMatrix type="matrix" values="0 0 0 0 0.0306944 0 0 0 0 0.0816408 0 0 0 0 0.141667 0 0 0 0.2 0"/>
<feBlend mode="normal" in2="BackgroundImageFix" result="effect1_dropShadow_442_7503"/>
<feBlend mode="normal" in="SourceGraphic" in2="effect1_dropShadow_442_7503" result="shape"/>
</filter>
<filter id="filter4_d_442_7503" x="25.0556" y="23.4406" width="220.391" height="220.391" filterUnits="userSpaceOnUse" color-interpolation-filters="sRGB">
<feFlood flood-opacity="0" result="BackgroundImageFix"/>
<feColorMatrix in="SourceAlpha" type="matrix" values="0 0 0 0 0 0 0 0 0 0 0 0 0 0 0 0 0 0 127 0" result="hardAlpha"/>
<feOffset/>
<feGaussianBlur stdDeviation="0.807825"/>
<feComposite in2="hardAlpha" operator="out"/>
<feColorMatrix type="matrix" values="0 0 0 0 0.0306944 0 0 0 0 0.0816408 0 0 0 0 0.141667 0 0 0 0.2 0"/>
<feBlend mode="normal" in2="BackgroundImageFix" result="effect1_dropShadow_442_7503"/>
<feBlend mode="normal" in="SourceGraphic" in2="effect1_dropShadow_442_7503" result="shape"/>
</filter>
<filter id="filter5_d_442_7503" x="50.1134" y="114.959" width="170.277" height="102.867" filterUnits="userSpaceOnUse" color-interpolation-filters="sRGB">
<feFlood flood-opacity="0" result="BackgroundImageFix"/>
<feColorMatrix in="SourceAlpha" type="matrix" values="0 0 0 0 0 0 0 0 0 0 0 0 0 0 0 0 0 0 127 0" result="hardAlpha"/>
<feOffset/>
<feGaussianBlur stdDeviation="0.807825"/>
<feComposite in2="hardAlpha" operator="out"/>
<feColorMatrix type="matrix" values="0 0 0 0 0.0306944 0 0 0 0 0.0816408 0 0 0 0 0.141667 0 0 0 0.2 0"/>
<feBlend mode="normal" in2="BackgroundImageFix" result="effect1_dropShadow_442_7503"/>
<feBlend mode="normal" in="SourceGraphic" in2="effect1_dropShadow_442_7503" result="shape"/>
</filter>
</defs>
</svg>
