<svg width="431" height="317" viewBox="0 0 431 317" fill="none" xmlns="http://www.w3.org/2000/svg">
<path d="M345.379 81.1759C346.065 81.8596 346.971 82.1878 347.85 82.1878C348.756 82.1878 349.634 81.8596 350.32 81.1759C363.661 67.8842 363.661 46.2783 350.32 32.9865C348.948 31.6191 346.724 31.6191 345.352 32.9865C343.979 34.354 343.979 36.5693 345.352 37.9367C355.948 48.4936 355.948 65.6962 345.352 76.2531C344.007 77.5932 344.007 79.8085 345.379 81.1759Z" fill="#5D7BAA"/>
<path d="M368.685 57.0541C368.685 68.3767 364.266 79.0155 356.223 87.0289C354.85 88.3963 354.85 90.6116 356.223 91.9791C356.909 92.6628 357.815 92.991 358.693 92.991C359.599 92.991 360.478 92.6628 361.164 91.9791C370.525 82.653 375.685 70.2638 375.685 57.0814C375.685 43.8991 370.525 31.5099 361.164 22.1838C359.791 20.8163 357.568 20.8163 356.195 22.1838C354.823 23.5513 354.823 25.7666 356.195 27.134C364.266 35.0926 368.685 45.7589 368.685 57.0541Z" fill="#5D7BAA"/>
<path d="M384.469 57.0544C384.469 72.5614 378.402 87.1659 367.395 98.133C366.022 99.5004 366.022 101.716 367.395 103.083C368.081 103.767 368.987 104.095 369.865 104.095C370.771 104.095 371.65 103.767 372.336 103.083C384.661 90.8034 391.469 74.4485 391.469 57.0544C391.469 39.6603 384.661 23.3328 372.336 11.0256C370.963 9.65813 368.74 9.65813 367.367 11.0256C365.995 12.3931 365.995 14.6084 367.367 15.9758C378.402 26.9702 384.469 41.5474 384.469 57.0544Z" fill="#5D7BAA"/>
<path d="M302.119 81.1779C302.805 81.8616 303.711 82.1898 304.589 82.1898C305.495 82.1898 306.373 81.8616 307.06 81.1779C308.432 79.8104 308.432 77.5951 307.06 76.2277C296.464 65.6708 296.464 48.4682 307.06 37.9114C308.432 36.5439 308.432 34.3286 307.06 32.9611C305.687 31.5937 303.464 31.5937 302.091 32.9611C288.778 46.2529 288.778 67.8861 302.119 81.1779Z" fill="#5D7BAA"/>
<path d="M291.273 91.9791C291.96 92.6628 292.865 92.991 293.744 92.991C294.622 92.991 295.528 92.6628 296.214 91.9791C297.587 90.6116 297.587 88.3963 296.214 87.0289C288.171 79.0156 283.752 68.3767 283.752 57.0541C283.752 45.7315 288.171 35.0927 296.214 27.0793C297.587 25.7119 297.587 23.4966 296.214 22.1291C294.842 20.7616 292.618 20.7616 291.246 22.1291C281.885 31.4552 276.725 43.8444 276.725 57.0268C276.752 70.2638 281.913 82.653 291.273 91.9791Z" fill="#5D7BAA"/>
<path d="M282.6 104.122C283.505 104.122 284.384 103.794 285.07 103.111C286.443 101.743 286.443 99.5278 285.07 98.1603C262.341 75.5151 262.341 38.6483 285.07 16.0032C286.443 14.6357 286.443 12.4204 285.07 11.0529C283.698 9.68548 281.474 9.68548 280.102 11.0529C254.628 36.433 254.628 77.7304 280.102 103.111C280.788 103.767 281.694 104.122 282.6 104.122Z" fill="#5D7BAA"/>
<path d="M383.18 293.843L374.341 253.558C374.341 253.53 360.423 190.217 360.423 190.217C360.451 189.998 360.478 189.779 360.478 189.56C360.478 188.822 360.231 188.138 359.819 187.564L329.02 47.3443C328.663 45.758 327.263 44.6367 325.644 44.6367C324.024 44.6367 322.624 45.758 322.267 47.3443L301.762 140.715L291.166 188.877C291.166 188.904 268.107 293.843 268.107 293.843C267.696 295.703 268.876 297.535 270.743 297.918C270.99 297.973 271.237 298 271.484 298C273.076 298 274.503 296.906 274.86 295.293L283.123 257.66H368.192L376.454 295.293C376.866 297.152 378.705 298.328 380.545 297.918C382.411 297.535 383.592 295.703 383.18 293.843ZM307.911 144.844H343.377L352.463 186.142H298.824L307.911 144.844ZM325.644 64.1367L341.867 137.98H309.42L325.644 64.1367ZM284.633 250.823L297.342 193.034H353.972L366.682 250.823H284.633Z" fill="#5D7BAA"/>
<path d="M325.642 75.0233C336.164 75.0233 344.693 66.5254 344.693 56.0429C344.693 45.5603 336.164 37.0625 325.642 37.0625C315.121 37.0625 306.592 45.5603 306.592 56.0429C306.592 66.5254 315.121 75.0233 325.642 75.0233Z" fill="#5D7BAA"/>
<path d="M261 261.828C261 261.834 261 261.841 261 261.847C261.006 262.727 261.045 263.6 261.113 264.462C261.26 266.338 261.55 268.174 261.971 269.958C262.215 270.994 263.204 271.681 264.264 271.553L265.528 271.402C266.489 271.286 267.404 271.844 267.742 272.75C268.829 275.649 270.323 278.333 272.146 280.741C272.716 281.494 272.699 282.539 272.115 283.282L271.275 284.349C270.627 285.174 270.69 286.351 271.423 287.101C272.082 287.774 272.766 288.422 273.477 289.044C274.819 290.22 276.249 291.3 277.754 292.273C278.663 292.86 279.872 292.654 280.539 291.806L281.269 290.878C281.876 290.106 282.94 289.859 283.825 290.284C286.947 291.784 290.337 292.789 293.878 293.207C294.836 293.32 295.589 294.077 295.704 295.032L295.857 296.302C295.982 297.344 296.87 298.133 297.923 298.125C297.929 298.125 297.935 298.125 297.942 298.125C298.823 298.119 299.697 298.081 300.563 298.013C302.444 297.866 304.284 297.577 306.073 297.158C307.111 296.914 307.8 295.929 307.672 294.871L307.52 293.612C307.404 292.654 307.96 291.742 308.865 291.404C311.987 290.241 314.857 288.611 317.404 286.608C318.165 286.01 319.235 286.007 319.997 286.604L320.995 287.385C321.833 288.039 323.031 287.969 323.778 287.213C324.39 286.593 324.981 285.949 325.548 285.287C326.752 283.878 327.853 282.378 328.835 280.795C329.397 279.889 329.186 278.707 328.346 278.049L327.345 277.266C326.584 276.669 326.332 275.632 326.733 274.753C328.078 271.808 328.984 268.638 329.377 265.337C329.491 264.379 330.247 263.625 331.206 263.509L332.479 263.356C333.524 263.231 334.315 262.345 334.307 261.296C334.307 261.289 334.307 261.283 334.307 261.277C334.301 260.397 334.261 259.524 334.194 258.662C334.047 256.785 333.757 254.951 333.337 253.167C333.093 252.131 332.105 251.444 331.045 251.572L329.781 251.724C328.824 251.839 327.908 251.288 327.569 250.388C326.321 247.057 324.537 244.011 322.335 241.343C321.711 240.585 321.698 239.496 322.306 238.724L323.034 237.799C323.703 236.95 323.613 235.731 322.827 234.989C322.246 234.442 321.648 233.913 321.032 233.403C319.549 232.177 317.966 231.063 316.3 230.079C315.393 229.545 314.229 229.76 313.579 230.587L312.735 231.658C312.151 232.402 311.136 232.666 310.267 232.291C307.49 231.096 304.522 230.287 301.44 229.921C300.479 229.807 299.718 229.054 299.602 228.095L299.448 226.823C299.323 225.781 298.437 224.992 297.384 225C297.378 225 297.372 225 297.365 225C296.484 225.006 295.61 225.044 294.744 225.113C292.863 225.259 291.024 225.548 289.234 225.969C288.196 226.212 287.507 227.198 287.635 228.256L287.787 229.515C287.903 230.473 287.347 231.385 286.442 231.722C283.32 232.886 280.448 234.517 277.903 236.52C277.142 237.118 276.072 237.121 275.31 236.525L274.312 235.744C273.474 235.087 272.275 235.159 271.529 235.915C270.917 236.536 270.326 237.179 269.759 237.842C268.553 239.251 267.454 240.752 266.472 242.333C265.91 243.239 266.121 244.422 266.962 245.079L267.963 245.862C268.724 246.459 268.976 247.496 268.575 248.376C267.232 251.321 266.325 254.489 265.933 257.791C265.819 258.749 265.063 259.504 264.104 259.619L262.829 259.772C261.783 259.894 260.992 260.78 261 261.828ZM288.518 261.631C288.517 261.477 288.52 261.32 288.526 261.167C288.581 259.852 288.918 258.608 289.475 257.495C289.528 257.385 289.586 257.277 289.644 257.171C289.943 256.628 290.299 256.118 290.7 255.648C290.943 255.364 291.201 255.097 291.477 254.845C292.41 253.99 293.522 253.327 294.751 252.917C294.867 252.878 294.983 252.842 295.102 252.808C295.688 252.638 296.299 252.525 296.928 252.477C297.144 252.459 297.362 252.45 297.581 252.449C297.736 252.447 297.892 252.45 298.047 252.456C299.32 252.509 300.524 252.823 301.611 253.345C301.707 253.391 301.804 253.439 301.898 253.489C302.463 253.786 302.992 254.139 303.479 254.542C303.755 254.77 304.017 255.015 304.264 255.273C305.179 256.229 305.887 257.384 306.317 258.668C306.356 258.783 306.392 258.899 306.427 259.016C306.596 259.6 306.71 260.21 306.759 260.838C306.775 261.053 306.784 261.271 306.785 261.489C306.787 261.644 306.784 261.8 306.778 261.953C306.721 263.269 306.386 264.512 305.829 265.626C305.775 265.735 305.717 265.843 305.659 265.949C305.359 266.493 305.005 267.004 304.604 267.473C304.361 267.755 304.103 268.024 303.827 268.276C302.894 269.13 301.782 269.794 300.552 270.203C300.436 270.242 300.321 270.278 300.203 270.313C299.616 270.483 299.005 270.596 298.377 270.644C298.161 270.661 297.943 270.67 297.724 270.672C297.567 270.674 297.412 270.67 297.257 270.664C295.893 270.608 294.606 270.252 293.459 269.66C293.337 269.596 293.217 269.532 293.099 269.463C292.573 269.161 292.08 268.807 291.627 268.41C291.334 268.154 291.059 267.88 290.803 267.59C290.003 266.687 289.38 265.623 288.987 264.454C288.947 264.339 288.911 264.222 288.879 264.104C288.708 263.52 288.595 262.911 288.545 262.283C288.531 262.069 288.521 261.852 288.518 261.631Z" fill="#FFD912"/>
<path d="M283.557 261.672C283.56 262.011 283.574 262.347 283.601 262.678C283.676 263.646 283.851 264.587 284.115 265.488C284.166 265.67 284.223 265.851 284.282 266.027C284.888 267.832 285.85 269.472 287.084 270.866C287.48 271.314 287.905 271.737 288.356 272.131C289.056 272.745 289.815 273.29 290.628 273.756C290.811 273.86 290.996 273.962 291.186 274.059C292.954 274.973 294.941 275.521 297.046 275.61C297.284 275.621 297.524 275.624 297.765 275.623C298.105 275.619 298.44 275.607 298.773 275.579C299.744 275.504 300.687 275.33 301.591 275.068C301.773 275.015 301.953 274.96 302.131 274.899C304.026 274.267 305.743 273.243 307.182 271.925C307.606 271.536 308.007 271.122 308.382 270.686C309 269.963 309.547 269.175 310.012 268.336C310.103 268.171 310.19 268.004 310.275 267.836C311.135 266.116 311.653 264.198 311.739 262.17C311.75 261.933 311.753 261.694 311.752 261.453C311.749 261.114 311.735 260.778 311.708 260.447C311.633 259.478 311.457 258.538 311.196 257.637C311.143 257.455 311.086 257.276 311.027 257.098C310.363 255.118 309.27 253.336 307.858 251.861C307.478 251.461 307.072 251.085 306.646 250.733C305.895 250.113 305.077 249.566 304.206 249.11C304.061 249.033 303.912 248.958 303.765 248.888C302.087 248.082 300.227 247.598 298.263 247.515C298.025 247.504 297.785 247.501 297.546 247.502C297.206 247.505 296.869 247.518 296.537 247.546C295.566 247.621 294.623 247.794 293.718 248.057C293.536 248.11 293.356 248.165 293.178 248.226C291.283 248.858 289.566 249.883 288.127 251.2C287.703 251.589 287.302 252.003 286.927 252.441C286.307 253.164 285.761 253.951 285.297 254.79C285.206 254.954 285.118 255.121 285.034 255.289C284.174 257.009 283.656 258.927 283.57 260.956C283.559 261.192 283.555 261.431 283.557 261.672ZM288.518 261.633C288.517 261.478 288.52 261.322 288.526 261.169C288.581 259.853 288.918 258.61 289.475 257.496C289.529 257.387 289.587 257.279 289.645 257.173C289.944 256.629 290.299 256.12 290.7 255.649C290.943 255.365 291.201 255.098 291.477 254.846C292.41 253.992 293.522 253.328 294.752 252.919C294.868 252.88 294.983 252.844 295.102 252.809C295.688 252.639 296.299 252.526 296.929 252.478C297.145 252.461 297.362 252.451 297.582 252.45C297.737 252.448 297.892 252.451 298.047 252.458C299.32 252.511 300.524 252.825 301.611 253.347C301.707 253.392 301.804 253.44 301.898 253.49C302.463 253.787 302.993 254.14 303.48 254.543C303.755 254.771 304.017 255.017 304.264 255.274C305.179 256.231 305.887 257.385 306.317 258.669C306.357 258.785 306.393 258.9 306.427 259.018C306.596 259.602 306.71 260.211 306.759 260.839C306.775 261.055 306.784 261.272 306.786 261.491C306.787 261.645 306.784 261.801 306.778 261.955C306.721 263.27 306.386 264.514 305.829 265.627C305.776 265.737 305.718 265.845 305.66 265.951C305.359 266.494 305.005 267.005 304.604 267.474C304.361 267.757 304.103 268.025 303.827 268.277C302.894 269.131 301.782 269.795 300.553 270.205C300.437 270.244 300.321 270.28 300.203 270.314C299.616 270.484 299.005 270.597 298.377 270.645C298.161 270.662 297.943 270.672 297.724 270.673C297.568 270.675 297.412 270.672 297.257 270.666C295.893 270.609 294.606 270.253 293.46 269.661C293.337 269.597 293.217 269.533 293.099 269.464C292.573 269.163 292.08 268.808 291.627 268.411C291.334 268.155 291.059 267.882 290.803 267.591C290.003 266.688 289.38 265.624 288.987 264.456C288.948 264.34 288.912 264.223 288.879 264.106C288.708 263.522 288.595 262.912 288.545 262.284C288.531 262.07 288.522 261.853 288.518 261.633Z" fill="#F9D86D"/>
<path d="M76.0007 74.8926C76.0007 74.9009 76.0007 74.9108 76.0007 74.9191C75.9941 76.1979 76.0339 77.4684 76.1169 78.724C76.2963 81.4556 76.6832 84.1292 77.2628 86.7315C77.5982 88.2423 79.023 89.2593 80.5657 89.0937L82.4057 88.8966C83.8072 88.7458 85.1257 89.5741 85.6023 90.8976C87.1301 95.1349 89.2524 99.0641 91.8595 102.599C92.6749 103.706 92.6317 105.225 91.7682 106.295L90.5277 107.832C89.5695 109.02 89.6376 110.732 90.6905 111.836C91.637 112.828 92.6217 113.782 93.6414 114.7C95.571 116.434 97.6301 118.033 99.8005 119.474C101.111 120.343 102.873 120.068 103.859 118.844L104.938 117.509C105.835 116.398 107.386 116.058 108.667 116.694C113.18 118.932 118.089 120.456 123.232 121.129C124.623 121.311 125.704 122.426 125.854 123.815L126.053 125.664C126.218 127.181 127.493 128.346 129.022 128.354C129.031 128.354 129.041 128.354 129.049 128.354C130.331 128.361 131.603 128.323 132.863 128.238C135.6 128.059 138.282 127.673 140.891 127.097C142.407 126.762 143.425 125.341 143.259 123.802L143.061 121.967C142.91 120.572 143.735 119.255 145.059 118.781C149.62 117.146 153.825 114.829 157.565 111.963C158.682 111.107 160.24 111.123 161.336 112.005L162.771 113.158C163.976 114.127 165.722 114.044 166.821 112.959C167.724 112.068 168.595 111.143 169.432 110.191C171.21 108.165 172.837 106.002 174.295 103.721C175.131 102.414 174.845 100.689 173.636 99.7168L172.195 98.5589C171.099 97.6777 170.752 96.1636 171.351 94.8931C173.362 90.6359 174.737 86.0441 175.37 81.2485C175.554 79.8587 176.667 78.7738 178.065 78.6247L179.92 78.4259C181.441 78.2619 182.608 76.9897 182.617 75.4641C182.617 75.4558 182.617 75.4459 182.617 75.4376C182.623 74.1588 182.584 72.8882 182.501 71.6326C182.321 68.9027 181.934 66.2275 181.356 63.6251C181.021 62.1127 179.596 61.0973 178.052 61.2629L176.212 61.4601C174.817 61.6092 173.495 60.7925 173.022 59.4756C171.268 54.6088 168.732 50.1462 165.577 46.2236C164.682 45.1105 164.686 43.5269 165.582 42.4154L166.658 41.0835C167.646 39.861 167.54 38.087 166.409 36.9937C165.576 36.187 164.715 35.4067 163.829 34.6547C161.695 32.8425 159.413 31.1959 157.007 29.7332C155.698 28.9381 154.003 29.2313 153.041 30.4207L151.794 31.9629C150.931 33.033 149.451 33.3991 148.194 32.8392C144.179 31.0502 139.878 29.8177 135.401 29.2313C134.004 29.0474 132.911 27.9393 132.76 26.5412L132.561 24.6892C132.397 23.1719 131.123 22.009 129.594 22.0007C129.585 22.0007 129.575 22.0007 129.567 22.0007C128.285 21.9941 127.013 22.0322 125.753 22.1167C123.014 22.2956 120.334 22.6816 117.725 23.2597C116.211 23.5943 115.191 25.0156 115.357 26.5544L115.555 28.3882C115.706 29.7829 114.881 31.0998 113.557 31.5736C108.995 33.2086 104.791 35.526 101.051 38.3917C99.9334 39.2481 98.3758 39.2316 97.2798 38.3503L95.845 37.1974C94.6394 36.2284 92.8941 36.3112 91.7931 37.3962C90.8897 38.2874 90.0196 39.2117 89.1826 40.1658C87.4025 42.1917 85.7751 44.3551 84.3187 46.6378C83.4851 47.9447 83.7707 49.6675 84.9796 50.6398L86.421 51.7978C87.517 52.679 87.8641 54.193 87.2646 55.4636C85.2553 59.7208 83.8803 64.3126 83.2476 69.1065C83.0649 70.4963 81.9507 71.5813 80.5524 71.7303L78.6942 71.9291C77.1748 72.0964 76.009 73.3669 76.0007 74.8926ZM116.025 75.1145C116.026 74.8893 116.031 74.6623 116.045 74.4404C116.149 72.5288 116.661 70.7265 117.494 69.1164C117.574 68.959 117.659 68.8033 117.747 68.6476C118.192 67.8624 118.718 67.1269 119.309 66.4528C119.666 66.0453 120.048 65.6593 120.454 65.2982C121.829 64.0724 123.456 63.1282 125.251 62.555C125.419 62.5003 125.59 62.4506 125.762 62.4026C126.618 62.1657 127.508 62.015 128.423 61.9537C128.737 61.9322 129.054 61.9222 129.374 61.9239C129.6 61.9256 129.826 61.9322 130.05 61.9454C131.9 62.0465 133.645 62.5235 135.218 63.3054C135.358 63.3733 135.495 63.4462 135.633 63.5191C136.45 63.9597 137.214 64.4848 137.915 65.0795C138.312 65.4174 138.687 65.7769 139.044 66.1579C140.358 67.5643 141.364 69.2572 141.967 71.1307C142.022 71.298 142.071 71.4686 142.119 71.6392C142.355 72.4923 142.508 73.3802 142.57 74.2946C142.589 74.6077 142.599 74.9241 142.598 75.2438C142.596 75.469 142.591 75.696 142.578 75.918C142.472 77.8312 141.962 79.6318 141.128 81.2419C141.048 81.3993 140.964 81.555 140.876 81.7107C140.429 82.4959 139.904 83.233 139.313 83.9072C138.956 84.3131 138.574 84.699 138.169 85.0601C136.794 86.2859 135.167 87.2302 133.371 87.8033C133.204 87.858 133.033 87.9076 132.862 87.9557C132.005 88.1926 131.115 88.3433 130.2 88.4046C129.886 88.4261 129.569 88.4361 129.25 88.4344C129.022 88.4328 128.796 88.4261 128.572 88.4129C126.589 88.3052 124.725 87.7635 123.067 86.8806C122.891 86.7862 122.717 86.6901 122.546 86.5874C121.787 86.1385 121.076 85.6151 120.424 85.0303C120.004 84.6527 119.608 84.2485 119.241 83.8227C118.094 82.4942 117.207 80.9355 116.657 79.2293C116.603 79.0603 116.553 78.8897 116.506 78.7191C116.269 77.866 116.116 76.9781 116.055 76.0637C116.033 75.749 116.023 75.4342 116.025 75.1145Z" fill="#FFD912"/>
<path d="M108.807 75.0803C108.805 75.5723 108.82 76.061 108.852 76.5447C108.943 77.9543 109.18 79.3243 109.546 80.6412C109.617 80.9062 109.697 81.1696 109.78 81.428C110.627 84.0635 111.995 86.4654 113.764 88.5162C114.332 89.1754 114.941 89.7983 115.59 90.3797C116.597 91.2842 117.693 92.0925 118.865 92.7849C119.129 92.9407 119.396 93.0914 119.67 93.2355C122.226 94.5971 125.106 95.432 128.164 95.5993C128.51 95.6192 128.859 95.6292 129.209 95.6308C129.702 95.6325 130.19 95.6192 130.677 95.5861C132.09 95.495 133.463 95.2597 134.784 94.8953C135.049 94.8224 135.312 94.7446 135.572 94.6601C138.341 93.7755 140.855 92.3178 142.974 90.4278C143.6 89.8712 144.189 89.2748 144.741 88.647C145.654 87.6068 146.464 86.4704 147.154 85.2595C147.29 85.021 147.419 84.7808 147.545 84.5373C148.829 82.0525 149.618 79.2713 149.781 76.3227C149.801 75.9782 149.811 75.6303 149.812 75.2808C149.814 74.7888 149.799 74.3001 149.767 73.8164C149.676 72.4068 149.439 71.0368 149.073 69.7199C149 69.4549 148.92 69.1932 148.837 68.9331C147.909 66.0425 146.353 63.4302 144.327 61.2586C143.781 60.6705 143.2 60.1156 142.585 59.5954C141.504 58.6794 140.325 57.8694 139.066 57.1885C138.855 57.0742 138.643 56.9633 138.427 56.8572C136.003 55.6546 133.306 54.9158 130.453 54.7601C130.107 54.7403 129.759 54.7303 129.41 54.7287C128.917 54.727 128.427 54.7403 127.944 54.7734C126.529 54.8645 125.157 55.0997 123.835 55.4641C123.57 55.537 123.307 55.6149 123.046 55.6994C120.278 56.5839 117.764 58.0416 115.645 59.9317C115.019 60.4883 114.43 61.0846 113.878 61.7141C112.963 62.7544 112.153 63.8891 111.465 65.1016C111.329 65.3385 111.2 65.5787 111.074 65.8222C109.79 68.3069 109.001 71.0882 108.838 74.0384C108.818 74.3829 108.808 74.7292 108.807 75.0803ZM116.024 75.1151C116.025 74.8898 116.03 74.6629 116.044 74.4409C116.148 72.5293 116.66 70.7271 117.493 69.117C117.573 68.9596 117.658 68.8039 117.746 68.6482C118.191 67.863 118.717 67.1275 119.308 66.4533C119.665 66.0458 120.047 65.6599 120.453 65.2988C121.828 64.0729 123.455 63.1287 125.25 62.5556C125.418 62.5009 125.589 62.4512 125.762 62.4032C126.617 62.1663 127.507 62.0156 128.422 61.9543C128.736 61.9327 129.053 61.9228 129.373 61.9245C129.599 61.9261 129.825 61.9327 130.049 61.946C131.899 62.047 133.644 62.5241 135.217 63.306C135.357 63.3739 135.494 63.4468 135.632 63.5197C136.449 63.9603 137.213 64.4854 137.914 65.0801C138.311 65.418 138.686 65.7775 139.043 66.1585C140.357 67.5648 141.363 69.2578 141.966 71.1313C142.021 71.2986 142.07 71.4692 142.119 71.6398C142.354 72.4929 142.507 73.3808 142.569 74.2952C142.589 74.6082 142.598 74.9246 142.597 75.2443C142.595 75.4696 142.59 75.6966 142.577 75.9185C142.471 77.8318 141.961 79.6324 141.127 81.2425C141.047 81.3999 140.963 81.5556 140.875 81.7113C140.428 82.4965 139.903 83.2336 139.312 83.9078C138.955 84.3136 138.573 84.6996 138.168 85.0607C136.793 86.2865 135.166 87.2307 133.37 87.8039C133.203 87.8585 133.032 87.9082 132.861 87.9563C132.004 88.1931 131.114 88.3439 130.199 88.4052C129.885 88.4267 129.568 88.4366 129.249 88.435C129.021 88.4333 128.796 88.4267 128.571 88.4135C126.589 88.3058 124.724 87.7641 123.066 86.8812C122.89 86.7868 122.716 86.6907 122.545 86.588C121.786 86.1391 121.075 85.6157 120.423 85.0309C120.003 84.6532 119.607 84.249 119.24 83.8233C118.093 82.4948 117.206 80.9361 116.656 79.2299C116.602 79.0609 116.552 78.8903 116.505 78.7197C116.268 77.8666 116.115 76.9787 116.054 76.0643C116.032 75.7496 116.022 75.4348 116.024 75.1151Z" fill="#F9D86D"/>
<path d="M154.402 97.771V151.41C154.402 153.802 152.441 155.76 150.044 155.76C147.646 155.76 145.684 153.802 145.684 151.41V135.402C146.297 134.55 146.661 133.507 146.661 132.383V116.798C146.661 115.674 146.297 114.631 145.684 113.779V97.771C145.684 96.5752 146.174 95.4882 146.965 94.6999C147.756 93.9115 148.846 93.4219 150.045 93.4219C152.441 93.423 154.402 95.3794 154.402 97.771Z" fill="#5D7BAA"/>
<path d="M283.233 148.571H287.46C288.829 148.571 289.949 147.454 289.949 146.088V140.423C289.949 139.057 288.829 137.939 287.46 137.939H283.233C281.864 137.939 280.744 139.057 280.744 140.423V146.088C280.744 147.454 281.864 148.571 283.233 148.571Z" fill="#5D7BAA"/>
<path d="M283.233 121.632H287.46C288.829 121.632 289.949 120.514 289.949 119.148V113.483C289.949 112.117 288.829 111 287.46 111H283.233C281.864 111 280.744 112.117 280.744 113.483V119.148C280.744 120.514 281.864 121.632 283.233 121.632Z" fill="#5D7BAA"/>
<path d="M164.881 303.268H270.82C279.64 303.268 286.791 296.136 286.791 287.337V64.9311C286.791 56.1332 279.641 49 270.82 49H164.881C156.061 49 148.91 56.1321 148.91 64.9311V287.338C148.91 296.136 156.061 303.268 164.881 303.268Z" fill="#455E86"/>
<path d="M281.828 74.1189V284.213C281.828 285.976 281.425 287.644 280.709 289.132C279.737 291.15 278.185 292.839 276.269 293.981C274.56 295.002 272.562 295.587 270.426 295.587H165.274C162.125 295.587 159.274 294.315 157.21 292.257C155.148 290.197 153.871 287.353 153.871 284.213V74.1189C153.871 67.8365 158.976 62.7441 165.274 62.7441H270.426C276.723 62.7441 281.828 67.8365 281.828 74.1189Z" fill="#F5F3F7"/>
<path d="M227.666 58.8138H208.035C206.184 58.8138 204.67 57.3031 204.67 55.4567C204.67 53.6103 206.184 52.0996 208.035 52.0996H227.667C229.518 52.0996 231.033 53.6103 231.033 55.4567C231.032 57.3031 229.517 58.8138 227.666 58.8138Z" fill="#D2DCEB"/>
<path d="M241.514 55.8935C241.752 54.8868 241.127 53.878 240.118 53.6402C239.109 53.4025 238.098 54.0259 237.859 55.0326C237.621 56.0394 238.246 57.0482 239.255 57.2859C240.264 57.5236 241.276 56.9002 241.514 55.8935Z" fill="#E9E4ED"/>
<path d="M270.009 257.489H174.741C171.117 257.489 168.18 254.558 168.18 250.944C168.18 247.328 171.117 244.398 174.741 244.398H270.009C273.634 244.398 276.571 247.328 276.571 250.944C276.571 254.558 273.634 257.489 270.009 257.489Z" fill="#D2DCEB"/>
<path d="M270.009 278.827H174.741C171.117 278.827 168.18 275.897 168.18 272.282C168.18 268.666 171.117 265.736 174.741 265.736H270.009C273.634 265.736 276.571 268.666 276.571 272.282C276.571 275.896 273.634 278.827 270.009 278.827Z" fill="#D2DCEB"/>
<path d="M165.091 253.408L163.614 253.022C163.473 252.985 163.322 253.02 163.212 253.115L162.058 254.11C161.78 254.35 161.347 254.167 161.326 253.802L161.237 252.283C161.229 252.138 161.149 252.006 161.025 251.931L159.719 251.142C159.406 250.952 159.445 250.487 159.788 250.353L161.209 249.798C161.345 249.745 161.446 249.629 161.478 249.488L161.827 248.005C161.91 247.649 162.367 247.543 162.6 247.826L163.567 249.003C163.66 249.115 163.802 249.175 163.947 249.163L165.468 249.035C165.834 249.004 166.076 249.406 165.878 249.714L165.054 250.996C164.975 251.119 164.962 251.272 165.019 251.406L165.611 252.809C165.753 253.146 165.446 253.5 165.091 253.408Z" fill="#D2DCEB"/>
<path d="M165.308 274.367L163.831 273.982C163.69 273.945 163.539 273.98 163.429 274.075L162.274 275.07C161.997 275.31 161.564 275.127 161.543 274.762L161.454 273.242C161.446 273.098 161.366 272.966 161.242 272.89L159.936 272.102C159.623 271.912 159.662 271.447 160.004 271.314L161.426 270.759C161.562 270.706 161.663 270.59 161.695 270.449L162.043 268.966C162.127 268.61 162.584 268.504 162.816 268.787L163.784 269.964C163.877 270.076 164.019 270.136 164.164 270.124L165.685 269.996C166.051 269.965 166.293 270.367 166.095 270.675L165.271 271.957C165.192 272.08 165.179 272.233 165.236 272.367L165.828 273.77C165.971 274.107 165.663 274.46 165.308 274.367Z" fill="#D2DCEB"/>
<path d="M218.326 114.922C216.379 114.922 214.603 115.877 213.248 117.449L214.385 118.658C215.459 117.504 216.831 116.813 218.326 116.813C219.876 116.813 221.294 117.558 222.386 118.79L223.518 117.587C222.151 115.932 220.328 114.922 218.326 114.922Z" fill="#D2DCEB"/>
<path d="M218.421 104.855C213.534 104.855 209.178 107.115 206.342 110.643L208.398 112.694C210.697 109.679 214.331 107.733 218.422 107.733C222.526 107.733 226.171 109.692 228.469 112.723L230.526 110.672C227.689 107.127 223.322 104.855 218.421 104.855Z" fill="#D2DCEB"/>
<path d="M218.42 98C211.652 98 205.613 101.109 201.658 105.974L204.521 108.83C207.729 104.682 212.762 102.011 218.42 102.011C224.092 102.011 229.135 104.695 232.342 108.859L235.205 106.003C231.252 101.121 225.202 98 218.42 98Z" fill="#D2DCEB"/>
<path d="M218.42 110.576C215.099 110.576 212.134 112.101 210.191 114.486L211.598 115.889C213.174 113.856 215.644 112.547 218.42 112.547C221.21 112.547 223.69 113.869 225.266 115.919L226.674 114.515C224.731 112.112 221.756 110.576 218.42 110.576Z" fill="#D2DCEB"/>
<path d="M220.698 121.887C220.901 120.639 220.052 119.464 218.802 119.262C217.551 119.059 216.373 119.906 216.17 121.154C215.967 122.401 216.816 123.576 218.067 123.779C219.317 123.981 220.495 123.134 220.698 121.887Z" fill="#D2DCEB"/>
<path d="M204.571 230.971C204.571 233.708 202.36 235.932 199.619 235.932H21.9513C19.2199 235.932 17 233.708 17 230.971V208.174C17 205.437 19.2199 203.213 21.9513 203.213H199.629C202.36 203.213 204.58 205.437 204.58 208.174V230.971H204.571Z" fill="#F3941B"/>
<path d="M204.571 225.758C204.571 228.495 202.36 230.719 199.619 230.719H21.9513C19.2199 230.719 17 228.495 17 225.758V202.962C17 200.224 19.2199 198 21.9513 198H199.629C202.36 198 204.58 200.224 204.58 202.962V225.758H204.571Z" fill="#F9DA2F"/>
<path d="M168.647 221.241C168.647 222.614 167.537 223.726 166.166 223.726H25.8985C24.5279 223.726 23.418 222.614 23.418 221.241V207.478C23.418 206.104 24.5279 204.992 25.8985 204.992H166.166C167.537 204.992 168.647 206.104 168.647 207.478V221.241Z" fill="#293A59"/>
<path d="M197.544 221.241C197.544 222.614 196.434 223.726 195.064 223.726H178.463C177.092 223.726 175.982 222.614 175.982 221.241V207.478C175.982 206.104 177.092 204.992 178.463 204.992H195.054C196.425 204.992 197.535 206.104 197.535 207.478V221.241H197.544Z" fill="white"/>
<path d="M195.054 221.261H178.463C177.092 221.261 175.982 220.149 175.982 218.775V221.251C175.982 222.625 177.092 223.737 178.463 223.737H195.054C196.425 223.737 197.535 222.625 197.535 221.251V218.775C197.544 220.149 196.425 221.261 195.054 221.261Z" fill="#E6ECF8"/>
<path d="M166.157 221.281H25.8985C24.5279 221.281 23.418 220.168 23.418 218.795V221.252C23.418 222.625 24.5279 223.737 25.8985 223.737H166.166C167.537 223.737 168.647 222.625 168.647 221.252V218.795C168.647 220.168 167.527 221.281 166.157 221.281Z" fill="#3D5887"/>
<path d="M192.708 214.955C192.785 214.771 192.824 214.568 192.824 214.365C192.824 214.162 192.785 213.959 192.708 213.775C192.631 213.591 192.515 213.417 192.38 213.282L188.76 209.655C188.162 209.055 187.197 209.055 186.598 209.655C186 210.254 186 211.222 186.598 211.821L187.612 212.837H182.246C181.396 212.837 180.711 213.524 180.711 214.375C180.711 215.226 181.396 215.912 182.246 215.912H187.612L186.598 216.928C186 217.528 186 218.495 186.598 219.094C186.898 219.394 187.284 219.539 187.679 219.539C188.075 219.539 188.461 219.394 188.76 219.094L192.38 215.468C192.515 215.303 192.621 215.139 192.708 214.955Z" fill="#293A59"/>
<path d="M38.8237 215.409L37.4532 214.616L38.8237 213.823C39.5959 213.378 39.8565 212.391 39.4125 211.627C38.9685 210.853 37.984 210.592 37.2216 211.037L35.851 211.83V210.254C35.851 209.364 35.1271 208.639 34.2488 208.639C33.3609 208.639 32.637 209.364 32.637 210.254V211.83L31.2665 211.037C30.4943 210.592 29.5195 210.853 29.0659 211.627C28.6219 212.401 28.8825 213.378 29.6547 213.823L31.0252 214.616L29.6547 215.409C28.8825 215.854 28.6219 216.84 29.0659 217.604C29.5099 218.378 30.4944 218.639 31.2568 218.194L32.6274 217.401V218.987C32.6274 219.877 33.3512 220.603 34.2392 220.603C35.1272 220.603 35.8414 219.877 35.8414 218.987V217.401L37.2119 218.194C37.984 218.639 38.9589 218.378 39.4028 217.604C39.8565 216.84 39.5959 215.854 38.8237 215.409Z" fill="white"/>
<path d="M58.7555 215.409L57.385 214.616L58.7555 213.823C59.518 213.378 59.7882 212.391 59.3442 211.627C58.9003 210.853 57.9158 210.592 57.1533 211.037L55.7828 211.83V210.254C55.7828 209.364 55.0589 208.639 54.1806 208.639C53.2926 208.639 52.5688 209.364 52.5688 210.254V211.83L51.1982 211.037C50.4261 210.592 49.4513 210.853 49.0073 211.627C48.5633 212.401 48.8239 213.378 49.5961 213.823L50.9666 214.616L49.5961 215.409C48.8239 215.854 48.5633 216.84 49.0073 217.604C49.4513 218.378 50.4357 218.639 51.1982 218.194L52.5688 217.401V218.987C52.5688 219.877 53.2926 220.603 54.1806 220.603C55.0686 220.603 55.7828 219.877 55.7828 218.987V217.401L57.1437 218.194C57.9158 218.639 58.8906 218.378 59.3346 217.604C59.7882 216.84 59.5276 215.854 58.7555 215.409Z" fill="white"/>
<path d="M78.6948 215.409L77.3243 214.616L78.6948 213.823C79.4573 213.378 79.7276 212.391 79.2836 211.627C78.8396 210.853 77.8551 210.592 77.0927 211.037L75.7221 211.83V210.254C75.7221 209.364 74.9982 208.639 74.1103 208.639C73.2223 208.639 72.4985 209.364 72.4985 210.254V211.83L71.1279 211.037C70.3654 210.592 69.381 210.853 68.937 211.627C68.493 212.401 68.7536 213.378 69.5257 213.823L70.8963 214.616L69.5257 215.409C68.7536 215.854 68.493 216.84 68.937 217.604C69.381 218.378 70.3654 218.639 71.1279 218.194L72.4985 217.401V218.987C72.4985 219.877 73.2223 220.603 74.1103 220.603C74.9982 220.603 75.7221 219.877 75.7221 218.987V217.401L77.083 218.194C77.8551 218.639 78.8396 218.378 79.2739 217.604C79.7276 216.84 79.467 215.854 78.6948 215.409Z" fill="white"/>
<path d="M98.6265 215.409L97.2559 214.616L98.6265 213.823C99.3986 213.378 99.6592 212.391 99.2152 211.627C98.7713 210.853 97.7868 210.592 97.0243 211.037L95.6538 211.83V210.254C95.6538 209.364 94.9299 208.639 94.0419 208.639C93.154 208.639 92.4301 209.364 92.4301 210.254V211.83L91.0596 211.037C90.2971 210.592 89.3126 210.853 88.8686 211.627C88.4247 212.401 88.6852 213.378 89.4574 213.823L90.8279 214.616L89.4574 215.409C88.6852 215.854 88.4247 216.84 88.8686 217.604C89.3126 218.378 90.2971 218.639 91.0596 218.194L92.4301 217.401V218.987C92.4301 219.877 93.154 220.603 94.0419 220.603C94.9299 220.603 95.6538 219.877 95.6538 218.987V217.401L97.0146 218.194C97.7868 218.639 98.7616 218.378 99.2056 217.604C99.6592 216.84 99.3986 215.854 98.6265 215.409Z" fill="white"/>
<path d="M118.566 215.409L117.196 214.616L118.566 213.823C119.338 213.378 119.599 212.391 119.155 211.627C118.711 210.853 117.726 210.592 116.964 211.037L115.593 211.83V210.254C115.593 209.364 114.869 208.639 113.981 208.639C113.094 208.639 112.379 209.364 112.379 210.254V211.83L111.009 211.037C110.246 210.592 109.262 210.853 108.818 211.627C108.374 212.401 108.644 213.378 109.407 213.823L110.777 214.616L109.407 215.409C108.634 215.854 108.374 216.84 108.818 217.604C109.262 218.378 110.246 218.639 111.009 218.194L112.379 217.401V218.987C112.379 219.877 113.103 220.603 113.981 220.603C114.869 220.603 115.593 219.877 115.593 218.987V217.401L116.964 218.194C117.736 218.639 118.72 218.378 119.155 217.604C119.599 216.84 119.338 215.854 118.566 215.409Z" fill="white"/>
<path fill-rule="evenodd" clip-rule="evenodd" d="M218.272 148.664C219.733 149.152 220.957 149.884 221.936 150.861L218.516 167.703C216.83 168.596 213.657 168.089 213.188 167.955L215.284 157.895C214.005 158.638 212.56 159.43 210.634 160.527C209.419 159.307 208.507 157.452 208.262 155.99C211.849 153.838 215.282 151.648 218.272 148.664Z" fill="#F4C600"/>
<path fill-rule="evenodd" clip-rule="evenodd" d="M214.063 143C215.773 143 217.725 143.245 219.434 143.734C213.357 149.54 205.258 154.574 196.484 158.87C197.218 149.837 204.784 143 214.063 143ZM226.514 148.126C229.689 151.3 231.643 155.697 231.643 160.576C231.643 167.901 227.004 174.25 220.408 176.939L226.514 148.126ZM210.888 177.911C204.784 176.695 199.662 172.54 197.463 166.681C200.393 165.951 202.833 164.973 205.274 163.997C206.498 166.926 209.183 169.37 212.599 169.856L210.888 177.911Z" fill="#455E86"/>
<path d="M183 178.999V143.162H189.971V178.999H183Z" fill="#455E86"/>
<path d="M243.974 178.999V148.317H250.945V178.999H243.974ZM233.615 149.299V143.162H261.303V149.299H233.615Z" fill="#455E86"/>
</svg>
