<svg width="72" height="65" viewBox="0 0 72 65" fill="none" xmlns="http://www.w3.org/2000/svg">
<path d="M44.398 51.0034C44.0876 51.1826 43.8305 51.4435 43.654 51.7584C43.4775 52.0733 43.388 52.4306 43.3949 52.7928V56.669C43.3942 57.3512 43.1869 58.0167 42.801 58.5756C42.4152 59.1344 41.8695 59.5598 41.2376 59.7941C41.2165 60.9375 40.754 62.0269 39.9494 62.8284C39.1449 63.6299 38.0624 64.0796 36.9345 64.081H34.68C33.552 64.0796 32.4696 63.6299 31.665 62.8284C30.8605 62.0269 30.398 60.9375 30.3769 59.7941C29.7449 59.5598 29.1992 59.1344 28.8134 58.5756C28.4276 58.0167 28.2203 57.3512 28.2195 56.669V52.7929C28.2265 52.4308 28.1371 52.0734 27.9606 51.7585C27.7841 51.4435 27.5271 51.1827 27.2167 51.0034C24.0526 49.0957 21.5938 46.1874 20.2179 42.7254C18.8421 39.2634 18.6254 35.4392 19.6011 31.8402C20.5768 28.2412 22.6909 25.0666 25.6187 22.804C28.5465 20.5414 32.126 19.3159 35.8074 19.3159C39.4887 19.3159 43.0682 20.5414 45.996 22.804C48.9238 25.0666 51.0379 28.2412 52.0136 31.8402C52.9893 35.4392 52.7726 39.2634 51.3968 42.7254C50.021 46.1874 47.5621 49.0957 44.398 51.0034ZM50.3622 36.3573C50.3617 33.7752 49.693 31.2383 48.4228 29.0002C47.1525 26.7621 45.3253 24.9011 43.1236 23.6031C40.922 22.3051 38.4229 21.6156 35.8761 21.6034C33.3293 21.5912 30.8239 22.2568 28.6103 23.5337C26.3967 24.8106 24.5522 26.6541 23.2612 28.8799C21.9703 31.1058 21.278 33.6362 21.2535 36.2182C21.229 38.8003 21.8732 41.3437 23.1217 43.5943C24.3703 45.845 26.1794 47.724 28.3684 49.0438C29.0153 49.4237 29.5508 49.9712 29.9201 50.6301C30.2894 51.2891 30.4792 52.0358 30.4699 52.7936V53.9327H41.1449V52.7936C41.1357 52.0358 41.3255 51.2891 41.6948 50.6301C42.0641 49.9712 42.5996 49.4237 43.2464 49.0438C45.4101 47.73 47.2022 45.8716 48.4489 43.6488C49.6956 41.4261 50.3547 38.9144 50.3622 36.3573ZM36.013 35.2169H35.6019C35.4126 35.2169 35.231 35.1406 35.0971 35.0048C34.9632 34.8691 34.888 34.685 34.888 34.493C34.888 34.301 34.9632 34.1169 35.0971 33.9811C35.231 33.8454 35.4126 33.7691 35.6019 33.7691H36.1809C36.2942 33.7699 36.4058 33.7978 36.5065 33.8506C36.6072 33.9035 36.6942 33.9797 36.7602 34.0731C36.9351 34.3182 37.1988 34.4829 37.4935 34.5309C37.7881 34.5788 38.0894 34.5062 38.3312 34.3289C38.5729 34.1516 38.7353 33.8842 38.7826 33.5855C38.83 33.2868 38.7583 32.9813 38.5834 32.7361C38.1802 32.1716 37.597 31.7658 36.9325 31.5872V31.407C36.9325 31.1045 36.814 30.8144 36.603 30.6005C36.392 30.3866 36.1059 30.2664 35.8075 30.2664C35.5091 30.2664 35.223 30.3866 35.012 30.6005C34.801 30.8144 34.6825 31.1045 34.6825 31.407V31.6359C34.0119 31.8578 33.4413 32.3149 33.0733 32.925C32.7053 33.5352 32.564 34.2585 32.6748 34.9648C32.7855 35.6711 33.1411 36.3143 33.6777 36.7786C34.2142 37.243 34.8965 37.4981 35.6019 37.4981H36.013C36.1075 37.4968 36.2015 37.5145 36.2892 37.5503C36.377 37.586 36.4569 37.6391 36.5243 37.7065C36.5916 37.7738 36.6451 37.8541 36.6816 37.9426C36.7181 38.031 36.7369 38.126 36.7369 38.2219C36.7369 38.3178 36.7181 38.4128 36.6816 38.5013C36.6451 38.5898 36.5916 38.67 36.5243 38.7373C36.4569 38.8047 36.377 38.8578 36.2892 38.8936C36.2015 38.9293 36.1075 38.9471 36.013 38.9457H35.4341C35.3208 38.9449 35.2092 38.917 35.1085 38.8641C35.0078 38.8113 34.9208 38.735 34.8548 38.6416C34.7682 38.5202 34.6589 38.4173 34.5331 38.3388C34.4073 38.2602 34.2674 38.2076 34.1216 38.1838C33.9757 38.1601 33.8266 38.1657 33.6829 38.2003C33.5392 38.235 33.4036 38.298 33.2838 38.3858C33.1641 38.4736 33.0627 38.5844 32.9852 38.712C32.9077 38.8395 32.8558 38.9813 32.8324 39.1292C32.8089 39.2771 32.8145 39.4282 32.8486 39.574C32.8828 39.7197 32.945 39.8572 33.0316 39.9785C33.4348 40.5431 34.018 40.949 34.6825 41.1276V41.3081C34.6825 41.6106 34.801 41.9007 35.012 42.1146C35.223 42.3285 35.5091 42.4487 35.8075 42.4487C36.1059 42.4487 36.392 42.3285 36.603 42.1146C36.814 41.9007 36.9325 41.6106 36.9325 41.3081V41.0791C37.603 40.8571 38.1735 40.4 38.5414 39.7899C38.9093 39.1797 39.0506 38.4565 38.9398 37.7502C38.829 37.044 38.4734 36.4009 37.937 35.9366C37.4005 35.4723 36.7183 35.217 36.013 35.2169ZM48.7018 36.3575C48.7018 38.9432 47.9455 41.4708 46.5287 43.6207C45.1118 45.7705 43.098 47.4462 40.7419 48.4357C38.3857 49.4251 35.7931 49.684 33.2919 49.1795C30.7906 48.6751 28.4931 47.43 26.6898 45.6016C24.8865 43.7732 23.6584 41.4438 23.1609 38.9078C22.6634 36.3718 22.9188 33.7432 23.8947 31.3543C24.8707 28.9655 26.5234 26.9237 28.6438 25.4872C30.7643 24.0507 33.2573 23.2839 35.8075 23.2839C39.2261 23.288 42.5035 24.6667 44.9208 27.1176C47.3381 29.5685 48.6979 32.8914 48.7018 36.3575ZM43.2643 36.3575C43.2644 34.8622 42.8272 33.4004 42.0079 32.157C41.1886 30.9137 40.024 29.9445 38.6615 29.3722C37.2989 28.7999 35.7996 28.6501 34.3531 28.9418C32.9066 29.2334 31.5779 29.9534 30.535 31.0107C29.4921 32.0681 28.7818 33.4152 28.494 34.8818C28.2063 36.3483 28.3539 37.8685 28.9183 39.25C29.4827 40.6315 30.4384 41.8123 31.6647 42.6431C32.891 43.4738 34.3327 43.9173 35.8075 43.9173C37.7844 43.915 39.6797 43.1178 41.0776 41.7006C42.4755 40.2834 43.2619 38.3618 43.2643 36.3575Z" fill="#455E86"/>
<path d="M30.0069 8.15599C29.8656 7.8665 29.8078 7.54241 29.8401 7.22105C29.8724 6.89969 29.9936 6.59413 30.1898 6.33955L34.51 0.671925C34.6693 0.462826 34.8737 0.293532 35.1076 0.17705C35.3415 0.0605683 35.5986 0 35.8592 0C36.1198 0 36.3769 0.0605683 36.6108 0.17705C36.8446 0.293532 37.0491 0.462826 37.2083 0.671925L41.5281 6.33969C41.7232 6.59534 41.8438 6.90137 41.8759 7.223C41.9081 7.54463 41.8507 7.86896 41.7102 8.15915C41.5696 8.44934 41.3517 8.69375 41.081 8.8646C40.8103 9.03545 40.4978 9.1259 40.1789 9.12567H39.1688V15.7935C39.1682 16.3002 38.9694 16.7861 38.616 17.1444C38.2626 17.5028 37.7834 17.7043 37.2836 17.7049H34.4349C33.9353 17.7041 33.4563 17.5025 33.103 17.1442C32.7498 16.7858 32.5511 16.3001 32.5506 15.7935V9.12553H31.5393C31.2198 9.1266 30.9064 9.03618 30.6353 8.86466C30.3642 8.69314 30.1464 8.44749 30.0069 8.15599ZM17.4622 37.8016V34.9135C17.4616 34.4067 17.2628 33.9209 16.9094 33.5626C16.556 33.2042 16.0768 33.0027 15.577 33.0021H8.99996V31.9789C9.00029 31.6556 8.91116 31.3387 8.7427 31.0641C8.57424 30.7896 8.3332 30.5685 8.04698 30.4259C7.76076 30.2833 7.44083 30.225 7.12355 30.2576C6.80627 30.2902 6.50436 30.4123 6.25214 30.6102L0.662722 34.9895C0.456486 35.151 0.28951 35.3583 0.174624 35.5954C0.059738 35.8326 0 36.0932 0 36.3575C0 36.6217 0.059738 36.8823 0.174624 37.1195C0.28951 37.3566 0.456486 37.5639 0.662722 37.7254L6.25271 42.105C6.50487 42.3027 6.80666 42.4248 7.12381 42.4573C7.44095 42.4899 7.76075 42.4316 8.04687 42.2891C8.33299 42.1466 8.57397 41.9257 8.74244 41.6513C8.91092 41.3769 9.00013 41.0601 8.99996 40.737V39.7128H15.577C16.0768 39.7122 16.556 39.5107 16.9094 39.1524C17.2628 38.7941 17.4616 38.3083 17.4622 37.8016ZM21.8437 48.5261C21.49 48.1679 21.0105 47.9666 20.5105 47.9666C20.0106 47.9666 19.5311 48.1679 19.1774 48.5261L14.5265 53.2406L13.8128 52.517C13.5876 52.2881 13.3036 52.1279 12.993 52.0545C12.6824 51.9811 12.3577 51.9975 12.0559 52.1019C11.754 52.2063 11.4871 52.3944 11.2855 52.645C11.0839 52.8955 10.9556 53.1983 10.9153 53.5191L10.017 60.6235C9.98617 60.8668 10.0068 61.1139 10.0775 61.3485C10.1481 61.5831 10.2672 61.7998 10.4268 61.9841C10.5865 62.1685 10.7829 62.3163 11.0032 62.4177C11.2235 62.5192 11.4625 62.5719 11.7045 62.5725C11.7783 62.5725 11.852 62.5677 11.9252 62.5583L18.9323 61.6475C19.2486 61.6066 19.5472 61.4766 19.7942 61.2722C20.0412 61.0679 20.2268 60.7974 20.3298 60.4915C20.4328 60.1855 20.4491 59.8565 20.3769 59.5416C20.3046 59.2268 20.1468 58.9388 19.9212 58.7104L19.2069 57.9863L23.8573 53.2716C24.2104 52.9129 24.4088 52.4268 24.4088 51.92C24.4088 51.4132 24.2104 50.9271 23.8573 50.5684L21.8437 48.5261ZM49.875 24.1889C50.2288 24.547 50.7082 24.7482 51.2081 24.7482C51.708 24.7482 52.1875 24.547 52.5413 24.1889L57.1921 19.4741L57.9057 20.1976C58.1309 20.4265 58.4149 20.5868 58.7255 20.6602C59.0361 20.7337 59.3608 20.7173 59.6627 20.6129C59.9645 20.5086 60.2314 20.3204 60.4331 20.0699C60.6348 19.8194 60.7631 19.5166 60.8034 19.1958L61.7016 12.0913C61.7348 11.8292 61.7084 11.563 61.6243 11.3129C61.5401 11.0628 61.4006 10.8357 61.2164 10.6488C61.0321 10.462 60.8081 10.3205 60.5614 10.2351C60.3148 10.1498 60.0522 10.123 59.7937 10.1567L52.7859 11.0673C52.4697 11.1082 52.1711 11.2382 51.924 11.4425C51.677 11.6469 51.4914 11.9174 51.3884 12.2233C51.2854 12.5292 51.2691 12.8583 51.3414 13.1731C51.4136 13.488 51.5715 13.776 51.7971 14.0044L52.5112 14.7286L47.8608 19.4438C47.5079 19.8025 47.3096 20.2886 47.3096 20.7953C47.3096 21.3021 47.5079 21.7881 47.8608 22.1469L49.875 24.1889ZM71.0564 34.9893L65.4664 30.6098C65.2142 30.4119 64.9124 30.2898 64.5952 30.2572C64.278 30.2245 63.9581 30.2828 63.6719 30.4253C63.3857 30.5678 63.1447 30.7888 62.9762 31.0632C62.8077 31.3377 62.7185 31.6545 62.7187 31.9778V33.0019H56.1417C55.6419 33.0025 55.1627 33.2041 54.8092 33.5624C54.4558 33.9207 54.257 34.4066 54.2565 34.9133V37.8007C54.257 38.3075 54.4558 38.7933 54.8092 39.1516C55.1627 39.51 55.6419 39.7115 56.1417 39.7121H62.7187V40.7352C62.7175 41.059 62.806 41.3765 62.9743 41.6516C63.1426 41.9267 63.3838 42.1483 63.6703 42.2911C63.9569 42.4338 64.2773 42.492 64.5949 42.4589C64.9125 42.4258 65.2146 42.3028 65.4665 42.104L71.0568 37.7243C71.263 37.5628 71.4299 37.3555 71.5448 37.1184C71.6597 36.8812 71.7194 36.6206 71.7194 36.3564C71.7194 36.0922 71.6597 35.8315 71.5448 35.5944C71.4299 35.3573 71.2626 35.1508 71.0564 34.9893ZM60.8028 53.5191C60.7626 53.1984 60.6344 52.8956 60.4328 52.6451C60.2313 52.3946 59.9645 52.2064 59.6627 52.102C59.361 51.9976 59.0364 51.981 58.7258 52.0543C58.4153 52.1276 58.1312 52.2877 57.906 52.5165L57.1917 53.2406L52.5415 48.5259C52.1878 48.1677 51.7084 47.9666 51.2085 47.9666C50.7086 47.9666 50.2292 48.1677 49.8754 48.5259L47.861 50.5681C47.508 50.9269 47.3098 51.413 47.3098 51.9197C47.3098 52.4264 47.508 52.9125 47.861 53.2713L52.5113 57.9861L51.7976 58.7095C51.5718 58.9379 51.4137 59.2259 51.3413 59.5408C51.2689 59.8557 51.2851 60.1849 51.388 60.491C51.491 60.7971 51.6766 61.0677 51.9237 61.2721C52.1708 61.4766 52.4696 61.6066 52.7859 61.6475L59.7931 62.5583C59.8665 62.5678 59.9403 62.5726 60.0142 62.5725C60.2562 62.572 60.4952 62.5193 60.7155 62.4178C60.9358 62.3164 61.1323 62.1686 61.2919 61.9842C61.4515 61.7999 61.5706 61.5832 61.6413 61.3486C61.7119 61.114 61.7325 60.8668 61.7017 60.6235L60.8028 53.5191ZM10.9158 19.1957C10.9561 19.5164 11.0843 19.8192 11.2858 20.0697C11.4873 20.3202 11.7541 20.5084 12.0559 20.6129C12.3576 20.7173 12.6822 20.7338 12.9928 20.6606C13.3034 20.5873 13.5874 20.4272 13.8127 20.1984L14.5269 19.4743L19.1773 24.1893C19.5311 24.5472 20.0105 24.7481 20.5103 24.7481C21.0101 24.7481 21.4895 24.5472 21.8434 24.1893L23.8573 22.1473C24.2105 21.7887 24.4089 21.3025 24.4089 20.7957C24.4089 20.2888 24.2105 19.8027 23.8573 19.444L19.2069 14.7293L19.9206 14.0055C20.1462 13.7772 20.3042 13.4892 20.3765 13.1744C20.4488 12.8596 20.4325 12.5305 20.3296 12.2246C20.2266 11.9187 20.0411 11.6482 19.7941 11.4438C19.5471 11.2394 19.2485 11.1094 18.9323 11.0684L11.925 10.1568C11.6665 10.1231 11.4038 10.1499 11.1572 10.2352C10.9105 10.3205 10.6865 10.4621 10.5022 10.6489C10.3179 10.8357 10.1784 11.0629 10.0943 11.313C10.0101 11.5631 9.9837 11.8294 10.017 12.0914L10.9158 19.1957Z" fill="#F4C600"/>
</svg>
