<svg width="73" height="73" viewBox="0 0 73 73" fill="none" xmlns="http://www.w3.org/2000/svg">
<path d="M56.891 6.89648H8.61985C6.33372 6.89648 4.14123 7.80464 2.52469 9.42118C0.90816 11.0377 0 13.2302 0 15.5163V56.8916C0 58.0236 0.222959 59.1445 0.656147 60.1903C1.08933 61.2361 1.72427 62.1863 2.52469 62.9868C3.32512 63.7872 4.27537 64.4221 5.32117 64.8553C6.36698 65.2885 7.48787 65.5115 8.61985 65.5115H39.9961C39.4313 64.4111 38.9808 63.2557 38.6514 62.0635H8.61985C7.24943 62.0594 5.93631 61.5132 4.96728 60.5442C3.99824 59.5751 3.45203 58.262 3.44794 56.8916V15.5163C3.45203 14.1459 3.99824 12.8328 4.96728 11.8638C5.93631 10.8947 7.24943 10.3485 8.61985 10.3444H56.891C58.2614 10.3485 59.5745 10.8947 60.5436 11.8638C61.5126 12.8328 62.0588 14.1459 62.0629 15.5163V38.652C63.2551 38.9814 64.4104 39.432 65.5108 39.9967V15.5163C65.5108 14.3844 65.2879 13.2635 64.8547 12.2177C64.4215 11.1719 63.7866 10.2216 62.9861 9.42118C62.1857 8.62075 61.2355 7.98582 60.1897 7.55263C59.1439 7.11944 58.023 6.89648 56.891 6.89648Z" fill="#455E86"/>
<path d="M56.8908 41.375C53.8221 41.375 50.8223 42.285 48.2708 43.9899C45.7192 45.6948 43.7305 48.118 42.5562 50.9531C41.3818 53.7882 41.0746 56.9079 41.6732 59.9177C42.2719 62.9275 43.7497 65.6921 45.9196 67.862C48.0895 70.0319 50.8541 71.5096 53.8639 72.1083C56.8736 72.707 59.9933 72.3997 62.8284 71.2254C65.6636 70.051 68.0868 68.0624 69.7917 65.5108C71.4966 62.9593 72.4066 59.9594 72.4066 56.8907C72.4016 52.7772 70.7652 48.8337 67.8566 45.925C64.9479 43.0163 61.0043 41.38 56.8908 41.375ZM52.5809 49.9948C53.0924 49.9948 53.5923 50.1465 54.0176 50.4307C54.4429 50.7148 54.7743 51.1187 54.97 51.5912C55.1658 52.0637 55.217 52.5837 55.1172 53.0853C55.0174 53.5869 54.7711 54.0477 54.4095 54.4094C54.0478 54.771 53.587 55.0173 53.0854 55.1171C52.5838 55.2168 52.0638 55.1656 51.5913 54.9699C51.1188 54.7742 50.7149 54.4427 50.4308 54.0175C50.1466 53.5922 49.995 53.0923 49.995 52.5808C49.995 51.895 50.2674 51.2372 50.7524 50.7523C51.2373 50.2673 51.8951 49.9948 52.5809 49.9948ZM53.2343 62.985C53.0753 63.1496 52.885 63.281 52.6747 63.3713C52.4644 63.4617 52.2382 63.5092 52.0092 63.5112C51.7803 63.5132 51.5533 63.4696 51.3415 63.3829C51.1296 63.2962 50.9371 63.1682 50.7752 63.0063C50.6134 62.8445 50.4854 62.652 50.3987 62.4401C50.312 62.2282 50.2684 62.0012 50.2704 61.7723C50.2724 61.5434 50.3199 61.3172 50.4103 61.1069C50.5006 60.8965 50.632 60.7063 50.7966 60.5473L60.5474 50.7965C60.7064 50.6318 60.8966 50.5005 61.107 50.4101C61.3173 50.3198 61.5435 50.2722 61.7724 50.2702C62.0013 50.2683 62.2283 50.3119 62.4402 50.3986C62.6521 50.4852 62.8446 50.6133 63.0064 50.7751C63.1683 50.937 63.2963 51.1295 63.383 51.3414C63.4697 51.5532 63.5133 51.7802 63.5113 52.0091C63.5093 52.238 63.4618 52.4643 63.3714 52.6746C63.2811 52.8849 63.1497 53.0752 62.9851 53.2342L53.2343 62.985ZM61.2008 63.7866C60.6893 63.7866 60.1893 63.6349 59.7641 63.3508C59.3388 63.0666 59.0074 62.6628 58.8117 62.1903C58.6159 61.7177 58.5647 61.1978 58.6645 60.6962C58.7643 60.1945 59.0106 59.7338 59.3722 59.3721C59.7339 59.0105 60.1946 58.7642 60.6963 58.6644C61.1979 58.5646 61.7178 58.6158 62.1904 58.8115C62.6629 59.0073 63.0668 59.3387 63.3509 59.764C63.6351 60.1892 63.7867 60.6892 63.7867 61.2006C63.7867 61.8865 63.5143 62.5442 63.0293 63.0292C62.5444 63.5142 61.8866 63.7866 61.2008 63.7866Z" fill="#455E86"/>
<path d="M65.4419 22.4115C65.4419 22.8687 65.2603 23.3072 64.937 23.6305C64.6136 23.9538 64.1751 24.1354 63.7179 24.1354H1.72397C1.26674 24.1354 0.828246 23.9538 0.504939 23.6305C0.181632 23.3072 0 22.8687 0 22.4115C0 21.9542 0.181632 21.5157 0.504939 21.1924C0.828246 20.8691 1.26674 20.6875 1.72397 20.6875H63.7179C64.1751 20.6875 64.6136 20.8691 64.937 21.1924C65.2603 21.5157 65.4419 21.9542 65.4419 22.4115Z" fill="#455E86"/>
<path d="M15.5158 15.5157C13.9814 15.5157 12.4815 15.0607 11.2058 14.2083C9.92999 13.3558 8.93564 12.1442 8.34847 10.7267C7.7613 9.30911 7.60766 7.74926 7.907 6.24438C8.20634 4.7395 8.94521 3.35719 10.0302 2.27223C11.1151 1.18727 12.4974 0.448408 14.0023 0.149069C15.5072 -0.15027 17.067 0.00336132 18.4846 0.590536C19.9022 1.17771 21.1138 2.17205 21.9662 3.44783C22.8187 4.7236 23.2737 6.22351 23.2737 7.75787C23.2737 8.21509 23.092 8.65359 22.7687 8.9769C22.4454 9.3002 22.0069 9.48184 21.5497 9.48184C21.0925 9.48184 20.654 9.3002 20.3307 8.9769C20.0074 8.65359 19.8257 8.21509 19.8257 7.75787C19.8257 6.90544 19.573 6.07216 19.0994 5.3634C18.6258 4.65464 17.9527 4.10222 17.1651 3.77602C16.3776 3.44981 15.511 3.36446 14.675 3.53076C13.8389 3.69706 13.071 4.10754 12.4682 4.71029C11.8655 5.31304 11.455 6.081 11.2887 6.91704C11.1224 7.75309 11.2077 8.61967 11.534 9.4072C11.8602 10.1947 12.4126 10.8679 13.1213 11.3414C13.8301 11.815 14.6634 12.0678 15.5158 12.0678C15.973 12.0678 16.4115 12.2494 16.7348 12.5727C17.0581 12.896 17.2398 13.3345 17.2398 13.7918C17.2398 14.249 17.0581 14.6875 16.7348 15.0108C16.4115 15.3341 15.973 15.5157 15.5158 15.5157Z" fill="#455E86"/>
<path d="M32.756 15.5157C31.2217 15.5157 29.7218 15.0607 28.446 14.2083C27.1702 13.3558 26.1759 12.1442 25.5887 10.7267C25.0015 9.30911 24.8479 7.74926 25.1472 6.24438C25.4466 4.7395 26.1854 3.35719 27.2704 2.27223C28.3553 1.18727 29.7377 0.448408 31.2425 0.149069C32.7474 -0.15027 34.3073 0.00336132 35.7248 0.590536C37.1424 1.17771 38.354 2.17205 39.2064 3.44783C40.0589 4.7236 40.5139 6.22351 40.5139 7.75787C40.5139 8.21509 40.3323 8.65359 40.0089 8.9769C39.6856 9.3002 39.2471 9.48184 38.7899 9.48184C38.3327 9.48184 37.8942 9.3002 37.5709 8.9769C37.2476 8.65359 37.0659 8.21509 37.0659 7.75787C37.0659 6.90544 36.8132 6.07216 36.3396 5.3634C35.866 4.65464 35.1929 4.10222 34.4054 3.77602C33.6178 3.44981 32.7512 3.36446 31.9152 3.53076C31.0792 3.69706 30.3112 4.10754 29.7084 4.71029C29.1057 5.31304 28.6952 6.081 28.5289 6.91704C28.3626 7.75309 28.448 8.61967 28.7742 9.4072C29.1004 10.1947 29.6528 10.8679 30.3616 11.3414C31.0703 11.815 31.9036 12.0678 32.756 12.0678C33.2132 12.0678 33.6517 12.2494 33.9751 12.5727C34.2984 12.896 34.48 13.3345 34.48 13.7918C34.48 14.249 34.2984 14.6875 33.9751 15.0108C33.6517 15.3341 33.2132 15.5157 32.756 15.5157Z" fill="#455E86"/>
<path d="M49.9953 15.5157C48.4609 15.5157 46.961 15.0607 45.6852 14.2083C44.4095 13.3558 43.4151 12.1442 42.8279 10.7267C42.2408 9.30911 42.0871 7.74926 42.3865 6.24438C42.6858 4.7395 43.4247 3.35719 44.5096 2.27223C45.5946 1.18727 46.9769 0.448408 48.4818 0.149069C49.9867 -0.15027 51.5465 0.00336132 52.9641 0.590536C54.3816 1.17771 55.5933 2.17205 56.4457 3.44783C57.2981 4.7236 57.7531 6.22351 57.7531 7.75787C57.7531 8.21509 57.5715 8.65359 57.2482 8.9769C56.9249 9.3002 56.4864 9.48184 56.0292 9.48184C55.5719 9.48184 55.1334 9.3002 54.8101 8.9769C54.4868 8.65359 54.3052 8.21509 54.3052 7.75787C54.3052 6.90544 54.0524 6.07216 53.5788 5.3634C53.1053 4.65464 52.4321 4.10222 51.6446 3.77602C50.8571 3.44981 49.9905 3.36446 49.1545 3.53076C48.3184 3.69706 47.5505 4.10754 46.9477 4.71029C46.3449 5.31304 45.9345 6.081 45.7682 6.91704C45.6019 7.75309 45.6872 8.61967 46.0134 9.4072C46.3396 10.1947 46.892 10.8679 47.6008 11.3414C48.3096 11.815 49.1429 12.0678 49.9953 12.0678C50.4525 12.0678 50.891 12.2494 51.2143 12.5727C51.5376 12.896 51.7192 13.3345 51.7192 13.7918C51.7192 14.249 51.5376 14.6875 51.2143 15.0108C50.891 15.3341 50.4525 15.5157 49.9953 15.5157Z" fill="#455E86"/>
<path d="M3.44737 24.1348V56.8902C3.45147 58.2606 3.99768 59.5737 4.96671 60.5428C5.93575 61.5118 7.24886 62.058 8.61928 62.0621H38.6508C38.1633 60.3816 37.9195 58.6399 37.9268 56.8902C37.93 51.8617 39.9289 47.0401 43.4846 43.4844C47.0403 39.9287 51.8619 37.9297 56.8904 37.9265C58.6402 37.9192 60.3819 38.1631 62.0623 38.6506V24.1348H3.44737ZM31.0309 51.7183H12.0672C11.61 51.7183 11.1715 51.5366 10.8482 51.2133C10.5249 50.89 10.3433 50.4515 10.3433 49.9943C10.3433 49.5371 10.5249 49.0986 10.8482 48.7753C11.1715 48.452 11.61 48.2703 12.0672 48.2703H31.0309C31.4881 48.2703 31.9266 48.452 32.2499 48.7753C32.5732 49.0986 32.7549 49.5371 32.7549 49.9943C32.7549 50.4515 32.5732 50.89 32.2499 51.2133C31.9266 51.5366 31.4881 51.7183 31.0309 51.7183ZM36.2028 43.0984H12.0672C11.61 43.0984 11.1715 42.9168 10.8482 42.5935C10.5249 42.2702 10.3433 41.8317 10.3433 41.3745C10.3433 40.9172 10.5249 40.4787 10.8482 40.1554C11.1715 39.8321 11.61 39.6505 12.0672 39.6505H36.2028C36.66 39.6505 37.0985 39.8321 37.4218 40.1554C37.7451 40.4787 37.9268 40.9172 37.9268 41.3745C37.9268 41.8317 37.7451 42.2702 37.4218 42.5935C37.0985 42.9168 36.66 43.0984 36.2028 43.0984ZM53.4425 34.4786H12.0672C11.61 34.4786 11.1715 34.297 10.8482 33.9736C10.5249 33.6503 10.3433 33.2118 10.3433 32.7546C10.3433 32.2974 10.5249 31.8589 10.8482 31.5356C11.1715 31.2123 11.61 31.0306 12.0672 31.0306H53.4425C53.8997 31.0306 54.3382 31.2123 54.6615 31.5356C54.9848 31.8589 55.1665 32.2974 55.1665 32.7546C55.1665 33.2118 54.9848 33.6503 54.6615 33.9736C54.3382 34.297 53.8997 34.4786 53.4425 34.4786Z" fill="#455E86"/>
</svg>
