<svg width="90" height="67" viewBox="0 0 90 67" fill="none" xmlns="http://www.w3.org/2000/svg">
<path d="M25.9207 41.0532H33.3422V42.5027H25.9207V41.0532ZM10.2357 41.0532H17.6572V42.5027H10.2357V41.0532ZM46.6383 32.4885H3.86719V23.108H53.5728C50.4809 25.518 48.0586 28.7561 46.6383 32.4885ZM56.8687 20.9893H3.86719V16.2877C3.86719 14.8734 5.01328 13.7223 6.42129 13.7223H68.5283C69.9363 13.7223 71.0824 14.8734 71.0824 16.2877V19.0225C69.6779 18.7312 68.2242 18.5794 66.7353 18.5794C63.1811 18.5794 59.8254 19.4515 56.8687 20.9911V20.9893ZM45.2478 41.0532C45.2672 41.5405 45.3023 42.0243 45.3533 42.5027H41.6057V41.0532H45.2478ZM40.551 44.6214C39.9691 44.6214 39.4963 44.1465 39.4963 43.5621V39.9939C39.4963 39.4095 39.9691 38.9345 40.551 38.9345H45.2654C45.3498 37.4462 45.5854 36.0002 45.9562 34.6071H3.86719V52.57C3.86719 53.9842 5.01328 55.1353 6.42129 55.1353H51.2314C48.491 52.2716 46.5293 48.6522 45.6873 44.6232H40.551V44.6214ZM19.7684 43.5621C19.7684 44.1465 19.2955 44.6214 18.7137 44.6214H9.18106C8.59922 44.6214 8.12637 44.1465 8.12637 43.5621V39.9939C8.12637 39.4095 8.59922 38.9345 9.18106 38.9345H18.7119C19.2937 38.9345 19.7666 39.4095 19.7666 39.9939V43.5621H19.7684ZM35.4533 43.5621C35.4533 44.1465 34.9805 44.6214 34.3986 44.6214H24.8678C24.2859 44.6214 23.8131 44.1465 23.8131 43.5621V39.9939C23.8131 39.4095 24.2859 38.9345 24.8678 38.9345H34.3986C34.9805 38.9345 35.4533 39.4095 35.4533 39.9939V43.5621Z" fill="#455E86"/>
<path d="M66.8975 20.6962C56.2012 20.6962 47.5 29.4357 47.5 40.1792C47.5 50.9226 56.2012 59.6621 66.8975 59.6621C77.5937 59.6621 86.2949 50.9226 86.2949 40.1792C86.2949 29.4357 77.5937 20.6962 66.8975 20.6962ZM70.7787 32.6031C70.0686 31.8069 69.0719 31.2719 67.9521 31.0636V39.3193C70.7717 39.939 73.8584 40.9772 73.8584 45.3152C73.8584 48.412 71.292 50.9862 67.9521 51.4399V54.339C67.9521 54.9234 67.4793 55.3983 66.8975 55.3983C66.3156 55.3983 65.8428 54.9234 65.8428 54.339V51.4382C64.1148 51.2069 62.5504 50.4088 61.4447 49.1694C60.3162 47.9035 59.7924 46.318 59.9699 44.7043C60.0332 44.1234 60.5553 43.705 61.1336 43.7668C61.7119 43.8303 62.1303 44.3547 62.067 44.9356C61.9563 45.9437 62.2938 46.9448 63.0162 47.7552C63.7264 48.5515 64.723 49.0864 65.8428 49.2948V41.039C63.0232 40.4193 59.9365 39.3811 59.9365 35.0431C59.9365 31.9463 62.5029 29.3721 65.8428 28.9184V26.0193C65.8428 25.4349 66.3156 24.96 66.8975 24.96C67.4793 24.96 67.9521 25.4349 67.9521 26.0193V28.9202C69.6801 29.1514 71.2445 29.9495 72.3502 31.1889C73.4787 32.4548 74.0025 34.0403 73.825 35.654C73.7617 36.2349 73.2396 36.6533 72.6613 36.5915C72.083 36.528 71.6646 36.0036 71.7279 35.4227C71.8387 34.4146 71.5012 33.4135 70.7787 32.6031ZM65.8428 31.0653V38.8638C63.4029 38.2812 62.0459 37.5467 62.0459 35.0431C62.0459 33.0992 63.6736 31.4696 65.8428 31.0653ZM67.9539 41.4945C70.3937 42.0771 71.7508 42.8116 71.7508 45.3152C71.7508 47.2591 70.123 48.8887 67.9539 49.293V41.4945Z" fill="#F4C600"/>
</svg>
