<svg width="73" height="63" viewBox="0 0 73 63" fill="none" xmlns="http://www.w3.org/2000/svg">
<path d="M0.000244141 9.51172H72.2939V15.2191H0.000244141V9.51172Z" fill="#455E86"/>
<path d="M9.51282 27.5859H15.2202V31.3909H9.51282V27.5859Z" fill="#455E86"/>
<path d="M66.5865 0H5.70764C2.56857 0 0.000244141 2.56833 0.000244141 5.7074H72.2939C72.2939 2.56833 69.7256 0 66.5865 0Z" fill="#455E86"/>
<path d="M0.000244141 43.7574C0.000244141 46.8965 2.56857 49.4648 5.70764 49.4648H16.9322C18.1307 45.3365 21.3459 41.9882 25.5884 40.4852C27.8143 33.5222 34.6822 28.5377 42.5584 28.5377C44.8604 28.5377 47.0863 28.9372 49.179 29.7553C57.3025 28.7089 65.4641 34.6446 66.2441 42.9394C67.9753 44.3662 69.3071 46.1926 70.1442 48.2092C71.4569 47.1629 72.2939 45.5648 72.2939 43.7574V19.0254H0.000244141V43.7574ZM5.70764 25.684C5.70764 24.6377 6.56375 23.7816 7.61011 23.7816H17.1224C18.1688 23.7816 19.0249 24.6377 19.0249 25.684V33.2939C19.0249 34.3402 18.1688 35.1964 17.1224 35.1964H7.61011C6.56375 35.1964 5.70764 34.3402 5.70764 33.2939V25.684ZM7.61011 39.0013H17.1224C18.1688 39.0013 19.0249 39.8574 19.0249 40.9037C19.0249 41.9501 18.1688 42.8062 17.1224 42.8062H7.61011C6.56375 42.8062 5.70764 41.9501 5.70764 40.9037C5.70764 39.8574 6.56375 39.0013 7.61011 39.0013Z" fill="#455E86"/>
<path d="M62.458 44.9166C62.8956 38.4672 57.1691 33.4447 50.9671 33.4447C50.2061 33.4447 49.4261 33.5208 48.6651 33.654C46.7626 32.7789 44.708 32.3223 42.5392 32.3223C35.5001 32.3223 29.6595 37.2306 28.7463 43.5658C23.895 44.3649 20.2042 48.322 20.2042 53.0972C20.2042 58.4241 24.8272 62.7617 30.5156 62.7617H56.9599C62.6482 62.7617 67.2712 58.4241 67.2712 53.0972C67.3093 49.7489 65.4449 46.6669 62.458 44.9166Z" fill="#455E86"/>
</svg>
