<svg width="73" height="73" viewBox="0 0 73 73" fill="none" xmlns="http://www.w3.org/2000/svg">
<path d="M57.676 18.261C57.239 18.2458 56.822 18.0741 56.5009 17.7774C56.1798 17.4806 55.976 17.0785 55.9264 16.6441C55.5773 13.2746 54.1575 10.1057 51.8753 7.6024C49.593 5.0991 46.5685 3.3932 43.2455 2.73504C39.9226 2.07687 36.4762 2.50109 33.412 3.94544C30.3479 5.38979 27.8273 7.77822 26.2203 10.7603C26.0083 11.1514 25.6615 11.4522 25.2443 11.6068C24.8272 11.7615 24.3681 11.7594 23.9524 11.601C22.5441 11.0239 21.0092 10.8259 19.5006 11.0267C17.6089 11.2869 15.8602 12.1775 14.5373 13.5545C13.2144 14.9315 12.3946 16.7144 12.2103 18.6151C12.1258 19.4926 12.1721 20.3779 12.3478 21.2418C12.442 21.7109 12.3493 22.1982 12.0896 22.6C11.8298 23.0017 11.4235 23.2862 10.9572 23.3929C8.86957 23.864 6.9662 24.9376 5.4832 26.4805C4.00019 28.0235 3.0028 29.9678 2.61476 32.0725C2.22672 34.1771 2.46511 36.3493 3.30034 38.3197C4.13558 40.29 5.53092 41.9718 7.31325 43.1564C7.32663 42.4824 7.35462 41.8583 7.41302 41.2791C7.469 40.7633 7.66437 40.2724 7.97816 39.8591C8.29196 39.4459 8.71234 39.1259 9.19422 38.9334L11.8636 37.8676C12.481 35.2986 13.4993 32.8429 14.8809 30.5907L13.7543 27.9469C13.5399 27.466 13.4656 26.9343 13.5399 26.4131C13.6141 25.8918 13.8339 25.4021 14.174 25.0001C15.2463 23.7246 16.4268 22.5441 17.7024 21.4718C18.1045 21.1362 18.5927 20.9202 19.1115 20.8484C19.6303 20.7766 20.1588 20.8518 20.637 21.0654L23.2784 22.1908C25.5305 20.8092 27.9862 19.791 30.5552 19.1735L31.6198 16.5078C31.8137 16.0224 32.1367 15.5994 32.5538 15.2846C32.971 14.9697 33.4663 14.7751 33.9862 14.7217C35.6586 14.5623 37.3424 14.5623 39.0147 14.7217C39.5317 14.7767 40.0238 14.9715 40.4382 15.2854C40.8526 15.5993 41.1736 16.0202 41.3665 16.5029L42.4323 19.1723C45.0013 19.7898 47.4571 20.808 49.7092 22.1896L52.353 21.063C52.834 20.8486 53.3656 20.7743 53.8869 20.8486C54.4081 20.9228 54.8979 21.1426 55.2998 21.4827C56.5759 22.5567 57.7564 23.7392 58.8281 25.0172C59.1637 25.4193 59.3797 25.9075 59.4515 26.4263C59.5234 26.9451 59.4482 27.4736 59.2345 27.9518L58.1091 30.5931C59.4907 32.8453 60.509 35.301 61.1264 37.87L63.7921 38.9346C64.2763 39.1283 64.6985 39.4504 65.013 39.8664C65.3276 40.2824 65.5226 40.7763 65.577 41.2949C65.6001 41.5164 65.6111 41.7536 65.6269 41.9836C67.736 40.2679 69.2715 37.9495 70.0281 35.338C70.7848 32.7266 70.7266 29.9464 69.8613 27.3689C68.9961 24.7914 67.365 22.5393 65.1859 20.9133C63.0068 19.2874 60.3834 18.365 57.6662 18.2695L57.676 18.261Z" fill="#455E86"/>
<path d="M62.9018 41.1854L59.646 39.8835C59.4602 39.8095 59.2955 39.6909 59.1665 39.5381C59.0375 39.3853 58.9481 39.2031 58.9063 39.0075C58.3277 36.2835 57.2525 33.6893 55.7344 31.3547C55.626 31.1875 55.5603 30.9961 55.5431 30.7976C55.5259 30.599 55.5578 30.3993 55.6359 30.2159L57.0132 26.9856C57.0456 26.9207 57.0599 26.8482 57.0546 26.7758C57.0492 26.7034 57.0244 26.6338 56.9827 26.5744C56.0003 25.403 54.9174 24.3197 53.7464 23.3368C53.6869 23.2909 53.6158 23.2624 53.5411 23.2544C53.4663 23.2465 53.3909 23.2594 53.323 23.2918L50.0903 24.6703C49.907 24.7484 49.7072 24.7803 49.5086 24.7631C49.3101 24.7459 49.1188 24.6802 48.9515 24.5718C46.6169 23.0537 44.0227 21.9785 41.2987 21.3999C41.1031 21.3581 40.9209 21.2687 40.7681 21.1397C40.6153 21.0107 40.4967 20.846 40.4227 20.6602L39.1136 17.3983C39.0877 17.3297 39.0444 17.2692 38.9878 17.2226C38.9312 17.1761 38.8634 17.1452 38.7911 17.1331C37.2721 16.9895 35.7429 16.9895 34.2238 17.1331C34.1483 17.1434 34.077 17.1739 34.0174 17.2215C33.9579 17.269 33.9123 17.3318 33.8855 17.4032L32.5837 20.659C32.5097 20.8448 32.3911 21.0095 32.2383 21.1385C32.0855 21.2675 31.9033 21.3569 31.7077 21.3987C28.9837 21.9773 26.3895 23.0525 24.0549 24.5705C23.888 24.6798 23.6966 24.746 23.4979 24.7632C23.2992 24.7804 23.0993 24.7481 22.9161 24.6691L19.6858 23.293C19.6208 23.2611 19.5484 23.2471 19.4761 23.2524C19.4038 23.2578 19.3342 23.2823 19.2746 23.3235C18.1061 24.309 17.0231 25.3917 16.037 26.5598C15.9909 26.6192 15.9622 26.6903 15.9542 26.7651C15.9463 26.8399 15.9594 26.9154 15.992 26.9832L17.3705 30.2159C17.4486 30.3993 17.4805 30.599 17.4633 30.7976C17.4461 30.9961 17.3804 31.1875 17.272 31.3547C15.7539 33.6893 14.6787 36.2835 14.1001 39.0075C14.0583 39.2031 13.9689 39.3853 13.8399 39.5381C13.7109 39.6909 13.5462 39.8095 13.3604 39.8835L10.0985 41.1866C10.0299 41.2124 9.96935 41.2558 9.92281 41.3123C9.87626 41.3689 9.84538 41.4367 9.83326 41.509C9.68969 43.0281 9.68969 44.5573 9.83326 46.0764C9.84356 46.1519 9.87411 46.2232 9.92167 46.2827C9.96922 46.3423 10.032 46.3878 10.1034 46.4146L13.3592 47.7164C13.545 47.7904 13.7097 47.909 13.8387 48.0618C13.9677 48.2146 14.0571 48.3969 14.0989 48.5924C14.6775 51.3164 15.7527 53.9106 17.2707 56.2453C17.3792 56.4125 17.4449 56.6038 17.4621 56.8024C17.4793 57.0009 17.4474 57.2007 17.3693 57.3841L15.9932 60.6143C15.9608 60.6792 15.9465 60.7517 15.9518 60.8241C15.9572 60.8965 15.982 60.9661 16.0237 61.0255C17.0061 62.1969 18.089 63.2802 19.26 64.2631C19.3192 64.3095 19.3904 64.3384 19.4652 64.3463C19.5401 64.3543 19.6157 64.3411 19.6834 64.3081L22.9161 62.9296C23.0994 62.8515 23.2992 62.8196 23.4978 62.8368C23.6963 62.854 23.8877 62.9197 24.0549 63.0282C26.3895 64.5462 28.9837 65.6215 31.7077 66.2C31.9033 66.2418 32.0855 66.3312 32.2383 66.4602C32.3911 66.5893 32.5097 66.754 32.5837 66.9398L33.8868 70.2016C33.9126 70.2702 33.956 70.3308 34.0125 70.3773C34.0691 70.4239 34.1369 70.4548 34.2092 70.4669C35.7283 70.6104 37.2575 70.6104 38.7765 70.4669C38.8521 70.4566 38.9234 70.426 38.9829 70.3785C39.0425 70.3309 39.088 70.2681 39.1148 70.1968L40.4166 66.941C40.4906 66.7552 40.6092 66.5905 40.762 66.4614C40.9148 66.3324 41.097 66.243 41.2926 66.2012C44.0166 65.6227 46.6108 64.5475 48.9454 63.0294C49.1127 62.9209 49.304 62.8552 49.5026 62.8381C49.7011 62.8209 49.9009 62.8527 50.0843 62.9308L53.3145 64.3081C53.3795 64.3403 53.4519 64.3545 53.5243 64.3491C53.5966 64.3438 53.6662 64.3191 53.7257 64.2777C54.8945 63.2924 55.9776 62.2098 56.9633 61.0414C57.0095 60.982 57.0382 60.9109 57.0461 60.8361C57.0541 60.7613 57.041 60.6857 57.0083 60.618L55.6298 57.3853C55.5517 57.2019 55.5198 57.0022 55.537 56.8036C55.5542 56.605 55.6199 56.4137 55.7284 56.2465C57.2464 53.9118 58.3217 51.3177 58.9002 48.5936C58.942 48.3981 59.0314 48.2158 59.1604 48.063C59.2895 47.9102 59.4542 47.7916 59.64 47.7176L62.9018 46.4134C62.9704 46.3875 63.031 46.3442 63.0775 46.2876C63.1241 46.231 63.1549 46.1632 63.1671 46.091C63.3106 44.5719 63.3106 43.0427 63.1671 41.5236C63.1572 41.4486 63.1274 41.3777 63.0807 41.3182C63.0341 41.2587 62.9723 41.2128 62.9018 41.1854ZM36.5002 64.4833C32.4094 64.4833 28.4105 63.2702 25.0091 60.9975C21.6078 58.7248 18.9567 55.4945 17.3913 51.7151C15.8258 47.9358 15.4162 43.777 16.2143 39.7649C17.0123 35.7527 18.9822 32.0673 21.8748 29.1746C24.7675 26.282 28.4529 24.3121 32.465 23.5141C36.4772 22.716 40.636 23.1256 44.4153 24.6911C48.1947 26.2565 51.425 28.9076 53.6977 32.3089C55.9704 35.7103 57.1835 39.7092 57.1835 43.8C57.1774 49.2837 54.9963 54.541 51.1187 58.4185C47.2412 62.2961 41.9838 64.4772 36.5002 64.4833Z" fill="#455E86"/>
<path d="M36.5 25.55C32.8905 25.55 29.3621 26.6204 26.3609 28.6257C23.3597 30.6311 21.0205 33.4813 19.6392 36.8161C18.2579 40.1508 17.8965 43.8203 18.6007 47.3604C19.3049 50.9006 21.043 54.1524 23.5953 56.7048C26.1476 59.2571 29.3995 60.9952 32.9396 61.6994C36.4798 62.4036 40.1492 62.0422 43.484 60.6609C46.8187 59.2796 49.669 56.9404 51.6743 53.9392C53.6797 50.938 54.75 47.4096 54.75 43.8001C54.7445 38.9615 52.82 34.3227 49.3987 30.9014C45.9773 27.48 41.3385 25.5555 36.5 25.55ZM28.8435 49.0232C28.9597 49.1354 29.0524 49.2697 29.1162 49.4181C29.1799 49.5666 29.2135 49.7262 29.2149 49.8878C29.2163 50.0493 29.1855 50.2095 29.1244 50.359C29.0632 50.5086 28.9728 50.6444 28.8586 50.7586C28.7444 50.8729 28.6085 50.9632 28.459 51.0244C28.3095 51.0856 28.1493 51.1164 27.9877 51.115C27.8262 51.1136 27.6665 51.08 27.5181 51.0162C27.3696 50.9525 27.2354 50.8598 27.1232 50.7436L21.0398 44.6602C20.8117 44.4321 20.6836 44.1227 20.6836 43.8001C20.6836 43.4774 20.8117 43.168 21.0398 42.9399L27.1232 36.8565C27.3526 36.6349 27.66 36.5123 27.979 36.515C28.298 36.5178 28.6031 36.6458 28.8287 36.8714C29.0543 37.0969 29.1822 37.4021 29.185 37.7211C29.1878 38.0401 29.0652 38.3474 28.8435 38.5769L23.6204 43.8001L28.8435 49.0232ZM41.1927 38.3433L33.8927 50.51C33.7235 50.7803 33.455 50.9734 33.1449 51.0477C32.8348 51.122 32.508 51.0717 32.2346 50.9074C31.9613 50.7432 31.7634 50.4782 31.6835 50.1695C31.6036 49.8608 31.648 49.533 31.8073 49.2568L39.1073 37.0901C39.1881 36.9501 39.2959 36.8276 39.4245 36.7297C39.5531 36.6318 39.6999 36.5606 39.8564 36.52C40.0129 36.4795 40.1758 36.4706 40.3358 36.4938C40.4957 36.517 40.6495 36.5718 40.788 36.655C40.9265 36.7383 41.0471 36.8483 41.1426 36.9787C41.2382 37.109 41.3068 37.2571 41.3445 37.4143C41.3822 37.5715 41.3881 37.7346 41.3621 37.8941C41.336 38.0536 41.2784 38.2063 41.1927 38.3433ZM51.9602 44.6602L45.8769 50.7436C45.6474 50.9652 45.3401 51.0878 45.0211 51.0851C44.702 51.0823 44.3969 50.9543 44.1713 50.7288C43.9457 50.5032 43.8178 50.198 43.815 49.879C43.8122 49.56 43.9349 49.2527 44.1565 49.0232L49.3796 43.8001L44.1565 38.5769C43.9349 38.3474 43.8122 38.0401 43.815 37.7211C43.8178 37.4021 43.9457 37.0969 44.1713 36.8714C44.3969 36.6458 44.702 36.5178 45.0211 36.515C45.3401 36.5123 45.6474 36.6349 45.8769 36.8565L51.9602 42.9399C52.1883 43.168 52.3164 43.4774 52.3164 43.8001C52.3164 44.1227 52.1883 44.4321 51.9602 44.6602Z" fill="#F4C600"/>
</svg>
