<svg width="79" height="77" viewBox="0 0 79 77" fill="none" xmlns="http://www.w3.org/2000/svg">
<path fill-rule="evenodd" clip-rule="evenodd" d="M27.5175 33.7873C26.2013 29.059 27.789 23.0359 33.3823 17.3872C34.0782 17.8263 34.9036 18.082 35.7924 18.082H51.219C52.1031 18.082 52.9332 17.8263 53.6291 17.3872C59.2239 23.0359 60.8101 29.059 59.4893 33.7873C56.0871 46.0126 30.9259 46.0126 27.5175 33.7873ZM38.8382 26.4934C38.8382 27.6228 39.4029 28.6334 40.3164 29.3493C41.1388 29.9884 42.2451 30.393 43.4517 30.411H43.4872C44.1306 30.411 44.703 30.6065 45.1011 30.9179C45.4252 31.1735 45.6257 31.5014 45.6257 31.8428C45.6257 32.1841 45.4252 32.512 45.1011 32.7631C44.703 33.079 44.1306 33.2745 43.4872 33.2745C42.9009 33.2745 42.3762 33.112 41.9828 32.8444C41.6511 32.6188 41.4181 32.324 41.361 32.0082C41.2344 31.3344 40.5694 30.8908 39.8828 31.0156C39.1916 31.1389 38.7318 31.7826 38.8598 32.4563C39.0481 33.4369 39.6606 34.2896 40.5401 34.8821C41.0261 35.21 41.594 35.4612 42.2158 35.6115V36.8011C42.2158 37.4869 42.7851 38.0464 43.4887 38.0464C44.1923 38.0464 44.7663 37.4884 44.7663 36.8011V35.6115C45.4961 35.4371 46.1611 35.1168 46.6996 34.6957C47.61 33.9798 48.1778 32.9737 48.1778 31.8443C48.1778 30.7148 47.6085 29.7042 46.6996 28.9883C45.8772 28.3492 44.7709 27.9446 43.5643 27.9266C43.552 27.9266 43.5381 27.9266 43.5288 27.9266C42.8823 27.9266 42.313 27.7341 41.9103 27.4198C41.5862 27.1641 41.3857 26.8363 41.3857 26.4949C41.3857 26.1535 41.5862 25.8256 41.9103 25.5745C42.313 25.2587 42.8808 25.0631 43.5288 25.0631C44.1105 25.0631 44.6352 25.2256 45.0286 25.4933C45.365 25.7188 45.598 26.0136 45.6535 26.3294C45.78 27.0032 46.4404 27.4513 47.1317 27.3265C47.8229 27.2032 48.2781 26.555 48.15 25.8858C47.9664 24.9007 47.3492 24.048 46.4697 23.4555C45.9837 23.1276 45.4159 22.8765 44.7987 22.7306V21.5365C44.7987 20.8507 44.2263 20.2958 43.5258 20.2958C42.8222 20.2958 42.2482 20.8507 42.2482 21.5365V22.7306C41.5184 22.9005 40.8533 23.2209 40.3148 23.6435C39.4014 24.3563 38.8382 25.3624 38.8382 26.4934ZM36.0084 9.40297H51.0061L52.4611 5.57402C52.7373 4.84914 52.1895 4.08666 51.398 4.08666H49.7269C49.3643 4.08666 49.0527 3.93777 48.8305 3.66105C48.1701 2.82939 49.1669 2.28047 48.5065 1.44881C47.0283 -0.41002 39.9816 -0.41002 38.4988 1.44881C37.843 2.28047 38.8398 2.82939 38.1794 3.66105C37.9556 3.93777 37.6455 4.08666 37.2829 4.08666H35.6072C34.8157 4.08666 34.2726 4.84914 34.5488 5.57402L36.0084 9.40297ZM35.7939 15.5961H51.2205C52.2651 15.5961 53.123 14.7599 53.123 13.7417C53.123 12.7191 52.2651 11.8829 51.2205 11.8829H35.7939C34.7447 11.8829 33.8868 12.7191 33.8868 13.7417C33.8868 14.7614 34.7432 15.5961 35.7939 15.5961ZM78.9847 32.2729C78.9539 32.2007 78.8844 32.1541 78.8011 32.1541H74.794C74.6845 32.1541 74.5965 32.0683 74.5965 31.9616V19.407C74.5965 18.8866 74.1599 18.461 73.626 18.461H68.9199C68.3907 18.461 67.954 18.8866 67.954 19.407V31.9616C67.954 32.0683 67.8661 32.1541 67.7565 32.1541H63.7464C63.6677 32.1541 63.5982 32.2007 63.5674 32.2729C63.5365 32.3451 63.5504 32.4263 63.606 32.4819L71.1372 39.818C71.2112 39.8947 71.3378 39.8947 71.4134 39.818L78.94 32.4819C78.9971 32.4263 79.0156 32.3466 78.9847 32.2729ZM15.5996 39.8195C15.6736 39.8962 15.8002 39.8962 15.8758 39.8195L23.4024 32.4834C23.4594 32.4278 23.4764 32.3466 23.4456 32.2744C23.4147 32.2022 23.3453 32.1556 23.2619 32.1556H19.2564C19.1469 32.1556 19.0589 32.0698 19.0589 31.9631V19.4085C19.0589 18.8881 18.6222 18.4625 18.0884 18.4625H13.3823C12.8531 18.4625 12.4164 18.8881 12.4164 19.4085V31.9631C12.4164 32.0698 12.3285 32.1556 12.2189 32.1556H8.20875C8.13006 32.1556 8.06062 32.2022 8.02976 32.2744C7.9989 32.3466 8.01279 32.4278 8.06834 32.4834L15.5996 39.8195Z" fill="#F4C600"/>
<path fill-rule="evenodd" clip-rule="evenodd" d="M76.9664 46.9121C78.1961 48.7243 77.6792 51.1831 75.8246 52.3818L51.2312 68.6059C49.3596 69.8421 47.1716 70.0812 45.0639 69.2751L37.4926 66.3801C35.5423 65.6342 33.5426 65.7786 31.7281 66.7982L31.063 67.1727L21.4935 51.0162L23.2649 50.0191L27.2488 47.7768C28.7146 46.9542 30.2499 46.7105 31.9024 47.0399L53.5225 51.3245C55.4419 51.7035 56.772 53.3713 56.7627 55.2166C56.7581 55.4678 56.7365 55.7234 56.6794 55.9761C56.2381 58.1026 54.0903 59.4892 51.907 59.0576L38.261 56.3551C37.741 56.2483 37.2287 56.5807 37.1238 57.089L37.0667 57.3492C36.9618 57.8605 37.2982 58.3598 37.8197 58.4621L51.4657 61.1646C54.8386 61.8338 58.1576 59.6892 58.8442 56.4077C59.0185 55.5505 59.0016 54.6978 58.818 53.8932L71.353 45.8022C73.2092 44.6005 75.7366 45.1044 76.9664 46.9121ZM17.6238 48.7874C17.1686 48.0159 16.1456 47.7512 15.3587 48.1949L10.0864 51.1621C9.29483 51.6057 9.02327 52.5983 9.47845 53.3698L22.9671 76.139C23.4223 76.9105 24.4406 77.1752 25.2322 76.7315L30.5029 73.7643C31.2945 73.3206 31.566 72.3281 31.1109 71.5566L17.6238 48.7874Z" fill="#465F86"/>
</svg>
