<svg width="79" height="79" viewBox="0 0 79 79" fill="none" xmlns="http://www.w3.org/2000/svg">
<path d="M40.4752 0.931866L42.7871 5.87135L48.0583 6.67871C49.5061 6.89619 49.5945 7.55161 48.5598 8.61716L44.8199 12.4663L45.6789 17.7106C45.9579 19.4227 45.4465 19.8358 44.2767 19.1893L39.503 16.5468V16.5309L39.4971 16.5468L34.7175 19.1953C33.5486 19.8417 33.0412 19.4276 33.3212 17.7156L34.1743 12.4722L30.4404 8.62312C29.4056 7.55856 29.494 6.90115 30.9419 6.6797L36.213 5.87234L38.5189 0.927893C39.0999 -0.304496 39.8913 -0.315419 40.4752 0.931866Z" fill="#455E86"/>
<path d="M21.7927 10.5061L23.7947 14.7782L28.3518 15.4764C29.6041 15.6631 29.6815 16.2311 28.7868 17.1576L25.5544 20.4824L26.2932 25.0137C26.5365 26.4973 26.0916 26.8549 25.0827 26.2968L20.9555 24.0097L20.9505 23.9948L20.9456 24.0097L16.8184 26.2968C15.8045 26.8558 15.3646 26.5033 15.6079 25.0197L16.3467 20.4834L13.1143 17.1586C12.2195 16.236 12.297 15.669 13.5493 15.4774L18.1064 14.7792L20.1084 10.5071C20.604 9.43557 21.2922 9.42464 21.7927 10.5061Z" fill="#455E86"/>
<path d="M58.8886 10.48L60.8906 14.7462L65.4477 15.4463C66.699 15.6369 66.7765 16.206 65.8827 17.1265L62.6493 20.4523L63.3891 24.9886C63.6324 26.4673 63.1925 26.8297 62.1786 26.2647L58.0514 23.9796L58.0465 23.9687L58.0405 23.9846L53.9133 26.2706C52.9044 26.8297 52.4605 26.4722 52.7028 24.9886L53.4426 20.4573L50.2102 17.1305C49.3155 16.2099 49.3929 15.6409 50.6452 15.4503L55.2013 14.7511L57.2034 10.474C57.6989 9.40946 58.3871 9.39754 58.8886 10.48Z" fill="#455E86"/>
<path d="M7.92764 25.0952L9.63472 28.7159L13.5295 29.3048C14.6 29.4706 14.6675 29.9522 13.9019 30.7328L11.1402 33.5521L11.7708 37.3952C11.9783 38.6525 11.6 38.9524 10.742 38.4767L7.20867 36.5422V36.5313L7.2037 36.5422L3.67536 38.4806C2.81139 38.9563 2.43403 38.6515 2.64059 37.3942L3.27217 33.5511L0.510472 30.7318C-0.250213 29.9522 -0.18765 29.4696 0.88287 29.3097L4.77765 28.7199L6.48473 25.0952C6.91273 24.1895 7.49765 24.1845 7.92764 25.0952Z" fill="#455E86"/>
<path d="M31.5219 57.5273C22.1186 59.4777 16.2129 65.0418 14.3757 73.0588C13.8692 75.2267 14.6498 75.8583 15.623 76.1572C22.2954 78.2108 34.651 78.9407 39.4972 78.9407C44.3443 78.9407 56.7 78.2118 63.3723 76.1572C64.3445 75.8583 65.1261 75.2257 64.6246 73.0588C62.9334 65.6784 57.7864 60.3824 49.6452 58.0646C48.3165 58.8759 46.8935 59.5333 45.394 60.015C44.8925 61.587 43.6561 62.87 41.9391 62.87H37.2936C35.1833 62.87 33.4147 61.1014 33.4147 58.9852V58.582L31.5219 57.5273Z" fill="#455E86"/>
<path fill-rule="evenodd" clip-rule="evenodd" d="M40.1753 24.9153C36.6946 24.8021 33.1772 25.7485 30.1414 27.7753C26.7332 30.0564 24.3489 33.4189 23.2516 37.1786C22.9467 37.1478 22.5842 37.1627 22.1552 37.2819C20.5465 37.7417 19.3359 39.0555 18.7927 40.2204C18.0837 41.7308 17.7887 43.7318 18.0996 45.7994C18.4153 47.859 19.2843 49.5601 20.3757 50.6098C21.4621 51.6654 22.6984 52.012 23.9179 51.7488C25.7441 51.3605 26.6488 51.0706 26.3906 49.3744L25.1543 41.1399C25.4075 36.6811 27.7094 32.4864 31.5734 29.9094C36.7343 26.4605 43.506 26.683 48.4296 30.4636C51.8587 33.0912 53.8498 37.0267 54.0782 41.1598L53.2142 46.9176C51.2857 52.1937 46.511 55.8442 40.9777 56.3675H37.2944C36.348 56.3675 35.5824 57.1282 35.5824 58.0796V58.9843C35.5824 59.9306 36.348 60.6963 37.2944 60.6963H41.94C42.8864 60.6963 43.652 59.9306 43.652 58.9843V58.5086C47.8209 57.4907 51.4614 54.9296 53.8309 51.3556L55.3155 51.7488C56.531 52.0636 57.7773 51.6654 58.8627 50.6098C59.9551 49.5601 60.824 47.859 61.1388 45.7994C61.4496 43.7318 61.1438 41.7348 60.4457 40.2204C59.7475 38.705 58.7028 37.7377 57.5032 37.3951C56.9958 37.2501 56.4476 37.1935 55.9769 37.1836C54.9838 33.7794 52.9411 30.686 49.9977 28.4268C47.1009 26.2093 43.656 25.0285 40.1753 24.9153Z" fill="#455E86"/>
<path fill-rule="evenodd" clip-rule="evenodd" d="M39.4981 30.1699C32.9767 30.1699 27.7164 35.2544 27.7164 41.9516C27.7164 48.6548 32.9767 53.7343 39.4981 53.7343C46.0255 53.7343 51.2808 48.6498 51.2808 41.9516C51.2808 35.2544 46.0255 30.1699 39.4981 30.1699ZM33.8754 36.0042C35.0343 37.1104 37.1138 37.8493 39.4971 37.8493C41.8814 37.8493 43.9659 37.1104 45.1248 36.0042C46.7028 37.4937 47.6898 39.604 47.6898 41.9516C47.6898 46.4869 44.0384 50.1394 39.4971 50.1394C34.9618 50.1394 31.3103 46.4869 31.3103 41.9516C31.3103 39.604 32.2984 37.4937 33.8754 36.0042Z" fill="#455E86"/>
<path d="M72.5124 25.0952L74.2194 28.7159L78.1142 29.3048C79.1848 29.4706 79.2523 29.9522 78.4866 30.7328L75.7249 33.5521L76.3565 37.3952C76.5631 38.6525 76.1857 38.9524 75.3267 38.4767L71.7944 36.5422V36.5313L71.7884 36.5422L68.2601 38.4806C67.3961 38.9563 67.0188 38.6515 67.2253 37.3942L67.8569 33.5511L65.1002 30.7318C64.3345 29.9522 64.3971 29.4696 65.4676 29.3097L69.3624 28.7199L71.0695 25.0952C71.4985 24.1895 72.0824 24.1845 72.5124 25.0952Z" fill="#455E86"/>
</svg>
