<svg width="78" height="78" viewBox="0 0 78 78" fill="none" xmlns="http://www.w3.org/2000/svg">
<path d="M22.6051 23.718C23.8335 23.718 24.8293 22.7222 24.8293 21.4937C24.8293 20.2653 23.8335 19.2695 22.6051 19.2695C21.3767 19.2695 20.3809 20.2653 20.3809 21.4937C20.3809 22.7222 21.3767 23.718 22.6051 23.718Z" fill="#465F85"/>
<path d="M42.4634 67.1735L45.2153 70.3215H50.8118C51.7294 70.3205 52.6091 69.9555 53.2578 69.3066C53.9065 68.6576 54.2712 67.7778 54.2718 66.8602V66.4836C51.7759 65.6798 49.5993 64.1049 48.0552 61.9854C46.5112 59.866 45.6793 57.3114 45.6793 54.6892C45.6793 52.067 46.5112 49.5124 48.0552 47.3929C49.5993 45.2735 51.7759 43.6986 54.2718 42.8947V24.2661V24.2479V12.933C54.2729 10.9788 55.0206 9.09885 56.362 7.67773H22.7172C20.1135 7.68064 17.6172 8.71625 15.7761 10.5574C13.935 12.3985 12.8994 14.8947 12.8965 17.4984V54.1121H38.7206C39.0438 54.1121 39.3538 54.2405 39.5824 54.4691C39.8109 54.6976 39.9393 55.0076 39.9393 55.3309V60.4667C39.9408 62.9341 40.8377 65.3172 42.4634 67.1735ZM30.6269 18.0822H34.9632C35.2864 18.0822 35.5964 18.2106 35.825 18.4392C36.0535 18.6677 36.1819 18.9777 36.1819 19.301C36.1819 19.6242 36.0535 19.9342 35.825 20.1627C35.5964 20.3913 35.2864 20.5197 34.9632 20.5197H30.6269C30.3036 20.5197 29.9936 20.3913 29.7651 20.1627C29.5365 19.9342 29.4081 19.6242 29.4081 19.301C29.4081 18.9777 29.5365 18.6677 29.7651 18.4392C29.9936 18.2106 30.3036 18.0822 30.6269 18.0822ZM30.6269 22.4697H45.7296C46.0528 22.4697 46.3628 22.5981 46.5914 22.8267C46.82 23.0552 46.9484 23.3652 46.9484 23.6885C46.9484 24.0117 46.82 24.3217 46.5914 24.5502C46.3628 24.7788 46.0528 24.9072 45.7296 24.9072H30.6269C30.3036 24.9072 29.9936 24.7788 29.7651 24.5502C29.5365 24.3217 29.4081 24.0117 29.4081 23.6885C29.4081 23.3652 29.5365 23.0552 29.7651 22.8267C29.9936 22.5981 30.3036 22.4697 30.6269 22.4697ZM30.6269 28.9218H34.9632C35.2864 28.9218 35.5964 29.0502 35.825 29.2787C36.0535 29.5073 36.1819 29.8173 36.1819 30.1405C36.1819 30.4637 36.0535 30.7737 35.825 31.0023C35.5964 31.2309 35.2864 31.3593 34.9632 31.3593H30.6269C30.3036 31.3593 29.9936 31.2309 29.7651 31.0023C29.5365 30.7737 29.4081 30.4637 29.4081 30.1405C29.4081 29.8173 29.5365 29.5073 29.7651 29.2787C29.9936 29.0502 30.3036 28.9218 30.6269 28.9218ZM30.6269 33.3093H45.7296C46.0528 33.3093 46.3628 33.4377 46.5914 33.6662C46.82 33.8948 46.9484 34.2048 46.9484 34.528C46.9484 34.8512 46.82 35.1612 46.5914 35.3898C46.3628 35.6184 46.0528 35.7468 45.7296 35.7468H30.6269C30.3036 35.7468 29.9936 35.6184 29.7651 35.3898C29.5365 35.1612 29.4081 34.8512 29.4081 34.528C29.4081 34.2048 29.5365 33.8948 29.7651 33.6662C29.9936 33.4377 30.3036 33.3093 30.6269 33.3093ZM30.6269 39.7613H34.9632C35.2864 39.7613 35.5964 39.8897 35.825 40.1183C36.0535 40.3469 36.1819 40.6568 36.1819 40.9801C36.1819 41.3033 36.0535 41.6133 35.825 41.8419C35.5964 42.0704 35.2864 42.1988 34.9632 42.1988H30.6269C30.3036 42.1988 29.9936 42.0704 29.7651 41.8419C29.5365 41.6133 29.4081 41.3033 29.4081 40.9801C29.4081 40.6568 29.5365 40.3469 29.7651 40.1183C29.9936 39.8897 30.3036 39.7613 30.6269 39.7613ZM22.6038 47.8331C21.6818 47.8331 20.7804 47.5597 20.0138 47.0474C19.2471 46.5351 18.6496 45.807 18.2968 44.9551C17.944 44.1032 17.8518 43.1658 18.0318 42.2615C18.2117 41.3572 18.6559 40.5265 19.3079 39.8746C19.96 39.2227 20.7908 38.7788 21.6951 38.5991C22.5995 38.4194 23.5368 38.5119 24.3886 38.8649C25.2404 39.2179 25.9684 39.8156 26.4805 40.5824C26.9926 41.3491 27.2658 42.2506 27.2655 43.1726C27.2623 44.4073 26.7699 45.5904 25.8962 46.4628C25.0224 47.3352 23.8385 47.8257 22.6038 47.827V47.8331ZM22.6038 36.9984C21.6815 36.9987 20.7799 36.7254 20.0129 36.2132C19.2459 35.7009 18.6481 34.9728 18.295 34.1208C17.9419 33.2687 17.8493 32.3311 18.0291 31.4265C18.2089 30.5219 18.6529 29.691 19.305 29.0387C19.9571 28.3865 20.7879 27.9423 21.6925 27.7622C22.597 27.5822 23.5346 27.6745 24.3868 28.0274C25.2389 28.3803 25.9672 28.9779 26.4796 29.7448C26.992 30.5116 27.2655 31.4132 27.2655 32.3355C27.2626 33.5705 26.7704 34.754 25.8967 35.6269C25.0229 36.4997 23.8389 36.9907 22.6038 36.9923V36.9984ZM22.6038 26.1613C21.6818 26.1613 20.7805 25.8879 20.0139 25.3757C19.2473 24.8634 18.6498 24.1354 18.297 23.2835C17.9441 22.4317 17.8518 21.4944 18.0317 20.5901C18.2116 19.6858 18.6555 18.8552 19.3075 18.2032C19.9594 17.5513 20.7901 17.1073 21.6944 16.9274C22.5987 16.7476 23.536 16.8399 24.3878 17.1927C25.2396 17.5455 25.9677 18.143 26.4799 18.9097C26.9921 19.6763 27.2655 20.5776 27.2655 21.4996C27.2626 22.7345 26.7704 23.9179 25.8966 24.7905C25.0228 25.6632 23.8387 26.1539 22.6038 26.1552V26.1613ZM30.6269 46.5778C30.3036 46.5778 29.9936 46.4494 29.7651 46.2208C29.5365 45.9923 29.4081 45.6823 29.4081 45.359C29.4081 45.0358 29.5365 44.7258 29.7651 44.4973C29.9936 44.2687 30.3036 44.1403 30.6269 44.1403H45.7296C46.0528 44.1403 46.3628 44.2687 46.5914 44.4973C46.82 44.7258 46.9484 45.0358 46.9484 45.359C46.9484 45.6823 46.82 45.9923 46.5914 46.2208C46.3628 46.4494 46.0528 46.5778 45.7296 46.5778H30.6269Z" fill="#465F85"/>
<path d="M67.2195 23.0342V12.9332C67.2211 11.5394 66.669 10.2021 65.6846 9.21541C64.7002 8.22872 63.3641 7.67349 61.9703 7.67188C60.5766 7.67026 59.2392 8.22239 58.2525 9.2068C57.2658 10.1912 56.7106 11.5273 56.709 12.921V12.932V23.0342H67.2195Z" fill="#F3C500"/>
<path d="M10.257 70.3227H41.9798L40.6283 68.7785C38.6131 66.476 37.5023 63.5203 37.5022 60.4605V56.5508H4.875V64.9467C4.87822 66.3726 5.44648 67.739 6.45528 68.7467C7.46408 69.7543 8.83115 70.321 10.257 70.3227Z" fill="#465F85"/>
<path d="M22.6051 34.5539C23.8335 34.5539 24.8293 33.5581 24.8293 32.3297C24.8293 31.1013 23.8335 30.1055 22.6051 30.1055C21.3767 30.1055 20.3809 31.1013 20.3809 32.3297C20.3809 33.5581 21.3767 34.5539 22.6051 34.5539Z" fill="#465F85"/>
<path d="M22.6051 40.9434C22.1652 40.9434 21.7351 41.0738 21.3694 41.3182C21.0036 41.5626 20.7185 41.91 20.5502 42.3164C20.3818 42.7228 20.3378 43.17 20.4236 43.6015C20.5094 44.033 20.7213 44.4293 21.0323 44.7403C21.3434 45.0514 21.7397 45.2632 22.1712 45.3491C22.6026 45.4349 23.0498 45.3908 23.4563 45.2225C23.8627 45.0541 24.21 44.7691 24.4544 44.4033C24.6988 44.0375 24.8293 43.6075 24.8293 43.1676C24.829 42.5778 24.5945 42.0122 24.1775 41.5952C23.7604 41.1781 23.1949 40.9437 22.6051 40.9434Z" fill="#465F85"/>
<path d="M67.9717 55.9043H58.0888C57.7656 55.9043 57.4556 55.7759 57.227 55.5474C56.9985 55.3188 56.8701 55.0088 56.8701 54.6856V44.8027C55.0168 45.0299 53.2646 45.7733 51.8134 46.9482C50.3622 48.123 49.2703 49.682 48.6623 51.4474C48.0542 53.2127 47.9545 55.1134 48.3744 56.9328C48.7943 58.7521 49.717 60.4168 51.0373 61.7371C52.3576 63.0574 54.0223 63.9801 55.8416 64.4C57.661 64.8199 59.5617 64.7202 61.327 64.1121C63.0924 63.5041 64.6514 62.4122 65.8262 60.961C67.0011 59.5098 67.7445 57.7576 67.9717 55.9043Z" fill="#F3C500"/>
<path d="M64.3887 39.7305V48.3946H73.0528C72.7775 46.1927 71.7761 44.1453 70.207 42.5762C68.6379 41.0071 66.5906 40.0058 64.3887 39.7305Z" fill="#F3C500"/>
</svg>
