<svg width="72" height="72" viewBox="0 0 72 72" fill="none" xmlns="http://www.w3.org/2000/svg">
<path d="M15.1087 25.3772C13.9725 25.4729 12.9276 25.8962 12.0712 26.5529V21.4341C12.0712 19.6524 13.3945 18.1688 15.1087 17.9227V25.3772ZM56.378 17.8833H53.6554V19.2108C55.4808 19.9083 56.8884 21.5227 56.8884 23.6194V33.4688C58.0247 33.5687 59.0695 33.9905 59.9301 34.6444V21.4341C59.9287 19.4808 58.3312 17.8833 56.378 17.8833ZM26.3053 25.3533H17.4319V3.61271C17.4319 1.62709 19.1615 0.00146484 21.2751 0.00146484H47.4848C49.6012 0.00146484 51.3309 1.6285 51.3309 3.61271V18.8354H31.5717C28.8689 18.8354 26.3053 20.7929 26.3053 23.6194V25.3533ZM22.8529 7.8174C22.8529 8.45865 23.3719 8.98178 24.0131 8.98178H44.7455C45.3867 8.98178 45.9098 8.46006 45.9098 7.8174C45.9098 7.17475 45.3881 6.65725 44.7455 6.65725H24.0131C23.3719 6.65725 22.8529 7.17615 22.8529 7.8174ZM24.0131 17.3166H44.7455C45.3867 17.3166 45.9098 16.7949 45.9098 16.1565C45.9098 15.5152 45.3881 14.9921 44.7455 14.9921H24.0131C23.3719 14.9921 22.8529 15.5138 22.8529 16.1565C22.8529 16.7949 23.3719 17.3166 24.0131 17.3166ZM28.6298 23.6194V25.3533H31.2848C33.5011 25.3533 35.4501 26.5332 36.4823 28.4949L38.7422 32.7882C38.97 33.2227 39.3398 33.4463 39.8306 33.4463H54.5681V23.6208C54.5681 22.2652 53.2448 21.1613 51.6262 21.1613H31.5717C29.9531 21.1599 28.6298 22.2638 28.6298 23.6194ZM56.378 35.7694H39.8306C38.475 35.7694 37.3148 35.0677 36.6848 33.8724L34.425 29.5749C33.795 28.3754 32.6348 27.6779 31.2834 27.6779H15.6178C13.6645 27.6779 12.0698 29.2726 12.0698 31.2258V60.0216C12.0698 61.9791 13.6645 63.5738 15.6178 63.5738H22.0992L22.2623 63.2504C21.8883 62.5163 21.5733 61.7513 21.3173 60.9666L20.0573 60.556C18.7622 60.1369 17.8973 58.9458 17.8973 57.586V54.8635C17.8973 53.5037 18.7622 52.3126 20.0573 51.8893L21.3173 51.4829C21.569 50.6982 21.8869 49.9318 22.2623 49.1991L21.6604 48.0151C21.0459 46.8071 21.2779 45.3488 22.2384 44.3869L24.1594 42.4618C25.1198 41.5013 26.5795 41.2693 27.7903 41.888L28.9701 42.4899C29.7042 42.1158 30.4692 41.7966 31.2539 41.5449L31.6645 40.2849C32.0836 38.9897 33.2747 38.1249 34.6345 38.1249H37.357C38.7169 38.1249 39.908 38.9897 40.3312 40.2849L40.7376 41.5449C41.5223 41.7966 42.2887 42.1144 43.0214 42.4899L44.2055 41.888C45.4134 41.2735 46.8717 41.5013 47.8336 42.4618L49.7587 44.3869C50.7192 45.3474 50.947 46.8071 50.3325 48.0151L49.7306 49.1991C50.1047 49.9332 50.4239 50.6982 50.6756 51.4829L51.9356 51.8893C53.2308 52.3111 54.0956 53.5037 54.0956 54.8635V57.586C54.0956 58.9458 53.2308 60.1369 51.9356 60.556L50.6756 60.9666C50.4239 61.7513 50.1061 62.5177 49.7306 63.2504L49.8937 63.5738H56.3751C58.3284 63.5738 59.9273 61.9791 59.9273 60.0216V39.3216C59.9287 37.3627 58.3312 35.7694 56.378 35.7694Z" fill="#455E86"/>
<path d="M35.7739 51.0483C34.3423 51.0483 33.0472 51.6262 32.1106 52.5628C31.1741 53.4993 30.5961 54.7945 30.5961 56.2218C30.5961 57.6534 31.1741 58.9486 32.1106 59.8851C33.0472 60.8217 34.3423 61.3997 35.7739 61.3997C37.2013 61.3997 38.4964 60.8217 39.433 59.8851C40.3695 58.9486 40.9475 57.6534 40.9475 56.2218C40.9475 54.7945 40.3695 53.4993 39.433 52.5628C38.4964 51.6262 37.2013 51.0483 35.7739 51.0483ZM50.9938 58.3467L48.973 59.0048C48.7058 59.092 48.5145 59.2917 48.4428 59.5631C48.1405 60.719 47.682 61.8117 47.0956 62.82C46.9522 63.0633 46.9438 63.3389 47.0717 63.5892L48.0406 65.4862C48.1995 65.8012 48.1405 66.1683 47.893 66.4186L45.9678 68.3395C45.7161 68.5912 45.3505 68.6503 45.0355 68.4872L43.1384 67.5225C42.8909 67.3945 42.6125 67.4029 42.3734 67.5464C41.3652 68.1328 40.2683 68.5912 39.1166 68.8936C38.8409 68.9653 38.6427 69.1565 38.5541 69.4237L37.8959 71.4445C37.7877 71.7834 37.4895 71.9986 37.1352 71.9986H34.4127C34.0625 71.9986 33.7588 71.7834 33.6519 71.4445L32.9938 69.4237C32.9066 69.1565 32.7069 68.9653 32.4355 68.8936C31.2795 68.5912 30.1827 68.1328 29.1786 67.5464C28.9353 67.4029 28.6597 67.3945 28.4094 67.5225L26.5123 68.4872C26.1973 68.6503 25.8303 68.5912 25.58 68.3395L23.6591 66.4186C23.4073 66.1668 23.3483 65.8012 23.5114 65.4862L24.4761 63.5892C24.6041 63.3375 24.5956 63.0633 24.4522 62.82C23.8658 61.8117 23.4073 60.719 23.105 59.5631C23.0333 59.2917 22.842 59.0934 22.5748 59.0048L20.5541 58.3467C20.2152 58.2384 20 57.9361 20 57.5859V54.8634C20 54.509 20.2152 54.2095 20.5541 54.1026L22.5748 53.4445C22.842 53.3573 23.0333 53.1576 23.105 52.882C23.4073 51.7303 23.8658 50.6334 24.4522 49.6293C24.5956 49.3861 24.6041 49.1076 24.4761 48.8601L23.5114 46.9631C23.3483 46.6481 23.4073 46.2811 23.6591 46.0308L25.58 44.1056C25.8317 43.8581 26.1973 43.799 26.5123 43.9579L28.4094 44.9268C28.6611 45.0548 28.9353 45.0464 29.1786 44.9029C30.1827 44.3165 31.2795 43.8581 32.4355 43.5515C32.7069 43.484 32.9052 43.2928 32.9938 43.0256L33.6519 41.0048C33.7602 40.6659 34.0625 40.4465 34.4127 40.4465H37.1352C37.4895 40.4465 37.7891 40.6659 37.8959 41.0048L38.5541 43.0256C38.6412 43.2928 38.8409 43.484 39.1166 43.5515C40.2683 43.8581 41.3652 44.3165 42.3734 44.9029C42.6167 45.0464 42.8923 45.0548 43.1427 44.9268L45.0355 43.9579C45.3505 43.799 45.7175 43.8581 45.9678 44.1056L47.893 46.0308C48.1405 46.2825 48.1995 46.6481 48.0406 46.9631L47.0717 48.8601C46.9438 49.1076 46.9522 49.3861 47.0956 49.6293C47.682 50.6334 48.1405 51.7303 48.447 52.882C48.5145 53.1576 48.7058 53.3559 48.973 53.4445L50.9938 54.1026C51.3327 54.2109 51.5478 54.509 51.5478 54.8634V57.5859C51.5478 57.9361 51.3327 58.2384 50.9938 58.3467ZM43.272 56.2218C43.272 54.1533 42.4311 52.2801 41.0755 50.9203C39.7156 49.5647 37.8425 48.7237 35.7739 48.7237C33.7011 48.7237 31.828 49.5647 30.4681 50.9203C29.1125 52.2801 28.2716 54.1533 28.2716 56.2218C28.2716 58.2947 29.1125 60.1678 30.4681 61.5276C31.828 62.8833 33.7011 63.72 35.7739 63.72C37.8425 63.72 39.7156 62.8833 41.0755 61.5276C42.4311 60.1678 43.272 58.2947 43.272 56.2218Z" fill="#F4C600"/>
</svg>
