<svg width="72" height="73" viewBox="0 0 72 73" fill="none" xmlns="http://www.w3.org/2000/svg">
<path fill-rule="evenodd" clip-rule="evenodd" d="M69.75 63.7072C69.75 67.5797 66.654 70.7187 62.8345 70.7187H9.16552C5.346 70.7187 2.25 67.5797 2.25 63.7072V62.5556C2.25 62.1629 2.56584 61.8427 2.95312 61.8427H24.4706V65.3028C24.4706 66.2463 25.2274 67.0137 26.1581 67.0137H45.8421C46.7727 67.0137 47.5296 66.2463 47.5296 65.3028V61.8427H69.0469C69.4342 61.8427 69.75 62.1629 69.75 62.5556V63.7072ZM26.4393 61.8428V65.0177H45.5607V61.8428H26.4393ZM9.6577 59.8467H6.98583V23.3158C6.98583 22.2949 7.8068 21.4624 8.81381 21.4624H38.3566C38.5786 22.3974 38.8752 23.3031 39.2415 24.1714H10.6421C10.0984 24.1714 9.6577 24.6182 9.6577 25.1694V59.8467ZM62.3423 32.7922V59.8467H65.0142V31.1097C64.1805 31.7506 63.2866 32.3147 62.3423 32.7922Z" fill="#F4C600"/>
<path fill-rule="evenodd" clip-rule="evenodd" d="M60.7471 59.8467V33.6342C59.0025 34.251 57.1281 34.5873 55.1761 34.5873C48.9788 34.5873 43.5607 31.2076 40.6145 26.1676H12V59.8467H60.7471ZM55.1762 2.28125C63.4313 2.28125 70.1235 9.0664 70.1235 17.4363C70.1235 21.6692 68.4113 25.4961 65.6515 28.2456C64.3905 26.0433 62.4827 24.2873 60.2012 23.2293C62.4686 21.8906 64.1414 19.6939 64.8297 17.1208C65.1482 17.0469 65.3877 16.7565 65.3877 16.412V12.5082C65.3877 12.1638 65.1482 11.8733 64.8297 11.7995C63.6514 7.39453 59.6942 4.31983 55.1762 4.31983C50.6581 4.31983 46.7012 7.39453 45.5228 11.7995C45.2042 11.8733 44.9647 12.1638 44.9647 12.5082V16.4122C44.9647 16.812 45.2873 17.139 45.6818 17.139H46.6366C47.031 17.139 47.3537 16.812 47.3537 16.4122V12.6021C48.1993 8.92739 51.4428 6.31578 55.1764 6.31578C58.9098 6.31578 62.1535 8.92739 62.9991 12.6019V16.3182C62.3325 19.2147 60.1385 21.5253 57.3113 22.3135C56.8144 22.2235 56.3073 22.1645 55.7916 22.1381C55.6026 22.0564 55.3948 22.0111 55.1764 22.0111C54.958 22.0111 54.75 22.0563 54.561 22.1381C50.4656 22.3471 46.7593 24.6518 44.7012 28.2456C41.9415 25.496 40.2291 21.669 40.2291 17.4362C40.2288 9.0664 46.921 2.28125 55.1762 2.28125ZM51.0202 14.4973C51.0202 16.8251 52.8808 18.7112 55.1765 18.7112C57.4724 18.7112 59.3328 16.8249 59.3328 14.4973C59.3328 12.17 57.4718 10.2842 55.1765 10.2842C52.8812 10.2842 51.0202 12.17 51.0202 14.4973ZM49.0516 14.4973C49.0516 17.9269 51.7941 20.7073 55.1767 20.7073C58.5592 20.7073 61.3016 17.9269 61.3016 14.4973C61.3016 11.0681 58.5587 8.28807 55.1767 8.28807C51.7945 8.28807 49.0516 11.0681 49.0516 14.4973ZM64.1318 29.5708C61.636 31.4677 58.5355 32.5912 55.1762 32.5912C51.817 32.5912 48.7166 31.4677 46.2208 29.571C47.7404 26.6779 50.532 24.6833 53.7302 24.222C53.9685 24.7931 54.5261 25.1937 55.1762 25.1937C55.7071 25.1937 56.1762 24.9266 56.4603 24.5176C56.7656 24.478 57.0667 24.4241 57.3627 24.3572C60.2574 24.9999 62.7374 26.9158 64.1318 29.5708ZM43.4333 45.8548C43.8177 45.4652 44.4409 45.4652 44.8253 45.8548C45.2096 46.2445 45.2096 46.8764 44.8253 47.2661L39.807 52.354C39.4227 52.7436 38.7995 52.7436 38.4151 52.354C38.2229 52.1591 38.1269 51.9037 38.1269 51.6484L38.1267 35.3639C38.1267 34.8127 38.5674 34.3659 39.1111 34.3659C39.6548 34.3659 40.0955 34.8127 40.0955 35.3639V49.2391L43.4333 45.8548ZM29.3137 41.1575C28.9294 41.5471 28.3062 41.5471 27.9218 41.1575C27.5375 40.7678 27.5375 40.1359 27.9218 39.7462L32.94 34.6583C33.3244 34.2687 33.9476 34.2687 34.332 34.6583C34.5242 34.8532 34.6202 35.1086 34.6202 35.3639L34.6204 51.6484C34.6204 52.1996 34.1797 52.6464 33.636 52.6464C33.0923 52.6464 32.6516 52.1996 32.6516 51.6484V37.7732L29.3137 41.1575Z" fill="#455E86"/>
</svg>
