<svg width="73" height="72" viewBox="0 0 73 72" fill="none" xmlns="http://www.w3.org/2000/svg">
<path d="M46.7656 36C46.7656 36.2984 46.6455 36.5845 46.4315 36.7955C46.2176 37.0065 45.9275 37.125 45.625 37.125H42.2031V39.375H49.0469V32.625H46.7656V36Z" fill="#F4C600"/>
<path d="M42.2031 32.625H44.4844V34.875H42.2031V32.625Z" fill="#F4C600"/>
<path d="M46.7441 41.625V43.875H49.0471V41.625H46.7658H46.7441Z" fill="#F4C600"/>
<path d="M42.2031 41.625H44.4627V43.875H42.2031V41.625Z" fill="#F4C600"/>
<path d="M17.1094 6.75H30.7969C31.0994 6.75 31.3895 6.63147 31.6034 6.42049C31.8173 6.20952 31.9375 5.92337 31.9375 5.625V4.5H15.9688V5.625C15.9688 5.92337 16.0889 6.20952 16.3028 6.42049C16.5167 6.63147 16.8069 6.75 17.1094 6.75Z" fill="#455E86"/>
<path d="M43.3438 54V50.625H35.3594C35.0569 50.625 34.7667 50.5065 34.5528 50.2955C34.3389 50.0845 34.2188 49.7984 34.2188 49.5V20.25C34.2188 19.9516 34.3389 19.6655 34.5528 19.4545C34.7667 19.2435 35.0569 19.125 35.3594 19.125H43.3438V7.875C43.3438 6.97989 42.9832 6.12145 42.3415 5.48851C41.6998 4.85558 40.8294 4.5 39.9219 4.5H34.2188V5.625C34.2188 6.52011 33.8582 7.37855 33.2165 8.01149C32.5748 8.64442 31.7044 9 30.7969 9H17.1094C16.2018 9 15.3315 8.64442 14.6897 8.01149C14.048 7.37855 13.6875 6.52011 13.6875 5.625V4.5H7.98438C7.07684 4.5 6.20647 4.85558 5.56474 5.48851C4.92302 6.12145 4.5625 6.97989 4.5625 7.875V64.125C4.5625 65.0201 4.92302 65.8785 5.56474 66.5115C6.20647 67.1444 7.07684 67.5 7.98438 67.5H39.9219C40.8294 67.5 41.6998 67.1444 42.3415 66.5115C42.9832 65.8785 43.3438 65.0201 43.3438 64.125V54ZM17.7424 32.436L14.3205 34.686C14.1329 34.8089 13.9128 34.8746 13.6875 34.875V40.5H11.4062V34.875C11.181 34.8746 10.9608 34.8089 10.7732 34.686L7.35133 32.436C7.19516 32.3332 7.06712 32.194 6.97858 32.0308C6.89003 31.8675 6.84372 31.6852 6.84375 31.5V29.25C6.84375 28.9516 6.96392 28.6655 7.17783 28.4545C7.39174 28.2435 7.68186 28.125 7.98438 28.125H17.1094C17.4119 28.125 17.702 28.2435 17.9159 28.4545C18.1298 28.6655 18.25 28.9516 18.25 29.25V31.5C18.25 31.6852 18.2037 31.8675 18.1152 32.0308C18.0266 32.194 17.8986 32.3332 17.7424 32.436ZM20.5312 40.5H18.25V36H20.5312V40.5ZM25.0938 40.5H22.8125V33.75H25.0938V40.5ZM29.6562 40.5H27.375V31.5H29.6562V40.5Z" fill="#455E86"/>
<path d="M9.125 30.8981L11.7519 32.625H13.3419L15.9688 30.8981V30.375H9.125V30.8981Z" fill="#455E86"/>
<path d="M59.3125 27.4072L54.2162 21.375H36.5V48.375H59.3125V27.4072ZM55.8906 45C55.8906 45.2984 55.7705 45.5845 55.5565 45.7955C55.3426 46.0065 55.0525 46.125 54.75 46.125H41.0625C40.76 46.125 40.4699 46.0065 40.256 45.7955C40.042 45.5845 39.9219 45.2984 39.9219 45V31.5C39.9219 31.2016 40.042 30.9155 40.256 30.7045C40.4699 30.4935 40.76 30.375 41.0625 30.375H54.75C55.0525 30.375 55.3426 30.4935 55.5565 30.7045C55.7705 30.9155 55.8906 31.2016 55.8906 31.5V45Z" fill="#F4C600"/>
<path d="M68.4375 31.9072L63.3412 25.875H60.9869L61.3291 26.28C61.5 26.4821 61.5936 26.7369 61.5938 27V34.875H63.875C64.1775 34.875 64.4676 34.9935 64.6815 35.2045C64.8955 35.4155 65.0156 35.7016 65.0156 36V49.5C65.0156 49.7984 64.8955 50.0845 64.6815 50.2955C64.4676 50.5065 64.1775 50.625 63.875 50.625H45.625V52.875H68.4375V31.9072Z" fill="#455E86"/>
<path d="M51.3281 32.625H53.6094V39.375H51.3281V32.625Z" fill="#F4C600"/>
<path d="M51.3281 41.625H53.6094V43.875H51.3281V41.625Z" fill="#F4C600"/>
<path d="M61.5938 37.125H62.7344V48.375H61.5938V37.125Z" fill="#455E86"/>
</svg>
