<svg width="76" height="76" viewBox="0 0 76 76" fill="none" xmlns="http://www.w3.org/2000/svg">
<g clip-path="url(#clip0_680_2075)">
<path d="M55.4173 34.834C44.068 34.834 34.834 44.068 34.834 55.4173C34.834 66.7667 44.068 76.0007 55.4173 76.0007C66.7667 76.0007 76.0007 66.7667 76.0007 55.4173C76.0007 44.068 66.7667 34.834 55.4173 34.834ZM62.4062 62.4062C61.7887 63.0237 60.978 63.334 60.1673 63.334C59.3567 63.334 58.546 63.0237 57.9285 62.4062L53.1785 57.6562C52.5831 57.064 52.2507 56.2565 52.2507 55.4173V47.5007C52.2507 45.7527 53.6693 44.334 55.4173 44.334C57.1653 44.334 58.584 45.7527 58.584 47.5007V54.1063L62.4062 57.9285C63.6443 59.1666 63.6443 61.168 62.4062 62.4062Z" fill="#F4C600"/>
<path d="M52.82 9.595L27.4867 0.095C27.1067 -0.0316667 26.7267 -0.0316667 26.3467 0.095L1.01333 9.595C0.411667 9.81667 0 10.4183 0 11.0833V31.445C0 60.325 26.315 66.405 26.5683 66.4683C26.695 66.5 26.79 66.5 26.9167 66.5C27.0433 66.5 27.1383 66.5 27.265 66.4683C27.3283 66.4683 28.5633 66.1833 30.4633 65.455C29.1967 62.3517 28.5 58.9633 28.5 55.4167C28.5 41.1033 39.71 29.355 53.8333 28.5317V11.0833C53.8333 10.4183 53.4217 9.81667 52.82 9.595Z" fill="#465F86"/>
</g>
<defs>
<clipPath id="clip0_680_2075">
<rect width="76" height="76" fill="white"/>
</clipPath>
</defs>
</svg>
