<svg width="78" height="77" viewBox="0 0 78 77" fill="none" xmlns="http://www.w3.org/2000/svg">
<path fill-rule="evenodd" clip-rule="evenodd" d="M52.1221 18.2771V38.6353C52.1221 41.5418 49.7197 43.9054 46.7754 43.9054H22.6222L14.0059 52.7598C13.7033 53.0709 13.2394 53.1691 12.8341 53.0081C12.4288 52.847 12.1633 52.459 12.1633 52.0277V43.9054H7.64159C4.69732 43.9054 2.29492 41.5418 2.29492 38.6353V12.1965C2.29492 9.28996 4.69732 6.91836 7.64159 6.91836H39.6815L36.8301 9.27441C36.0373 9.92936 35.5936 10.9077 35.6266 11.9277C35.6597 12.9476 36.1657 13.8961 36.9993 14.4997L46.3134 21.2455C47.1963 21.885 48.3686 21.9802 49.3454 21.4916C50.3224 21.003 50.9382 20.0136 50.9382 18.9326V18.1813C51.3271 18.2035 51.7229 18.2343 52.1221 18.2771ZM28.1539 12.7098L17.8787 25.6976C17.6989 25.9251 17.666 26.2339 17.7941 26.4933C17.9223 26.7526 18.1892 26.9172 18.4815 26.9172H26.0034L24.8567 36.6171C24.8329 36.8173 24.9463 37.0089 25.1345 37.0871C25.3228 37.1653 25.5408 37.1111 25.6692 36.9542L36.4962 23.7327C36.6814 23.5066 36.7186 23.1954 36.5917 22.933C36.4647 22.6704 36.1962 22.5033 35.9016 22.5033H28.4139L28.9735 13.0149C28.9853 12.817 28.8652 12.6346 28.6774 12.5647C28.4896 12.4948 28.2775 12.5535 28.1539 12.7098ZM48.4911 15.7095V18.9326C48.4911 19.1032 48.3938 19.2595 48.2397 19.3366C48.0854 19.4138 47.9003 19.3987 47.7608 19.2977L38.4467 12.5519C38.2194 12.3873 38.0815 12.1287 38.0725 11.8506C38.0634 11.5723 38.1844 11.3055 38.4007 11.1269L47.7377 3.41229C47.8745 3.29936 48.065 3.27475 48.2264 3.34918C48.3879 3.42361 48.4911 3.58365 48.4911 3.75955V6.7479C63.1605 6.7479 68.4004 16.9341 64.9266 24.7478C64.8488 24.916 64.6743 25.0198 64.4872 25.0094C64.3002 24.999 64.1388 24.8764 64.0807 24.7005C61.298 16.2723 53.6735 15.7095 48.4911 15.7095Z" fill="#F4C600"/>
<path fill-rule="evenodd" clip-rule="evenodd" d="M54.73 40.0816C54.821 39.613 54.8685 39.1295 54.8685 38.6352V32.043H71.1653C73.8311 32.043 76.0061 34.1901 76.0061 36.8216V60.7582C76.0061 63.3897 73.8311 65.5295 71.1653 65.5295H67.0717V72.6347C67.0717 73.066 66.8062 73.454 66.4007 73.615C65.9955 73.7761 65.5317 73.6778 65.2291 73.3668L57.6027 65.5295H35.7353C33.0697 65.5295 30.8945 63.3897 30.8945 60.7582V46.321H47.0748C49.9426 46.321 52.4569 44.7824 53.8103 42.4973H66.5737C67.249 42.4973 67.7972 41.956 67.7972 41.2895C67.7972 40.6227 67.249 40.0816 66.5737 40.0816H54.73ZM66.5737 55.2416H40.7517C40.0765 55.2416 39.5282 55.7828 39.5282 56.4494C39.5282 57.1161 40.0765 57.6572 40.7517 57.6572H66.5737C67.249 57.6572 67.7972 57.1161 67.7972 56.4494C67.7972 55.7828 67.249 55.2416 66.5737 55.2416ZM66.5737 47.6652H40.7517C40.0765 47.6652 39.5282 48.2065 39.5282 48.8731C39.5282 49.5396 40.0765 50.0809 40.7517 50.0809H66.5737C67.249 50.0809 67.7972 49.5396 67.7972 48.8731C67.7972 48.2065 67.249 47.6652 66.5737 47.6652Z" fill="#465F86"/>
</svg>
