<svg width="128" height="128" viewBox="0 0 128 128" fill="none" xmlns="http://www.w3.org/2000/svg">
<g clip-path="url(#clip0_648_8641)">
<path d="M66.883 3.6922L68.163 6.30266C68.6305 7.25924 69.538 7.9213 70.583 8.07486L73.443 8.49273C76.0805 8.87788 77.133 12.1428 75.2255 14.0157L73.1555 16.0472C72.398 16.7898 72.053 17.8622 72.2305 18.9119L72.718 21.7817C73.168 24.4274 70.4105 26.4437 68.053 25.1951L65.493 23.8408C64.5555 23.3449 63.438 23.3449 62.5005 23.8408L59.9406 25.1951C57.5806 26.4437 54.8256 24.4274 55.2756 21.7817L55.7631 18.9119C55.9431 17.8622 55.5956 16.7898 54.8381 16.0472L52.7681 14.0157C50.8606 12.1428 51.9131 8.8804 54.5506 8.49273L57.4106 8.07486C58.4581 7.9213 59.3631 7.25924 59.8306 6.30266L61.1106 3.6922C62.2955 1.28565 65.703 1.28565 66.883 3.6922Z" fill="#FFDF7D"/>
<path d="M66.6464 3.28466C66.5614 3.41052 66.4814 3.54646 66.4089 3.69246L65.1289 6.30292C64.6615 7.2595 63.7565 7.92156 62.709 8.07512L59.8465 8.49299C57.209 8.87814 56.1565 12.1406 58.064 14.016L60.134 16.0475C60.8915 16.7901 61.2365 17.8625 61.0565 18.9122L60.569 21.7819C60.389 22.8291 60.7165 23.7782 61.319 24.4654L59.939 25.1954C57.579 26.444 54.824 24.4251 55.2715 21.7819L55.7615 18.9122C55.939 17.8625 55.594 16.7901 54.8365 16.0475L52.7665 14.016C50.859 12.1406 51.9115 8.87814 54.549 8.49299L57.409 8.07512C58.459 7.92156 59.3615 7.2595 59.8315 6.30292L61.1115 3.69246C62.2265 1.42939 65.3039 1.29346 66.6464 3.28466Z" fill="#FFCF64"/>
<path d="M58.443 27.4609C57.393 27.4609 56.3481 27.1287 55.4556 26.4767C53.8756 25.3212 53.1006 23.4005 53.4306 21.4622L53.9181 18.5924C53.9931 18.1544 53.8481 17.7088 53.5331 17.3967L51.4631 15.3652C50.0656 13.9933 49.5706 11.9794 50.1756 10.1116C50.7781 8.24372 52.3531 6.90451 54.2856 6.62257L57.148 6.2047C57.5855 6.14176 57.9605 5.86486 58.158 5.46712L59.438 2.85666C60.3005 1.09454 62.0505 -0.000494003 64.003 -0.000494003C65.9555 -0.000494003 67.703 1.09454 68.568 2.85666L69.848 5.46712C70.043 5.86486 70.4205 6.14176 70.858 6.2047L73.718 6.62257C75.6505 6.90451 77.2229 8.24121 77.8279 10.1116C78.4304 11.9794 77.9379 13.9933 76.5405 15.3652L74.4705 17.3967C74.1555 17.7063 74.0105 18.1544 74.0855 18.5899L74.573 21.4596C74.903 23.3955 74.128 25.3187 72.548 26.4716C70.968 27.6246 68.9105 27.7806 67.183 26.8669L64.6255 25.5125C64.2355 25.3061 63.768 25.3061 63.378 25.5125L60.8205 26.8669C60.0655 27.2646 59.253 27.4609 58.443 27.4609ZM64.0005 3.77548C63.7505 3.77548 63.1305 3.84849 62.798 4.52816L61.518 7.13862C60.7755 8.65153 59.343 9.69874 57.6855 9.94291L54.8231 10.3608C54.0781 10.469 53.8181 11.0405 53.7406 11.2796C53.6631 11.5188 53.5406 12.1355 54.0806 12.6641L56.1506 14.6956C57.3505 15.8737 57.898 17.5704 57.613 19.2318L57.1255 22.1016C56.998 22.8492 57.4555 23.2746 57.658 23.4206C57.8605 23.5692 58.4055 23.8763 59.0705 23.5238L61.6305 22.1695C63.113 21.3841 64.8855 21.3841 66.368 22.1695L68.9255 23.5238C69.5905 23.8763 70.1355 23.5692 70.338 23.4206C70.5405 23.2721 70.998 22.8467 70.8705 22.1016L70.383 19.2318C70.1005 17.5704 70.648 15.8737 71.8455 14.6956L73.9155 12.6641C74.453 12.1355 74.333 11.5213 74.2555 11.2821C74.178 11.043 73.918 10.4716 73.173 10.3633L70.313 9.94543C68.6555 9.70125 67.223 8.65153 66.4805 7.13862L65.203 4.52816C64.868 3.84849 64.2505 3.77548 64.0005 3.77548Z" fill="black"/>
<path d="M66.883 104.231L68.163 106.842C68.6305 107.798 69.538 108.46 70.583 108.614L73.443 109.032C76.0805 109.417 77.133 112.682 75.2255 114.555L73.1555 116.586C72.398 117.329 72.053 118.401 72.2305 119.451L72.718 122.321C73.168 124.966 70.4105 126.983 68.053 125.734L65.493 124.38C64.5555 123.884 63.438 123.884 62.5005 124.38L59.9406 125.734C57.5806 126.983 54.8256 124.966 55.2756 122.321L55.7631 119.451C55.9431 118.401 55.5956 117.329 54.8381 116.586L52.7681 114.555C50.8606 112.682 51.9131 109.419 54.5506 109.032L57.4106 108.614C58.4581 108.46 59.3631 107.798 59.8306 106.842L61.1106 104.231C62.2955 101.825 65.703 101.825 66.883 104.231Z" fill="#FFDF7D"/>
<path d="M66.6464 103.824C66.5614 103.95 66.4814 104.086 66.4089 104.232L65.1289 106.842C64.6615 107.799 63.7565 108.461 62.709 108.614L59.8465 109.032C57.209 109.417 56.1565 112.68 58.064 114.555L60.134 116.587C60.8915 117.329 61.2365 118.402 61.0565 119.451L60.569 122.321C60.389 123.368 60.7165 124.317 61.319 125.004L59.939 125.734C57.579 126.983 54.824 124.964 55.2715 122.321L55.7615 119.451C55.939 118.402 55.594 117.329 54.8365 116.587L52.7665 114.555C50.859 112.68 51.9115 109.417 54.549 109.032L57.409 108.614C58.459 108.461 59.3615 107.799 59.8315 106.842L61.1115 104.232C62.2265 101.968 65.3039 101.833 66.6464 103.824Z" fill="#FFCF64"/>
<path d="M58.4431 128C57.3931 128 56.3481 127.668 55.4556 127.016C53.8756 125.86 53.1006 123.94 53.4306 122.001L53.9181 119.131C53.9931 118.693 53.8481 118.248 53.5331 117.936L51.4631 115.904C50.0656 114.532 49.5731 112.518 50.1756 110.651C50.7781 108.78 52.3531 107.444 54.2856 107.162L57.1481 106.744C57.5856 106.681 57.9606 106.404 58.1581 106.006L59.438 103.396C60.3005 101.634 62.0505 100.539 64.003 100.539C65.9555 100.539 67.703 101.634 68.568 103.396L69.848 106.006C70.043 106.404 70.4205 106.681 70.858 106.744L73.718 107.162C75.6505 107.444 77.2255 108.783 77.828 110.651C78.4305 112.518 77.938 114.532 76.5405 115.904L74.4705 117.936C74.1555 118.245 74.0105 118.693 74.0855 119.129L74.573 121.999C74.903 123.935 74.128 125.858 72.548 127.011C70.968 128.164 68.9105 128.32 67.183 127.406L64.6255 126.052C64.2355 125.845 63.768 125.845 63.378 126.052L60.8205 127.406C60.0655 127.804 59.253 128 58.4431 128ZM64.0005 104.315C63.7505 104.315 63.1305 104.388 62.798 105.067L61.518 107.678C60.7755 109.191 59.343 110.238 57.6856 110.482L54.8231 110.9C54.0781 111.008 53.8181 111.58 53.7406 111.819C53.6631 112.058 53.5406 112.675 54.0806 113.203L56.1506 115.235C57.3506 116.413 57.8981 118.109 57.6131 119.771L57.1256 122.641C56.9981 123.388 57.4556 123.814 57.6581 123.96C57.8606 124.108 58.4031 124.415 59.0705 124.063L61.6305 122.709C63.1155 121.923 64.8855 121.923 66.368 122.709L68.928 124.063C69.593 124.415 70.138 124.108 70.3405 123.96C70.543 123.811 71.0005 123.386 70.873 122.641L70.383 119.771C70.1005 118.107 70.648 116.413 71.848 115.235L73.918 113.203C74.4555 112.675 74.3355 112.06 74.258 111.821C74.1805 111.582 73.9205 111.011 73.1755 110.902L70.3155 110.484C68.6555 110.24 67.223 109.191 66.4805 107.678L65.203 105.067C64.868 104.388 64.2505 104.315 64.0005 104.315Z" fill="black"/>
<path d="M102.11 88.1863L103.39 90.7968C103.857 91.7534 104.762 92.4154 105.812 92.569L108.672 92.9869C111.31 93.372 112.362 96.637 110.455 98.5099L108.385 100.541C107.627 101.284 107.28 102.356 107.46 103.406L107.95 106.276C108.4 108.921 105.642 110.938 103.285 109.689L100.725 108.335C99.7872 107.839 98.6697 107.839 97.7322 108.335L95.1722 109.689C92.8122 110.938 90.0572 108.921 90.5072 106.276L90.9972 103.406C91.1772 102.356 90.8297 101.284 90.0722 100.541L88.0022 98.5099C86.0947 96.637 87.1472 93.372 89.7847 92.9869L92.6447 92.569C93.6922 92.4154 94.5972 91.7534 95.0647 90.7968L96.3447 88.1863C97.5222 85.7798 100.93 85.7798 102.11 88.1863Z" fill="#FFDF7D"/>
<path d="M101.873 87.7788C101.788 87.9047 101.708 88.0406 101.635 88.1866L100.355 90.7971C99.8878 91.7536 98.9828 92.4157 97.9353 92.5693L95.0729 92.9871C92.4354 93.3723 91.3829 96.6347 93.2904 98.5101L95.3604 100.542C96.1178 101.284 96.4628 102.357 96.2828 103.406L95.7954 106.276C95.6154 107.323 95.9428 108.272 96.5453 108.96L95.1654 109.69C92.8054 110.938 90.0504 108.919 90.4979 106.276L90.9879 103.406C91.1654 102.357 90.8204 101.284 90.0629 100.542L87.9929 98.5101C86.0854 96.6347 87.1379 93.3723 89.7754 92.9871L92.6354 92.5693C93.6854 92.4157 94.5879 91.7536 95.0579 90.7971L96.3378 88.1866C97.4528 85.9235 100.53 85.7876 101.873 87.7788Z" fill="#FFCF64"/>
<path d="M93.6697 111.955C92.6197 111.955 91.5747 111.622 90.6822 110.97C89.1022 109.815 88.3272 107.894 88.6572 105.958L89.1472 103.089C89.2222 102.651 89.0772 102.205 88.7622 101.896L86.6922 99.8641C85.2947 98.4921 84.8022 96.4783 85.4047 94.6104C86.0072 92.7426 87.5822 91.4059 89.5147 91.1214L92.3747 90.7035C92.8122 90.6406 93.1872 90.3637 93.3822 89.966L94.6622 87.3555C95.5247 85.5934 97.2747 84.4984 99.2271 84.4984C101.18 84.4984 102.927 85.5934 103.792 87.3555L105.072 89.966C105.267 90.3637 105.645 90.6406 106.082 90.7035L108.942 91.1214C110.875 91.4034 112.447 92.7401 113.052 94.6104C113.655 96.4808 113.162 98.4921 111.765 99.8641L109.695 101.896C109.38 102.205 109.235 102.653 109.31 103.091L109.797 105.961C110.127 107.899 109.352 109.82 107.772 110.976C106.19 112.126 104.137 112.274 102.41 111.361L99.8496 110.006C99.4596 109.8 98.9921 109.8 98.6021 110.006L96.0447 111.361C95.2922 111.758 94.4797 111.955 93.6697 111.955ZM99.2271 106.074C100.04 106.074 100.855 106.271 101.595 106.663L104.155 108.018C104.82 108.37 105.365 108.063 105.567 107.914C105.77 107.766 106.227 107.341 106.1 106.595L105.61 103.726C105.327 102.062 105.875 100.368 107.075 99.1894L109.145 97.1579C109.682 96.6293 109.562 96.0151 109.485 95.7734C109.407 95.5343 109.147 94.9628 108.402 94.8546L105.542 94.4367C103.882 94.1925 102.45 93.1453 101.707 91.6324L100.43 89.022C100.097 88.3423 99.4771 88.2693 99.2271 88.2693C98.9771 88.2693 98.3572 88.3423 98.0247 89.022L96.7447 91.6324C96.0047 93.1453 94.5722 94.1925 92.9122 94.4367L90.0522 94.8546C89.3072 94.9628 89.0472 95.5343 88.9697 95.7734C88.8922 96.0126 88.7697 96.6293 89.3097 97.1579L91.3797 99.1894C92.5797 100.368 93.1272 102.064 92.8447 103.726L92.3547 106.595C92.2272 107.341 92.6847 107.766 92.8872 107.914C93.0897 108.063 93.6322 108.37 94.2997 108.018L96.8597 106.663C97.5997 106.271 98.4122 106.074 99.2271 106.074Z" fill="black"/>
<path d="M31.6567 88.1863L32.9366 90.7968C33.4041 91.7534 34.3091 92.4154 35.3566 92.569L38.2166 92.9869C40.8541 93.372 41.9066 96.637 39.9991 98.5099L37.9291 100.541C37.1716 101.284 36.8241 102.356 37.0041 103.406L37.4916 106.276C37.9416 108.921 35.1841 110.938 32.8266 109.689L30.2667 108.335C29.3292 107.839 28.2117 107.839 27.2742 108.335L24.7142 109.689C22.3542 110.938 19.5992 108.921 20.0492 106.276L20.5392 103.406C20.7192 102.356 20.3717 101.284 19.6142 100.541L17.5442 98.5099C15.6367 96.637 16.6892 93.372 19.3267 92.9869L22.1867 92.569C23.2342 92.4154 24.1392 91.7534 24.6067 90.7968L25.8867 88.1863C27.0692 85.7798 30.4767 85.7798 31.6567 88.1863Z" fill="#FFDF7D"/>
<path d="M31.4198 87.7788C31.3348 87.9047 31.2548 88.0406 31.1823 88.1866L29.9023 90.7971C29.4348 91.7536 28.5298 92.4157 27.4823 92.5693L24.6199 92.9871C21.9824 93.3723 20.9299 96.6347 22.8374 98.5101L24.9074 100.542C25.6649 101.284 26.0098 102.357 25.8323 103.406L25.3449 106.276C25.1649 107.323 25.4924 108.272 26.0948 108.96L24.7149 109.69C22.3549 110.938 19.5999 108.919 20.0499 106.276L20.5399 103.406C20.7174 102.357 20.3724 101.284 19.6149 100.542L17.5449 98.5101C15.6374 96.6347 16.6899 93.3723 19.3274 92.9871L22.1874 92.5693C23.2349 92.4157 24.1399 91.7536 24.6099 90.7971L25.8898 88.1866C26.9998 85.9235 30.0773 85.7876 31.4198 87.7788Z" fill="#FFCF64"/>
<path d="M23.2173 111.955C22.1673 111.955 21.1224 111.623 20.2299 110.971C18.6499 109.815 17.8724 107.895 18.2024 105.956L18.6924 103.084C18.7674 102.649 18.6224 102.2 18.3074 101.893L16.2374 99.8619C14.8374 98.4874 14.3449 96.4736 14.9474 94.6032C15.5524 92.7379 17.1274 91.4012 19.0574 91.1192L21.9198 90.7014C22.3548 90.6384 22.7323 90.3615 22.9273 89.9638L24.2073 87.3508C24.9598 85.8127 26.4123 84.763 28.0923 84.539C29.7898 84.3124 31.4673 84.9392 32.5823 86.2155C33.2673 86.9984 33.1898 88.1916 32.4123 88.8788C31.6348 89.566 30.4498 89.4905 29.7673 88.7076C29.4798 88.3804 29.0398 88.2193 28.5873 88.2797C28.3273 88.3149 27.8498 88.4559 27.5723 89.0198L26.2923 91.6302C25.5523 93.1432 24.1198 94.1929 22.4598 94.4345L19.5974 94.8524C18.8549 94.9607 18.5949 95.5296 18.5174 95.7687C18.4399 96.0079 18.3174 96.6246 18.8574 97.1558L20.9274 99.1872C22.1248 100.36 22.6723 102.057 22.3923 103.721L21.9023 106.593C21.7749 107.338 22.2323 107.764 22.4373 107.912C22.6398 108.061 23.1823 108.368 23.8473 108.015L26.4073 106.661C27.8898 105.876 29.6598 105.878 31.1423 106.661L33.6998 108.015C34.3673 108.368 34.9098 108.061 35.1123 107.912C35.3148 107.764 35.7723 107.338 35.6448 106.591L35.1548 103.723C34.8723 102.057 35.4198 100.363 36.6198 99.1872L38.6898 97.1558C39.2273 96.6271 39.1048 96.0104 39.0273 95.7712C38.9498 95.5321 38.6898 94.9632 37.9473 94.8549L35.9098 94.5579C34.8848 94.4094 34.1748 93.4503 34.3223 92.4182C34.4698 91.3861 35.4223 90.6711 36.4473 90.8197L38.4873 91.1192C40.4173 91.4012 41.9923 92.7354 42.5972 94.6032C43.2022 96.4736 42.7097 98.4874 41.3123 99.8619L39.2398 101.893C38.9248 102.203 38.7798 102.649 38.8548 103.089L39.3448 105.956C39.6748 107.895 38.8973 109.815 37.3198 110.971C35.7398 112.126 33.6848 112.275 31.9573 111.361L29.3998 110.007C29.0098 109.8 28.5423 109.8 28.1523 110.007L25.5923 111.361C24.8398 111.759 24.0248 111.955 23.2173 111.955Z" fill="black"/>
<path d="M116.807 53.9617L118.087 56.5722C118.554 57.5288 119.462 58.1908 120.509 58.3444L123.369 58.7623C126.007 59.1474 127.059 62.4124 125.152 64.2853L123.082 66.3167C122.324 67.0593 121.977 68.1317 122.157 69.1814L122.647 72.0512C123.097 74.6969 120.339 76.7133 117.982 75.4647L115.422 74.1104C114.484 73.6144 113.367 73.6144 112.429 74.1104L109.869 75.4647C107.509 76.7133 104.754 74.6969 105.204 72.0512L105.694 69.1814C105.874 68.1317 105.527 67.0593 104.769 66.3167L102.699 64.2853C100.792 62.4124 101.844 59.1499 104.482 58.7623L107.342 58.3444C108.389 58.1908 109.294 57.5288 109.762 56.5722L111.042 53.9617C112.219 51.5552 115.627 51.5552 116.807 53.9617Z" fill="#FFDF7D"/>
<path d="M116.57 53.5542C116.485 53.6801 116.405 53.816 116.332 53.962L115.052 56.5725C114.585 57.529 113.68 58.1911 112.632 58.3446L109.77 58.7625C107.132 59.1477 106.08 62.4101 107.987 64.2855L110.057 66.317C110.815 67.0596 111.16 68.132 110.98 69.1817L110.492 72.0514C110.312 73.0987 110.64 74.0477 111.242 74.7349L109.862 75.4649C107.502 76.7135 104.747 74.6946 105.195 72.0514L105.685 69.1817C105.862 68.132 105.517 67.0596 104.76 66.317L102.69 64.2855C100.782 62.4101 101.835 59.1477 104.472 58.7625L107.332 58.3446C108.382 58.1911 109.285 57.529 109.755 56.5725L111.035 53.962C112.15 51.6989 115.227 51.563 116.57 53.5542Z" fill="#FFCF64"/>
<path d="M108.367 77.7305C107.317 77.7305 106.272 77.3982 105.379 76.7462C103.799 75.5907 103.024 73.67 103.354 71.7342L103.844 68.8645C103.919 68.4265 103.774 67.9809 103.459 67.6687L101.389 65.6373C99.9917 64.2653 99.4992 62.2515 100.102 60.3836C100.704 58.5158 102.279 57.1766 104.212 56.8946L107.074 56.4767C107.512 56.4138 107.887 56.1369 108.082 55.7392L109.362 53.1287C110.224 51.3666 111.974 50.2716 113.927 50.2716C115.879 50.2716 117.627 51.3666 118.492 53.1287L119.772 55.7392C119.967 56.1369 120.344 56.4138 120.782 56.4767L123.642 56.8946C125.574 57.1766 127.149 58.5158 127.752 60.3836C128.354 62.2515 127.862 64.2653 126.464 65.6373L124.394 67.6687C124.079 67.9784 123.934 68.4265 124.009 68.862L124.497 71.7317C124.827 73.67 124.049 75.5907 122.472 76.7462C120.887 77.9016 118.834 78.0502 117.107 77.1364L114.547 75.7821C114.157 75.5756 113.689 75.5756 113.299 75.7821L110.739 77.1364C109.989 77.5341 109.177 77.7305 108.367 77.7305ZM113.924 54.045C113.674 54.045 113.054 54.118 112.722 54.7977L111.442 57.4082C110.699 58.9211 109.267 59.9683 107.609 60.2124L104.747 60.6303C104.002 60.7386 103.742 61.31 103.664 61.5491C103.587 61.7883 103.464 62.405 104.004 62.9337L106.074 64.9651C107.274 66.1432 107.822 67.8399 107.539 69.5014L107.049 72.3711C106.922 73.1162 107.379 73.5416 107.582 73.6902C107.784 73.8387 108.327 74.1458 108.994 73.7934L111.554 72.4391C113.037 71.6537 114.809 71.6537 116.292 72.4391L118.852 73.7934C119.517 74.1458 120.062 73.8387 120.264 73.6902C120.467 73.5416 120.924 73.1162 120.797 72.3711L120.307 69.5014C120.024 67.8399 120.569 66.1432 121.772 64.9651L123.842 62.9337C124.379 62.405 124.259 61.7908 124.182 61.5491C124.104 61.31 123.844 60.7386 123.099 60.6303L120.239 60.2124C118.579 59.9683 117.147 58.9211 116.404 57.4082L115.127 54.7977C114.792 54.118 114.174 54.045 113.924 54.045Z" fill="black"/>
<path d="M16.9597 53.9617L18.2397 56.5722C18.7072 57.5288 19.6122 58.1908 20.6597 58.3444L23.5197 58.7623C26.1571 59.1474 27.2096 62.4124 25.3022 64.2853L23.2322 66.3167C22.4747 67.0593 22.1297 68.1317 22.3072 69.1814L22.7947 72.0512C23.2447 74.6969 20.4872 76.7133 18.1297 75.4647L15.5697 74.1104C14.6322 73.6144 13.5147 73.6144 12.5772 74.1104L10.0172 75.4647C7.65723 76.7133 4.90225 74.6969 5.35225 72.0512L5.84224 69.1814C6.02224 68.1317 5.67475 67.0593 4.91725 66.3167L2.84726 64.2853C0.939767 62.4124 1.99226 59.1499 4.62975 58.7623L7.48974 58.3444C8.53723 58.1908 9.44223 57.5288 9.90972 56.5722L11.1897 53.9617C12.3722 51.5552 15.7797 51.5552 16.9597 53.9617Z" fill="#FFDF7D"/>
<path d="M16.7231 53.5542C16.6381 53.6801 16.5556 53.816 16.4856 53.962L15.2056 56.5725C14.7381 57.529 13.8331 58.1911 12.7856 58.3446L9.92314 58.7625C7.28565 59.1477 6.23315 62.4101 8.14065 64.2855L10.2106 66.317C10.9681 67.0596 11.3131 68.132 11.1331 69.1817L10.6456 72.0514C10.4656 73.0987 10.7931 74.0477 11.3956 74.7349L10.0156 75.4649C7.65565 76.7135 4.90066 74.6946 5.35066 72.0514L5.84066 69.1817C6.01816 68.132 5.67316 67.0596 4.91566 66.317L2.84567 64.2855C0.938181 62.4101 1.99067 59.1477 4.62816 58.7625L7.48815 58.3446C8.53814 58.1911 9.44064 57.529 9.91064 56.5725L11.1906 53.962C12.3031 51.6989 15.3781 51.563 16.7231 53.5542Z" fill="#FFCF64"/>
<path d="M8.51971 77.7303C7.46972 77.7303 6.42472 77.3981 5.53223 76.7461C3.95223 75.5906 3.17724 73.6699 3.50724 71.7341L3.99723 68.8643C4.07223 68.4263 3.92723 67.9808 3.61224 67.6686L1.54225 65.6371C0.144753 64.2652 -0.347745 62.2513 0.254752 60.3835C0.857249 58.5156 2.43224 57.1764 4.36473 56.8945L7.22722 56.4766C7.66472 56.4137 8.04221 56.1368 8.23721 55.739L9.51721 53.1286C10.3797 51.3665 12.1297 50.2714 14.0822 50.2714C16.0347 50.2714 17.7847 51.3665 18.6472 53.1286L19.9272 55.739C20.1222 56.1368 20.4997 56.4137 20.9372 56.4766L23.7971 56.8945C25.7296 57.1764 27.3046 58.5131 27.9071 60.3835C28.5096 62.2513 28.0171 64.2652 26.6196 65.6371L24.5496 67.6686C24.2346 67.9782 24.0896 68.4263 24.1646 68.8643L24.6521 71.7341C24.9821 73.6724 24.2071 75.5931 22.6271 76.7486C21.0397 77.9015 18.9872 78.05 17.2597 77.1363L14.6997 75.7819C14.3097 75.5755 13.8422 75.5755 13.4522 75.7819L10.8947 77.1363C10.1422 77.534 9.32971 77.7303 8.51971 77.7303ZM14.0772 54.0449C13.8272 54.0449 13.2072 54.1179 12.8747 54.7976L11.5947 57.408C10.8522 58.9209 9.41971 59.9681 7.76222 60.2123L4.89973 60.6302C4.15473 60.7384 3.89473 61.3099 3.81723 61.549C3.73974 61.7882 3.61724 62.4049 4.15723 62.9335L6.22722 64.965C7.42722 66.1431 7.97471 67.8398 7.69222 69.5012L7.20222 72.371C7.07472 73.1161 7.53222 73.5415 7.73472 73.69C7.93721 73.8386 8.47971 74.1457 9.14721 73.7933L11.7047 72.4389C13.1872 71.6535 14.9597 71.6535 16.4422 72.4389L19.0022 73.7933C19.6672 74.1457 20.2122 73.8386 20.4147 73.69C20.6172 73.5415 21.0747 73.1161 20.9472 72.371L20.4597 69.5012C20.1772 67.8373 20.7247 66.1431 21.9246 64.965L23.9946 62.9335C24.5321 62.4049 24.4121 61.7907 24.3346 61.549C24.2571 61.3099 23.9971 60.7384 23.2521 60.6302L20.3922 60.2123C18.7322 59.9681 17.2997 58.9209 16.5572 57.408L15.2797 54.7976C14.9447 54.1179 14.3272 54.0449 14.0772 54.0449Z" fill="black"/>
<path d="M102.184 18.4168L103.464 21.0273C103.932 21.9839 104.839 22.6459 105.887 22.7995L108.747 23.2173C111.384 23.6025 112.437 26.8675 110.529 28.7403L108.459 30.7718C107.702 31.5144 107.354 32.5868 107.534 33.6365L108.024 36.5063C108.474 39.152 105.717 41.1683 103.359 39.9198L100.799 38.5654C99.8619 38.0695 98.7444 38.0695 97.8069 38.5654L95.2469 39.9198C92.8869 41.1683 90.1319 39.152 90.5819 36.5063L91.0719 33.6365C91.2519 32.5868 90.9044 31.5144 90.1469 30.7718L88.0769 28.7403C86.1694 26.8675 87.2219 23.6025 89.8594 23.2173L92.7194 22.7995C93.7669 22.6459 94.6719 21.9839 95.1394 21.0273L96.4194 18.4168C97.5969 16.0103 101.004 16.0103 102.184 18.4168Z" fill="#FFDF7D"/>
<path d="M101.948 18.0093C101.863 18.1351 101.783 18.2711 101.71 18.4171L100.43 21.0275C99.9625 21.9841 99.0575 22.6462 98.01 22.7997L95.1476 23.2176C92.5101 23.6027 91.4576 26.8652 93.3651 28.7406L95.4351 30.7721C96.1926 31.5147 96.5376 32.5871 96.3576 33.6368L95.8701 36.5065C95.6901 37.5537 96.0176 38.5028 96.6201 39.19L95.2401 39.92C92.8801 41.1686 90.1251 39.1497 90.5726 36.5065L91.0626 33.6368C91.2401 32.5871 90.8951 31.5147 90.1376 30.7721L88.0676 28.7406C86.1601 26.8652 87.2126 23.6027 89.8501 23.2176L92.7101 22.7997C93.7601 22.6462 94.6626 21.9841 95.1326 21.0275L96.4126 18.4171C97.5275 16.154 100.605 16.0181 101.948 18.0093Z" fill="#FFCF64"/>
<path d="M93.7444 42.1854C92.6944 42.1854 91.6494 41.8531 90.7569 41.2012C89.1769 40.0457 88.4019 38.125 88.7319 36.1867L89.2194 33.3169C89.2944 32.8789 89.1494 32.4333 88.8344 32.1237L86.7644 30.0922C85.3669 28.7203 84.8744 26.7064 85.4769 24.8386C86.0794 22.9707 87.6544 21.634 89.5869 21.3496L92.4469 20.9317C92.8844 20.8688 93.2619 20.5919 93.4569 20.1941L94.7369 17.5837C95.5994 15.8215 97.3494 14.7265 99.3019 14.7265C101.254 14.7265 103.002 15.8215 103.867 17.5837L105.147 20.1941C105.342 20.5919 105.719 20.8688 106.157 20.9317L109.017 21.3496C110.949 21.6315 112.522 22.9682 113.127 24.8386C113.732 26.7089 113.237 28.7203 111.839 30.0922L109.769 32.1237C109.454 32.4333 109.309 32.8814 109.384 33.3194L109.874 36.1892C110.204 38.1275 109.427 40.0482 107.849 41.2037C106.264 42.3566 104.212 42.5051 102.484 41.5913L99.9243 40.237C99.5344 40.0306 99.0669 40.0306 98.6769 40.237L96.1169 41.5913C95.3669 41.9891 94.5544 42.1854 93.7444 42.1854ZM99.3019 36.305C100.114 36.305 100.929 36.5013 101.669 36.894L104.229 38.2483C104.894 38.6008 105.439 38.2936 105.642 38.1451C105.844 37.9966 106.302 37.5712 106.174 36.8235L105.684 33.9563C105.402 32.2924 105.949 30.5957 107.149 29.4201L109.219 27.3886C109.757 26.86 109.637 26.2458 109.559 26.0041C109.482 25.7649 109.222 25.1935 108.477 25.0853L105.617 24.6674C103.957 24.4257 102.524 23.376 101.782 21.8631L100.502 19.2526C100.169 18.573 99.5494 18.5 99.2994 18.5C99.0494 18.5 98.4294 18.573 98.0969 19.2526L96.8169 21.8631C96.0744 23.376 94.6419 24.4232 92.9844 24.6674L90.1244 25.0853C89.3794 25.1935 89.1194 25.7649 89.0419 26.0041C88.9644 26.2432 88.8419 26.86 89.3819 27.3886L91.4519 29.4201C92.6519 30.5982 93.1994 32.2949 92.9169 33.9563L92.4294 36.8261C92.3019 37.5737 92.7594 37.9991 92.9619 38.1451C93.1644 38.2936 93.7069 38.6008 94.3744 38.2483L96.9344 36.894C97.6744 36.5013 98.4869 36.305 99.3019 36.305Z" fill="black"/>
<path d="M31.5819 18.4168L32.8619 21.0273C33.3294 21.9839 34.2344 22.6459 35.2819 22.7995L38.1418 23.2173C40.7793 23.6025 41.8318 26.8675 39.9243 28.7403L37.8544 30.7718C37.0969 31.5144 36.7519 32.5868 36.9294 33.6365L37.4169 36.5063C37.8669 39.152 35.1094 41.1683 32.7519 39.9198L30.1919 38.5654C29.2544 38.0695 28.1369 38.0695 27.1994 38.5654L24.6394 39.9198C22.2794 41.1683 19.5244 39.152 19.9744 36.5063L20.4644 33.6365C20.6444 32.5868 20.2969 31.5144 19.5394 30.7718L17.4695 28.7403C15.562 26.8675 16.6145 23.6025 19.2519 23.2173L22.1119 22.7995C23.1594 22.6459 24.0644 21.9839 24.5319 21.0273L25.8119 18.4168C26.9944 16.0103 30.4019 16.0103 31.5819 18.4168Z" fill="#FFDF7D"/>
<path d="M31.3453 18.0093C31.2603 18.1351 31.1778 18.2711 31.1078 18.4171L29.8278 21.0275C29.3603 21.9841 28.4553 22.6462 27.4078 22.7997L24.5453 23.2176C21.9078 23.6027 20.8553 26.8652 22.7628 28.7406L24.8328 30.7721C25.5903 31.5147 25.9353 32.5871 25.7578 33.6368L25.2703 36.5065C25.0903 37.5537 25.4178 38.5028 26.0203 39.19L24.6403 39.92C22.2803 41.1686 19.5254 39.1497 19.9754 36.5065L20.4654 33.6368C20.6429 32.5871 20.2979 31.5147 19.5404 30.7721L17.4704 28.7406C15.5629 26.8652 16.6154 23.6027 19.2529 23.2176L22.1128 22.7997C23.1603 22.6462 24.0653 21.9841 24.5353 21.0275L25.8153 18.4171C26.9253 16.154 30.0003 16.0181 31.3453 18.0093Z" fill="#FFCF64"/>
<path d="M23.142 42.1836C22.092 42.1836 21.047 41.8513 20.1545 41.1993C18.5745 40.0439 17.7995 38.1232 18.1295 36.1848L18.617 33.3151C18.692 32.8771 18.547 32.4315 18.232 32.1194L16.162 30.0879C14.7645 28.7159 14.2695 26.7021 14.8745 24.8342C15.477 22.9664 17.052 21.6297 18.9845 21.3452L21.8445 20.9274C22.282 20.8644 22.6595 20.5875 22.8545 20.1898L24.1344 17.5793C24.9969 15.8172 26.7469 14.7222 28.6994 14.7222C30.6519 14.7222 32.3994 15.8172 33.2644 17.5793L34.5444 20.1898C34.7394 20.5875 35.1169 20.8644 35.5544 20.9274L38.4144 21.3452C40.3469 21.6272 41.9194 22.9639 42.5244 24.8342C43.1269 26.7046 42.6344 28.7159 41.2369 30.0879L39.1669 32.1194C38.8519 32.429 38.7069 32.8771 38.7819 33.3126L39.2719 36.1823C39.6019 38.1206 38.8269 40.0414 37.2469 41.1968C35.6619 42.3548 33.6094 42.5033 31.8819 41.5895L29.3219 40.2352C28.9319 40.0288 28.4644 40.0288 28.0744 40.2352L25.5144 41.5895C24.7644 41.9872 23.952 42.1836 23.142 42.1836ZM28.6994 36.3031C29.5119 36.3031 30.3269 36.4995 31.0669 36.8922L33.6269 38.2465C34.2919 38.5989 34.8369 38.2918 35.0394 38.1433C35.2419 37.9948 35.6994 37.5693 35.5719 36.8217L35.0819 33.9545C34.7994 32.2905 35.3469 30.5939 36.5469 29.4183L38.6169 27.3868C39.1544 26.8582 39.0344 26.2439 38.9569 26.0023C38.8794 25.7631 38.6194 25.1917 37.8744 25.0834L35.0144 24.6656C33.3544 24.4239 31.9219 23.3742 31.1794 21.8613L29.9019 19.2508C29.5694 18.5711 28.9494 18.4981 28.6994 18.4981C28.4494 18.4981 27.8294 18.5711 27.4969 19.2508L26.2169 21.8613C25.4744 23.3742 24.042 24.4214 22.3845 24.6656L19.5245 25.0834C18.7795 25.1917 18.5195 25.7631 18.442 26.0023C18.3645 26.2414 18.242 26.8582 18.782 27.3868L20.852 29.4183C22.052 30.5964 22.5995 32.293 22.317 33.9545L21.8295 36.8242C21.702 37.5719 22.1595 37.9973 22.362 38.1433C22.5645 38.2918 23.107 38.5989 23.7745 38.2465L26.3344 36.8922C27.0719 36.4995 27.8844 36.3031 28.6994 36.3031Z" fill="black"/>
<path d="M53.9746 54.8052C56.0446 54.8052 57.7246 53.1135 57.7246 51.0292C57.7246 48.9448 56.0446 47.2532 53.9746 47.2532H42.0772C40.0072 47.2532 38.3272 48.9448 38.3272 51.0292V79.4623C38.3272 81.5466 40.0072 83.2383 42.0772 83.2383H53.9746C56.0446 83.2383 57.7246 81.5466 57.7246 79.4623C57.7246 77.378 56.0446 75.6863 53.9746 75.6863H45.8272V69.0205H53.0971C55.1671 69.0205 56.8471 67.3288 56.8471 65.2445C56.8471 63.1601 55.1671 61.4685 53.0971 61.4685H45.8272V54.8052H53.9746Z" fill="#6BBCD5"/>
<path d="M88.7166 47.1217C86.6466 47.1217 84.9666 48.8133 84.9666 50.8977V70.6234C84.9666 71.945 84.5917 73.6492 81.6592 75.1369C80.7542 75.5951 79.7717 75.8191 78.6542 75.8191H78.6417C77.4192 75.8166 76.3617 75.5171 75.4017 74.9003C73.1267 73.4378 72.6617 72.1413 72.6617 70.646V50.9002C72.6617 48.8159 70.9817 47.1242 68.9117 47.1242C66.8417 47.1242 65.1617 48.8159 65.1617 50.9002V70.646C65.1617 75.0438 67.2492 78.6184 71.3642 81.2641C73.5317 82.6587 75.9767 83.3661 78.6317 83.3711H78.6542C80.9392 83.3711 83.0842 82.8701 85.0316 81.8834C91.1766 78.7669 92.4666 74.0394 92.4666 70.6234V50.8977C92.4666 48.8133 90.7866 47.1217 88.7166 47.1217Z" fill="#6BBCD5"/>
<path d="M53.9746 85.127H42.0772C38.9747 85.127 36.4522 82.587 36.4522 79.463V51.0299C36.4522 47.9059 38.9747 45.3659 42.0772 45.3659H53.9746C57.0771 45.3659 59.5996 47.9059 59.5996 51.0299C59.5996 54.1539 57.0771 56.6938 53.9746 56.6938H47.7022V59.5837H53.0971C56.1996 59.5837 58.7221 62.1237 58.7221 65.2477C58.7221 68.3717 56.1996 70.9117 53.0971 70.9117H47.7022V73.8015H53.9746C57.0771 73.8015 59.5996 76.3415 59.5996 79.4655C59.5996 82.5895 57.0771 85.127 53.9746 85.127ZM42.0772 49.1419C41.0422 49.1419 40.2022 49.9877 40.2022 51.0299V79.463C40.2022 80.5052 41.0422 81.351 42.0772 81.351H53.9746C55.0096 81.351 55.8496 80.5052 55.8496 79.463C55.8496 78.4208 55.0096 77.575 53.9746 77.575H45.8272C44.7922 77.575 43.9522 76.7292 43.9522 75.687V69.0211C43.9522 67.979 44.7922 67.1332 45.8272 67.1332H53.0971C54.1321 67.1332 54.9721 66.2873 54.9721 65.2452C54.9721 64.203 54.1321 63.3572 53.0971 63.3572H45.8272C44.7922 63.3572 43.9522 62.5114 43.9522 61.4692V54.8058C43.9522 53.7637 44.7922 52.9179 45.8272 52.9179H53.9746C55.0096 52.9179 55.8496 52.072 55.8496 51.0299C55.8496 49.9877 55.0096 49.1419 53.9746 49.1419H42.0772Z" fill="black"/>
<path d="M78.6547 85.2598H78.6322C75.6122 85.2547 72.8297 84.4442 70.3572 82.8557C65.7322 79.8803 63.2897 75.6562 63.2897 70.6442V50.8984C63.2897 47.7744 65.8122 45.2344 68.9147 45.2344C72.0172 45.2344 74.5397 47.7744 74.5397 50.8984V70.6442C74.5397 71.3289 74.5397 72.1017 76.4147 73.3101C77.0722 73.7304 77.7822 73.9293 78.6447 73.9318C79.4797 73.9318 80.1672 73.7783 80.8171 73.451C83.0921 72.2956 83.0921 71.2484 83.0921 70.6241V50.8984C83.0921 47.7744 85.6146 45.2344 88.7171 45.2344C91.8196 45.2344 94.3421 47.7769 94.3421 50.8984V54.3773C94.3421 55.4195 93.5021 56.2653 92.4671 56.2653C91.4321 56.2653 90.5921 55.4195 90.5921 54.3773V50.8984C90.5921 49.8562 89.7521 49.0104 88.7171 49.0104C87.6821 49.0104 86.8421 49.8562 86.8421 50.8984V70.6241C86.8421 73.3126 85.4221 75.3415 82.5046 76.8242C81.3271 77.4208 80.0697 77.7078 78.6547 77.7078C77.0747 77.7053 75.6497 77.295 74.3972 76.4945C71.8672 74.8658 70.7897 73.1162 70.7897 70.6442V50.8984C70.7897 49.8562 69.9497 49.0104 68.9147 49.0104C67.8797 49.0104 67.0397 49.8562 67.0397 50.8984V70.6442C67.0397 74.4101 68.7847 77.3629 72.3772 79.6738C74.2372 80.8696 76.3447 81.4788 78.6347 81.4838H78.6547C80.6446 81.4838 82.5046 81.0508 84.1871 80.1949C88.4371 78.0401 90.5921 74.8204 90.5921 70.6241V61.9293C90.5921 60.8871 91.4321 60.0413 92.4671 60.0413C93.5021 60.0413 94.3421 60.8871 94.3421 61.9293V70.6241C94.3421 76.205 91.3346 80.8016 85.8746 83.5681C83.6671 84.6909 81.2371 85.2598 78.6547 85.2598Z" fill="black"/>
</g>
<defs>
<clipPath id="clip0_648_8641">
<rect width="128" height="128" fill="white"/>
</clipPath>
</defs>
</svg>
