<svg width="78" height="77" viewBox="0 0 78 77" fill="none" xmlns="http://www.w3.org/2000/svg">
<path d="M64.9267 19.3153C64.9991 18.7599 65.0354 18.2045 65.0475 17.6367C65.132 9.69175 58.7201 3.13474 50.7384 3.02625C47.5627 3.02625 44.5921 3.96785 42.1289 5.76733C38.4219 1.70966 33.0242 -0.41528 27.4576 0.0676073C22.5429 0.502147 17.9906 3.05043 14.9599 7.08333C12.1946 10.766 10.975 15.3307 11.5547 19.7982C3.67921 21.3988 -1.72361 29.4613 0.505822 37.6332C2.12128 43.7069 7.66194 48.3157 14.3198 48.3923H14.8391V30.6416C14.8391 25.9566 18.6427 22.1531 23.328 22.1531H53.9987C58.6839 22.1531 62.4876 25.9566 62.4876 30.6416V48.0663H62.5962C62.7774 48.0781 62.7653 48.0781 62.8377 48.0781C66.6414 48.0781 70.2277 46.617 72.9567 43.9485C75.7099 41.2557 77.2554 37.6456 77.3037 33.7695C77.3882 26.4277 72.0511 20.3176 64.9267 19.3153Z" fill="#F4C600"/>
<path d="M53.9987 24.5684H23.3279C19.971 24.5684 17.2541 27.2853 17.2541 30.6419V70.3572C17.2541 73.702 19.971 76.4313 23.3279 76.4313H53.9987C57.3556 76.4313 60.0725 73.702 60.0725 70.3572V30.6419C60.0725 27.2853 57.3556 24.5684 53.9987 24.5684ZM42.4427 49.2257H40.7402C40.209 49.2257 39.9313 48.5978 40.2813 48.1992L45.6428 42.21C45.8963 41.9323 46.3189 41.9323 46.5605 42.21L51.9339 48.1992C52.2961 48.5978 52.0183 49.2257 51.475 49.2257H49.7845C49.4343 49.2257 49.1686 49.5034 49.1686 49.8418V58.3669C49.1686 58.7048 48.8909 58.9825 48.5528 58.9825H43.6744C43.3364 58.9825 43.0585 58.7048 43.0585 58.3669V49.8418C43.0585 49.5034 42.7808 49.2257 42.4427 49.2257ZM40.9214 38.2372H24.5474C23.8713 38.2372 23.3399 37.6942 23.3399 37.0297C23.3399 36.3534 23.8713 35.8222 24.5474 35.8222H40.9214C41.5854 35.8222 42.1289 36.3534 42.1289 37.0297C42.1289 37.6942 41.5854 38.2372 40.9214 38.2372ZM34.8838 51.7734H36.5864C37.1177 51.7734 37.3954 52.4013 37.0451 52.7999L31.6838 58.7773C31.4303 59.055 31.0076 59.055 30.7661 58.7773L25.3927 52.7999C25.0304 52.4013 25.3081 51.7734 25.8515 51.7734H27.5422C27.8922 51.7734 28.158 51.4957 28.158 51.1578V42.6209C28.158 42.2825 28.4357 42.0048 28.7737 42.0048H33.6521C33.9901 42.0048 34.2679 42.2825 34.2679 42.6209V51.1578C34.2679 51.4957 34.5456 51.7734 34.8838 51.7734ZM39.2429 70.3454H24.5474C23.8713 70.3454 23.3399 69.8018 23.3399 69.1379C23.3399 68.4734 23.8713 67.9303 24.5474 67.9303H39.2429C39.9071 67.9303 40.4504 68.4734 40.4504 69.1379C40.4504 69.8018 39.9071 70.3454 39.2429 70.3454ZM52.7791 65.1651H24.5474C23.8713 65.1651 23.3399 64.6339 23.3399 63.9576C23.3399 63.2931 23.8713 62.7501 24.5474 62.7501H52.7791C53.4553 62.7501 53.9866 63.2931 53.9866 63.9576C53.9866 64.6339 53.4553 65.1651 52.7791 65.1651ZM52.7791 33.0569H24.5474C23.8713 33.0569 23.3399 32.5257 23.3399 31.8494C23.3399 31.1855 23.8713 30.6419 24.5474 30.6419H52.7791C53.4553 30.6419 53.9866 31.1855 53.9866 31.8494C53.9866 32.5257 53.4553 33.0569 52.7791 33.0569Z" fill="#455E86"/>
</svg>
