<svg width="76" height="76" viewBox="0 0 76 76" fill="none" xmlns="http://www.w3.org/2000/svg">
<path fill-rule="evenodd" clip-rule="evenodd" d="M38.058 15.8105C37.1795 15.8105 36.2731 16.2077 35.2663 17.2014C34.2594 18.1951 33.2382 19.7649 32.3709 21.7884C31.9784 22.7043 31.6259 23.7211 31.3011 24.8041C33.4002 25.6126 35.6723 26.078 38.0613 26.078C40.45 26.078 42.7227 25.6157 44.8216 24.8075C44.4955 23.7232 44.1379 22.7053 43.745 21.7884C42.8778 19.7649 41.8599 18.1951 40.853 17.2014C39.8461 16.208 38.9364 15.8105 38.058 15.8105ZM31.1005 16.9473C28.7286 17.7376 26.5287 18.9079 24.581 20.3976C25.6562 21.4999 26.8779 22.4496 28.1951 23.2629C28.5113 22.2736 28.8467 21.3167 29.2249 20.4344C29.7799 19.1393 30.4081 17.9816 31.1005 16.9473ZM45.0222 16.9473C45.7112 17.9817 46.336 19.1391 46.8911 20.4344C47.2697 21.3178 47.6077 22.2756 47.9242 23.2662C49.2414 22.4534 50.4629 21.5028 51.5383 20.401C49.5911 18.9111 47.3935 17.7383 45.0222 16.9473ZM22.0434 22.6544C18.1905 26.6571 15.8047 32.0826 15.8047 38.0638C15.8047 44.0434 18.1891 49.4675 22.04 53.47C23.5686 51.8806 25.3318 50.5185 27.269 49.4345C26.5055 46.0031 26.0788 42.1537 26.0788 38.0638C26.0788 33.975 26.5059 30.1209 27.269 26.6864C25.3322 25.603 23.5719 24.243 22.0434 22.6544ZM54.0759 22.6577C52.5475 24.2456 50.7867 25.6069 48.8503 26.6898C49.613 30.1234 50.0372 33.9763 50.0372 38.0638C50.0372 42.1524 49.6133 46.0005 48.8503 49.4312C50.7886 50.515 52.5497 51.8769 54.0793 53.4666C57.9283 49.4645 60.3113 44.0417 60.3113 38.0638C60.3113 32.0843 57.9269 26.6601 54.0759 22.6577ZM30.4753 28.1341C29.8657 31.1283 29.5057 34.4941 29.5057 38.0638C29.5057 41.6342 29.8655 44.9958 30.4753 47.9869C32.8459 47.1188 35.3924 46.6195 38.0613 46.6195C40.7302 46.6195 43.2768 47.1188 45.6474 47.9869C46.2606 44.9958 46.627 41.6342 46.627 38.0638C46.627 34.4941 46.2604 31.1283 45.6474 28.1341C43.2769 29.0021 40.73 29.5015 38.0613 29.5015C35.3925 29.5015 32.8458 29.0022 30.4753 28.1341ZM38.0613 50.043C35.6724 50.043 33.4001 50.5051 31.3011 51.3135C31.6257 52.3943 31.9788 53.4108 32.3709 54.3259C33.2382 56.3494 34.2594 57.9326 35.2663 58.9263C36.2731 59.9203 37.1795 60.3171 38.058 60.3171C38.9364 60.3171 39.8461 59.92 40.853 58.9263C41.8599 57.9326 42.8778 56.3494 43.745 54.3259C44.1372 53.4108 44.4959 52.3944 44.8216 51.3135C42.7228 50.5053 40.4499 50.043 38.0613 50.043ZM47.9242 52.8514C47.608 53.8402 47.2693 54.7941 46.8911 55.6766C46.335 56.9742 45.7094 58.1411 45.0188 59.1804C47.392 58.3887 49.5933 57.2146 51.5417 55.7234C50.4649 54.6196 49.2435 53.6653 47.9242 52.8514ZM28.1951 52.8548C26.877 53.6687 25.6533 54.6234 24.5776 55.7267C26.5284 57.2193 28.7308 58.3927 31.1072 59.1837C30.4122 58.1436 29.7816 56.9757 29.2249 55.6766C28.8471 54.7951 28.511 53.8422 28.1951 52.8548Z" fill="#F4C600"/>
<path fill-rule="evenodd" clip-rule="evenodd" d="M38.0531 2.11329C29.9531 2.11887 22.128 4.90525 15.8032 9.91999C14.7898 9.32524 13.628 8.96045 12.3762 8.96045C8.61492 8.96045 5.52907 12.0463 5.52907 15.8076C5.52907 17.4019 6.10491 18.8555 7.03023 20.0236C3.83593 25.4921 2.11127 31.7087 2.10548 38.0609C2.09968 44.4213 3.8149 50.6457 7.00682 56.125C6.09472 57.2885 5.52907 58.7325 5.52907 60.3142C5.52907 64.0755 8.61492 67.1614 12.3762 67.1614C13.6174 67.1614 14.7689 66.8006 15.7764 66.2152C22.111 71.2314 29.9444 74.0141 38.0531 74.0085C46.1531 74.0029 53.9782 71.2166 60.303 66.2018C61.3164 66.7966 62.4782 67.1614 63.73 67.1614C67.4913 67.1614 70.5771 64.0755 70.5771 60.3142C70.5771 58.7191 69.9987 57.2665 69.0726 56.0982C72.268 50.629 73.9949 44.4142 74.0007 38.0609C74.0065 31.7005 72.2913 25.4761 69.0994 19.9968C70.0115 18.8333 70.5771 17.3893 70.5771 15.8076C70.5771 12.0463 67.4913 8.96045 63.73 8.96045C62.4888 8.96045 61.3372 9.32119 60.3298 9.90662C53.9952 4.89046 46.1618 2.10771 38.0531 2.11329ZM38.0531 5.53687C45.2444 5.53194 52.2014 7.94954 57.8758 12.3239C57.2603 13.3499 56.8828 14.5324 56.8828 15.8076C56.8828 19.5689 59.9687 22.6548 63.73 22.6548C64.664 22.6548 65.5574 22.4635 66.3712 22.1199C69.112 26.9813 70.5822 32.4661 70.5771 38.0609C70.572 43.6563 69.0944 49.1386 66.3445 53.9953C65.5374 53.6583 64.6544 53.467 63.73 53.467C59.9687 53.467 56.8828 56.5529 56.8828 60.3142C56.8828 61.5783 57.2535 62.7512 57.8591 63.7712C52.1916 68.1521 45.2431 70.5799 38.0531 70.5849C30.8631 70.5899 23.9076 68.1708 18.2338 63.798C18.8488 62.7722 19.2234 61.5889 19.2234 60.3142C19.2234 56.5529 16.1375 53.467 12.3762 53.467C11.4422 53.467 10.5488 53.6583 9.73499 54.002C6.99419 49.1405 5.52396 43.6557 5.52907 38.0609C5.53416 32.4655 7.01179 26.9832 9.76174 22.1265C10.5688 22.4636 11.4518 22.6548 12.3762 22.6548C16.1375 22.6548 19.2234 19.5689 19.2234 15.8076C19.2234 14.5436 18.8527 13.3706 18.2471 12.3506C23.9146 7.96968 30.8631 5.54181 38.0531 5.53687Z" fill="#465F86"/>
</svg>
