<svg width="77" height="77" viewBox="0 0 77 77" fill="none" xmlns="http://www.w3.org/2000/svg">
<path fill-rule="evenodd" clip-rule="evenodd" d="M38.4999 31.1225C42.5741 31.1225 45.8769 34.4252 45.8769 38.4994C45.8769 42.5737 42.5741 45.8764 38.4999 45.8764C34.4257 45.8764 31.1229 42.5737 31.1229 38.4994C31.1229 34.4252 34.4257 31.1225 38.4999 31.1225ZM36.996 35.3737V36.9955H35.3742C34.5436 36.9955 33.8703 37.6688 33.8703 38.4994C33.8703 39.33 34.5436 40.0033 35.3742 40.0033H36.996V41.6252C36.996 42.4558 37.6693 43.1291 38.4999 43.1291C39.3305 43.1291 40.0038 42.4558 40.0038 41.6252V40.0033H41.6256C42.4562 40.0033 43.1295 39.33 43.1295 38.4994C43.1295 37.6688 42.4562 36.9955 41.6256 36.9955H40.0038V35.3737C40.0038 34.5431 39.3305 33.8698 38.4999 33.8698C37.6693 33.8698 36.996 34.5431 36.996 35.3737ZM22.4786 52.0814C24.024 51.2971 25.7814 50.6242 27.7013 50.0881C26.7619 46.9851 26.187 43.4235 26.0915 39.6274H17.5449C17.7949 44.3623 19.6084 48.6825 22.4786 52.0814ZM29.8879 49.5524C32.2218 49.0566 34.7416 48.7529 37.3718 48.6801V48.0661C32.9535 47.5507 29.4486 44.0457 28.9331 39.6274H28.3481C28.4431 43.2533 28.9931 46.6333 29.8879 49.5524ZM39.6278 48.6747C42.3143 48.7361 44.8885 49.0384 47.2704 49.5407C48.1638 46.6237 48.7132 43.2479 48.808 39.6274H48.0665C47.5512 44.0457 44.046 47.5505 39.6277 48.0661V48.6747H39.6278ZM49.4607 50.074C51.3818 50.6075 53.1424 51.2789 54.6934 52.0627C57.5544 48.6667 59.3618 44.3537 59.6111 39.6274H51.0647C50.9694 43.4184 50.3967 46.9747 49.4607 50.074ZM53.0777 53.7773C51.7716 53.1667 50.3125 52.6377 48.7319 52.2059C47.8184 54.5828 46.5938 56.817 45.0202 58.5588C48.067 57.5812 50.8116 55.9287 53.0777 53.7773ZM46.5202 51.6824C45.0226 55.4458 42.6305 58.7913 39.6278 59.451V50.931C42.0596 50.9883 44.3782 51.2499 46.5202 51.6824ZM37.3718 50.9366C34.9975 51.0044 32.7333 51.267 30.6387 51.6934C32.1139 55.3955 34.4434 58.6718 37.3718 59.4123V50.9366ZM28.4312 52.2196C29.3453 54.5933 30.5701 56.8227 32.1378 58.5593C29.0993 57.5846 26.3613 55.9389 24.0985 53.7964C25.4016 53.1839 26.8564 52.6529 28.4312 52.2196ZM54.6896 24.932C53.1385 25.7153 51.3778 26.3862 49.4571 26.9192C50.3952 30.0206 50.9692 33.579 51.0646 37.3715H59.611C59.3615 32.6434 57.5527 28.3287 54.6896 24.932ZM47.2698 27.4514C44.888 27.9534 42.3138 28.2554 39.6277 28.3166V28.9326C44.0462 29.448 47.551 32.9532 48.0665 37.3714H48.808C48.7132 33.7474 48.1637 30.3692 47.2698 27.4514ZM37.3718 28.3112C34.7424 28.2383 32.2232 27.9347 29.8902 27.439C28.994 30.3595 28.4431 33.7423 28.3481 37.3715H28.9333C29.4486 32.9532 32.9536 29.4482 37.372 28.9328V28.3112H37.3718ZM27.704 26.9033C25.7851 26.3674 24.0287 25.695 22.4839 24.9113C19.6107 28.3112 17.795 32.6338 17.5451 37.3715H26.0916C26.1873 33.5725 26.763 30.0084 27.704 26.9033ZM24.1048 23.1966C25.407 23.8085 26.8607 24.339 28.4344 24.7718C29.3396 22.4231 30.5611 20.1858 32.1364 18.44C29.1012 19.414 26.3661 21.0573 24.1048 23.1966ZM30.6414 25.298C32.0743 21.7038 34.3935 18.339 37.3718 17.5875V26.0548C34.9985 25.9866 32.7351 25.7242 30.6414 25.298ZM39.6278 26.0605C42.0595 26.0032 44.3778 25.7421 46.5195 25.3099C45.0625 21.6507 42.6842 18.2212 39.6278 17.5508V26.0605ZM48.7277 24.7876C47.822 22.4337 46.5992 20.1904 45.0199 18.4402C48.0649 19.4173 50.8079 21.0681 53.0733 23.2176C51.7672 23.8276 50.3083 24.3563 48.7277 24.7876Z" fill="#F4C600"/>
<path fill-rule="evenodd" clip-rule="evenodd" d="M15.3108 64.9124C17.6267 66.1079 19.2195 68.5268 19.2195 71.2997V75.1622C19.2195 75.4697 18.9686 75.7207 18.6609 75.7207H1.91207C1.60452 75.7207 1.35352 75.4699 1.35352 75.1622V71.2997C1.35352 68.5266 2.9463 66.1079 5.26217 64.9124C8.08966 67.5434 12.4833 67.5435 15.3108 64.9124ZM5.93772 28.0885C6.12511 27.4972 6.7563 27.1698 7.34763 27.3572C7.93897 27.5446 8.26637 28.1758 8.07898 28.7671C6.02946 35.216 6.07217 42.2404 8.2205 48.6602C8.41766 49.2489 8.10004 49.8863 7.51111 50.0833C6.92218 50.2803 6.28497 49.9628 6.08796 49.3739C3.78669 42.4969 3.73405 35.0026 5.93772 28.0885ZM24.517 69.7415C23.95 69.486 23.6975 68.8191 23.953 68.2523C24.2085 67.6853 24.8752 67.4328 25.4422 67.6883C33.7576 71.4356 43.3928 71.4356 51.7082 67.6883C52.2752 67.4328 52.9419 67.6853 53.1974 68.2523C53.4529 68.8193 53.2004 69.4861 52.6334 69.7415C43.7225 73.7572 33.4279 73.7572 24.517 69.7415ZM71.0623 49.3739C70.8653 49.9627 70.2279 50.2803 69.6391 50.0833C69.0504 49.8863 68.7327 49.2489 68.9297 48.6602C71.0781 42.2403 71.1208 35.216 69.0713 28.7671C68.8839 28.1758 69.2114 27.5446 69.8026 27.3572C70.3939 27.1698 71.0251 27.4973 71.2125 28.0885C73.4133 35.0134 73.367 42.4862 71.0623 49.3739ZM55.4432 8.68378C55.9834 8.99043 56.1727 9.67696 55.8661 10.217C55.5594 10.7572 54.8729 10.9466 54.3328 10.6399C44.5988 5.11832 32.5516 5.11832 22.8176 10.6399C22.2774 10.9466 21.5908 10.7571 21.2843 10.217C20.9777 9.67681 21.1672 8.99028 21.7072 8.68378C32.1451 2.7629 45.0032 2.76546 55.4432 8.68378ZM10.2866 54.5859C13.0947 54.5859 15.3711 56.8343 15.3711 59.608C15.3711 62.3817 13.0947 64.6301 10.2866 64.6301C7.47847 64.6301 5.20216 62.3817 5.20216 59.608C5.20201 56.8343 7.47847 54.5859 10.2866 54.5859ZM10.2866 1.27734C13.0947 1.27734 15.3711 3.52583 15.3711 6.29949C15.3711 9.07314 13.0947 11.3216 10.2866 11.3216C7.47847 11.3216 5.20216 9.07314 5.20216 6.29949C5.20201 3.52583 7.47847 1.27734 10.2866 1.27734ZM66.864 1.27734C69.6721 1.27734 71.9485 3.52583 71.9485 6.29949C71.9485 9.07314 69.6721 11.3216 66.864 11.3216C64.0559 11.3216 61.7794 9.07314 61.7794 6.29949C61.7794 3.52583 64.0559 1.27734 66.864 1.27734ZM66.864 54.5859C69.6721 54.5859 71.9485 56.8343 71.9485 59.608C71.9485 62.3817 69.6721 64.6301 66.864 64.6301C64.0559 64.6301 61.7794 62.3817 61.7794 59.608C61.7794 56.8343 64.0559 54.5859 66.864 54.5859ZM15.3108 11.6041C17.6267 12.7995 19.2195 15.2184 19.2195 17.9913V21.8538C19.2195 22.1615 18.9686 22.4123 18.6609 22.4123H1.91207C1.60452 22.4123 1.35352 22.1615 1.35352 21.8538V17.9913C1.35352 15.2183 2.9463 12.7994 5.26217 11.6041C8.08966 14.2348 12.4833 14.235 15.3108 11.6041ZM71.8882 11.6041C74.2041 12.7995 75.7969 15.2184 75.7969 17.9913V21.8538C75.7969 22.1615 75.546 22.4123 75.2383 22.4123H58.4895C58.1818 22.4123 57.9309 22.1615 57.9309 21.8538V17.9913C57.9309 15.2183 59.5237 12.7994 61.8396 11.6041C64.6671 14.2348 69.0607 14.235 71.8882 11.6041ZM71.8882 64.9124C74.2041 66.1079 75.7969 68.5268 75.7969 71.2997V75.1622C75.7969 75.4697 75.546 75.7207 75.2383 75.7207H58.4895C58.1818 75.7207 57.9309 75.4699 57.9309 75.1622V71.2997C57.9309 68.5266 59.5237 66.1079 61.8396 64.9124C64.6671 67.5434 69.0607 67.5435 71.8882 64.9124Z" fill="#465F86"/>
</svg>
