<svg width="445" height="282" viewBox="0 0 445 282" fill="none" xmlns="http://www.w3.org/2000/svg">
<g clip-path="url(#clip0_678_392)">
<path d="M298.969 125.926C298.38 125.887 297.791 125.645 297.347 125.181C296.411 124.204 296.44 122.647 297.415 121.709L305.242 114.155C306.217 113.217 307.771 113.246 308.707 114.223C309.644 115.2 309.615 116.757 308.64 117.695L300.812 125.249C300.301 125.732 299.625 125.965 298.969 125.926Z" fill="#F9DA2F"/>
<path d="M293.864 121.941C292.561 121.864 291.538 120.771 291.567 119.446L291.692 113.053C291.721 111.699 292.831 110.625 294.183 110.645C295.505 110.693 296.615 111.786 296.586 113.14L296.46 119.533C296.431 120.887 295.321 121.961 293.97 121.941C293.932 121.941 293.903 121.941 293.864 121.941Z" fill="#F9DA2F"/>
<path d="M302.743 131.187C301.44 131.11 300.417 130.017 300.446 128.692C300.475 127.338 301.585 126.255 302.936 126.284L309.325 126.409C310.667 126.458 311.758 127.551 311.729 128.905C311.7 130.259 310.59 131.332 309.229 131.313L302.849 131.187C302.811 131.187 302.772 131.187 302.743 131.187Z" fill="#F9DA2F"/>
<path d="M6.225 197.314H19.0617C21.9669 197.314 24.3219 199.674 24.3219 202.585C24.3219 205.496 21.9669 207.856 19.0617 207.856H13.068C10.1629 207.856 7.80788 210.216 7.80788 213.127C7.80788 216.038 10.1629 218.398 13.068 218.398H50.6034C53.5085 218.398 55.8636 216.038 55.8636 213.127C55.8636 210.216 53.5085 207.856 50.6034 207.856H47.3894C44.4842 207.856 42.1292 205.496 42.1292 202.585C42.1292 199.674 44.4842 197.314 47.3894 197.314H76.2961C79.2013 197.314 81.5563 194.954 81.5563 192.043C81.5563 189.131 79.2013 186.771 76.2961 186.771H6.225C3.31985 186.771 0.964844 189.131 0.964844 192.043C0.964844 194.954 3.31985 197.314 6.225 197.314Z" stroke="#E9E8E8" stroke-width="2" stroke-miterlimit="10" stroke-linecap="round" stroke-linejoin="round"/>
<path d="M41.252 244.637H73.0446" stroke="#E9E8E8" stroke-width="2" stroke-miterlimit="10" stroke-linecap="round"/>
<path d="M138.733 275.451C138.733 278.633 136.156 281.215 132.98 281.215H71.393C68.2176 281.215 65.6406 278.633 65.6406 275.451V160.493C65.6406 157.311 68.2176 154.729 71.393 154.729H132.98C136.156 154.729 138.733 157.311 138.733 160.493V275.451Z" fill="#3D5887"/>
<path d="M138.733 269.318C138.733 272.5 136.156 275.083 132.98 275.083H71.393C68.2176 275.083 65.6406 272.5 65.6406 269.318V154.36C65.6406 151.178 68.2176 148.596 71.393 148.596H132.98C136.156 148.596 138.733 151.178 138.733 154.36V269.318Z" fill="#293A59"/>
<path d="M138.733 158.094H65.6309V259.927H138.733V158.094Z" fill="#1E1E1E"/>
<path d="M106.931 270.739C106.931 271.378 106.41 271.9 105.773 271.9H98.5919C97.9549 271.9 97.4434 271.378 97.4434 270.739V263.543C97.4434 262.905 97.9646 262.383 98.5919 262.383H105.773C106.41 262.383 106.931 262.905 106.931 263.543V270.739Z" fill="#C8C7C7"/>
<path d="M80.5912 269.773C80.4078 269.957 80.1182 269.957 79.9445 269.773L75.3407 265.169C75.1573 264.985 75.1573 264.695 75.3407 264.521C75.524 264.347 75.8136 264.347 75.9873 264.521L80.5912 269.135C80.7649 269.299 80.7649 269.599 80.5912 269.773Z" fill="#C8C7C7"/>
<path d="M75.3407 269.773C75.524 269.957 75.8136 269.957 75.9873 269.773L80.5912 265.169C80.7746 264.985 80.7746 264.695 80.5912 264.521C80.4078 264.347 80.1182 264.347 79.9445 264.521L75.3407 269.135C75.1573 269.299 75.1573 269.599 75.3407 269.773Z" fill="#C8C7C7"/>
<path d="M130.113 264.54C130.113 264.792 129.911 265.005 129.65 265.005H123.145C122.894 265.005 122.682 264.802 122.682 264.54C122.682 264.289 122.884 264.076 123.145 264.076H129.65C129.911 264.076 130.113 264.279 130.113 264.54Z" fill="#C8C7C7"/>
<path d="M130.113 267.142C130.113 267.393 129.911 267.606 129.65 267.606H123.145C122.894 267.606 122.682 267.403 122.682 267.142C122.682 266.89 122.884 266.678 123.145 266.678H129.65C129.911 266.687 130.113 266.89 130.113 267.142Z" fill="#C8C7C7"/>
<path d="M130.113 269.753C130.113 270.005 129.911 270.218 129.65 270.218H123.145C122.894 270.218 122.682 270.014 122.682 269.753C122.682 269.502 122.884 269.289 123.145 269.289H129.65C129.911 269.289 130.113 269.492 130.113 269.753Z" fill="#C8C7C7"/>
<path d="M110.705 153.5C110.705 153.839 110.425 154.119 110.097 154.119H94.278C93.9402 154.119 93.6699 153.848 93.6699 153.5C93.6699 153.162 93.9402 152.891 94.278 152.891H110.097C110.425 152.881 110.705 153.162 110.705 153.5Z" fill="#4E4D4D"/>
<path d="M131.958 153.499C131.958 154.35 131.273 155.037 130.423 155.037C129.574 155.037 128.889 154.35 128.889 153.499C128.889 152.648 129.574 151.961 130.423 151.961C131.273 151.961 131.958 152.648 131.958 153.499Z" fill="#4E4D4D"/>
<path d="M268.636 158.22C263.906 158.22 260.065 154.371 260.065 149.632V104.039C260.065 85.5662 245.066 70.5364 226.632 70.5364H217.878C199.443 70.5364 184.444 85.5662 184.444 104.039V149.632C184.444 154.371 180.612 158.22 175.873 158.22C171.144 158.22 167.303 154.371 167.303 149.632V104.039C167.303 76.0976 189.994 53.3594 217.878 53.3594H226.632C254.515 53.3594 277.206 76.0879 277.206 104.039V149.632C277.206 154.371 273.375 158.22 268.636 158.22Z" fill="#1E1E1E"/>
<path d="M226.642 53.3594H222.27V70.5364H226.642C245.076 70.5364 260.075 85.5662 260.075 104.039V149.632C260.075 154.371 263.917 158.22 268.646 158.22C273.385 158.22 277.217 154.371 277.217 149.632V104.039C277.207 76.0879 254.525 53.3594 226.642 53.3594Z" fill="#1E1E1E"/>
<path d="M296.944 239.743C296.944 247.876 290.361 254.463 282.254 254.463H162.274C154.157 254.463 147.584 247.867 147.584 239.743V139.021C147.584 130.887 154.166 124.301 162.274 124.301H282.254C290.371 124.301 296.944 130.897 296.944 139.021V239.743Z" fill="#293A59"/>
<path d="M282.255 124.301H222.26V254.473H282.255C290.372 254.473 296.944 247.876 296.944 239.752V139.021C296.944 130.897 290.372 124.301 282.255 124.301Z" fill="#3D5887"/>
<path d="M277.746 204.965C277.746 208.108 275.208 210.652 272.071 210.652H172.447C169.31 210.652 166.771 208.108 166.771 204.965V173.802C166.771 170.659 169.31 168.115 172.447 168.115H272.071C275.208 168.115 277.746 170.659 277.746 173.802V204.965Z" fill="#E2C630"/>
<path d="M272.072 168.115H222.26V210.652H272.072C275.209 210.652 277.747 208.108 277.747 204.965V173.802C277.747 170.669 275.209 168.115 272.072 168.115Z" fill="#F9DA2F"/>
<path d="M347.297 84.0094C347.297 86.9206 344.942 89.2805 342.037 89.2805H309.877C306.972 89.2805 304.617 86.9206 304.617 84.0094C304.617 81.0982 306.972 78.7383 309.877 78.7383H342.037C344.952 78.748 347.297 81.1079 347.297 84.0094Z" stroke="#E9E8E8" stroke-width="2" stroke-miterlimit="10" stroke-linecap="round" stroke-linejoin="round"/>
<path d="M438.775 167.668H391.53C388.625 167.668 386.27 165.308 386.27 162.397C386.27 159.486 388.625 157.126 391.53 157.126H396.723C399.628 157.126 401.983 154.766 401.983 151.855C401.983 148.944 399.628 146.584 396.723 146.584H364.959C362.054 146.584 359.699 148.944 359.699 151.855C359.699 154.766 362.054 157.126 364.959 157.126H369.901C372.806 157.126 375.161 159.486 375.161 162.397C375.161 165.308 372.806 167.668 369.901 167.668H355.327C352.421 167.668 350.066 170.028 350.066 172.939C350.066 175.851 352.421 178.211 355.327 178.211H388.538C391.443 178.211 393.798 180.57 393.798 183.482C393.798 186.393 391.443 188.753 388.538 188.753H382.544C379.639 188.753 377.284 191.113 377.284 194.024C377.284 196.935 379.639 199.295 382.544 199.295H420.07C422.975 199.295 425.33 196.935 425.33 194.024C425.33 191.113 422.975 188.753 420.07 188.753H416.856C413.951 188.753 411.596 186.393 411.596 183.482C411.596 180.57 413.951 178.211 416.856 178.211H438.765C441.67 178.211 444.025 175.851 444.025 172.939C444.035 170.028 441.68 167.668 438.775 167.668Z" stroke="#E9E8E8" stroke-width="2" stroke-miterlimit="10" stroke-linecap="round" stroke-linejoin="round"/>
<path d="M119.325 105.789C119.325 108.7 116.97 111.06 114.064 111.06H99.7992C96.8941 111.06 94.5391 108.7 94.5391 105.789C94.5391 102.877 96.8941 100.518 99.7992 100.518H114.074C116.97 100.518 119.325 102.877 119.325 105.789Z" stroke="#E9E8E8" stroke-width="2" stroke-miterlimit="10" stroke-linecap="round" stroke-linejoin="round"/>
<path d="M403.807 252.345C403.807 255.257 401.452 257.616 398.547 257.616H394.039C391.134 257.616 388.779 255.257 388.779 252.345C388.779 249.434 391.134 247.074 394.039 247.074H398.547C401.452 247.084 403.807 249.434 403.807 252.345Z" stroke="#E9E8E8" stroke-width="2" stroke-miterlimit="10" stroke-linecap="round" stroke-linejoin="round"/>
<path d="M419.394 226.241C418.641 226.744 417.618 226.541 417.116 225.787L417.087 225.748C416.846 225.38 416.344 225.284 415.978 225.525C415.611 225.767 415.514 226.27 415.756 226.638L415.785 226.676C416.286 227.431 416.084 228.456 415.331 228.969C414.964 229.21 414.829 229.694 415.051 230.071C415.292 230.468 415.804 230.584 416.19 230.332L416.228 230.303C416.981 229.8 418.004 230.003 418.506 230.758L418.535 230.796C418.777 231.164 419.278 231.261 419.645 231.019C420.012 230.777 420.108 230.274 419.867 229.907L419.838 229.868C419.336 229.114 419.539 228.088 420.292 227.576L420.33 227.547C420.707 227.295 420.803 226.773 420.523 226.396C420.263 226.057 419.761 225.999 419.394 226.241ZM418.197 228.862C417.869 229.085 417.425 228.988 417.213 228.669C416.991 228.34 417.078 227.895 417.406 227.682C417.734 227.46 418.168 227.556 418.39 227.876C418.612 228.204 418.526 228.64 418.197 228.862Z" fill="#3D5887"/>
<path d="M142.873 93.4485C141.31 93.4485 140.036 92.1815 140.036 90.605V90.5276C140.036 89.7635 139.418 89.1445 138.655 89.1445C137.893 89.1445 137.275 89.7635 137.275 90.5276V90.605C137.275 92.1718 136.001 93.4485 134.438 93.4485C133.685 93.4485 133.019 94.0094 132.98 94.7541C132.942 95.5472 133.569 96.2146 134.36 96.2146H134.438C136.001 96.2146 137.275 97.4912 137.275 99.0581V99.1354C137.275 99.8995 137.893 100.518 138.655 100.518C139.418 100.518 140.036 99.8995 140.036 99.1354V99.0581C140.036 97.4912 141.31 96.2146 142.873 96.2146H142.95C143.732 96.2146 144.369 95.5569 144.331 94.7541C144.292 94.0094 143.616 93.4485 142.873 93.4485ZM138.655 96.0598C137.98 96.0598 137.43 95.5085 137.43 94.8315C137.43 94.1545 137.98 93.6032 138.655 93.6032C139.331 93.6032 139.881 94.1545 139.881 94.8315C139.881 95.5085 139.331 96.0598 138.655 96.0598Z" fill="#3D5887"/>
<path d="M408.15 108.719C408.15 111.785 405.67 114.281 402.6 114.281C399.541 114.281 397.051 111.795 397.051 108.719C397.051 105.654 399.531 103.158 402.6 103.158C405.66 103.168 408.15 105.654 408.15 108.719Z" stroke="#F9DA2F" stroke-width="2" stroke-miterlimit="10"/>
<path d="M36.6854 146.604C36.6854 149.67 34.2049 152.165 31.1356 152.165C28.0761 152.165 25.5859 149.68 25.5859 146.604C25.5859 143.538 28.0761 141.043 31.1356 141.043C34.1952 141.043 36.6854 143.529 36.6854 146.604Z" stroke="#293A59" stroke-width="1.5613" stroke-miterlimit="10"/>
<path d="M365.44 276.534C365.44 279.116 363.346 281.215 360.769 281.215H296.238C293.661 281.215 291.566 279.116 291.566 276.534V228.156C291.566 225.573 293.661 223.475 296.238 223.475H360.769C363.346 223.475 365.44 225.573 365.44 228.156V276.534Z" fill="#3D5887"/>
<path d="M363.839 224.375L332.693 201.772C330.377 200.089 326.622 200.089 324.296 201.772C324.296 201.772 293.179 224.317 292.909 224.568C292.909 224.568 291.635 226.067 291.635 227.325L324.296 251.078C326.612 252.761 330.367 252.761 332.693 251.078L365.345 227.325C365.161 226.212 364.679 225.071 363.839 224.375Z" fill="#6D7076"/>
<path d="M296.237 281.216H360.768C363.065 281.216 364.966 279.552 365.353 277.366L332.701 249.047C330.385 247.364 326.63 247.364 324.304 249.047L291.652 277.366C292.038 279.562 293.94 281.216 296.237 281.216Z" fill="#293A59"/>
<path d="M299.221 210.863V232.828L324.315 251.078C326.631 252.761 330.386 252.761 332.712 251.078L357.797 232.828V210.854H299.221V210.863Z" fill="#F9DA2F"/>
<path d="M324.305 246.524L299.211 228.273V232.829L324.305 251.079C326.622 252.762 330.376 252.762 332.702 251.079L357.787 232.829V228.273L332.702 246.524C330.386 248.207 326.622 248.207 324.305 246.524Z" fill="#E2C630"/>
<path d="M340.896 220.767H316.101C315.425 220.767 314.875 220.216 314.875 219.539C314.875 218.862 315.425 218.311 316.101 218.311H340.896C341.572 218.311 342.122 218.862 342.122 219.539C342.122 220.216 341.581 220.767 340.896 220.767Z" fill="#293A59"/>
<path d="M348.839 227.441H308.157C307.482 227.441 306.932 226.89 306.932 226.213C306.932 225.536 307.482 224.984 308.157 224.984H348.839C349.515 224.984 350.065 225.536 350.065 226.213C350.065 226.89 349.524 227.441 348.839 227.441Z" fill="#293A59"/>
<path d="M348.839 232.837H308.157C307.482 232.837 306.932 232.286 306.932 231.609C306.932 230.932 307.482 230.381 308.157 230.381H348.839C349.515 230.381 350.065 230.932 350.065 231.609C350.065 232.286 349.524 232.837 348.839 232.837Z" fill="#293A59"/>
<path d="M348.839 238.224H308.157C307.482 238.224 306.932 237.673 306.932 236.996C306.932 236.319 307.482 235.768 308.157 235.768H348.839C349.515 235.768 350.065 236.319 350.065 236.996C350.065 237.673 349.524 238.224 348.839 238.224Z" fill="#293A59"/>
<path d="M348.839 238.224C349.514 238.224 350.064 237.673 350.064 236.996C350.064 236.319 349.514 235.768 348.839 235.768H347.478L344.1 238.224H348.839Z" fill="#E6ECF8"/>
<path d="M309.528 235.777H308.157C307.482 235.777 306.932 236.329 306.932 237.006C306.932 237.683 307.482 238.234 308.157 238.234H312.896L309.528 235.777Z" fill="#E6ECF8"/>
<path d="M350.066 127.666L320.783 139.93C320.783 139.93 322.897 162.629 326.236 176.943C327.781 183.559 350.066 197.767 350.066 197.767C350.066 197.767 372.352 183.569 373.896 176.943C377.236 162.629 379.35 139.93 379.35 139.93L350.066 127.666Z" fill="#4E4D4D"/>
<path d="M373.906 176.943C377.245 162.629 379.359 139.93 379.359 139.93L350.066 127.666V197.757C350.066 197.757 372.352 183.559 373.906 176.943Z" fill="#404040"/>
<path d="M350.067 191.906C340.464 185.504 331.864 178.279 330.986 175.755C328.466 164.971 326.633 150.985 325.957 143.074L350.067 132.977L374.177 143.074C373.492 150.985 371.658 164.99 369.129 175.813C368.27 178.289 359.67 185.513 350.067 191.906Z" fill="#E2C630"/>
<path d="M350.066 191.907C359.67 185.514 368.269 178.289 369.128 175.822C371.657 164.99 373.491 150.995 374.176 143.084L350.066 132.986V191.907Z" fill="#F9DA2F"/>
<path d="M349.067 171.94C348.285 171.94 347.503 171.64 346.905 171.041L339.763 163.884C338.566 162.684 338.566 160.74 339.763 159.541C340.96 158.342 342.9 158.342 344.087 159.541L349.067 164.532L361.19 152.384C362.386 151.185 364.326 151.185 365.513 152.384C366.71 153.583 366.71 155.527 365.513 156.726L351.229 171.041C350.64 171.64 349.859 171.94 349.067 171.94Z" fill="#293A59"/>
<path d="M351.238 171.041L365.523 156.726C366.719 155.527 366.719 153.583 365.523 152.384C364.326 151.185 362.386 151.185 361.199 152.384L349.076 164.532V171.94C349.858 171.94 350.64 171.64 351.238 171.041Z" fill="#293A59"/>
<path d="M316.043 32.9708C316.043 35.7079 313.833 37.9324 311.092 37.9324H133.424C130.693 37.9324 128.473 35.7079 128.473 32.9708V10.1745C128.473 7.43739 130.693 5.21289 133.424 5.21289H311.102C313.833 5.21289 316.053 7.43739 316.053 10.1745V32.9708H316.043Z" fill="#F3941B"/>
<path d="M316.043 27.7579C316.043 30.495 313.833 32.7195 311.092 32.7195H133.424C130.693 32.7195 128.473 30.495 128.473 27.7579V4.9616C128.473 2.2245 130.693 0 133.424 0H311.102C313.833 0 316.053 2.2245 316.053 4.9616V27.7579H316.043Z" fill="#F9DA2F"/>
<path d="M280.119 23.2407C280.119 24.6141 279.009 25.7263 277.639 25.7263H137.371C136.001 25.7263 134.891 24.6141 134.891 23.2407V9.47782C134.891 8.10444 136.001 6.99219 137.371 6.99219H277.639C279.009 6.99219 280.119 8.10444 280.119 9.47782V23.2407Z" fill="#293A59"/>
<path d="M309.017 23.2407C309.017 24.6141 307.907 25.7263 306.536 25.7263H289.936C288.565 25.7263 287.455 24.6141 287.455 23.2407V9.47782C287.455 8.10444 288.565 6.99219 289.936 6.99219H306.527C307.897 6.99219 309.007 8.10444 309.007 9.47782V23.2407H309.017Z" fill="white"/>
<path d="M306.527 23.261H289.936C288.565 23.261 287.455 22.1488 287.455 20.7754V23.2514C287.455 24.6247 288.565 25.737 289.936 25.737H306.527C307.897 25.737 309.007 24.6247 309.007 23.2514V20.7754C309.017 22.1488 307.897 23.261 306.527 23.261Z" fill="#E6ECF8"/>
<path d="M277.629 23.2806H137.371C136.001 23.2806 134.891 22.1683 134.891 20.7949V23.2515C134.891 24.6249 136.001 25.7372 137.371 25.7372H277.639C279.009 25.7372 280.119 24.6249 280.119 23.2515V20.7949C280.119 22.1683 279 23.2806 277.629 23.2806Z" fill="#3D5887"/>
<path d="M304.181 16.9549C304.258 16.7712 304.296 16.5681 304.296 16.3649C304.296 16.1618 304.258 15.9587 304.181 15.775C304.103 15.5912 303.988 15.4171 303.852 15.2817L300.233 11.6548C299.635 11.0552 298.669 11.0552 298.071 11.6548C297.473 12.2545 297.473 13.2216 298.071 13.8213L299.085 14.8368H293.718C292.869 14.8368 292.184 15.5235 292.184 16.3746C292.184 17.2257 292.869 17.9124 293.718 17.9124H299.085L298.071 18.928C297.473 19.5276 297.473 20.4948 298.071 21.0944C298.37 21.3942 298.756 21.5393 299.152 21.5393C299.548 21.5393 299.934 21.3942 300.233 21.0944L303.852 17.4675C303.988 17.3031 304.094 17.1387 304.181 16.9549Z" fill="#293A59"/>
<path d="M150.296 17.4089L148.926 16.6158L150.296 15.8227C151.069 15.3778 151.329 14.3913 150.885 13.6272C150.441 12.8535 149.457 12.5924 148.694 13.0373L147.324 13.8303V12.2538C147.324 11.364 146.6 10.6387 145.721 10.6387C144.834 10.6387 144.11 11.364 144.11 12.2538V13.8303L142.739 13.0373C141.967 12.5924 140.992 12.8535 140.539 13.6272C140.095 14.401 140.355 15.3778 141.127 15.8227L142.498 16.6158L141.127 17.4089C140.355 17.8538 140.095 18.8403 140.539 19.6044C140.983 20.3781 141.967 20.6392 142.729 20.1943L144.1 19.4013V20.9874C144.1 21.8772 144.824 22.6026 145.712 22.6026C146.6 22.6026 147.314 21.8772 147.314 20.9874V19.4013L148.685 20.1943C149.457 20.6392 150.432 20.3781 150.876 19.6044C151.329 18.8403 151.069 17.8538 150.296 17.4089Z" fill="white"/>
<path d="M170.228 17.4089L168.858 16.6158L170.228 15.8227C170.991 15.3778 171.261 14.3913 170.817 13.6272C170.373 12.8535 169.388 12.5924 168.626 13.0373L167.255 13.8303V12.2538C167.255 11.364 166.532 10.6387 165.653 10.6387C164.765 10.6387 164.041 11.364 164.041 12.2538V13.8303L162.671 13.0373C161.899 12.5924 160.924 12.8535 160.48 13.6272C160.036 14.401 160.297 15.3778 161.069 15.8227L162.439 16.6158L161.069 17.4089C160.297 17.8538 160.036 18.8403 160.48 19.6044C160.924 20.3781 161.908 20.6392 162.671 20.1943L164.041 19.4013V20.9874C164.041 21.8772 164.765 22.6026 165.653 22.6026C166.541 22.6026 167.255 21.8772 167.255 20.9874V19.4013L168.616 20.1943C169.388 20.6392 170.363 20.3781 170.807 19.6044C171.261 18.8403 171 17.8538 170.228 17.4089Z" fill="white"/>
<path d="M190.167 17.4089L188.797 16.6158L190.167 15.8227C190.93 15.3778 191.2 14.3913 190.756 13.6272C190.312 12.8535 189.328 12.5924 188.565 13.0373L187.195 13.8303V12.2538C187.195 11.364 186.471 10.6387 185.583 10.6387C184.695 10.6387 183.971 11.364 183.971 12.2538V13.8303L182.601 13.0373C181.838 12.5924 180.854 12.8535 180.41 13.6272C179.966 14.401 180.226 15.3778 180.998 15.8227L182.369 16.6158L180.998 17.4089C180.226 17.8538 179.966 18.8403 180.41 19.6044C180.854 20.3781 181.838 20.6392 182.601 20.1943L183.971 19.4013V20.9874C183.971 21.8772 184.695 22.6026 185.583 22.6026C186.471 22.6026 187.195 21.8772 187.195 20.9874V19.4013L188.556 20.1943C189.328 20.6392 190.312 20.3781 190.747 19.6044C191.2 18.8403 190.94 17.8538 190.167 17.4089Z" fill="white"/>
<path d="M210.099 17.4089L208.729 16.6158L210.099 15.8227C210.871 15.3778 211.132 14.3913 210.688 13.6272C210.244 12.8535 209.259 12.5924 208.497 13.0373L207.126 13.8303V12.2538C207.126 11.364 206.403 10.6387 205.515 10.6387C204.627 10.6387 203.903 11.364 203.903 12.2538V13.8303L202.532 13.0373C201.77 12.5924 200.785 12.8535 200.341 13.6272C199.897 14.401 200.158 15.3778 200.93 15.8227L202.301 16.6158L200.93 17.4089C200.158 17.8538 199.897 18.8403 200.341 19.6044C200.785 20.3781 201.77 20.6392 202.532 20.1943L203.903 19.4013V20.9874C203.903 21.8772 204.627 22.6026 205.515 22.6026C206.403 22.6026 207.126 21.8772 207.126 20.9874V19.4013L208.487 20.1943C209.259 20.6392 210.234 20.3781 210.678 19.6044C211.132 18.8403 210.871 17.8538 210.099 17.4089Z" fill="white"/>
<path d="M230.039 17.4089L228.668 16.6158L230.039 15.8227C230.811 15.3778 231.071 14.3913 230.627 13.6272C230.183 12.8535 229.199 12.5924 228.437 13.0373L227.066 13.8303V12.2538C227.066 11.364 226.342 10.6387 225.454 10.6387C224.566 10.6387 223.852 11.364 223.852 12.2538V13.8303L222.481 13.0373C221.719 12.5924 220.734 12.8535 220.291 13.6272C219.847 14.401 220.117 15.3778 220.879 15.8227L222.25 16.6158L220.879 17.4089C220.107 17.8538 219.847 18.8403 220.291 19.6044C220.734 20.3781 221.719 20.6392 222.481 20.1943L223.852 19.4013V20.9874C223.852 21.8772 224.576 22.6026 225.454 22.6026C226.342 22.6026 227.066 21.8772 227.066 20.9874V19.4013L228.437 20.1943C229.209 20.6392 230.193 20.3781 230.627 19.6044C231.071 18.8403 230.811 17.8538 230.039 17.4089Z" fill="white"/>
<path d="M260.807 203.107V174.865H267.138V203.107H260.807Z" fill="#293A59"/>
<path d="M233.945 203.107V174.865H240.122V203.107H233.945ZM239.35 203.107V197.845H251.666V203.107H239.35ZM239.35 191.385V186.123H250.778V191.385H239.35ZM239.35 180.127V174.865H251.396V180.127H239.35Z" fill="#293A59"/>
<path d="M192.609 203.107V174.865H201.334L207.782 190.727H208.515L214.885 174.865H223.765V203.107H217.511V179.005L218.399 179.082L210.948 197.381H204.925L197.435 179.082L198.4 179.005V203.107H192.609Z" fill="#293A59"/>
<path d="M176.008 203.107V174.865H182.339V203.107H176.008Z" fill="#293A59"/>
</g>
<defs>
<clipPath id="clip0_678_392">
<rect width="445" height="281.215" fill="white"/>
</clipPath>
</defs>
</svg>
