<svg width="66" height="69" viewBox="0 0 66 69" fill="none" xmlns="http://www.w3.org/2000/svg">
<path d="M25.0509 61.006C25.4791 61.4798 26.0234 62.2434 26.84 62.2434H38.752C39.5471 62.2434 39.9246 61.6466 40.0938 61.5129C40.2886 61.3613 41.4327 59.5747 43.821 59.5747H62.3227V20.2455C62.3227 17.547 60.1311 15.3555 57.4326 15.3555H49.5013C49.3521 16.9358 48.9794 18.4713 48.4278 19.8877H54.4509C55.9716 19.8877 57.1941 21.1102 57.1941 22.6308V52.2993C57.1941 53.82 55.9716 55.0425 54.4509 55.0425H11.141C9.63522 55.0425 8.39786 53.82 8.39786 52.2993V22.6308C8.39786 21.1102 9.63522 19.8877 11.141 19.8877H17.179C16.6274 18.4713 16.2547 16.9358 16.1057 15.3555H8.1742C5.47572 15.3555 3.28418 17.547 3.28418 20.2455V59.5747H21.771C23.0084 59.5747 24.2011 60.0965 25.0509 61.006Z" fill="#455E86"/>
<path d="M43.8303 62.5625C42.9425 62.5625 42.6923 63.1682 41.8204 63.9831C40.9931 64.7695 39.897 65.2312 38.7498 65.2312H26.849C25.5431 65.2312 24.3135 64.5881 23.5848 63.8204C23.0761 63.3645 22.7228 62.5625 21.7693 62.5625H0.00020375C-0.0266144 65.7837 2.5971 68.5857 6.02339 68.5857H59.5754C62.9171 68.5857 65.5956 65.899 65.5986 62.5698L43.8303 62.5625Z" fill="#455E86"/>
<path d="M36.2172 39.2837L35.6357 30.3235C34.7114 30.4726 33.7721 30.562 32.8031 30.562C31.834 30.562 30.8798 30.4726 29.9555 30.3086L29.3741 39.2837C29.2697 41.2516 30.8202 42.9065 32.8031 42.9065C34.7859 42.9065 36.3365 41.2516 36.2172 39.2837Z" fill="#455E86"/>
<path d="M21.4785 30.2382C20.8175 29.7454 19.885 29.8801 19.3922 30.5396L15.8783 35.2394L14.7696 34.1307C14.1872 33.5483 13.2438 33.5483 12.6614 34.1307C12.079 34.713 12.079 35.6565 12.6614 36.2389L14.9872 38.5647C15.6265 39.2057 16.6899 39.1322 17.2352 38.4031L21.7799 32.3246C22.2734 31.6651 22.138 30.7311 21.4785 30.2382Z" fill="#455E86"/>
<path d="M51.8898 36.0176H42.0797C41.2564 36.0176 40.5889 36.6851 40.5889 37.5085C40.5889 38.3318 41.2564 38.9993 42.0797 38.9993H51.8898C52.7131 38.9993 53.3807 38.3318 53.3807 37.5085C53.3807 36.6851 52.7131 36.0176 51.8898 36.0176Z" fill="#455E86"/>
<path d="M41.6774 29.9355C40.8541 29.9355 40.1865 30.6031 40.1865 31.4264C40.1865 32.2498 40.8541 32.9173 41.6774 32.9173H45.9265C46.7499 32.9173 47.4174 32.2498 47.4174 31.4264C47.4174 30.6031 46.7499 29.9355 45.9265 29.9355H41.6774Z" fill="#455E86"/>
<path d="M19.3922 42.174L15.8783 46.8737L14.7696 45.7657C14.1872 45.1834 13.2438 45.1834 12.6614 45.7657C12.079 46.3481 12.079 47.2915 12.6614 47.8739L14.9872 50.1998C15.6265 50.8407 16.6899 50.7673 17.2352 50.0382L21.7799 43.9589C22.2734 43.2994 22.138 42.3654 21.4785 41.8726C20.8175 41.3797 19.885 41.5159 19.3922 42.174Z" fill="#455E86"/>
<path d="M25.1582 49.1452C25.1582 49.9685 25.8257 50.636 26.6491 50.636H51.884C52.7073 50.636 53.3749 49.9685 53.3749 49.1452C53.3749 48.3218 52.7073 47.6543 51.884 47.6543H26.6491C25.8257 47.6543 25.1582 48.3218 25.1582 49.1452Z" fill="#455E86"/>
<path d="M45.9255 44.5618C46.7488 44.5618 47.4164 43.8943 47.4164 43.071C47.4164 42.2476 46.7488 41.5801 45.9255 41.5801H41.4674C40.6441 41.5801 39.9766 42.2476 39.9766 43.071C39.9766 43.8943 40.6441 44.5618 41.4674 44.5618H45.9255Z" fill="#455E86"/>
<path d="M32.8033 27.5812C40.4067 27.5812 46.5939 21.3941 46.5939 13.7906C46.5939 6.18716 40.4067 0 32.8033 0C25.1998 0 19.0127 6.18716 19.0127 13.7906C19.0127 21.3941 25.1998 27.5812 32.8033 27.5812ZM31.3089 6.85944V6.64705C31.3089 5.82372 31.9765 5.15618 32.7998 5.15618C33.6231 5.15618 34.2907 5.82372 34.2907 6.64705V6.84688C35.5454 7.30259 36.5455 8.31664 36.9543 9.65865C37.1945 10.4463 36.7505 11.2798 35.9628 11.5193C35.1752 11.7581 34.3416 11.3155 34.1021 10.5278C33.9266 9.95111 33.4059 9.5641 32.8058 9.56137C32.8037 9.56137 32.8019 9.56256 32.7998 9.56256C32.7979 9.56256 32.7964 9.56146 32.7944 9.56146C32.0444 9.56456 31.4342 10.1803 31.4342 10.9384C31.4342 11.686 32.0235 12.3041 32.7998 12.3041C35.197 12.3041 37.1472 14.2543 37.1472 16.6515C37.1472 18.5285 35.9524 20.1178 34.2907 20.7311V20.9458C34.2907 21.7691 33.6231 22.4366 32.7998 22.4366C31.9765 22.4366 31.3089 21.7691 31.3089 20.9458V20.7437C30.0542 20.288 29.0542 19.274 28.6453 17.932C28.4051 17.1443 28.8491 16.3108 29.6368 16.0713C30.4208 15.8289 31.258 16.2751 31.4975 17.0628C31.6737 17.6415 32.1971 18.0303 32.7998 18.0303C33.5525 18.0303 34.1655 17.4115 34.1655 16.6515C34.1655 15.8988 33.5525 15.2858 32.7998 15.2858C30.3552 15.2858 28.4524 13.2973 28.4524 10.9384C28.4524 9.06199 29.6473 7.47275 31.3089 6.85944Z" fill="#455E86"/>
</svg>
