<svg width="77" height="77" viewBox="0 0 77 77" fill="none" xmlns="http://www.w3.org/2000/svg">
<path d="M40.9062 31.2812H7.21875C4.57187 31.2812 2.40625 33.4469 2.40625 36.0938V69.7812C2.40625 72.4281 4.57187 74.5938 7.21875 74.5938H40.9062C43.5531 74.5938 45.7188 72.4281 45.7188 69.7812V36.0938C45.7188 33.4469 43.5531 31.2812 40.9062 31.2812ZM24.6641 64.9688H23.4609C22.1375 64.9688 21.0547 63.8859 21.0547 62.5625C21.0547 61.2391 22.1375 60.1562 23.4609 60.1562H24.6641C25.9875 60.1562 27.0703 61.2391 27.0703 62.5625C27.0703 63.8859 25.9875 64.9688 24.6641 64.9688ZM31.1609 57.4853C30.7037 57.9425 30.0781 58.1831 29.4766 58.1831C28.875 58.1831 28.2494 57.9425 27.7681 57.4612C25.795 55.4641 22.33 55.4641 20.3569 57.4612C19.4184 58.3997 17.9025 58.4237 16.9641 57.4612C16.0256 56.5228 16.0016 55.0069 16.9641 54.0684C18.865 52.1434 21.3916 51.0847 24.0866 51.0847C26.7816 51.0847 29.3081 52.1434 31.2091 54.0684C32.1475 55.0069 32.1234 56.5469 31.2091 57.4612L31.1609 57.4853ZM36.575 49.5688C36.0938 50.0259 35.4922 50.2666 34.8906 50.2666C34.2891 50.2666 33.6634 50.0259 33.1822 49.5447C30.7519 47.0903 27.5034 45.7188 24.0625 45.7188C20.6216 45.7188 17.3731 47.0663 14.9428 49.5447C14.0044 50.4831 12.4884 50.5072 11.5259 49.5447C10.5875 48.6063 10.5634 47.0903 11.5259 46.1519C14.8706 42.7831 19.3222 40.9062 24.0625 40.9062C28.8028 40.9062 33.2544 42.7591 36.5991 46.1519C37.5375 47.0903 37.5134 48.6303 36.5991 49.5447L36.575 49.5688Z" fill="#F4C600"/>
<path d="M67.375 43.3125H50.5312V62.5625H62.5625C63.8859 62.5625 64.9688 63.6453 64.9688 64.9688C64.9688 66.2922 63.8859 67.375 62.5625 67.375H56.7394L57.7981 72.6688C58.0147 73.7997 59.0013 74.5938 60.1562 74.5938H72.1875C73.5109 74.5938 74.5938 73.5109 74.5938 72.1875V50.5312C74.5938 46.5609 71.3453 43.3125 67.375 43.3125Z" fill="#465F86"/>
<path d="M14.4375 20.9829V26.4691H33.6875V19.6113L14.4375 20.9829Z" fill="#F4C600"/>
<path d="M72.1875 2.40625H9.625C5.65469 2.40625 2.40625 5.65469 2.40625 9.625V17.0122L74.5938 11.8628V4.8125C74.5938 3.48906 73.5109 2.40625 72.1875 2.40625Z" fill="#465F86"/>
</svg>
