<svg width="362" height="283" viewBox="0 0 362 283" fill="none" xmlns="http://www.w3.org/2000/svg">
<g clip-path="url(#clip0_671_2268)">
<path d="M131.56 0.012785C135.253 0.0383901 138.946 -0.0512277 142.64 0.047992C142.605 2.69172 142.576 5.33544 142.659 7.97916C144.239 8.29282 145.788 8.75692 147.34 9.1954C148.649 6.91015 149.943 4.6153 151.281 2.34605C154.458 4.20882 157.689 5.97556 160.812 7.92795C159.458 10.2004 158.145 12.4953 156.845 14.7997C158.065 15.8175 159.19 16.9473 160.203 18.1764C162.533 16.9313 164.776 15.5359 167.07 14.2332C169.004 17.357 170.722 20.6121 172.621 23.7615C171.49 24.5648 170.247 25.1826 169.078 25.9283C164.094 25.9283 159.11 25.9315 154.127 25.9251C151.167 21.6715 146.543 18.6501 141.499 17.5651C137.401 16.6849 133.042 17.069 129.17 18.6885C125.057 20.3848 121.52 23.4446 119.241 27.2822C116.501 31.8431 115.631 37.4826 116.832 42.6708C118.104 48.5472 122.122 53.6906 127.399 56.4976C127.424 59.8838 127.443 63.2701 127.386 66.6532C126.516 67.2581 126.111 68.2663 125.592 69.1497C124.719 70.6444 123.878 72.1583 122.995 73.6466C119.792 71.8478 116.616 70.0042 113.467 68.1159C114.726 65.7826 116.201 63.5678 117.348 61.1737C116.166 60.2007 115.185 59.0165 114.063 57.9795C113.659 57.9346 113.327 58.2451 112.98 58.4051C111.042 59.5478 109.111 60.7 107.139 61.7754C105.304 58.578 103.436 55.4029 101.645 52.1863C103.844 50.8292 106.148 49.6418 108.324 48.2527C108.245 46.6812 107.474 45.1705 107.27 43.583C104.593 43.4838 101.916 43.647 99.2429 43.487C99.3194 39.8095 99.2747 36.1319 99.2652 32.4544C101.878 32.416 104.494 32.528 107.104 32.4192C107.744 30.9725 107.907 29.3178 108.468 27.8199C106.209 26.4884 103.946 25.1602 101.658 23.8863C103.312 20.7305 105.167 17.6803 106.945 14.5949C107.158 14.0444 107.722 14.5949 108.05 14.7133C110.032 15.8751 112.008 17.0498 114.012 18.1732C115.08 16.9697 116.265 15.8847 117.377 14.7261C116.103 12.412 114.678 10.1844 113.499 7.81913C116.692 6.03638 119.812 4.1288 123.011 2.35885C124.324 4.6505 125.643 6.93896 126.959 9.22741C128.466 8.71851 130.008 8.31843 131.56 7.97596C131.563 5.32264 131.547 2.66611 131.56 0.012785ZM209.301 2.49328C211.617 -0.0480271 215.83 -0.412899 218.573 1.63551C220.176 2.73972 221.081 4.56088 221.524 6.41725C223.436 5.61069 225.689 5.41225 227.607 6.32443C230.277 7.49907 231.934 10.5525 231.574 13.4426C231.3 15.3886 230.233 17.245 228.595 18.3428C228.19 18.6533 227.661 18.6117 227.19 18.6405C219.647 18.6565 212.105 18.7333 204.566 18.7589C203.307 18.8933 202.504 17.7219 201.905 16.7873C200.407 14.4092 201.105 11.0038 203.352 9.34903C204.441 8.41125 205.898 8.184 207.287 8.12639C207.194 6.06838 207.825 3.96557 209.301 2.49328ZM92.3314 99.4565C94.7117 97.2128 98.6693 97.008 101.282 98.9604C102.875 100.061 103.787 101.87 104.239 103.716C105.928 103.032 107.843 102.766 109.596 103.364C112.409 104.254 114.455 107.151 114.299 110.118C114.283 112.307 113.085 114.403 111.31 115.642C110.832 116.013 110.198 115.933 109.634 115.972C102.187 115.985 94.7372 116.033 87.2904 116.077C85.9616 116.212 85.0981 114.951 84.4895 113.952C83.0747 111.468 83.9159 108.041 86.2867 106.472C87.3446 105.662 88.702 105.538 89.9798 105.4C89.9065 103.201 90.6585 100.935 92.3314 99.4565ZM112.186 187.125C113.735 187.039 115.328 187.282 116.845 186.853C120.353 187.055 123.871 186.927 127.38 187.131C128.246 187.16 129.116 187.16 129.986 187.135C131.806 187.061 133.628 187.067 135.454 187.083C137.876 187.125 140.304 187.083 142.726 187.234C141.524 197.277 140.307 207.321 138.698 217.307C137.879 222.191 137.114 227.123 135.416 231.793C133.628 232.12 131.812 232.158 130.005 232.286C129.992 233.825 129.996 235.365 130.037 236.904C130.002 236.86 129.929 236.767 129.894 236.722C129.98 235.208 130.005 233.691 129.964 232.174C129.1 232.241 128.237 232.299 127.38 232.417C127.3 232.436 127.137 232.468 127.054 232.488C126.882 233.118 126.742 233.765 126.599 234.408C118.327 234.155 110.051 233.937 101.783 233.672C98.1818 233.611 94.5843 233.393 90.9835 233.361C87.9978 233.301 85.0153 233.182 82.0327 233.109C84.123 217.934 86.1974 202.757 88.2973 187.586C96.2572 187.384 104.223 187.304 112.186 187.125ZM287.911 251.099C290.072 248.974 293.631 248.603 296.241 250.091C298.232 251.122 299.379 253.205 299.876 255.327C301.463 254.626 303.267 254.342 304.956 254.854C307.632 255.542 309.678 258.073 309.879 260.832C310.156 263.322 308.974 265.921 306.864 267.275C306.393 267.599 305.79 267.515 305.258 267.557C299.733 267.576 294.208 267.576 288.682 267.595C286.458 267.544 284.224 267.723 282.01 267.541C279.814 266.225 278.871 263.23 279.766 260.845C280.573 258.419 283.077 256.918 285.572 256.992C285.515 254.812 286.264 252.572 287.911 251.099Z" fill="#F9DA2F"/>
<path d="M139.08 26.4753C140.693 26.0112 142.378 25.8928 144.048 25.9184C147.406 25.9376 150.768 25.9152 154.127 25.9248C159.11 25.9312 164.094 25.928 169.078 25.928C193.129 25.9216 217.178 25.9312 241.229 25.9216C248.071 25.6975 254.641 30.5145 256.588 37.0918C257.244 39.0602 257.334 41.1534 257.315 43.2114C256.445 43.2114 255.575 43.2114 254.708 43.2114C254.724 41.7615 254.756 40.3052 254.53 38.8681C253.58 32.7357 247.749 27.8291 241.551 28.0724C208.625 28.0788 175.696 28.0692 142.77 28.082C137.506 28.0308 132.526 31.6635 130.767 36.6117C130.107 38.3048 129.932 40.1324 129.98 41.9375C129.996 79.7818 129.97 117.629 129.992 155.477C129.387 155.554 128.718 155.544 128.205 155.922C127.638 156.293 127.548 157.016 127.386 157.621C127.383 127.298 127.383 96.9756 127.386 66.6528C127.443 63.2698 127.424 59.8835 127.399 56.4972C127.379 51.4274 127.364 46.3576 127.405 41.2878C127.51 34.4769 132.542 28.1876 139.08 26.4753ZM254.727 62.7673C255.581 62.7641 256.438 62.7705 257.295 62.7769C257.34 129.116 257.305 195.456 257.315 261.795C257.417 267.041 254.727 272.233 250.384 275.148C202.399 275.158 154.414 275.164 106.432 275.148L106.39 274.979C112.352 275.094 118.317 274.992 124.279 275.033C128.511 274.972 132.742 275.104 136.974 274.979C136.917 274.281 136.862 273.583 136.805 272.892C138.762 273.839 140.893 274.457 143.082 274.4C173.039 274.4 202.991 274.4 232.944 274.4C236.22 274.364 239.502 274.464 242.778 274.352C248.832 274.015 254.122 268.802 254.641 262.746C254.813 259.987 254.679 257.215 254.721 254.453C254.724 190.658 254.714 126.866 254.727 63.0713V62.7673ZM127.379 232.417C128.237 232.298 129.1 232.241 129.964 232.174C130.005 233.691 129.98 235.208 129.894 236.722C129.075 236.085 128.233 235.483 127.386 234.885C127.386 234.059 127.383 233.236 127.379 232.417Z" fill="#3D5887"/>
<path d="M130.767 36.6124C132.526 31.6642 137.506 28.0315 142.77 28.0827C175.696 28.0699 208.625 28.0795 241.551 28.0731C247.749 27.8299 253.58 32.7364 254.529 38.8689C254.224 40.2835 254.265 41.7334 254.281 43.1705C252.605 43.2633 250.926 43.2633 249.249 43.1545C249.272 40.7188 249.195 38.1007 247.752 36.0267C246.678 34.4072 244.996 33.2966 243.237 32.5508C241.691 31.9075 239.99 31.9939 238.355 31.9939C232.963 32.0675 227.572 31.9331 222.184 32.0355C222.292 33.1813 222.534 34.388 222.107 35.4954C221.451 37.339 219.912 38.9905 217.923 39.2945C216.247 39.5346 214.549 39.3778 212.866 39.4002C197.469 39.4226 182.072 39.4034 166.675 39.4098C164.68 39.461 162.791 38.2351 161.86 36.4908C161.025 35.1625 161.255 33.5302 161.204 32.0419C155.902 31.9267 150.599 32.0739 145.297 31.9843C143.815 31.9523 142.318 32.1539 140.957 32.7685C137.35 34.3272 135.228 38.4016 135.444 42.2615C135.502 80.8932 135.419 119.528 135.489 158.16C133.912 159.209 132.414 160.374 130.948 161.575C131.299 160.115 131.774 158.63 131.598 157.11C131.496 156.258 130.63 155.874 129.992 155.478C129.97 117.63 129.995 79.7826 129.98 41.9383C129.932 40.1331 130.107 38.3055 130.767 36.6124ZM172.516 32.4516C171.617 32.9509 171.458 34.3304 172.223 35.0185C172.755 35.6138 173.599 35.521 174.316 35.5306C187.174 35.5146 200.031 35.5562 212.889 35.5114C214.198 35.5754 215.046 33.9143 214.249 32.8773C213.816 32.1891 212.936 32.2179 212.226 32.2019C199.48 32.2115 186.734 32.2083 173.988 32.2019C173.494 32.2339 172.956 32.1955 172.516 32.4516ZM249.256 63.1169C251.079 63.008 252.904 63.0144 254.727 63.072C254.714 126.867 254.724 190.659 254.721 254.454C254.679 257.216 254.813 259.988 254.641 262.747C254.122 268.802 248.832 274.016 242.778 274.352C239.502 274.464 236.22 274.365 232.944 274.4C202.991 274.4 173.038 274.4 143.082 274.4C140.893 274.458 138.761 273.84 136.805 272.893C136.394 268.991 135.906 265.096 135.467 261.198C135.62 261.012 135.776 260.833 135.935 260.654C137.095 264.232 139.81 267.324 143.401 268.549C145.428 269.372 147.645 269.19 149.784 269.202C179.102 269.19 208.424 269.199 237.743 269.199C243.826 269.241 249.269 263.749 249.211 257.642C249.278 192.8 249.167 127.958 249.256 63.1169ZM129.98 176.893C131.678 175.923 133.564 175.44 135.476 175.129C135.444 179.114 135.489 183.099 135.454 187.084C133.628 187.068 131.805 187.061 129.986 187.135C129.986 183.72 129.976 180.308 129.98 176.893ZM130.005 232.286C131.812 232.158 133.628 232.12 135.416 231.793C135.518 239.132 135.416 246.468 135.492 253.807C135.527 254.768 135.441 255.75 134.954 256.605C134.441 252.585 134.023 248.555 133.539 244.535C133.179 241.706 131.882 239.052 130.037 236.905C129.995 235.365 129.992 233.826 130.005 232.286Z" fill="#DDEDFD"/>
<path d="M140.957 32.7679C142.318 32.1533 143.815 31.9517 145.297 31.9837C150.599 32.0733 155.902 31.9261 161.204 32.0413C161.255 33.5296 161.025 35.1619 161.86 36.4902C162.791 38.2345 164.68 39.4604 166.675 39.4092C182.072 39.4028 197.469 39.422 212.866 39.3996C214.549 39.3772 216.247 39.534 217.923 39.2939C219.912 38.9899 221.451 37.3384 222.107 35.4948C222.534 34.3874 222.292 33.1807 222.184 32.0349C227.572 31.9325 232.963 32.0669 238.355 31.9933C239.99 31.9933 241.691 31.9069 243.237 32.5502C244.996 33.296 246.678 34.4066 247.752 36.0261C249.195 38.1001 249.272 40.7182 249.249 43.1539C250.926 43.2627 252.605 43.2627 254.281 43.1699C254.265 41.7328 254.224 40.2829 254.529 38.8683C254.756 40.3053 254.724 41.7616 254.708 43.2115C255.575 43.2115 256.445 43.2115 257.314 43.2115C260.447 43.2371 263.579 43.1795 266.711 43.2083C270 43.2467 272.995 45.3559 274.454 48.2557C275.334 50.669 275.57 53.3895 274.496 55.7868C274.375 55.5884 274.136 55.1947 274.015 54.9995C274.633 53.0183 274.633 50.7938 273.785 48.8798C272.798 46.617 270.742 44.8278 268.343 44.2421C266.664 43.8292 264.927 43.9733 263.219 43.9541C238.043 43.9509 212.869 43.9637 187.693 43.9477C185.491 43.8677 183.136 44.0917 181.311 45.4552C179.638 46.553 178.634 48.3517 177.946 50.1825C177.461 51.0723 177.445 52.0933 177.429 53.0791C170.862 53.1943 164.295 53.0919 157.727 53.1207C156.093 53.1719 154.366 52.839 152.836 53.572C150.676 54.1641 148.547 55.0827 146.96 56.7182C144.755 58.8402 143.525 61.8968 143.567 64.9566C143.548 91.9508 143.57 118.945 143.557 145.936C143.56 147.872 143.458 149.853 144.032 151.729C144.953 154.965 147.425 157.685 150.516 158.969C152.677 159.945 155.095 159.852 157.412 159.846C180.571 159.839 203.731 159.843 226.887 159.846C229.407 159.839 232.052 160.012 234.404 158.921C237.558 157.586 240.028 154.728 240.882 151.396C241.36 149.725 241.21 147.968 241.226 146.253C241.226 120.34 241.226 94.4249 241.226 68.5125C241.213 66.5985 241.29 64.6782 241.114 62.7674C245.652 62.7578 250.189 62.793 254.727 62.7674V63.0715C252.904 63.0138 251.078 63.0074 249.256 63.1163C249.167 127.958 249.278 192.799 249.211 257.641C249.269 263.748 243.826 269.24 237.743 269.199C208.424 269.199 179.102 269.189 149.783 269.202C147.645 269.189 145.428 269.371 143.401 268.549C139.81 267.323 137.095 264.231 135.935 260.653C135.776 260.832 135.62 261.011 135.467 261.197C135.301 259.667 135.119 258.134 134.954 256.604C135.441 255.75 135.527 254.767 135.492 253.807C135.416 246.468 135.518 239.132 135.416 231.793C137.114 227.123 137.879 222.191 138.698 217.307C140.307 207.321 141.524 197.277 142.725 187.234C140.304 187.083 137.876 187.125 135.454 187.083C135.489 183.098 135.444 179.114 135.476 175.129C137.216 174.69 138.921 174.041 140.409 173.023C141.591 172.216 142.486 171.074 143.583 170.165C144.242 169.56 145.052 168.955 145.23 168.02C145.074 167.063 143.898 167.086 143.178 166.83C144.733 166.125 146.476 165.476 147.403 163.93C145.886 163.133 144.147 163.133 142.48 163.101C143.672 161.875 145.214 160.784 145.702 159.062C145.453 158.764 145.109 158.527 144.711 158.54C143.506 158.479 142.334 158.806 141.174 159.068C141.177 158.149 141.671 156.904 140.788 156.245C138.854 156.021 137.082 157.199 135.489 158.159C135.419 119.527 135.502 80.8926 135.444 42.2609C135.228 38.401 137.35 34.3266 140.957 32.7679ZM143.646 180.541C143.474 182.503 143.567 184.478 143.589 186.446C143.442 192.041 143.557 197.639 143.522 203.237C143.538 212.24 143.481 221.244 143.551 230.247C143.493 233.598 146.444 236.575 149.777 236.523C178.137 236.539 206.5 236.533 234.859 236.527C237.976 236.629 241.019 234.084 241.178 230.906C241.312 228.512 241.22 226.115 241.248 223.724C241.207 211.629 241.331 199.527 241.184 187.435C241.261 185.825 241.239 184.212 241.184 182.606C241.653 179.543 240.012 176.275 237.179 174.991C235.774 174.277 234.158 174.29 232.626 174.29C205.337 174.309 178.044 174.274 150.752 174.309C147.266 174.207 144.003 177.052 143.646 180.541ZM154.748 240.879C154.754 241.302 154.764 241.728 154.78 242.156C155.194 242.156 155.615 242.16 156.035 242.163C156.032 241.728 156.032 241.299 156.032 240.87C155.602 240.87 155.172 240.873 154.748 240.879ZM159.722 240.851C159.719 241.28 159.719 241.712 159.725 242.15C160.124 242.163 160.525 242.179 160.927 242.198C160.952 241.763 160.981 241.331 161.009 240.902C160.579 240.879 160.149 240.863 159.722 240.851ZM164.687 240.876C164.709 241.305 164.734 241.74 164.763 242.179C165.161 242.172 165.563 242.169 165.968 242.169C165.984 241.74 166.003 241.315 166.025 240.892C165.576 240.883 165.13 240.873 164.687 240.876ZM169.673 240.867C169.673 241.296 169.673 241.728 169.677 242.163C170.1 242.156 170.527 242.156 170.954 242.153C170.945 241.721 170.939 241.296 170.932 240.87C170.512 240.863 170.091 240.863 169.673 240.867ZM174.641 240.857C174.641 241.292 174.644 241.731 174.657 242.172C175.068 242.172 175.482 242.176 175.9 242.182C175.897 241.734 175.894 241.292 175.89 240.854C175.473 240.854 175.055 240.854 174.641 240.857ZM179.599 240.87C179.603 241.296 179.609 241.721 179.618 242.15C180.039 242.153 180.466 242.16 180.893 242.169C180.89 241.734 180.887 241.302 180.89 240.873C180.457 240.87 180.026 240.867 179.599 240.87ZM184.583 240.857C184.58 241.286 184.58 241.718 184.583 242.153C184.997 242.153 185.418 242.156 185.842 242.163C185.838 241.734 185.842 241.312 185.845 240.892C185.424 240.876 185 240.863 184.583 240.857ZM189.548 240.883C189.57 241.315 189.595 241.75 189.624 242.188C190.026 242.179 190.427 242.172 190.832 242.172C190.832 241.728 190.832 241.286 190.832 240.851C190.402 240.857 189.971 240.87 189.548 240.883ZM194.522 240.876C194.522 241.299 194.522 241.724 194.528 242.156C194.942 242.156 195.36 242.16 195.78 242.169C195.78 241.731 195.787 241.299 195.79 240.87C195.366 240.87 194.942 240.87 194.522 240.876ZM199.512 240.847C199.499 241.279 199.493 241.718 199.489 242.16C199.913 242.163 200.337 242.169 200.764 242.182C200.754 241.734 200.748 241.292 200.742 240.854C200.327 240.851 199.92 240.847 199.512 240.847ZM204.479 240.873C204.486 241.296 204.492 241.721 204.505 242.153C204.913 242.153 205.324 242.16 205.741 242.166C205.738 241.734 205.738 241.302 205.741 240.879C205.317 240.873 204.897 240.87 204.479 240.873ZM209.438 240.867C209.434 241.292 209.434 241.721 209.438 242.156C209.855 242.153 210.279 242.16 210.703 242.166C210.696 241.734 210.696 241.305 210.696 240.883C210.272 240.873 209.852 240.867 209.438 240.867ZM214.44 240.94C214.428 241.353 214.428 241.766 214.444 242.185C214.861 242.176 215.278 242.166 215.699 242.163C215.689 241.708 215.68 241.26 215.67 240.815C215.256 240.847 214.845 240.867 214.44 240.94ZM219.389 240.86C219.383 241.289 219.383 241.724 219.383 242.16C219.81 242.153 220.237 242.15 220.67 242.147C220.657 241.721 220.651 241.299 220.644 240.876C220.224 240.867 219.803 240.86 219.389 240.86ZM224.363 240.835C224.357 241.276 224.353 241.718 224.36 242.166C224.768 242.172 225.176 242.182 225.587 242.192C225.603 241.76 225.619 241.327 225.641 240.899C225.211 240.873 224.784 240.851 224.363 240.835ZM229.337 240.886C229.328 241.312 229.318 241.74 229.315 242.172C229.72 242.182 230.134 242.198 230.548 242.214C230.586 241.801 230.631 241.395 230.675 240.988C230.229 240.95 229.78 240.915 229.337 240.886ZM150.724 241.353C150.845 241.756 150.975 242.169 151.1 242.579C151.488 242.464 151.88 242.358 152.272 242.249C152.186 241.833 152.103 241.427 152.02 241.017C151.584 241.123 151.154 241.241 150.724 241.353ZM233.986 243.142C234.451 243.683 235.175 243.248 235.752 243.184C235.385 242.685 234.964 242.23 234.506 241.82C234.334 242.249 233.942 242.653 233.986 243.142ZM147.859 244.192C147.862 244.611 147.865 245.034 147.875 245.46C148.295 245.469 148.722 245.482 149.149 245.495C149.149 245.056 149.153 244.621 149.156 244.189C148.722 244.189 148.289 244.189 147.859 244.192ZM234.353 247.111C234.369 247.53 234.394 247.959 234.416 248.388C234.837 248.369 235.261 248.35 235.688 248.337C235.681 247.914 235.678 247.498 235.681 247.082C235.232 247.085 234.792 247.095 234.353 247.111ZM147.891 249.159C147.888 249.595 147.888 250.036 147.891 250.481C148.324 250.456 148.764 250.44 149.204 250.421C149.165 249.988 149.13 249.56 149.095 249.137C148.694 249.143 148.292 249.15 147.891 249.159ZM234.397 252.072C234.388 252.495 234.385 252.92 234.385 253.349C234.808 253.349 235.232 253.355 235.662 253.362C235.659 252.927 235.659 252.495 235.662 252.066C235.235 252.066 234.815 252.069 234.397 252.072ZM147.786 254.188C147.923 254.741 147.986 255.388 148.477 255.769C148.754 255.51 149.012 255.234 149.28 254.969C149.223 254.684 149.169 254.405 149.118 254.13C148.671 254.146 148.228 254.165 147.786 254.188ZM231.845 255.676C231.918 256.098 231.988 256.515 232.068 256.943C232.498 256.835 232.922 256.726 233.358 256.63C233.228 256.201 233.107 255.785 232.979 255.365C232.597 255.468 232.221 255.57 231.845 255.676ZM152.486 255.785C152.428 256.191 152.374 256.604 152.32 257.017C152.741 257.078 153.161 257.135 153.585 257.199C153.639 256.764 153.687 256.322 153.741 255.894C153.32 255.852 152.9 255.817 152.486 255.785ZM157.383 255.929C157.399 256.367 157.421 256.809 157.444 257.254C157.852 257.231 158.263 257.219 158.674 257.206C158.664 256.764 158.655 256.329 158.645 255.894C158.221 255.903 157.804 255.916 157.383 255.929ZM162.361 255.91C162.354 256.338 162.351 256.774 162.351 257.212C162.768 257.209 163.189 257.209 163.613 257.212C163.613 256.777 163.619 256.348 163.622 255.922C163.202 255.916 162.781 255.91 162.361 255.91ZM167.322 256.015C167.303 256.409 167.296 256.806 167.303 257.209C167.717 257.215 168.131 257.228 168.549 257.244C168.571 256.796 168.59 256.354 168.616 255.913C168.185 255.942 167.72 255.833 167.322 256.015ZM172.309 255.929C172.309 256.354 172.312 256.78 172.318 257.212C172.733 257.206 173.153 257.206 173.574 257.206C173.571 256.774 173.571 256.345 173.571 255.922C173.147 255.919 172.726 255.922 172.309 255.929ZM177.264 255.91C177.261 256.338 177.26 256.774 177.26 257.212C177.678 257.209 178.099 257.209 178.522 257.215C178.522 256.783 178.532 256.361 178.538 255.938C178.111 255.926 177.687 255.913 177.264 255.91ZM182.289 255.887C182.273 256.332 182.266 256.78 182.26 257.235C182.681 257.225 183.101 257.219 183.525 257.215C183.519 256.777 183.516 256.342 183.509 255.913C183.101 255.9 182.693 255.894 182.289 255.887ZM187.215 255.919C187.212 256.345 187.212 256.777 187.215 257.215C187.636 257.209 188.059 257.206 188.486 257.209C188.48 256.774 188.48 256.342 188.483 255.916C188.056 255.913 187.633 255.913 187.215 255.919ZM192.18 255.91C192.173 256.342 192.173 256.777 192.176 257.219C192.597 257.219 193.018 257.222 193.438 257.231C193.429 256.78 193.422 256.338 193.413 255.897C192.999 255.9 192.587 255.903 192.18 255.91ZM197.154 255.922C197.154 256.348 197.157 256.777 197.16 257.209C197.581 257.206 198.008 257.206 198.435 257.212C198.428 256.777 198.428 256.345 198.428 255.919C198.001 255.916 197.577 255.919 197.154 255.922ZM202.121 255.913C202.118 256.342 202.121 256.774 202.125 257.212C202.536 257.209 202.95 257.209 203.367 257.212C203.374 256.783 203.383 256.361 203.396 255.938C202.969 255.926 202.542 255.916 202.121 255.913ZM207.111 255.91C207.115 256.348 207.124 256.79 207.137 257.238C207.545 257.225 207.953 257.219 208.364 257.212C208.38 256.787 208.399 256.364 208.421 255.945C207.981 255.929 207.545 255.916 207.111 255.91ZM212.063 255.916C212.063 256.345 212.063 256.777 212.07 257.215C212.49 257.209 212.914 257.209 213.341 257.209C213.338 256.777 213.338 256.348 213.338 255.919C212.911 255.916 212.487 255.913 212.063 255.916ZM217.031 255.986C217.012 256.393 217.009 256.803 217.015 257.219C217.436 257.222 217.859 257.228 218.286 257.238C218.28 256.771 218.28 256.31 218.274 255.852C217.853 255.887 217.439 255.913 217.031 255.986ZM222.027 255.929C222.021 256.354 222.018 256.78 222.021 257.212C222.442 257.206 222.865 257.206 223.292 257.209C223.286 256.771 223.283 256.338 223.283 255.913C222.859 255.913 222.442 255.919 222.027 255.929ZM226.973 255.916C226.97 256.345 226.973 256.777 226.979 257.215C227.397 257.209 227.817 257.209 228.238 257.212C228.238 256.78 228.238 256.358 228.244 255.935C227.817 255.922 227.393 255.916 226.973 255.916Z" fill="#EDF7FE"/>
<path d="M172.516 32.4508C172.956 32.1948 173.494 32.2332 173.988 32.2012C186.734 32.2076 199.48 32.2108 212.226 32.2012C212.937 32.2172 213.816 32.1884 214.25 32.8765C215.046 33.9135 214.199 35.5746 212.889 35.5106C200.031 35.5554 187.174 35.5138 174.317 35.5298C173.6 35.5202 172.755 35.613 172.223 35.0177C171.458 34.3296 171.618 32.9501 172.516 32.4508ZM218.3 209.865C218.768 211.363 218.87 213.098 218.331 214.589C218.252 213.015 218.277 211.437 218.3 209.865Z" fill="#F9DA2F"/>
<path d="M257.229 49.6837C258.484 47.3344 261.954 46.7743 263.898 48.5795C265.753 50.103 265.88 53.0219 264.373 54.8399C265.106 55.5376 265.867 56.2034 266.654 56.8435C266.508 57.0195 266.208 57.3716 266.062 57.5476C265.281 56.8627 264.503 56.1714 263.736 55.4768C262.448 56.2706 260.82 56.6611 259.389 56.0145C256.983 55.0959 255.82 51.8921 257.229 49.6837ZM260.17 48.5154C258.784 48.8451 257.704 50.1062 257.551 51.524C257.267 53.5116 258.978 55.4832 260.992 55.4064C262.891 55.4896 264.625 53.7517 264.51 51.8377C264.567 49.6549 262.244 47.9105 260.17 48.5154ZM186.374 123.273C186.782 123.183 187.19 123.097 187.601 123.013C187.607 123.359 187.617 123.711 187.63 124.063C187.426 124.098 187.011 124.166 186.808 124.201C186.661 123.89 186.518 123.58 186.374 123.273ZM231.53 125.235C231.746 125.1 232.18 124.838 232.397 124.703C232.588 125.049 232.776 125.398 232.97 125.747C232.597 125.83 232.234 125.916 231.868 126.003C231.785 125.811 231.616 125.427 231.53 125.235ZM183.927 126.083C184.287 126.112 184.647 126.14 185.014 126.172C185.017 126.384 185.02 126.806 185.023 127.021C184.638 127.046 184.255 127.072 183.876 127.101C183.889 126.845 183.914 126.339 183.927 126.083ZM232.008 141.564C232.361 141.593 232.715 141.622 233.072 141.657C233.059 141.955 233.05 142.256 233.043 142.56C232.702 142.588 232.365 142.617 232.03 142.652C232.017 142.288 232.011 141.923 232.008 141.564ZM232.078 145.658C232.365 145.728 232.648 145.812 232.935 145.904C232.922 146.167 232.897 146.698 232.884 146.964C232.505 146.817 232.129 146.669 231.759 146.525C231.864 146.234 231.97 145.946 232.078 145.658ZM185.262 146.704C185.447 146.951 185.629 147.194 185.82 147.444C185.558 147.665 185.297 147.889 185.042 148.116C184.813 147.812 184.58 147.505 184.357 147.207C184.657 147.037 184.959 146.871 185.262 146.704ZM215.196 148.27C215.581 148.238 215.97 148.209 216.362 148.183C216.365 148.455 216.372 148.996 216.375 149.265C215.616 149.355 215.154 149.063 215.196 148.27ZM224.086 148.27C224.481 148.241 224.88 148.212 225.278 148.186C225.281 148.455 225.287 148.996 225.291 149.265C225.045 149.239 224.558 149.185 224.312 149.159C224.226 148.865 224.15 148.567 224.086 148.27Z" fill="#3D5887"/>
<path d="M260.17 48.5158C262.244 47.9109 264.567 49.6552 264.509 51.838C264.624 53.752 262.891 55.49 260.992 55.4068C258.978 55.4836 257.267 53.512 257.55 51.5244C257.703 50.1065 258.783 48.8455 260.17 48.5158ZM162.074 130.759C163.718 128.24 168.01 128.253 169.613 130.807C170.413 131.94 170.142 133.393 170.177 134.693C167.265 134.674 164.352 134.67 161.44 134.696C161.449 133.377 161.261 131.899 162.074 130.759Z" fill="white"/>
<path d="M274.496 55.7869C275.57 53.3897 275.334 50.6691 274.454 48.2559C275.85 50.5507 276.421 53.4025 275.643 56.0142C274.633 59.8229 270.968 62.7067 267.04 62.7611C263.793 62.7899 260.542 62.7611 257.295 62.7771C256.438 62.7707 255.581 62.7643 254.727 62.7675C250.189 62.7931 245.652 62.7579 241.114 62.7675C223.84 62.7995 206.567 62.7643 189.293 62.7835C186.699 62.8347 183.904 62.9148 181.642 61.4233C179.644 60.0854 177.767 58.0178 177.627 55.4989C178.615 57.6945 180.342 59.5925 182.598 60.4951C184.5 61.3464 186.619 61.1576 188.643 61.1672C214.558 61.1608 240.471 61.1736 266.383 61.164C269.85 61.1992 273.113 58.946 274.496 55.7869ZM308.61 92.0789C310 93.1223 311.14 94.697 311.287 96.4702C310.841 98.6498 311.038 100.874 311.019 103.08C311.01 109.372 311.01 115.661 311.013 121.954C311.042 124.053 310.85 126.175 311.274 128.252C310.892 131.418 307.785 133.902 304.64 133.799C294.657 133.796 284.674 133.809 274.693 133.796C273.062 133.809 271.501 133.105 270.29 132.042C274.505 132.436 278.743 132.247 282.972 132.285C289.657 132.266 296.342 132.327 303.028 132.26C306.587 132.276 309.671 129.033 309.598 125.478C309.614 115.764 309.598 106.046 309.614 96.3326C309.633 94.8507 309.05 93.4648 308.61 92.0789Z" fill="#3D5887"/>
<path d="M177.43 53.0802C177.446 52.0944 177.462 51.0734 177.946 50.1836C177.637 52.2384 177.774 54.4372 178.86 56.2584C180.278 58.8253 183.153 60.4672 186.075 60.4224C211.891 60.4288 237.711 60.4224 263.528 60.4256C265.364 60.4032 267.266 60.5889 269.031 59.9423C271.319 59.1422 273.152 57.2602 274.015 55.0005C274.136 55.1958 274.375 55.5895 274.496 55.7879C273.113 58.9469 269.85 61.2002 266.383 61.165C240.471 61.1746 214.559 61.1618 188.643 61.1682C186.619 61.1586 184.5 61.3474 182.598 60.496C180.342 59.5935 178.615 57.6955 177.627 55.4998C177.465 54.8117 177.286 54.1332 177.105 53.4546C171.71 53.4642 166.315 53.4546 160.921 53.4578C158.225 53.4899 155.526 53.365 152.836 53.5731C154.366 52.8401 156.093 53.173 157.728 53.1218C164.295 53.093 170.862 53.1954 177.43 53.0802Z" fill="#F8FCFF"/>
<path d="M146.961 56.7191C148.547 55.0836 150.676 54.165 152.836 53.5729C155.526 53.3649 158.225 53.4897 160.92 53.4577C166.315 53.4545 171.71 53.4641 177.105 53.4545C177.286 54.133 177.465 54.8115 177.627 55.4997C177.767 58.0186 179.644 60.0862 181.642 61.424C183.905 62.9155 186.699 62.8355 189.293 62.7843C206.567 62.7651 223.841 62.8003 241.115 62.7683C241.29 64.6791 241.213 66.5995 241.226 68.5134C241.226 94.4258 241.226 120.341 241.226 146.254C241.21 147.969 241.36 149.726 240.882 151.397C240.028 154.729 237.558 157.587 234.404 158.922C232.052 160.013 229.407 159.84 226.887 159.847C203.731 159.844 180.571 159.84 157.412 159.847C155.096 159.853 152.677 159.946 150.517 158.97C147.426 157.686 144.953 154.966 144.032 151.73C143.459 149.854 143.561 147.873 143.557 145.937C143.57 118.946 143.548 91.9517 143.567 64.9575C143.525 61.8977 144.755 58.8411 146.961 56.7191ZM150.338 80.1958C150.37 81.7769 150.354 83.358 150.357 84.9391C178.398 84.9327 206.443 84.9679 234.484 84.9199C234.474 83.3324 234.493 81.7449 234.468 80.1573C206.423 80.1894 178.379 80.1125 150.338 80.1958ZM150.354 91.2059C150.36 92.7966 150.354 94.3906 150.357 95.9845C178.395 95.9813 206.433 95.9941 234.468 95.9781C234.487 94.3874 234.48 92.7999 234.487 91.2091C206.443 91.1867 178.398 91.1995 150.354 91.2059ZM150.367 102.178C150.348 103.775 150.36 105.372 150.354 106.969C178.398 106.953 206.439 106.985 234.484 106.95C234.477 105.362 234.484 103.772 234.477 102.184C206.443 102.178 178.405 102.191 150.367 102.178ZM154.984 123.065C153.123 123.199 151.473 124.848 151.488 126.752C151.447 132.939 151.473 139.126 151.476 145.313C151.39 147.47 153.407 149.326 155.523 149.211C162.52 149.214 169.524 149.233 176.521 149.201C178.574 149.249 180.514 147.406 180.368 145.306C180.361 139.116 180.371 132.929 180.361 126.739C180.399 125.264 179.351 123.923 178.038 123.363C177.06 122.943 175.977 123.03 174.944 123.02C168.291 123.062 161.634 122.969 154.984 123.065ZM186.374 123.273C186.517 123.58 186.661 123.891 186.807 124.201C187.011 124.166 187.426 124.099 187.63 124.064C187.617 123.712 187.607 123.359 187.601 123.014C187.19 123.097 186.782 123.183 186.374 123.273ZM187.849 123.58C187.99 124.172 188.598 123.961 189.028 124.016C189.003 123.75 188.949 123.215 188.923 122.95C188.48 123.03 187.884 122.95 187.849 123.58ZM192.4 123.062C192.4 123.363 192.403 123.664 192.409 123.968C192.731 123.996 193.053 124.025 193.381 124.054C193.394 123.702 193.41 123.347 193.426 122.998C193.078 123.017 192.737 123.039 192.4 123.062ZM196.864 123.068C196.861 123.366 196.864 123.667 196.867 123.968C197.192 123.993 197.52 124.025 197.852 124.057C197.858 123.699 197.865 123.343 197.874 122.991C197.533 123.014 197.195 123.043 196.864 123.068ZM201.309 123.062C201.309 123.359 201.309 123.66 201.315 123.961C201.644 123.99 201.975 124.022 202.31 124.054C202.319 123.699 202.329 123.347 202.342 122.995C201.994 123.017 201.65 123.039 201.309 123.062ZM205.767 123.065C205.767 123.366 205.77 123.667 205.78 123.971C206.105 123.996 206.433 124.025 206.764 124.057C206.777 123.702 206.793 123.35 206.809 122.998C206.458 123.02 206.111 123.043 205.767 123.065ZM210.215 123.065C210.215 123.363 210.215 123.66 210.218 123.961C210.55 123.993 210.888 124.025 211.222 124.057C211.235 123.702 211.248 123.347 211.264 122.995C210.91 123.017 210.563 123.039 210.215 123.065ZM214.67 123.068C214.67 123.366 214.676 123.667 214.683 123.968C215.014 123.996 215.349 124.025 215.683 124.057C215.693 123.696 215.699 123.337 215.712 122.982C215.361 123.011 215.014 123.039 214.67 123.068ZM219.131 123.068C219.128 123.366 219.131 123.664 219.134 123.964C219.472 123.993 219.81 124.022 220.148 124.054C220.157 123.699 220.167 123.347 220.183 122.995C219.829 123.017 219.478 123.043 219.131 123.068ZM223.579 123.068C223.583 123.366 223.586 123.667 223.592 123.968C223.927 123.993 224.268 124.022 224.609 124.051C224.615 123.696 224.625 123.34 224.634 122.988C224.28 123.014 223.93 123.039 223.579 123.068ZM228.04 123.065C228.04 123.375 228.044 123.683 228.05 123.996C228.407 123.993 228.767 123.99 229.13 123.99C229.121 123.74 229.095 123.244 229.082 122.995C228.732 123.017 228.385 123.039 228.04 123.065ZM231.53 125.235C231.616 125.427 231.785 125.811 231.867 126.003C232.234 125.917 232.597 125.83 232.97 125.747C232.776 125.398 232.588 125.049 232.396 124.704C232.18 124.838 231.746 125.101 231.53 125.235ZM183.927 126.083C183.914 126.339 183.889 126.845 183.876 127.101C184.255 127.072 184.637 127.047 185.023 127.021C185.02 126.807 185.017 126.384 185.013 126.173C184.647 126.141 184.287 126.112 183.927 126.083ZM231.953 129.015C231.973 129.255 232.014 129.738 232.033 129.982C232.358 130.033 232.69 130.052 233.021 130.084C233.043 129.751 233.066 129.421 233.091 129.092C232.709 129.063 232.329 129.037 231.953 129.015ZM183.889 130.27C183.892 130.529 183.901 131.044 183.905 131.303C184.268 131.262 184.637 131.22 185.007 131.182C185.004 130.967 185.001 130.535 185.001 130.318C184.628 130.302 184.255 130.286 183.889 130.27ZM232.024 133.201C232.008 133.451 231.979 133.957 231.966 134.206C232.317 134.21 232.67 134.216 233.027 134.222C233.04 133.909 233.056 133.595 233.078 133.285C232.721 133.256 232.371 133.227 232.024 133.201ZM183.908 134.44C183.901 134.687 183.895 135.186 183.892 135.435C184.147 135.442 184.663 135.451 184.918 135.458C184.953 135.141 184.991 134.824 185.029 134.507C184.653 134.482 184.277 134.459 183.908 134.44ZM231.995 137.375C232.004 137.74 232.017 138.102 232.036 138.47C232.371 138.431 232.705 138.393 233.043 138.358C233.046 138.054 233.053 137.75 233.062 137.449C232.702 137.423 232.345 137.397 231.995 137.375ZM183.879 138.62C183.898 138.969 183.917 139.318 183.943 139.673C184.274 139.657 184.606 139.641 184.943 139.632C184.962 139.308 184.988 138.988 185.017 138.668C184.634 138.649 184.255 138.633 183.879 138.62ZM232.008 141.565C232.011 141.923 232.017 142.288 232.03 142.653C232.365 142.618 232.702 142.589 233.043 142.56C233.05 142.256 233.059 141.955 233.072 141.658C232.715 141.622 232.361 141.594 232.008 141.565ZM183.895 142.797C183.905 143.146 183.917 143.498 183.936 143.85C184.271 143.834 184.612 143.818 184.953 143.805C184.966 143.482 184.982 143.162 185.001 142.842C184.628 142.826 184.258 142.81 183.895 142.797ZM232.078 145.658C231.969 145.946 231.864 146.234 231.759 146.526C232.129 146.67 232.505 146.817 232.884 146.964C232.897 146.699 232.922 146.167 232.935 145.905C232.648 145.812 232.365 145.729 232.078 145.658ZM185.262 146.705C184.959 146.871 184.657 147.038 184.357 147.207C184.58 147.505 184.813 147.812 185.042 148.116C185.297 147.889 185.558 147.665 185.82 147.444C185.628 147.195 185.447 146.951 185.262 146.705ZM188.605 148.312C188.573 148.606 188.554 148.904 188.547 149.205C188.815 149.208 189.35 149.217 189.621 149.221C189.608 148.952 189.589 148.417 189.58 148.148C189.251 148.19 188.926 148.244 188.605 148.312ZM193.002 149.211C193.359 149.205 193.719 149.201 194.082 149.198C194.073 148.936 194.057 148.414 194.047 148.152C193.808 148.184 193.327 148.248 193.085 148.28C193.037 148.584 193.021 148.897 193.002 149.211ZM197.438 148.267C197.463 148.577 197.495 148.891 197.524 149.208C197.855 149.208 198.19 149.211 198.527 149.214C198.527 148.958 198.524 148.446 198.521 148.19C198.158 148.212 197.794 148.238 197.438 148.267ZM201.883 148.276C201.915 148.587 201.946 148.901 201.981 149.214C202.316 149.208 202.654 149.205 202.992 149.201C202.988 148.945 202.979 148.44 202.976 148.184C202.609 148.212 202.243 148.241 201.883 148.276ZM206.344 148.27C206.376 148.58 206.407 148.897 206.439 149.214C206.771 149.208 207.109 149.208 207.446 149.208C207.446 148.952 207.446 148.443 207.443 148.19C207.073 148.212 206.707 148.241 206.344 148.27ZM210.802 148.267C210.821 148.574 210.843 148.888 210.865 149.198C211.127 149.205 211.649 149.217 211.911 149.224C211.907 148.968 211.901 148.452 211.898 148.196C211.531 148.219 211.165 148.241 210.802 148.267ZM215.196 148.27C215.154 149.064 215.616 149.355 216.375 149.265C216.372 148.997 216.365 148.456 216.362 148.184C215.97 148.209 215.581 148.238 215.196 148.27ZM219.708 148.264C219.737 148.577 219.762 148.897 219.794 149.217C220.135 149.208 220.482 149.205 220.829 149.198C220.826 148.949 220.826 148.446 220.823 148.196C220.45 148.216 220.077 148.238 219.708 148.264ZM224.086 148.27C224.15 148.568 224.226 148.865 224.312 149.16C224.558 149.185 225.045 149.24 225.291 149.265C225.287 148.997 225.281 148.456 225.278 148.187C224.879 148.212 224.481 148.241 224.086 148.27ZM228.563 148.264C228.617 148.564 228.684 148.865 228.764 149.163C229.022 149.176 229.544 149.198 229.803 149.211C229.774 148.961 229.713 148.465 229.682 148.219C229.306 148.232 228.933 148.244 228.563 148.264ZM143.647 180.542C144.003 177.053 147.266 174.208 150.752 174.31C178.045 174.275 205.337 174.31 232.626 174.291C234.159 174.291 235.774 174.278 237.179 174.992C240.012 176.276 241.653 179.543 241.185 182.606C241.019 183.826 240.923 185.055 240.907 186.287C239.837 184.373 238.087 182.677 235.806 182.498C232.629 182.312 229.439 182.446 226.256 182.437C201.717 182.414 177.175 182.43 152.636 182.424C150.73 182.472 148.665 182.139 146.919 183.096C145.485 183.839 144.606 185.247 143.589 186.447C143.567 184.479 143.474 182.504 143.647 180.542ZM217.761 177.757C217.108 178.372 217.461 179.524 218.303 179.745C219.233 180.088 220.199 178.833 219.612 178.02C219.274 177.329 218.287 177.204 217.761 177.757ZM223.172 177.757C222.534 178.378 222.885 179.54 223.726 179.742C224.609 180.075 225.574 178.916 225.077 178.103C224.774 177.351 223.726 177.181 223.172 177.757ZM228.589 177.764C227.671 178.618 228.821 180.26 229.914 179.684C230.787 179.339 230.876 178.017 230.032 177.585C229.573 177.229 228.987 177.434 228.589 177.764Z" fill="#3D5887"/>
<path d="M150.338 80.1946C178.379 80.1114 206.423 80.1882 234.467 80.1562C234.493 81.7437 234.474 83.3312 234.483 84.9187C206.442 84.9667 178.398 84.9315 150.357 84.9379C150.354 83.3568 150.37 81.7757 150.338 80.1946ZM150.354 91.2048C178.398 91.1984 206.442 91.1856 234.486 91.208C234.48 92.7987 234.486 94.3862 234.467 95.9769C206.433 95.9929 178.395 95.9801 150.357 95.9833C150.354 94.3894 150.36 92.7955 150.354 91.2048ZM150.367 102.177C178.404 102.189 206.442 102.177 234.477 102.183C234.483 103.77 234.477 105.361 234.483 106.949C206.439 106.984 178.398 106.952 150.354 106.968C150.36 105.371 150.347 103.774 150.367 102.177ZM188.33 195.158C202.998 195.123 217.668 195.209 232.336 195.113C232.262 196.691 232.176 198.282 232.358 199.853C226.294 200.036 220.221 199.879 214.15 199.93C205.547 199.937 196.943 199.917 188.343 199.94C188.318 198.346 188.333 196.752 188.33 195.158ZM188.333 217.073C202.975 217.076 217.617 217.073 232.262 217.073C232.272 218.676 232.262 220.28 232.265 221.887C217.62 221.887 202.975 221.89 188.33 221.883C188.33 220.28 188.327 218.676 188.333 217.073Z" fill="#DDEDFD"/>
<path d="M49.7889 91.1216C53.0805 89.7901 56.8182 88.6411 60.3266 89.8221C63.2263 90.8079 64.9406 93.6757 65.7053 96.5018C67.5854 96.1978 69.6151 96.6011 71.065 97.8941C73.2668 99.7313 73.8404 103.185 72.3619 105.649C71.6513 106.965 70.3831 107.835 69.0543 108.437C68.8376 110.687 68.7707 112.953 68.4903 115.197C67.579 116.275 65.9284 115.789 64.845 115.254C64.7717 115.219 64.6251 115.152 64.555 115.117C63.8858 113.04 63.0765 110.959 61.7732 109.192C61.1009 108.319 60.1258 107.448 58.9468 107.544C57.4747 107.723 56.5346 109.013 55.6647 110.082C53.8931 110.105 52.1246 110.149 50.3529 110.188C48.7023 110.242 47.2397 109.247 45.5923 109.24C42.9794 109.02 40.3951 110.565 39.1205 112.815C38.8433 115.168 38.9963 117.556 38.8911 119.921C37.8587 118.529 36.9442 117.056 35.899 115.674C35.3669 114.886 34.3185 114.845 33.4614 114.873C31.3296 114.937 29.5643 116.986 29.6886 119.105C29.6854 120.103 30.1729 121.025 30.8006 121.774C32.8145 124.226 34.7965 126.706 36.804 129.161C37.1768 129.545 37.3234 130.054 37.2501 130.585C37.0971 133.546 36.8932 136.507 36.7976 139.474C32.5596 133.748 28.6147 127.666 26.279 120.884C25.0013 117.031 24.2811 112.809 25.3645 108.818C25.9604 106.545 27.1967 104.484 28.8027 102.788C27.9519 101.37 26.9259 99.7953 27.2477 98.0606C27.5281 96.8187 28.8123 96.217 29.9403 95.9769C32.0242 95.5449 34.1751 95.7049 36.275 95.9065C36.052 94.399 35.8926 92.7091 36.753 91.3648C37.5496 90.1102 39.0919 89.6077 40.5035 89.5309C43.6708 89.342 46.7872 90.1934 49.7889 91.1216Z" fill="#121313"/>
<path d="M266.963 93.0895C268.075 90.7883 270.548 89.2616 273.1 89.3064C282.338 89.2872 291.579 89.3096 300.819 89.2968C302.349 89.2968 303.936 89.2008 305.389 89.7929C306.638 90.2506 307.543 91.2748 308.598 92.0429L308.61 92.0781C309.05 93.464 309.633 94.8499 309.614 96.3318C309.598 106.046 309.614 115.763 309.598 125.477C309.671 129.033 306.587 132.275 303.028 132.259C296.342 132.326 289.657 132.265 282.972 132.284C278.743 132.246 274.505 132.435 270.29 132.041C269.321 131.119 268.104 130.438 267.393 129.273C266.587 128.072 266.252 126.61 266.246 125.176C266.246 116.099 266.252 107.025 266.243 97.9481C266.227 96.3094 266.195 94.5842 266.963 93.0895ZM285.741 100.374C285.065 102.33 284.578 104.346 283.963 106.321C281.497 106.34 279.027 106.193 276.564 106.302C275.617 106.465 275.643 108.011 276.583 108.149C278.842 108.27 281.114 108.2 283.38 108.229C282.733 110.629 281.978 112.997 281.315 115.392C279.792 115.433 278.265 115.251 276.752 115.404C275.888 115.564 275.85 116.88 276.624 117.177C277.982 117.386 279.365 117.277 280.735 117.318C280.257 118.967 279.76 120.612 279.279 122.26C279.148 122.788 278.884 123.547 279.489 123.892C279.951 124.318 280.745 124.014 280.901 123.435C281.586 121.441 282.102 119.392 282.704 117.373C285.155 117.398 287.608 117.466 290.059 117.466C289.616 119.194 289.026 120.884 288.609 122.619C288.332 123.352 289.195 124.168 289.902 123.79C290.441 123.46 290.508 122.763 290.709 122.222C291.139 120.641 291.614 119.072 292.031 117.485C294.22 117.45 296.412 117.651 298.602 117.533C299.548 117.53 299.656 115.9 298.739 115.747C296.699 115.529 294.641 115.657 292.595 115.555C293.325 113.164 293.981 110.751 294.692 108.357C296.151 108.344 297.623 108.507 299.076 108.334C299.86 108.104 299.892 106.99 299.226 106.593C297.91 106.372 296.569 106.535 295.246 106.407C295.731 104.535 296.419 102.711 296.798 100.809C296.811 99.8365 295.345 99.5004 295.017 100.445C294.325 102.41 293.873 104.452 293.232 106.436C290.807 106.388 288.382 106.375 285.961 106.331C286.448 104.471 287.13 102.663 287.525 100.781C287.681 99.75 286.018 99.3724 285.741 100.374ZM285.365 108.283C287.803 108.28 290.243 108.321 292.684 108.369C291.996 110.76 291.324 113.161 290.613 115.548C288.169 115.539 285.728 115.475 283.287 115.456C283.966 113.061 284.705 110.683 285.365 108.283ZM268.461 149.117C268.435 145.638 271.51 142.504 274.98 142.511C284.438 142.482 293.895 142.51 303.356 142.494C304.637 142.504 305.962 142.405 307.199 142.84C308.55 143.25 309.608 144.239 310.637 145.167C311.309 146.607 311.8 148.163 311.768 149.77C311.749 159.378 311.787 168.986 311.752 178.591C311.8 181.171 310.274 183.719 307.925 184.794C306.504 185.492 304.882 185.453 303.34 185.453C296.766 185.428 290.189 185.453 283.616 185.441C280.085 185.409 276.551 185.556 273.027 185.277L272.928 185.62C271.781 184.484 270.283 183.683 269.455 182.259C268.719 181.078 268.41 179.667 268.448 178.287C268.464 168.564 268.442 158.84 268.461 149.117ZM282.997 155.201C282.784 156.443 282.86 157.707 282.873 158.962C282.175 159.269 281.344 159.573 281.066 160.364C280.805 161.292 280.913 162.271 280.897 163.225C280.936 165.561 280.85 167.901 280.929 170.241C280.894 171.345 281.873 172.366 282.991 172.28C287.758 172.308 292.528 172.296 297.298 172.286C298.589 172.436 299.618 171.22 299.516 169.975C299.507 166.97 299.577 163.961 299.481 160.956C299.417 159.804 298.328 159.167 297.308 159C297.292 157.947 297.346 156.894 297.263 155.844C297.047 153.62 295.651 151.581 293.713 150.509C292.209 149.648 290.4 149.51 288.714 149.738C285.916 150.106 283.52 152.423 282.997 155.201ZM281.133 173.883C280.302 174.203 280.843 175.458 281.672 175.186C287.433 175.17 293.2 175.243 298.962 175.151C299.93 175.045 299.491 173.553 298.598 173.829C292.78 173.854 286.949 173.745 281.133 173.883ZM280.738 177.647C280.652 178.169 281.28 178.345 281.685 178.297C287.544 178.3 293.404 178.29 299.268 178.297C299.554 177.852 299.656 176.965 298.911 176.981C293.286 176.905 287.659 176.978 282.035 176.946C281.547 176.94 280.614 176.908 280.738 177.647ZM285.728 153.809C287.688 150.893 292.627 150.938 294.51 153.918C295.578 155.422 295.377 157.336 295.396 159.077C291.859 159.087 288.325 159.087 284.791 159.08C284.842 157.304 284.556 155.307 285.728 153.809Z" fill="#F9DA2F"/>
<path d="M311.02 103.08C311.039 100.875 310.841 98.6503 311.287 96.4707C311.587 100.462 311.338 104.482 311.421 108.486C311.421 114.362 311.415 120.242 311.427 126.121C311.431 126.835 311.377 127.546 311.275 128.253C310.851 126.176 311.042 124.054 311.013 121.954C311.01 115.662 311.01 109.372 311.02 103.08Z" fill="#3D5887"/>
<path d="M285.741 100.376C286.018 99.3739 287.682 99.7516 287.526 100.782C287.131 102.664 286.449 104.473 285.961 106.332C288.383 106.377 290.808 106.39 293.233 106.438C293.873 104.453 294.326 102.411 295.017 100.446C295.345 99.5019 296.811 99.838 296.798 100.811C296.419 102.712 295.731 104.537 295.246 106.409C296.569 106.537 297.91 106.374 299.226 106.595C299.892 106.991 299.861 108.105 299.077 108.336C297.624 108.509 296.151 108.345 294.692 108.358C293.981 110.752 293.325 113.165 292.595 115.556C294.641 115.659 296.7 115.531 298.739 115.748C299.657 115.902 299.548 117.531 298.602 117.534C296.413 117.653 294.22 117.451 292.031 117.486C291.614 119.074 291.139 120.642 290.709 122.223C290.508 122.764 290.441 123.462 289.903 123.792C289.195 124.169 288.332 123.353 288.609 122.62C289.026 120.885 289.616 119.195 290.059 117.467C287.608 117.467 285.155 117.4 282.705 117.374C282.102 119.394 281.586 121.442 280.901 123.436C280.745 124.016 279.951 124.32 279.489 123.894C278.884 123.548 279.148 122.79 279.279 122.262C279.76 120.613 280.257 118.968 280.735 117.32C279.365 117.278 277.982 117.387 276.625 117.179C275.85 116.881 275.889 115.566 276.752 115.406C278.266 115.252 279.792 115.435 281.315 115.393C281.978 112.999 282.733 110.631 283.38 108.23C281.114 108.201 278.842 108.272 276.583 108.15C275.643 108.012 275.618 106.467 276.564 106.303C279.027 106.194 281.497 106.342 283.963 106.322C284.578 104.348 285.066 102.331 285.741 100.376ZM285.365 108.284C284.706 110.685 283.966 113.063 283.288 115.457C285.728 115.476 288.169 115.54 290.613 115.55C291.324 113.162 291.996 110.762 292.685 108.371C290.244 108.323 287.803 108.281 285.365 108.284Z" fill="#293A59"/>
<path d="M55.6645 110.082C56.5344 109.013 57.4744 107.724 58.9466 107.544C60.1256 107.448 61.1006 108.319 61.773 109.193C63.0762 110.959 63.8856 113.04 64.5548 115.117C64.6249 115.152 64.7715 115.22 64.8447 115.255C64.7906 115.495 64.679 115.972 64.6249 116.212C64.5866 122.824 64.6185 129.45 64.0545 136.043C64.0163 138.171 62.4676 139.964 60.6609 140.905C59.2047 141.628 57.5796 141.986 55.964 142.082C53.6889 141.75 51.503 140.901 49.5241 139.73C48.718 139.25 47.8736 138.84 46.9973 138.507C49.0302 141.644 52.5067 143.427 55.7696 145.008C55.7951 145.437 55.8206 145.872 55.8398 146.31C55.5944 148.487 55.2407 150.727 54.1923 152.68C53.6124 153.742 52.5832 154.683 51.3118 154.69C49.4317 154.747 47.7939 153.627 46.3186 152.59C42.9058 150.007 40.0157 146.807 37.1925 143.603C37.116 142.22 36.8675 140.853 36.7974 139.474C36.8929 136.507 37.0969 133.546 37.2498 130.586C37.3231 130.054 37.1765 129.546 36.8037 129.161C34.7962 126.707 32.8143 124.226 30.8004 121.774C30.1727 121.025 29.6851 120.104 29.6883 119.105C29.564 116.986 31.3294 114.938 33.4611 114.874C34.3183 114.845 35.3666 114.887 35.8988 115.674C36.9439 117.057 37.8584 118.529 38.8909 119.921C38.996 117.556 38.8431 115.168 39.1203 112.816C40.3949 110.566 42.9791 109.02 45.592 109.241C47.2394 109.247 48.702 110.243 50.3526 110.188C52.1243 110.15 53.8928 110.105 55.6645 110.082Z" fill="#F79383"/>
<path d="M154.984 123.064C161.634 122.968 168.291 123.061 174.944 123.019C175.976 123.029 177.06 122.942 178.038 123.361C179.351 123.922 180.399 125.263 180.361 126.738C180.371 132.928 180.361 139.115 180.367 145.305C180.514 147.405 178.573 149.248 176.521 149.2C169.524 149.232 162.52 149.213 155.522 149.21C153.407 149.325 151.389 147.469 151.476 145.311C151.472 139.125 151.447 132.938 151.488 126.751C151.472 124.847 153.123 123.198 154.984 123.064ZM155.28 124.037C153.869 124.072 152.508 125.282 152.581 126.757C152.543 132.931 152.568 139.109 152.568 145.286C152.403 146.921 153.945 148.31 155.522 148.205C162.412 148.211 169.304 148.205 176.193 148.208C177.809 148.355 179.424 147.011 179.313 145.331C179.325 139.233 179.319 133.139 179.316 127.045C179.364 126.066 178.93 125.064 178.092 124.533C177.267 123.947 176.212 124.011 175.256 123.995C168.596 124.034 161.937 123.957 155.28 124.037Z" fill="#F3FBFF"/>
<path d="M192.399 123.061C192.737 123.039 193.078 123.017 193.425 122.997C193.41 123.346 193.394 123.701 193.381 124.054C193.053 124.025 192.731 123.996 192.409 123.967C192.403 123.663 192.399 123.362 192.399 123.061ZM201.309 123.061C201.65 123.039 201.994 123.017 202.341 122.994C202.328 123.346 202.319 123.698 202.309 124.054C201.975 124.022 201.643 123.99 201.315 123.961C201.309 123.66 201.309 123.359 201.309 123.061ZM205.767 123.065C206.111 123.042 206.458 123.02 206.809 122.997C206.793 123.349 206.777 123.701 206.764 124.057C206.433 124.025 206.104 123.996 205.779 123.97C205.77 123.666 205.767 123.365 205.767 123.065ZM210.215 123.065C210.562 123.039 210.91 123.017 211.263 122.994C211.247 123.346 211.235 123.701 211.222 124.057C210.887 124.025 210.55 123.993 210.218 123.961C210.215 123.66 210.215 123.362 210.215 123.065ZM197.437 148.266C197.794 148.238 198.157 148.212 198.521 148.19C198.524 148.446 198.527 148.958 198.527 149.214C198.189 149.211 197.855 149.207 197.523 149.207C197.495 148.89 197.463 148.577 197.437 148.266Z" fill="#F8FEFF"/>
<path d="M196.864 123.067C197.195 123.041 197.533 123.013 197.874 122.99C197.864 123.342 197.858 123.698 197.851 124.056C197.52 124.024 197.192 123.992 196.867 123.966C196.864 123.666 196.86 123.365 196.864 123.067Z" fill="#FBFEFF"/>
<path d="M214.67 123.067C215.014 123.038 215.361 123.009 215.712 122.98C215.699 123.336 215.693 123.694 215.683 124.056C215.349 124.024 215.014 123.995 214.683 123.966C214.676 123.665 214.67 123.365 214.67 123.067ZM223.579 123.067C223.93 123.038 224.28 123.012 224.634 122.987C224.624 123.339 224.615 123.694 224.609 124.049C224.268 124.021 223.927 123.992 223.592 123.966C223.586 123.665 223.583 123.365 223.579 123.067ZM228.04 123.064C228.385 123.038 228.732 123.016 229.082 122.993C229.095 123.243 229.121 123.739 229.13 123.989C228.767 123.989 228.407 123.992 228.05 123.995C228.044 123.681 228.04 123.374 228.04 123.064Z" fill="#F7FEFF"/>
<path d="M219.131 123.068C219.479 123.042 219.829 123.017 220.183 122.994C220.167 123.346 220.157 123.698 220.148 124.054C219.81 124.022 219.472 123.993 219.134 123.964C219.131 123.663 219.128 123.365 219.131 123.068Z" fill="#F9FEFF"/>
<path d="M155.28 124.038C161.937 123.958 168.596 124.035 175.256 123.996C176.212 124.012 177.267 123.948 178.092 124.534C178.93 125.065 179.364 126.067 179.316 127.046C179.319 133.14 179.325 139.234 179.313 145.332C179.424 147.012 177.809 148.356 176.193 148.209C169.304 148.206 162.411 148.212 155.522 148.206C153.945 148.311 152.403 146.922 152.568 145.287C152.568 139.109 152.543 132.932 152.581 126.758C152.508 125.283 153.868 124.073 155.28 124.038ZM160.653 129.949C159.709 131.294 159.818 133.003 159.834 134.565C159.174 134.859 158.269 135.182 158.269 136.059C158.189 138.492 158.205 140.937 158.263 143.37C158.231 144.426 159.333 144.999 160.264 144.925C163.88 144.947 167.5 144.919 171.12 144.938C171.866 144.915 172.79 144.957 173.287 144.272C173.784 143.67 173.628 142.829 173.672 142.108C173.615 140.079 173.739 138.047 173.615 136.021C173.52 135.099 172.576 134.753 171.805 134.584C171.802 133.054 171.971 131.38 171.053 130.052C168.896 126.445 162.883 126.39 160.653 129.949Z" fill="#3D5887"/>
<path d="M160.653 129.949C162.883 126.39 168.896 126.444 171.054 130.051C171.971 131.38 171.802 133.054 171.806 134.583C172.577 134.753 173.52 135.099 173.616 136.021C173.74 138.047 173.616 140.079 173.673 142.108C173.628 142.828 173.784 143.67 173.287 144.272C172.79 144.957 171.866 144.915 171.121 144.938C167.501 144.918 163.881 144.947 160.264 144.925C159.334 144.998 158.231 144.425 158.263 143.369C158.206 140.937 158.19 138.491 158.269 136.059C158.269 135.182 159.174 134.859 159.834 134.564C159.818 133.002 159.71 131.293 160.653 129.949ZM162.074 130.759C161.262 131.898 161.45 133.377 161.44 134.695C164.352 134.67 167.265 134.673 170.177 134.692C170.142 133.393 170.413 131.94 169.613 130.807C168.011 128.253 163.718 128.24 162.074 130.759ZM164.021 137.973C163.722 138.972 164.47 139.756 165.085 140.425C164.948 141.065 164.423 141.897 165.06 142.435C165.541 143.072 166.726 142.863 166.975 142.105C167.201 141.503 166.854 140.921 166.691 140.354C167.851 139.672 168.307 138.011 167.325 136.978C166.331 135.787 164.222 136.453 164.021 137.973ZM282.998 155.202C283.52 152.424 285.917 150.107 288.714 149.738C290.4 149.511 292.21 149.649 293.714 150.51C295.651 151.582 297.047 153.621 297.264 155.845C297.347 156.895 297.292 157.948 297.308 159.001C298.328 159.168 299.418 159.804 299.481 160.957C299.577 163.962 299.507 166.971 299.517 169.976C299.619 171.221 298.589 172.437 297.299 172.287C292.529 172.297 287.758 172.309 282.991 172.281C281.873 172.367 280.895 171.346 280.93 170.242C280.85 167.902 280.936 165.562 280.898 163.226C280.914 162.272 280.806 161.293 281.067 160.365C281.344 159.574 282.176 159.27 282.874 158.963C282.861 157.708 282.784 156.444 282.998 155.202ZM285.729 153.81C284.556 155.308 284.843 157.305 284.792 159.081C288.326 159.088 291.859 159.088 295.396 159.078C295.377 157.337 295.578 155.423 294.511 153.918C292.627 150.939 287.688 150.894 285.729 153.81ZM288.835 161.776C287.3 162.979 287.663 165.562 289.336 166.468C289.017 167.176 288.485 167.985 288.922 168.766C289.269 169.63 290.496 169.95 291.136 169.205C291.936 168.443 291.442 167.31 291.098 166.459C292.219 165.662 292.943 164.173 292.321 162.839C291.879 161.427 289.967 160.768 288.835 161.776Z" fill="#293A59"/>
<path d="M231.954 129.014C232.33 129.036 232.709 129.062 233.091 129.09C233.066 129.42 233.043 129.75 233.021 130.083C232.69 130.051 232.358 130.031 232.033 129.98C232.014 129.737 231.973 129.254 231.954 129.014Z" fill="#F6FCFF"/>
<path d="M232.024 133.201C232.371 133.227 232.721 133.256 233.078 133.284C233.056 133.595 233.04 133.909 233.027 134.222C232.67 134.216 232.317 134.209 231.966 134.206C231.979 133.957 232.008 133.451 232.024 133.201ZM183.895 142.797C184.258 142.809 184.628 142.825 185.001 142.841C184.982 143.162 184.966 143.482 184.953 143.805C184.612 143.818 184.271 143.834 183.936 143.85C183.917 143.498 183.905 143.146 183.895 142.797Z" fill="#F8FDFF"/>
<path d="M164.021 137.974C164.222 136.453 166.331 135.788 167.325 136.978C168.307 138.012 167.851 139.673 166.691 140.355C166.854 140.921 167.201 141.504 166.975 142.106C166.726 142.864 165.541 143.072 165.06 142.435C164.422 141.898 164.948 141.065 165.085 140.425C164.47 139.756 163.721 138.972 164.021 137.974Z" fill="#3D5887"/>
<path d="M231.995 137.375C232.345 137.397 232.702 137.423 233.062 137.449C233.053 137.749 233.046 138.054 233.043 138.358C232.705 138.393 232.371 138.431 232.036 138.47C232.017 138.102 232.004 137.74 231.995 137.375Z" fill="#F7FDFF"/>
<path d="M46.9976 138.508C47.8738 138.841 48.7183 139.25 49.5244 139.73C51.5032 140.902 53.6892 141.75 55.9643 142.083C55.9994 143.053 56.0631 144.023 55.9802 144.992C55.9388 145.431 55.8878 145.869 55.84 146.311C55.8209 145.872 55.7954 145.437 55.7699 145.008C52.507 143.427 49.0305 141.644 46.9976 138.508Z" fill="#D4889A"/>
<path d="M183.879 138.619C184.255 138.632 184.634 138.648 185.016 138.667C184.988 138.987 184.962 139.307 184.943 139.631C184.605 139.64 184.274 139.656 183.943 139.672C183.917 139.317 183.898 138.968 183.879 138.619Z" fill="#F6FDFF"/>
<path d="M26.91 146.09C30.0136 144.519 33.4582 143.517 36.9251 143.338L37.1927 143.604C40.0159 146.807 42.9061 150.008 46.3188 152.591C47.7941 153.628 49.432 154.748 51.312 154.691C52.5834 154.684 53.6127 153.743 54.1926 152.681C55.2409 150.728 55.5946 148.488 55.84 146.311C55.8878 145.87 55.9388 145.431 55.9802 144.993C59.514 144.628 62.9299 146.087 65.7531 148.11C70.0103 151.154 73.4517 155.187 76.5585 159.37C80.8634 165.256 84.4896 171.615 87.8163 178.1C88.2465 178.993 89.2853 179.313 90.2062 179.316C91.809 179.31 93.4213 178.897 94.8361 178.138C102.923 173.609 111.001 169.058 119.101 164.552C119.178 164.763 119.331 165.189 119.407 165.4C121.048 169.948 123.549 174.358 127.421 177.354C127.765 177.626 128.119 177.892 128.473 178.158C128.113 178.417 127.752 178.682 127.399 178.951C123.897 181.608 120.347 184.2 116.845 186.854C115.328 187.283 113.735 187.039 112.187 187.126C104.223 187.305 96.2573 187.385 88.2975 187.587C87.0197 187.667 85.7483 187.795 84.4737 187.891C83.881 192.829 83.2915 197.768 82.6287 202.697C81.8512 202.662 81.0642 202.591 80.2899 202.69C75.6025 203.708 71.0363 205.235 66.6485 207.178C66.5976 212.491 66.4573 217.804 66.4095 223.117C70.963 223.222 75.5101 223.415 80.0636 223.463C79.8661 225.437 79.6557 227.412 79.3148 229.365C72.3842 227.771 65.2114 227.323 58.1215 227.716C57.7423 229.582 57.5734 231.509 56.8788 233.301C55.2409 233.535 53.6413 233.996 51.9971 234.194C43.9449 235.311 35.7652 234.422 27.8245 232.892C27.7129 231.387 27.6906 229.877 27.5982 228.372C34.1464 228.289 40.701 227.851 47.1728 226.83C49.1356 226.484 51.1272 226.238 53.0072 225.549C46.2965 225.05 39.573 224.535 32.8368 224.58C31.0715 224.583 29.3062 224.736 27.5791 225.101C27.5823 224.596 27.5855 224.099 27.5823 223.6C23.3634 223.498 18.8832 222.499 15.77 219.449C14.1162 217.743 12.5963 215.627 12.4433 213.169C10.9457 197.931 11.5033 182.466 14.4349 167.426C15.171 163.828 15.8114 160.173 17.2454 156.771C19.1158 152.232 22.5285 148.315 26.91 146.09ZM36.7689 162.218C36.6478 168.741 36.3642 175.264 36.0392 181.781C35.6154 188.953 35.3318 196.161 34.2038 203.263C39.8725 204.115 45.5891 204.643 51.277 205.373C56.2001 205.894 61.1041 206.653 66.0431 207.037C64.3829 206.374 62.6463 205.939 60.9575 205.363C53.9122 203.164 46.8955 200.863 39.8343 198.709C38.8975 188.512 38.2666 178.282 37.3903 168.079C37.231 166.12 37.1959 164.142 36.7689 162.218ZM78.4895 200.981C79.2734 201.308 80.3281 201.298 80.6882 200.364C81.4943 198.43 81.4975 196.184 81.0928 194.158C79.6749 189.926 78.4608 185.625 76.9313 181.435C77.3647 187.958 78.037 194.462 78.4895 200.981Z" fill="#3D5887"/>
<path d="M310.637 145.168C312.217 146.221 313.412 148.004 313.511 149.931C313.068 152.094 313.275 154.309 313.24 156.501C313.199 163.757 313.282 171.016 313.212 178.275C313.196 179.207 313.342 180.128 313.508 181.044C313.39 183.406 311.66 185.525 309.531 186.44C307.995 187.131 306.278 186.968 304.643 186.984C295.511 186.981 286.378 186.987 277.246 186.984C275.7 187.029 274.174 186.53 272.928 185.621L273.027 185.278C276.551 185.557 280.085 185.41 283.616 185.442C290.189 185.454 296.766 185.429 303.34 185.454C304.882 185.454 306.504 185.493 307.925 184.795C310.274 183.72 311.8 181.172 311.752 178.592C311.787 168.987 311.749 159.379 311.768 149.77C311.8 148.164 311.309 146.608 310.637 145.168Z" fill="#3D5887"/>
<path d="M193.002 149.21C193.021 148.896 193.037 148.582 193.085 148.278C193.327 148.246 193.808 148.182 194.047 148.15C194.057 148.413 194.073 148.935 194.082 149.197C193.719 149.2 193.359 149.203 193.002 149.21ZM201.883 148.275C202.243 148.24 202.609 148.211 202.976 148.182C202.979 148.438 202.988 148.944 202.992 149.2C202.654 149.203 202.316 149.207 201.981 149.213C201.946 148.899 201.915 148.586 201.883 148.275ZM206.344 148.269C206.707 148.24 207.073 148.211 207.443 148.189C207.446 148.442 207.446 148.951 207.446 149.207C207.109 149.207 206.771 149.207 206.439 149.213C206.407 148.896 206.376 148.579 206.344 148.269Z" fill="#F8FFFF"/>
<path d="M219.708 148.263C220.078 148.237 220.45 148.215 220.823 148.195C220.826 148.445 220.826 148.947 220.83 149.197C220.482 149.204 220.135 149.207 219.794 149.216C219.762 148.896 219.737 148.576 219.708 148.263Z" fill="#F9FFFF"/>
<path d="M313.24 156.501C313.275 154.308 313.068 152.093 313.511 149.93C313.721 157.874 313.54 165.83 313.6 173.781C313.553 176.2 313.709 178.627 313.508 181.043C313.342 180.128 313.196 179.206 313.212 178.274C313.282 171.015 313.199 163.756 313.24 156.501Z" fill="#3D5887"/>
<path d="M128.205 155.921C128.718 155.544 129.387 155.553 129.992 155.477C130.629 155.873 131.496 156.258 131.598 157.109C131.773 158.629 131.299 160.114 130.948 161.574C132.414 160.374 133.912 159.209 135.489 158.159C137.082 157.199 138.854 156.021 140.788 156.245C141.671 156.904 141.177 158.149 141.174 159.068C142.333 158.805 143.506 158.479 144.711 158.54C145.109 158.527 145.453 158.764 145.702 159.061C145.214 160.783 143.672 161.875 142.48 163.1C144.147 163.132 145.886 163.132 147.403 163.929C146.476 165.475 144.733 166.125 143.178 166.829C143.898 167.085 145.074 167.063 145.23 168.02C145.051 168.954 144.242 169.559 143.583 170.164C142.486 171.073 141.591 172.216 140.409 173.022C138.921 174.04 137.216 174.69 135.476 175.128C133.564 175.439 131.678 175.922 129.979 176.892C129.173 177.254 128.287 177.318 127.421 177.353C123.549 174.357 121.048 169.947 119.407 165.399C122.373 164.269 124.983 162.275 126.898 159.74C127.398 159.151 127.261 158.328 127.386 157.621C127.548 157.016 127.637 156.293 128.205 155.921ZM66.6482 207.176C71.0359 205.234 75.6022 203.707 80.2895 202.689C81.0638 202.59 81.8509 202.66 82.6284 202.696C81.7425 209.615 80.9108 216.538 80.0632 223.461C75.5098 223.413 70.9627 223.221 66.4092 223.116C66.457 217.802 66.5972 212.489 66.6482 207.176Z" fill="#F69282"/>
<path d="M0 157.195C5.74841 157.077 11.4936 156.805 17.2452 156.77C15.8113 160.172 15.1708 163.827 14.4348 167.424C11.5032 182.464 10.9456 197.93 12.4432 213.168C12.5962 215.626 14.1161 217.742 15.7699 219.448C18.8831 222.498 23.3633 223.496 27.5822 223.599C27.5854 224.098 27.5822 224.594 27.579 225.1C27.5599 226.191 27.5471 227.279 27.5981 228.371C27.6905 229.875 27.7128 231.386 27.8243 232.89C28.4011 239.048 29.5928 245.315 32.6646 250.753C35.1054 255.128 39.0089 258.71 43.6962 260.499C45.4296 261.126 47.2109 261.776 49.075 261.83C56.8309 261.888 64.5836 262.176 72.3426 262.154C72.3458 262.986 72.349 263.818 72.3426 264.65C72.1546 266.929 72.3331 269.208 72.4159 271.487C62.4741 271.589 52.5291 271.445 42.5873 271.56C42.3356 272.725 42.103 273.897 41.899 275.075C50.7734 275.196 59.6509 275.097 68.5252 275.126C71.1859 275.017 73.8339 275.407 76.4914 275.327C84.3493 275.305 92.2071 275.331 100.062 275.318C102.184 275.209 104.306 275.039 106.432 275.148C154.414 275.164 202.399 275.158 250.384 275.148C276.325 275.103 302.269 275.148 328.211 275.123C329.179 275.123 330.161 275.055 331.123 275.257C331.152 275.395 331.209 275.663 331.238 275.798C338.522 275.849 345.809 275.814 353.094 275.817C353.129 275.657 353.196 275.34 353.228 275.18C356.15 275.071 359.075 275.132 362 275.145C361.994 277.753 362.003 280.362 361.997 282.974C285.305 283.025 208.609 282.977 131.914 282.996C89.4285 282.98 46.94 283.015 4.4547 282.977C4.43558 280.368 4.44195 277.763 4.44833 275.155C15.0115 275.078 25.5747 275.177 36.1379 275.107C36.3832 273.929 36.6158 272.751 36.8261 271.573C30.0867 271.41 23.3378 271.631 16.6016 271.467C15.8336 270.622 15.5341 269.467 15.1071 268.436C13.1602 262.858 12.0576 257.033 10.9647 251.239C8.17332 235.444 6.28692 219.505 4.5025 203.569C2.84553 188.126 1.26503 172.673 0 157.195Z" fill="#293A59"/>
<path d="M288.835 161.775C289.966 160.767 291.878 161.426 292.321 162.838C292.942 164.173 292.219 165.661 291.098 166.458C291.442 167.309 291.936 168.442 291.136 169.204C290.495 169.95 289.268 169.63 288.921 168.765C288.485 167.985 289.017 167.175 289.335 166.467C287.662 165.562 287.299 162.979 288.835 161.775Z" fill="#606060"/>
<path d="M36.7687 162.217C37.1957 164.14 37.2308 166.118 37.3901 168.077C38.2664 178.281 38.8973 188.51 39.8341 198.707C46.8954 200.861 53.912 203.163 60.9573 205.361C62.6461 205.937 64.3828 206.373 66.0429 207.035C61.1039 206.651 56.1999 205.893 51.2768 205.371C45.5889 204.641 39.8724 204.113 34.2036 203.262C35.3316 196.16 35.6152 188.952 36.039 181.779C36.364 175.263 36.6476 168.74 36.7687 162.217Z" fill="#293A59"/>
<path d="M281.133 173.883C286.949 173.746 292.78 173.854 298.598 173.829C299.491 173.554 299.93 175.045 298.962 175.151C293.201 175.243 287.433 175.17 281.672 175.186C280.843 175.458 280.302 174.203 281.133 173.883Z" fill="#F0FAFF"/>
<path d="M127.421 177.353C128.288 177.318 129.173 177.254 129.98 176.893C129.976 180.308 129.986 183.72 129.986 187.135C129.116 187.16 128.246 187.16 127.379 187.131C127.392 184.404 127.37 181.678 127.399 178.951C127.752 178.682 128.112 178.416 128.472 178.157C128.119 177.891 127.765 177.626 127.421 177.353Z" fill="#3D5887"/>
<path d="M280.738 177.648C280.614 176.909 281.548 176.941 282.035 176.947C287.659 176.979 293.287 176.906 298.911 176.983C299.656 176.967 299.554 177.853 299.268 178.298C293.405 178.292 287.545 178.301 281.685 178.298C281.28 178.346 280.652 178.17 280.738 177.648Z" fill="#F0F9FF"/>
<path d="M217.761 177.758C218.286 177.204 219.274 177.329 219.612 178.02C220.198 178.833 219.233 180.088 218.302 179.745C217.461 179.524 217.107 178.372 217.761 177.758ZM223.171 177.758C223.726 177.182 224.774 177.351 225.077 178.103C225.574 178.916 224.608 180.075 223.726 179.742C222.884 179.54 222.534 178.379 223.171 177.758ZM228.588 177.764C228.987 177.434 229.573 177.23 230.032 177.585C230.876 178.017 230.787 179.339 229.914 179.684C228.821 180.261 227.671 178.619 228.588 177.764Z" fill="#EEF8FF"/>
<path d="M78.4893 200.98C78.0369 194.46 77.3645 187.956 76.9312 181.434C78.4607 185.623 79.6747 189.925 81.0927 194.156C81.4974 196.182 81.4942 198.429 80.688 200.362C80.3279 201.297 79.2732 201.306 78.4893 200.98Z" fill="#293A59"/>
<path d="M146.919 183.096C148.665 182.139 150.73 182.472 152.635 182.424C177.175 182.43 201.717 182.414 226.256 182.437C229.439 182.446 232.629 182.312 235.806 182.497C238.087 182.677 239.837 184.373 240.907 186.287C240.923 185.055 241.019 183.826 241.185 182.606C241.239 184.213 241.261 185.826 241.185 187.436C240.93 189.705 241.063 191.99 241.038 194.272C241.032 202.703 241.051 211.137 241.028 219.57C241.114 223.347 240.869 227.137 241.178 230.907C241.019 234.085 237.976 236.63 234.859 236.527C206.5 236.534 178.137 236.54 149.777 236.524C146.444 236.575 143.493 233.599 143.551 230.248C143.481 221.244 143.538 212.241 143.522 203.237C143.557 197.64 143.442 192.042 143.589 186.447C144.606 185.247 145.485 183.838 146.919 183.096ZM151.81 193.796C150.376 194.394 149.36 195.908 149.449 197.48C149.459 204.841 149.459 212.199 149.449 219.557C149.306 221.673 151.192 223.616 153.298 223.571C160.726 223.606 168.16 223.565 175.591 223.59C176.48 223.584 177.417 223.6 178.242 223.2C179.609 222.553 180.517 221.065 180.428 219.545C180.434 212.193 180.425 204.844 180.431 197.496C180.571 195.367 178.653 193.424 176.537 193.517C169.106 193.476 161.676 193.52 154.245 193.495C153.429 193.514 152.578 193.479 151.81 193.796ZM188.33 195.159C188.334 196.753 188.318 198.347 188.343 199.941C196.943 199.918 205.547 199.938 214.15 199.931C220.221 199.88 226.294 200.037 232.358 199.854L232.47 200.155C232.635 198.494 232.912 196.718 232.336 195.114C217.668 195.21 202.998 195.124 188.33 195.159ZM188.33 202.45C188.337 204.057 188.308 205.664 188.359 207.273C200.643 207.219 212.93 207.257 225.214 207.254C225.243 205.657 225.217 204.06 225.243 202.466C212.94 202.431 200.633 202.46 188.33 202.45ZM188.353 209.77C188.311 211.364 188.337 212.961 188.33 214.558C198.33 214.577 208.332 214.513 218.331 214.59C218.87 213.099 218.768 211.364 218.299 209.866L218.302 209.764C208.319 209.799 198.336 209.789 188.353 209.77ZM188.334 217.074C188.327 218.677 188.33 220.281 188.33 221.884C202.975 221.891 217.621 221.888 232.266 221.888C232.262 220.281 232.272 218.677 232.262 217.074C217.617 217.074 202.975 217.077 188.334 217.074Z" fill="#3D5887"/>
<path d="M84.4734 187.89C85.748 187.794 87.0194 187.666 88.2972 187.586C86.1973 202.757 84.1229 217.934 82.0325 233.109C73.6489 233.134 65.2589 233.096 56.8785 233.301C57.5731 231.508 57.742 229.581 58.1212 227.715C65.2111 227.322 72.3839 227.77 79.3145 229.364C79.6554 227.411 79.8657 225.437 80.0633 223.462C80.9109 216.539 81.7426 209.616 82.6284 202.696C83.2912 197.767 83.8807 192.829 84.4734 187.89ZM27.5788 225.101C29.3059 224.736 31.0712 224.582 32.8365 224.579C39.5727 224.534 46.2962 225.049 53.0069 225.549C51.1269 226.237 49.1353 226.483 47.1725 226.829C40.7007 227.85 34.1461 228.288 27.5979 228.372C27.5469 227.28 27.5597 226.192 27.5788 225.101Z" fill="#293A59"/>
<path d="M241.038 194.272C241.064 191.99 240.93 189.705 241.185 187.436C241.331 199.528 241.207 211.629 241.249 223.724C241.22 226.115 241.312 228.512 241.178 230.907C240.869 227.136 241.115 223.347 241.029 219.57C241.051 211.136 241.032 202.703 241.038 194.272ZM152.486 255.785C152.9 255.817 153.321 255.852 153.741 255.894C153.687 256.323 153.64 256.764 153.585 257.2C153.162 257.136 152.741 257.078 152.32 257.017C152.374 256.604 152.429 256.192 152.486 255.785Z" fill="#3D5887"/>
<path d="M151.81 193.795C152.578 193.478 153.429 193.513 154.245 193.494C161.676 193.52 169.106 193.475 176.537 193.517C178.653 193.424 180.571 195.367 180.431 197.495C180.425 204.844 180.434 212.192 180.428 219.544C180.517 221.064 179.609 222.553 178.242 223.199C177.417 223.599 176.48 223.583 175.591 223.59C168.16 223.564 160.726 223.606 153.298 223.57C151.192 223.615 149.306 221.673 149.449 219.557C149.459 212.199 149.459 204.84 149.449 197.479C149.36 195.907 150.376 194.394 151.81 193.795Z" fill="#293A59"/>
<path d="M232.336 195.113C232.913 196.717 232.635 198.493 232.47 200.154L232.358 199.853C232.177 198.282 232.263 196.691 232.336 195.113Z" fill="#3D5887"/>
<path d="M188.331 202.449C200.634 202.459 212.94 202.43 225.243 202.465C225.217 204.059 225.243 205.656 225.214 207.253C212.93 207.257 200.643 207.218 188.359 207.273C188.308 205.663 188.337 204.056 188.331 202.449ZM188.353 209.769C198.336 209.788 208.319 209.798 218.303 209.763L218.299 209.865C218.277 211.437 218.252 213.015 218.331 214.589C208.332 214.513 198.33 214.577 188.331 214.557C188.337 212.96 188.311 211.363 188.353 209.769Z" fill="#EDF7FD"/>
<path d="M27.8242 232.891C35.7649 234.421 43.9446 235.31 51.9968 234.193C53.6411 233.995 55.2407 233.534 56.8785 233.3C65.259 233.095 73.649 233.134 82.0326 233.108C85.0151 233.182 87.9977 233.3 90.9834 233.361C92.1274 233.608 93.3574 233.854 94.2336 234.705C96.1997 236.575 98.2327 238.457 99.5296 240.883C102.235 245.325 103.035 250.622 103.251 255.743C103.315 260.128 102.627 264.474 101.967 268.795C101.881 270.914 101.849 273.039 101.849 275.165C92.1114 275.168 82.3736 275.158 72.6357 275.171C72.4891 271.663 72.4795 268.155 72.3425 264.651C72.3489 263.818 72.3457 262.986 72.3425 262.154C64.5834 262.176 56.8307 261.888 49.0748 261.831C47.2108 261.776 45.4295 261.127 43.6961 260.499C39.0088 258.71 35.1053 255.129 32.6645 250.753C29.5927 245.315 28.401 239.049 27.8242 232.891ZM101.782 233.672C110.051 233.937 118.327 234.155 126.599 234.408C126.866 234.552 127.128 234.712 127.386 234.885C128.233 235.483 129.075 236.085 129.894 236.722C129.929 236.767 130.002 236.859 130.037 236.904C131.882 239.052 133.179 241.705 133.539 244.535C134.023 248.555 134.441 252.584 134.954 256.604C135.119 258.134 135.301 259.667 135.467 261.197C135.906 265.095 136.394 268.991 136.805 272.892C136.862 273.583 136.917 274.281 136.974 274.979C132.742 275.104 128.511 274.973 124.279 275.033C118.317 274.992 112.352 275.094 106.39 274.979C106.164 273.782 105.973 272.572 105.574 271.417C105.265 270.639 104.816 269.925 104.261 269.301C106.795 262.673 108.057 255.449 107.18 248.366C106.476 243.075 104.058 238.066 100.46 234.152C100.897 233.985 101.336 233.816 101.782 233.672Z" fill="#121313"/>
<path d="M90.9834 233.361C94.5841 233.393 98.1817 233.611 101.782 233.672C101.336 233.816 100.897 233.985 100.46 234.152C104.058 238.066 106.476 243.075 107.18 248.366C108.057 255.449 106.795 262.673 104.261 269.301C103.965 269.138 103.659 269.007 103.341 268.911C102.885 268.86 102.426 268.821 101.967 268.796C102.627 264.475 103.315 260.128 103.251 255.743C103.035 250.622 102.235 245.325 99.5295 240.883C98.2326 238.457 96.1997 236.575 94.2336 234.706C93.3573 233.854 92.1273 233.608 90.9834 233.361Z" fill="#131616"/>
<path d="M154.748 240.879C155.172 240.872 155.602 240.869 156.032 240.869C156.032 241.298 156.032 241.727 156.035 242.162C155.615 242.159 155.194 242.156 154.78 242.156C154.764 241.727 154.754 241.301 154.748 240.879Z" fill="#3D5887"/>
<path d="M159.722 240.852C160.149 240.864 160.579 240.88 161.01 240.903C160.981 241.332 160.952 241.764 160.927 242.199C160.525 242.18 160.124 242.164 159.725 242.151C159.719 241.713 159.719 241.28 159.722 240.852Z" fill="#3D5887"/>
<path d="M164.687 240.876C165.13 240.872 165.576 240.882 166.025 240.892C166.003 241.314 165.984 241.74 165.968 242.169C165.563 242.169 165.162 242.172 164.763 242.178C164.735 241.74 164.709 241.305 164.687 240.876Z" fill="#3D5887"/>
<path d="M169.674 240.867C170.091 240.864 170.512 240.864 170.932 240.871C170.939 241.296 170.945 241.722 170.955 242.154C170.528 242.157 170.101 242.157 169.677 242.164C169.674 241.728 169.674 241.296 169.674 240.867ZM234.353 247.112C234.793 247.096 235.232 247.086 235.682 247.083C235.679 247.499 235.682 247.915 235.688 248.338C235.261 248.35 234.837 248.37 234.417 248.389C234.394 247.96 234.369 247.531 234.353 247.112Z" fill="#3D5887"/>
<path d="M174.642 240.857C175.056 240.854 175.473 240.854 175.891 240.854C175.894 241.292 175.897 241.734 175.9 242.182C175.483 242.175 175.069 242.172 174.658 242.172C174.645 241.73 174.642 241.292 174.642 240.857Z" fill="#3D5887"/>
<path d="M179.6 240.87C180.027 240.867 180.457 240.87 180.89 240.874C180.887 241.303 180.89 241.735 180.893 242.17C180.466 242.16 180.039 242.154 179.619 242.151C179.609 241.722 179.603 241.296 179.6 240.87ZM172.309 255.929C172.727 255.923 173.147 255.92 173.571 255.923C173.571 256.346 173.571 256.774 173.574 257.206C173.153 257.206 172.733 257.206 172.319 257.213C172.312 256.781 172.309 256.355 172.309 255.929Z" fill="#3D5887"/>
<path d="M184.583 240.857C185.001 240.864 185.425 240.877 185.845 240.893C185.842 241.312 185.839 241.734 185.842 242.163C185.418 242.157 184.998 242.154 184.583 242.154C184.58 241.718 184.58 241.286 184.583 240.857Z" fill="#3D5887"/>
<path d="M189.548 240.884C189.972 240.871 190.402 240.858 190.832 240.852C190.832 241.287 190.832 241.729 190.832 242.173C190.427 242.173 190.026 242.18 189.624 242.189C189.596 241.751 189.57 241.316 189.548 240.884ZM147.891 249.16C148.293 249.151 148.694 249.144 149.096 249.138C149.131 249.56 149.166 249.989 149.204 250.421C148.764 250.441 148.324 250.457 147.891 250.482C147.888 250.037 147.888 249.596 147.891 249.16Z" fill="#3D5887"/>
<path d="M194.522 240.876C194.943 240.869 195.366 240.869 195.79 240.869C195.787 241.298 195.781 241.73 195.781 242.169C195.36 242.159 194.943 242.156 194.528 242.156C194.522 241.724 194.522 241.298 194.522 240.876Z" fill="#3D5887"/>
<path d="M199.512 240.848C199.92 240.848 200.328 240.851 200.742 240.854C200.748 241.293 200.755 241.734 200.764 242.182C200.337 242.17 199.914 242.163 199.49 242.16C199.493 241.718 199.499 241.28 199.512 240.848Z" fill="#3D5887"/>
<path d="M204.479 240.874C204.897 240.87 205.318 240.874 205.741 240.88C205.738 241.302 205.738 241.735 205.741 242.167C205.324 242.16 204.913 242.154 204.505 242.154C204.492 241.722 204.486 241.296 204.479 240.874ZM209.438 240.867C209.852 240.867 210.272 240.874 210.696 240.883C210.696 241.306 210.696 241.735 210.703 242.167C210.279 242.16 209.855 242.154 209.438 242.157C209.434 241.722 209.434 241.293 209.438 240.867Z" fill="#3D5887"/>
<path d="M214.44 240.941C214.845 240.868 215.256 240.848 215.67 240.816C215.68 241.261 215.689 241.709 215.699 242.164C215.278 242.167 214.861 242.177 214.444 242.186C214.428 241.767 214.428 241.354 214.44 240.941Z" fill="#3D5887"/>
<path d="M219.389 240.861C219.803 240.861 220.224 240.868 220.645 240.877C220.651 241.3 220.657 241.722 220.67 242.148C220.237 242.151 219.81 242.154 219.383 242.161C219.383 241.725 219.383 241.29 219.389 240.861Z" fill="#3D5887"/>
<path d="M224.363 240.834C224.784 240.85 225.211 240.872 225.641 240.898C225.619 241.327 225.603 241.759 225.587 242.191C225.176 242.181 224.768 242.172 224.36 242.165C224.354 241.717 224.357 241.276 224.363 240.834ZM222.028 255.928C222.442 255.919 222.859 255.912 223.283 255.912C223.283 256.338 223.286 256.77 223.293 257.208C222.866 257.205 222.442 257.205 222.021 257.212C222.018 256.78 222.021 256.354 222.028 255.928Z" fill="#3D5887"/>
<path d="M229.337 240.887C229.78 240.916 230.229 240.951 230.676 240.989C230.631 241.396 230.586 241.802 230.548 242.215C230.134 242.199 229.72 242.183 229.315 242.173C229.318 241.741 229.328 241.312 229.337 240.887ZM233.986 243.143C233.942 242.653 234.334 242.25 234.506 241.821C234.965 242.231 235.385 242.685 235.752 243.185C235.175 243.249 234.452 243.684 233.986 243.143Z" fill="#3D5887"/>
<path d="M150.724 241.354C151.154 241.242 151.584 241.123 152.021 241.018C152.103 241.427 152.186 241.834 152.272 242.25C151.88 242.359 151.488 242.464 151.1 242.579C150.975 242.17 150.845 241.757 150.724 241.354Z" fill="#3D5887"/>
<path d="M147.859 244.193C148.289 244.189 148.722 244.189 149.156 244.189C149.153 244.622 149.149 245.057 149.149 245.495C148.722 245.483 148.295 245.47 147.875 245.46C147.865 245.034 147.862 244.612 147.859 244.193Z" fill="#3D5887"/>
<path d="M234.398 252.073C234.815 252.07 235.236 252.066 235.663 252.066C235.659 252.495 235.659 252.927 235.663 253.363C235.232 253.356 234.809 253.35 234.385 253.35C234.385 252.921 234.388 252.495 234.398 252.073Z" fill="#3D5887"/>
<path d="M147.786 254.188C148.229 254.166 148.671 254.147 149.118 254.131C149.169 254.406 149.223 254.685 149.28 254.969C149.012 255.235 148.754 255.51 148.477 255.77C147.986 255.389 147.923 254.742 147.786 254.188Z" fill="#3D5887"/>
<path d="M231.845 255.676C232.221 255.57 232.597 255.468 232.98 255.365C233.107 255.785 233.228 256.201 233.359 256.629C232.922 256.726 232.498 256.834 232.068 256.943C231.989 256.514 231.919 256.098 231.845 255.676Z" fill="#3D5887"/>
<path d="M157.383 255.93C157.804 255.917 158.221 255.904 158.645 255.895C158.655 256.33 158.664 256.765 158.674 257.207C158.263 257.22 157.852 257.232 157.444 257.255C157.422 256.81 157.399 256.368 157.383 255.93Z" fill="#3D5887"/>
<path d="M162.361 255.91C162.781 255.91 163.202 255.917 163.622 255.923C163.619 256.349 163.613 256.778 163.613 257.213C163.189 257.21 162.769 257.21 162.351 257.213C162.351 256.774 162.354 256.339 162.361 255.91Z" fill="#3D5887"/>
<path d="M167.322 256.015C167.721 255.833 168.186 255.941 168.616 255.913C168.591 256.354 168.571 256.796 168.549 257.244C168.132 257.228 167.717 257.215 167.303 257.209C167.297 256.806 167.303 256.409 167.322 256.015Z" fill="#3D5887"/>
<path d="M177.264 255.91C177.688 255.913 178.112 255.926 178.539 255.939C178.532 256.361 178.523 256.784 178.523 257.216C178.099 257.21 177.678 257.21 177.261 257.213C177.261 256.774 177.261 256.339 177.264 255.91Z" fill="#3D5887"/>
<path d="M182.289 255.887C182.694 255.893 183.101 255.9 183.509 255.912C183.516 256.341 183.519 256.777 183.525 257.215C183.101 257.218 182.681 257.225 182.26 257.234C182.267 256.78 182.273 256.332 182.289 255.887Z" fill="#3D5887"/>
<path d="M187.215 255.919C187.633 255.913 188.057 255.913 188.483 255.916C188.48 256.342 188.48 256.774 188.487 257.209C188.06 257.206 187.636 257.209 187.215 257.216C187.212 256.777 187.212 256.345 187.215 255.919Z" fill="#3D5887"/>
<path d="M192.18 255.909C192.587 255.903 192.999 255.9 193.413 255.896C193.422 256.338 193.429 256.78 193.438 257.231C193.018 257.222 192.597 257.218 192.176 257.218C192.173 256.777 192.173 256.341 192.18 255.909Z" fill="#3D5887"/>
<path d="M197.154 255.922C197.578 255.919 198.001 255.916 198.428 255.919C198.428 256.345 198.428 256.777 198.435 257.212C198.008 257.206 197.581 257.206 197.16 257.209C197.157 256.777 197.154 256.348 197.154 255.922Z" fill="#3D5887"/>
<path d="M202.121 255.912C202.542 255.915 202.969 255.925 203.396 255.938C203.383 256.36 203.374 256.783 203.367 257.212C202.95 257.208 202.536 257.208 202.125 257.212C202.121 256.773 202.118 256.341 202.121 255.912Z" fill="#3D5887"/>
<path d="M207.112 255.91C207.545 255.917 207.982 255.929 208.421 255.945C208.399 256.365 208.38 256.787 208.364 257.213C207.953 257.219 207.545 257.226 207.137 257.238C207.125 256.79 207.115 256.349 207.112 255.91Z" fill="#3D5887"/>
<path d="M212.063 255.915C212.487 255.912 212.911 255.915 213.338 255.919C213.338 256.347 213.338 256.776 213.341 257.208C212.914 257.208 212.49 257.208 212.07 257.215C212.063 256.776 212.063 256.344 212.063 255.915Z" fill="#3D5887"/>
<path d="M217.031 255.986C217.439 255.912 217.853 255.887 218.274 255.852C218.28 256.309 218.28 256.77 218.287 257.237C217.86 257.228 217.436 257.221 217.015 257.218C217.009 256.802 217.012 256.392 217.031 255.986Z" fill="#3D5887"/>
<path d="M226.973 255.916C227.394 255.916 227.817 255.922 228.244 255.935C228.238 256.358 228.238 256.78 228.238 257.212C227.817 257.209 227.397 257.209 226.979 257.215C226.973 256.777 226.97 256.345 226.973 255.916Z" fill="#3D5887"/>
<path d="M103.34 268.91C103.659 269.006 103.965 269.137 104.261 269.301C104.816 269.925 105.265 270.639 105.574 271.416C104.408 271.503 103.239 271.531 102.072 271.522C102.088 270.696 102.111 269.874 102.133 269.054C102.534 268.997 102.936 268.949 103.34 268.91Z" fill="#B3D3F0"/>
<path d="M183.545 153.12H155.379C152.404 153.12 149.992 150.711 149.992 147.74V122.333C149.992 119.361 152.404 116.953 155.379 116.953H183.546C186.521 116.953 188.932 119.361 188.932 122.333V147.74C188.932 150.711 186.52 153.12 183.545 153.12Z" fill="#5D7BAA"/>
<path d="M187.626 122.44V147.743C187.626 149.942 185.942 151.747 183.791 151.943C183.663 151.955 183.533 151.961 183.402 151.961H155.524C155.507 151.961 155.491 151.961 155.476 151.961C153.165 151.935 151.3 150.056 151.3 147.743V122.44C151.3 120.127 153.165 118.248 155.476 118.223C155.492 118.223 155.508 118.223 155.524 118.223H183.402C183.534 118.223 183.663 118.229 183.791 118.241C185.942 118.436 187.626 120.242 187.626 122.44Z" fill="#455E86"/>
<path d="M183.79 133.427V146.062C183.79 147.148 182.909 148.027 181.823 148.027H157.101C156.014 148.027 155.133 147.147 155.133 146.062V124.557C155.133 123.471 156.014 122.592 157.101 122.592H169.449C170.143 122.592 170.706 123.154 170.706 123.847C170.706 128.445 174.438 132.172 179.042 132.172H182.533C183.227 132.172 183.79 132.734 183.79 133.427Z" fill="#273E65"/>
<path d="M160.242 143.886C159.512 143.886 158.942 143.685 158.531 143.283C158.12 142.88 157.915 142.311 157.915 141.574C157.915 140.816 158.105 140.229 158.485 139.815C158.864 139.401 159.389 139.193 160.059 139.193C160.7 139.193 161.198 139.376 161.555 139.74C161.912 140.104 162.09 140.608 162.09 141.25V141.849H159.168C159.181 142.2 159.285 142.474 159.48 142.671C159.675 142.869 159.947 142.967 160.299 142.967C160.572 142.967 160.83 142.938 161.073 142.882C161.317 142.825 161.571 142.735 161.835 142.61V143.566C161.619 143.674 161.388 143.754 161.142 143.806C160.896 143.859 160.596 143.886 160.242 143.886ZM160.068 140.072C159.806 140.072 159.6 140.155 159.452 140.321C159.303 140.487 159.218 140.722 159.196 141.027H160.931C160.926 140.722 160.846 140.486 160.692 140.321C160.538 140.155 160.33 140.072 160.068 140.072Z" fill="#F5F3F7"/>
<path d="M167.753 141.751C167.753 142.419 167.512 142.945 167.031 143.33C166.549 143.715 165.88 143.907 165.021 143.907C164.231 143.907 163.532 143.758 162.923 143.462V142.004C163.423 142.227 163.846 142.384 164.193 142.475C164.539 142.566 164.856 142.611 165.143 142.611C165.488 142.611 165.752 142.546 165.936 142.414C166.12 142.283 166.212 142.087 166.212 141.827C166.212 141.682 166.172 141.553 166.091 141.44C166.01 141.327 165.89 141.218 165.733 141.113C165.576 141.009 165.256 140.842 164.773 140.613C164.32 140.4 163.98 140.196 163.754 140C163.528 139.805 163.347 139.577 163.212 139.317C163.077 139.058 163.009 138.754 163.009 138.406C163.009 137.752 163.231 137.237 163.676 136.863C164.12 136.488 164.734 136.301 165.518 136.301C165.903 136.301 166.27 136.346 166.62 136.437C166.97 136.528 167.336 136.657 167.718 136.822L167.211 138.042C166.816 137.88 166.488 137.767 166.23 137.703C165.972 137.639 165.717 137.607 165.468 137.607C165.17 137.607 164.942 137.676 164.784 137.814C164.625 137.953 164.545 138.133 164.545 138.356C164.545 138.494 164.577 138.615 164.642 138.718C164.706 138.821 164.808 138.92 164.948 139.016C165.088 139.113 165.421 139.286 165.944 139.535C166.637 139.866 167.111 140.197 167.368 140.529C167.624 140.861 167.753 141.268 167.753 141.751Z" fill="#F5F3F7"/>
<path d="M169.095 143.807V136.408H170.666V143.807H169.095Z" fill="#F5F3F7"/>
<path d="M175.667 143.807L173.884 138.003H173.838C173.902 139.184 173.934 139.971 173.934 140.366V143.807H172.531V136.408H174.669L176.422 142.066H176.453L178.313 136.408H180.451V143.807H178.986V140.305C178.986 140.14 178.989 139.949 178.994 139.733C178.999 139.517 179.022 138.944 179.062 138.013H179.017L177.106 143.807H175.667Z" fill="#F5F3F7"/>
<path d="M183.791 118.241V129.297C183.791 130.193 183.064 130.919 182.166 130.919C181.717 130.919 181.311 130.738 181.018 130.444C180.724 130.15 180.542 129.745 180.542 129.297V118.223H183.402C183.533 118.223 183.663 118.229 183.791 118.241Z" fill="#5D7BAA"/>
<path d="M178.81 118.223V129.296C178.81 130.193 178.082 130.919 177.185 130.919C176.736 130.919 176.33 130.737 176.036 130.444C175.742 130.15 175.561 129.744 175.561 129.296V118.223H178.81Z" fill="#5D7BAA"/>
<path d="M173.885 118.223V119.98C173.885 120.876 173.158 121.602 172.26 121.602C171.811 121.602 171.405 121.421 171.112 121.127C170.817 120.833 170.636 120.428 170.636 119.98V118.223H173.885Z" fill="#5D7BAA"/>
<path d="M163.741 118.223V119.98C163.741 120.876 163.014 121.602 162.116 121.602C161.668 121.602 161.261 121.421 160.968 121.127C160.674 120.833 160.492 120.428 160.492 119.98V118.223H163.741Z" fill="#5D7BAA"/>
<path d="M158.724 118.223V119.98C158.724 120.876 157.997 121.602 157.1 121.602C156.651 121.602 156.245 121.421 155.951 121.127C155.657 120.833 155.475 120.428 155.475 119.98V118.223C155.491 118.223 155.507 118.223 155.523 118.223H158.724Z" fill="#5D7BAA"/>
<path d="M183.79 150.634V151.943C183.663 151.955 183.533 151.961 183.401 151.961H180.541V150.634C180.541 149.738 181.268 149.012 182.165 149.012H182.166C183.063 149.011 183.79 149.738 183.79 150.634Z" fill="#5D7BAA"/>
<path d="M178.809 150.634V151.961H175.56V150.634C175.56 149.738 176.287 149.012 177.184 149.012C177.633 149.012 178.04 149.193 178.333 149.487C178.628 149.78 178.809 150.185 178.809 150.634Z" fill="#5D7BAA"/>
<path d="M173.886 150.634V151.961H170.636V150.634C170.636 149.738 171.363 149.012 172.261 149.012C172.71 149.012 173.116 149.193 173.41 149.487C173.704 149.78 173.886 150.185 173.886 150.634Z" fill="#5D7BAA"/>
<path d="M168.748 150.634V151.961H165.498V150.634C165.498 149.738 166.225 149.012 167.123 149.012C167.572 149.012 167.978 149.193 168.272 149.487C168.566 149.78 168.748 150.185 168.748 150.634Z" fill="#5D7BAA"/>
<path d="M163.741 150.634V151.961H160.492V150.634C160.492 149.738 161.219 149.012 162.116 149.012H162.116C163.014 149.011 163.741 149.738 163.741 150.634Z" fill="#5D7BAA"/>
<path d="M158.724 150.634V151.961H155.523C155.507 151.961 155.491 151.961 155.475 151.96V150.634C155.475 149.738 156.202 149.012 157.1 149.012C157.549 149.012 157.955 149.193 158.249 149.487C158.543 149.78 158.724 150.185 158.724 150.634Z" fill="#5D7BAA"/>
<path d="M168.749 118.223V119.98C168.749 120.876 168.022 121.602 167.125 121.602C166.676 121.602 166.269 121.421 165.976 121.127C165.682 120.833 165.5 120.428 165.5 119.98V118.223H168.749Z" fill="#5D7BAA"/>
</g>
<defs>
<clipPath id="clip0_671_2268">
<rect width="362" height="283" fill="white"/>
</clipPath>
</defs>
</svg>
