<svg width="71" height="71" viewBox="0 0 71 71" fill="none" xmlns="http://www.w3.org/2000/svg">
<path fill-rule="evenodd" clip-rule="evenodd" d="M5.28951 67.0005H1.76317C0.793426 67.0005 0 67.7939 0 68.7636C0 69.7334 0.793426 70.5268 1.76317 70.5268H61.7109C62.6807 70.5268 63.4741 69.7334 63.4741 68.7636C63.4741 67.7939 62.6807 67.0005 61.7109 67.0005H58.1846V59.9478H59.9478V61.7109C59.9478 62.6807 60.7412 63.4741 61.7109 63.4741H68.7636C69.7334 63.4741 70.5268 62.6807 70.5268 61.7109V47.6056C70.5268 46.6358 69.7334 45.8424 68.7636 45.8424H61.7109C60.7412 45.8424 59.9478 46.6358 59.9478 47.6056V49.3688H58.1846V40.5529C58.1846 39.5832 57.3912 38.7897 56.4214 38.7897H7.05268C6.08294 38.7897 5.28951 39.5832 5.28951 40.5529V67.0005ZM28.2107 67.0005V47.6056C28.2107 46.6358 27.4173 45.8424 26.4475 45.8424H12.3422C11.3724 45.8424 10.579 46.6358 10.579 47.6056V67.0005H14.1054V49.3688H24.6844V67.0005H28.2107ZM52.8951 47.6056C52.8951 46.6358 52.1017 45.8424 51.1319 45.8424H33.5002C32.5305 45.8424 31.7371 46.6358 31.7371 47.6056V61.7109C31.7371 62.6807 32.5305 63.4741 33.5002 63.4741H51.1319C52.1017 63.4741 52.8951 62.6807 52.8951 61.7109V47.6056ZM40.5529 49.3688V59.9478H35.2634V49.3688H40.5529ZM44.0792 49.3688H49.3688V59.9478H44.0792V49.3688ZM17.6317 54.6583C18.6014 54.6583 19.3949 55.4517 19.3949 56.4214C19.3949 57.3912 18.6014 58.1846 17.6317 58.1846C16.662 58.1846 15.8685 57.3912 15.8685 56.4214C15.8685 55.4517 16.662 54.6583 17.6317 54.6583ZM58.1846 52.8951V56.4214H59.9478V52.8951H58.1846ZM22.4099 24.6844H7.05268C6.08294 24.6844 5.28951 25.4778 5.28951 26.4475V28.5986C4.7253 28.9689 2.69765 30.3265 1.41054 31.6842C0.528951 32.6186 0 33.606 0 34.3818C0 35.0695 0.246844 35.5808 0.617109 35.9687C0.987375 36.3566 1.48106 36.6387 2.15107 36.815C2.8387 36.9913 3.80845 37.0266 4.93688 37.0266H12.3598V29.9739H15.8862V37.0266H24.702V29.9739H28.2283V37.0266H35.281V29.9739H38.8074V37.0266H47.6232V29.9739H51.1496V37.0266H58.5725C59.6833 37.0266 60.653 36.9913 61.3583 36.815C62.0107 36.6387 62.522 36.3566 62.8923 35.9687C63.2625 35.5808 63.5094 35.0695 63.5094 34.3818C63.5094 33.606 62.9981 32.6186 62.0988 31.6842C60.8117 30.3265 58.7841 28.9689 58.2199 28.5986V26.4475C58.2199 25.4778 57.4264 24.6844 56.4567 24.6844H41.0995C44.0264 22.0925 45.8777 18.3193 45.8777 14.1054C45.8777 6.31215 39.5655 0 31.7723 0C23.9791 0 17.667 6.31215 17.667 14.1054C17.667 18.3193 19.5183 22.0925 22.4452 24.6844H22.4099ZM38.0492 7.29952C35.3692 4.26687 30.2384 4.6724 26.6768 8.71006C23.2738 12.5538 22.8859 18.0372 25.4249 20.9112C28.1049 23.9438 33.2358 23.5383 36.7974 19.5007C40.2003 15.6569 40.5882 10.1735 38.0492 7.29952ZM36.1979 11.7251V12.0601C36.2155 13.7527 35.4926 15.6393 34.1526 17.1556C33.0771 18.3722 31.8076 19.1304 30.5734 19.3243C30.1855 19.3949 29.8152 19.3949 29.4626 19.3243L36.1979 11.7074V11.7251ZM27.2762 16.4856C27.2762 16.3798 27.2762 16.2564 27.2762 16.1506C27.2762 14.458 27.9815 12.5714 29.3215 11.0551C30.397 9.83849 31.6665 9.08033 32.9007 8.88638C33.2886 8.81585 33.6589 8.81585 34.0115 8.88638L27.2762 16.5033V16.4856Z" fill="#455E86"/>
</svg>
