<svg width="73" height="73" viewBox="0 0 73 73" fill="none" xmlns="http://www.w3.org/2000/svg">
<path d="M19.2324 44.6894L19.2324 36.0632C19.2324 34.8917 20.1821 33.942 21.3536 33.942L27.7879 33.942C28.9185 33.942 29.8384 33.0221 29.8384 31.8915C29.8384 30.7609 28.9185 29.841 27.7879 29.841L21.3536 29.841C20.1821 29.841 19.2324 28.8913 19.2324 27.7198C19.2324 26.5484 20.1821 25.5987 21.3536 25.5987L27.7879 25.5987C31.2577 25.5987 34.0807 28.4215 34.0807 31.8915C34.0807 35.3615 31.2577 38.1844 27.7879 38.1844L23.4748 38.1844L23.4748 42.5682L31.9596 42.5682C33.131 42.5682 34.0807 43.5179 34.0807 44.6894C34.0807 45.8608 33.131 46.8105 31.9596 46.8105L21.3536 46.8105C20.1821 46.8105 19.2324 45.8608 19.2324 44.6894Z" fill="#455E86"/>
<path d="M42.5587 46.8115H51.0505C52.222 46.8115 53.1717 45.8618 53.1717 44.6903V36.347C53.1717 35.1755 52.222 34.2258 51.0505 34.2258H46.8081C45.6367 34.2258 44.687 35.1755 44.687 36.347C44.687 37.5184 45.6367 38.4682 46.8081 38.4682H48.9293V42.5691H42.5587C41.3891 42.5691 40.4375 41.6176 40.4375 40.4479V31.9632C40.4375 30.7936 41.3891 29.842 42.5587 29.842H51.0505C52.222 29.842 53.1717 28.8923 53.1717 27.7208C53.1717 26.5493 52.222 25.5996 51.0505 25.5996H42.5587C39.0498 25.5996 36.1951 28.4543 36.1951 31.9632V40.4479C36.1951 43.9568 39.0498 46.8115 42.5587 46.8115Z" fill="#455E86"/>
<path d="M3.6873 7.18344C7.58308 3.26363 13.9099 3.26334 17.8059 7.18344C18.6307 8.01311 19.9737 8.01976 20.8059 7.19264C21.6367 6.36693 21.6409 5.02379 20.8151 4.19285C15.259 -1.39748 6.23443 -1.39776 0.678181 4.19285C-0.147669 5.02379 -0.143426 6.36693 0.687373 7.19264C1.51845 8.01849 2.86145 8.01453 3.6873 7.18344Z" fill="#455E86"/>
<path d="M9.397 12.9287C10.1444 12.1763 11.3495 12.1762 12.0971 12.9287C12.9219 13.7583 14.2647 13.7651 15.0969 12.938C15.9279 12.1121 15.9321 10.7692 15.1063 9.93821C12.6986 7.51553 8.79571 7.51525 6.38788 9.93821C5.56203 10.7692 5.56627 12.1123 6.39721 12.938C7.22801 13.7637 8.57101 13.7597 9.397 12.9287Z" fill="#455E86"/>
<path d="M12.8684 46.9533V29.5991C15.3403 28.6998 17.1108 26.3283 17.1108 23.5495C17.1108 20.0015 14.2246 17.1152 10.6765 17.1152C7.12848 17.1152 4.24225 20.0015 4.24225 23.5495C4.24225 26.3806 6.08061 28.7888 8.62604 29.6472V46.9533H12.8684Z" fill="#455E86"/>
<path d="M54.6589 7.18344C58.5547 3.26363 64.8815 3.26334 68.7776 7.18344C69.6023 8.01311 70.9453 8.01976 71.7775 7.19264C72.6083 6.36693 72.6125 5.02379 71.7867 4.19285C66.2306 -1.39748 57.206 -1.39776 51.6498 4.19285C50.8239 5.02379 50.8282 6.36693 51.659 7.19264C52.4902 8.01849 53.8332 8.01453 54.6589 7.18344Z" fill="#455E86"/>
<path d="M60.367 12.9287C61.1143 12.1763 62.3195 12.1762 63.0671 12.9287C63.8918 13.7583 65.2347 13.7651 66.0669 12.938C66.8978 12.1121 66.9021 10.7692 66.0762 9.93821C63.6685 7.51553 59.7657 7.51525 57.3579 9.93821C56.532 10.7692 56.5362 12.1123 57.3672 12.938C58.1981 13.7637 59.5413 13.7597 60.367 12.9287Z" fill="#455E86"/>
<path d="M63.7766 46.9533V29.6204C66.281 28.7394 68.0812 26.3509 68.0812 23.5495C68.0812 20.0015 65.195 17.1152 61.6469 17.1152C58.0989 17.1152 55.2126 20.0015 55.2126 23.5495C55.2126 26.358 57.0213 28.7493 59.5342 29.626V46.9533H63.7766Z" fill="#455E86"/>
<path d="M66.0397 51.1953H6.36357C2.8547 51.1953 0 54.05 0 57.5589V66.0436C0 69.5525 2.8547 72.4072 6.36357 72.4072H66.0397C69.5486 72.4072 72.4033 69.5525 72.4033 66.0436V57.5589C72.4033 54.05 69.5486 51.1953 66.0397 51.1953ZM10.7474 63.781C9.5759 63.781 8.62617 62.8313 8.62617 61.6598C8.62617 60.4884 9.5759 59.5387 10.7474 59.5387C11.9188 59.5387 12.8685 60.4884 12.8685 61.6598C12.8685 62.8313 11.9188 63.781 10.7474 63.781ZM19.2321 63.781C18.0607 63.781 17.1109 62.8313 17.1109 61.6598C17.1109 60.4884 18.0607 59.5387 19.2321 59.5387C20.4036 59.5387 21.3533 60.4884 21.3533 61.6598C21.3533 62.8313 20.4036 63.781 19.2321 63.781ZM53.1712 63.781C51.9997 63.781 51.05 62.8313 51.05 61.6598C51.05 60.4884 51.9997 59.5387 53.1712 59.5387C54.3426 59.5387 55.2923 60.4884 55.2923 61.6598C55.2923 62.8313 54.3426 63.781 53.1712 63.781ZM61.6559 63.781C60.4844 63.781 59.5347 62.8313 59.5347 61.6598C59.5347 60.4884 60.4844 59.5387 61.6559 59.5387C62.8274 59.5387 63.7771 60.4884 63.7771 61.6598C63.7771 62.8313 62.8274 63.781 61.6559 63.781Z" fill="#455E86"/>
</svg>
