<svg width="82" height="82" viewBox="0 0 82 82" fill="none" xmlns="http://www.w3.org/2000/svg">
<path d="M66.4561 18.7347C66.4682 18.4573 66.4803 18.192 66.4803 17.9267C66.4803 17.1911 66.432 16.4676 66.3235 15.7802C65.2623 8.25555 58.63 2.58789 50.9002 2.58789C46.4867 2.58789 42.9294 3.46816 40.3488 5.18057C38.13 6.6035 36.6347 8.60523 35.887 11.1617C31.8956 9.3408 27.2529 9.42522 23.3096 11.4511C21.2114 12.5002 19.4026 14.0679 18.0641 16.0214C17.6058 15.9852 17.1597 15.9612 16.7496 15.9612C8.68235 15.9612 2.41174 25.0173 2.41174 32.8073C2.41174 36.2923 3.73818 39.6446 6.12581 42.2132C7.89849 44.215 10.2138 45.65 12.7582 46.3493C13.9761 46.7352 15.3267 46.9282 16.7496 46.9282H19.7523V24.6676C19.7523 20.5314 23.1167 17.167 27.2529 17.167H54.747C58.8832 17.167 62.2476 20.5314 62.2476 24.6676V46.9282H65.2744C66.4682 46.9282 67.662 46.7835 68.7955 46.482C75.1506 44.9143 79.5882 39.2829 79.5882 32.8073C79.5882 25.4394 73.8482 19.3738 66.4561 18.7347Z" fill="#F4C600"/>
<path d="M59.8431 30.8644C59.8431 30.8603 59.8409 30.8568 59.8408 30.8527V24.6654C59.8408 21.8604 57.5586 19.5781 54.7523 19.5781H27.2525C24.4474 19.5781 22.1652 21.8604 22.1652 24.6654V30.8294C22.1648 30.8418 22.1581 30.852 22.1581 30.8644C22.1581 30.8769 22.1648 30.8871 22.1652 30.8995V66.7998C22.1648 66.8121 22.1581 66.8224 22.1581 66.8348C22.1581 66.8473 22.1648 66.8575 22.1652 66.8699V74.3103C22.1652 77.1225 24.4474 79.4106 27.2525 79.4106H54.7523C57.5586 79.4106 59.8408 77.1225 59.8408 74.3103V66.8465C59.8409 66.8424 59.8431 66.8389 59.8431 66.8348C59.8431 66.8307 59.8409 66.8272 59.8408 66.8231V30.8761C59.8409 30.872 59.8431 30.8686 59.8431 30.8644ZM38.3245 24.6831H43.678C44.3445 24.6831 44.8838 25.2225 44.8838 25.889C44.8838 26.5555 44.3445 27.0949 43.678 27.0949H38.3245C37.658 27.0949 37.1186 26.5555 37.1186 25.889C37.1186 25.2225 37.658 24.6831 38.3245 24.6831ZM41.9845 74.0418H40.0167C39.3502 74.0418 38.8109 73.5025 38.8109 72.836C38.8109 72.1694 39.3502 71.6301 40.0167 71.6301H41.9845C42.6511 71.6301 43.1904 72.1694 43.1904 72.836C43.1904 73.5025 42.6511 74.0418 41.9845 74.0418ZM57.429 65.6289H24.577V32.0703H57.429V65.6289Z" fill="#435B82"/>
<path d="M37.6793 35.0909C37.2355 34.9063 36.7192 35.0079 36.3764 35.3496L32.3508 39.3688C31.8836 39.8354 31.883 40.5929 32.3496 41.0601C32.8162 41.5284 33.5731 41.5273 34.0409 41.0612L36.0254 39.0803V53.5626C36.0254 54.2231 36.5609 54.7587 37.2214 54.7587C37.882 54.7587 38.4175 54.2231 38.4175 53.5626V36.1958C38.4175 35.7123 38.1261 35.276 37.6793 35.0909Z" fill="#F4C600"/>
<path d="M47.1647 52.7892L45.1797 54.7708V40.2879C45.1797 39.6273 44.6441 39.0918 43.9836 39.0918C43.3231 39.0918 42.7875 39.6273 42.7875 40.2879V57.6546C42.7875 58.1382 43.079 58.5745 43.5251 58.7596C43.6735 58.8209 43.8288 58.8507 43.9836 58.8507C44.2943 58.8507 44.5997 58.7292 44.8287 58.5014L48.8548 54.4829C49.3221 54.0157 49.3232 53.2588 48.8566 52.791C48.3888 52.3232 47.6325 52.3226 47.1647 52.7892Z" fill="#F4C600"/>
</svg>
