<svg width="78" height="78" viewBox="0 0 78 78" fill="none" xmlns="http://www.w3.org/2000/svg">
<path d="M42.5709 56.9087C41.8648 56.2027 40.9653 55.7218 39.986 55.527C39.0066 55.3322 37.9915 55.4322 37.069 55.8143C36.1465 56.1964 35.3581 56.8435 34.8033 57.6737C34.2486 58.5039 33.9525 59.48 33.9525 60.4785C33.9525 61.477 34.2486 62.4531 34.8033 63.2834C35.3581 64.1136 36.1465 64.7607 37.069 65.1428C37.9915 65.5249 39.0066 65.6248 39.986 65.43C40.9653 65.2352 41.8648 64.7544 42.5709 64.0483C43.5168 63.1011 44.0481 61.8172 44.0481 60.4785C44.0481 59.1399 43.5168 57.8559 42.5709 56.9087ZM7.19804 27.4371C25.4977 11.7731 52.5005 11.7731 70.8 27.4371C73.6714 29.8941 77.57 25.4109 74.6825 22.9373C54.1618 5.35684 23.8367 5.35684 3.31556 22.9373C0.424071 25.4146 4.34296 29.8819 7.19804 27.4371ZM43.7445 47.1988C43.5131 45.4647 43.2857 43.5518 43.0297 41.4279C43.0235 41.3659 42.997 41.3077 42.9545 41.2622C42.9119 41.2167 42.8556 41.1865 42.7942 41.176C39.493 40.654 36.1179 40.8535 32.9012 41.7609C30.9259 42.3407 29.044 43.201 27.313 44.3154C24.0559 46.4025 27.4349 51.2844 30.5619 49.2903C32.4407 48.0821 34.56 47.2971 36.7726 46.99C38.9851 46.6828 41.2381 46.8608 43.375 47.5116C43.421 47.5252 43.4697 47.5272 43.5167 47.5173C43.5637 47.5075 43.6076 47.486 43.6442 47.455C43.6809 47.424 43.7093 47.3843 43.7268 47.3396C43.7443 47.2949 43.7504 47.2465 43.7445 47.1988ZM59.2306 31.9731C59.4087 31.8695 59.6111 31.8149 59.8171 31.8149C60.0232 31.8149 60.2255 31.8695 60.4036 31.9731C61.1631 32.3997 62.0525 32.9559 62.8411 33.3945C62.9 33.4276 62.9687 33.4388 63.0351 33.426C63.1014 33.4133 63.1611 33.3774 63.2035 33.3248C63.2459 33.2722 63.2682 33.2062 63.2666 33.1387C63.2649 33.0711 63.2393 33.0064 63.1944 32.9559C63.0768 32.8242 62.9477 32.7033 62.8087 32.5945C56.0393 27.2142 47.6471 24.2854 39 24.2854C30.3529 24.2854 21.9607 27.2142 15.1914 32.5945C12.1902 34.9825 15.9835 39.5554 18.9114 37.2282C29.0805 29.1506 43.3271 27.908 54.6376 34.2555C54.6716 34.2757 54.7096 34.288 54.749 34.2915C54.7884 34.295 54.828 34.2896 54.865 34.2758C56.3717 33.7845 57.7321 32.8016 59.2307 31.9731H59.2306Z" fill="#465F85"/>
<path d="M61.0628 35.4015C60.811 35.2472 60.5471 35.0888 60.2668 34.9264C60.2232 34.9004 60.1734 34.8867 60.1227 34.8867C60.072 34.8867 60.0222 34.9004 59.9786 34.9264C59.6983 35.0888 59.4302 35.2472 59.1785 35.4015C56.1327 37.2297 54.6097 38.1387 45.537 37.5255C45.4951 37.5223 45.4531 37.5285 45.4139 37.5434C45.3746 37.5584 45.3392 37.5819 45.3101 37.6121C45.281 37.6424 45.2589 37.6787 45.2455 37.7185C45.232 37.7583 45.2275 37.8005 45.2323 37.8422C45.3662 38.9429 45.4962 40.0435 45.6181 41.0952C47.6365 58.0994 47.9695 60.8894 59.9663 68.695C60.0129 68.725 60.0671 68.7409 60.1226 68.7409C60.178 68.7409 60.2322 68.725 60.2789 68.695C72.2756 60.8894 72.6045 58.0994 74.6229 41.0952C74.7489 40.0441 74.8789 38.9429 75.0128 37.8422C75.0176 37.8005 75.0131 37.7583 74.9996 37.7185C74.9862 37.6787 74.9641 37.6424 74.935 37.6121C74.9059 37.5819 74.8705 37.5584 74.8313 37.5434C74.792 37.5285 74.75 37.5223 74.7081 37.5255C65.6313 38.1387 64.1124 37.2291 61.0625 35.4015H61.0628ZM54.1994 52.0926C53.9975 51.8549 53.898 51.5469 53.9226 51.236C53.9472 50.9251 54.0939 50.6365 54.3307 50.4336C54.5676 50.2306 54.8751 50.1297 55.1861 50.1529C55.4972 50.1761 55.7863 50.3216 55.9904 50.5575L58.5449 53.5547C58.5693 53.5845 58.5997 53.609 58.6341 53.6266C58.6685 53.6441 58.7061 53.6544 58.7447 53.6566C58.7832 53.6589 58.8218 53.6532 58.858 53.6399C58.8943 53.6265 58.9273 53.6058 58.9551 53.579L67.5042 45.6435C67.7336 45.4302 68.0384 45.3168 68.3514 45.3282C68.6644 45.3397 68.96 45.475 69.1733 45.7044C69.3866 45.9338 69.4999 46.2385 69.4885 46.5516C69.4771 46.8646 69.3418 47.1602 69.1124 47.3735L59.4468 56.3488C59.3299 56.4574 59.1924 56.5414 59.0424 56.5956C58.8924 56.6499 58.733 56.6733 58.5738 56.6646C58.4145 56.6559 58.2586 56.6151 58.1154 56.5448C57.9723 56.4745 57.8448 56.376 57.7405 56.2553L54.1994 52.0926Z" fill="#F3C501"/>
</svg>
