<svg width="79" height="71" viewBox="0 0 79 71" fill="none" xmlns="http://www.w3.org/2000/svg">
<path d="M73.8163 49.3942H27.4548L23.7044 19.7367C25.1688 19.0819 26.1929 17.6175 26.1929 15.9268C26.1929 13.629 24.3236 11.7598 22.0258 11.7598C19.7279 11.7598 17.8588 13.629 17.8588 15.9268C17.8588 17.6175 18.8825 19.0819 20.3469 19.7367L16.5967 49.3942H4.76234C2.13105 49.3942 0 51.5253 0 54.1566V65.7648C0 68.384 2.13105 70.5271 4.76234 70.5271H73.8163C76.4474 70.5271 78.5786 68.384 78.5786 65.7648V54.1566C78.5786 51.5253 76.4474 49.3942 73.8163 49.3942ZM11.37 64.4075C8.91747 64.4075 6.91722 62.4073 6.91722 59.9547C6.91722 57.5021 8.91747 55.5018 11.37 55.5018C13.8344 55.5018 15.8228 57.5021 15.8228 59.9547C15.8228 62.4073 13.8344 64.4075 11.37 64.4075ZM22.0258 25.4396L25.0617 49.3942H18.9898L22.0258 25.4396ZM24.5974 64.4075C22.1328 64.4075 20.1327 62.4073 20.1327 59.9547C20.1327 57.5021 22.1328 55.5018 24.5974 55.5018C27.0501 55.5018 29.0502 57.5021 29.0502 59.9547C29.0502 62.4073 27.0501 64.4075 24.5974 64.4075ZM37.813 64.4075C35.3484 64.4075 33.3601 62.4073 33.3601 59.9547C33.3601 57.5021 35.3484 55.5018 37.813 55.5018C40.2655 55.5018 42.2658 57.5021 42.2658 59.9547C42.2658 62.4073 40.2655 64.4075 37.813 64.4075Z" fill="#455E86"/>
<path d="M35.9126 29.814C35.4476 30.2791 35.4476 31.0325 35.9126 31.4976C36.3777 31.9627 37.1311 31.9627 37.5962 31.4976C46.1912 22.9027 46.1917 8.94427 37.5962 0.348804C37.1311 -0.116268 36.3777 -0.116268 35.9126 0.348804C35.4476 0.813877 35.4476 1.56729 35.9126 2.03237C43.5771 9.69798 43.577 22.1485 35.9126 29.814Z" fill="#435B82"/>
<path d="M8.13043 31.4976C8.5955 31.0325 8.5955 30.2791 8.13043 29.814C0.471267 22.1543 0.471267 9.69153 8.13043 2.03237C8.5955 1.56729 8.5955 0.813877 8.13043 0.348804C7.66535 -0.116268 6.91194 -0.116268 6.44686 0.348804C-2.14069 8.93636 -2.14069 22.9095 6.44686 31.4976C6.91192 31.9627 7.66534 31.9627 8.13043 31.4976Z" fill="#435B82"/>
<path d="M31.7029 25.6046C31.2378 26.0697 31.2378 26.8231 31.7029 27.2882C32.168 27.7533 32.9214 27.7533 33.3865 27.2882C39.6596 21.0162 39.6602 10.8303 33.3865 4.55779C32.9214 4.09272 32.168 4.09272 31.7029 4.55779C31.2378 5.02286 31.2378 5.77628 31.7029 6.24135C37.0455 11.584 37.0454 20.2621 31.7029 25.6046Z" fill="#F4C600"/>
<path d="M10.6566 27.2882C11.1216 27.7533 11.8751 27.7533 12.3401 27.2882C12.8052 26.8231 12.8052 26.0697 12.3401 25.6046C7.00228 20.2656 7.00228 11.5798 12.3401 6.24135C12.8052 5.77628 12.8052 5.02286 12.3401 4.55779C11.8751 4.09272 11.1217 4.09272 10.6566 4.55779C4.38974 10.8241 4.38974 21.0213 10.6566 27.2882Z" fill="#F4C600"/>
<path d="M27.4933 23.0788C27.9584 23.5438 28.7118 23.5439 29.1769 23.0788C33.1265 19.1304 33.1276 12.7174 29.1769 8.76677C28.7118 8.3017 27.9584 8.3017 27.4933 8.76677C27.0283 9.23185 27.0283 9.98526 27.4933 10.4503C30.5123 13.4693 30.5129 18.3757 27.4933 21.3952C27.0283 21.8597 27.0283 22.6137 27.4933 23.0788Z" fill="#435B82"/>
<path d="M14.8655 23.0788C15.3306 23.5438 16.084 23.5439 16.5491 23.0788C17.0142 22.6137 17.0142 21.8603 16.5491 21.3952C13.5319 18.3781 13.5319 13.4681 16.5491 10.4503C17.0142 9.98526 17.0142 9.23126 16.5491 8.76677C16.084 8.3017 15.3306 8.3017 14.8655 8.76677C10.92 12.7129 10.92 19.1332 14.8655 23.0788Z" fill="#435B82"/>
<path d="M76.1021 16.4736C72.3756 16.4736 66.0894 14.1401 64.3153 10.3421C63.8653 9.44099 62.5973 9.44553 62.1485 10.3421C60.3746 14.1401 54.0882 16.4736 50.3617 16.4736C49.707 16.4736 49.1711 16.9975 49.1711 17.6642V24.8197C49.1711 33.2211 55.0301 40.3115 62.72 43.9643H62.7319C63.0852 44.1273 63.3978 44.1185 63.7319 43.9643H63.7439C71.4595 40.2993 77.2927 33.1987 77.2927 24.8197V17.6642C77.2927 16.9975 76.757 16.4736 76.1021 16.4736ZM62.0413 40.9163C56.648 37.8566 53.0048 33.1894 51.9094 28.058H62.0413V40.9163ZM74.9116 24.8197C74.9116 25.1054 74.8877 25.3911 74.8758 25.6768H64.4224V14.3425C67.2681 16.9737 71.6136 18.4857 74.9116 18.7953V24.8197Z" fill="#F4C600"/>
</svg>
