<svg width="78" height="78" viewBox="0 0 78 78" fill="none" xmlns="http://www.w3.org/2000/svg">
<path d="M71.1445 52.7109C68.1655 52.7109 65.6254 54.6215 64.6821 57.2812H54.8322C54.9394 56.5346 54.9961 55.772 54.9961 54.9961C54.9961 46.1754 47.8207 39 39 39C30.1793 39 23.0039 46.1754 23.0039 54.9961C23.0039 55.772 23.0606 56.5346 23.1678 57.2812H13.3179C12.3746 54.6215 9.83455 52.7109 6.85547 52.7109C3.07536 52.7109 0 55.7863 0 59.5664C0 63.3465 3.07536 66.4219 6.85547 66.4219C9.83455 66.4219 12.3746 64.5113 13.3179 61.8516H24.5493C27.121 67.2512 32.6314 70.9922 39 70.9922C45.3686 70.9922 50.879 67.2512 53.4507 61.8516H64.6821C65.6254 64.5113 68.1655 66.4219 71.1445 66.4219C74.9246 66.4219 78 63.3465 78 59.5664C78 55.7863 74.9246 52.7109 71.1445 52.7109ZM45.4639 58.2273L42.2312 61.46L39 58.2288L35.7688 61.46L32.5361 58.2273L35.7673 54.9961L32.5361 51.7649L35.7688 48.5321L39 51.7634L42.2312 48.5321L45.4639 51.7649L42.2327 54.9961L45.4639 58.2273Z" fill="#F4C600"/>
<path d="M11.4258 48.1406H19.6082C22.4372 40.1609 30.062 34.4297 39 34.4297C47.938 34.4297 55.5628 40.1609 58.3918 48.1406H66.5742C72.8736 48.1406 78 43.0143 78 36.7148C78 31.1497 74.001 26.5002 68.7238 25.4917C67.7 17.6521 60.9771 11.5781 52.8633 11.5781C52.0589 11.5781 51.1875 11.6512 50.3207 11.7899C47.3119 8.73539 43.2565 7.00781 39 7.00781C34.7435 7.00781 30.6881 8.73539 27.6793 11.7899C26.8125 11.6512 25.9411 11.5781 25.1367 11.5781C17.0229 11.5781 10.3 17.6521 9.27621 25.4917C3.99902 26.5002 0 31.1497 0 36.7148C0 43.0143 5.12637 48.1406 11.4258 48.1406Z" fill="#455E86"/>
</svg>
