<svg width="72" height="68" viewBox="0 0 72 68" fill="none" xmlns="http://www.w3.org/2000/svg">
<path fill-rule="evenodd" clip-rule="evenodd" d="M10.7224 51.7566H12.9168C14.2371 51.7566 15.5216 52.2561 16.485 53.166C16.485 53.166 16.485 53.166 16.5029 53.1838C18.9828 55.5567 25.8158 61.908 31.1146 65.5119C32.3813 66.3683 33.5588 67.0819 34.5401 67.4923C34.9861 67.6885 35.3786 67.8312 35.6997 67.8312C36.8772 67.8312 37.6801 67.7955 38.2153 67.2603C38.8219 66.6537 39.036 65.6011 39.2857 63.9954C39.3928 63.264 39.9459 62.6752 40.6773 62.5146C41.4802 62.3362 42.176 62.0865 42.5685 61.5512C42.9788 61.016 43.0323 60.231 42.8539 59.1784C42.7826 58.6967 42.9075 58.1971 43.1929 57.8046C43.4962 57.4121 43.9422 57.1624 44.4239 57.1088C45.7798 56.9661 46.9752 56.5022 47.7245 55.7886C48.2062 55.3247 48.4738 54.736 48.2597 54.0937C48.0456 53.4336 47.0822 52.4345 45.9582 51.2748C43.4427 48.6879 39.8923 45.6728 38.5899 44.6023H33.3804L32.9879 45.7977C32.1672 48.2776 29.83 49.9546 27.2253 49.9546C25.2806 49.9546 23.4608 49.0447 22.3012 47.4926C21.1415 45.9404 20.7668 43.9422 21.3021 42.0689C21.5875 41.0698 21.873 40.0529 22.1406 39.1073C22.319 38.5186 22.5509 37.9477 22.8542 37.4303H10.4191C9.70547 35.3607 7.72512 33.8799 5.4058 33.8799H1.78409C0.802842 33.8799 0 34.6828 0 35.664V60.6413C0 61.6226 0.802842 62.4254 1.78409 62.4254C2.76534 62.4254 3.56819 61.6226 3.56819 60.6413V58.8572H5.4058C8.33172 58.8572 10.7046 56.4844 10.7046 53.5585V51.7209L10.7224 51.7566ZM37.7336 59.7493L32.3813 55.2891C31.632 54.6646 30.508 54.7538 29.8657 55.521C29.2413 56.2703 29.3305 57.3943 30.0977 58.0366L35.4499 62.4968C36.1993 63.1212 37.3232 63.032 37.9655 62.2649C38.6078 61.4977 38.5007 60.3916 37.7336 59.7493ZM60.677 41.052H49.1875C48.0813 41.052 47.0109 40.606 46.2259 39.821L44.0671 37.6622C43.9422 37.5373 43.7995 37.4838 43.6211 37.4838H29.0807C27.4572 37.4838 26.0299 38.5543 25.5839 40.1243L24.7454 43.0859C24.5134 43.8709 24.674 44.7272 25.1736 45.3695C25.6731 46.0296 26.4403 46.4043 27.261 46.4043C28.3492 46.4043 29.2948 45.7085 29.6338 44.6915C30.0441 43.4427 30.4366 42.283 30.4366 42.283C30.6864 41.5515 31.3644 41.0698 32.1315 41.0698H39.2679C39.6782 41.0698 40.0707 41.2126 40.3919 41.4802C40.3919 41.4802 45.2803 45.4944 48.5452 48.8306C50.1509 50.4898 51.3462 52.0598 51.6674 53.0054C51.935 53.8083 51.9885 54.5933 51.8636 55.3604C51.7387 56.1276 60.9803 55.3604 60.9803 55.3604C61.6939 57.43 63.6743 58.9286 65.9936 58.9286H67.8312V60.7127C67.8312 61.694 68.6341 62.4968 69.6153 62.4968C70.5966 62.4968 71.3994 61.694 71.3994 60.7127V35.7354C71.3994 34.7541 70.5966 33.9513 69.6153 33.9513H65.9936C63.0677 33.9513 60.6949 36.3241 60.6949 39.2501V41.0877L60.677 41.052ZM42.1938 53.951L36.8415 49.4908C36.0922 48.8663 34.9682 48.9555 34.326 49.7227C33.7015 50.472 33.7907 51.596 34.5579 52.2383L39.9102 56.6985C40.6595 57.3229 41.7835 57.2337 42.4257 56.4666C43.0502 55.7172 42.961 54.5933 42.1938 53.951ZM22.3547 33.9156C20.642 31.3644 19.6429 28.2957 19.6429 24.9951C19.6429 16.1282 26.8328 8.93831 35.6997 8.93831C44.5667 8.93831 51.7566 16.1282 51.7566 24.9951C51.7566 29.5981 49.8119 33.755 46.7076 36.681C47.4212 37.1983 48.2954 37.4838 49.1875 37.4838H57.3229C58.5183 35.3964 58.768 33.0057 58.2863 31.0432C59.6958 29.5803 60.677 27.3858 60.677 24.9951C60.677 22.6045 59.6958 20.41 58.2863 18.9471C58.768 16.9846 58.5361 14.5939 57.3229 12.5065C56.1276 10.4191 54.1651 9.02751 52.2204 8.4566C51.6495 6.51194 50.2579 4.56728 48.1705 3.3541C46.0831 2.15875 43.6924 1.90898 41.7299 2.39069C40.267 0.981252 38.0726 0 35.6819 0C33.2912 0 31.0968 0.981252 29.6338 2.39069C27.6713 1.90898 25.2806 2.14091 23.1932 3.3541C21.1058 4.54944 19.7142 6.51194 19.1433 8.4566C17.1987 9.02751 15.254 10.4191 14.0408 12.5065C12.8455 14.5939 12.5957 16.9846 13.0774 18.9471C11.668 20.41 10.6867 22.6045 10.6867 24.9951C10.6867 27.3858 11.668 29.5803 13.0774 31.0432C12.8633 31.9353 12.792 32.9165 12.8812 33.9156H22.3012H22.3547ZM26.9755 33.9156H43.6389C43.7995 33.9156 43.9601 33.987 44.085 34.094L44.1742 34.1832C46.654 31.8996 48.2062 28.6169 48.2062 24.9951C48.2062 18.1085 42.6042 12.5065 35.7176 12.5065C28.831 12.5065 23.2289 18.1085 23.2289 24.9951C23.2289 28.492 24.674 31.6498 26.9755 33.9156ZM38.2331 19.9462L30.6686 27.5107C29.9728 28.2065 29.9728 29.3305 30.6686 30.0263C31.3644 30.7221 32.4883 30.7221 33.1841 30.0263L40.7487 22.4617C41.4445 21.7659 41.4445 20.642 40.7487 19.9462C40.0529 19.2504 38.9289 19.2504 38.2331 19.9462ZM39.2857 26.7792C40.267 26.7792 41.0698 27.5821 41.0698 28.5633C41.0698 29.5446 40.267 30.3474 39.2857 30.3474C38.3045 30.3474 37.5016 29.5446 37.5016 28.5633C37.5016 27.5821 38.3045 26.7792 39.2857 26.7792ZM32.1494 19.6429C33.1306 19.6429 33.9335 20.4457 33.9335 21.427C33.9335 22.4082 33.1306 23.2111 32.1494 23.2111C31.1681 23.2111 30.3653 22.4082 30.3653 21.427C30.3653 20.4457 31.1681 19.6429 32.1494 19.6429Z" fill="#455E86"/>
</svg>
