<svg width="72" height="77" viewBox="0 0 72 77" fill="none" xmlns="http://www.w3.org/2000/svg">
<path d="M42.9824 50.3342C42.2808 49.9126 41.5278 49.5425 40.7361 49.24L40.3145 49.0823C40.115 49.0147 39.9026 48.9407 39.6902 48.8828C39.4102 48.7991 39.1463 48.7315 38.8728 48.6704C38.6797 48.6318 38.4834 48.5867 38.2839 48.5545C37.9878 48.4966 37.6982 48.4548 37.4053 48.4194L36.9998 48.3808C36.5911 48.3454 36.176 48.3164 35.7544 48.3164C35.3328 48.3164 34.9177 48.3422 34.5058 48.3808C34.361 48.3904 34.2322 48.4065 34.1035 48.4194C33.8107 48.4548 33.521 48.4998 33.2346 48.5513C33.0254 48.5867 32.8291 48.6318 32.6296 48.6736C32.3625 48.7348 32.0954 48.7991 31.8283 48.8796C31.6094 48.9472 31.3938 49.0147 31.1782 49.0888L30.7566 49.2432C29.9778 49.5425 29.2216 49.9126 28.52 50.3342C24.2431 52.9183 21.6911 57.4173 21.6911 62.37C21.6911 70.1225 27.9987 76.4301 35.7512 76.4301C43.5037 76.4301 49.8113 70.1225 49.8113 62.37C49.8145 57.4173 47.2625 52.9183 42.9824 50.3342ZM39.9831 63.1842C39.9831 65.5109 38.0876 67.4064 35.7544 67.4064C33.4213 67.4064 31.5258 65.5109 31.5258 63.1842V61.012C31.5258 58.682 33.4213 56.7866 35.7544 56.7866C38.0876 56.7866 39.9831 58.682 39.9831 61.012V63.1842Z" fill="#F4C600"/>
<path d="M37.6175 45.4137C38.068 45.4651 38.5186 45.5327 38.9627 45.6196C39.1268 45.6486 39.2974 45.6872 39.4615 45.7258C39.8348 45.8063 40.2113 45.8996 40.5878 46.0122C40.8163 46.083 41.0352 46.157 41.254 46.2278C41.4825 46.3115 41.7045 46.3888 41.9234 46.4756C42.0972 46.5464 42.2709 46.6172 42.4415 46.688V39.6146C42.4415 36.2806 39.4422 33.5645 35.7542 33.5645C32.0662 33.5645 29.0669 36.2806 29.0669 39.6146V46.688C29.2471 46.6108 29.4177 46.54 29.585 46.4756C29.8039 46.3888 30.0323 46.3051 30.2576 46.2278C30.4764 46.1506 30.6985 46.0734 30.9238 46.0122C31.2971 45.8996 31.6704 45.8063 32.0501 45.7194L32.5393 45.6196C32.9962 45.5327 33.4468 45.4587 33.8973 45.4104L34.1998 45.3847C34.7147 45.3332 35.2329 45.3075 35.751 45.3075C36.2691 45.3075 36.7872 45.3332 37.3021 45.3847L37.6175 45.4137Z" fill="#435B82"/>
<path d="M35.7536 59.1758C34.7399 59.1758 33.9193 59.9996 33.9193 61.0133V63.1856C33.9193 64.1961 34.7431 65.0199 35.7536 65.0199C36.7641 65.0199 37.5879 64.1961 37.5879 63.1856V61.0133C37.5912 59.9996 36.7673 59.1758 35.7536 59.1758Z" fill="#F4C600"/>
<path d="M37.6812 15.0828C37.6812 17.1359 39.3514 18.8062 41.4046 18.8062C43.4578 18.8062 45.128 17.1359 45.128 15.0828C45.128 13.0296 43.4578 11.3594 41.4046 11.3594C39.3514 11.3626 37.6812 13.0296 37.6812 15.0828Z" fill="#F4C600"/>
<path d="M58.39 32.1549C57.8654 32.0583 57.4471 31.6625 57.3183 31.1444C56.4816 27.7718 54.6859 24.7306 52.1275 22.3492C50.438 20.7755 48.4845 19.6009 46.3541 18.7803C45.2213 20.2928 43.4321 21.2872 41.4014 21.2872C39.0489 21.2872 37.0215 19.9549 35.9692 18.0176C32.381 18.8253 29.0695 20.6951 26.5947 23.4176C26.3019 23.7459 25.8642 23.9132 25.4201 23.8617C24.8537 23.7909 24.2841 23.7555 23.7081 23.7555C17.0819 23.7555 11.4148 28.705 10.5233 35.2668C10.4525 35.7882 10.0921 36.2194 9.59328 36.3803C7.33415 37.1173 5.28741 38.4303 3.67834 40.1809C1.30657 42.7522 0 46.0959 0 49.5972C0 57.2596 6.23676 63.4932 13.9024 63.4932H18.7586C18.7328 63.1199 18.6878 62.7465 18.6878 62.37C18.6878 56.7608 21.436 51.541 26.0605 48.3389V39.6178C26.0605 34.6264 30.4082 30.5619 35.7536 30.5619C41.0989 30.5619 45.4466 34.6232 45.4466 39.6178V48.3389C50.0679 51.541 52.8194 56.7608 52.8194 62.37C52.8194 62.7562 52.7325 63.1166 52.7067 63.4932H55.4229C64.1408 63.4932 71.2368 56.4004 71.2368 47.6824C71.2368 40.1005 65.8336 33.5676 58.39 32.1549Z" fill="#435B82"/>
<path d="M26.3366 15.6048C27.0768 15.7174 27.7751 15.1961 27.8813 14.4462C28.8371 7.7686 34.6523 2.7322 41.4039 2.7322C48.1556 2.7322 53.9708 7.7686 54.9266 14.4462C55.0263 15.1253 55.6088 15.6209 56.2782 15.6209C56.3426 15.6209 56.4069 15.6144 56.4745 15.6048C57.2211 15.4986 57.7392 14.8067 57.633 14.0601C56.4874 6.04689 49.5104 0 41.4072 0C33.3039 0 26.3269 6.04689 25.1781 14.0601C25.0686 14.8067 25.59 15.4986 26.3366 15.6048Z" fill="#F4C600"/>
<path d="M49.9325 14.5437C50.0708 15.1808 50.6372 15.6217 51.268 15.6217C51.3645 15.6217 51.4611 15.6121 51.5576 15.5896C52.2946 15.4319 52.7644 14.7046 52.6035 13.9644C51.474 8.73491 46.7626 4.9375 41.4044 4.9375C36.043 4.9375 31.3348 8.73491 30.2052 13.9676C30.0476 14.7046 30.5142 15.4319 31.2511 15.5896C32.001 15.7633 32.7154 15.2806 32.8763 14.5437C33.7355 10.5628 37.3206 7.67292 41.4044 7.67292C45.485 7.6697 49.0732 10.5596 49.9325 14.5437Z" fill="#F4C600"/>
</svg>
