<svg width="78" height="78" viewBox="0 0 78 78" fill="none" xmlns="http://www.w3.org/2000/svg">
<path fill-rule="evenodd" clip-rule="evenodd" d="M24.9404 2C27.3925 2 29.3804 3.98786 29.3804 6.44V20.8878L21.4367 24.5047C19.0636 25.5851 17.5404 27.9524 17.5404 30.5599V34.7336C17.5404 44.6846 21.9797 53.9496 29.3804 60.1799V71.56C29.3804 74.0124 27.3925 76 24.9404 76H13.8404C11.3883 76 9.40039 74.0124 9.40039 71.56V6.44C9.40039 3.98786 11.3883 2 13.8404 2H24.9404ZM22.3504 18.65C22.3504 20.2847 21.0251 21.61 19.3904 21.61C17.7557 21.61 16.4304 20.2847 16.4304 18.65C16.4304 17.0153 17.7557 15.69 19.3904 15.69C21.0251 15.69 22.3504 17.0153 22.3504 18.65ZM22.3504 58.61C22.3504 60.2447 21.0251 61.57 19.3904 61.57C17.7557 61.57 16.4304 60.2447 16.4304 58.61C16.4304 56.9753 17.7557 55.65 19.3904 55.65C21.0251 55.65 22.3504 56.9753 22.3504 58.61Z" fill="#465F86"/>
<path fill-rule="evenodd" clip-rule="evenodd" d="M22.6629 27.2L37.4668 20.4596C38.4409 20.0161 39.5591 20.0161 40.5332 20.4596L55.3371 27.2C56.5721 27.7623 57.3925 28.9524 57.4902 30.2916C57.4967 30.381 57.5 30.4709 57.5 30.5614V34.7351C57.5 42.9106 54.2108 50.5778 48.62 56.1673C47.6949 57.0922 46.7067 57.9603 45.66 58.7643C44.0158 60.0274 42.2271 61.1325 40.3112 62.0521C39.4823 62.4499 38.5177 62.4499 37.6888 62.0521C35.7729 61.1325 33.9842 60.0274 32.34 58.7643C31.2933 57.9603 30.3051 57.0923 29.38 56.1674C23.7892 50.5778 20.5 42.9106 20.5 34.7351V30.5614C20.5 30.4709 20.5033 30.381 20.5098 30.2916C20.6075 28.9524 21.4279 27.7623 22.6629 27.2ZM45.2048 35.7136C45.7945 36.2795 45.8138 37.2164 45.2479 37.8062L38.0183 45.3401C37.0926 46.3049 35.5302 46.2383 34.6898 45.1984L31.9289 41.7816C31.4151 41.1459 31.514 40.214 32.1498 39.7003C32.7856 39.1866 33.7174 39.2855 34.2311 39.9213L36.4642 42.6846L43.1121 35.7567C43.6781 35.1669 44.615 35.1476 45.2048 35.7136Z" fill="#F4C600"/>
<path d="M32.3398 68.6003V62.4023C33.6281 63.2616 34.986 64.037 36.4078 64.7194C38.0463 65.506 39.9534 65.506 41.5919 64.7194C43.0137 64.037 44.3716 63.2616 45.6598 62.4023V68.6003H32.3398Z" fill="#465F86"/>
<path fill-rule="evenodd" clip-rule="evenodd" d="M48.6191 71.56V60.1799C56.0198 53.9496 60.4591 44.6846 60.4591 34.7336V30.5599C60.4591 27.9524 58.9359 25.5852 56.5628 24.5047L48.6191 20.8878V6.44C48.6191 3.98786 50.607 2 53.0591 2H64.1591C66.6113 2 68.5991 3.98786 68.5991 6.44V71.56C68.5991 74.0124 66.6113 76 64.1591 76H53.0591C50.607 76 48.6191 74.0124 48.6191 71.56ZM58.6091 61.57C60.2439 61.57 61.5691 60.2447 61.5691 58.61C61.5691 56.9753 60.2439 55.65 58.6091 55.65C56.9744 55.65 55.6491 56.9753 55.6491 58.61C55.6491 60.2447 56.9744 61.57 58.6091 61.57ZM61.5691 18.65C61.5691 20.2847 60.2439 21.61 58.6091 21.61C56.9744 21.61 55.6491 20.2847 55.6491 18.65C55.6491 17.0153 56.9744 15.69 58.6091 15.69C60.2439 15.69 61.5691 17.0153 61.5691 18.65Z" fill="#465F86"/>
<path d="M41.7597 17.7646L45.6598 19.5404V9.40039H32.3398V19.5404L36.24 17.7646C37.9933 16.9663 40.0064 16.9663 41.7597 17.7646Z" fill="#465F86"/>
<path d="M2 13.8404C2 11.3883 3.98786 9.40039 6.44 9.40039V29.3804C3.98786 29.3804 2 27.3925 2 24.9404V13.8404Z" fill="#465F86"/>
<path d="M6.44 48.6191C3.98786 48.6191 2 50.607 2 53.0591V64.1591C2 66.6113 3.98786 68.5991 6.44 68.5991V48.6191Z" fill="#465F86"/>
<path d="M71.5605 68.5991C74.0129 68.5991 76.0005 66.6113 76.0005 64.1591V53.0591C76.0005 50.607 74.0129 48.6191 71.5605 48.6191V68.5991Z" fill="#465F86"/>
<path d="M71.5605 29.3804V9.40039C74.0129 9.40039 76.0005 11.3883 76.0005 13.8404V24.9404C76.0005 27.3925 74.0129 29.3804 71.5605 29.3804Z" fill="#465F86"/>
</svg>
