<svg width="79" height="77" viewBox="0 0 79 77" fill="none" xmlns="http://www.w3.org/2000/svg">
<path d="M7.40625 16.8438C8.76961 16.8438 9.875 15.7675 9.875 14.4375V13.0276L20.4733 23.3575C20.9554 23.8275 21.5871 24.0625 22.2188 24.0625C22.8504 24.0625 23.4821 23.8275 23.9642 23.3575C24.9286 22.4176 24.9286 20.8949 23.9642 19.955L13.366 9.625H14.8125C16.1759 9.625 17.2812 8.54877 17.2812 7.21875C17.2812 5.88873 16.1759 4.8125 14.8125 4.8125H7.40625C6.04289 4.8125 4.9375 5.88873 4.9375 7.21875V14.4375C4.9375 15.7675 6.04289 16.8438 7.40625 16.8438Z" fill="#F4C600"/>
<path d="M14.8125 67.375H13.366L23.9642 57.045C24.9286 56.1051 24.9286 54.5824 23.9642 53.6425C22.9999 52.7025 21.4376 52.7025 20.4733 53.6425L9.875 63.9724V62.5625C9.875 61.2325 8.76961 60.1562 7.40625 60.1562C6.04289 60.1562 4.9375 61.2325 4.9375 62.5625V69.7812C4.9375 71.1113 6.04289 72.1875 7.40625 72.1875H14.8125C16.1759 72.1875 17.2812 71.1113 17.2812 69.7812C17.2812 68.4512 16.1759 67.375 14.8125 67.375Z" fill="#F4C600"/>
<path d="M71.5938 60.1562C70.2304 60.1562 69.125 61.2325 69.125 62.5625V63.9724L58.5267 53.6425C57.5624 52.7025 56.0001 52.7025 55.0358 53.6425C54.0714 54.5824 54.0714 56.1051 55.0358 57.045L65.634 67.375H64.1875C62.8241 67.375 61.7188 68.4512 61.7188 69.7812C61.7188 71.1113 62.8241 72.1875 64.1875 72.1875H71.5938C72.9571 72.1875 74.0625 71.1113 74.0625 69.7812V62.5625C74.0625 61.2325 72.9571 60.1562 71.5938 60.1562Z" fill="#F4C600"/>
<path d="M71.5938 4.8125H64.1875C62.8241 4.8125 61.7188 5.88873 61.7188 7.21875C61.7188 8.54877 62.8241 9.625 64.1875 9.625H65.634L55.0358 19.955C54.0714 20.8949 54.0714 22.4176 55.0358 23.3575C55.5179 23.8275 56.1496 24.0625 56.7812 24.0625C57.4129 24.0625 58.0446 23.8275 58.5267 23.3575L69.125 13.0276V14.4375C69.125 15.7675 70.2304 16.8438 71.5938 16.8438C72.9571 16.8438 74.0625 15.7675 74.0625 14.4375V7.21875C74.0625 5.88873 72.9571 4.8125 71.5938 4.8125Z" fill="#F4C600"/>
<path d="M41.9688 63.2319V52.9375H37.0312V63.2319C35.5626 64.067 34.5625 65.6022 34.5625 67.375C34.5625 70.028 36.7769 72.1875 39.5 72.1875C42.2231 72.1875 44.4375 70.028 44.4375 67.375C44.4375 65.6022 43.4374 64.067 41.9688 63.2319Z" fill="#F4C600"/>
<path d="M32.0938 50.9609C31.3034 51.4136 30.472 51.7622 29.625 52.0617V54.3471L25.4108 58.4546C24.9479 58.9058 24.6875 59.5168 24.6875 60.1559V63.2316C23.2188 64.0667 22.2188 65.6018 22.2188 67.3747C22.2188 70.0276 24.4332 72.1872 27.1562 72.1872C29.8793 72.1872 32.0938 70.0276 32.0938 67.3747C32.0938 65.6018 31.0937 64.0667 29.625 63.2316V61.1523L33.8392 57.0447C34.3021 56.5935 34.5625 55.9826 34.5625 55.3434V52.0617C33.7155 51.7622 32.8841 51.4136 32.0938 50.9609Z" fill="#465F86"/>
<path d="M54.3125 63.2316V60.1559C54.3125 59.5168 54.0521 58.9058 53.5892 58.4546L49.375 54.3471V52.0617C48.528 51.7622 47.6966 51.4136 46.9062 50.9609C46.1159 51.4136 45.2845 51.7622 44.4375 52.0617V55.3434C44.4375 55.9826 44.6979 56.5935 45.1608 57.0447L49.375 61.1523V63.2316C47.9063 64.0667 46.9062 65.6018 46.9062 67.3747C46.9062 70.0276 49.1207 72.1872 51.8438 72.1872C54.5668 72.1872 56.7812 70.0276 56.7812 67.3747C56.7812 65.6018 55.7812 64.0667 54.3125 63.2316Z" fill="#465F86"/>
<path d="M12.3438 38.5C12.3438 45.1447 17.8703 50.5312 24.6875 50.5312C27.4795 50.5312 30.0258 49.5938 32.0938 48.0705C34.1617 49.5938 36.708 50.5312 39.5 50.5312C42.292 50.5312 44.8383 49.5938 46.9062 48.0705C48.9742 49.5938 51.5205 50.5312 54.3125 50.5312C61.1297 50.5312 66.6562 45.1447 66.6562 38.5C66.6562 31.8553 61.1297 26.4688 54.3125 26.4688C54.028 26.4688 53.7619 26.5318 53.4823 26.5503C51.4707 20.9037 45.9782 16.8438 39.5 16.8438C33.0218 16.8438 27.5293 20.9037 25.5177 26.5503C25.2381 26.5318 24.972 26.4688 24.6875 26.4688C17.8703 26.4688 12.3438 31.8553 12.3438 38.5Z" fill="#465F86"/>
</svg>
