<svg width="76" height="77" viewBox="0 0 76 77" fill="none" xmlns="http://www.w3.org/2000/svg">
<path fill-rule="evenodd" clip-rule="evenodd" d="M49.3285 26.6285V22.8929C49.3285 13.793 42.0474 6.41602 33.0655 6.41602C24.0839 6.41602 16.8027 13.793 16.8027 22.8929V26.6291C16.8027 27.2467 16.4478 27.8014 15.9221 28.114C12.4081 30.2033 10.0488 34.0715 10.0488 38.4977V54.9658C10.0488 61.6103 15.3654 66.997 21.9238 66.997H34.7552C35.6473 66.997 36.3648 66.2498 36.3886 65.346C36.4013 64.8645 36.4212 64.3826 36.4412 63.9013C36.4529 63.6241 36.4643 63.3469 36.4744 63.0704C36.4877 62.7017 36.3715 62.3405 36.1495 62.0482L34.0899 59.3362C30.4266 54.5125 32.6864 47.466 38.4488 45.745L41.688 44.7774C42.0373 44.6731 42.3407 44.4498 42.5465 44.1457L44.4557 41.3233C46.8098 37.8429 51.0465 36.7752 54.5554 38.1201C55.2496 38.3861 56.0925 37.9093 56.0112 37.1621C55.59 33.3006 53.3654 29.9897 50.2092 28.1135C49.6835 27.8009 49.3285 27.2462 49.3285 26.6285ZM33.0655 11.2285C26.7072 11.2285 21.5527 16.4508 21.5527 22.8929V26.0963C21.5527 26.302 21.7207 26.4665 21.9238 26.4665H44.2084C44.411 26.4665 44.5785 26.3025 44.5785 26.0972V22.8929C44.5785 16.4508 39.4242 11.2285 33.0655 11.2285Z" fill="#465F85"/>
<path d="M54.6431 44.0446C53.1336 41.8132 49.8833 41.8132 48.3741 44.0446L45.9557 47.6197C45.4614 48.3502 44.734 48.8857 43.8955 49.1363L39.7921 50.3615C37.2312 51.1264 36.2267 54.2584 37.855 56.4022L40.4637 59.8373C40.9967 60.5393 41.2747 61.4059 41.2507 62.2911L41.1329 66.6236C41.0594 69.3279 43.689 71.2635 46.2046 70.3571L50.2354 68.9047C51.0588 68.608 51.9581 68.608 52.7818 68.9047L56.8126 70.3571C59.3282 71.2635 61.9575 69.3279 61.8843 66.6236L61.7665 62.2911C61.7425 61.4059 62.0205 60.5393 62.5535 59.8373L65.1622 56.4022C66.7905 54.2584 65.786 51.1264 63.2251 50.3615L59.1214 49.1363C58.2832 48.8857 57.5555 48.3502 57.0615 47.6197L54.6431 44.0446Z" fill="#F3C500"/>
</svg>
