<svg width="72" height="72" viewBox="0 0 72 72" fill="none" xmlns="http://www.w3.org/2000/svg">
<path d="M44.6064 14.535H51.9898V26.8257H44.6064V14.535Z" fill="#F4C600"/>
<path d="M34.9727 14.535H42.356V26.8257H34.9727V14.535Z" fill="#455E86"/>
<path d="M44.5938 46.6875H51.9963V57.465H44.5938V46.6875Z" fill="#455E86"/>
<path d="M16.3653 28.6189C14.0334 28.6187 11.7538 29.31 9.81475 30.6054C7.87572 31.9008 6.3644 33.7422 5.4719 35.8965C4.5794 38.0509 4.34583 40.4216 4.80071 42.7087C5.25559 44.9959 6.37851 47.0968 8.02743 48.7457C9.67636 50.3946 11.7772 51.5175 14.0644 51.9724C16.3515 52.4273 18.7222 52.1937 20.8766 51.3012C23.031 50.4087 24.8723 48.8974 26.1677 46.9584C27.4631 45.0193 28.1544 42.7397 28.1542 40.4078C28.1503 37.2824 26.9071 34.2861 24.6971 32.0761C22.4871 29.866 19.4908 28.6228 16.3653 28.6189ZM16.3653 39.2828C17.5769 39.2809 18.7469 39.725 19.652 40.5304C20.5572 41.3358 21.1343 42.4462 21.2734 43.6498C21.4124 44.8533 21.1037 46.066 20.406 47.0566C19.7083 48.0471 18.6705 48.7463 17.4903 49.0208V50.2459C17.4903 50.5443 17.3718 50.8304 17.1608 51.0414C16.9499 51.2524 16.6637 51.3709 16.3653 51.3709C16.067 51.3709 15.7808 51.2524 15.5699 51.0414C15.3589 50.8304 15.2403 50.5443 15.2403 50.2459V49.0208C14.1571 48.7674 13.191 48.1558 12.4987 47.285C11.8063 46.4142 11.4282 45.3352 11.4255 44.2226C11.4255 43.9243 11.544 43.6381 11.755 43.4272C11.966 43.2162 12.2521 43.0976 12.5505 43.0976C12.8488 43.0976 13.135 43.2162 13.346 43.4272C13.5569 43.6381 13.6755 43.9243 13.6755 44.2226C13.6767 44.9352 13.9602 45.6182 14.4639 46.1222C14.9676 46.6261 15.6506 46.9099 16.3631 46.9114C17.0668 46.897 17.7369 46.6073 18.2295 46.1046C18.7221 45.6018 18.998 44.926 18.998 44.2221C18.998 43.5182 18.7221 42.8424 18.2295 42.3396C17.7369 41.8368 17.0668 41.5472 16.3631 41.5328C15.1518 41.5346 13.9821 41.0907 13.0771 40.2855C12.1722 39.4803 11.5951 38.3702 11.4561 37.1669C11.317 35.9636 11.6257 34.7512 12.3232 33.7608C13.0207 32.7705 14.0583 32.0715 15.2381 31.797V30.573C15.2381 30.2747 15.3566 29.9885 15.5676 29.7775C15.7786 29.5665 16.0647 29.448 16.3631 29.448C16.6615 29.448 16.9476 29.5665 17.1586 29.7775C17.3696 29.9885 17.4881 30.2747 17.4881 30.573V31.797C18.5711 32.0504 19.5368 32.6619 20.229 33.5325C20.9211 34.4031 21.2992 35.4818 21.3018 36.594C21.3018 36.8924 21.1833 37.1785 20.9723 37.3895C20.7614 37.6005 20.4752 37.719 20.1768 37.719C19.8785 37.719 19.5923 37.6005 19.3814 37.3895C19.1704 37.1785 19.0518 36.8924 19.0518 36.594C19.0521 36.0619 18.8945 35.5417 18.599 35.0992C18.3035 34.6567 17.8834 34.3117 17.3919 34.108C16.9003 33.9043 16.3594 33.8509 15.8375 33.9547C15.3156 34.0584 14.8362 34.3146 14.4599 34.6909C14.0837 35.0671 13.8275 35.5465 13.7237 36.0684C13.62 36.5903 13.6733 37.1312 13.8771 37.6228C14.0808 38.1143 14.4257 38.5344 14.8683 38.8299C15.3108 39.1254 15.831 39.283 16.3631 39.2828H16.3653Z" fill="#F4C600"/>
<path d="M59.4596 16.065C59.4575 15.6579 59.2941 15.2683 59.0052 14.9815C58.7163 14.6947 58.3254 14.5341 57.9183 14.535H54.2407V26.8257H59.4596V16.065Z" fill="#455E86"/>
<path d="M57.9186 57.465C58.3272 57.4644 58.7188 57.3018 59.0078 57.0129C59.2967 56.724 59.4592 56.3323 59.4598 55.9237V46.6875H54.2466V57.465H57.9186Z" fill="#F4C600"/>
<path d="M20.4669 67.5H64.8369C65.5212 67.5 66.1776 67.2289 66.6626 66.7461C67.1475 66.2633 67.4214 65.608 67.4244 64.9237V14.5238L57.3961 4.5H20.4669C19.7826 4.49999 19.1261 4.77106 18.6412 5.25388C18.1563 5.7367 17.8824 6.39195 17.8794 7.07625V26.4533C19.9035 26.6753 21.8543 27.3385 23.5944 28.3961V16.065C23.5968 15.0613 23.9973 14.0995 24.7081 13.3908C25.4189 12.6821 26.3819 12.2844 27.3856 12.285H57.9181C58.9218 12.2847 59.8846 12.6825 60.5953 13.3911C61.3061 14.0998 61.7067 15.0614 61.7094 16.065V55.9237C61.7082 56.9289 61.3084 57.8925 60.5976 58.6033C59.8869 59.314 58.9233 59.7138 57.9181 59.715H53.1448C53.1369 59.715 53.1301 59.715 53.1211 59.715C53.1121 59.715 53.1054 59.715 53.0964 59.715H43.4923C43.4844 59.715 43.4765 59.715 43.4686 59.715C43.4608 59.715 43.4529 59.715 43.4439 59.715H33.8679C33.8589 59.715 33.8521 59.715 33.8431 59.715C33.8341 59.715 33.8274 59.715 33.8184 59.715H27.3856C26.3804 59.7141 25.4166 59.3144 24.7058 58.6036C23.995 57.8928 23.5953 56.929 23.5944 55.9237V52.425C21.8545 53.4828 19.9036 54.1456 17.8794 54.3667V64.9237C17.8824 65.608 18.1563 66.2633 18.6412 66.7461C19.1261 67.2289 19.7826 67.5 20.4669 67.5ZM35.3169 62.928H49.6921C49.9905 62.928 50.2767 63.0465 50.4876 63.2575C50.6986 63.4685 50.8171 63.7546 50.8171 64.053C50.8171 64.3514 50.6986 64.6375 50.4876 64.8485C50.2767 65.0595 49.9905 65.178 49.6921 65.178H35.3248C35.0264 65.178 34.7403 65.0595 34.5293 64.8485C34.3183 64.6375 34.1998 64.3514 34.1998 64.053C34.1998 63.7546 34.3183 63.4685 34.5293 63.2575C34.7403 63.0465 35.0264 62.928 35.3248 62.928H35.3169ZM28.6794 62.928H29.8786C30.177 62.928 30.4632 63.0465 30.6741 63.2575C30.8851 63.4685 31.0036 63.7546 31.0036 64.053C31.0036 64.3514 30.8851 64.6375 30.6741 64.8485C30.4632 65.0595 30.177 65.178 29.8786 65.178H28.6794C28.381 65.178 28.0949 65.0595 27.8839 64.8485C27.6729 64.6375 27.5544 64.3514 27.5544 64.053C27.5544 63.7546 27.6729 63.4685 27.8839 63.2575C28.0949 63.0465 28.381 62.928 28.6794 62.928Z" fill="#455E86"/>
<path d="M34.9683 46.6875H42.3438V57.465H34.9683V46.6875Z" fill="#455E86"/>
<path d="M25.8447 50.7375V55.9237C25.845 56.3324 26.0075 56.7243 26.2965 57.0133C26.5855 57.3022 26.9773 57.4647 27.386 57.465H32.7185V46.6875H28.9047C28.1379 48.2114 27.1011 49.5835 25.8447 50.7375Z" fill="#455E86"/>
<path d="M32.723 14.535H27.386C26.9788 14.5338 26.5878 14.6943 26.2988 14.9812C26.0098 15.268 25.8465 15.6579 25.8447 16.065V30.0825C27.7934 31.857 29.2001 34.1466 29.9023 36.6869C30.6044 39.2271 30.5733 41.9142 29.8126 44.4375H59.4597V29.0757H33.8435C33.5451 29.0757 33.259 28.9571 33.048 28.7462C32.837 28.5352 32.7185 28.249 32.7185 27.9507C32.7185 27.9428 32.7185 27.9372 32.7185 27.9293L32.723 14.535Z" fill="#455E86"/>
</svg>
