<svg width="72" height="72" viewBox="0 0 72 72" fill="none" xmlns="http://www.w3.org/2000/svg">
<path d="M52.7998 63.6V58.8H46.7998V64.8H51.5998C51.9181 64.8 52.2233 64.6736 52.4483 64.4486C52.6734 64.2235 52.7998 63.9183 52.7998 63.6Z" fill="#F4C600"/>
<path d="M34.8002 49.2H27.6002C26.9637 49.2 26.3532 48.9472 25.9031 48.4971C25.4531 48.047 25.2002 47.4366 25.2002 46.8V40.8H20.4002C20.0819 40.8 19.7767 40.9265 19.5517 41.1515C19.3266 41.3766 19.2002 41.6818 19.2002 42V56.4H34.8002V49.2Z" fill="#F4C600"/>
<path d="M27.6001 40.8H34.8001V46.8H27.6001V40.8Z" fill="#F4C600"/>
<path d="M27.6001 58.8H34.8001V64.8H27.6001V58.8Z" fill="#F4C600"/>
<path d="M37.2002 49.2H44.4002V56.4H37.2002V49.2Z" fill="#F4C600"/>
<path d="M37.2002 40.8H44.4002V46.8H37.2002V40.8Z" fill="#F4C600"/>
<path d="M20.4002 64.8H25.2002V58.8H19.2002V63.6C19.2002 63.9183 19.3266 64.2235 19.5517 64.4486C19.7767 64.6736 20.0819 64.8 20.4002 64.8Z" fill="#F4C600"/>
<path d="M46.7998 49.2H52.7998V56.4H46.7998V49.2Z" fill="#F4C600"/>
<path d="M52.7998 42C52.7998 41.6818 52.6734 41.3766 52.4483 41.1515C52.2233 40.9265 51.9181 40.8 51.5998 40.8H46.7998V46.8H52.7998V42Z" fill="#F4C600"/>
<path d="M14.4002 69.6H57.6002C57.9185 69.6 58.2237 69.4736 58.4487 69.2486C58.6738 69.0235 58.8002 68.7183 58.8002 68.4V15.324C58.7999 14.8224 58.6949 14.3264 58.492 13.8677C58.2891 13.409 57.9927 12.9977 57.6218 12.66L47.3666 3.33602C46.7036 2.73341 45.8397 2.39967 44.9438 2.40002H14.4002C14.0819 2.40002 13.7767 2.52645 13.5517 2.7515C13.3266 2.97654 13.2002 3.28176 13.2002 3.60002V68.4C13.2002 68.7183 13.3266 69.0235 13.5517 69.2486C13.7767 69.4736 14.0819 69.6 14.4002 69.6ZM23.1854 14.5092C26.7087 11.3552 31.2714 9.61133 36.0002 9.61133C40.729 9.61133 45.2917 11.3552 48.815 14.5092C49.0488 14.7253 49.1871 15.0254 49.1996 15.3435C49.2121 15.6616 49.0977 15.9717 48.8816 16.2054C48.6655 16.4392 48.3654 16.5775 48.0473 16.59C47.7292 16.6025 47.4192 16.4881 47.1854 16.272C44.1101 13.5191 40.1276 11.997 36.0002 11.997C31.8727 11.997 27.8903 13.5191 24.815 16.272C24.5812 16.4881 24.2712 16.6025 23.9531 16.59C23.635 16.5775 23.3349 16.4392 23.1188 16.2054C22.9027 15.9717 22.7883 15.6616 22.8008 15.3435C22.8133 15.0254 22.9516 14.7253 23.1854 14.5092ZM33.5558 25.0104C33.3295 25.229 33.0264 25.35 32.7117 25.3472C32.3971 25.3445 32.0961 25.2183 31.8736 24.9958C31.6511 24.7733 31.5249 24.4723 31.5222 24.1577C31.5195 23.8431 31.6404 23.5399 31.859 23.3136C32.9581 22.2177 34.4469 21.6022 35.999 21.6022C37.5511 21.6022 39.0399 22.2177 40.139 23.3136C40.3576 23.5399 40.4785 23.8431 40.4758 24.1577C40.4731 24.4723 40.3469 24.7733 40.1244 24.9958C39.9019 25.2183 39.6009 25.3445 39.2863 25.3472C38.9716 25.35 38.6685 25.229 38.4422 25.0104C37.7936 24.3635 36.915 24.0002 35.999 24.0002C35.083 24.0002 34.2043 24.3635 33.5558 25.0104ZM37.2002 28.6968C37.2023 29.0206 37.0781 29.3323 36.8541 29.566C36.63 29.7997 36.3237 29.9369 36.0002 29.9484C35.8454 29.9544 35.6909 29.9291 35.546 29.8742C35.4011 29.8192 35.2687 29.7357 35.1568 29.6286C35.0448 29.5214 34.9556 29.3929 34.8943 29.2505C34.8331 29.1082 34.801 28.955 34.8002 28.8V28.6968C34.8002 28.3786 34.9266 28.0733 35.1517 27.8483C35.3767 27.6233 35.6819 27.4968 36.0002 27.4968C36.3185 27.4968 36.6237 27.6233 36.8487 27.8483C37.0738 28.0733 37.2002 28.3786 37.2002 28.6968ZM29.5682 20.2068C29.4469 20.3077 29.307 20.3837 29.1564 20.4304C29.0057 20.4772 28.8474 20.4939 28.6903 20.4794C28.5333 20.465 28.3806 20.4198 28.241 20.3463C28.1014 20.2729 27.9777 20.1727 27.8768 20.0514C27.7759 19.9302 27.7 19.7902 27.6532 19.6396C27.6064 19.489 27.5898 19.3306 27.6042 19.1735C27.6186 19.0165 27.6639 18.8638 27.7373 18.7242C27.8107 18.5846 27.9109 18.4609 28.0322 18.36C30.3076 16.582 33.1124 15.6161 36.0002 15.6161C38.888 15.6161 41.6928 16.582 43.9682 18.36C44.0893 18.4609 44.1894 18.5846 44.2626 18.7241C44.3359 18.8636 44.381 19.0162 44.3953 19.1732C44.4097 19.3301 44.3929 19.4884 44.3461 19.6389C44.2993 19.7893 44.2233 19.9291 44.1224 20.0502C44.0215 20.1713 43.8978 20.2714 43.7583 20.3447C43.6188 20.418 43.4662 20.4631 43.3092 20.4774C43.1523 20.4917 42.994 20.475 42.8436 20.4281C42.6931 20.3813 42.5533 20.3053 42.4322 20.2044C40.5951 18.7696 38.3308 17.9904 35.9998 17.9909C33.6687 17.9913 31.4048 18.7713 29.5682 20.2068ZM16.8002 42C16.8002 41.0452 17.1795 40.1296 17.8546 39.4544C18.5297 38.7793 19.4454 38.4 20.4002 38.4H51.6002C52.555 38.4 53.4706 38.7793 54.1458 39.4544C54.8209 40.1296 55.2002 41.0452 55.2002 42V63.6C55.2002 64.5548 54.8209 65.4705 54.1458 66.1456C53.4706 66.8207 52.555 67.2 51.6002 67.2H20.4002C19.4454 67.2 18.5297 66.8207 17.8546 66.1456C17.1795 65.4705 16.8002 64.5548 16.8002 63.6V42Z" fill="#455E86"/>
<path d="M37.2002 58.8H44.4002V64.8H37.2002V58.8Z" fill="#F4C600"/>
</svg>
