<svg width="77" height="77" viewBox="0 0 77 77" fill="none" xmlns="http://www.w3.org/2000/svg">
<g clip-path="url(#clip0_680_2100)">
<path d="M74.8678 4.94338C73.2966 2.63744 70.9759 0.955923 68.3331 0.208783C67.1341 -0.130348 65.8876 0.566863 65.5486 1.76593C65.2096 2.96484 65.9067 4.21143 67.1056 4.55056C70.4654 5.50043 72.7389 8.83714 72.3941 12.3116C72.271 13.5514 73.1762 14.6564 74.4161 14.7794C74.4919 14.7869 74.5671 14.7905 74.6416 14.7905C75.7872 14.7905 76.7682 13.9214 76.8838 12.7574C77.155 10.0243 76.4391 7.24932 74.8678 4.94338Z" fill="#F4C600"/>
<path d="M64.8267 7.47616C63.672 7.00859 62.3566 7.56489 61.8885 8.71929C61.4205 9.87398 61.9771 11.1895 63.1316 11.6575C63.8273 11.9394 64.3189 12.6609 64.3268 13.4116C64.3398 14.6492 65.3472 15.6436 66.582 15.6436C66.5901 15.6436 66.5983 15.6436 66.6064 15.6434C67.8522 15.6302 68.8514 14.6096 68.8382 13.3638C68.8111 10.804 67.1991 8.4379 64.8267 7.47616Z" fill="#F4C600"/>
<path d="M9.89491 4.5522C11.0938 4.21307 11.7909 2.96649 11.4519 1.76757C11.1131 0.568657 9.86649 -0.128102 8.66743 0.210577C6.02461 0.957718 3.70393 2.63924 2.13265 4.94517C0.561371 7.25111 -0.154489 10.0261 0.116816 12.7592C0.232466 13.923 1.21346 14.7923 2.35899 14.7923C2.43358 14.7923 2.50893 14.7887 2.58458 14.7812C3.8244 14.6582 4.7296 13.5532 4.60658 12.3134C4.26158 8.83879 6.53504 5.50207 9.89491 4.5522Z" fill="#F4C600"/>
<path d="M12.6738 13.4118C12.6818 12.6611 13.1733 11.9396 13.869 11.6577C15.0235 11.1896 15.5801 9.87417 15.1121 8.71947C14.6439 7.56507 13.3288 7.00833 12.1739 7.47634C9.8015 8.43824 8.18931 10.8042 8.16224 13.3638C8.149 14.6097 9.14835 15.6302 10.394 15.6435C10.4022 15.6436 10.4103 15.6436 10.4184 15.6436C11.6533 15.6438 12.6607 14.6494 12.6738 13.4118Z" fill="#F4C600"/>
<path d="M46.8145 31.6328H51.3262V36.1445H46.8145V31.6328Z" fill="#465F86"/>
<path d="M25.6094 31.6328H42.3027V36.1445H25.6094V31.6328Z" fill="#465F86"/>
<path d="M38.4678 12.0352C23.8521 12.0352 12.0039 23.8834 12.0039 38.4991C12.0039 53.1148 23.8521 64.963 38.4678 64.963C53.0836 64.963 64.9318 53.1148 64.9318 38.4991C64.9318 23.8834 53.0834 12.0352 38.4678 12.0352ZM32.377 51.6959H24.5967C23.3509 51.6959 22.3409 50.6858 22.3409 49.44C22.3409 48.1942 23.3509 47.1842 24.5967 47.1842H32.377C33.6229 47.1842 34.6329 48.1942 34.6329 49.44C34.6329 50.6858 33.6229 51.6959 32.377 51.6959ZM52.7208 52.4137C52.2803 52.8542 51.703 53.0745 51.1258 53.0745C50.6384 53.0745 50.1521 52.9157 49.7471 52.6018C49.3421 52.9155 48.8558 53.0745 48.3685 53.0745C47.7912 53.0745 47.214 52.8542 46.7735 52.4137C45.9612 51.6014 45.8998 50.3249 46.5853 49.44C45.8997 48.5551 45.9611 47.2784 46.7735 46.4663C47.5859 45.6541 48.8624 45.5924 49.7473 46.2782C50.6322 45.5927 51.9087 45.6542 52.721 46.4663C53.5332 47.2786 53.5946 48.5551 52.9091 49.44C53.5946 50.3249 53.5331 51.6016 52.7208 52.4137ZM55.838 38.4C55.838 39.6458 54.8279 40.6558 53.5821 40.6558H23.3536C22.1077 40.6558 21.0977 39.6458 21.0977 38.4V29.3765C21.0977 28.1307 22.1077 27.1207 23.3536 27.1207H53.5821C54.8279 27.1207 55.838 28.1307 55.838 29.3765V38.4Z" fill="#465F86"/>
<path d="M26.409 9.96037C30.2307 8.34397 34.2878 7.52434 38.4674 7.52434C42.6471 7.52434 46.7042 8.34397 50.5259 9.96037C50.7319 10.0474 50.9362 10.1374 51.1398 10.2287L49.0337 4.41803C49.9674 4.14176 50.6489 3.27897 50.6489 2.25586C50.6489 1.01002 49.6389 0 48.3931 0H28.5415C27.2957 0 26.2856 1.01002 26.2856 2.25586C26.2856 3.27897 26.9674 4.14191 27.901 4.41803L25.7949 10.2287C25.9986 10.1374 26.2029 10.0474 26.409 9.96037Z" fill="#F4C600"/>
<path d="M50.5276 67.0404C46.7059 68.6568 42.6488 69.4764 38.4691 69.4764C34.2895 69.4764 30.2324 68.6568 26.4107 67.0404C26.1923 66.9481 25.9754 66.8529 25.7598 66.7559L27.8903 72.5859C26.963 72.8661 26.2875 73.7262 26.2875 74.7449C26.2875 75.9907 27.2975 77.0008 28.5433 77.0008H48.3949C49.6407 77.0008 50.6508 75.9907 50.6508 74.7449C50.6508 73.7262 49.9752 72.8661 49.0479 72.5859L51.1785 66.7559C50.9628 66.853 50.746 66.9481 50.5276 67.0404Z" fill="#F4C600"/>
</g>
<defs>
<clipPath id="clip0_680_2100">
<rect width="77" height="77" fill="white"/>
</clipPath>
</defs>
</svg>
