<svg width="73" height="76" viewBox="0 0 73 76" fill="none" xmlns="http://www.w3.org/2000/svg">
<path d="M71.5145 68.9306H0.847863L6.12235 55.6047C6.79593 53.9029 8.35721 52.8418 10.1873 52.8418H22.2083C22.3955 53.1092 22.5828 53.3763 22.7703 53.6434C25.5032 57.5357 28.2887 61.3919 31.0109 65.2914C32.2108 67.01 34.0849 67.9871 36.1809 67.9871C38.2768 67.9871 40.1511 67.01 41.3508 65.2914C44.0732 61.3919 46.8587 57.5357 49.5916 53.6434C49.7791 53.3765 49.9664 53.1092 50.1535 52.842H62.1745C64.0047 52.842 65.5661 53.9031 66.2395 55.6049L71.5145 68.9306ZM0.000210954 71.7687C-0.00798805 72.5385 0.222845 73.293 0.686878 73.9758C1.43519 75.0769 2.5799 75.6828 3.91114 75.6828H68.4512C69.7823 75.6828 70.9272 75.0767 71.6755 73.9758C72.1395 73.2931 72.3703 72.5387 72.362 71.7687H0.000210954Z" fill="#465F86"/>
<path d="M13.9438 34.2797C9.96855 25.3266 11.6375 14.4209 18.9514 7.10728C23.6894 2.3692 29.9353 0 36.1811 0C42.4269 0 48.6728 2.3692 53.411 7.10728C60.7247 14.4209 62.3938 25.3266 58.4184 34.2797C55.3505 41.189 45.3217 54.6462 39.024 63.667C38.3549 64.6252 37.3498 65.1493 36.1811 65.1493C35.0124 65.1493 34.0073 64.6252 33.3383 63.667C27.0406 54.6462 17.0115 41.189 13.9438 34.2797ZM23.9977 36.5204C30.7264 43.2491 41.6356 43.2491 48.3644 36.5204C55.0931 29.7917 55.0931 18.8825 48.3644 12.1539C41.6356 5.42522 30.7264 5.42522 23.9977 12.1539C17.269 18.8825 17.269 29.7919 23.9977 36.5204Z" fill="#F4C600"/>
<path d="M36.0704 27.06C34.3168 27.06 32.8952 28.4817 32.8952 30.2354C32.8952 31.989 34.3168 33.4106 36.0704 33.4106C37.8241 33.4106 39.2457 31.989 39.2457 30.2354C39.2457 28.4817 37.8241 27.06 36.0704 27.06ZM36.0742 20.4488C32.934 20.4488 30.0139 21.9164 27.8446 24.5833C27.3516 25.1916 27.4426 26.0851 28.0495 26.5788C28.6637 27.074 29.5513 26.9823 30.0519 26.374C31.6676 24.3822 33.8064 23.2869 36.0742 23.2869C38.342 23.2869 40.4735 24.3822 42.089 26.374C42.3696 26.7191 42.7791 26.8973 43.1963 26.8973C43.5073 26.8973 43.8259 26.7934 44.0913 26.5788C44.698 26.0849 44.7891 25.1916 44.2961 24.5833C42.1268 21.9164 39.2067 20.4488 36.0742 20.4488ZM24.5225 22.241C25.1292 22.7349 26.0243 22.6437 26.5172 22.0362C29.081 18.8908 32.4712 17.1576 36.0741 17.1576C39.6769 17.1576 43.0674 18.8908 45.6234 22.0362C45.9041 22.3798 46.3135 22.5595 46.7232 22.5595C47.0417 22.5595 47.3528 22.4556 47.6181 22.241C48.2248 21.7464 48.316 20.8522 47.8229 20.2455C44.7131 16.4249 40.5414 14.3203 36.0739 14.3203C31.6064 14.3203 27.4271 16.4251 24.3173 20.2455C23.8243 20.8522 23.9157 21.7466 24.5225 22.241Z" fill="#465F86"/>
</svg>
