<svg width="67" height="71" viewBox="0 0 67 71" fill="none" xmlns="http://www.w3.org/2000/svg">
<path d="M28.128 65.0057C28.2454 65.4443 27.9829 65.8994 27.544 66.0171L9.55587 70.837C9.11691 70.9547 8.66188 70.6917 8.5444 70.2532L7.65371 66.9286C7.53608 66.4897 7.79874 66.0349 8.2377 65.9172L26.2258 61.0973C26.6648 60.9796 27.1196 61.2423 27.2373 61.6811L28.128 65.0057ZM58.2332 65.9171L40.2452 61.0971C39.8062 60.9795 39.3513 61.2421 39.2337 61.681L38.3428 65.0056C38.2254 65.4441 38.4879 65.8993 38.9268 66.0169L56.9149 70.8369C57.3539 70.9545 57.8089 70.6916 57.9264 70.253L58.8171 66.9284C58.9349 66.4897 58.6722 66.0347 58.2332 65.9171ZM62.7211 20.5933C60.659 20.593 58.9716 22.2804 58.9716 24.3427L58.9713 37.7107C59.5625 37.9689 60.1146 38.3397 60.594 38.8228C61.6197 39.8568 62.1292 41.2156 62.1239 42.5719C62.1186 43.9283 61.5989 45.2825 60.5663 46.307L55.0752 51.7551C54.627 52.2007 53.9025 52.1988 53.4567 51.7507C53.0112 51.3025 53.0132 50.578 53.4612 50.1324L58.9524 44.6843C59.5392 44.102 59.8346 43.333 59.8376 42.563C59.8411 41.6854 59.4999 40.9669 58.8948 40.3578C57.2903 38.7405 54.6462 38.73 53.0288 40.3345L42.7491 50.5336C41.4212 51.8512 41.1564 53.6996 41.3988 55.5546L41.8695 59.1564L56.7731 63.1498C56.8593 61.3612 57.4854 59.7811 58.89 58.2703L64.4806 52.2566C65.7537 50.8874 66.4702 49.3232 66.4702 47.4532L66.4705 24.3428C66.4708 22.2806 64.7835 20.5936 62.7211 20.5933ZM36.9931 15.9412V21.9148L33.2354 24.0843L29.4777 21.9148V15.9412C27.4202 17.2056 26.0479 19.4768 26.0479 22.0689C26.0479 25.1274 27.9584 27.7392 30.6508 28.7772V33.0166C31.4807 33.2117 32.3459 33.3152 33.2351 33.3152C34.1247 33.3152 34.9898 33.2117 35.8198 33.0166V28.7772C38.5123 27.7392 40.4227 25.1274 40.4227 22.069C40.4229 19.4768 39.0506 17.2056 36.9931 15.9412ZM43.622 37.6636C41.6247 38.9967 39.3568 39.9557 36.9182 40.442V44.1377H29.5527V40.442C27.114 39.9558 24.8464 38.9963 22.8489 37.6635L20.2344 40.278L15.0262 35.0697L17.6408 32.4552C16.3077 30.4579 15.3486 28.1899 14.8623 25.7515H11.1665V18.3862H14.8623C15.3484 15.9475 16.3078 13.6798 17.6408 11.6823L15.0264 9.06785L20.2347 3.8597L22.8489 6.47396C24.8462 5.14087 27.1143 4.18175 29.5529 3.69545V0H36.9184V3.69545C39.3571 4.18161 41.6247 5.14101 43.6223 6.47396L46.2367 3.85956L51.4448 9.06785L48.8306 11.6821C50.1637 13.6795 51.1228 15.9475 51.6091 18.3862H55.3045V25.7517H51.6091C51.1229 28.1904 50.1634 30.458 48.8304 32.4556L51.4448 35.07L46.2365 40.2781L43.622 37.6636ZM42.8106 31.6441C45.2612 29.1935 46.7769 25.8081 46.7769 22.0689C46.7769 18.3297 45.2612 14.9442 42.8106 12.4936C40.3601 10.043 36.9746 8.52733 33.2354 8.52733C29.4962 8.52733 26.1107 10.043 23.6602 12.4936C21.2096 14.9441 19.6939 18.3295 19.6939 22.0689C19.6939 25.8081 21.2096 29.1935 23.6602 31.6441C26.1107 34.0945 29.4962 35.6104 33.2354 35.6104C36.9746 35.6104 40.3601 34.0947 42.8106 31.6441ZM24.6012 59.1564L25.0719 55.5546C25.3143 53.6996 25.0496 51.8512 23.7216 50.5336L13.4418 40.3345C11.8246 38.73 9.18032 38.7405 7.57581 40.3578C6.97059 40.9669 6.62961 41.6854 6.63305 42.563C6.63606 43.333 6.93143 44.102 7.51829 44.6843L13.0095 50.1324C13.4576 50.578 13.4596 51.3027 13.0139 51.7507C12.5682 52.1988 11.8436 52.2008 11.3955 51.7551L5.90432 46.307C4.87175 45.2825 4.35203 43.9283 4.34672 42.5719C4.34141 41.2158 4.85095 39.8568 5.87663 38.8228C6.35605 38.3396 6.90833 37.9687 7.49935 37.7107L7.49907 24.3427C7.49907 22.2806 5.81165 20.593 3.74953 20.5933C1.68713 20.5936 0 22.2804 0 24.3427L0.000287019 47.453C0.000287019 49.3231 0.716827 50.8872 1.98996 52.2565L7.58055 58.2701C8.98508 59.7809 9.61125 61.3611 9.69746 63.1496L24.6012 59.1564Z" fill="#455E86"/>
</svg>
