<svg width="390" height="279" viewBox="0 0 390 279" fill="none" xmlns="http://www.w3.org/2000/svg">
<g clip-path="url(#clip0_670_1506)">
<path fill-rule="evenodd" clip-rule="evenodd" d="M259.675 19.1251C311.04 30.5674 343.726 77.7915 346.929 100.591C348.243 109.948 345.81 88.0527 319.606 68.1173C296.19 50.2995 277.959 46.9986 250.099 44.8468C230.41 43.3254 209.793 40.9063 211.26 29.1648C212.414 19.8949 226.514 11.7421 259.675 19.1251ZM125.363 0.0234671C134.205 0.555718 139.588 7.81535 139.959 16.1874C140.116 19.7487 137.32 10.4378 127.515 9.14255C121.435 8.33846 120.521 10.1294 118.341 7.62118C116.163 5.11069 118.231 -0.403704 125.363 0.0234671Z" fill="white"/>
<path fill-rule="evenodd" clip-rule="evenodd" d="M178.421 52.04C177.687 62.139 176.195 63.5325 166.562 64.3114C176.195 65.0881 177.685 66.4816 178.421 76.5806C179.157 66.4816 180.646 65.0881 190.28 64.3114C180.646 63.5325 179.157 62.139 178.421 52.04ZM217.575 78.6754C217.182 84.0687 216.385 84.8134 211.244 85.2268C216.385 85.6426 217.18 86.385 217.575 91.7783C217.966 86.385 218.763 85.6426 223.904 85.2268C218.761 84.8134 217.966 84.0687 217.575 78.6754ZM200.427 37.1758C200.029 42.6354 199.223 43.3915 194.015 43.8118C199.223 44.2321 200.029 44.9859 200.427 50.4478C200.824 44.9882 201.631 44.2321 206.838 43.8118C201.631 43.3915 200.824 42.6354 200.427 37.1758Z" fill="#EAEFF8"/>
<path fill-rule="evenodd" clip-rule="evenodd" d="M164.224 217.629C164.821 225.811 166.027 226.94 173.83 227.57C166.027 228.198 164.821 229.329 164.224 237.509C163.628 229.327 162.422 228.198 154.616 227.57C162.419 226.942 163.628 225.811 164.224 217.629ZM132.505 239.209C132.823 243.579 133.467 244.18 137.635 244.515C133.469 244.851 132.823 245.454 132.505 249.824C132.188 245.454 131.543 244.853 127.375 244.515C131.541 244.18 132.185 243.579 132.505 239.209ZM146.395 205.588C146.717 210.013 147.371 210.623 151.589 210.963C147.369 211.303 146.717 211.913 146.395 216.338C146.073 211.913 145.42 211.303 141.202 210.963C145.42 210.623 146.073 210.013 146.395 205.588Z" fill="white"/>
<path fill-rule="evenodd" clip-rule="evenodd" d="M288.879 197.462C288.424 203.725 287.496 204.591 281.523 205.073C287.499 205.557 288.424 206.419 288.879 212.687C289.336 206.421 290.259 205.557 296.234 205.073C290.259 204.591 289.336 203.725 288.879 197.462ZM313.165 213.984C312.921 217.329 312.427 217.788 309.237 218.048C312.427 218.306 312.921 218.768 313.165 222.112C313.407 218.768 313.901 218.306 317.091 218.048C313.901 217.788 313.407 217.326 313.165 213.984ZM302.529 188.242C302.282 191.63 301.782 192.098 298.553 192.359C301.784 192.619 302.282 193.087 302.529 196.473C302.776 193.087 303.276 192.619 306.505 192.359C303.276 192.096 302.776 191.63 302.529 188.242Z" fill="white"/>
<path fill-rule="evenodd" clip-rule="evenodd" d="M389.04 171.355C389.506 171.293 389.931 171.62 389.993 172.084C390.057 172.55 389.73 172.975 389.264 173.036L345.451 178.873L360.173 199.626C360.442 200.007 360.353 200.537 359.972 200.809C359.59 201.079 359.06 200.99 358.788 200.608L343.552 179.126L331.383 180.748C331.166 180.897 330.882 180.945 330.617 180.851L321.288 182.094L334.086 207.573C334.296 207.991 334.127 208.501 333.709 208.711C333.29 208.921 332.781 208.752 332.573 208.334L319.51 182.329L308.577 183.786C308.542 183.793 308.506 183.795 308.469 183.8L297.365 185.278L306.125 204.425C306.319 204.853 306.132 205.353 305.707 205.547C305.28 205.741 304.779 205.554 304.585 205.129L295.607 185.511L266.219 189.426C265.755 189.488 265.33 189.164 265.268 188.698C265.207 188.232 265.531 187.807 265.997 187.745L285.757 185.114L290.359 169.073C290.489 168.625 290.958 168.362 291.406 168.493C291.856 168.618 292.118 169.089 291.988 169.539L287.587 184.871L307.718 182.19L314.38 153.811C314.486 153.354 314.943 153.071 315.4 153.176C315.856 153.284 316.14 153.74 316.035 154.197L309.523 181.947L319.867 180.57L319.908 180.563L330.322 179.177L340.758 151.282C340.92 150.844 341.411 150.62 341.85 150.784C342.288 150.949 342.51 151.438 342.348 151.876L332.228 178.923L343.806 177.381L343.865 177.372L356.243 175.723L366.305 156.107C366.518 155.691 367.027 155.524 367.443 155.737C367.859 155.949 368.024 156.459 367.813 156.877L358.288 175.448L389.04 171.355Z" fill="white"/>
<path fill-rule="evenodd" clip-rule="evenodd" d="M64.0305 112.838H148.097C153.59 112.838 323.333 197.886 323.333 203.362V263.305C323.333 268.785 318.836 273.278 313.345 273.278H64.0305C58.5376 273.278 54.0454 268.792 54.0454 263.305V122.809C54.0454 117.327 58.5376 112.838 64.0305 112.838Z" fill="#4B5E85"/>
<path fill-rule="evenodd" clip-rule="evenodd" d="M68.6345 112.838H255.717H274.771C275.326 112.838 323.33 148.949 323.33 149.705V260.783C323.33 266.167 318.907 270.587 313.524 270.587H68.6345C63.2375 270.587 58.8276 266.174 58.8276 260.783V122.642C58.8299 117.249 63.2375 112.838 68.6345 112.838Z" fill="#4B5E85"/>
<path fill-rule="evenodd" clip-rule="evenodd" d="M68.6349 111.361H255.718H274.772C275.343 111.361 291.372 123.149 304.99 133.483C315.539 141.494 324.807 148.859 324.807 149.706V260.784C324.807 263.875 323.532 266.699 321.487 268.741L321.482 268.745C319.437 270.79 316.613 272.067 313.522 272.067H68.6349C65.5388 272.067 62.7169 270.794 60.6719 268.75L60.6673 268.745C58.6223 266.701 57.3496 263.877 57.3496 260.784V122.641C57.3496 119.542 58.6223 116.714 60.6627 114.674C62.7032 112.631 65.5319 111.361 68.6349 111.361ZM255.718 114.315H68.6349C66.3431 114.315 64.2547 115.254 62.7512 116.759C61.2454 118.265 60.3063 120.35 60.3063 122.641V260.784C60.3063 263.076 61.2454 265.164 62.7512 266.664L62.7557 266.669C64.2546 268.172 66.3454 269.113 68.6371 269.113H313.526C315.816 269.113 317.902 268.17 319.403 266.667L319.408 266.662C320.913 265.164 321.855 263.073 321.855 260.787V149.706C321.855 149.51 313.138 143.36 303.217 135.824C289.978 125.771 274.831 114.315 274.776 114.315H255.718Z" fill="#293A59"/>
<path fill-rule="evenodd" clip-rule="evenodd" d="M236.639 133.293H145.516C128.084 133.293 113.822 147.55 113.822 164.977V218.449C113.822 235.876 128.087 250.137 145.516 250.137H236.639C254.07 250.137 268.333 235.876 268.333 218.449V164.977C268.335 147.55 254.073 133.293 236.639 133.293Z" fill="#F9DA2F"/>
<path fill-rule="evenodd" clip-rule="evenodd" d="M236.638 135.516H145.516C137.416 135.516 130.047 138.832 124.705 144.173C119.362 149.514 116.045 156.879 116.045 164.977V218.449C116.045 226.549 119.362 233.916 124.705 239.257C130.047 244.597 137.416 247.914 145.516 247.914H236.638C244.739 247.914 252.107 244.597 257.45 239.257L257.456 239.261C262.794 233.92 266.109 226.553 266.109 218.449V164.977C266.109 156.879 262.794 149.512 257.45 144.173C252.11 138.832 244.741 135.516 236.638 135.516ZM145.518 131.07H236.641C245.972 131.07 254.454 134.885 260.598 141.028C266.747 147.173 270.558 155.654 270.558 164.977V218.449C270.558 227.769 266.738 236.25 260.598 242.393V242.402C254.452 248.547 245.966 252.36 236.641 252.36H145.518C136.189 252.36 127.705 248.547 121.561 242.402C115.414 236.257 111.601 227.778 111.601 218.449V164.977C111.601 155.654 115.414 147.17 121.561 141.028C127.705 134.883 136.186 131.07 145.518 131.07Z" fill="#FFE2DC"/>
<path fill-rule="evenodd" clip-rule="evenodd" d="M236.638 144.049H145.516C139.771 144.049 134.537 146.411 130.739 150.207C126.942 154.001 124.581 159.235 124.581 164.978V218.449C124.581 224.195 126.942 229.428 130.739 233.225C134.537 237.021 139.771 239.381 145.516 239.381H236.638C242.385 239.381 247.62 237.021 251.417 233.225C255.213 229.428 257.575 224.195 257.575 218.449V164.978C257.575 159.235 255.213 154.001 251.417 150.207C247.62 146.413 242.385 144.049 236.638 144.049ZM145.518 139.605H236.641C243.614 139.605 249.964 142.463 254.566 147.064C259.168 151.662 262.024 158.006 262.024 164.98V218.452C262.024 225.421 259.168 231.772 254.566 236.372C249.964 240.973 243.617 243.831 236.641 243.831H145.518C138.547 243.831 132.197 240.973 127.595 236.372C122.993 231.772 120.135 225.424 120.135 218.452V164.978C120.135 158.004 122.993 151.66 127.595 147.062C132.197 142.463 138.547 139.605 145.518 139.605Z" fill="#FFE2DC"/>
<path fill-rule="evenodd" clip-rule="evenodd" d="M173.963 139.605H208.194C213.07 139.605 217.505 141.6 220.71 144.807C223.916 148.014 225.913 152.446 225.913 157.318V226.111C225.913 230.988 223.916 235.42 220.71 238.625L220.703 238.618C217.491 241.83 213.058 243.826 208.191 243.826H173.963C169.096 243.826 164.67 241.834 161.458 238.625L161.451 238.618L161.446 238.613C158.234 235.402 156.241 230.974 156.241 226.109V157.318C156.241 152.455 158.236 148.026 161.451 144.809L161.446 144.805C164.652 141.6 169.085 139.605 173.963 139.605ZM208.194 144.049H173.963C170.319 144.049 166.999 145.545 164.595 147.95H164.586C162.187 150.349 160.692 153.668 160.692 157.316V226.109C160.692 229.761 162.187 233.078 164.586 235.477L164.595 235.486C166.994 237.887 170.312 239.379 173.963 239.379H208.194C211.845 239.379 215.163 237.887 217.564 235.486V235.477C219.97 233.071 221.464 229.752 221.464 226.109V157.318C221.464 153.675 219.97 150.353 217.564 147.952C215.158 145.547 211.84 144.049 208.194 144.049Z" fill="#FFE2DC"/>
<path d="M158.467 169.822H123.907V174.268H158.467V169.822Z" fill="#FFE2DC"/>
<path d="M158.467 189.492H123.907V193.938H158.467V189.492Z" fill="#FFE2DC"/>
<path d="M158.467 209.162H123.907V213.61H158.467V209.162Z" fill="#FFE2DC"/>
<path d="M257.747 169.822H223.189V174.268H257.747V169.822Z" fill="#FFE2DC"/>
<path d="M257.747 189.492H223.189V193.938H257.747V189.492Z" fill="#FFE2DC"/>
<path d="M257.747 209.162H223.189V213.61H257.747V209.162Z" fill="#FFE2DC"/>
<path fill-rule="evenodd" clip-rule="evenodd" d="M335.345 107.138C334.335 103.2 337.664 95.5771 342.75 96.9523L344.188 97.3406C345.408 97.6718 346.735 94.8621 350.058 96.5891C354.961 99.1384 356.81 104.911 357.582 122.29C357.954 130.699 363.955 135.553 365.104 138.605C368.908 159.961 317.817 158.689 333.56 130.505C336.647 124.979 337.015 112.858 335.345 107.138Z" fill="#121313"/>
<path fill-rule="evenodd" clip-rule="evenodd" d="M342.38 130.938L343.337 125.949C343.337 125.949 340.509 126.625 338.713 129.421C336.914 132.217 333.905 141.649 333.391 141.933C332.875 142.214 327.187 133.458 326.191 132.067C324.962 130.365 324.505 128.398 323.733 126.906C322.96 125.417 320.25 124.912 319.22 125.106C318.196 125.289 320.632 129.647 320.632 129.647C320.632 129.647 326.797 140.345 328.853 146.22C330.907 152.082 337.33 154.88 338.356 154.049C339.382 153.206 342.38 130.938 342.38 130.938Z" fill="#F7A46C"/>
<path fill-rule="evenodd" clip-rule="evenodd" d="M341.263 145.937L333.41 141.469C333.41 141.469 336.976 126.427 343.335 125.949L341.263 145.937Z" fill="#4B5E85"/>
<path fill-rule="evenodd" clip-rule="evenodd" d="M323.662 127.735C323.662 127.735 323.406 126.597 322.716 126.373C322.024 126.147 320.817 126.344 320.744 126.373C320.666 126.401 319.332 125.684 319.332 125.684L320.431 127.735C320.431 127.735 322.586 130.266 323.303 129.325C324.021 128.365 323.662 127.735 323.662 127.735Z" fill="#FFB27D"/>
<path fill-rule="evenodd" clip-rule="evenodd" d="M318.946 125.766C318.946 125.766 318.167 129.731 318.365 130.558C318.56 131.387 319.058 130.937 319.147 130.771C319.533 130.024 319.798 127.481 319.798 127.481L318.946 125.766Z" fill="#F7A46C"/>
<path fill-rule="evenodd" clip-rule="evenodd" d="M320.623 129.056C320.623 129.056 320.251 131.517 319.869 131.798C319.625 131.994 319.307 131.882 319.204 131.389C319.099 130.884 319.7 127.859 319.7 127.859L320.623 129.056Z" fill="#F7A46C"/>
<path fill-rule="evenodd" clip-rule="evenodd" d="M322.89 136.027L324.178 135.394L318.695 124.148C317.979 124.5 317.687 125.357 318.034 126.074L322.89 136.027Z" fill="#4B5E85"/>
<path fill-rule="evenodd" clip-rule="evenodd" d="M374.07 260.783C374.07 260.783 374.737 267.543 376.448 268.778C378.162 270.03 380.445 274.613 379.302 277.1C378.948 277.872 378.233 278.325 377.422 278.576C375.013 279.321 372.454 278.071 371.431 275.764C370.857 274.485 370.354 272.771 370.256 270.606C369.998 265.126 368.287 262.327 368.287 262.327L374.07 260.783Z" fill="#FFB27D"/>
<path fill-rule="evenodd" clip-rule="evenodd" d="M347.757 263.551C347.757 263.551 347.215 270.367 347.654 272.59C347.889 273.771 349.196 276.217 348.595 277.341C347.997 278.454 347.311 278.735 347.311 278.735L331.781 278.988C330.933 279 331.49 278.454 332.171 277.96C333.289 277.131 334.187 276.597 337.758 274.867C337.991 274.755 338.836 274.221 339.143 274.038C339.917 273.561 340.694 272.814 341.364 272.085C342.479 270.836 342.575 264.832 342.575 264.832L347.757 263.551Z" fill="#FFB27D"/>
<path fill-rule="evenodd" clip-rule="evenodd" d="M336.245 172.505C336.245 172.505 334.289 183.582 335.574 190.834C336.86 198.101 343.022 265.418 343.022 265.418L349.873 265.811C349.873 265.811 351.31 237.684 351.052 233.775C350.793 229.867 348.762 223.318 348.762 223.318L349.443 200.616L340.799 170.787L336.245 172.505Z" fill="#121313"/>
<path fill-rule="evenodd" clip-rule="evenodd" d="M355.751 170.523C355.751 170.523 361.144 178.619 362.43 185.323C363.714 192.028 361.487 212.637 363.959 221.421C365.293 226.174 370.366 233.525 371.136 239.668C371.908 245.81 374.929 261.906 374.929 261.906L368.081 263.254L352.169 223.065L339.686 186.715L336.487 168.006L355.751 170.523Z" fill="#020202"/>
<path fill-rule="evenodd" clip-rule="evenodd" d="M351.383 124.432C351.383 124.432 355.082 125.035 357.835 127.735C363.744 133.514 354.365 155.807 353.853 159.727C353.57 161.87 359.716 171.322 362.243 180.393C364.322 187.852 362.849 195.406 362.849 195.406C362.849 195.406 355.445 190.511 347.588 187.468C341.793 185.22 335.398 184.898 333.359 183.553C333.359 183.553 335.048 141.468 335.564 138.67C336.076 135.888 341.825 127.257 342.851 126.145C343.879 125.021 351.383 124.432 351.383 124.432Z" fill="#4B5E85"/>
<path fill-rule="evenodd" clip-rule="evenodd" d="M359.124 172.02C360.314 174.692 361.457 177.561 362.243 180.394C364.322 187.852 362.848 195.407 362.848 195.407C362.848 195.407 360.751 194.02 357.604 192.263C359.023 186.251 359.528 179.503 359.124 172.02Z" fill="#4B5E85"/>
<path fill-rule="evenodd" clip-rule="evenodd" d="M358.061 130.366C357.607 128.986 356.046 128.314 354.716 128.89C352.893 129.692 350.375 131.184 349.143 133.74C347.087 138.027 339.896 152.743 337.668 153.305C335.445 153.853 326.365 138.027 326.365 138.027C326.365 138.027 326.623 135.229 325.851 133.639C325.078 132.068 322.771 130.393 322.428 130.941C322.087 131.503 323.714 132.91 323.714 133.191C323.714 133.459 323.027 133.639 322.087 133.091C321.144 132.529 320.632 131.405 320.632 131.405C320.632 131.405 319.087 134.201 320.714 136.716C322.341 139.234 323.027 140.259 323.027 140.259C323.027 140.259 333.558 163.635 337.412 163.902C341.002 164.172 361.669 141.257 358.061 130.366Z" fill="#FFB27D"/>
<path fill-rule="evenodd" clip-rule="evenodd" d="M349.004 114.901C349.004 114.901 349.04 115.112 349.109 115.477C349.424 117.193 350.654 122.871 351.481 124.432C352.484 126.314 348.056 132.347 343.792 131.614C342.524 131.39 344.864 126.076 344.752 125.512C344.537 124.432 344.244 122.967 343.945 121.451C343.778 120.608 343.607 119.749 343.445 118.936C342.99 116.628 342.615 114.746 342.615 114.746L349.004 114.901Z" fill="#FFB27D"/>
<path fill-rule="evenodd" clip-rule="evenodd" d="M349.109 115.477C349.043 115.112 349.004 114.901 349.004 114.901L342.615 114.746C342.615 114.746 342.988 116.628 343.445 118.936C343.607 119.735 343.776 120.592 343.941 121.437C344.928 121.295 345.958 120.818 346.993 119.92C348.12 118.938 348.858 117.755 349.301 116.489C349.223 116.08 349.157 115.744 349.109 115.477Z" fill="#F08261"/>
<path fill-rule="evenodd" clip-rule="evenodd" d="M345.163 99.7341C345.163 99.7341 347.768 100.086 349.653 102.53C351.54 104.963 353.574 112.497 348.888 116.586C344.199 120.677 339.567 116.053 338.88 111.131C338.196 106.215 338.334 99.5514 345.163 99.7341Z" fill="#FFB27D"/>
<path fill-rule="evenodd" clip-rule="evenodd" d="M337.383 109.447C337.94 110.544 338.879 111.133 339.478 110.797C340.079 110.459 340.109 109.292 339.551 108.209C338.989 107.129 338.052 106.523 337.451 106.861C336.853 107.213 336.823 108.364 337.383 109.447Z" fill="#FFB27D"/>
<path fill-rule="evenodd" clip-rule="evenodd" d="M344.37 99.6227C344.37 99.6227 348.394 106.777 351.268 107.115C354.145 107.437 354.522 111.248 354.522 111.248C354.522 111.248 353.494 102.476 350.647 100.79C347.8 99.1019 344.37 99.6227 344.37 99.6227Z" fill="#121313"/>
<path fill-rule="evenodd" clip-rule="evenodd" d="M350.327 108.814C350.092 110.093 350.565 111.26 351.378 111.413C352.194 111.582 353.044 110.698 353.277 109.419C353.51 108.154 353.039 106.989 352.224 106.817C351.412 106.648 350.562 107.551 350.327 108.814Z" fill="#FFB27D"/>
<path fill-rule="evenodd" clip-rule="evenodd" d="M370.964 274.556C374.696 275.244 377.182 273.064 378.47 271.436C379.421 273.277 380.001 275.582 379.302 277.101C378.687 278.437 377.015 278.803 375.6 278.857C374.106 278.914 372.708 278.126 371.965 276.833C371.622 276.228 371.266 275.47 370.964 274.556Z" fill="#284191"/>
<path fill-rule="evenodd" clip-rule="evenodd" d="M339.147 274.035C343.255 275.091 346.292 274.371 347.99 273.684C348.429 274.919 349.009 276.48 348.7 277.366C348.326 278.476 347.786 278.714 347.313 278.73C343.562 278.828 333.57 278.967 330.709 278.995C330.307 279.011 330.085 278.547 330.343 278.236C331.052 277.393 338.841 274.218 339.147 274.035Z" fill="#284191"/>
<path fill-rule="evenodd" clip-rule="evenodd" d="M352.297 150.901L343.047 144.827C343.047 144.827 346.902 133.949 351.141 130.097C355.381 126.246 357.383 127.171 358.272 127.973C360.728 130.193 360.294 135.578 357.5 142.227C354.705 148.877 352.297 150.901 352.297 150.901Z" fill="#4B5E85"/>
<path fill-rule="evenodd" clip-rule="evenodd" d="M344.562 99.5512C344.562 99.5512 341.957 103.825 340.095 104.024C338.235 104.218 337.991 106.493 337.991 106.493C337.991 106.493 338.656 101.253 340.497 100.246C342.343 99.2405 344.562 99.5512 344.562 99.5512Z" fill="#121313"/>
<path fill-rule="evenodd" clip-rule="evenodd" d="M345.14 99.5416C343.484 99.0756 342.766 98.2555 342.986 97.0813C344.896 95.4869 346.957 94.861 349.169 95.2082C347.994 95.6057 346.649 97.0494 345.14 99.5416Z" fill="#121313"/>
<path fill-rule="evenodd" clip-rule="evenodd" d="M342.618 98.5348C343.561 99.0305 344.231 98.9643 344.631 98.343C344.448 96.8125 343.783 95.6566 342.641 94.873C343.002 95.5515 342.995 96.7713 342.618 98.5348Z" fill="#121313"/>
<path fill-rule="evenodd" clip-rule="evenodd" d="M352.525 124.711C352.352 126.433 350.949 128.436 349.466 129.903C347.809 131.543 345.769 132.697 344.411 132.592C343.415 132.514 342.776 131.947 342.707 130.586C342.657 129.494 342.787 128.194 343.742 125.659L344.313 125.48L344.725 125.378C344.736 125.485 344.784 125.528 344.759 125.624C344.734 125.716 344.722 125.805 344.697 125.896C344.146 127.986 343.708 129.656 343.751 130.536C343.783 131.228 344.064 131.513 344.491 131.545C345.552 131.632 347.27 130.607 348.728 129.161C350.062 127.842 351.335 125.892 351.481 124.43L352.525 124.711Z" fill="#4B5E85"/>
<path fill-rule="evenodd" clip-rule="evenodd" d="M344.699 99.7221C343.616 99.617 343.05 99.9985 342.997 100.869C343.909 102.463 345.067 103.425 346.475 103.754C345.819 103.174 345.229 101.831 344.699 99.7221Z" fill="#121313"/>
<path fill-rule="evenodd" clip-rule="evenodd" d="M340.943 105.678C340.865 105.657 340.771 105.682 340.691 105.669C340.769 105.643 340.911 105.65 340.986 105.653C341.041 105.655 341.073 105.666 341.13 105.655C341.178 105.646 341.238 105.641 341.283 105.625C341.256 105.614 340.941 105.573 340.927 105.579C340.961 105.566 341.162 105.57 341.215 105.57C341.295 105.57 341.434 105.582 341.498 105.573C341.429 105.554 341.334 105.554 341.267 105.534C341.37 105.506 341.523 105.536 341.626 105.525C341.56 105.477 341.484 105.477 341.425 105.44C341.569 105.41 341.818 105.527 341.909 105.538C341.875 105.504 341.697 105.399 341.66 105.413C341.724 105.385 341.905 105.465 341.964 105.49C341.976 105.495 341.985 105.495 341.998 105.5C342.06 105.522 342.122 105.566 342.186 105.584C342.12 105.516 341.985 105.445 341.905 105.404C341.873 105.388 341.838 105.381 341.811 105.358C341.859 105.351 342.053 105.438 342.113 105.47C342.081 105.436 342.005 105.39 341.971 105.374C342.037 105.362 342.174 105.449 342.232 105.493C342.309 105.545 342.405 105.643 342.471 105.687C342.405 105.563 342.22 105.415 342.138 105.346C342.211 105.369 342.318 105.456 342.387 105.52L342.563 105.696C342.579 105.714 342.599 105.742 342.625 105.755C342.583 105.669 342.519 105.575 342.465 105.511C342.398 105.436 342.325 105.376 342.289 105.335C342.357 105.344 342.481 105.449 342.551 105.529C342.661 105.653 342.7 105.73 342.773 105.819C342.732 105.696 342.611 105.511 342.54 105.442C342.613 105.449 342.693 105.568 342.759 105.605C342.739 105.568 342.704 105.527 342.672 105.497C342.643 105.468 342.606 105.442 342.583 105.413C342.698 105.442 342.88 105.719 342.947 105.803C342.903 105.632 342.787 105.497 342.707 105.374C342.816 105.47 342.874 105.577 342.931 105.632C342.91 105.57 342.874 105.5 342.842 105.445C342.812 105.397 342.771 105.346 342.746 105.301C342.853 105.369 343.004 105.694 343.079 105.847C343.075 105.721 342.974 105.598 342.94 105.497C342.965 105.536 343.002 105.573 343.031 105.627C343.127 105.796 343.187 105.998 343.262 106.171C343.264 106.093 343.214 105.931 343.184 105.849C343.136 105.726 343.045 105.593 343.038 105.575L343.132 105.669C343.161 105.705 343.193 105.753 343.219 105.794C343.248 105.842 343.276 105.888 343.303 105.94C343.321 105.977 343.358 106.059 343.376 106.084C343.369 106.018 343.292 105.847 343.257 105.78C343.209 105.682 343.15 105.614 343.107 105.534C343.193 105.614 343.317 105.799 343.381 105.934C343.44 106.059 343.481 106.196 343.488 106.338C343.493 106.368 343.497 106.422 343.486 106.45C343.443 106.326 343.36 106.059 343.28 105.984C343.347 106.16 343.356 106.203 343.385 106.384C343.351 106.278 343.337 106.171 343.28 106.061C343.303 106.148 343.317 106.345 343.303 106.409C343.278 106.326 343.278 106.265 343.237 106.171C343.244 106.258 343.28 106.356 343.26 106.443C343.251 106.39 343.248 106.338 343.235 106.281C343.225 106.235 343.205 106.144 343.168 106.114C343.184 106.176 343.205 106.269 343.182 106.331C343.161 106.24 343.157 106.157 343.132 106.057C343.088 105.902 343.077 105.92 343.018 105.819C343.034 105.881 343.095 106.002 343.125 106.114C343.155 106.212 343.161 106.288 343.164 106.381C343.157 106.372 343.054 106.059 343.031 106.004C342.986 105.899 342.928 105.771 342.853 105.719C342.876 105.771 342.974 105.915 343.022 106.027C343.116 106.235 343.086 106.235 343.125 106.388C343.086 106.285 343.061 106.141 342.995 106.048C343.038 106.176 343.038 106.233 343.059 106.349C343.029 106.281 343.02 106.192 342.988 106.107C342.954 106.018 342.876 105.906 342.876 105.906C342.903 106.009 343.031 106.265 343.027 106.372C343.013 106.358 342.951 106.26 342.933 106.235C342.844 106.109 342.73 105.993 342.625 105.897C342.718 106.013 342.885 106.187 342.951 106.326C342.931 106.29 342.851 106.205 342.819 106.169C342.773 106.121 342.72 106.082 342.679 106.043L342.908 106.313C342.819 106.231 342.487 105.991 342.359 105.954C342.396 105.984 342.446 106.009 342.487 106.041C342.579 106.109 342.778 106.249 342.846 106.331C342.816 106.317 342.784 106.29 342.752 106.269C342.675 106.219 342.579 106.144 342.497 106.107L342.469 106.098C342.497 106.128 342.547 106.157 342.579 106.185C342.611 106.21 342.657 106.235 342.684 106.267C342.622 106.256 342.439 106.116 342.359 106.093L342.41 106.144C342.309 106.084 342.216 106.011 342.101 106C342.12 106.016 342.136 106.018 342.156 106.029C342.188 106.05 342.277 106.116 342.3 106.123C342.245 106.109 342.051 105.993 341.946 105.982C342.001 106.027 342.076 106.048 342.129 106.093C342.021 106.073 341.916 106.011 341.807 105.986C341.841 106.013 341.873 106.011 341.909 106.043C341.848 106.043 341.791 106 341.729 105.998L341.795 106.041C341.74 106.032 341.69 106.004 341.637 105.993C341.615 105.986 341.635 105.988 341.612 105.988L341.683 106.036C341.624 106.029 341.555 105.993 341.491 105.993C341.5 105.998 341.498 105.995 341.507 106.002C341.509 106.002 341.516 106.007 341.516 106.007L341.562 106.02C341.564 106.02 341.569 106.023 341.569 106.023C341.571 106.025 341.576 106.029 341.576 106.027C341.576 106.025 341.58 106.029 341.583 106.032C341.546 106.041 341.384 106.052 341.354 106.048C341.297 106.039 341.219 106.004 341.158 106.009C341.169 106.016 341.183 106.018 341.199 106.023L341.24 106.043C341.201 106.048 341.139 106.036 341.096 106.034C340.771 106.025 340.314 106.189 340.038 106.361C339.867 106.466 339.707 106.635 339.565 106.77C339.476 106.856 339.195 107.14 339.124 107.192L339.138 107.163C339.145 107.153 339.147 107.153 339.151 107.144L339.238 107.03C339.277 106.982 339.311 106.93 339.348 106.877L339.554 106.559C339.659 106.397 339.819 106.253 339.965 106.128C340.008 106.093 340.088 106.034 340.123 105.998L339.985 106.064C340.18 105.886 340.42 105.854 340.634 105.76C340.616 105.76 340.591 105.758 340.57 105.76C340.561 105.76 340.55 105.762 340.538 105.762L340.509 105.76C340.573 105.735 340.659 105.726 340.728 105.712C340.801 105.703 340.893 105.694 340.943 105.678Z" fill="#121313"/>
<path fill-rule="evenodd" clip-rule="evenodd" d="M341.391 107.64C341.382 108.067 341.629 108.422 341.939 108.433C342.252 108.442 342.51 108.106 342.52 107.681C342.529 107.254 342.282 106.9 341.971 106.891C341.658 106.877 341.398 107.213 341.391 107.64Z" fill="#4B5E85"/>
<path fill-rule="evenodd" clip-rule="evenodd" d="M342.519 107.682C342.51 108.109 342.252 108.445 341.939 108.433C341.626 108.422 341.379 108.065 341.388 107.641C341.393 107.46 341.439 107.298 341.516 107.172L341.51 107.229C341.507 107.369 341.587 107.483 341.688 107.488C341.791 107.492 341.873 107.382 341.875 107.245C341.88 107.106 341.797 106.992 341.697 106.987H341.676C341.763 106.921 341.861 106.884 341.969 106.889C342.28 106.898 342.526 107.255 342.519 107.682Z" fill="#125AA3"/>
<path fill-rule="evenodd" clip-rule="evenodd" d="M347.252 104.833C347.329 104.792 347.434 104.787 347.514 104.753C347.428 104.751 347.277 104.797 347.199 104.819C347.14 104.838 347.11 104.856 347.044 104.863C346.991 104.867 346.925 104.879 346.875 104.877C346.9 104.856 347.227 104.728 347.243 104.733C347.201 104.728 346.991 104.79 346.934 104.803C346.847 104.829 346.706 104.877 346.632 104.886C346.703 104.849 346.806 104.819 346.87 104.783C346.756 104.787 346.598 104.856 346.484 104.874C346.541 104.808 346.623 104.787 346.68 104.737C346.518 104.749 346.283 104.929 346.191 104.966C346.219 104.925 346.381 104.774 346.425 104.774C346.351 104.765 346.178 104.897 346.121 104.934C346.109 104.943 346.1 104.945 346.086 104.954C346.025 104.993 345.97 105.052 345.908 105.089C345.963 105.002 346.084 104.897 346.162 104.835C346.191 104.81 346.226 104.794 346.251 104.767C346.196 104.776 346.013 104.911 345.958 104.961C345.984 104.915 346.05 104.856 346.082 104.829C346.013 104.838 345.885 104.959 345.835 105.016C345.769 105.089 345.691 105.21 345.632 105.272C345.671 105.132 345.826 104.938 345.899 104.849C345.826 104.89 345.737 105.004 345.68 105.087L345.538 105.304C345.524 105.329 345.508 105.361 345.488 105.379C345.511 105.285 345.554 105.178 345.593 105.1C345.641 105.009 345.707 104.929 345.734 104.881C345.666 104.909 345.561 105.043 345.506 105.139C345.419 105.292 345.401 105.377 345.344 105.482C345.353 105.352 345.435 105.139 345.492 105.052C345.417 105.08 345.362 105.217 345.298 105.274C345.312 105.228 345.339 105.18 345.364 105.144C345.389 105.107 345.417 105.075 345.437 105.039C345.326 105.1 345.2 105.42 345.152 105.521C345.154 105.34 345.241 105.178 345.298 105.039C345.207 105.162 345.172 105.283 345.124 105.352C345.129 105.285 345.152 105.208 345.172 105.146C345.193 105.089 345.223 105.03 345.239 104.979C345.143 105.078 345.065 105.434 345.024 105.601C344.996 105.477 345.072 105.331 345.083 105.226C345.07 105.272 345.038 105.317 345.019 105.377C344.96 105.566 344.951 105.777 344.912 105.968C344.891 105.893 344.903 105.724 344.914 105.635C344.932 105.5 344.996 105.349 345.001 105.329L344.926 105.445C344.905 105.489 344.882 105.546 344.864 105.594C344.848 105.646 344.832 105.699 344.816 105.756C344.805 105.797 344.786 105.886 344.775 105.918C344.763 105.852 344.805 105.667 344.823 105.589C344.85 105.484 344.894 105.4 344.919 105.313C344.848 105.413 344.766 105.628 344.731 105.774C344.702 105.914 344.695 106.055 344.718 106.195C344.725 106.227 344.734 106.279 344.752 106.302C344.763 106.172 344.786 105.893 344.85 105.797C344.827 105.984 344.827 106.03 344.841 106.211C344.85 106.101 344.837 105.994 344.871 105.873C344.868 105.959 344.905 106.154 344.937 106.211C344.942 106.126 344.926 106.067 344.944 105.962C344.962 106.048 344.946 106.154 344.992 106.231C344.99 106.176 344.98 106.126 344.978 106.069C344.976 106.021 344.971 105.927 345.006 105.889C345.006 105.952 345.008 106.051 345.047 106.101C345.047 106.007 345.031 105.927 345.033 105.825C345.04 105.662 345.056 105.676 345.092 105.562C345.092 105.626 345.056 105.763 345.051 105.877C345.049 105.982 345.06 106.058 345.081 106.147C345.086 106.138 345.115 105.806 345.127 105.747C345.147 105.63 345.175 105.493 345.243 105.42C345.234 105.48 345.166 105.644 345.14 105.765C345.092 105.994 345.127 105.984 345.124 106.142C345.14 106.035 345.131 105.886 345.175 105.777C345.163 105.914 345.177 105.968 345.186 106.085C345.195 106.012 345.186 105.923 345.198 105.831C345.211 105.735 345.264 105.608 345.264 105.608C345.262 105.713 345.193 105.998 345.225 106.101C345.236 106.083 345.273 105.971 345.289 105.941C345.353 105.795 345.447 105.649 345.529 105.53C345.46 105.669 345.328 105.882 345.291 106.035C345.303 105.994 345.367 105.891 345.392 105.847C345.428 105.788 345.474 105.733 345.508 105.685L345.335 106.012C345.408 105.907 345.698 105.582 345.824 105.509C345.794 105.548 345.748 105.587 345.712 105.628C345.629 105.719 345.456 105.909 345.401 106.01C345.431 105.987 345.456 105.952 345.485 105.923C345.556 105.854 345.639 105.754 345.716 105.694L345.744 105.678C345.723 105.713 345.675 105.758 345.648 105.793C345.618 105.825 345.579 105.863 345.556 105.898C345.618 105.868 345.778 105.685 345.856 105.64L345.814 105.704C345.906 105.619 345.986 105.523 346.107 105.48C346.091 105.5 346.075 105.507 346.057 105.523C346.027 105.553 345.952 105.642 345.929 105.653C345.984 105.624 346.157 105.457 346.271 105.418C346.223 105.477 346.148 105.516 346.102 105.58C346.214 105.528 346.308 105.439 346.418 105.384C346.388 105.418 346.351 105.425 346.324 105.466C346.39 105.448 346.438 105.393 346.505 105.375L346.445 105.434C346.5 105.409 346.548 105.368 346.6 105.345C346.623 105.333 346.603 105.34 346.628 105.336L346.562 105.4C346.623 105.379 346.687 105.322 346.756 105.304C346.747 105.313 346.749 105.311 346.74 105.317C346.738 105.32 346.731 105.324 346.731 105.324L346.685 105.352C346.685 105.354 346.68 105.356 346.68 105.356C346.678 105.359 346.676 105.365 346.674 105.363C346.674 105.361 346.671 105.365 346.669 105.368C346.708 105.365 346.884 105.333 346.914 105.32C346.973 105.295 347.046 105.24 347.115 105.228C347.103 105.237 347.089 105.247 347.073 105.256L347.035 105.285C347.078 105.276 347.14 105.251 347.185 105.238C347.528 105.137 348.054 105.167 348.392 105.253C348.602 105.306 348.812 105.425 348.997 105.516C349.118 105.573 349.484 105.767 349.578 105.797L349.553 105.774C349.543 105.767 349.543 105.767 349.532 105.761L349.411 105.674C349.358 105.637 349.306 105.598 349.256 105.557L348.956 105.306C348.801 105.183 348.595 105.087 348.408 105.007C348.355 104.984 348.25 104.952 348.209 104.922L348.369 104.952C348.118 104.835 347.855 104.87 347.604 104.84C347.622 104.835 347.647 104.829 347.67 104.824C347.681 104.822 347.693 104.822 347.706 104.817L347.736 104.806C347.663 104.801 347.567 104.815 347.492 104.824C347.412 104.817 347.311 104.835 347.252 104.833Z" fill="#121313"/>
<path fill-rule="evenodd" clip-rule="evenodd" d="M345.896 106.237C346.204 106.189 346.485 106.491 346.522 106.914C346.559 107.338 346.339 107.722 346.028 107.773C345.72 107.823 345.439 107.519 345.402 107.096C345.364 106.674 345.585 106.288 345.896 106.237Z" fill="#4B5E85"/>
<path fill-rule="evenodd" clip-rule="evenodd" d="M346.029 107.773C346.34 107.723 346.559 107.339 346.525 106.914C346.486 106.49 346.205 106.186 345.896 106.238C345.766 106.259 345.652 106.341 345.565 106.458L345.606 106.444C345.709 106.428 345.798 106.526 345.81 106.663C345.821 106.803 345.75 106.926 345.65 106.942C345.547 106.958 345.458 106.86 345.446 106.723L345.444 106.693C345.405 106.816 345.387 106.956 345.398 107.102C345.44 107.52 345.718 107.824 346.029 107.773Z" fill="#125AA3"/>
<path d="M343.902 112.001C343.623 112.001 343.376 111.953 343.237 111.823C343.146 111.738 343.107 111.628 343.125 111.505C343.285 110.438 343.404 109.595 343.497 108.485C343.502 108.437 343.543 108.398 343.591 108.398C343.593 108.398 343.596 108.398 343.6 108.398C343.651 108.403 343.689 108.446 343.687 108.501C343.596 109.618 343.475 110.463 343.315 111.535C343.306 111.597 343.322 111.644 343.365 111.686C343.539 111.848 344.066 111.857 344.67 111.715C344.679 111.713 344.686 111.713 344.692 111.713C344.736 111.713 344.775 111.743 344.784 111.784C344.795 111.834 344.763 111.887 344.715 111.898C344.453 111.957 344.162 112.001 343.902 112.001Z" fill="#F08261"/>
<path fill-rule="evenodd" clip-rule="evenodd" d="M346.888 113.855C344.923 115.359 343.516 115.605 342.666 114.593C345.2 114.317 346.607 114.07 346.888 113.855Z" fill="white"/>
<path fill-rule="evenodd" clip-rule="evenodd" d="M33.5771 117.219C26.1945 119.891 21.4601 120.15 19.3694 117.993C17.2444 117.5 15.862 115.615 15.2177 112.344C13.0196 107.362 14.9001 99.4055 17.9916 103.346C20.5484 96.8082 30.8032 100.6 36.5863 96.9727C40.096 99.2638 38.7616 104.931 36.239 106.85C36.335 113.372 35.9785 116.856 33.5771 117.219Z" fill="#121313"/>
<path fill-rule="evenodd" clip-rule="evenodd" d="M16.3237 104.062C17.1189 103.447 17.3794 102.775 17.096 102.047C15.869 101.359 14.7037 101.336 13.6001 101.981C14.2696 102.017 15.179 102.714 16.3237 104.062Z" fill="#121313"/>
<path fill-rule="evenodd" clip-rule="evenodd" d="M17.8452 102.346C17.2785 102.981 16.7553 103.12 16.2823 102.766C15.9876 101.569 16.1612 100.516 16.7987 99.6094C16.7187 100.219 17.0683 101.131 17.8452 102.346Z" fill="#121313"/>
<path fill-rule="evenodd" clip-rule="evenodd" d="M21.7478 105.076C20.3562 104.53 19.3029 104.713 18.5923 105.627C18.6471 107.712 19.7302 111.906 21.389 112.82C21.6769 112.619 21.6084 108.208 21.7478 105.076Z" fill="#284191"/>
<path fill-rule="evenodd" clip-rule="evenodd" d="M22.2689 103.061C19.9177 104.203 19.1431 105.231 19.9405 106.147C23.489 106.67 26.8867 106.288 30.1313 104.995C28.1777 105.183 25.5546 104.536 22.2689 103.061Z" fill="#284191"/>
<path fill-rule="evenodd" clip-rule="evenodd" d="M36.0676 106.578C33.4079 103.892 28.3857 103.568 21.4646 106.094C17.0867 105.009 16.1019 102.985 17.9504 99.6956C20.5644 95.0447 26.2173 98.7225 33.1474 94.3457C32.8847 97.7448 43.1965 100.657 36.0676 106.578Z" fill="#121313"/>
<path fill-rule="evenodd" clip-rule="evenodd" d="M19.4266 108.864C21.2614 108.472 21.0901 112.243 20.9507 114.112C20.6765 117.785 16.5362 109.477 19.4266 108.864Z" fill="#FFB27D"/>
<path fill-rule="evenodd" clip-rule="evenodd" d="M9.65819 278.536C6.20795 277.323 5.93148 275.546 4.07155 274.678C2.19791 273.805 1.98313 272.247 3.81335 270.557C5.16603 271.635 6.84316 272.964 7.72971 272.261C8.32379 271.792 10.3345 271.822 10.7344 272.507C12.4869 276.578 14.9227 275.287 15.4048 277.142C15.4642 279.607 11.2416 279.095 9.65819 278.536Z" fill="#284191"/>
<path fill-rule="evenodd" clip-rule="evenodd" d="M39.2823 278.661C32.9142 278.558 28.1547 278.481 25.9544 277.789C23.5826 277.039 24.0739 275.591 25.4357 273.279C31.4382 276.039 29.8365 272.713 32.6469 273.135C34.6188 274.725 37.5412 275.788 41.4096 276.327C43.0456 277.533 42.383 278.604 39.2823 278.661Z" fill="#284191"/>
<path fill-rule="evenodd" clip-rule="evenodd" d="M17.2788 124.161C18.2956 124.234 19.8996 124.038 20.1852 123.677C21.266 122.304 22.0155 120.872 22.2919 119.969C22.0817 119.369 21.8601 118.61 21.6316 117.692C17.7129 115.031 17.1783 113.062 20.023 111.785C20.5965 112.107 21.3094 113.098 22.1594 114.759C22.838 114.729 23.3544 114.384 23.704 113.717C22.8952 110.917 22.3696 108.639 22.1251 106.892C24.0559 104.023 28.5709 103.614 34.5506 104.386C34.827 105.978 35.0555 107.661 35.2337 109.443C35.9763 110.129 38.1425 121.591 30.7964 122.057C30.7484 122.898 30.8261 123.926 30.881 124.045C30.9678 124.225 31.2717 124.399 31.6898 124.55C31.8018 128.456 26.9989 128.326 17.2788 124.161Z" fill="#FFB27D"/>
<path fill-rule="evenodd" clip-rule="evenodd" d="M34.5501 104.388C28.5728 103.616 24.0555 104.022 22.1247 106.894C22.3692 108.641 22.8947 110.919 23.7036 113.719C23.354 114.387 22.8376 114.734 22.159 114.761C21.309 113.1 20.5961 112.109 20.0226 111.787C17.1755 113.064 17.7102 115.033 21.6311 117.694C21.8596 118.61 22.0813 119.371 22.2915 119.972C18.7681 119.181 15.8183 116.031 15.4002 114.665C11.2896 106.56 15.8754 103.141 18.3294 101.891C19.4102 93.8686 31.0656 100.959 36.9059 97.0918C39.2274 100.297 36.3598 104.317 34.5501 104.388Z" fill="#121313"/>
<path fill-rule="evenodd" clip-rule="evenodd" d="M70.4282 138.373C67.4692 151.038 62.2733 160.867 54.8382 167.862C52.1603 167.049 49.7794 165.217 47.7069 162.368C47.8143 171.528 47.5858 180.647 47.0192 189.723C41.5925 192.295 34.3881 192.131 25.4038 189.225L21.7593 184.736C20.8225 184.556 18.6975 185.588 17.6762 187.165C9.14655 180.654 3.39311 173.659 0 166.708C0.91397 151.776 2.94527 139.991 6.08704 131.36C7.67506 128.918 11.4063 126.52 17.2786 124.16C26.9987 128.325 31.8039 128.455 31.6873 124.551C34.5458 125.49 38.3387 127.15 43.0662 129.531C47.0055 132.523 50.362 140.635 53.1359 153.868C57.6441 148.217 62.3259 142.227 67.1745 135.895C68.2484 136.196 69.336 137.026 70.4282 138.373ZM19.7966 180.691C22.6253 171.391 21.0624 159.919 15.1125 146.275C13.6159 153.007 11.9959 159.634 10.257 166.153C12.2746 167.113 15.4552 171.958 19.7966 180.691Z" fill="#3D5887"/>
<path fill-rule="evenodd" clip-rule="evenodd" d="M19.3692 192.455C20.7493 192.348 22.9679 191.153 26.0343 188.871C35.0186 191.777 42.223 191.941 47.6497 189.369C48.6139 204.644 44.8598 220.66 40.0934 238.51C35.4253 246.347 35.6241 251.857 33.1358 269.938C31.7557 270.922 29.4731 270.781 26.2902 269.508C25.2803 254.091 25.9772 243.887 29.9781 238.133C29.352 232.963 30.988 220.258 31.0657 212.281C28.157 218.766 26.1577 227.533 22.3647 236.383C17.7446 247.158 14.5297 258.692 12.094 269.214C9.51658 269.714 7.10141 269.419 4.84619 268.327C7.43501 251.035 10.3026 239.133 13.4512 232.625C13.3278 215.621 14.9478 200.352 18.3067 186.811C18.935 188.412 19.2892 190.292 19.3692 192.455Z" fill="#121313"/>
<path fill-rule="evenodd" clip-rule="evenodd" d="M25.4036 189.226C22.3372 191.508 20.1162 192.703 18.7384 192.81C18.6562 190.647 18.3043 188.764 17.6782 187.165C18.6973 185.592 20.8246 184.557 21.7614 184.737L25.4036 189.226Z" fill="#FFB27D"/>
<path fill-rule="evenodd" clip-rule="evenodd" d="M47.7067 162.368C47.4097 153.471 46.6945 146.177 45.5635 140.484C48.4425 152.569 51.2324 160.589 53.9332 164.543C55.64 164.49 57.8015 163.479 60.4178 161.509C58.7246 163.837 56.8624 165.955 54.838 167.862C52.1601 167.049 49.7792 165.217 47.7067 162.368Z" fill="#213C6D"/>
<path fill-rule="evenodd" clip-rule="evenodd" d="M21.7595 184.737C21.234 183.444 20.5827 182.094 19.7944 180.689C22.6232 171.39 21.0603 159.918 15.1104 146.273C23.7656 158.575 26.2219 171.689 22.4747 185.617L21.7595 184.737Z" fill="#213C6D"/>
<path fill-rule="evenodd" clip-rule="evenodd" d="M26.8662 121.234C27.8213 121.707 29.1306 121.981 30.794 122.059C30.762 122.623 30.7849 123.27 30.8237 123.672C29.1511 123.352 27.8304 122.536 26.8662 121.234Z" fill="#F08261"/>
<path fill-rule="evenodd" clip-rule="evenodd" d="M26.0392 273.545C26.3591 272.492 26.4802 271.359 26.4025 270.143C28.8314 271.016 30.6822 271.169 31.9617 270.602C31.8955 271.502 31.9983 272.334 32.2702 273.099C30.0607 273.022 31.0683 275.697 26.0392 273.545ZM9.98989 272.051C9.22444 271.85 8.14138 271.934 7.73238 272.259C6.93951 272.887 5.51143 271.893 4.25244 270.902C4.47179 270.306 4.65002 269.652 4.79168 268.939C6.30659 269.577 7.8969 269.86 9.55575 269.792C9.53519 270.698 9.67685 271.45 9.98989 272.051Z" fill="#FFB27D"/>
<path fill-rule="evenodd" clip-rule="evenodd" d="M18.6475 194.981C18.7457 194.195 18.7754 193.473 18.7389 192.811C20.119 192.703 22.3376 191.509 25.404 189.227C26.1329 189.462 26.8481 189.679 27.5518 189.878C25.3994 192.121 22.4267 193.823 18.6475 194.981Z" fill="#3B5BB3"/>
<path fill-rule="evenodd" clip-rule="evenodd" d="M70.4284 138.374C70.6089 137.924 71.3423 136.515 72.0575 134.756C73.8352 133.842 75.2519 131.85 76.3143 128.776C75.6791 126.713 74.3402 125.424 72.2929 124.908C71.6005 127.458 70.5678 129.331 69.1968 130.528C69.5373 127.869 69.0986 127.035 67.883 128.026C68.0498 128.364 68.0589 128.796 67.9081 129.315C67.0855 130.658 67.1587 132.191 68.1297 133.909C67.7573 134.683 67.3552 135.466 67.1724 135.894C68.2783 136.25 69.3111 137.02 70.4284 138.374Z" fill="#FFB27D"/>
<path fill-rule="evenodd" clip-rule="evenodd" d="M68.1956 120.166L75.1921 118.576C75.9004 118.414 76.611 118.862 76.7732 119.57L80.1184 134.295C80.2806 135.005 79.8327 135.713 79.1221 135.875L72.128 137.465C71.4174 137.625 70.7068 137.178 70.5445 136.469L67.1994 121.745C67.0395 121.036 67.4873 120.326 68.1956 120.166Z" fill="#121313"/>
<path fill-rule="evenodd" clip-rule="evenodd" d="M69.1965 130.527C70.0488 128.474 69.0983 127.034 67.8827 128.026C68.0495 128.364 68.0587 128.796 67.9078 129.314C67.3869 130.166 67.2269 131.094 67.4234 132.092L69.1965 130.527Z" fill="#FFB27D"/>
<path fill-rule="evenodd" clip-rule="evenodd" d="M33.696 102.412C34.5985 103.107 34.8887 103.867 34.5688 104.69C33.1841 105.466 31.868 105.491 30.6182 104.765C31.379 104.722 32.405 103.936 33.696 102.412Z" fill="#121313"/>
<path fill-rule="evenodd" clip-rule="evenodd" d="M32.2175 124.727C32.1649 125.439 32.0187 125.917 31.7582 126.431V126.433C31.3926 127.148 30.8328 127.667 30.0788 127.987C29.3636 128.286 28.4862 128.4 27.4443 128.325C24.9834 128.151 20.9277 126.778 16.4492 124.501L17.7676 123.984C22.1181 126.196 25.2073 127.082 27.5197 127.246C28.3925 127.308 29.1077 127.224 29.6584 126.991C30.1633 126.776 30.5449 126.426 30.7917 125.942H30.794C30.9882 125.558 31.1184 124.875 31.1573 124.309L32.2175 124.727Z" fill="#213C6D"/>
<path fill-rule="evenodd" clip-rule="evenodd" d="M29.3155 131.61C30.4305 131.61 31.3399 130.863 31.3399 129.947C31.3399 129.028 30.4305 128.281 29.3155 128.281C28.2004 128.281 27.291 129.028 27.291 129.947C27.291 130.863 28.2004 131.61 29.3155 131.61Z" fill="#213C6D"/>
<path fill-rule="evenodd" clip-rule="evenodd" d="M29.8939 131.84C30.6456 131.735 31.3242 132.151 31.4088 132.768C31.4956 133.387 30.9564 133.972 30.2023 134.075C29.4506 134.18 28.772 133.764 28.6874 133.145C28.6029 132.53 29.1421 131.946 29.8939 131.84Z" fill="#213C6D"/>
<path fill-rule="evenodd" clip-rule="evenodd" d="M27.3209 109.232C26.8365 109.232 26.4458 109.623 26.4458 110.107C26.4458 110.589 26.8365 110.982 27.3209 110.982C27.8053 110.982 28.1938 110.589 28.1938 110.107C28.1938 109.623 27.803 109.232 27.3209 109.232Z" fill="#4B5E85"/>
<path fill-rule="evenodd" clip-rule="evenodd" d="M27.3209 110.982C26.8365 110.982 26.4458 110.592 26.4458 110.105C26.4458 109.623 26.8365 109.232 27.3209 109.232C27.522 109.232 27.7094 109.299 27.8602 109.415L27.7916 109.406C27.6362 109.406 27.5083 109.532 27.5083 109.689C27.5083 109.847 27.6362 109.973 27.7916 109.973C27.9493 109.973 28.0772 109.847 28.0772 109.689L28.0727 109.657C28.1526 109.788 28.1961 109.941 28.1961 110.105C28.1961 110.589 27.803 110.982 27.3209 110.982Z" fill="#213C6D"/>
<path fill-rule="evenodd" clip-rule="evenodd" d="M28.2164 108.56C28.237 108.576 28.2553 108.588 28.2713 108.606C28.2416 108.528 28.1365 108.43 28.0953 108.368C28.1342 108.398 28.1593 108.405 28.2004 108.453C28.237 108.494 28.2621 108.54 28.2918 108.59C28.2895 108.528 28.2644 108.492 28.253 108.439C28.285 108.476 28.3147 108.553 28.3238 108.601C28.301 108.425 28.2964 108.439 28.2141 108.279C28.2941 108.323 28.3627 108.476 28.3832 108.565C28.3946 108.526 28.3924 108.476 28.3878 108.423C28.4244 108.48 28.4289 108.51 28.4335 108.569L28.4746 108.501C28.4701 108.542 28.4586 108.553 28.4563 108.588C28.5363 108.514 28.6666 108.272 28.6368 108.158C28.6277 108.208 28.6026 108.302 28.5774 108.336C28.5797 108.252 28.6003 108.156 28.5752 108.062C28.5592 108.124 28.5729 108.206 28.5637 108.275C28.5523 108.343 28.534 108.425 28.5043 108.471C28.5157 108.327 28.5477 108.206 28.4906 108.055V108.094C28.4952 108.167 28.5066 108.247 28.4998 108.32C28.4678 108.192 28.4678 108.067 28.3489 107.982C28.3787 108.032 28.4061 108.064 28.4335 108.126C28.3672 108.074 28.3352 107.964 28.2347 107.962C28.2827 108.01 28.3261 108.037 28.3787 108.103C28.4198 108.156 28.4815 108.245 28.4655 108.316C28.3787 108.083 28.2301 107.968 28.061 107.943C28.109 107.962 28.2576 108.048 28.2758 108.106V108.115C28.2735 108.181 28.2621 108.058 28.2735 108.131C28.3078 108.151 28.3512 108.199 28.3764 108.236C28.3924 108.261 28.4061 108.288 28.4198 108.318C28.4266 108.329 28.4335 108.355 28.4358 108.368C28.4403 108.382 28.4381 108.382 28.4381 108.393V108.409C28.3741 108.252 28.3124 108.172 28.1959 108.092C28.125 108.046 27.9582 107.964 27.8668 107.962C27.8691 107.964 27.8714 107.964 27.8737 107.966L27.9537 107.996C28.1433 108.071 28.3284 108.165 28.4061 108.387C28.3946 108.377 28.4061 108.389 28.3901 108.371C28.3855 108.364 28.3832 108.364 28.3809 108.357C28.333 108.295 28.2873 108.229 28.2278 108.176C28.1639 108.124 28.0862 108.071 28.0222 108.042C27.9354 108.003 27.6635 107.932 27.5309 107.959C27.5721 107.95 27.8257 108.003 27.8691 108.016C27.9651 108.046 28.0885 108.085 28.1639 108.17C28.125 108.163 28.0816 108.14 28.0428 108.126C27.8051 108.046 27.3893 107.932 27.1539 107.968C27.3047 107.984 27.5218 108.03 27.6406 108.083L27.5469 108.074C27.5744 108.083 27.5949 108.096 27.6246 108.106C27.6543 108.115 27.6726 108.122 27.7023 108.135C27.8326 108.195 28.0336 108.297 28.1136 108.428C28.0793 108.398 28.0313 108.371 27.9902 108.343C27.9445 108.313 27.908 108.288 27.8623 108.263C27.7777 108.217 27.684 108.163 27.5926 108.131C27.4007 108.06 27.2179 108.003 27.0077 107.98C27.0374 107.989 27.0671 107.996 27.0945 108.021C26.9277 108.032 26.6398 107.923 26.2171 107.948C26.3085 107.968 26.4593 107.966 26.5644 107.987L26.6627 108.014C26.6078 108.021 26.4228 107.991 26.3474 107.984C25.9795 107.952 25.751 107.927 25.3648 107.971C25.1135 107.998 24.8804 108.021 24.6428 108.151C24.4874 108.238 24.3435 108.334 24.2201 108.457C24.1767 108.503 24.1561 108.533 24.1218 108.572C24.2178 108.512 24.4189 108.27 24.6337 108.199C24.3138 108.434 24.0624 108.636 23.8499 108.926C23.9116 108.878 23.9939 108.782 24.0579 108.72C24.1333 108.649 24.2064 108.585 24.2864 108.519C24.428 108.403 24.6588 108.245 24.8462 108.174C24.805 108.215 24.6908 108.286 24.6359 108.325C24.2407 108.606 23.8636 108.921 23.5255 109.268C23.4843 109.309 23.4067 109.41 23.377 109.435C23.4158 109.414 23.5575 109.275 23.6054 109.234C23.8591 109.019 24.099 108.821 24.4234 108.69C24.3435 108.768 23.7654 109.072 23.594 109.266L24.0853 108.951C24.2338 108.864 24.4897 108.72 24.6611 108.679C24.4669 108.738 23.7357 109.165 23.594 109.312C23.6717 109.277 23.7837 109.197 23.8682 109.149C23.9665 109.095 24.0647 109.044 24.1653 108.992C24.3732 108.891 24.5948 108.802 24.821 108.747C25.1249 108.674 25.4174 108.647 25.719 108.647C25.8058 108.647 25.9224 108.656 26.0046 108.649C25.9521 108.624 25.8035 108.629 25.7487 108.626C25.5728 108.617 25.3968 108.622 25.2232 108.638C25.1546 108.645 25.013 108.674 24.9558 108.672C25.1569 108.599 25.326 108.601 25.4996 108.56C25.4837 108.56 25.4905 108.562 25.4745 108.56C25.4585 108.553 25.4654 108.556 25.454 108.551C25.5613 108.528 25.7807 108.549 25.8835 108.56C26.0069 108.578 26.2605 108.649 26.2742 108.649C26.2422 108.629 26.2125 108.62 26.1874 108.597L26.489 108.638L26.112 108.54C26.1851 108.542 26.2879 108.569 26.3588 108.581C26.4479 108.594 26.633 108.62 26.7129 108.642C26.8112 108.672 26.9894 108.674 27.0877 108.667C27.0511 108.652 26.9277 108.629 26.8752 108.617L26.6718 108.569C26.6353 108.56 26.6033 108.556 26.569 108.54C26.4707 108.501 26.3725 108.476 26.2742 108.448C26.0937 108.398 25.5819 108.3 25.4083 108.371C25.6345 108.27 26.1303 108.371 26.3062 108.418L26.7152 108.542C26.7541 108.549 26.7815 108.562 26.8181 108.572C26.9186 108.601 27.0214 108.633 27.1242 108.654L27.1151 108.631C27.1151 108.631 27.1151 108.629 27.1128 108.626C27.1128 108.626 27.1128 108.624 27.1128 108.622C27.1105 108.622 27.1105 108.62 27.1105 108.62C27.1471 108.636 27.2545 108.667 27.3025 108.667C27.1973 108.588 26.9529 108.54 26.8592 108.43C26.9437 108.448 27.0465 108.51 27.1265 108.551C27.1562 108.567 27.1836 108.576 27.2111 108.588C27.1357 108.482 26.9963 108.398 26.8889 108.334L26.7655 108.277C26.8615 108.272 26.9871 108.355 27.0648 108.412C27.1448 108.469 27.2156 108.537 27.2842 108.608C27.2933 108.617 27.291 108.617 27.2979 108.622C27.3139 108.633 27.307 108.629 27.3184 108.631L27.2133 108.487C27.2339 108.517 27.3664 108.626 27.3756 108.667C27.355 108.588 27.2956 108.53 27.2545 108.469L27.3162 108.503C27.2111 108.359 26.9826 108.27 26.8363 108.188C26.9734 108.188 27.2339 108.35 27.3344 108.466C27.3824 108.521 27.4213 108.59 27.4647 108.636L27.4098 108.519C27.4121 108.521 27.4167 108.521 27.4167 108.524L27.4875 108.592C27.4236 108.446 27.3413 108.373 27.2408 108.286C27.2819 108.291 27.3139 108.316 27.3482 108.341C27.3779 108.366 27.4121 108.393 27.4395 108.428C27.4967 108.496 27.5492 108.572 27.5926 108.658C27.5949 108.62 27.5629 108.556 27.5447 108.514C27.5721 108.521 27.5469 108.512 27.5744 108.526C27.6201 108.549 27.652 108.608 27.6795 108.645L27.6543 108.556L27.7252 108.64C27.7023 108.558 27.6726 108.514 27.6452 108.446C27.6977 108.476 27.7274 108.537 27.7594 108.599C27.7663 108.569 27.748 108.524 27.7343 108.492L27.812 108.558C27.8326 108.581 27.8531 108.608 27.8737 108.631C27.844 108.551 27.8051 108.512 27.764 108.455C27.8463 108.496 27.8805 108.567 27.9445 108.64C27.9194 108.549 27.8394 108.419 27.7823 108.366C27.8668 108.373 27.9377 108.585 27.9834 108.626L27.9719 108.533C27.9811 108.537 27.9765 108.533 27.9879 108.544L28.0473 108.633L28.0313 108.512C28.0656 108.542 28.077 108.581 28.1022 108.626C28.0999 108.622 28.093 108.524 28.0702 108.471C28.0885 108.48 28.0748 108.469 28.0976 108.487C28.1365 108.517 28.157 108.567 28.1936 108.599L28.1456 108.508C28.157 108.512 28.1502 108.508 28.1662 108.517L28.2164 108.56Z" fill="#121313"/>
<path fill-rule="evenodd" clip-rule="evenodd" d="M33.2936 108.42C33.7757 108.42 34.1664 108.811 34.1664 109.295C34.1664 109.779 33.7757 110.17 33.2936 110.17C32.8092 110.17 32.4185 109.779 32.4185 109.295C32.4185 108.813 32.8115 108.42 33.2936 108.42Z" fill="#4B5E85"/>
<path fill-rule="evenodd" clip-rule="evenodd" d="M33.2934 110.17C33.7778 110.17 34.1686 109.779 34.1686 109.295C34.1686 108.811 33.7778 108.42 33.2934 108.42C33.0924 108.42 32.9027 108.486 32.7542 108.603L32.8204 108.594C32.9781 108.594 33.1038 108.719 33.1038 108.877C33.1038 109.034 32.9781 109.16 32.8204 109.16C32.6651 109.16 32.5371 109.034 32.5371 108.877L32.5394 108.845C32.4594 108.975 32.416 109.128 32.416 109.293C32.4183 109.779 32.8113 110.17 33.2934 110.17Z" fill="#213C6D"/>
<path fill-rule="evenodd" clip-rule="evenodd" d="M31.6323 108.315C31.6163 108.335 31.6026 108.347 31.5889 108.37C31.6026 108.287 31.678 108.173 31.7054 108.105C31.6757 108.139 31.6551 108.153 31.6254 108.207C31.598 108.255 31.5843 108.303 31.566 108.361C31.5569 108.299 31.5751 108.258 31.5751 108.201C31.5523 108.246 31.5409 108.326 31.5432 108.376C31.5317 108.201 31.5363 108.212 31.5843 108.041C31.5226 108.098 31.486 108.26 31.4837 108.354C31.4632 108.317 31.4586 108.267 31.454 108.217C31.4312 108.281 31.4335 108.308 31.4426 108.37L31.3946 108.308C31.4038 108.349 31.4175 108.356 31.4243 108.39C31.3398 108.331 31.1867 108.121 31.189 108.002C31.205 108.05 31.2461 108.139 31.2735 108.164C31.2575 108.082 31.2233 107.993 31.2255 107.895C31.2553 107.954 31.2553 108.038 31.2735 108.102C31.2964 108.169 31.3261 108.244 31.3604 108.283C31.3238 108.143 31.2781 108.032 31.301 107.874L31.3101 107.91C31.3192 107.984 31.3192 108.066 31.3398 108.134C31.3467 108.002 31.3261 107.879 31.4152 107.771C31.3969 107.828 31.3786 107.863 31.3672 107.931C31.4152 107.865 31.4266 107.751 31.5112 107.73C31.4769 107.783 31.4449 107.821 31.4083 107.895C31.3809 107.952 31.3421 108.052 31.3695 108.118C31.4061 107.872 31.518 107.732 31.662 107.673C31.6231 107.703 31.5066 107.817 31.4997 107.874L31.502 107.883C31.5157 107.947 31.5066 107.824 31.5066 107.897C31.4792 107.924 31.4518 107.981 31.438 108.02C31.4289 108.048 31.4175 108.077 31.4129 108.107C31.4106 108.121 31.4061 108.148 31.4061 108.159C31.4061 108.173 31.4061 108.173 31.4083 108.185L31.4129 108.201C31.4426 108.036 31.4815 107.942 31.5729 107.844C31.6277 107.783 31.7602 107.673 31.8379 107.652C31.8379 107.655 31.8333 107.657 31.8333 107.657L31.7671 107.7C31.614 107.812 31.4655 107.938 31.4358 108.171C31.4449 108.162 31.4358 108.175 31.4472 108.15C31.4495 108.143 31.4495 108.143 31.4518 108.139C31.4815 108.068 31.5134 107.995 31.5569 107.933C31.6026 107.867 31.662 107.801 31.7145 107.76C31.7831 107.707 32.0116 107.582 32.1327 107.586C32.0961 107.588 31.879 107.684 31.8448 107.707C31.7648 107.755 31.6643 107.817 31.6094 107.915C31.6414 107.901 31.6757 107.869 31.7077 107.849C31.9065 107.725 32.2515 107.534 32.464 107.527C32.336 107.57 32.1509 107.655 32.0573 107.728L32.1372 107.7C32.1144 107.714 32.0984 107.73 32.0733 107.746C32.0504 107.762 32.0321 107.773 32.0116 107.792C31.9065 107.874 31.7465 108.013 31.6962 108.155C31.7214 108.123 31.7579 108.086 31.7899 108.05C31.8219 108.013 31.8539 107.984 31.8882 107.947C31.9544 107.885 32.0276 107.817 32.103 107.767C32.2606 107.662 32.4114 107.57 32.5919 107.508C32.5691 107.522 32.544 107.538 32.5257 107.566C32.6742 107.543 32.9095 107.383 33.2843 107.326C33.2066 107.367 33.0741 107.392 32.9849 107.431L32.9027 107.476C32.953 107.472 33.1129 107.408 33.1769 107.387C33.4922 107.287 33.6887 107.221 34.0406 107.186C34.2645 107.166 34.4724 107.145 34.7055 107.227C34.8586 107.282 35.0002 107.351 35.1305 107.447C35.1762 107.483 35.199 107.508 35.2356 107.54C35.1419 107.499 34.9226 107.301 34.7215 107.273C35.0437 107.442 35.3019 107.593 35.5326 107.835C35.4709 107.801 35.3841 107.723 35.3156 107.673C35.2356 107.618 35.1602 107.568 35.0779 107.52C34.934 107.433 34.7055 107.319 34.5295 107.287C34.573 107.317 34.6826 107.367 34.7398 107.394C35.1351 107.595 35.5189 107.833 35.8777 108.109C35.9188 108.141 36.0033 108.226 36.0376 108.246C35.9988 108.235 35.8502 108.123 35.8 108.093C35.5395 107.931 35.295 107.78 34.9888 107.716C35.0734 107.778 35.6332 107.965 35.8182 108.125L35.3316 107.908C35.1853 107.849 34.9363 107.76 34.7786 107.751C34.9591 107.773 35.6766 108.05 35.8251 108.169C35.7497 108.148 35.64 108.091 35.5555 108.061C35.4595 108.027 35.3658 107.995 35.2653 107.965C35.0642 107.904 34.8563 107.86 34.6484 107.847C34.3696 107.833 34.1046 107.865 33.8395 107.92C33.7664 107.936 33.6613 107.968 33.5904 107.977C33.6316 107.942 33.7618 107.92 33.8098 107.906C33.9606 107.865 34.116 107.837 34.2736 107.819C34.3376 107.81 34.4679 107.815 34.5158 107.803C34.3239 107.769 34.18 107.803 34.0177 107.796C34.0314 107.792 34.0269 107.796 34.0383 107.789C34.052 107.78 34.0451 107.785 34.0543 107.776C33.9537 107.776 33.7687 107.835 33.6773 107.869C33.5722 107.91 33.362 108.027 33.3482 108.032C33.3734 108.006 33.3962 107.99 33.4145 107.965L33.1563 108.061L33.4716 107.895C33.4099 107.91 33.3254 107.958 33.2637 107.981C33.186 108.011 33.0306 108.07 32.9621 108.107C32.8798 108.153 32.7245 108.191 32.6353 108.203C32.6651 108.178 32.7702 108.137 32.8136 108.114L32.9849 108.027C33.0146 108.009 33.0444 107.997 33.0718 107.979C33.1517 107.922 33.234 107.879 33.314 107.833C33.4625 107.746 33.8966 107.556 34.0657 107.593C33.8486 107.538 33.4282 107.73 33.282 107.812L32.9438 108.011C32.9118 108.025 32.889 108.045 32.857 108.061C32.7747 108.109 32.6902 108.159 32.6011 108.198L32.6056 108.175V108.171C32.6056 108.171 32.6056 108.169 32.6056 108.166C32.6056 108.164 32.6079 108.164 32.6056 108.162C32.5759 108.187 32.4891 108.237 32.4457 108.246C32.5234 108.146 32.7313 108.052 32.7953 107.931C32.7267 107.963 32.6445 108.045 32.5805 108.1C32.5577 108.118 32.5325 108.132 32.5142 108.15C32.5622 108.032 32.6696 107.924 32.7542 107.84L32.8524 107.76C32.7656 107.773 32.6719 107.879 32.6125 107.949C32.5508 108.018 32.5028 108.102 32.4503 108.185C32.4434 108.194 32.4457 108.194 32.4411 108.201C32.4297 108.217 32.4343 108.21 32.4251 108.214L32.4914 108.052C32.48 108.084 32.3794 108.219 32.3772 108.262C32.384 108.18 32.4251 108.114 32.4503 108.045L32.4023 108.093C32.4685 107.931 32.6582 107.799 32.7724 107.691C32.6536 107.719 32.4503 107.929 32.3817 108.061C32.3497 108.125 32.3292 108.201 32.2972 108.253L32.3246 108.13C32.3246 108.13 32.32 108.132 32.32 108.134L32.2698 108.217C32.3017 108.061 32.3612 107.974 32.4343 107.869C32.4 107.881 32.3749 107.913 32.3474 107.945C32.3223 107.974 32.2995 108.011 32.2812 108.048C32.2401 108.125 32.2081 108.207 32.1852 108.301C32.1761 108.265 32.1944 108.196 32.2035 108.15C32.1784 108.162 32.1989 108.148 32.1784 108.169C32.1418 108.198 32.1235 108.262 32.1052 108.306L32.1121 108.212L32.0641 108.308C32.071 108.223 32.0915 108.175 32.103 108.102C32.0595 108.141 32.0436 108.207 32.0276 108.276C32.0184 108.246 32.0253 108.201 32.0298 108.164L31.975 108.244C31.9613 108.271 31.9453 108.303 31.9316 108.329C31.943 108.246 31.9727 108.203 31.9979 108.137C31.9316 108.191 31.9133 108.267 31.8745 108.354C31.879 108.258 31.927 108.116 31.9704 108.054C31.8973 108.077 31.8699 108.299 31.8379 108.349L31.8311 108.253C31.8242 108.262 31.8265 108.258 31.8196 108.271L31.7808 108.37L31.7762 108.249C31.7488 108.285 31.7465 108.324 31.7305 108.374C31.7328 108.367 31.7214 108.271 31.7351 108.214C31.7191 108.223 31.7305 108.212 31.7145 108.235C31.6848 108.271 31.6757 108.324 31.6483 108.363L31.6734 108.262C31.6643 108.271 31.6688 108.265 31.6574 108.274L31.6323 108.315Z" fill="#121313"/>
<path d="M31.0404 114.695C30.997 114.695 30.9536 114.674 30.9239 114.637C30.8713 114.571 30.8827 114.475 30.949 114.42C31.0541 114.329 31.2255 114.343 31.454 114.366C31.703 114.386 32.0161 114.416 32.1714 114.274C32.2537 114.199 32.2948 114.075 32.2948 113.897C32.272 113.587 30.9147 110.56 30.6451 110.343C30.5788 110.293 30.5697 110.197 30.62 110.13C30.6725 110.064 30.7639 110.053 30.8325 110.105C31.1775 110.377 32.5964 113.564 32.5964 113.897C32.5964 114.162 32.5233 114.363 32.3771 114.498C32.1212 114.729 31.7213 114.697 31.4265 114.667C31.3192 114.658 31.1706 114.644 31.1341 114.66C31.1021 114.683 31.0701 114.695 31.0404 114.695Z" fill="#FC9774"/>
<path fill-rule="evenodd" clip-rule="evenodd" d="M33.9197 116.93C32.1214 117.519 32.0872 117.437 29.8502 117.414C29.0665 117.405 29.7885 117.718 30.6728 118.026C32.3134 118.6 34.091 117.969 34.0133 116.973L33.9197 116.93Z" fill="white"/>
<path fill-rule="evenodd" clip-rule="evenodd" d="M163.536 60.2085C155.571 60.2085 149.114 53.753 149.114 45.7921C149.114 37.8266 155.571 31.3733 163.536 31.3733C171.502 31.371 177.959 37.8266 177.959 45.7921C177.959 53.753 171.502 60.2085 163.536 60.2085ZM189.731 47.9531C189.788 47.2381 189.827 46.5185 189.827 45.7898C189.827 45.0611 189.788 44.3415 189.731 43.6265C180.623 40.7665 179.04 37.0613 183.511 28.7098C182.622 27.6727 181.656 26.7064 180.619 25.8201C172.265 30.2883 168.559 28.7075 165.7 19.6021C164.985 19.5427 164.263 19.5039 163.536 19.5039C162.805 19.5039 162.086 19.5427 161.373 19.6021C158.512 28.7052 154.806 30.2883 146.454 25.8201C145.417 26.7064 144.45 27.675 143.564 28.7098C148.033 37.0613 146.45 40.7665 137.342 43.6265C137.285 44.3415 137.246 45.0611 137.246 45.7898C137.246 46.5208 137.285 47.2403 137.342 47.9531C146.447 50.8108 148.033 54.5183 143.564 62.8698C144.45 63.9069 145.419 64.8732 146.454 65.7572C154.806 61.289 158.512 62.8721 161.373 71.9775C162.088 72.0368 162.808 72.0734 163.536 72.0734C164.265 72.0734 164.987 72.0368 165.7 71.9775C168.559 62.8744 172.267 61.2913 180.619 65.7572C181.656 64.8709 182.622 63.9046 183.511 62.8698C179.04 54.5205 180.623 50.8108 189.731 47.9531Z" fill="#F9DA2F"/>
<path fill-rule="evenodd" clip-rule="evenodd" d="M182.026 61.5974C181.201 62.5591 180.308 63.4546 179.348 64.2747C171.616 60.1377 168.184 61.6043 165.538 70.0312C164.875 70.0837 164.21 70.1203 163.534 70.1203C162.858 70.1203 162.191 70.0837 161.53 70.0312C158.884 61.6043 155.452 60.1377 147.72 64.2747C146.761 63.4546 145.867 62.5591 145.045 61.5997C149.183 53.8695 147.716 50.4384 139.284 47.7932C139.232 47.133 139.197 46.466 139.197 45.7898C139.197 45.1159 139.229 44.4489 139.284 43.7864C147.716 41.1434 149.183 37.7124 145.045 29.9799C145.867 29.0182 146.761 28.125 147.72 27.3026C155.452 31.4396 158.884 29.9753 161.53 21.5461C162.191 21.4936 162.858 21.4593 163.534 21.4593C164.21 21.4593 164.875 21.4936 165.538 21.5461C168.184 29.9753 171.616 31.4396 179.348 27.3026C180.308 28.125 181.201 29.0205 182.024 29.9799C177.886 37.7101 179.353 41.1412 187.782 43.7864C187.837 44.4489 187.869 45.1159 187.869 45.7898C187.869 46.466 187.834 47.133 187.782 47.7932C179.355 50.4384 177.888 53.8695 182.026 61.5974ZM189.731 47.9531C189.788 47.2381 189.827 46.5185 189.827 45.7898C189.827 45.0611 189.788 44.3415 189.731 43.6265C180.623 40.7665 179.04 37.0613 183.511 28.7098C182.622 27.6727 181.656 26.7064 180.619 25.8201C172.265 30.2883 168.559 28.7075 165.7 19.6021C164.985 19.5427 164.263 19.5039 163.536 19.5039C162.805 19.5039 162.086 19.5427 161.373 19.6021C158.512 28.7052 154.806 30.2883 146.454 25.8201C145.417 26.7064 144.45 27.675 143.564 28.7098C148.033 37.0613 146.45 40.7665 137.342 43.6265C137.285 44.3415 137.246 45.0611 137.246 45.7898C137.246 46.5208 137.285 47.2403 137.342 47.9531C146.447 50.8108 148.033 54.5183 143.564 62.8698C144.45 63.9069 145.419 64.8732 146.454 65.7572C154.806 61.289 158.512 62.8721 161.373 71.9775C162.088 72.0368 162.808 72.0734 163.536 72.0734C164.265 72.0734 164.987 72.0368 165.7 71.9775C168.559 62.8744 172.267 61.2913 180.619 65.7572C181.656 64.8709 182.622 63.9046 183.511 62.8698C179.04 54.5205 180.623 50.8108 189.731 47.9531Z" fill="#4B5E85"/>
<path fill-rule="evenodd" clip-rule="evenodd" d="M163.536 56.3139C157.721 56.3139 153.007 51.6013 153.007 45.7877C153.007 39.974 157.721 35.2614 163.536 35.2614C169.349 35.2614 174.063 39.974 174.063 45.7877C174.061 51.6036 169.349 56.3139 163.536 56.3139ZM163.536 33.0273C156.485 33.0273 150.771 38.7405 150.771 45.7899C150.771 52.8371 156.485 58.5503 163.536 58.5503C170.588 58.5503 176.302 52.8371 176.302 45.7899C176.302 38.7428 170.588 33.0273 163.536 33.0273Z" fill="#4B5E85"/>
<path fill-rule="evenodd" clip-rule="evenodd" d="M215.171 77.3533C209.539 77.3533 204.974 72.7915 204.974 67.1628C204.974 61.532 209.539 56.9701 215.171 56.9701C220.801 56.9701 225.364 61.5342 225.364 67.1628C225.364 72.7915 220.799 77.3533 215.171 77.3533ZM233.686 68.6911C233.727 68.1862 233.752 67.6768 233.752 67.1628C233.752 66.6466 233.725 66.1395 233.686 65.6323C227.249 63.6107 226.128 60.9906 229.29 55.0878C228.664 54.3546 227.981 53.6715 227.245 53.0433C221.341 56.2026 218.72 55.0833 216.7 48.6483C216.195 48.6072 215.683 48.582 215.169 48.582C214.65 48.582 214.143 48.6094 213.638 48.6483C211.616 55.0833 208.995 56.2049 203.091 53.0433C202.358 53.6715 201.672 54.3546 201.046 55.0878C204.206 60.9906 203.086 63.613 196.65 65.6323C196.609 66.1372 196.583 66.6466 196.583 67.1628C196.583 67.6768 196.611 68.1862 196.65 68.6933C203.086 70.7127 204.206 73.3328 201.046 79.2356C201.672 79.9688 202.358 80.6519 203.091 81.2801C208.993 78.1208 211.616 79.2401 213.638 85.6751C214.143 85.7162 214.65 85.7414 215.169 85.7414C215.683 85.7414 216.193 85.714 216.7 85.6751C218.72 79.2401 221.341 78.1185 227.245 81.2801C227.978 80.6519 228.664 79.9711 229.29 79.2356C226.13 73.3306 227.249 70.7127 233.686 68.6911Z" fill="#F9DA2F"/>
<path fill-rule="evenodd" clip-rule="evenodd" d="M228.241 78.3378C227.661 79.0163 227.028 79.649 226.347 80.2293C220.881 77.3053 218.455 78.3424 216.586 84.2977C216.117 84.3365 215.644 84.3616 215.169 84.3616C214.692 84.3616 214.219 84.3365 213.75 84.2977C211.879 78.3424 209.454 77.3053 203.989 80.2293C203.313 79.649 202.677 79.0163 202.097 78.3355C205.022 72.8737 203.984 70.4454 198.028 68.5769C197.989 68.1086 197.964 67.638 197.964 67.1606C197.964 66.6831 197.989 66.2126 198.028 65.7443C203.984 63.8734 205.024 61.4474 202.097 55.9833C202.677 55.3048 203.31 54.6744 203.989 54.0919C209.454 57.0181 211.879 55.981 213.75 50.0234C214.216 49.9846 214.692 49.9595 215.169 49.9595C215.644 49.9595 216.115 49.9846 216.586 50.0234C218.455 55.981 220.881 57.0181 226.347 54.0919C227.026 54.6721 227.656 55.3048 228.241 55.9833C225.316 61.4474 226.351 63.8734 232.311 65.7443C232.349 66.2103 232.372 66.6831 232.372 67.1606C232.372 67.638 232.347 68.1063 232.311 68.5769C226.351 70.4477 225.314 72.8737 228.241 78.3378ZM233.686 68.6911C233.727 68.1862 233.752 67.6768 233.752 67.1628C233.752 66.6466 233.725 66.1395 233.686 65.6323C227.249 63.6107 226.128 60.9906 229.29 55.0878C228.664 54.3546 227.981 53.6715 227.245 53.0433C221.341 56.2026 218.72 55.0833 216.7 48.6483C216.195 48.6072 215.683 48.582 215.169 48.582C214.65 48.582 214.143 48.6094 213.638 48.6483C211.616 55.0833 208.995 56.2049 203.091 53.0433C202.358 53.6715 201.672 54.3546 201.046 55.0878C204.206 60.9906 203.086 63.613 196.65 65.6323C196.609 66.1372 196.583 66.6466 196.583 67.1628C196.583 67.6768 196.611 68.1862 196.65 68.6933C203.086 70.7127 204.206 73.3328 201.046 79.2356C201.672 79.9688 202.358 80.6519 203.091 81.2801C208.993 78.1208 211.616 79.2401 213.638 85.6751C214.143 85.7162 214.65 85.7414 215.169 85.7414C215.683 85.7414 216.193 85.714 216.7 85.6751C218.72 79.2401 221.341 78.1185 227.245 81.2801C227.978 80.6519 228.664 79.9711 229.29 79.2356C226.13 73.3306 227.249 70.7127 233.686 68.6911Z" fill="#4B5E85"/>
<path fill-rule="evenodd" clip-rule="evenodd" d="M215.171 74.6035C211.061 74.6035 207.727 71.273 207.727 67.1634C207.727 63.0539 211.059 59.7211 215.171 59.7211C219.28 59.7211 222.613 63.0516 222.613 67.1634C222.611 71.273 219.28 74.6035 215.171 74.6035ZM215.171 58.1426C210.186 58.1426 206.146 62.1813 206.146 67.1657C206.146 72.1479 210.183 76.1866 215.171 76.1866C220.155 76.1866 224.195 72.1479 224.195 67.1657C224.192 62.1813 220.153 58.1426 215.171 58.1426Z" fill="#4B5E85"/>
<path fill-rule="evenodd" clip-rule="evenodd" d="M175.411 75.9893L173.938 76.8437C173.442 77.1338 173.273 77.7734 173.561 78.2714L173.887 78.831C174.269 79.4889 174.105 79.7882 173.983 79.8933C173.657 80.1856 173.353 80.5055 173.047 80.8207C172.96 80.9144 172.674 81.2319 171.925 80.7956L171.413 80.4986C170.915 80.2108 170.275 80.3798 169.985 80.8778L169.128 82.3489C168.84 82.8446 169.009 83.4865 169.507 83.7766L170.012 84.0713C170.716 84.4802 170.698 84.6904 170.609 84.9873C170.485 85.3962 170.355 85.8028 170.266 86.2277C170.186 86.6024 170.222 86.8719 169.267 86.8719H168.682C168.107 86.8719 167.638 87.3402 167.638 87.9158V89.6177C167.638 90.1933 168.107 90.6616 168.682 90.6616H169.267C170.222 90.6616 170.186 90.9312 170.266 91.3081C170.355 91.7307 170.485 92.1373 170.609 92.5462C170.698 92.8432 170.716 93.0533 170.012 93.4622L169.507 93.7569C169.009 94.0447 168.84 94.6866 169.128 95.1846L169.985 96.6557C170.275 97.1514 170.915 97.3228 171.413 97.0326L171.925 96.7357C172.674 96.2994 172.96 96.6192 173.047 96.7106C173.353 97.0281 173.657 97.3479 173.983 97.6403C174.105 97.7454 174.269 98.0446 173.887 98.7025L173.561 99.2622C173.273 99.7579 173.442 100.4 173.938 100.688L175.411 101.544C175.907 101.834 176.549 101.663 176.837 101.167L177.162 100.61C177.552 99.9406 177.934 99.968 178.096 100.018C178.565 100.167 179.001 100.263 179.483 100.391C179.661 100.439 179.965 100.567 179.965 101.364V101.962C179.965 102.538 180.431 103.004 181.007 103.004H182.712C183.288 103.004 183.756 102.538 183.756 101.962V101.364C183.756 100.567 184.058 100.439 184.236 100.391C184.72 100.265 185.154 100.169 185.623 100.018C185.785 99.968 186.167 99.9406 186.557 100.61L186.882 101.167C187.17 101.663 187.812 101.834 188.308 101.544L189.781 100.688C190.277 100.4 190.449 99.7579 190.158 99.2622L189.834 98.7025C189.448 98.0446 189.615 97.7454 189.736 97.6403C190.065 97.3456 190.366 97.0281 190.673 96.7106C190.762 96.6192 191.045 96.2994 191.794 96.7357L192.309 97.0326C192.804 97.3228 193.446 97.1514 193.734 96.6557L194.591 95.1846C194.879 94.6866 194.71 94.0447 194.214 93.7569L193.705 93.4622C193.003 93.0533 193.021 92.8432 193.111 92.5462C193.232 92.1373 193.364 91.7307 193.451 91.3081C193.533 90.9312 193.497 90.6616 194.452 90.6616H195.037C195.61 90.6616 196.079 90.1933 196.079 89.6177V87.9158C196.079 87.3402 195.61 86.8719 195.037 86.8719H194.452C193.497 86.8719 193.533 86.6024 193.451 86.2277C193.364 85.8028 193.232 85.3962 193.111 84.9873C193.021 84.6904 193.003 84.4802 193.705 84.0713L194.214 83.7766C194.71 83.4865 194.879 82.8446 194.591 82.3489L193.734 80.8778C193.446 80.3798 192.804 80.2108 192.309 80.4986L191.794 80.7956C191.045 81.2319 190.762 80.9144 190.673 80.8207C190.366 80.5055 190.065 80.1834 189.736 79.8933C189.615 79.7882 189.448 79.4889 189.834 78.831L190.158 78.2714C190.449 77.7734 190.277 77.1338 189.781 76.8437L188.308 75.9893C187.812 75.6992 187.17 75.8682 186.882 76.3662L186.557 76.9236C186.167 77.5929 185.785 77.5655 185.623 77.513C185.154 77.3645 184.718 77.2686 184.236 77.1406C184.058 77.0927 183.756 76.9647 183.756 76.1698V75.5713C183.756 74.9956 183.288 74.5273 182.712 74.5273H181.007C180.431 74.5273 179.965 74.9956 179.965 75.5713V76.1698C179.965 76.9647 179.661 77.0927 179.483 77.1406C178.999 77.2663 178.565 77.3622 178.096 77.513C177.934 77.5655 177.552 77.5929 177.162 76.9236L176.837 76.3662C176.552 75.8682 175.907 75.6992 175.411 75.9893ZM181.86 86.5178C183.103 86.5178 184.11 87.5229 184.11 88.7656C184.11 90.0083 183.103 91.0134 181.86 91.0134C180.619 91.0134 179.611 90.0083 179.611 88.7656C179.611 87.5229 180.619 86.5178 181.86 86.5178ZM174.813 88.7679C174.813 88.5029 175.028 88.2882 175.293 88.2882C175.56 88.2882 175.775 88.5029 175.775 88.7679C175.775 90.4492 176.456 91.9706 177.557 93.0716C178.658 94.1727 180.18 94.8534 181.86 94.8534C182.127 94.8534 182.342 95.0681 182.342 95.3331C182.342 95.6004 182.127 95.8151 181.86 95.8151C179.913 95.8151 178.153 95.027 176.874 93.7501C175.601 92.4754 174.813 90.7119 174.813 88.7679ZM188.817 87.6326C188.861 87.893 188.68 88.1397 188.42 88.1808C188.159 88.222 187.912 88.0438 187.871 87.7811C187.663 86.5087 187.06 85.3642 186.189 84.4848C185.317 83.603 184.179 82.9885 182.904 82.7692C182.643 82.7235 182.467 82.4768 182.513 82.2164C182.559 81.9537 182.808 81.7778 183.068 81.8235C184.544 82.0794 185.86 82.7898 186.87 83.8086C187.878 84.8274 188.577 86.1523 188.817 87.6326ZM181.86 80.4164C186.475 80.4164 190.213 84.1558 190.213 88.7679C190.213 93.38 186.475 97.1217 181.86 97.1217C177.249 97.1217 173.506 93.38 173.506 88.7679C173.506 84.1558 177.249 80.4164 181.86 80.4164Z" fill="#4B5E85"/>
<path fill-rule="evenodd" clip-rule="evenodd" d="M341.991 27.5703L325.289 40.8172L332.415 45.957L341.991 27.5703Z" fill="#F9DA2F"/>
<path fill-rule="evenodd" clip-rule="evenodd" d="M321.708 38.4583L341.425 27.7812L315.779 37.2704L321.708 38.4583Z" fill="#F9DA2F"/>
<path fill-rule="evenodd" clip-rule="evenodd" d="M321.708 38.4575L324.724 47.0374L325.288 40.8172L341.991 27.5703L341.425 27.7805L321.708 38.4575Z" fill="#4B5E85"/>
<path fill-rule="evenodd" clip-rule="evenodd" d="M324.724 47.0367L328.446 43.0916L325.288 40.8164L324.724 47.0367Z" fill="#4B5E85"/>
<path fill-rule="evenodd" clip-rule="evenodd" d="M320.294 43.6221C320.758 43.3594 321.103 44.0356 320.694 44.2709C320.481 44.4034 320.269 44.5359 320.061 44.6752C319.574 44.9516 319.256 44.2595 319.642 44.0379C319.857 43.8963 320.074 43.7569 320.294 43.6221ZM342.023 83.0293C341.905 83.5113 341.164 83.3354 341.288 82.842C341.352 82.6021 341.409 82.36 341.461 82.1155C341.591 81.597 342.318 81.8209 342.204 82.2754C342.147 82.5267 342.09 82.7803 342.023 83.0293ZM342.524 79.9568C342.524 80.4091 341.763 80.4662 341.763 79.9157C341.777 79.6713 341.786 79.4246 341.786 79.1779C341.786 78.673 342.547 78.6753 342.547 79.1733C342.547 79.4337 342.537 79.6964 342.524 79.9568ZM342.332 76.8341C342.396 77.3504 341.703 77.4578 341.582 76.9781C341.537 76.7405 341.484 76.4961 341.42 76.2631C341.297 75.7605 342.039 75.5983 342.156 76.0666C342.227 76.3179 342.284 76.5783 342.332 76.8341ZM341.34 73.8554C341.562 74.246 340.931 74.6777 340.659 74.1957C340.556 73.9901 340.435 73.7389 340.312 73.547C340.058 73.1015 340.728 72.7383 340.97 73.1609C341.102 73.3779 341.228 73.6292 341.34 73.8554ZM339.615 71.2444C339.946 71.6418 339.35 72.1124 339.039 71.7401C338.877 71.5528 338.715 71.3723 338.546 71.1941C338.201 70.8492 338.726 70.2964 339.089 70.6641C339.27 70.8537 339.444 71.0456 339.615 71.2444ZM337.355 69.0994C337.766 69.4443 337.248 70.0017 336.889 69.7024C336.695 69.5517 336.494 69.4009 336.29 69.2593C335.877 68.9646 336.325 68.3501 336.727 68.6379C336.937 68.7887 337.147 68.9418 337.355 69.0994ZM334.746 67.4158C335.205 67.6785 334.798 68.3227 334.387 68.0897C334.168 67.9709 333.946 67.8567 333.722 67.747C333.236 67.4706 333.674 66.8424 334.058 67.064C334.289 67.1782 334.517 67.2925 334.746 67.4158ZM331.926 66.1457C332.399 66.3216 332.127 67.032 331.661 66.8584L330.955 66.6072C330.457 66.4198 330.759 65.7208 331.2 65.8876C331.444 65.9675 331.686 66.0544 331.926 66.1457ZM328.976 65.2366C329.465 65.3599 329.278 66.0955 328.796 65.9744L328.065 65.8054C327.544 65.6774 327.768 64.9464 328.222 65.0607L328.976 65.2366ZM325.944 64.6655C326.438 64.7271 326.349 65.4833 325.846 65.4193L325.099 65.3302C324.583 65.2663 324.699 64.5147 325.179 64.5764C325.435 64.6038 325.691 64.6335 325.944 64.6655ZM322.887 64.4188C323.392 64.4827 323.346 65.1794 322.839 65.1794C322.583 65.1635 322.33 65.1498 322.074 65.1315C321.53 65.0629 321.681 64.316 322.131 64.3731L322.887 64.4188ZM319.88 64.1469C320.369 64.2086 320.287 64.9624 319.782 64.9008C319.526 64.8688 319.272 64.8322 319.019 64.7934C318.548 64.734 318.612 63.9756 319.133 64.0396C319.382 64.0784 319.631 64.1149 319.88 64.1469ZM316.93 63.6124C317.415 63.7357 317.232 64.4736 316.745 64.3502C316.494 64.2886 316.24 64.2269 315.993 64.1538C315.543 64.0396 315.685 63.2926 316.208 63.4228C316.444 63.4959 316.693 63.5553 316.93 63.6124ZM314.108 62.6781C314.552 62.8677 314.273 63.5781 313.795 63.3725C313.553 63.2652 313.318 63.1464 313.085 63.023C312.637 62.7649 313.028 62.1162 313.453 62.356C313.654 62.4702 313.896 62.5822 314.108 62.6781ZM311.691 61.0973C312.043 61.4468 311.51 61.9905 311.147 61.6296C310.955 61.4354 310.777 61.239 310.61 61.0242C310.318 60.6747 310.866 60.1425 311.218 60.5674C311.364 60.7547 311.526 60.9283 311.691 61.0973ZM310.338 58.6645C310.45 59.1122 309.724 59.3407 309.593 58.8153C309.541 58.5412 309.504 58.283 309.488 58.0043C309.488 57.4584 310.249 57.5132 310.249 57.9678C310.263 58.2054 310.29 58.4292 310.338 58.6645ZM310.507 55.8342C310.393 56.2911 309.648 56.1449 309.776 55.6263C309.845 55.3728 309.929 55.1215 310.018 54.8748C310.197 54.4019 310.907 54.6738 310.734 55.1398C310.651 55.3682 310.574 55.6012 310.507 55.8342ZM311.691 53.1433C311.446 53.5682 310.779 53.2027 311.033 52.7572C311.138 52.5493 311.314 52.2958 311.442 52.0925C311.664 51.7064 312.358 52.0262 312.079 52.5082C311.965 52.675 311.778 52.9651 311.691 53.1433ZM313.395 50.6945C313.064 51.0896 312.491 50.5894 312.804 50.2147C312.964 50.0137 313.133 49.8173 313.3 49.6208C313.61 49.2485 314.207 49.7213 313.875 50.1188C313.715 50.3107 313.551 50.5003 313.395 50.6945ZM315.413 48.4741C315.061 48.8259 314.52 48.2913 314.878 47.9304C315.057 47.7545 315.246 47.5603 315.431 47.3959C315.765 47.0624 316.329 47.5763 315.955 47.951C315.77 48.1223 315.589 48.2959 315.413 48.4741ZM317.645 46.4616C317.271 46.7768 316.773 46.1989 317.166 45.8699L317.767 45.3902C318.125 45.091 318.644 45.6484 318.233 45.991C318.036 46.1326 317.835 46.3062 317.645 46.4616Z" fill="#4B5E85"/>
<path fill-rule="evenodd" clip-rule="evenodd" d="M120.603 37.377L101.86 52.2389L109.857 58.0091L120.603 37.377Z" fill="#F9DA2F"/>
<path fill-rule="evenodd" clip-rule="evenodd" d="M97.8451 49.5927L119.968 37.6113L91.1914 48.2563L97.8451 49.5927Z" fill="#F9DA2F"/>
<path fill-rule="evenodd" clip-rule="evenodd" d="M97.8452 49.5936L101.227 59.2221L101.86 52.2389L120.603 37.377L119.968 37.6122L97.8452 49.5936Z" fill="#4B5E85"/>
<path fill-rule="evenodd" clip-rule="evenodd" d="M101.227 59.2215L105.402 54.7945L101.86 52.2383L101.227 59.2215Z" fill="#4B5E85"/>
<path fill-rule="evenodd" clip-rule="evenodd" d="M98.0303 57.0038C98.5352 56.7137 98.0851 56.0399 97.6624 56.282C97.4156 56.4076 97.1734 56.5401 96.9312 56.6772C96.4697 56.9422 96.8695 57.648 97.3357 57.383C97.5664 57.2483 97.7949 57.1272 98.0303 57.0038ZM34.009 68.8139C33.6365 68.3661 33.0493 68.9281 33.3601 69.3027L33.8605 69.9515C34.2169 70.3809 34.8224 69.8418 34.498 69.4489L34.009 68.8139ZM36.0586 71.2673C35.661 70.8721 35.1103 71.4683 35.4691 71.8269C35.6564 72.0279 35.8484 72.2244 36.0426 72.4186C36.415 72.7932 36.9931 72.2221 36.6138 71.8429C36.4242 71.6533 36.2414 71.4637 36.0586 71.2673ZM38.3801 73.4625C37.9711 73.1244 37.4524 73.7435 37.8614 74.0861C38.0739 74.2643 38.2864 74.4379 38.5012 74.607C38.885 74.9245 39.4357 74.3306 38.9993 73.9673C38.7891 73.8006 38.5834 73.6338 38.3801 73.4625ZM40.9506 75.3585C40.4411 75.0661 40.0937 75.7994 40.5119 76.0392C40.7427 76.1877 40.9757 76.3339 41.2111 76.4756C41.6909 76.7497 42.0748 76.0347 41.6269 75.7788C41.3984 75.6418 41.1722 75.5024 40.9506 75.3585ZM43.7336 76.9187C43.2058 76.6926 42.9293 77.4555 43.384 77.652C43.6308 77.7708 43.8799 77.8873 44.1312 77.9992C44.6339 78.2117 44.9424 77.4601 44.458 77.2545C44.2135 77.1449 43.9735 77.0329 43.7336 76.9187ZM46.6903 78.1294C46.2242 77.9535 45.8975 78.6959 46.4321 78.897C46.6903 78.986 46.9531 79.0706 47.2136 79.1528C47.7802 79.2944 47.9196 78.4949 47.4512 78.3761C47.193 78.2962 46.9394 78.2139 46.6903 78.1294ZM49.7704 78.9792C49.286 78.8581 49.0461 79.6348 49.6013 79.7719C49.8709 79.829 50.1406 79.8815 50.4102 79.934C50.9974 80.0049 51.0294 79.1962 50.5541 79.1368C50.2936 79.0866 50.0286 79.034 49.7704 78.9792ZM52.9304 79.4749C52.4255 79.4109 52.293 80.2127 52.8482 80.2836C53.1224 80.311 53.3943 80.3338 53.6708 80.3544C54.1415 80.4138 54.3105 79.6188 53.7233 79.5457L52.9304 79.4749ZM56.1271 79.6257C55.6015 79.6257 55.5901 80.4366 56.1362 80.4366C56.4104 80.4366 56.6823 80.4297 56.9565 80.4229C57.4592 80.4229 57.498 79.6142 56.9268 79.6142C56.6617 79.6211 56.3944 79.6257 56.1271 79.6257ZM59.3237 79.4475C58.7799 79.516 58.8964 80.3178 59.4128 80.2561C59.6847 80.2264 59.9566 80.1945 60.2262 80.1579C60.7449 80.0917 60.6603 79.2876 60.1188 79.3538C59.8538 79.3881 59.5887 79.4201 59.3237 79.4475ZM62.486 78.9449C61.9353 79.0843 62.1707 79.8587 62.6574 79.7376C62.9247 79.6805 63.1898 79.6211 63.4571 79.5571C63.9849 79.4246 63.777 78.6411 63.2674 78.7667C63.007 78.8307 62.7465 78.8901 62.486 78.9449ZM65.5775 78.1226C65.0428 78.3236 65.3696 79.066 65.8357 78.8924C66.0939 78.8056 66.3544 78.7211 66.6103 78.6297C67.1267 78.4355 66.8251 77.684 66.3361 77.8644C66.0848 77.9535 65.8311 78.038 65.5775 78.1226ZM68.5593 76.9713C68.0932 77.1723 68.3811 77.9307 68.8998 77.7068C69.1511 77.5926 69.3956 77.4761 69.6424 77.355C69.8754 77.2225 69.9097 77.0147 69.8389 76.8479L69.9714 76.8776C70.5609 76.9507 70.5906 76.1398 70.1176 76.0804C69.8595 76.0255 69.6058 75.9707 69.3499 75.9045C68.8358 75.7765 68.6347 76.5624 69.1534 76.6926L68.5593 76.9713ZM71.3744 75.4682C70.9516 75.7103 71.3035 76.4413 71.8085 76.1535C72.0415 76.0073 72.2746 75.8565 72.5031 75.7034C72.951 75.3836 72.462 74.7349 72.0416 75.0364C71.8199 75.1849 71.5983 75.3288 71.3744 75.4682ZM73.922 73.579C73.5382 73.8988 74.0249 74.5499 74.4659 74.1821C74.6738 74.0016 74.8749 73.8097 75.0691 73.6156C75.4529 73.2318 74.8726 72.6653 74.5001 73.0376C74.3105 73.2204 74.1208 73.4031 73.922 73.579ZM76.0196 71.2421C75.7226 71.6602 76.3669 72.1513 76.6891 71.699C76.8513 71.4706 76.9998 71.2307 77.1415 70.9863C77.4066 70.5203 76.7005 70.1205 76.4355 70.5842C76.3075 70.8081 76.1681 71.0297 76.0196 71.2421ZM77.3014 68.453C77.1781 68.9418 77.9595 69.1748 78.0943 68.6266C78.1583 68.3456 78.204 68.0715 78.2383 67.7836C78.3022 67.272 77.5002 67.1486 77.4294 67.6968C77.3997 67.955 77.3609 68.1994 77.3014 68.453ZM77.2603 65.4445C77.3791 65.9196 78.1789 65.7757 78.0372 65.2115C77.9572 64.9351 77.8727 64.6678 77.7607 64.4005C77.5482 63.9094 76.8033 64.2292 77.0135 64.7181C77.1141 64.9511 77.1895 65.2023 77.2603 65.4445ZM75.8437 62.701C76.2024 63.135 76.7942 62.637 76.4972 62.2213C76.3349 61.9951 76.1658 61.7758 75.9922 61.5611C75.6449 61.1431 75.0302 61.6708 75.3638 62.0728C75.5306 62.2784 75.686 62.4885 75.8437 62.701ZM73.7118 60.4189C74.0957 60.7387 74.6464 60.1448 74.2077 59.7793C73.986 59.6034 73.7621 59.4458 73.5268 59.2859C73.0081 58.9912 72.6699 59.7313 73.0812 59.9644C73.3005 60.1083 73.5062 60.259 73.7118 60.4189ZM70.9951 59.0164C71.5274 59.1488 71.708 58.3585 71.2007 58.2328C70.9242 58.1574 70.6409 58.1003 70.3576 58.0592C69.8138 57.9907 69.7292 58.7971 70.2479 58.861C70.4947 58.8976 70.7529 58.9501 70.9951 59.0164ZM67.9653 58.9295C68.5182 58.7902 68.2806 58.0158 67.7962 58.1369C67.5197 58.1917 67.2386 58.2648 66.9713 58.3516C66.4846 58.5344 66.6788 59.2562 67.2227 59.1237C67.4626 59.0438 67.7185 58.9798 67.9653 58.9295ZM65.1411 60.1288C65.5958 59.8022 65.1022 59.1603 64.6864 59.4549C64.451 59.6148 64.2271 59.777 64.0055 59.9552C63.5828 60.3047 64.1152 60.9169 64.515 60.5857C64.7115 60.4235 64.9309 60.2727 65.1411 60.1288ZM62.8722 62.2441C63.192 61.8626 62.598 61.3098 62.2324 61.7484C62.0587 61.9723 61.8988 62.1962 61.7411 62.4337C61.4464 62.9477 62.1844 63.2903 62.4197 62.8746C62.5591 62.6599 62.7145 62.4497 62.8722 62.2441ZM61.371 64.9602C61.5515 64.4782 60.802 64.1698 60.6055 64.6906C60.5095 64.9556 60.4296 65.2275 60.3565 65.4993C60.2262 66.0224 61.0145 66.2143 61.1425 65.7003C61.211 65.4513 61.2841 65.2001 61.371 64.9602ZM60.8911 67.9892C60.8911 67.505 60.0823 67.4456 60.0823 68.0304C60.0937 68.3136 60.1188 68.5992 60.1645 68.8801C60.2262 69.3735 61.0351 69.3164 60.9665 68.7499C60.9231 68.5009 60.9003 68.2428 60.8911 67.9892ZM61.684 70.92C61.4075 70.4335 60.7175 70.8606 60.9711 71.3061C61.1036 71.5551 61.259 71.8086 61.4189 72.0394C61.732 72.478 62.3878 72.0028 62.0793 71.5711C61.9399 71.3655 61.8028 71.1393 61.684 70.92ZM63.6627 73.2524C63.2743 72.9303 62.7282 73.5288 63.1623 73.8897C63.384 74.0656 63.6056 74.2301 63.8387 74.3877C64.3277 74.6664 64.7115 74.0153 64.2911 73.7138C64.074 73.5676 63.8661 73.4123 63.6627 73.2524ZM66.3635 74.8423C65.8586 74.6252 65.5592 75.3791 66.0345 75.5824C66.2858 75.6943 66.5395 75.8017 66.7931 75.909C67.2958 76.0964 67.5882 75.3654 67.0947 75.1552C66.8502 75.057 66.608 74.9519 66.3635 74.8423ZM72.462 76.3271C72.7225 76.3271 72.9852 76.3248 73.2457 76.3065C73.721 76.2471 73.8855 77.0421 73.3005 77.1152C73.0241 77.1334 72.743 77.1357 72.4643 77.1357C71.9273 77.138 71.9273 76.3271 72.462 76.3271ZM75.5603 75.9227C75.0691 76.0461 75.2313 76.8388 75.7797 76.704C76.0402 76.6377 76.3235 76.5418 76.5794 76.4504C77.0935 76.2563 76.7942 75.5047 76.3052 75.6852C76.0653 75.7697 75.8025 75.8633 75.5603 75.9227ZM78.4439 74.6983C77.9869 74.9588 78.3799 75.6692 78.8529 75.3996C79.0905 75.2626 79.3373 75.1164 79.5635 74.9633C79.9725 74.7303 79.6366 73.9902 79.118 74.2872C78.8986 74.4311 78.6701 74.5681 78.4439 74.6983ZM81.0282 72.8617C80.6214 73.1998 81.1356 73.828 81.5514 73.4808C81.7616 73.3049 81.965 73.1244 82.1706 72.9417C82.5522 72.6219 82.0678 71.9708 81.6268 72.3386C81.4326 72.5145 81.2315 72.6927 81.0282 72.8617ZM83.3496 70.6619C82.9886 71.0228 83.5416 71.6168 83.9346 71.2239L84.4967 70.6254C84.8691 70.1776 84.2088 69.7025 83.898 70.0771C83.7175 70.2713 83.537 70.47 83.3496 70.6619ZM85.4998 68.2634C85.1524 68.6791 85.7808 69.1908 86.119 68.7865L86.6422 68.1674C86.9872 67.7539 86.3612 67.2354 86.023 67.6443L85.4998 68.2634ZM87.5699 65.7734C87.2317 66.18 87.8487 66.7054 88.196 66.2897L88.7101 65.6638C89.0505 65.2572 88.4313 64.7341 88.0863 65.1475L87.5699 65.7734ZM89.6537 63.2744C89.3019 63.697 89.9348 64.2041 90.2707 63.802L90.7962 63.1921C91.1527 62.7627 90.5129 62.267 90.1861 62.6576L89.6537 63.2744ZM91.8404 60.8484C91.4748 61.2139 92.0323 61.8032 92.4231 61.4103L92.9852 60.8393C93.369 60.4555 92.7887 59.889 92.4162 60.2613L91.8404 60.8484ZM94.2304 58.596C93.8214 58.9364 94.3401 59.5577 94.7514 59.2174C94.9525 59.0483 95.1604 58.8747 95.3706 58.7171C95.8139 58.3493 95.2564 57.7577 94.8771 58.0729C94.66 58.242 94.4429 58.4179 94.2304 58.596Z" fill="#4B5E85"/>
<path fill-rule="evenodd" clip-rule="evenodd" d="M132.743 94.9815C131.554 96.56 129.665 97.5834 127.535 97.5834C123.939 97.5834 121.021 94.6686 121.021 91.0707C121.021 88.8298 122.154 86.8493 123.882 85.6797C123.061 86.7693 122.577 88.1239 122.577 89.5905C122.577 93.1883 125.495 96.1031 129.091 96.1031C130.444 96.1031 131.703 95.6897 132.743 94.9815Z" fill="white"/>
<path fill-rule="evenodd" clip-rule="evenodd" d="M127.4 84.248C129.276 84.248 130.974 85.0087 132.203 86.2377V86.24C133.433 87.469 134.193 89.1662 134.193 91.0417C134.193 92.9171 133.433 94.6144 132.203 95.8434C130.974 97.0723 129.276 97.833 127.4 97.833C125.522 97.833 123.824 97.0746 122.595 95.8434C121.366 94.6144 120.605 92.9171 120.605 91.0417C120.605 89.1662 121.366 87.469 122.595 86.2377C123.824 85.0087 125.524 84.248 127.4 84.248ZM131.808 86.6329C130.681 85.5044 129.121 84.8077 127.4 84.8077C125.678 84.8077 124.119 85.5067 122.99 86.6329C121.862 87.7591 121.165 89.3193 121.165 91.0417C121.165 92.7618 121.864 94.3197 122.99 95.4482C124.119 96.5766 125.678 97.2734 127.4 97.2734C129.121 97.2734 130.681 96.5766 131.808 95.4504V95.4482C132.937 94.3197 133.634 92.7618 133.634 91.0417C133.634 89.3193 132.937 87.7591 131.808 86.6329Z" fill="#4B5E85"/>
<path fill-rule="evenodd" clip-rule="evenodd" d="M256.549 64.0776C255.359 65.656 253.471 66.6771 251.34 66.6771C247.743 66.6771 244.825 63.7623 244.825 60.1668C244.825 57.9235 245.961 55.9453 247.688 54.7734C246.868 55.8631 246.381 57.2177 246.381 58.6865C246.381 62.2821 249.299 65.1969 252.896 65.1969C254.251 65.1946 255.507 64.7834 256.549 64.0776Z" fill="white"/>
<path fill-rule="evenodd" clip-rule="evenodd" d="M251.205 53.3418C253.081 53.3418 254.778 54.1025 256.008 55.3337H256.01C257.239 56.5627 258 58.26 258 60.1354C258 62.0131 257.239 63.7081 256.01 64.9371H256.008C254.778 66.1661 253.081 66.929 251.205 66.929C249.329 66.929 247.631 66.1684 246.399 64.9371C245.17 63.7081 244.412 62.0109 244.412 60.1354C244.412 58.26 245.17 56.5627 246.402 55.3337H246.399C247.631 54.1025 249.331 53.3418 251.205 53.3418ZM255.612 55.7244C254.486 54.5959 252.928 53.8992 251.205 53.8992C249.484 53.8992 247.926 54.5982 246.797 55.7266H246.795C245.668 56.8528 244.971 58.4107 244.971 60.1331C244.971 61.8532 245.668 63.4112 246.797 64.5396C247.926 65.6681 249.484 66.3671 251.205 66.3671C252.928 66.3671 254.486 65.6704 255.612 64.5419V64.5396C256.741 63.4112 257.438 61.8532 257.438 60.1331C257.438 58.4107 256.741 56.8528 255.612 55.7244Z" fill="#4B5E85"/>
<path fill-rule="evenodd" clip-rule="evenodd" d="M208.776 17.517C207.585 19.0955 205.698 20.1189 203.566 20.1189C199.97 20.1189 197.052 17.204 197.052 13.6062C197.052 11.363 198.185 9.38476 199.912 8.21289C199.094 9.30252 198.608 10.6594 198.608 12.126C198.608 15.7215 201.526 18.6386 205.122 18.6386C206.477 18.6386 207.734 18.2229 208.776 17.517Z" fill="white"/>
<path fill-rule="evenodd" clip-rule="evenodd" d="M203.434 6.7832C205.309 6.7832 207.007 7.54389 208.236 8.77286C209.466 10.0018 210.229 11.7014 210.229 13.5745C210.229 15.4523 209.468 17.1495 208.236 18.3785V18.3762C207.007 19.6052 205.309 20.3682 203.434 20.3682C201.555 20.3682 199.858 19.6075 198.628 18.3785C197.399 17.1495 196.638 15.4523 196.638 13.5745C196.638 11.6991 197.399 10.0018 198.628 8.77286C199.858 7.54389 201.555 6.7832 203.434 6.7832ZM207.839 9.16577C206.712 8.0373 205.154 7.34287 203.431 7.34287C201.711 7.34287 200.15 8.03959 199.021 9.16805C197.893 10.2942 197.196 11.8522 197.196 13.5745C197.196 15.2969 197.895 16.8549 199.021 17.981C200.15 19.1118 201.711 19.8085 203.431 19.8085C205.154 19.8085 206.712 19.1118 207.839 17.9833V17.9787C208.968 16.8526 209.665 15.2946 209.665 13.5723C209.665 11.8499 208.968 10.2919 207.839 9.16577Z" fill="#4B5E85"/>
<path fill-rule="evenodd" clip-rule="evenodd" d="M234.348 100.633C233.576 101.657 232.351 102.319 230.969 102.319C228.634 102.319 226.744 100.428 226.744 98.0953C226.744 96.6379 227.48 95.3564 228.599 94.5957C228.069 95.3038 227.752 96.1833 227.752 97.1336C227.752 99.4682 229.644 101.36 231.977 101.36C232.859 101.36 233.672 101.09 234.348 100.633Z" fill="white"/>
<path fill-rule="evenodd" clip-rule="evenodd" d="M230.882 93.666C232.098 93.666 233.201 94.1594 233.997 94.9567C234.794 95.7539 235.288 96.855 235.288 98.0725C235.288 99.2901 234.794 100.391 233.997 101.188C233.201 101.986 232.098 102.479 230.882 102.479C229.667 102.479 228.563 101.986 227.766 101.188C226.968 100.391 226.475 99.2901 226.475 98.0725C226.475 96.8572 226.968 95.7562 227.766 94.9567C228.563 94.1617 229.667 93.666 230.882 93.666ZM233.741 95.2125C233.009 94.4815 231.997 94.0292 230.882 94.0292C229.767 94.0292 228.755 94.4815 228.024 95.2148H228.022C227.29 95.9458 226.838 96.9577 226.838 98.0725C226.838 99.1873 227.29 100.199 228.024 100.932C228.755 101.666 229.767 102.118 230.882 102.118C231.997 102.118 233.009 101.666 233.741 100.932C234.474 100.199 234.929 99.1895 234.929 98.0725C234.929 96.9577 234.476 95.9458 233.741 95.2125Z" fill="#4B5E85"/>
</g>
<defs>
<clipPath id="clip0_670_1506">
<rect width="390" height="279" fill="white"/>
</clipPath>
</defs>
</svg>
