<svg width="79" height="79" viewBox="0 0 79 79" fill="none" xmlns="http://www.w3.org/2000/svg">
<g clip-path="url(#clip0_680_2113)">
<mask id="mask0_680_2113" style="mask-type:luminance" maskUnits="userSpaceOnUse" x="-84" y="0" width="163" height="84">
<path d="M79 0H0V79H79V0Z" fill="white"/>
<path d="M61.2927 26.3326C61.2927 24.2637 61.0044 22.262 60.4657 20.3655L62.9584 18.9264L57.643 9.71995L55.144 11.1626C52.3664 8.29857 48.8097 6.19504 44.8151 5.19366V2.3137H34.1843V5.19366C30.1897 6.19504 26.633 8.29857 23.8552 11.1626L21.3564 9.71995L16.041 18.9264L18.5337 20.3655C17.995 22.262 17.7067 24.2637 17.7067 26.3326C17.7067 28.4016 17.995 30.4033 18.5337 32.2998L16.041 33.7389L21.3564 42.9453L23.8552 41.5026C26.633 44.3667 30.1897 46.4702 34.1843 47.4716V50.3516H44.8151V47.4716C48.8097 46.4702 52.3664 44.3667 55.144 41.5026L57.643 42.9453L62.9584 33.7389L60.4657 32.2998C61.0044 30.4033 61.2927 28.4016 61.2927 26.3326Z" fill="white"/>
<path d="M47.7299 26.3334C47.7299 30.8782 44.0456 34.5625 39.5008 34.5625C34.9558 34.5625 31.2715 30.8782 31.2715 26.3334C31.2715 21.7886 34.9558 18.1043 39.5008 18.1043C44.0456 18.1043 47.7299 21.7886 47.7299 26.3334Z" fill="white"/>
<path d="M45.4154 26.3334C45.4154 29.6 42.7673 32.248 39.5008 32.248C36.234 32.248 33.586 29.6 33.5859 26.3334C33.5859 23.0669 36.234 20.4187 39.5008 20.4187C42.7674 20.4187 45.4154 23.0669 45.4154 26.3334ZM50.0443 26.3334C50.0443 20.5104 45.3238 15.7898 39.5008 15.7898C33.6776 15.7898 28.957 20.5103 28.957 26.3334C28.9571 32.1565 33.6776 36.877 39.5008 36.877C45.3238 36.8769 50.0443 32.1564 50.0443 26.3334Z" fill="black"/>
<path d="M73.3045 69.2051H52.666V33.5344H67.4785V49.3756L73.3045 51.0213V69.2051Z" fill="white"/>
<path d="M19.3014 81.3145C14.3127 81.3145 10.2539 77.2558 10.2539 72.2671C10.2539 67.2784 14.3127 63.2196 19.3014 63.2196C24.2901 63.2196 28.3489 67.2784 28.3489 72.2671C28.3489 77.2558 24.2901 81.3145 19.3014 81.3145Z" fill="white"/>
<path d="M19.3013 60.9051C13.0363 60.9051 7.93945 66.002 7.93945 72.2669C7.93945 78.5319 13.0363 83.6289 19.3013 83.6289C25.5662 83.6289 30.6631 78.5319 30.6631 72.2669C30.6631 66.002 25.5662 60.9051 19.3013 60.9051ZM19.3013 65.5341C23.0198 65.5341 26.0342 68.5485 26.0342 72.2669C26.0342 75.9855 23.0198 79 19.3013 79C15.5827 79 12.5684 75.9855 12.5684 72.2669C12.5684 68.5485 15.5827 65.5341 19.3013 65.5341Z" fill="black"/>
<path d="M31.2715 42.791L37.8549 47.7285L31.2715 52.666V42.791Z" fill="black"/>
<path d="M41.7123 47.7285L28.957 38.1621V57.2949L41.7123 47.7285ZM33.5859 47.42L33.9974 47.7286L33.5859 48.0372V47.42Z" fill="black"/>
<path d="M36.209 50.043V45.4141H1.64648V50.043H36.209Z" fill="black"/>
<path d="M73.3051 31.168V26.5391H0.771484V31.168H73.3051Z" fill="black"/>
<path d="M54.9805 70.7188V28.9556H50.3516V70.7188H54.9805Z" fill="black"/>
<path d="M59.6998 81.3145C54.7111 81.3145 50.6523 77.2558 50.6523 72.2671C50.6523 67.2784 54.7111 63.2196 59.6998 63.2196C64.6886 63.2196 68.7474 67.2784 68.7474 72.2671C68.7474 77.2558 64.6886 81.3145 59.6998 81.3145Z" fill="white"/>
<path d="M59.6997 60.9051C53.4348 60.9051 48.3379 66.002 48.3379 72.2669C48.3379 78.5319 53.4348 83.6289 59.6997 83.6289C65.9646 83.6289 71.0615 78.5319 71.0615 72.2669C71.0615 66.002 65.9646 60.9051 59.6997 60.9051ZM59.6997 65.5341C63.4183 65.5341 66.4326 68.5485 66.4326 72.2669C66.4326 75.9855 63.4183 79 59.6997 79C55.9811 79 52.9668 75.9855 52.9668 72.2669C52.9668 68.5485 55.9811 65.5341 59.6997 65.5341Z" fill="black"/>
</mask>
<g mask="url(#mask0_680_2113)">
<mask id="mask1_680_2113" style="mask-type:luminance" maskUnits="userSpaceOnUse" x="0" y="0" width="79" height="79">
<path d="M0 7.62939e-06H79V79H0V7.62939e-06Z" fill="white"/>
</mask>
<g mask="url(#mask1_680_2113)">
<path d="M61.2927 26.3326C61.2927 24.2637 61.0044 22.262 60.4657 20.3655L62.9584 18.9264L57.643 9.71995L55.144 11.1626C52.3664 8.29857 48.8097 6.19504 44.8151 5.19366V2.3137H34.1843V5.19366C30.1897 6.19504 26.633 8.29857 23.8552 11.1626L21.3564 9.71995L16.041 18.9264L18.5337 20.3655C17.995 22.262 17.7067 24.2637 17.7067 26.3326C17.7067 28.4016 17.995 30.4033 18.5337 32.2998L16.041 33.7389L21.3564 42.9453L23.8552 41.5026C26.633 44.3667 30.1897 46.4702 34.1843 47.4716V50.3516H44.8151V47.4716C48.8097 46.4702 52.3664 44.3667 55.144 41.5026L57.643 42.9453L62.9584 33.7389L60.4657 32.2998C61.0044 30.4033 61.2927 28.4016 61.2927 26.3326Z" fill="#F4C600"/>
<path d="M58.9778 26.3327C58.9778 28.1856 58.7196 29.9746 58.2388 31.6674L57.746 33.4024L59.7962 34.586L56.7952 39.7838L54.7381 38.5962L53.4821 39.8913C50.9968 42.4539 47.8176 44.3327 44.2517 45.2267L42.5001 45.6657V48.0371H36.4982V45.6657L34.7465 45.2267C31.1807 44.3327 28.0015 42.454 25.5161 39.8913L24.26 38.5962L22.2029 39.7838L19.2021 34.586L21.2523 33.4024L20.7596 31.6674C20.2788 29.9746 20.0206 28.1856 20.0206 26.3327C20.0206 24.4797 20.2788 22.6907 20.7596 20.9979L21.2523 19.263L19.2021 18.0793L22.2029 12.8816L24.26 14.0691L25.5161 12.774C28.0015 10.2114 31.1807 8.33261 34.7465 7.43869L36.4982 6.99953V4.62812H42.5001V6.99953L44.2517 7.43869C47.8176 8.33261 50.9968 10.2113 53.4821 12.7739L54.7381 14.0691L56.7952 12.8816L59.7962 18.0793L57.746 19.263L58.2388 20.9979C58.7196 22.6907 58.9778 24.4797 58.9778 26.3327ZM63.6067 26.3327C63.6067 24.6807 63.44 23.0656 63.1223 21.504L66.1195 19.7735L58.4897 6.55845L55.4874 8.29169C53.0838 6.16001 50.2494 4.50019 47.129 3.4597V-0.000789642H31.8693V3.45982C28.7489 4.50031 25.9144 6.15993 23.5107 8.29158L20.5087 6.55833L12.8789 19.7735L15.8759 21.504C15.5583 23.0656 15.3917 24.6807 15.3917 26.3327C15.3917 27.9846 15.5583 29.5997 15.8759 31.1614L12.8789 32.8917L20.5087 46.1069L23.5106 44.3738C25.9143 46.5054 28.7489 48.1651 31.8693 49.2056V52.666H47.129V49.2056C50.2494 48.1652 53.0838 46.5054 55.4874 44.3738L58.4897 46.1069L66.1195 32.8917L63.1223 31.1614C63.44 29.5997 63.6067 27.9846 63.6067 26.3327Z" fill="#F4C600"/>
<path d="M47.7299 26.3329C47.7299 30.8778 44.0456 29.4986 39.5008 29.4986C34.9558 29.4986 31.2715 30.8778 31.2715 26.3329C31.2715 21.7881 34.9558 18.1038 39.5008 18.1038C44.0456 18.1038 47.7299 21.7881 47.7299 26.3329Z" fill="#F4C600"/>
<path d="M45.4154 26.3334C45.4154 29.6 42.7673 32.248 39.5008 32.248C36.234 32.248 33.586 29.6 33.5859 26.3334C33.5859 23.0669 36.234 20.4187 39.5008 20.4187C42.7674 20.4187 45.4154 23.0669 45.4154 26.3334ZM50.0443 26.3334C50.0443 20.5104 45.3238 15.7898 39.5008 15.7898C33.6776 15.7898 28.957 20.5103 28.957 26.3334C28.9571 32.1565 33.6776 36.877 39.5008 36.877C45.3238 36.8769 50.0443 32.1564 50.0443 26.3334Z" fill="white"/>
<path d="M73.3045 69.2051H52.666V33.5344H67.4785V49.3756L73.3045 51.0213V69.2051Z" fill="#465F86"/>
<path d="M75.6189 71.5195V49.2702L69.793 47.6244V31.2199H50.3516V71.5195H75.6189ZM54.9805 35.8488H65.1641V51.1268L70.99 52.7727V66.8906H54.9805V35.8488Z" fill="#465F86"/>
<path d="M52.667 69.2051H5.69531V28.9569H52.667V69.2051Z" fill="#465F86"/>
<path d="M54.9814 71.5195V26.6424H3.38086V71.5195H54.9814ZM8.00977 31.2713H50.3525V66.8906H8.00977V31.2713Z" fill="#465F86"/>
<path d="M19.3014 81.3145C14.3127 81.3145 10.2539 77.2558 10.2539 72.2671C10.2539 67.2784 14.3127 63.2196 19.3014 63.2196C24.2901 63.2196 28.3489 67.2784 28.3489 72.2671C28.3489 77.2558 24.2901 81.3145 19.3014 81.3145Z" fill="#465F86"/>
<path d="M19.3013 60.9051C13.0363 60.9051 7.93945 66.002 7.93945 72.2669C7.93945 78.5319 13.0363 83.6289 19.3013 83.6289C25.5662 83.6289 30.6631 78.5319 30.6631 72.2669C30.6631 66.002 25.5662 60.9051 19.3013 60.9051ZM19.3013 65.5341C23.0198 65.5341 26.0342 68.5485 26.0342 72.2669C26.0342 75.9855 23.0198 79 19.3013 79C15.5827 79 12.5684 75.9855 12.5684 72.2669C12.5684 68.5485 15.5827 65.5341 19.3013 65.5341Z" fill="white"/>
<path d="M31.2715 42.791L37.8549 47.7285L31.2715 52.666V42.791Z" fill="white"/>
<path d="M41.7123 47.7285L28.957 38.1621V57.2949L41.7123 47.7285ZM33.5859 47.42L33.9974 47.7286L33.5859 48.0372V47.42Z" fill="white"/>
<path d="M36.209 50.043V45.4141H1.64648V50.043H36.209Z" fill="white"/>
<path d="M73.3051 31.168V26.5391H0.771484V31.168H34.5L40 33L43.5 31.168H73.3051Z" fill="white"/>
<path d="M54.9805 70.7188V28.9556H50.3516V70.7188H54.9805Z" fill="white"/>
<path d="M59.6979 81.3145C54.7092 81.3145 50.6504 77.2558 50.6504 72.2671C50.6504 67.2784 54.7092 63.2196 59.6979 63.2196C64.6866 63.2196 68.7454 67.2784 68.7454 72.2671C68.7454 77.2558 64.6866 81.3145 59.6979 81.3145Z" fill="#465F86"/>
<path d="M59.6997 60.9051C53.4348 60.9051 48.3379 66.002 48.3379 72.2669C48.3379 78.5319 53.4348 83.6289 59.6997 83.6289C65.9646 83.6289 71.0615 78.5319 71.0615 72.2669C71.0615 66.002 65.9646 60.9051 59.6997 60.9051ZM59.6997 65.5341C63.4183 65.5341 66.4326 68.5485 66.4326 72.2669C66.4326 75.9855 63.4183 79 59.6997 79C55.9811 79 52.9668 75.9855 52.9668 72.2669C52.9668 68.5485 55.9811 65.5341 59.6997 65.5341Z" fill="white"/>
</g>
</g>
</g>
<defs>
<clipPath id="clip0_680_2113">
<rect width="79" height="79" fill="white"/>
</clipPath>
</defs>
</svg>
