<svg width="123" height="84" viewBox="0 0 123 84" fill="none" xmlns="http://www.w3.org/2000/svg">
<g clip-path="url(#clip0_648_8733)">
<path d="M74.5135 12.2611V13.943L77.4275 25.7808L74.5135 42.6835L40.5275 45.4424L1.86182 42.6835L1.85941 42.6763C1.82098 42.5028 1.80176 42.3293 1.80176 42.151V26.7422C1.80176 26.4025 1.87383 26.0676 2.01076 25.7592L12.0405 3.23274C12.4754 2.2569 13.4964 1.68584 14.551 1.8256L48.3376 6.32172C48.4216 6.33136 48.5081 6.33859 48.5946 6.33859H66.9221C67.4002 6.33859 67.8686 6.48075 68.265 6.75061L73.4565 10.2637C74.1171 10.7118 74.5135 11.4612 74.5135 12.2611Z" fill="#3391EF"/>
<path d="M103.416 20.289H97.797L94.6643 23.431C94.2968 23.7997 93.7971 24.0069 93.2782 24.0069H90.5659C89.2399 24.0069 88.1636 22.9274 88.1636 21.5974V20.6191C88.1636 19.8601 87.8081 19.1469 87.2027 18.6915L83.9979 16.282C83.5823 15.9688 83.0778 15.8001 82.5565 15.8001H76.9158C75.5897 15.8001 74.5135 14.7207 74.5135 13.3906V31.486L89.999 34.1702L103.543 31.486C103.572 27.7151 103.503 23.9635 103.416 20.289Z" fill="#EBF6F7"/>
<path d="M74.5135 31.4863V42.6833L89.999 45.4422L103.07 42.6833C103.385 38.9702 103.515 35.2186 103.543 31.4863H74.5135Z" fill="#F44E4E"/>
<path d="M30.7572 65.0747C31.3674 65.0747 31.944 65.359 32.3139 65.8457L37.2099 72.2502C37.5799 72.7369 38.1564 73.0212 38.7666 73.0212H44.0758C44.7917 73.0212 45.4692 73.3417 45.9256 73.8935L52.0708 81.3195C52.5272 81.8713 53.2047 82.1894 53.9206 82.1894H55.3932C56.7193 82.1894 57.7956 81.1099 57.7956 79.7799V79.0185C57.7956 78.1221 58.2929 77.2981 59.0856 76.8836L68.0896 72.1707C68.4308 71.9899 68.8127 71.896 69.1995 71.896H71.388L85.2592 70.431C85.8718 70.431 86.4604 70.6671 86.9072 71.0888L91.6662 75.1849C94.7052 71.7249 96.0457 69.1082 97.8402 65.0747L64.2987 62.3809L30.7572 65.0747Z" fill="#EBF6F7"/>
<path d="M1.86182 42.6836L4.22572 53.336C4.26896 53.5239 4.33383 53.7071 4.41791 53.8781L63.7005 57.0298L101.437 53.8781C102.234 50.2253 102.748 46.4737 103.07 42.6836H1.86182Z" fill="#EBF6F7"/>
<path d="M4.41791 53.8789C4.53322 54.1126 4.68697 54.3295 4.87195 54.515L9.96732 59.6256C10.3349 59.9942 10.8346 60.2014 11.3535 60.2014H15.4254C15.9059 60.2014 16.3672 60.3773 16.7275 60.6978L21.095 64.5819C21.4553 64.9 21.9166 65.0759 22.397 65.0759H97.8403C99.4306 61.505 100.591 57.7462 101.437 53.8789H4.41791Z" fill="#F44E4E"/>
<path d="M121.198 8.30404V15.1205C121.198 15.5639 121.076 16 120.845 16.3783L118.462 20.2889L106.662 23.7803L97.797 20.2889L104.25 13.8146C104.641 13.4242 105.177 13.217 105.727 13.2411L107.988 13.3447C108.651 13.3736 109.285 13.0652 109.672 12.5231L113.501 7.15953C113.869 6.6439 114.462 6.33789 115.096 6.33789H119.236C120.319 6.33789 121.198 7.21736 121.198 8.30404Z" fill="#EA3636"/>
<path d="M118.462 20.2891L117.398 22.0335C117.143 22.4504 116.768 22.7805 116.324 22.9781L108.266 26.5682C107.613 26.8598 107.123 27.4308 106.928 28.1223L105.991 31.486L101.437 33.7172L96.4829 31.486C96.4853 31.2619 96.4877 31.0378 96.4877 30.8138C96.4877 27.9489 96.2115 25.1442 95.6781 22.4142L97.797 20.2891H118.462Z" fill="#DAE9EA"/>
<path d="M100.022 82.1899H97.7826C97.17 82.1899 96.5814 81.9562 96.137 81.5345L86.6357 72.5543C86.1889 72.1326 85.6003 71.8965 84.9877 71.8965H71.3881C74.785 69.9279 77.9224 67.6389 80.7452 65.0752L92.3725 61.2031L101.415 65.0752L99.4691 67.2847C98.8925 67.9401 98.7147 68.8605 99.0054 69.6846L102.287 78.9756C102.84 80.5442 101.679 82.1899 100.022 82.1899Z" fill="#DAE9EA"/>
<path d="M108.754 41.2978V42.6833L101.807 44.7844L94.8589 42.6833C95.8655 39.0907 96.4277 35.3439 96.4853 31.4863H105.994L105.105 34.6765C104.886 35.4548 105.074 36.2885 105.6 36.9005L108.278 40.0111C108.584 40.3677 108.754 40.8256 108.754 41.2978Z" fill="#EA3636"/>
<path d="M94.8566 42.6836H108.754V53.8781L97.797 56.3961L89.999 53.8781C92.1083 50.3771 93.7515 46.6255 94.8566 42.6836Z" fill="#DAE9EA"/>
<path d="M89.999 53.8789H108.754V55.9969C108.754 56.4763 108.579 56.9414 108.264 57.3004L101.415 65.0759H80.7452C84.3943 61.7652 87.5198 57.9967 89.999 53.8789Z" fill="#EA3636"/>
<path d="M1.80176 31.9112C0.807188 31.9112 0 31.1016 0 30.1041V26.7428C0 26.1453 0.12252 25.567 0.365156 25.0224L10.3949 2.49362C11.1493 0.804559 12.9558 -0.207432 14.7864 0.035928L29.8443 2.03822C30.8317 2.16834 31.5236 3.07672 31.3938 4.06702C31.2641 5.05733 30.3584 5.75126 29.3711 5.62115L14.3132 3.61885C14.0513 3.58271 13.7943 3.72969 13.6862 3.97064L3.65637 26.4995C3.62273 26.5766 3.60352 26.6609 3.60352 26.7452V30.1065C3.60352 31.1016 2.79633 31.9112 1.80176 31.9112Z" fill="black"/>
<path d="M100.022 83.9989H97.7826C96.7064 83.9989 95.683 83.5917 94.8998 82.852L85.3985 73.8718C85.2856 73.7658 85.1415 73.708 84.9877 73.708H69.1995C69.1034 73.708 69.0073 73.7321 68.9232 73.7754L59.9193 78.4884C59.7199 78.592 59.5974 78.7968 59.5974 79.0233V79.7847C59.5974 82.1099 57.7115 84.0014 55.3932 84.0014H53.9206C52.6666 84.0014 51.487 83.4472 50.6871 82.4786L44.5419 75.0525C44.4265 74.9151 44.2584 74.8356 44.0806 74.8356H38.7714C37.6087 74.8356 36.4916 74.2838 35.7853 73.3562L30.8893 66.9517C30.8605 66.9132 30.8125 66.8891 30.762 66.8891H22.4019C21.4818 66.8891 20.5929 66.5518 19.9058 65.9373L15.5384 62.0532C15.5095 62.0267 15.4711 62.0123 15.4327 62.0123H11.3535C10.3493 62.0123 9.40278 61.6195 8.69169 60.9063L3.59632 55.7957C3.02936 55.2271 2.64018 54.5139 2.46481 53.7308L0.0985028 43.0712C0.0312372 42.7724 -0.00239563 42.464 -0.00239563 42.1556V38.5389C-0.00239563 37.5414 0.804792 36.7318 1.79936 36.7318C2.79393 36.7318 3.60112 37.5414 3.60112 38.5389V42.1556C3.60112 42.1989 3.60592 42.2447 3.61553 42.2857L5.98184 52.9453C6.00587 53.0561 6.06352 53.1598 6.1428 53.2417L11.2358 58.3498C11.267 58.3811 11.3054 58.398 11.3487 58.398H15.4207C16.3407 58.398 17.2272 58.7353 17.9167 59.3473L22.2865 63.2315C22.3154 63.258 22.3538 63.2724 22.3923 63.2724H30.7524C31.9151 63.2724 33.0322 63.8242 33.7385 64.7495L38.6345 71.1539C38.6657 71.1949 38.7114 71.2165 38.7618 71.2165H44.071C45.325 71.2165 46.5046 71.7707 47.307 72.7394L53.4522 80.1654C53.5675 80.3028 53.7356 80.3823 53.9134 80.3823H55.386C55.7176 80.3823 55.9866 80.1124 55.9866 79.7799V79.0185C55.9866 77.4427 56.8515 76.009 58.2448 75.2814L67.2464 70.5684C67.8446 70.2552 68.5173 70.0889 69.1923 70.0889H84.9805C86.0568 70.0889 87.0802 70.4961 87.8633 71.2358L97.3646 80.216C97.4775 80.3221 97.6217 80.3799 97.7754 80.3799H100.014C100.286 80.3799 100.437 80.2208 100.504 80.1245C100.572 80.0281 100.67 79.8305 100.579 79.5751L97.2997 70.2817C96.7904 68.8384 97.1003 67.2312 98.1117 66.0843L106.904 56.0993C106.931 56.0704 106.945 56.0319 106.945 55.9933V41.2954C106.945 41.2568 106.931 41.2207 106.907 41.1918L104.226 38.0811C103.301 37.0089 102.976 35.5535 103.358 34.1898L105.187 27.6359C105.525 26.4215 106.378 25.4312 107.529 24.918L115.586 21.3278C115.699 21.2772 115.791 21.1953 115.855 21.0917L119.303 15.4366C119.36 15.3426 119.392 15.2342 119.392 15.1234V8.3069C119.392 8.21775 119.32 8.14547 119.231 8.14547H115.096C115.046 8.14547 114.995 8.16956 114.967 8.21293L111.137 13.5765C110.393 14.6198 109.182 15.2077 107.906 15.1499L105.645 15.0463C105.595 15.0439 105.557 15.0607 105.525 15.0921L95.94 24.706C95.2289 25.4192 94.2848 25.8119 93.2782 25.8119H90.566C88.2477 25.8119 86.3619 23.9205 86.3619 21.5953V20.617C86.3619 20.4291 86.273 20.2484 86.1216 20.1351L82.9193 17.7256C82.816 17.6485 82.6887 17.6052 82.559 17.6052H76.9183C74.6 17.6052 72.7141 15.7137 72.7141 13.3885V12.2633C72.7141 12.0633 72.6157 11.8754 72.4499 11.7645L67.2608 8.25148C67.1599 8.18402 67.0446 8.14788 66.9245 8.14788H48.597C48.4337 8.14788 48.2679 8.13583 48.1045 8.11655L37.7817 6.74314C36.7943 6.61302 36.1024 5.70223 36.2322 4.71434C36.3619 3.72403 37.2676 3.0301 38.2549 3.16021L48.5754 4.53362L66.9245 4.53603C67.7653 4.53603 68.5797 4.78662 69.2764 5.25888L74.4655 8.77194C75.6258 9.55743 76.3177 10.8634 76.3177 12.2657V13.3958C76.3177 13.7283 76.5867 13.9981 76.9183 13.9981H82.559C83.4622 13.9981 84.3583 14.2969 85.0814 14.8415L88.2861 17.251C89.3384 18.0437 89.9678 19.3039 89.9678 20.6243V21.6025C89.9678 21.935 90.2368 22.2049 90.5684 22.2049H93.2806C93.3239 22.2049 93.3647 22.188 93.3935 22.1567L102.979 12.5428C103.724 11.7959 104.757 11.3935 105.811 11.4417L108.072 11.5453C108.132 11.5477 108.178 11.5236 108.209 11.4778L112.038 6.11426C112.742 5.12636 113.888 4.53603 115.099 4.53603H119.24C121.316 4.53603 123.005 6.22991 123.005 8.31172V15.1282C123.005 15.9065 122.791 16.6655 122.387 17.3281L118.94 22.9832C118.493 23.7157 117.842 24.2891 117.059 24.6361L109.004 28.2262C108.841 28.2985 108.718 28.4407 108.67 28.6142L106.842 35.168C106.787 35.3632 106.835 35.5704 106.967 35.7246L109.645 38.8353C110.236 39.5196 110.561 40.3966 110.561 41.3026V56.0006C110.561 56.921 110.227 57.8101 109.619 58.4992L100.826 68.4842C100.682 68.648 100.637 68.8769 100.711 69.0841L103.99 78.3776C104.444 79.6667 104.247 81.1027 103.459 82.2183C102.669 83.3315 101.384 83.9989 100.022 83.9989Z" fill="black"/>
<path d="M23.101 23.0049H21.9815C20.9869 23.0049 20.1797 22.1953 20.1797 21.1978C20.1797 20.2002 20.9869 19.3906 21.9815 19.3906H23.0986C24.0931 19.3906 24.9003 20.2002 24.9003 21.1978C24.9003 22.1953 24.0955 23.0049 23.101 23.0049Z" fill="black"/>
<path d="M34.3704 23.0049H33.2533C32.2587 23.0049 31.4515 22.1953 31.4515 21.1978C31.4515 20.2002 32.2587 19.3906 33.2533 19.3906H34.3704C35.3649 19.3906 36.1721 20.2002 36.1721 21.1978C36.1721 22.1953 35.3673 23.0049 34.3704 23.0049Z" fill="black"/>
<path d="M45.6421 23.0049H44.5251C43.5305 23.0049 42.7233 22.1953 42.7233 21.1978C42.7233 20.2002 43.5305 19.3906 44.5251 19.3906H45.6421C46.6367 19.3906 47.4439 20.2002 47.4439 21.1978C47.4439 22.1953 46.6367 23.0049 45.6421 23.0049Z" fill="black"/>
<path d="M11.8292 23.0049H10.7121C9.7175 23.0049 8.91031 22.1953 8.91031 21.1978C8.91031 20.2002 9.7175 19.3906 10.7121 19.3906H11.8292C12.8237 19.3906 13.6309 20.2002 13.6309 21.1978C13.6309 22.1953 12.8237 23.0049 11.8292 23.0049Z" fill="black"/>
<path d="M56.9139 23.0049H55.7968C54.8023 23.0049 53.9951 22.1953 53.9951 21.1978C53.9951 20.2002 54.8023 19.3906 55.7968 19.3906H56.9139C57.9085 19.3906 58.7157 20.2002 58.7157 21.1978C58.7157 22.1953 57.9085 23.0049 56.9139 23.0049Z" fill="black"/>
<path d="M23.101 36.54H21.9815C20.9869 36.54 20.1797 35.7304 20.1797 34.7329C20.1797 33.7354 20.9869 32.9258 21.9815 32.9258H23.0986C24.0931 32.9258 24.9003 33.7354 24.9003 34.7329C24.9003 35.7304 24.0955 36.54 23.101 36.54Z" fill="black"/>
<path d="M34.3704 36.54H33.2533C32.2587 36.54 31.4515 35.7304 31.4515 34.7329C31.4515 33.7354 32.2587 32.9258 33.2533 32.9258H34.3704C35.3649 32.9258 36.1721 33.7354 36.1721 34.7329C36.1721 35.7304 35.3673 36.54 34.3704 36.54Z" fill="black"/>
<path d="M45.6421 36.54H44.5251C43.5305 36.54 42.7233 35.7304 42.7233 34.7329C42.7233 33.7354 43.5305 32.9258 44.5251 32.9258H45.6421C46.6367 32.9258 47.4439 33.7354 47.4439 34.7329C47.4439 35.7304 46.6367 36.54 45.6421 36.54Z" fill="black"/>
<path d="M56.9139 36.54H55.7968C54.8023 36.54 53.9951 35.7304 53.9951 34.7329C53.9951 33.7354 54.8023 32.9258 55.7968 32.9258H56.9139C57.9085 32.9258 58.7157 33.7354 58.7157 34.7329C58.7157 35.7304 57.9085 36.54 56.9139 36.54Z" fill="black"/>
<path d="M28.266 16.2334H27.1489C26.1543 16.2334 25.3471 15.4238 25.3471 14.4263C25.3471 13.4287 26.1543 12.6191 27.1489 12.6191H28.266C29.2606 12.6191 30.0677 13.4287 30.0677 14.4263C30.0677 15.4238 29.2606 16.2334 28.266 16.2334Z" fill="black"/>
<path d="M17.0543 16.2334H15.9372C14.9426 16.2334 14.1354 15.4238 14.1354 14.4263C14.1354 13.4287 14.9426 12.6191 15.9372 12.6191H17.0543C18.0488 12.6191 18.856 13.4287 18.856 14.4263C18.856 15.4238 18.0512 16.2334 17.0543 16.2334Z" fill="black"/>
<path d="M39.4777 16.2334H38.3606C37.3661 16.2334 36.5589 15.4238 36.5589 14.4263C36.5589 13.4287 37.3661 12.6191 38.3606 12.6191H39.4777C40.4723 12.6191 41.2795 13.4287 41.2795 14.4263C41.2795 15.4238 40.4723 16.2334 39.4777 16.2334Z" fill="black"/>
<path d="M50.6895 16.2334H49.5724C48.5778 16.2334 47.7706 15.4238 47.7706 14.4263C47.7706 13.4287 48.5778 12.6191 49.5724 12.6191H50.6895C51.684 12.6191 52.4912 13.4287 52.4912 14.4263C52.4912 15.4238 51.684 16.2334 50.6895 16.2334Z" fill="black"/>
<path d="M61.8988 16.2334H60.7817C59.7871 16.2334 58.9799 15.4238 58.9799 14.4263C58.9799 13.4287 59.7871 12.6191 60.7817 12.6191H61.8988C62.8934 12.6191 63.7006 13.4287 63.7006 14.4263C63.7006 15.4238 62.8958 16.2334 61.8988 16.2334Z" fill="black"/>
<path d="M28.266 29.7725H27.1489C26.1543 29.7725 25.3471 28.9629 25.3471 27.9653C25.3471 26.9678 26.1543 26.1582 27.1489 26.1582H28.266C29.2606 26.1582 30.0677 26.9678 30.0677 27.9653C30.0677 28.9629 29.2606 29.7725 28.266 29.7725Z" fill="black"/>
<path d="M17.0543 29.7725H15.9372C14.9426 29.7725 14.1354 28.9629 14.1354 27.9653C14.1354 26.9678 14.9426 26.1582 15.9372 26.1582H17.0543C18.0488 26.1582 18.856 26.9678 18.856 27.9653C18.856 28.9629 18.0512 29.7725 17.0543 29.7725Z" fill="black"/>
<path d="M39.4777 29.7725H38.3606C37.3661 29.7725 36.5589 28.9629 36.5589 27.9653C36.5589 26.9678 37.3661 26.1582 38.3606 26.1582H39.4777C40.4723 26.1582 41.2795 26.9678 41.2795 27.9653C41.2795 28.9629 40.4723 29.7725 39.4777 29.7725Z" fill="black"/>
<path d="M50.6895 29.7725H49.5724C48.5778 29.7725 47.7706 28.9629 47.7706 27.9653C47.7706 26.9678 48.5778 26.1582 49.5724 26.1582H50.6895C51.684 26.1582 52.4912 26.9678 52.4912 27.9653C52.4912 28.9629 51.684 29.7725 50.6895 29.7725Z" fill="black"/>
<path d="M61.8988 29.7725H60.7817C59.7871 29.7725 58.9799 28.9629 58.9799 27.9653C58.9799 26.9678 59.7871 26.1582 60.7817 26.1582H61.8988C62.8934 26.1582 63.7006 26.9678 63.7006 27.9653C63.7006 28.9629 62.8958 29.7725 61.8988 29.7725Z" fill="black"/>
<path d="M68.1858 23.0049H67.0687C66.0741 23.0049 65.2669 22.1953 65.2669 21.1978C65.2669 20.2002 66.0741 19.3906 67.0687 19.3906H68.1858C69.1803 19.3906 69.9875 20.2002 69.9875 21.1978C69.9875 22.1953 69.1803 23.0049 68.1858 23.0049Z" fill="black"/>
<path d="M68.1858 36.54H67.0687C66.0741 36.54 65.2669 35.7304 65.2669 34.7329C65.2669 33.7354 66.0741 32.9258 67.0687 32.9258H68.1858C69.1803 32.9258 69.9875 33.7354 69.9875 34.7329C69.9875 35.7304 69.1803 36.54 68.1858 36.54Z" fill="black"/>
<path d="M11.8292 36.54H10.7121C9.7175 36.54 8.91031 35.7304 8.91031 34.7329C8.91031 33.7354 9.7175 32.9258 10.7121 32.9258H11.8292C12.8237 32.9258 13.6309 33.7354 13.6309 34.7329C13.6309 35.7304 12.8237 36.54 11.8292 36.54Z" fill="black"/>
<path d="M105.792 33.2959H74.7682C73.7736 33.2959 72.9664 32.4863 72.9664 31.4888C72.9664 30.4912 73.7736 29.6816 74.7682 29.6816H105.792C106.787 29.6816 107.594 30.4912 107.594 31.4888C107.594 32.4863 106.787 33.2959 105.792 33.2959Z" fill="black"/>
<path d="M89.0693 44.4912H2.15251C1.15794 44.4912 0.350754 43.6816 0.350754 42.6841C0.350754 41.6865 1.15794 40.877 2.15251 40.877H89.0693C90.0639 40.877 90.8711 41.6865 90.8711 42.6841C90.8711 43.6816 90.0639 44.4912 89.0693 44.4912Z" fill="black"/>
<path d="M108.415 44.4912H97.4775C96.4829 44.4912 95.6758 43.6816 95.6758 42.6841C95.6758 41.6865 96.4829 40.877 97.4775 40.877H108.415C109.41 40.877 110.217 41.6865 110.217 42.6841C110.217 43.6816 109.41 44.4912 108.415 44.4912Z" fill="black"/>
<path d="M117.861 22.0986H97.9315C96.937 22.0986 96.1298 21.289 96.1298 20.2915C96.1298 19.294 96.937 18.4844 97.9315 18.4844H117.861C118.856 18.4844 119.663 19.294 119.663 20.2915C119.663 21.289 118.858 22.0986 117.861 22.0986Z" fill="black"/>
<path d="M108.415 55.6885H4.87196C3.87739 55.6885 3.07021 54.8789 3.07021 53.8813C3.07021 52.8838 3.87739 52.0742 4.87196 52.0742H108.415C109.41 52.0742 110.217 52.8838 110.217 53.8813C110.217 54.8789 109.412 55.6885 108.415 55.6885Z" fill="black"/>
<path d="M101.192 66.8838H61.8988C60.9042 66.8838 60.097 66.0742 60.097 65.0767C60.097 64.0791 60.9042 63.2695 61.8988 63.2695H101.192C102.186 63.2695 102.993 64.0791 102.993 65.0767C102.993 66.0742 102.186 66.8838 101.192 66.8838Z" fill="black"/>
<path d="M53.4906 66.8838H30.7572C29.7626 66.8838 28.9555 66.0742 28.9555 65.0767C28.9555 64.0791 29.7626 63.2695 30.7572 63.2695H53.4906C54.4852 63.2695 55.2924 64.0791 55.2924 65.0767C55.2924 66.0742 54.4852 66.8838 53.4906 66.8838Z" fill="black"/>
<path d="M74.5135 44.4905C73.5189 44.4905 72.7118 43.6809 72.7118 42.6834V13.3911C72.7118 12.3936 73.5189 11.584 74.5135 11.584C75.5081 11.584 76.3153 12.3936 76.3153 13.3911V42.6834C76.3153 43.6809 75.5081 44.4905 74.5135 44.4905Z" fill="black"/>
</g>
<defs>
<clipPath id="clip0_648_8733">
<rect width="123" height="84" fill="white"/>
</clipPath>
</defs>
</svg>
