<svg width="76" height="79" viewBox="0 0 76 79" fill="none" xmlns="http://www.w3.org/2000/svg">
<path d="M55.5841 32.532C54.2166 27.3178 49.4696 23.4727 43.8284 23.4727C41.5821 23.4727 39.4807 24.0848 37.6753 25.1471C35.0929 20.4186 30.0761 17.2148 24.307 17.2148C15.8984 17.2148 9.08543 24.0278 9.08543 32.4364C9.08543 32.663 9.09006 32.8866 9.09931 33.1101C3.82812 34.8677 0 39.8583 0 45.6968C0 52.4142 5.05688 57.9999 11.5507 58.8463C9.97347 54.1008 9.00218 49.0393 8.41786 44.0533C8.14652 41.7762 9.79 39.6964 12.0671 39.4251C18.9679 38.6079 25.5542 36.6592 31.772 33.5433C32.9607 32.9498 34.3159 32.9498 35.5092 33.5433C41.7239 36.6592 48.3148 38.6079 55.2141 39.4251C57.4912 39.6964 59.1301 41.7762 58.8634 44.0533C58.2729 49.0393 57.3078 54.1008 55.7306 58.8463C62.2243 57.9983 67.2812 52.4126 67.2812 45.6968C67.2781 38.9348 62.1488 33.3105 55.5841 32.532ZM56.3133 43.7542C54.565 58.595 49.4526 74.0277 34.1216 78.861C33.7932 78.9659 33.4834 78.9659 33.1565 78.861C17.8209 74.0277 12.7131 58.5965 10.9648 43.7542C10.86 42.8755 11.489 42.0753 12.3678 41.9705C19.5399 41.1179 26.396 39.1028 32.9206 35.8344C33.3878 35.5985 33.8904 35.5985 34.3591 35.8344C40.8837 39.1028 47.7367 41.1179 54.9119 41.9705C55.7845 42.0768 56.4182 42.877 56.3133 43.7542ZM51.2626 46.1886C45.1481 45.1788 39.2571 43.3519 33.6375 40.7001C28.021 43.3534 22.13 45.1788 16.0171 46.1886C17.7438 57.6514 21.9435 69.8496 33.6375 74.0755C45.3316 69.8496 49.5359 57.653 51.2626 46.1886Z" fill="#465F86"/>
<path fill-rule="evenodd" clip-rule="evenodd" d="M34.477 50.875C35.3464 50.8751 36.1375 51.2289 36.7095 51.8008C37.2814 52.3728 37.6352 53.1641 37.6352 54.0352C37.6352 54.9092 37.2813 55.6956 36.7095 56.2676C36.1375 56.8395 35.3464 57.1991 34.477 57.1992H33.1958V59.0215C33.1956 59.7289 32.6236 60.3025 31.9116 60.3027C31.2041 60.3027 30.6306 59.7305 30.6303 59.0215V52.1562C30.6303 51.4471 31.2039 50.875 31.9116 50.875H34.477ZM44.228 50.873C44.9372 50.873 45.5093 51.4466 45.5093 52.1543V59.0195C45.5093 59.4389 45.2992 59.8486 44.9184 60.0938C44.3249 60.4745 43.5328 60.305 43.1489 59.71L41.103 56.5205V59.0195C41.103 59.7287 40.5294 60.3008 39.8218 60.3008C39.1143 60.3007 38.5366 59.7289 38.5395 59.0215V52.1562C38.5395 51.4471 39.1161 50.875 39.8237 50.875C40.3045 50.8751 40.7239 51.1412 40.9428 51.5342L42.9438 54.6504V52.1543C42.9438 51.4452 43.5204 50.8731 44.228 50.873ZM27.6899 51.6729C27.9567 51.0178 28.7047 50.7038 29.3598 50.9658C30.0148 51.2326 30.3293 51.9797 30.063 52.6348L27.2661 59.501C27.1396 59.8107 26.8941 60.0685 26.5581 60.2041C25.903 60.4705 25.1598 60.1559 24.893 59.501L22.0923 52.6348C21.8304 51.9797 22.1444 51.2326 22.7993 50.9658C23.4544 50.7038 24.2024 51.0178 24.4692 51.6729L26.0776 55.623L27.6899 51.6729ZM33.1958 53.4414V54.6328H34.477C34.6388 54.6327 34.7866 54.5637 34.896 54.459C35.0054 54.3496 35.0707 54.2016 35.0708 54.0352C35.0708 53.8733 35.0054 53.7247 34.896 53.6152C34.7866 53.506 34.6387 53.4415 34.477 53.4414H33.1958Z" fill="#F5CA10"/>
<path d="M47.3397 6.23631C48.7904 3.4134 50.6297 1.48161 52.6371 0.895747V12.5775H45.1427C45.6669 10.1862 46.4177 8.03706 47.3397 6.23631ZM61.8412 31.9031C62.1696 30.9241 62.4533 29.888 62.6938 28.7996H56.9601C57.2098 29.276 57.4318 29.7647 57.6292 30.2719C59.1262 30.6142 60.5431 31.1692 61.8412 31.9031ZM38.6998 21.8602C39.6788 21.4933 40.6932 21.2266 41.7277 21.0739C41.7277 20.9429 41.7277 20.8165 41.7277 20.6901C41.7277 18.7752 41.8542 16.919 42.0901 15.1444H33.3885C33.2359 15.7087 33.1048 16.2853 33 16.8712C35.217 18.0922 37.1658 19.7881 38.6998 21.8602ZM45.0671 5.07384C46.1679 2.93238 47.4969 1.19793 48.9955 0C42.3044 1.58644 36.8374 6.3319 34.2596 12.5775H42.5233C43.1045 9.74992 43.9756 7.20144 45.0671 5.07384ZM62.7662 5.07384C63.8593 7.20144 64.7289 9.74992 65.3055 12.5775H73.5738C70.996 6.3319 65.5275 1.58644 58.8379 0C60.3365 1.19793 61.6654 2.93238 62.7662 5.07384ZM63.1563 26.2341C63.4061 24.4735 63.5402 22.6157 63.5402 20.6885C63.5402 18.7613 63.4045 16.9036 63.1563 15.1429H55.1979V26.1771C55.2148 26.194 55.2333 26.2156 55.2503 26.2341H63.1563ZM60.4906 6.23631C59.043 3.4134 57.2037 1.48161 55.1979 0.895747V12.5775H62.6922C62.168 10.1862 61.4172 8.03706 60.4906 6.23631ZM44.2932 20.6885V20.9151C47.3736 20.9938 50.2674 22.0298 52.6355 23.7735V15.1429H44.6771C44.4242 16.9036 44.2932 18.7613 44.2932 20.6885ZM74.4449 15.1429H65.7387C65.9792 16.9174 66.1056 18.7752 66.1056 20.6885C66.1056 22.6018 65.9792 24.4596 65.7387 26.2341H74.4449C74.9213 24.4688 75.1787 22.6064 75.1787 20.6885C75.1787 18.7706 74.9213 16.9082 74.4449 15.1429ZM64.0258 33.3893C65.3409 34.4516 66.4772 35.7142 67.3961 37.1296C70.0879 34.9233 72.2248 32.065 73.5753 28.7996H65.3055C64.974 30.4307 64.5408 31.9678 64.0258 33.3893Z" fill="#F4C600"/>
</svg>
