<svg width="77" height="75" viewBox="0 0 77 75" fill="none" xmlns="http://www.w3.org/2000/svg">
<path d="M72.0312 59.8298H45.4688C45.2346 59.83 45.0049 59.8936 44.8047 60.0136L42.4539 61.3654H32.5461C32.102 61.1728 30.0372 59.7465 29.5312 59.8298H2.96875C2.26491 59.8318 1.59048 60.1091 1.09278 60.6009C0.59509 61.0927 0.314571 61.7592 0.3125 62.4548C0.31521 64.8907 1.29557 67.226 3.03849 68.9484C4.7814 70.6708 7.14452 71.6396 9.60938 71.6423H65.3906C67.8555 71.6396 70.2186 70.6708 71.9615 68.9484C73.7044 67.226 74.6848 64.8907 74.6875 62.4548C74.6854 61.7592 74.4049 61.0927 73.9072 60.6009C73.4095 60.1091 72.7351 59.8318 72.0312 59.8298Z" fill="#455E86"/>
<path d="M22.1335 33.1466C22.1521 33.1715 22.1654 33.1998 22.1728 33.2299C22.1802 33.2599 22.1814 33.2911 22.1765 33.3217C22.1715 33.3522 22.1605 33.3815 22.144 33.4078C22.1275 33.434 22.1059 33.4568 22.0804 33.4747C22.0524 33.506 17.6472 36.7294 16.436 37.6616C16.0871 37.9289 15.8309 38.2967 15.7028 38.7142C15.5748 39.1317 15.5813 39.5782 15.7213 39.992C15.8613 40.4057 16.128 40.7662 16.4845 41.0235C16.841 41.2809 17.2695 41.4224 17.711 41.4284H39.4391C57.3486 41.484 66.952 19.8691 51.963 8.60281C35.1326 -4.08895 9.33671 13.9137 22.1335 33.1466ZM28.8804 20.3891C29.0373 19.9062 29.3285 19.4766 29.7207 19.1493C30.1129 18.8221 30.5903 18.6104 31.0983 18.5385L34.9101 18.0004L36.6101 14.5879C36.835 14.1313 37.1852 13.7465 37.6208 13.4772C38.0565 13.208 38.5599 13.0653 39.0737 13.0653C39.5875 13.0653 40.091 13.208 40.5266 13.4772C40.9623 13.7465 41.3125 14.1313 41.5374 14.5879L43.2374 18.0004L47.0491 18.5385C47.5572 18.6104 48.0346 18.8221 48.4268 19.1493C48.819 19.4766 49.1102 19.9062 49.2671 20.3891C49.4313 20.8699 49.4535 21.3868 49.3312 21.8796C49.2089 22.3724 48.9471 22.8205 48.5765 23.1716L45.814 25.836L46.4648 29.5766C46.5546 30.0764 46.5004 30.5911 46.3082 31.0619C46.1161 31.5327 45.7939 31.9406 45.3783 32.2391C44.9628 32.5375 44.4707 32.7144 43.9582 32.7495C43.4458 32.7847 42.9337 32.6767 42.4804 32.4379L39.0804 30.666L35.6671 32.4379C35.2138 32.6767 34.7017 32.7847 34.1892 32.7495C33.6768 32.7144 33.1847 32.5375 32.7691 32.2391C32.3536 31.9406 32.0313 31.5327 31.8392 31.0619C31.6471 30.5911 31.5929 30.0764 31.6827 29.5766L32.3335 25.836L29.571 23.1716C29.2004 22.8205 28.9386 22.3724 28.8163 21.8796C28.694 21.3869 28.7162 20.8698 28.8804 20.3891Z" fill="#F4C600"/>
<path d="M35.0697 25.5997L34.2993 30.0229L34.4322 30.1147C34.8532 29.9686 38.6998 27.7292 39.0806 27.8704C39.4321 27.7274 43.33 29.9805 43.7158 30.1147L43.8486 30.0229L43.0783 25.5997C43.0423 25.3888 43.0585 25.1723 43.1256 24.9689C43.1927 24.7655 43.3086 24.5812 43.4634 24.4317L46.7173 21.2948L46.6775 21.1373L42.1752 20.4942C41.9604 20.4635 41.7564 20.3818 41.5806 20.2561C41.4047 20.1303 41.2624 19.9643 41.1658 19.7723L39.1604 15.7429H38.9877L36.9822 19.7723C36.8868 19.9626 36.7465 20.1275 36.5732 20.2532C36.3998 20.3788 36.1985 20.4614 35.9861 20.4942L31.4705 21.1373L31.4307 21.2948L34.6846 24.4317C34.8394 24.5812 34.9553 24.7655 35.0224 24.9689C35.0894 25.1724 35.1056 25.3888 35.0697 25.5997Z" fill="#455E86"/>
<path d="M31.5633 57.7561L33.2633 58.7404H41.7367L43.4633 57.7429C44.0724 57.3928 44.7641 57.2072 45.4688 57.2048H72.0312V26.8729C72.0314 26.1834 71.8942 25.5007 71.6273 24.8636C71.3604 24.2266 70.969 23.6477 70.4757 23.1602C69.9823 22.6726 69.3966 22.2859 68.752 22.0222C68.1074 21.7584 67.4165 21.6227 66.7188 21.6229H62.0172C62.8456 33.7675 51.6932 44.2893 39.439 44.0533L17.7109 44.0535C16.8718 44.0432 16.0499 43.8165 15.3269 43.3956C14.6038 42.9748 14.0045 42.3746 13.5885 41.6544C13.1725 40.9342 12.9541 40.1191 12.955 39.2898C12.956 38.4605 13.1762 37.6458 13.5938 36.9266C14.9017 35.0659 16.6543 34.3815 18.6936 32.6872C16.7711 29.3234 15.8848 25.4778 16.1438 21.623H8.28125C7.58355 21.6228 6.89264 21.7584 6.24801 22.0222C5.60338 22.286 5.01766 22.6727 4.52431 23.1602C4.03096 23.6478 3.63965 24.2266 3.37274 24.8636C3.10583 25.5007 2.96855 26.1835 2.96875 26.873V57.2048H29.5312C30.2458 57.2089 30.9467 57.399 31.5633 57.7561Z" fill="#455E86"/>
</svg>
