<svg width="68" height="73" viewBox="0 0 68 73" fill="none" xmlns="http://www.w3.org/2000/svg">
<path d="M64.6353 43.9946C65.8084 40.609 66.4755 36.9993 66.4755 33.2301C66.4755 14.9127 51.5628 0 33.2301 0C14.9127 -1.54057e-08 0 14.9127 0 33.2301C0 51.5628 14.9127 66.4755 33.2301 66.4755C34.3056 66.4755 35.3582 66.4053 36.4016 66.305C39.7095 70.0376 44.5233 72.4067 49.8912 72.4067C59.8418 72.4067 67.9358 64.3127 67.9358 54.3637C67.9358 50.5038 66.7071 46.9317 64.6353 43.9946ZM13.2951 52.4718L14.543 54.5823L15.2516 57.1089C15.267 57.1396 15.2824 57.1859 15.2978 57.2168L15.5597 57.6019C8.01098 52.1174 3.08114 43.2591 3.08114 33.2301C3.08114 22.0763 9.18173 12.34 18.225 7.11742L18.1324 7.62583L15.5751 9.32042C15.4673 9.39743 15.4057 9.5207 15.4057 9.64398V11.8316L12.494 13.1103C12.4016 13.1564 12.3246 13.218 12.2937 13.3105L10.8456 16.7614C10.8147 16.823 10.8147 16.8692 10.8147 16.9308L10.9073 21.1211C10.9073 21.1982 10.938 21.2753 10.9843 21.3368L12.4632 23.3396L11.2924 25.4194L10.2756 28.1154C10.2447 28.2232 10.2447 28.3311 10.291 28.4235L11.6313 31.1657L11.6621 36.3265C11.6621 36.4344 11.7083 36.5422 11.7853 36.6039L13.6494 38.3294L14.1116 42.7045C14.1116 42.7508 14.127 42.8124 14.1578 42.8586L16.0681 46.1092L14.3427 48.8822L13.2643 52.1482C13.2334 52.2561 13.2489 52.3639 13.2951 52.4718ZM30.1797 47.2031H26.8675L24.6337 45.8319C24.6028 45.8011 24.5721 45.7857 24.5258 45.7857L21.3677 44.9384L21.075 41.7648C21.0596 41.6261 20.9825 41.5184 20.8747 41.4567L18.8103 40.3012V37.482L18.7025 34.632C18.7025 34.5858 18.6871 34.5395 18.6717 34.5087L17.9938 32.7833L17.0387 30.5648L19.0414 28.0075H22.1534L25.4348 29.1938C25.5427 29.2245 25.6504 29.2091 25.7428 29.163L27.7764 28.1461L30.0103 33.0606C30.0718 33.1838 30.1797 33.2763 30.3184 33.2917L33.1992 33.6152C33.4304 33.6306 33.5998 33.492 33.6306 33.2917L34.216 29.2554V29.1321L33.6614 25.7737L36.0493 24.5874C36.1109 24.5721 36.1571 24.5258 36.188 24.4642L38.2369 21.5371H40.8097L42.6275 22.6771C42.797 22.785 43.0435 22.7388 43.1514 22.554L45.3081 19.1954C45.3851 19.0877 45.3851 18.9336 45.3235 18.8103L43.937 16.2684V12.8175C43.937 12.6634 43.8445 12.5248 43.6905 12.4632L41.2872 11.4773C41.2102 11.431 41.1178 11.431 41.0254 11.4618L38.0521 12.3861L36.0647 11.585L36.4652 9.15098L39.1458 7.13284L41.8418 6.79387C42.0267 6.76312 42.1808 6.60901 42.1808 6.40873L42.1962 4.43685C48.2661 6.33172 53.5039 10.1215 57.2629 15.0821L56.9856 16.2376L55.9381 17.7936C55.8918 17.8551 55.8764 17.9322 55.8764 18.0093V20.3509C55.8764 20.4741 55.9381 20.5974 56.0459 20.6744L57.8175 21.8453C57.8792 21.8914 57.9562 21.9068 58.0332 21.9068H59.2195L60.3132 22.4153C60.3749 22.4307 60.4211 22.4461 60.4828 22.4461C60.5443 22.4461 60.6059 22.4307 60.6676 22.3998L61.2376 22.0917C61.9925 24.002 62.5471 25.9894 62.9168 28.0691L61.3455 28.5621H59.2502C59.1578 28.5621 59.0808 28.593 59.0038 28.6391L57.8021 29.5943C57.7405 29.656 57.6943 29.733 57.6635 29.81L57.0935 32.3674L55.9842 33.5381C55.9072 33.5998 55.8764 33.7077 55.8764 33.8001V36.9737C55.8764 37.0198 55.8764 37.0507 55.8918 37.0968L55.9995 37.406C54.0884 36.7154 52.0376 36.3192 49.8912 36.3192C46.3268 36.3192 43.0097 37.3718 40.2084 39.1627L38.2677 38.1598C38.2061 38.1291 38.1445 38.1137 38.0828 38.1137H34.5395C34.4317 38.1137 34.3238 38.1598 34.2622 38.2369L33.0914 39.4231C33.0606 39.4539 33.0452 39.4848 33.0144 39.531L32.1362 41.3642C32.0592 41.5029 32.0901 41.6724 32.1978 41.7956L34.1852 44.0141C34.2622 44.0911 34.3701 44.1527 34.4779 44.1527H35.0304C33.8055 45.9299 32.9047 47.94 32.3788 50.0973L30.4878 47.3725C30.4262 47.2646 30.303 47.2031 30.1797 47.2031ZM49.8912 69.3256C41.6408 69.3256 34.9294 62.6142 34.9294 54.3637C34.9294 46.1133 41.6408 39.4004 49.8912 39.4004C58.1417 39.4004 64.8546 46.1133 64.8546 54.3637C64.8546 62.6142 58.1417 69.3256 49.8912 69.3256ZM60.7159 51.9852C60.1878 52.6486 59.2174 52.7615 58.5509 52.2244C56.0656 50.2355 53.0717 49.1839 49.8912 49.1839C46.7108 49.1839 43.7169 50.2355 41.2331 52.2244C40.9487 52.4531 40.6087 52.5629 40.2717 52.5629C39.8189 52.5629 39.3721 52.3658 39.0681 51.9852C38.5356 51.3217 38.6424 50.3513 39.3074 49.8203C42.2997 47.4221 46.0579 46.1027 49.8912 46.1027C53.7231 46.1027 57.4828 47.4221 60.4766 49.8203C61.1401 50.3513 61.2484 51.3202 60.7159 51.9852ZM56.9442 54.8918C57.5881 55.4484 57.6603 56.4203 57.1036 57.0642C56.7982 57.4178 56.3695 57.5983 55.9377 57.5983C55.5796 57.5983 55.2216 57.475 54.9312 57.2237C52.1269 54.8015 47.6571 54.8015 44.8528 57.2237C44.2119 57.7774 43.2385 57.7097 42.6804 57.0642C42.1237 56.4203 42.1959 55.4484 42.8398 54.8918C44.8001 53.1978 47.3051 52.265 49.8912 52.265C52.4789 52.265 54.9839 53.1978 56.9442 54.8918ZM52.8099 61.525C52.8099 63.1332 51.501 64.4421 49.8912 64.4421C48.283 64.4421 46.9741 63.1332 46.9741 61.525C46.9741 59.9167 48.283 58.6078 49.8912 58.6078C51.501 58.6078 52.8099 59.9167 52.8099 61.525Z" fill="#455E86"/>
</svg>
