<svg width="20" height="21" viewBox="0 0 20 21" fill="none" xmlns="http://www.w3.org/2000/svg">
<path fill-rule="evenodd" clip-rule="evenodd" d="M12.4769 6.49414L17.1995 1.77148H13.4144C12.9612 1.77148 12.594 1.4043 12.594 0.951172C12.594 0.498047 12.9612 0.130859 13.4144 0.130859H19.18C19.6331 0.130859 20.0003 0.498047 20.0003 0.951172V6.7168C20.0003 7.16992 19.6331 7.53711 19.18 7.53711C18.7269 7.53711 18.3597 7.16992 18.3597 6.7168V2.93555L13.637 7.6543C13.3167 7.97461 12.7972 7.97461 12.4769 7.6543C12.1565 7.33398 12.1565 6.81445 12.4769 6.49414ZM11.9847 17.8887C13.3675 18.4277 15.3479 18.877 16.9573 17.9707C17.0784 17.8418 17.262 17.5566 17.4612 17.2168C16.3362 16.4512 15.2073 15.6074 14.0901 14.7012C13.8401 14.9395 13.6058 15.1582 13.4222 15.3262C13.1839 15.5449 12.844 15.6035 12.5472 15.4785C11.1722 14.8965 9.50419 13.6855 7.97685 12.1582C6.44951 10.6309 5.23857 8.96289 4.65263 7.58789C4.52763 7.29102 4.58623 6.95117 4.80498 6.71289C4.97294 6.52539 5.1956 6.29102 5.42998 6.04492C4.52373 4.92773 3.67998 3.79492 2.91044 2.66992C2.5706 2.86914 2.28544 3.05664 2.15654 3.17383C1.25419 4.7832 1.69951 6.75977 2.24248 8.14258C2.98857 10.0645 4.39873 12.1152 6.20732 13.9238C8.01201 15.7363 10.0667 17.1426 11.9847 17.8887ZM19.9925 15.1113C19.9651 14.6777 19.9222 14.0215 19.3128 13.5723L16.8792 11.7871C16.2034 11.2832 15.2659 11.3379 14.6526 11.9121C14.4378 12.1074 14.0628 12.4629 13.6644 12.8457C13.3519 13.1426 13.0081 13.4668 12.7151 13.7441C10.4378 12.5684 7.56279 9.69336 6.38701 7.41602C6.66435 7.11914 6.98857 6.77539 7.28544 6.46289C7.66435 6.06445 8.01982 5.68945 8.21904 5.47461C8.79326 4.85742 8.84404 3.91992 8.34404 3.24414L6.56279 0.814453C6.11357 0.208984 5.45732 0.166016 5.01982 0.138672L4.9456 0.134766C4.76982 0.123047 4.23076 0.0878906 2.62138 0.951172C1.59404 1.50195 0.969038 1.95508 0.773726 2.29492C-0.237993 4.02148 -0.257524 6.25195 0.715132 8.74414C1.54326 10.8691 3.08232 13.123 5.04716 15.0879C7.01201 17.0488 9.26201 18.5918 11.3909 19.4199C12.6136 19.8926 13.7698 20.1309 14.8362 20.1309C15.9456 20.1309 16.9573 19.873 17.8401 19.3574C18.18 19.1582 18.6331 18.5371 19.1839 17.5059C20.0472 15.9004 20.012 15.3613 20.0003 15.1855L19.9925 15.1113Z" fill="#4A6590"/>
</svg>
