<svg width="239" height="268" viewBox="0 0 239 268" fill="none" xmlns="http://www.w3.org/2000/svg">
<g clip-path="url(#clip0_772_18747)">
<path d="M0.391095 65.2282C0.391095 65.2328 0.391095 65.2375 0.391095 65.2421C0.395737 65.8938 0.424749 66.5409 0.47465 67.1799C0.583737 68.5702 0.798428 69.9304 1.1106 71.2524C1.29164 72.0199 2.02391 72.5293 2.80956 72.4344L3.74608 72.3221C4.45862 72.2364 5.13635 72.6497 5.38702 73.3211C6.1924 75.4696 7.29951 77.4584 8.65032 79.2423C9.07274 79.8003 9.05998 80.5747 8.62711 81.1257L8.00509 81.9164C7.52465 82.5276 7.57106 83.3993 8.11417 83.955C8.60274 84.4539 9.10988 84.9343 9.63674 85.395C10.6313 86.2667 11.6908 87.0666 12.806 87.7878C13.4791 88.2231 14.375 88.0703 14.8694 87.4417L15.4102 86.7541C15.8605 86.1822 16.6484 85.9993 17.3041 86.3142C19.6181 87.4255 22.1294 88.1699 24.7533 88.4801C25.4635 88.5634 26.0217 89.1249 26.1065 89.8322L26.2202 90.7733C26.313 91.5455 26.971 92.1301 27.7509 92.1243C27.7555 92.1243 27.7602 92.1243 27.7648 92.1243C28.4182 92.1196 29.0657 92.0919 29.7075 92.0409C31.1012 91.9321 32.4648 91.7179 33.7901 91.4077C34.5595 91.2271 35.0701 90.4967 34.9749 89.713L34.8624 88.7799C34.7765 88.0703 35.1885 87.3942 35.8592 87.1442C38.1721 86.2818 40.2993 85.0744 42.1862 83.5903C42.7502 83.1469 43.5429 83.1446 44.108 83.5868L44.8473 84.1656C45.4681 84.6507 46.3559 84.5986 46.9095 84.0383C47.3632 83.5787 47.8007 83.1018 48.2208 82.611C49.1132 81.5668 49.9291 80.4555 50.6567 79.2828C51.0733 78.6114 50.9166 77.7351 50.2946 77.2477L49.5531 76.6678C48.9891 76.2256 48.8022 75.4569 49.0993 74.8052C50.0962 72.6231 50.7669 70.2742 51.0582 67.8282C51.1429 67.1186 51.7034 66.5594 52.4137 66.4738L53.3571 66.3603C54.1312 66.2677 54.7172 65.6114 54.7114 64.8334C54.7114 64.8288 54.7114 64.8242 54.7114 64.8195C54.7068 64.1678 54.6778 63.5207 54.6279 62.8817C54.5188 61.4914 54.3041 60.1324 53.9931 58.8104C53.8121 58.0429 53.0798 57.5335 52.2941 57.6284L51.3576 57.7407C50.6486 57.8264 49.9697 57.4177 49.719 56.751C48.7941 54.2829 47.4723 52.0256 45.8406 50.0484C45.3776 49.4869 45.3683 48.68 45.8186 48.1082L46.3582 47.4229C46.8537 46.7931 46.7876 45.8902 46.205 45.3403C45.7745 44.9352 45.3312 44.5427 44.8751 44.1653C43.7761 43.2566 42.6029 42.4312 41.3681 41.7019C40.6962 41.306 39.8339 41.4658 39.3523 42.0782L38.7268 42.8723C38.2939 43.4233 37.542 43.6189 36.8979 43.3411C34.8403 42.4555 32.6412 41.8559 30.3573 41.585C29.6448 41.5005 29.0808 40.9425 28.9949 40.2318L28.8812 39.2895C28.7884 38.5173 28.1315 37.9327 27.3517 37.9385C27.347 37.9385 27.3424 37.9385 27.3377 37.9385C26.6844 37.9431 26.0368 37.9709 25.3951 38.0219C24.0013 38.1307 22.6389 38.3448 21.3125 38.6562C20.5431 38.8368 20.0324 39.5673 20.1276 40.351L20.2402 41.284C20.326 41.9937 19.9141 42.6697 19.2433 42.9197C16.9304 43.7822 14.8021 44.9907 12.9163 46.4748C12.3523 46.9182 11.5597 46.9205 10.9945 46.4783L10.2553 45.8995C9.63442 45.4133 8.74548 45.4665 8.19309 46.0268C7.73934 46.4864 7.30183 46.9633 6.88173 47.4541C5.98815 48.4983 5.17349 49.6108 4.44586 50.7823C4.02924 51.4537 4.18591 52.33 4.80909 52.8174L5.55065 53.3973C6.11465 53.8395 6.30149 54.6082 6.0044 55.2599C5.0087 57.4421 4.33677 59.7897 4.04665 62.2369C3.96193 62.9465 3.40141 63.5057 2.69119 63.5913L1.74655 63.7048C0.971341 63.7951 0.385292 64.4514 0.391095 65.2282ZM20.7821 65.0823C20.781 64.9677 20.7833 64.852 20.7879 64.7385C20.8285 63.7638 21.078 62.8423 21.4912 62.017C21.5306 61.9359 21.5736 61.856 21.6165 61.7773C21.8382 61.3745 22.1016 60.9971 22.3987 60.6487C22.5786 60.438 22.77 60.24 22.9743 60.0536C23.6659 59.4204 24.4899 58.9284 25.4009 58.6251C25.4868 58.5962 25.5726 58.5696 25.6608 58.5441C26.0949 58.4179 26.5474 58.3346 27.014 58.2987C27.1741 58.286 27.3354 58.279 27.4979 58.2779C27.6128 58.2767 27.7277 58.279 27.8426 58.2836C28.786 58.323 29.6785 58.5557 30.4838 58.9423C30.5546 58.9759 30.6266 59.0118 30.6962 59.0488C31.1151 59.2688 31.5074 59.5304 31.8683 59.8291C32.0725 59.9981 32.2664 60.1798 32.4497 60.3708C33.1274 61.0793 33.652 61.9348 33.9711 62.8863C34.0001 62.972 34.0268 63.0577 34.0523 63.1445C34.1777 63.5774 34.2624 64.0289 34.2984 64.4943C34.31 64.654 34.3169 64.8149 34.3181 64.977C34.3193 65.0916 34.3169 65.2074 34.3123 65.3208C34.2705 66.2955 34.0222 67.217 33.609 68.0424C33.5696 68.1234 33.5266 68.2033 33.4837 68.282C33.2609 68.6848 32.9986 69.0634 32.7015 69.4107C32.5217 69.6202 32.3302 69.8193 32.1259 70.0057C31.4343 70.6389 30.6103 71.1309 29.6993 71.4342C29.6135 71.4631 29.5276 71.4897 29.4406 71.5152C29.0054 71.6414 28.5528 71.7247 28.0874 71.7606C27.9273 71.7734 27.766 71.7803 27.6035 71.7815C27.4874 71.7826 27.3726 71.7803 27.2577 71.7757C26.2469 71.734 25.293 71.4701 24.4435 71.0313C24.353 70.9839 24.2636 70.9364 24.1766 70.8855C23.7866 70.662 23.4211 70.3993 23.0857 70.1052C22.8687 69.9154 22.6644 69.7128 22.4753 69.4975C21.8823 68.8284 21.4204 68.04 21.1291 67.1741C21.1001 67.0885 21.0734 67.0017 21.049 66.9148C20.9225 66.4819 20.839 66.0304 20.8018 65.5651C20.7914 65.4065 20.7844 65.2456 20.7821 65.0823Z" fill="#FFD912"/>
<path d="M17.1057 65.1112C17.108 65.3624 17.1185 65.6113 17.1382 65.8567C17.1939 66.5744 17.3239 67.2713 17.5188 67.9393C17.5571 68.0735 17.5989 68.2078 17.643 68.3386C18.0921 69.6757 18.8046 70.8912 19.7191 71.9238C20.0127 72.256 20.3272 72.5697 20.6614 72.8614C21.1802 73.3164 21.743 73.7204 22.3453 74.0654C22.4811 74.1429 22.618 74.2182 22.7584 74.2899C24.0686 74.9671 25.5413 75.3735 27.101 75.4395C27.2774 75.4476 27.455 75.4499 27.6337 75.4487C27.8855 75.4464 28.1339 75.4371 28.381 75.4163C29.1005 75.3607 29.7992 75.2322 30.4688 75.0378C30.6034 74.9984 30.7368 74.9579 30.8691 74.9127C32.2733 74.4439 33.5452 73.6857 34.6117 72.7086C34.9262 72.4204 35.2233 72.1136 35.5007 71.7906C35.9591 71.2547 36.3641 70.6712 36.7087 70.0496C36.776 69.9269 36.841 69.803 36.9037 69.6792C37.5408 68.4046 37.9249 66.9831 37.9888 65.4805C37.9969 65.3045 37.9992 65.1274 37.998 64.9491C37.9957 64.6979 37.9853 64.449 37.9655 64.2036C37.9098 63.4859 37.7799 62.789 37.5861 62.1211C37.5466 61.9868 37.5048 61.8537 37.4607 61.7217C36.9687 60.255 36.1587 58.9341 35.1131 57.8414C34.8311 57.545 34.5305 57.266 34.2148 57.0056C33.6578 56.546 33.052 56.1408 32.4068 55.8028C32.2989 55.7461 32.1886 55.6905 32.0795 55.6384C30.8366 55.0411 29.458 54.6822 28.0027 54.6209C27.8263 54.6128 27.6488 54.6105 27.4712 54.6116C27.2194 54.6139 26.9699 54.6232 26.7239 54.644C26.0043 54.6996 25.3057 54.8281 24.635 55.0226C24.5003 55.0619 24.3669 55.1024 24.2346 55.1476C22.8304 55.6164 21.5585 56.3758 20.492 57.3517C20.1775 57.6399 19.8804 57.9467 19.6031 58.2708C19.1435 58.8068 18.7385 59.3902 18.395 60.0119C18.3277 60.1334 18.2627 60.2573 18.2 60.3812C17.5629 61.6557 17.1788 63.0773 17.115 64.581C17.1068 64.7558 17.1045 64.9329 17.1057 65.1112ZM20.7821 65.0823C20.781 64.9677 20.7833 64.8519 20.7879 64.7384C20.8285 63.7637 21.0781 62.8423 21.4912 62.0169C21.5306 61.9358 21.5736 61.856 21.6165 61.7773C21.8382 61.3744 22.1016 60.997 22.3987 60.6486C22.5786 60.4379 22.7701 60.2399 22.9743 60.0536C23.666 59.4204 24.4899 58.9284 25.4009 58.6251C25.4868 58.5961 25.5726 58.5695 25.6608 58.544C26.0949 58.4179 26.5475 58.3345 27.014 58.2986C27.1741 58.2859 27.3354 58.2789 27.4979 58.2778C27.6128 58.2766 27.7277 58.2789 27.8426 58.2836C28.786 58.3229 29.6785 58.5556 30.4838 58.9423C30.5546 58.9758 30.6266 59.0117 30.6962 59.0488C31.1152 59.2687 31.5074 59.5303 31.8683 59.829C32.0726 59.998 32.2664 60.1797 32.4497 60.3708C33.1275 61.0792 33.652 61.9347 33.9711 62.8863C34.0001 62.9719 34.0268 63.0576 34.0524 63.1444C34.1777 63.5773 34.2624 64.0288 34.2984 64.4942C34.31 64.6539 34.317 64.8148 34.3181 64.9769C34.3193 65.0915 34.317 65.2073 34.3123 65.3207C34.2705 66.2954 34.0222 67.2169 33.6091 68.0423C33.5696 68.1233 33.5267 68.2032 33.4837 68.2819C33.2609 68.6848 32.9986 69.0633 32.7016 69.4106C32.5217 69.6201 32.3302 69.8192 32.1259 70.0056C31.4343 70.6388 30.6103 71.1308 29.6994 71.4341C29.6135 71.463 29.5276 71.4897 29.4406 71.5151C29.0054 71.6413 28.5528 71.7247 28.0874 71.7606C27.9273 71.7733 27.766 71.7802 27.6035 71.7814C27.4875 71.7825 27.3726 71.7802 27.2577 71.7756C26.2469 71.7339 25.293 71.47 24.4435 71.0312C24.353 70.9838 24.2636 70.9363 24.1766 70.8854C23.7866 70.662 23.4211 70.3992 23.0857 70.1052C22.8687 69.9153 22.6644 69.7127 22.4753 69.4974C21.8823 68.8283 21.4204 68.04 21.1291 67.1741C21.1001 67.0884 21.0734 67.0016 21.049 66.9148C20.9225 66.4818 20.839 66.0303 20.8019 65.565C20.7914 65.4064 20.7845 65.2455 20.7821 65.0823Z" fill="#F9D86D"/>
<path d="M164.491 193.623C164.491 193.629 164.491 193.636 164.491 193.642C164.486 194.536 164.514 195.423 164.572 196.301C164.697 198.21 164.968 200.078 165.373 201.897C165.607 202.953 166.603 203.663 167.681 203.548L168.967 203.41C169.946 203.305 170.867 203.883 171.201 204.808C172.268 207.769 173.751 210.515 175.573 212.986C176.143 213.759 176.113 214.821 175.509 215.568L174.643 216.643C173.973 217.473 174.021 218.67 174.756 219.441C175.418 220.134 176.106 220.801 176.818 221.442C178.167 222.654 179.606 223.771 181.123 224.778C182.038 225.386 183.27 225.194 183.959 224.338L184.713 223.405C185.34 222.629 186.424 222.391 187.319 222.836C190.473 224.4 193.903 225.465 197.497 225.935C198.47 226.062 199.225 226.841 199.33 227.812L199.469 229.104C199.584 230.165 200.475 230.979 201.544 230.984C201.55 230.984 201.557 230.984 201.563 230.984C202.458 230.989 203.347 230.962 204.228 230.903C206.141 230.778 208.015 230.509 209.838 230.106C210.898 229.872 211.609 228.879 211.493 227.803L211.355 226.521C211.249 225.546 211.826 224.626 212.751 224.294C215.939 223.152 218.877 221.532 221.49 219.53C222.272 218.931 223.36 218.943 224.126 219.559L225.129 220.364C225.971 221.042 227.191 220.984 227.959 220.225C228.59 219.603 229.198 218.957 229.783 218.291C231.026 216.875 232.164 215.363 233.182 213.769C233.766 212.856 233.567 211.651 232.722 210.971L231.714 210.162C230.949 209.546 230.706 208.488 231.125 207.6C232.53 204.625 233.491 201.416 233.933 198.065C234.062 197.094 234.84 196.336 235.817 196.232L237.113 196.093C238.176 195.978 238.992 195.089 238.998 194.023C238.998 194.017 238.998 194.01 238.998 194.004C239.002 193.111 238.974 192.223 238.916 191.345C238.791 189.437 238.521 187.568 238.117 185.749C237.882 184.692 236.887 183.983 235.807 184.099L234.522 184.236C233.547 184.34 232.623 183.77 232.292 182.849C231.067 179.448 229.295 176.33 227.09 173.589C226.464 172.811 226.467 171.704 227.093 170.927L227.845 169.996C228.536 169.142 228.462 167.902 227.671 167.138C227.089 166.575 226.488 166.029 225.868 165.504C224.377 164.237 222.782 163.087 221.101 162.064C220.186 161.509 219.001 161.714 218.329 162.545L217.458 163.623C216.854 164.37 215.82 164.626 214.942 164.235C212.136 162.985 209.13 162.123 206.001 161.714C205.025 161.585 204.262 160.811 204.156 159.834L204.017 158.539C203.902 157.479 203.012 156.666 201.943 156.661C201.937 156.661 201.93 156.661 201.925 156.661C201.029 156.656 200.14 156.683 199.259 156.742C197.345 156.867 195.472 157.136 193.649 157.54C192.591 157.774 191.878 158.768 191.994 159.843L192.132 161.124C192.238 162.099 191.661 163.019 190.736 163.351C187.548 164.493 184.61 166.113 181.997 168.115C181.216 168.714 180.127 168.702 179.361 168.086L178.358 167.281C177.516 166.603 176.296 166.661 175.527 167.42C174.896 168.042 174.287 168.688 173.703 169.355C172.459 170.771 171.321 172.283 170.303 173.878C169.721 174.791 169.921 175.995 170.765 176.675L171.773 177.484C172.539 178.1 172.781 179.158 172.362 180.046C170.958 183.021 169.997 186.23 169.555 189.58C169.427 190.551 168.649 191.309 167.671 191.413L166.373 191.552C165.311 191.669 164.496 192.557 164.491 193.623ZM192.461 193.779C192.462 193.621 192.465 193.462 192.475 193.307C192.548 191.971 192.905 190.712 193.488 189.587C193.544 189.477 193.603 189.368 193.664 189.259C193.975 188.71 194.343 188.196 194.756 187.725C195.006 187.441 195.273 187.171 195.556 186.918C196.517 186.062 197.654 185.402 198.908 185.001C199.026 184.963 199.145 184.929 199.266 184.895C199.864 184.729 200.486 184.624 201.125 184.581C201.344 184.566 201.566 184.559 201.79 184.56C201.948 184.562 202.106 184.566 202.262 184.575C203.555 184.646 204.775 184.979 205.874 185.526C205.971 185.573 206.068 185.624 206.164 185.675C206.735 185.983 207.269 186.35 207.758 186.766C208.036 187.002 208.298 187.253 208.548 187.519C209.465 188.502 210.169 189.685 210.59 190.994C210.628 191.111 210.663 191.231 210.697 191.35C210.862 191.946 210.968 192.566 211.011 193.205C211.025 193.424 211.032 193.645 211.031 193.869C211.03 194.026 211.026 194.185 211.017 194.34C210.943 195.677 210.587 196.935 210.004 198.061C209.948 198.171 209.889 198.279 209.828 198.388C209.515 198.937 209.149 199.452 208.736 199.923C208.486 200.207 208.219 200.476 207.936 200.729C206.975 201.585 205.838 202.245 204.583 202.646C204.466 202.684 204.347 202.719 204.227 202.752C203.628 202.918 203.006 203.023 202.367 203.066C202.147 203.081 201.926 203.088 201.703 203.087C201.544 203.086 201.386 203.081 201.229 203.072C199.844 202.997 198.541 202.618 197.382 202.001C197.259 201.935 197.138 201.868 197.018 201.796C196.488 201.482 195.991 201.117 195.535 200.708C195.241 200.444 194.965 200.162 194.709 199.864C193.907 198.936 193.287 197.846 192.903 196.654C192.865 196.536 192.83 196.417 192.797 196.297C192.631 195.701 192.525 195.081 192.482 194.442C192.467 194.222 192.46 194.002 192.461 193.779Z" fill="#FFD912"/>
<path d="M187.417 193.754C187.416 194.098 187.427 194.439 187.449 194.777C187.512 195.762 187.678 196.72 187.934 197.64C187.984 197.825 188.039 198.009 188.097 198.19C188.689 200.032 189.645 201.71 190.881 203.143C191.278 203.604 191.704 204.039 192.158 204.446C192.861 205.078 193.627 205.643 194.446 206.126C194.631 206.235 194.818 206.341 195.009 206.441C196.795 207.393 198.808 207.976 200.945 208.093C201.187 208.107 201.43 208.114 201.675 208.115C202.02 208.116 202.361 208.107 202.701 208.084C203.689 208.02 204.648 207.856 205.571 207.601C205.757 207.55 205.94 207.496 206.122 207.437C208.057 206.819 209.814 205.8 211.294 204.479C211.732 204.09 212.144 203.673 212.529 203.235C213.167 202.508 213.734 201.714 214.215 200.867C214.311 200.701 214.401 200.533 214.489 200.363C215.386 198.626 215.938 196.683 216.051 194.622C216.065 194.381 216.072 194.138 216.073 193.894C216.074 193.55 216.064 193.209 216.042 192.871C215.978 191.885 215.812 190.928 215.557 190.008C215.506 189.823 215.45 189.64 215.392 189.458C214.743 187.438 213.656 185.612 212.24 184.095C211.858 183.684 211.452 183.296 211.023 182.932C210.267 182.292 209.443 181.726 208.564 181.25C208.416 181.171 208.268 181.093 208.117 181.019C206.423 180.178 204.538 179.662 202.544 179.553C202.303 179.539 202.059 179.533 201.816 179.531C201.471 179.53 201.128 179.539 200.791 179.563C199.802 179.626 198.843 179.791 197.92 180.045C197.734 180.096 197.551 180.151 197.368 180.21C195.434 180.828 193.677 181.847 192.196 183.167C191.759 183.556 191.347 183.973 190.961 184.413C190.322 185.14 189.756 185.933 189.275 186.78C189.18 186.946 189.09 187.114 189.001 187.284C188.104 189.02 187.553 190.964 187.439 193.026C187.425 193.266 187.418 193.508 187.417 193.754ZM192.461 193.778C192.462 193.621 192.465 193.462 192.475 193.307C192.548 191.971 192.905 190.712 193.488 189.586C193.544 189.476 193.603 189.368 193.664 189.259C193.975 188.71 194.343 188.196 194.756 187.725C195.006 187.44 195.273 187.17 195.556 186.918C196.517 186.061 197.654 185.402 198.908 185.001C199.026 184.963 199.145 184.928 199.266 184.895C199.864 184.729 200.486 184.624 201.125 184.581C201.344 184.566 201.566 184.559 201.79 184.56C201.948 184.561 202.106 184.566 202.262 184.575C203.555 184.646 204.775 184.979 205.874 185.525C205.971 185.573 206.068 185.624 206.164 185.675C206.735 185.983 207.269 186.35 207.758 186.765C208.036 187.001 208.298 187.253 208.548 187.519C209.465 188.502 210.169 189.685 210.59 190.994C210.628 191.111 210.663 191.23 210.697 191.349C210.862 191.946 210.968 192.566 211.011 193.205C211.025 193.424 211.032 193.645 211.031 193.868C211.03 194.026 211.026 194.184 211.017 194.34C210.943 195.677 210.587 196.935 210.004 198.06C209.948 198.17 209.889 198.279 209.828 198.388C209.515 198.936 209.149 199.452 208.736 199.923C208.486 200.206 208.219 200.476 207.936 200.728C206.975 201.585 205.838 202.245 204.583 202.645C204.466 202.684 204.347 202.718 204.227 202.752C203.628 202.918 203.006 203.023 202.367 203.066C202.147 203.081 201.926 203.088 201.703 203.087C201.544 203.085 201.386 203.081 201.229 203.071C199.844 202.996 198.541 202.618 197.382 202.001C197.259 201.935 197.138 201.868 197.018 201.796C196.488 201.482 195.991 201.116 195.535 200.708C195.241 200.444 194.965 200.161 194.709 199.864C193.907 198.935 193.287 197.846 192.903 196.654C192.865 196.536 192.83 196.416 192.797 196.297C192.631 195.701 192.525 195.08 192.482 194.441C192.467 194.222 192.46 194.002 192.461 193.778Z" fill="#F9D86D"/>
<path d="M50.4025 48.772V102.411C50.4025 104.803 48.4413 106.761 46.0437 106.761C43.6461 106.761 41.6837 104.803 41.6837 102.411V86.4027C42.2976 85.5507 42.6609 84.5077 42.6609 83.3836V67.7986C42.6609 66.6746 42.2976 65.6316 41.6837 64.7796V48.772C41.6837 47.5762 42.1746 46.4892 42.9649 45.7009C43.7564 44.9125 44.8461 44.4229 46.0449 44.4229C48.4413 44.424 50.4025 46.3804 50.4025 48.772Z" fill="#5D7BAA"/>
<path d="M179.233 99.571H183.46C184.829 99.571 185.949 98.4539 185.949 97.0879V91.4225C185.949 90.0566 184.829 88.9395 183.46 88.9395H179.233C177.864 88.9395 176.744 90.0566 176.744 91.4225V97.0879C176.744 98.4539 177.864 99.571 179.233 99.571Z" fill="#5D7BAA"/>
<path d="M179.233 72.6316H183.46C184.829 72.6316 185.949 71.5145 185.949 70.1485V64.4831C185.949 63.1171 184.829 62 183.46 62H179.233C177.864 62 176.744 63.1171 176.744 64.4831V70.1485C176.744 71.5145 177.864 72.6316 179.233 72.6316Z" fill="#5D7BAA"/>
<path d="M60.8806 254.268H166.82C175.639 254.268 182.79 247.136 182.79 238.337V15.9311C182.79 7.13324 175.641 0 166.82 0H60.8806C52.0609 0 44.9099 7.13208 44.9099 15.9311V238.338C44.9099 247.136 52.0609 254.268 60.8806 254.268Z" fill="#455E86"/>
<path d="M177.828 25.1179V235.212C177.828 236.975 177.425 238.643 176.709 240.131C175.737 242.149 174.185 243.838 172.269 244.98C170.56 246.001 168.562 246.586 166.426 246.586H61.274C58.1245 246.586 55.2743 245.314 53.2098 243.256C51.1476 241.196 49.871 238.352 49.871 235.212V25.1179C49.871 18.8355 54.976 13.7432 61.274 13.7432H166.426C172.723 13.7432 177.828 18.8355 177.828 25.1179Z" fill="#F5F3F7"/>
<path d="M123.666 9.81477H104.035C102.184 9.81477 100.669 8.30408 100.669 6.45768C100.669 4.61128 102.184 3.10059 104.035 3.10059H123.667C125.518 3.10059 127.032 4.61128 127.032 6.45768C127.031 8.30408 125.517 9.81477 123.666 9.81477Z" fill="#D2DCEB"/>
<path d="M137.514 6.89445C137.752 5.88773 137.127 4.87893 136.118 4.64121C135.109 4.4035 134.097 5.02689 133.859 6.03361C133.621 7.04033 134.246 8.04915 135.255 8.28687C136.264 8.52458 137.276 7.90117 137.514 6.89445Z" fill="#E9E4ED"/>
<path d="M166.01 208.488H70.7413C67.1171 208.488 64.1799 205.557 64.1799 201.943C64.1799 198.327 67.1171 195.397 70.7413 195.397H166.01C169.634 195.397 172.571 198.327 172.571 201.943C172.571 205.557 169.634 208.488 166.01 208.488Z" fill="#D2DCEB"/>
<path d="M166.01 229.828H70.7413C67.1171 229.828 64.1799 226.898 64.1799 223.282C64.1799 219.667 67.1171 216.737 70.7413 216.737H166.01C169.634 216.737 172.571 219.667 172.571 223.282C172.571 226.897 169.634 229.828 166.01 229.828Z" fill="#D2DCEB"/>
<path d="M61.0907 204.409L59.6134 204.023C59.4729 203.986 59.3221 204.021 59.2118 204.116L58.0571 205.111C57.7798 205.351 57.3469 205.168 57.326 204.803L57.2367 203.283C57.2285 203.139 57.1485 203.007 57.0243 202.932L55.7187 202.143C55.4054 201.953 55.4449 201.488 55.7872 201.354L57.2088 200.799C57.3446 200.746 57.4456 200.63 57.478 200.489L57.8262 199.006C57.9097 198.65 58.367 198.544 58.5991 198.827L59.5669 200.004C59.6598 200.116 59.8014 200.176 59.9464 200.164L61.4678 200.036C61.8334 200.005 62.0759 200.407 61.8775 200.715L61.0535 201.997C60.9746 202.12 60.9618 202.273 61.0187 202.407L61.6106 203.81C61.7521 204.147 61.4458 204.501 61.0907 204.409Z" fill="#D2DCEB"/>
<path d="M61.3077 225.367L59.8304 224.982C59.6899 224.945 59.5391 224.98 59.4288 225.075L58.2741 226.07C57.9968 226.31 57.5639 226.127 57.543 225.762L57.4537 224.242C57.4455 224.098 57.3655 223.966 57.2413 223.89L55.9357 223.102C55.6224 222.912 55.6619 222.447 56.0042 222.314L57.4258 221.759C57.5616 221.706 57.6626 221.59 57.6951 221.449L58.0432 219.966C58.1268 219.61 58.584 219.504 58.8161 219.787L59.7839 220.964C59.8768 221.076 60.0184 221.136 60.1634 221.124L61.6848 220.996C62.0504 220.965 62.2929 221.367 62.0945 221.675L61.2705 222.957C61.1916 223.08 61.1789 223.233 61.2357 223.367L61.8276 224.77C61.9703 225.107 61.6628 225.46 61.3077 225.367Z" fill="#D2DCEB"/>
<path d="M149.924 179.333H77.7762C70.1553 179.333 63.978 173.171 63.978 165.569V100.562C63.978 92.9599 70.1553 86.7979 77.7762 86.7979H149.925C157.546 86.7979 163.723 92.9599 163.723 100.562V165.569C163.722 173.171 157.545 179.333 149.924 179.333Z" fill="#5D7BAA"/>
<path d="M160.374 100.84V165.58C160.374 171.205 156.061 175.825 150.552 176.325C150.225 176.356 149.892 176.371 149.555 176.371H78.1453C78.1035 176.371 78.0629 176.371 78.0223 176.37C72.1037 176.304 67.3271 171.498 67.3271 165.58V100.84C67.3271 94.9212 72.1037 90.1148 78.0223 90.05C78.064 90.0488 78.1046 90.0488 78.1453 90.0488H149.556C149.893 90.0488 150.225 90.0639 150.553 90.0951C156.061 90.5952 160.374 95.2153 160.374 100.84Z" fill="#455E86"/>
<path d="M150.553 128.944V161.272C150.553 164.049 148.297 166.3 145.513 166.3H82.1884C79.4044 166.3 77.1484 164.048 77.1484 161.272V106.248C77.1484 103.471 79.4044 101.221 82.1884 101.221H113.818C115.596 101.221 117.037 102.658 117.037 104.432C117.037 116.197 126.597 125.733 138.391 125.733H147.333C149.112 125.733 150.553 127.171 150.553 128.944Z" fill="#273E65"/>
<path d="M150.552 90.0943V118.381C150.552 120.674 148.689 122.532 146.39 122.532C145.24 122.532 144.2 122.068 143.448 121.316C142.695 120.564 142.23 119.527 142.23 118.381V90.0469H149.556C149.892 90.0469 150.225 90.0619 150.552 90.0943Z" fill="#5D7BAA"/>
<path d="M137.793 90.0469V118.38C137.793 120.673 135.93 122.531 133.632 122.531C132.482 122.531 131.441 122.067 130.689 121.315C129.936 120.563 129.47 119.526 129.47 118.38V90.0469H137.793Z" fill="#5D7BAA"/>
<path d="M125.181 90.0469V94.5431C125.181 96.8351 123.319 98.6943 121.02 98.6943C119.87 98.6943 118.83 98.2301 118.078 97.4776C117.324 96.7263 116.858 95.6891 116.858 94.5431V90.0469H125.181Z" fill="#5D7BAA"/>
<path d="M99.1954 90.0469V94.5431C99.1954 96.8351 97.3328 98.6943 95.0339 98.6943C93.885 98.6943 92.8441 98.2301 92.0921 97.4776C91.3389 96.7263 90.8735 95.6891 90.8735 94.5431V90.0469H99.1954Z" fill="#5D7BAA"/>
<path d="M86.3453 90.0469V94.5431C86.3453 96.8351 84.4827 98.6943 82.1838 98.6943C81.0337 98.6943 79.9939 98.2301 79.2419 97.4776C78.4876 96.7263 78.0222 95.6891 78.0222 94.5431V90.048C78.064 90.0469 78.1046 90.0469 78.1453 90.0469H86.3453Z" fill="#5D7BAA"/>
<path d="M150.552 172.975V176.324C150.225 176.355 149.892 176.371 149.555 176.371H142.229V172.975C142.229 170.683 144.091 168.825 146.389 168.825H146.39C148.689 168.824 150.552 170.683 150.552 172.975Z" fill="#5D7BAA"/>
<path d="M137.793 172.975V176.371H129.469V172.975C129.469 170.683 131.332 168.825 133.631 168.825C134.781 168.825 135.822 169.289 136.574 170.041C137.328 170.791 137.793 171.828 137.793 172.975Z" fill="#5D7BAA"/>
<path d="M125.181 172.975V176.371H116.857V172.975C116.857 170.683 118.72 168.825 121.019 168.825C122.169 168.825 123.208 169.289 123.962 170.041C124.715 170.791 125.181 171.828 125.181 172.975Z" fill="#5D7BAA"/>
<path d="M112.022 172.975V176.371H103.698V172.975C103.698 170.683 105.561 168.825 107.86 168.825C109.01 168.825 110.051 169.289 110.803 170.041C111.556 170.791 112.022 171.828 112.022 172.975Z" fill="#5D7BAA"/>
<path d="M99.1954 172.975V176.371H90.8724V172.975C90.8724 170.683 92.735 168.825 95.0327 168.825H95.0339C97.3328 168.824 99.1954 170.683 99.1954 172.975Z" fill="#5D7BAA"/>
<path d="M86.3453 172.975V176.371H78.1453C78.1035 176.371 78.0629 176.371 78.0222 176.369V172.975C78.0222 170.683 79.8848 168.825 82.1838 168.825C83.3338 168.825 84.3736 169.289 85.1268 170.041C85.8799 170.791 86.3453 171.828 86.3453 172.975Z" fill="#5D7BAA"/>
<path d="M112.022 90.0469V94.5431C112.022 96.8351 110.159 98.6943 107.861 98.6943C106.711 98.6943 105.67 98.2301 104.918 97.4776C104.165 96.7263 103.699 95.6891 103.699 94.5431V90.0469H112.022Z" fill="#5D7BAA"/>
<path d="M93.3152 28.2952C93.3152 34.4005 90.8341 39.9281 86.8223 43.93C83.8851 46.86 80.1274 48.9714 75.9229 49.8918L69.4497 61.0755C68.5886 62.5642 66.4359 62.5642 65.5748 61.0755L59.3987 50.4057H22.1654C9.92337 50.4057 0 40.5069 0 28.2952C0 22.19 2.48113 16.6623 6.49296 12.6605C10.5036 8.65858 16.045 6.18359 22.1654 6.18359H71.1498C83.3919 6.18359 93.3152 16.0835 93.3152 28.2952Z" fill="#273E65"/>
<path d="M35.2595 30.9428C37.0229 29.1838 37.0229 26.3318 35.2595 24.5728C33.4961 22.8138 30.6371 22.8138 28.8737 24.5728C27.1104 26.3318 27.1104 29.1838 28.8737 30.9428C30.6371 32.7018 33.4961 32.7018 35.2595 30.9428Z" fill="#FFD912"/>
<path d="M47.8332 32.2045C50.2956 31.8107 51.9717 29.5002 51.577 27.0439C51.1822 24.5876 48.866 22.9156 46.4036 23.3094C43.9412 23.7032 42.265 26.0137 42.6598 28.47C43.0546 30.9263 45.3708 32.5983 47.8332 32.2045Z" fill="#FFD912"/>
<path d="M63.2048 32.1373C65.6318 31.5657 67.1347 29.1397 66.5616 26.7187C65.9885 24.2977 63.5565 22.7985 61.1295 23.3702C58.7025 23.9418 57.1996 26.3679 57.7727 28.7888C58.3458 31.2098 60.7778 32.709 63.2048 32.1373Z" fill="#FFD912"/>
<path d="M129.714 234.102C129.714 240.207 132.195 245.735 136.207 249.737C139.144 252.667 142.902 254.778 147.106 255.698L153.58 266.882C154.441 268.371 156.593 268.371 157.455 266.882L163.631 256.212H200.865C213.107 256.212 223.03 246.314 223.03 234.102C223.03 227.997 220.549 222.469 216.538 218.467C212.527 214.465 206.985 211.99 200.864 211.99H151.881C139.637 211.991 129.714 221.89 129.714 234.102Z" fill="#273E65"/>
<path d="M194.152 236.75C195.916 234.991 195.916 232.139 194.152 230.38C192.389 228.621 189.53 228.621 187.767 230.38C186.003 232.139 186.003 234.991 187.767 236.75C189.53 238.509 192.389 238.509 194.152 236.75Z" fill="#FFD912"/>
<path d="M177.648 237.729C179.952 236.777 181.046 234.142 180.091 231.844C179.137 229.545 176.495 228.454 174.191 229.406C171.887 230.358 170.793 232.993 171.748 235.291C172.702 237.59 175.343 238.681 177.648 237.729Z" fill="#FFD912"/>
<path d="M164.051 236.75C165.814 234.991 165.814 232.139 164.051 230.38C162.287 228.621 159.428 228.621 157.665 230.38C155.901 232.139 155.901 234.991 157.665 236.75C159.428 238.509 162.287 238.509 164.051 236.75Z" fill="#FFD912"/>
<path d="M114.282 63.7188C111.537 63.7188 109.032 65.0651 107.122 67.2831L108.724 68.9871C110.24 67.3606 112.174 66.3859 114.282 66.3859C116.468 66.3859 118.468 67.4359 120.008 69.1734L121.603 67.4764C119.676 65.1438 117.105 63.7188 114.282 63.7188Z" fill="#D2DCEB"/>
<path d="M114.416 49.5234C107.525 49.5234 101.382 52.7092 97.3828 57.6846L100.282 60.5764C103.524 56.3256 108.649 53.5809 114.418 53.5809C120.205 53.5809 125.345 56.343 128.586 60.618L131.486 57.7252C127.486 52.7266 121.327 49.5234 114.416 49.5234Z" fill="#D2DCEB"/>
<path d="M114.416 39.8555C104.873 39.8555 96.3557 44.2394 90.7795 51.0994L94.8169 55.1268C99.3405 49.2785 106.437 45.5116 114.416 45.5116C122.415 45.5116 129.526 49.2958 134.049 55.1684L138.086 51.1411C132.511 44.2567 123.98 39.8555 114.416 39.8555Z" fill="#D2DCEB"/>
<path d="M114.416 57.5889C109.733 57.5889 105.551 59.7386 102.813 63.1026L104.796 65.081C107.018 62.2135 110.502 60.3683 114.416 60.3683C118.351 60.3683 121.848 62.2321 124.071 65.1226L126.055 63.1431C123.316 59.7548 119.12 57.5889 114.416 57.5889Z" fill="#D2DCEB"/>
<path d="M117.629 73.5375C117.915 71.7787 116.718 70.1215 114.955 69.836C113.191 69.5506 111.53 70.745 111.244 72.5038C110.958 74.2627 112.155 75.9199 113.918 76.2053C115.682 76.4908 117.343 75.2964 117.629 73.5375Z" fill="#D2DCEB"/>
</g>
<defs>
<clipPath id="clip0_772_18747">
<rect width="239" height="268" fill="white"/>
</clipPath>
</defs>
</svg>
