<svg width="247" height="278" viewBox="0 0 247 278" fill="none" xmlns="http://www.w3.org/2000/svg">
<g clip-path="url(#clip0_648_8383)">
<path d="M201.486 133.177C202.397 132.047 202.998 130.509 203.081 128.798C203.254 125.165 201.073 122.105 198.206 121.961C197.966 121.946 197.725 121.961 197.469 121.999C196.055 117.642 192.752 114.718 189.006 114.537C187.825 114.476 186.651 114.695 185.515 115.17C183.145 109.524 178.541 105.876 173.448 105.627C168.89 105.408 164.564 107.813 161.547 112.253C160.073 111.303 158.478 110.783 156.8 110.7C152.023 110.466 147.637 113.866 145.576 119.368C145.471 119.353 145.358 119.338 145.245 119.338C141.356 119.15 138 123.002 137.76 127.931C137.662 129.868 138.068 131.677 138.828 133.177H201.486Z" fill="#F9F9F9"/>
<path d="M143.906 233.995C143.906 245.286 134.766 254.445 123.496 254.445C112.227 254.445 103.087 245.286 103.087 233.995C103.087 222.703 112.219 213.545 123.496 213.545C134.773 213.552 143.906 222.703 143.906 233.995Z" fill="#F9DA2F"/>
<path d="M123.496 70.1914C74.5672 70.1914 30.5054 91.4554 0 125.225L14.3161 141.039C40.9849 110.654 80.0363 91.4403 123.496 91.4403C166.956 91.4403 206.008 110.662 232.676 141.039L246.992 125.225C216.495 91.4554 172.433 70.1914 123.496 70.1914Z" fill="#F9DA2F"/>
<path d="M123.496 117.498C86.7543 117.498 53.834 134.224 31.9197 160.463L46.3261 176.368C64.321 153.468 92.2235 138.739 123.504 138.739C154.784 138.739 182.687 153.468 200.681 176.368L215.08 160.463C193.158 134.224 160.246 117.498 123.496 117.498Z" fill="#F9DA2F"/>
<path d="M123.496 164.812C98.9189 164.812 77.1776 177.197 64.1404 196.057L78.9305 212.391C87.642 196.705 104.343 186.061 123.496 186.061C142.65 186.061 159.35 196.705 168.062 212.391L182.852 196.064C169.815 177.189 148.081 164.812 123.496 164.812Z" fill="#F9DA2F"/>
<path d="M132.125 4.26626C131.967 6.47482 130.222 8.1482 128.221 8.00499C126.22 7.86177 124.73 5.95472 124.888 3.74615C125.046 1.53759 126.791 -0.135792 128.792 -0.000111975C130.786 0.150643 132.283 2.0577 132.125 4.26626Z" fill="#131414"/>
<path d="M131.756 6.80613C130.462 8.60012 128.995 8.06494 126.994 7.92172C124.993 7.7785 123.925 8.99962 124.083 6.79105C124.241 4.58249 123.918 1.89905 125.926 1.91413C128.845 1.93674 133.396 4.52973 131.756 6.80613Z" fill="#F9DA2F"/>
<path d="M125.166 27.5799L125.422 23.9844L120.495 24.0748L120.133 27.2256L125.166 27.5799Z" fill="#F4B67D"/>
<path d="M130.696 17.4423C130.696 17.4423 129.898 25.9676 122.759 25.3947C118.125 25.0027 116.808 19.6057 116.808 19.6057C116.808 19.6057 115.01 19.2213 114.98 17.0127C114.95 14.8041 115.876 14.171 116.387 14.97C116.327 13.1383 117.666 9.67092 117.666 9.67092C117.666 9.67092 127.416 9.56539 128.74 9.53524C130.064 9.50509 130.696 17.4423 130.696 17.4423Z" fill="#FFC384"/>
<path d="M130.079 17.9841C130.079 17.9841 130.395 16.7027 131.275 16.6876C132.155 16.6726 132.313 17.8635 131.704 19.2279C131.094 20.5922 129.868 20.8485 129.725 20.562C129.582 20.2756 130.079 17.9841 130.079 17.9841Z" fill="#FFC384"/>
<path d="M121.119 9.82185C121.119 9.82185 125.264 10.6359 126.603 10.0932C127.95 9.55049 129.153 11.1862 129.402 11.7364C129.658 12.2867 128.649 14.1636 129.552 14.6988C130.462 15.234 130.049 17.533 129.876 18.7089C130.229 16.8772 131.433 15.9124 131.952 17.4501C133.727 10.8244 133.351 5.9399 127.852 3.79164C122.345 1.64338 117.109 3.55043 115.657 7.01026C114.484 9.81431 113.957 15.0907 114.988 16.4325C114.988 16.4325 115.146 15.5505 115.281 15.2264C115.56 14.5857 116.289 15.1887 116.41 15.95C116.53 16.7114 116.643 17.7666 116.643 17.7666C116.643 17.7666 116.846 15.3018 117.034 14.6837C117.222 14.0656 118.591 12.6259 118.403 11.8344C118.223 11.0354 119.848 8.98515 121.119 9.82185Z" fill="#131414"/>
<path d="M107.329 38.6094C107.329 38.6094 104.967 45.5667 104.215 48.6271C103.463 51.6874 109.647 60.9513 109.647 60.9513L111.121 56.5115L109.112 49.8256L112.671 39.7928L107.329 38.6094Z" fill="#F4B67D"/>
<path d="M138.881 40.8633C138.881 40.8633 140.235 48.0845 140.543 51.2202C140.852 54.3634 133.419 62.6474 133.419 62.6474L132.591 58.0494L135.533 51.7177L133.434 41.2854L138.881 40.8633Z" fill="#F4B67D"/>
<path d="M127.604 75.3037C127.604 75.3037 129.229 73.8187 132.787 74.7685C137.444 76.0047 143.59 74.9192 142.762 79.766C142.033 82.2083 138.128 82.0198 135.766 81.8314C131.395 81.4846 127.243 79.8791 126.701 78.6957C126.152 77.5047 127.604 75.3037 127.604 75.3037Z" fill="#121313"/>
<path d="M132.787 74.7685C129.229 73.8187 127.604 75.3037 127.604 75.3037C127.604 75.3037 127.559 75.3715 127.498 75.4695C128.13 75.1002 129.703 74.4519 132.358 75.1605C137.015 76.3966 143.161 75.3112 142.326 80.158C142.228 80.4896 142.063 80.7685 141.86 81.0173C142.273 80.7082 142.597 80.3012 142.755 79.766C143.59 74.9268 137.444 76.0047 132.787 74.7685Z" fill="black"/>
<path d="M129.033 75.4611C129.033 75.4611 127.694 75.1747 126.024 74.6621L125.881 76.6295L124.82 76.5541L124.76 77.3983L123.835 77.3305L123.782 78.0692C125.851 78.4159 127.483 78.8305 128.537 79.426C130.124 80.323 135.217 80.2627 135.661 78.3255C136.097 76.3807 132.539 74.5114 129.033 75.4611Z" fill="#EAA36A"/>
<path d="M118.952 77.8801C118.952 77.8801 117.47 76.9152 113.874 77.6841C109.165 78.6942 103.004 76.7117 103.598 81.5887C104.207 84.061 108.037 84.5812 110.406 84.5133C114.792 84.3776 119.095 82.463 119.697 81.3098C120.291 80.1489 118.952 77.8801 118.952 77.8801Z" fill="#121313"/>
<path d="M104.268 82.1389C103.673 77.262 109.827 79.2444 114.544 78.2344C117.004 77.7067 118.456 77.9931 119.14 78.2268C119.035 78.0158 118.952 77.8801 118.952 77.8801C118.952 77.8801 117.47 76.9152 113.874 77.6841C109.165 78.6942 103.004 76.7117 103.598 81.5887C103.786 82.3575 104.29 82.9379 104.96 83.3676C104.629 83.0284 104.388 82.6213 104.268 82.1389Z" fill="black"/>
<path d="M97.7152 63.8381C97.7152 63.8381 103.982 63.2125 106.735 63.2351C109.489 63.2502 133.885 63.8381 133.885 63.8381C133.885 63.8381 145.32 61.0718 149.104 61.2678C138.557 70.6673 128.589 77.2629 122.511 75.2201C116.425 73.1925 97.7152 63.8381 97.7152 63.8381Z" fill="#121313"/>
<path d="M126.144 27.7999C126.144 27.7999 133.291 30.8301 135.796 33.1366C138.301 35.4432 140.28 44.2322 140.378 45.7096C137.376 45.7322 133.208 46.0639 133.208 46.0639C133.208 46.0639 133.171 49.373 132.291 52.3805C131.41 55.3881 112.663 52.8102 112.663 52.8102L112.588 44.5337L104.922 42.8453C104.922 42.8453 107.826 34.2371 110.015 32.006C111.429 30.5587 119.193 27.5813 119.193 27.5813L119.562 25.418L126.062 25.8853L126.144 27.7999Z" fill="#4A5D85"/>
<path d="M106.84 45.4279L105.41 65.541L137.069 67.8021L138.5 47.689L106.84 45.4279Z" fill="#F4F4F4"/>
<path d="M130.109 75.6805C130.109 75.6805 120.991 73.9619 118.245 71.2709C115.507 68.58 103.861 62.4065 97.5798 63.2055C91.2982 64.0045 90.1171 68.1955 96.8576 73.3061C101.785 76.5097 114.063 76.3137 116.981 76.5248C119.9 76.7358 125.971 78.5524 125.971 78.5524L130.109 75.6805Z" fill="#F4B67D"/>
<path d="M105.667 64.5311C102.718 63.5211 97.9183 62.2849 95.684 62.5713C89.4024 63.3703 90.117 68.1945 96.8651 73.3051C97.4143 73.6593 98.0688 73.9684 98.7759 74.2473C99.3326 69.9432 100.807 65.9407 105.667 64.5311Z" fill="black"/>
<path d="M117.034 78.4008C117.034 78.4008 123.158 75.9887 125.031 73.4485C126.904 70.9082 133.479 64.6142 140.513 63.2423C147.539 61.878 151.504 59.9333 153.407 61.8479C155.318 63.77 151.903 70.456 145.561 73.4409C139.219 76.4183 129.597 77.956 125.964 79.0339C122.33 80.1118 119.599 81.0691 118.185 82.2149C116.771 83.3606 111.738 84.1596 110.978 82.3204C110.218 80.4963 113.416 78.054 117.034 78.4008Z" fill="#F4B67D"/>
<path d="M153.4 61.8479C151.489 59.9333 147.532 61.878 140.506 63.2423C139.881 63.3629 139.257 63.5363 138.64 63.7323C142.567 65.3454 145.11 69.167 145.538 73.4485C145.546 73.4485 145.546 73.4409 145.553 73.4409C151.903 70.4635 155.311 63.77 153.4 61.8479Z" fill="black"/>
<path d="M183.266 147.619L188.284 150.054L188.577 150.74L177.21 158.647L176.924 157.961L183.266 147.619Z" fill="#C4C4C4"/>
<path d="M183.559 148.297L188.577 150.739L182.025 160.764L177.21 158.646L183.559 148.297Z" fill="#A8A8A8"/>
<path d="M184.643 156.755C183.958 157.803 183.973 157.125 183.74 156.914C183.65 154.69 182.95 152.986 182.89 152.647C182.784 152.097 182.318 152.059 182.265 152.323C182.16 151.486 181.43 151.125 181.355 151.411C181.287 151.697 181.551 152.18 181.483 152.429C181.302 151.788 180.768 151.215 180.52 151.283C180.272 151.351 179.918 151.818 180.339 152.172C180.768 152.527 180.806 153.567 180.874 154.102C180.874 153.996 180.806 153.567 180.482 152.851C180.159 152.135 179.173 152.24 179.459 153.099C180.121 153.959 180.219 156.009 179.459 157.245C178.76 158.391 178 159.461 179.158 161.074C179.256 161.203 179.339 161.338 179.459 161.474C178.888 164.662 176.601 174.574 175.171 176.286C174.502 175.426 169.251 167.519 169.251 167.519L165.331 170.353C165.331 170.353 169.108 175.758 171.891 180.115C174.675 184.472 178.737 183.899 179.595 180.688C180.452 177.477 182.122 162.665 182.89 161.474C182.972 161.301 183.04 161.127 183.108 160.946C183.228 160.63 183.326 160.313 183.416 159.996C183.416 160.004 183.416 160.019 183.416 160.019C183.416 160.019 184.349 158.135 184.643 156.755Z" fill="#FFC384"/>
<path d="M162.503 151.605C162.503 151.605 162.916 156.052 164.797 160.04C166.467 163.575 158.463 158.336 158.267 156.384C158.087 154.432 158.485 147.618 162.503 151.605Z" fill="#121313"/>
<path d="M161.555 262.932C161.555 262.932 160.554 268.788 160.344 270.65C160.133 272.505 163.699 274.366 164.692 275.007C163.834 276.794 155.679 273.861 155.679 273.861L157.206 262.939H161.555V262.932Z" fill="#FFC384"/>
<path d="M155.867 272.52C155.867 272.52 159.629 274.314 161.006 274.698C162.382 275.082 163.014 273.967 163.014 273.967C163.014 273.967 168.724 275.52 169.913 275.587C171.003 275.844 170.244 277.562 169.386 277.751C168.528 277.939 154.965 277.133 154.965 277.133C154.965 277.133 154.385 273.288 155.867 272.52Z" fill="black"/>
<path d="M169.386 276.794C168.566 276.847 156.198 276.198 154.874 276.123C154.904 276.711 154.965 277.126 154.965 277.126C154.965 277.126 168.528 277.94 169.386 277.744C169.92 277.623 170.409 276.922 170.447 276.342C170.236 276.583 169.905 276.764 169.386 276.794Z" fill="#121313"/>
<path d="M146.17 261.756C146.17 261.756 144.327 267.409 143.846 269.211C143.364 271.02 146.622 273.379 147.517 274.156C146.411 275.799 138.768 271.698 138.768 271.698L141.867 261.115L146.17 261.756Z" fill="#FFC384"/>
<path d="M139.144 270.402C139.144 270.402 142.604 272.731 143.913 273.312C145.222 273.892 146.005 272.882 146.005 272.882C146.005 272.882 150.3 275.558 152.61 275.438C153.656 275.852 152.655 277.435 151.775 277.503C151.414 277.533 148.608 277.714 146.027 277.194C142.364 276.455 137.579 274.827 137.579 274.827C137.579 274.827 137.572 270.953 139.144 270.402Z" fill="black"/>
<path d="M152.903 275.641C152.67 276.093 152.211 276.492 151.775 276.53C151.414 276.553 148.608 276.741 146.027 276.221C142.567 275.527 138.106 274.035 137.632 273.869C137.579 274.427 137.587 274.826 137.587 274.826C137.587 274.826 142.364 276.455 146.035 277.193C148.608 277.713 151.421 277.525 151.782 277.502C152.542 277.45 153.407 276.221 152.903 275.641Z" fill="#121313"/>
<path d="M148.555 196.343C148.555 196.343 145.907 202.781 147.043 208.306C148.179 213.831 150.361 229.359 150.075 231.929C149.789 234.5 144.748 242.407 143.801 248.407C142.853 254.407 141.137 261.741 141.137 261.741L146.652 263.55C146.652 263.55 152.926 250.027 153.972 246.311C155.017 242.595 158.252 234.402 159.012 230.783C159.772 227.165 160.915 216.303 160.915 216.303C160.915 216.303 161.916 231.778 162.059 232.495C161.916 235.208 159.922 237.492 159.065 241.065C158.207 244.638 156.642 263.543 156.642 263.543L162.059 264.492C162.059 264.492 169.619 240.914 171.041 235.63C172.47 230.346 172.275 226.201 172.516 222.055C172.756 217.909 171.041 195.19 171.041 195.19C171.041 195.19 154.16 192.341 148.555 196.343Z" fill="#121313"/>
<path d="M159.057 156.061C159.057 156.061 167.52 159.777 170.191 166.794C169.898 167.111 166.949 169.206 166.949 169.206C166.949 169.206 168.754 171.777 168.754 173.563C168.754 175.35 167.897 175.99 167.468 177.49C167.039 178.99 170.988 190.877 172.508 196.018C167.468 200.307 153.498 199.35 147.788 196.591C152.444 192.498 152.918 184.161 152.828 181.252C152.708 177.475 146.742 171.347 146.742 171.347C146.027 171.279 143.831 173.684 143.831 173.684L138.339 169.915C142.131 164.578 144.41 159.912 146.644 159.196C152.384 157.372 159.057 156.061 159.057 156.061Z" fill="#4B5E85"/>
<path d="M162.999 138.769C162.999 138.769 163.834 141.197 164.233 144.702C164.338 145.651 165.519 147.34 165.519 148.29C165.519 148.501 164.519 148.561 164.519 148.659C164.459 150.589 164.097 152.292 163.104 153.491C162.472 154.086 159.486 153.83 159.486 153.83L160.05 157.983C160.05 157.983 157.575 161.059 153.964 158.39C154.062 154.961 154.348 150.008 154.348 150.008C154.348 150.008 152.354 150.106 151.88 148.863C151.406 147.626 151.737 144.717 153.069 144.86C154.4 145.003 154.972 146.714 154.972 146.714C154.972 146.714 154.641 141.807 155.303 139.712C155.965 137.631 160.622 135.34 162.999 138.769Z" fill="#FFC384"/>
<path d="M157.575 141.626C157.575 141.626 158.937 143.201 162.036 142.877C161.284 142.666 160.682 141.95 160.607 141.845C162.977 143.179 165.03 142.99 165.03 142.99C165.03 142.99 165.03 134.435 157.139 132.822C152.715 132.4 151.677 134.232 151.248 135.159C147.329 134.058 145.38 141.325 146.449 144.114C147.517 146.902 147.63 149.051 144.726 155.586C143.033 166.463 159.697 162.332 159.065 161.563C155.401 157.078 157.56 153.928 155.77 150.392C154.829 147.634 154.867 146.352 155.183 145.749C155.506 145.139 156.394 143.322 155.536 141.784C157.101 143.217 158.493 143.269 158.493 143.269C158.493 143.269 157.583 142.749 157.575 141.626Z" fill="#121313"/>
<path d="M138.783 170.201C138.783 170.201 135.796 175.862 134.811 177.309C133.825 178.757 137.068 182.714 140.137 185.985C143.206 189.257 147.336 193.01 147.6 193.553C147.863 194.096 148.269 195.958 149.285 195.37C150.3 194.774 151.534 194.179 152.234 194.887C152.941 195.596 153.934 196.41 154.671 196.342C155.401 196.267 155.439 195.912 155.25 195.89C155.062 195.875 152.444 193.478 151.918 193.485C152.189 193.169 152.648 192.807 152.971 192.754C153.295 192.709 156.304 194.902 157.274 193.922C157.184 193.606 156.778 193.297 156.778 193.297C156.778 193.297 157.703 193.553 157.966 193.086C157.221 192.257 155.348 190.711 154.739 190.455C154.13 190.191 153.249 190.289 152.956 190.463C153.114 189.958 153.505 189.573 153.866 189.543C154.22 189.513 156.575 190.99 157.327 190.915C158.079 190.84 158.365 190.417 158.222 190.312C158.072 190.206 155.454 189.015 154.777 188.669C154.099 188.322 153.152 187.983 152.332 189.106C151.512 190.237 149.804 190.764 149.187 190.463C148.578 190.154 139.881 178.38 139.881 178.38L143.221 173.269L138.783 170.201Z" fill="#FFC384"/>
<path d="M60.7852 277.771C67.8417 264.859 68.7971 244.085 68.8046 243.904L72.1674 244.07C72.1297 244.809 71.2496 264.422 64.5843 277.764H60.7852V277.771Z" fill="#AA642B"/>
<path d="M47.1311 273.25C54.3155 263.406 57.4525 246.378 57.4826 246.189L60.7626 247.2C60.6272 247.953 57.949 262.546 51.5771 273.242H47.1311V273.25Z" fill="#7C3E14"/>
<path d="M90.0117 273.249C84.7081 262.5 84.0536 245.879 84.0235 245.163L87.3862 244.93C87.3938 245.103 88.131 263.646 94.1719 273.249H90.0117Z" fill="#7C3E14"/>
<path d="M89.7635 187.99C89.7635 187.99 92.0128 225.792 77.9675 241.365C88.2664 243.317 106.329 243.995 106.329 243.995C106.329 243.995 124.106 214.5 119.72 189.708C111.294 184.515 89.7635 187.99 89.7635 187.99Z" fill="#D3DCEB"/>
<path d="M118.17 191.593C111.136 187.258 94.9919 188.969 89.8312 189.648C89.8011 188.585 89.7635 187.997 89.7635 187.997C89.7635 187.997 111.302 184.522 119.727 189.708C124.113 214.5 106.336 243.995 106.336 243.995C106.336 243.995 106.171 243.987 105.863 243.972C109.639 237.075 121.894 212.638 118.17 191.593Z" fill="#6379A9"/>
<path d="M108.654 243.348C108.496 243.627 108.345 243.905 108.18 244.184C113.506 259.705 120.141 274.501 122.09 277.773H118.193C115.402 272.881 109.496 258.634 104.742 244.531L104.569 244.026L108.654 243.348Z" fill="#AA642B"/>
<path d="M104.486 243.8L104.885 243.129C123.271 212.24 116.621 191.059 116.53 190.787L117.975 190.305L119.727 189.717C120.028 190.614 126.822 211.825 108.661 243.355L104.576 244.041L104.486 243.8Z" fill="#6379A9"/>
<path d="M110.564 241.365H56.5723V246.431H110.564V241.365Z" fill="#544745"/>
<path d="M83.4442 212.895C83.4442 212.895 78.8101 218.239 69.1883 219.927C66.4499 222.814 71.7837 224.005 71.7837 224.005C71.7837 224.005 86.1826 222.113 83.4442 212.895Z" fill="#3B4C6B"/>
<path d="M36.8698 267.061C36.8698 267.061 36.0273 270.529 36.0273 272.127C36.0273 273.725 38.0885 276.536 32.5667 276.438C27.0449 276.348 16.2796 276.438 13.5638 276.438C10.848 276.438 11.8787 270.619 17.0244 271.094C22.17 271.561 31.0697 268.373 33.3115 264.996C35.5608 265.094 36.8698 267.061 36.8698 267.061Z" fill="#121313"/>
<path d="M36.3959 274.705C36.3131 275.7 35.5458 276.492 32.5667 276.439C27.0449 276.348 16.2796 276.439 13.5638 276.439C12.5708 276.439 12.0893 275.662 12.1119 274.705H36.3959Z" fill="black"/>
<path d="M51.9382 225.226C51.9382 225.226 43.3245 225.128 40.052 226.635C36.772 228.135 37.8027 232.078 42.9559 231.61C48.1015 231.143 51.9458 230.857 51.9458 230.857V225.226H51.9382Z" fill="black"/>
<path d="M52.179 225.468C52.179 225.468 43.5652 225.37 40.2928 226.878C37.0128 228.378 38.0434 232.32 43.1966 231.853C48.3423 231.385 52.1865 231.099 52.1865 231.099V225.468H52.179Z" fill="#121313"/>
<path d="M82.2105 177.061C82.2105 177.061 82.3835 189.348 88.3642 192.099C89.44 192.446 91.5464 191.262 91.5464 191.262C91.5464 191.262 92.389 191.421 91.6818 193.109C91.4411 193.682 89.6657 195.318 89.6657 195.318C89.6657 195.318 98.4524 197.217 102.583 192.785C99.6335 191.285 97.4068 184.2 97.4068 184.2C97.4068 184.2 99.4831 183.046 99.7238 181.531C99.9721 180.009 99.1822 178.667 98.0989 179.089C96.2783 179.79 96.0752 181.901 96.0752 181.901C96.0752 181.901 94.8866 176.564 93.2466 174.642C91.6216 172.712 84.362 172.373 82.2105 177.061Z" fill="#FFC384"/>
<path d="M101.943 192.145C101.943 192.145 95.3756 196.011 89.6205 194.888C84.1438 200.519 82.88 207.273 82.88 211.773C82.88 216.273 74.4543 224.014 74.4543 224.014C74.4543 224.014 84.4222 224.014 88.3567 226.404C92.2912 228.793 95.9398 232.735 96.9253 238.502C101.281 236.534 103.102 227.384 103.387 221.76C103.666 216.13 105.772 210.084 107.457 204.876C109.135 199.675 110.226 195.273 101.943 192.145Z" fill="#4B5E85"/>
<path d="M63.674 224.27C63.674 224.27 55.4063 223.825 51.7577 224.39C51.4793 224.601 51.2311 224.828 51.0204 225.054C48.8012 227.405 49.9146 230.3 50.1703 231.235C52.4197 233.579 54.2628 233.624 57.5052 234.589C60.7401 235.546 63.674 224.27 63.674 224.27Z" fill="black"/>
<path d="M77.9675 242.02C77.9675 242.02 60.9808 243.43 54.7969 243.008C54.3456 249.038 54.3757 250.477 50.5841 253.711C46.7926 256.945 38.1713 268.749 38.1713 268.749C38.1713 268.749 32.6119 266.073 31.9047 265.229C36.8698 257.224 45.6641 240.181 48.3348 237.09C51.0054 233.992 51.532 232.884 60.1834 233.088C68.8347 233.299 77.9675 242.02 77.9675 242.02Z" fill="black"/>
<path d="M97.4369 233.677C97.4369 233.677 98.1891 241.743 86.3932 243.71C74.5973 245.678 59.1978 236.866 56.5799 233.677C53.9619 230.489 49.8694 224.27 63.2076 224.27C76.5457 224.27 86.2578 222.19 90.606 224.79C94.9543 227.391 97.4369 233.677 97.4369 233.677Z" fill="#121313"/>
<path d="M81.2626 217.538C81.2626 217.538 78.3813 217.47 76.982 216.551C75.5752 215.639 74.3114 215.073 73.1228 216.551C71.9266 218.028 71.227 222.227 71.227 222.227H75.485L76.6811 221.322L81.4732 221.232L81.2626 217.538Z" fill="#FFC384"/>
<path d="M72.536 222.084L64.9077 195.717L42.1133 195.868L41.361 196.199L51.9458 222.084H72.536Z" fill="#E5E5E5"/>
<path d="M71.7837 222.084L64.2006 196.199H41.361L51.1935 222.084H71.7837Z" fill="#D8D8D8"/>
<path d="M89.7635 222.084H51.216V224.262H89.7635V222.084Z" fill="#AFAFAF"/>
<path d="M89.7559 222.084H71.7837V224.262H89.7559V222.084Z" fill="#939393"/>
<path d="M109.978 200.231C109.594 197.91 107.991 194.276 104.599 193.598C101.206 192.92 99.122 198.03 100.055 202.907C100.995 207.784 98.9339 212.759 97.9935 214.636C97.0607 216.513 87.4013 215.797 80.5253 217.184C80.4877 219.98 80.5253 221.669 80.5253 221.669C80.5253 221.669 94.0591 224.299 100.988 222.611C107.916 220.922 109.255 216.166 109.978 209.382C110.436 205.123 110.143 201.189 109.978 200.231Z" fill="#3B4C6B"/>
<path d="M91.5464 176.909C91.5464 176.909 91.3433 178.424 92.5695 178.846C93.7958 179.269 95.5185 181.839 95.6614 183.03C96.188 182.887 96.5416 182.751 96.5416 182.751C96.5416 182.751 96.2934 180.769 96.6921 180.271C97.0833 179.774 97.3691 179.48 97.64 179.321C97.7001 178.108 97.324 175.062 97.324 175.062C97.324 175.062 91.8548 175.258 91.5464 176.909Z" fill="black"/>
<path d="M78.5919 178.334C76.982 177.483 77.0723 174.822 79.2239 174.189C79.1637 173.525 78.7198 172.636 79.0584 171.784C79.5398 170.54 80.4952 170.337 81.571 170.148C82.6844 169.953 81.729 168.762 83.4668 168.061C84.4523 167.661 84.6328 168.332 85.3475 168.445C85.8139 168.52 86.3481 167.993 86.7543 167.789C87.1906 167.571 87.5141 167.352 88.0106 167.337C88.4996 167.322 89.0112 167.435 89.4174 167.714C89.8312 168 89.8086 168.498 90.3879 168.264C90.7264 168.128 90.9671 167.556 91.2982 167.352C91.727 167.088 92.231 166.832 92.7125 166.9C94.36 167.148 94.0666 168.324 94.7361 168.219C96.158 168 97.2036 167.94 97.5572 169.696C97.7152 170.465 99.5508 170.126 99.2047 171.98C99.0468 172.824 98.0161 172.787 98.1365 173.194C98.1816 173.345 99.5884 174.068 98.9339 175.402C98.3246 176.654 96.6921 176.623 95.9473 176.081C96.0827 177.061 95.195 177.445 94.518 177.475C93.5475 177.52 93.0059 177.34 92.2837 176.638C91.4486 178.357 90.2525 178.689 88.7178 177.784C88.6727 178.365 88.1385 179.194 87.5818 179.495C85.3325 180.716 83.6473 179.729 83.6473 179.729C83.3991 180.958 82.5791 181.5 81.5409 181.523C80.8262 181.538 80.0514 181.312 80.2018 180.362C79.6752 180.603 78.2308 180.716 77.8848 179.963C77.5463 179.216 78.0277 178.538 78.5919 178.334Z" fill="#121313"/>
<path d="M222.287 164.17C222.287 164.17 219.218 160.22 209.558 163.695C207.798 160.959 208.107 150.715 208.107 150.715L224.153 149.328L222.287 164.17Z" fill="#121313"/>
<path d="M195.641 266.527C195.641 266.527 193.264 270.628 192.12 271.148C193.211 272.671 198.492 272.339 198.492 272.339L198.733 267.854L195.641 266.527Z" fill="#FFC384"/>
<path d="M224.507 266.527V270.251H220.722V266.195L224.507 266.527Z" fill="#FFC384"/>
<path d="M206.602 209.134C206.602 209.134 203.014 236.021 201.449 241.026C200.185 245.051 197.07 259.652 195.761 265.305C195.445 266.677 194.889 267.763 194.889 267.763L198.703 268.486C198.703 268.486 200.877 258.755 203.736 255.039C206.587 251.323 208.159 244.742 208.302 241.456C209.303 237.596 215.742 218.179 215.742 217.75C215.742 217.546 215.953 217.124 216.179 216.724L215.765 207.234C211.048 207.905 206.602 209.134 206.602 209.134Z" fill="#FFC384"/>
<path d="M225.936 240.235C225.846 238.916 227.719 226.116 228.373 217.041L218.18 217.652C218.503 222.807 219.421 237.589 219.662 240.235C219.948 243.453 219.662 246.031 219.662 249.958C219.662 253.893 220.73 267.016 220.73 267.016L224.514 267.446C224.514 267.446 226.711 251.639 226.493 248.134C226.274 244.637 226.079 242.383 225.936 240.235Z" fill="#FFC384"/>
<path d="M193.339 269.979C193.339 269.979 196.213 271.953 198.59 270.521C198.921 273.325 198.921 277.735 198.921 277.735H183.461C183.461 277.735 181.799 274.019 184.748 273.589C187.697 273.159 188.554 273.83 189.51 272.775C190.45 271.727 193.339 269.979 193.339 269.979Z" fill="#E2E2E2"/>
<path d="M189.465 272.813C189.48 272.798 189.495 272.79 189.502 272.775C190.45 271.727 193.339 269.979 193.339 269.979C193.339 269.979 193.587 270.152 194.001 270.355L190.841 273.778L189.465 272.813Z" fill="#121313"/>
<path d="M198.883 275.354C198.898 276.733 198.921 277.735 198.921 277.735H183.461C183.461 277.735 182.905 276.484 183.01 275.354H198.883Z" fill="#121313"/>
<path d="M228.133 277.998H219.338C219.338 277.998 219.338 275.85 219.338 274.78C219.338 273.709 220.73 269.496 220.73 269.458C221.512 269.42 224.514 269.458 224.514 269.458C224.514 269.458 226.229 272.353 226.974 273.069C227.719 273.777 228.328 275.488 228.133 277.998Z" fill="#E2E2E2"/>
<path d="M220.933 273.204L221.362 269.443C222.114 269.435 223.198 269.443 223.882 269.45L224.853 273.189L220.933 273.204Z" fill="#121313"/>
<path d="M227.99 275.209C228.155 275.978 228.215 276.913 228.133 277.998H219.338C219.338 277.998 219.338 276.34 219.338 275.209H227.99Z" fill="#121313"/>
<path d="M218.135 156.506C218.135 156.506 217.819 160.222 217.901 160.983C217.984 161.737 220.534 162.197 220.534 162.197C220.534 162.197 218.609 169.546 213.997 169.659C209.837 167.963 209.265 162.936 209.581 161.978C210.288 161.986 212.101 161.481 212.462 161.126C212.823 160.78 212.522 157.162 212.522 157.162L218.135 156.506Z" fill="#F2B175"/>
<path d="M210.273 161.902C210.273 161.902 205.556 163.086 204.089 163.696C202.622 164.307 197.928 171.264 197.033 172.463L202.081 176.857L204.044 174.634C204.044 174.634 203.615 180.626 205.526 182.405C206.188 183.483 206.482 189.219 206.256 191.058C206.03 192.898 224.935 192.724 224.935 192.724C224.935 192.724 223.107 185.405 224.424 182.232C226.214 177.928 225.236 174.189 225.236 174.189L229.426 178.727C229.426 178.727 233.346 174.543 234.015 173.48C230.6 169.154 227.027 165.385 225.973 164.299C224.928 163.214 222.709 162.498 220.971 162.083C220.753 163.636 217.397 167.314 214.802 169.026C210.341 166.953 210.273 161.902 210.273 161.902Z" fill="#E7E7E9"/>
<path d="M210.469 161.842C210.469 161.842 208.671 170.601 208.844 173.518C213.169 173.337 219.782 173.118 219.782 173.118C219.782 173.118 220.023 163.779 221.211 162.083C222.302 162.136 222.957 162.543 222.957 162.543C222.957 162.543 221.136 168.332 221.783 173.261C222.543 173.382 223.1 174.965 223.062 177.437C223.024 179.91 225.402 191.639 228.14 197.028C231.33 203.307 231.473 204.181 229.765 220.87C226.222 223.041 220.279 222.641 218.202 221.88C217.142 221.496 217.555 212.39 217.224 212.39C216.63 212.382 216.397 221.797 215.855 221.97C208.024 224.405 203.743 220.116 203.743 220.116C203.743 220.116 204.36 214.305 205.541 206.171C206.391 200.33 204.571 200.578 205.564 194.495C205.917 192.317 206.459 187.809 206.542 185.721C206.625 183.633 206.286 178.349 206.023 176.887C205.752 175.425 205.872 174.068 206.7 173.887C206.783 171.701 207.648 162.957 208.851 162.204C208.957 162.128 210.469 161.842 210.469 161.842Z" fill="#3B4C6B"/>
<path d="M233.113 174.633C233.113 174.633 237.83 179.917 238.68 181.168C239.53 182.419 238.055 184.59 235.392 187.417C232.729 190.251 229.148 193.507 228.93 193.975C228.704 194.442 228.351 196.063 227.471 195.543C226.59 195.022 225.522 194.51 224.913 195.128C224.303 195.739 223.438 196.447 222.799 196.387C222.167 196.319 222.129 196.01 222.295 195.995C222.46 195.98 224.725 193.907 225.184 193.914C224.95 193.636 224.552 193.326 224.273 193.281C223.995 193.236 221.384 195.143 220.542 194.291C220.617 194.02 220.971 193.749 220.971 193.749C220.971 193.749 220.166 193.975 219.94 193.568C220.587 192.852 222.204 191.51 222.739 191.284C223.265 191.058 224.033 191.141 224.281 191.291C224.145 190.854 223.799 190.515 223.498 190.492C223.19 190.47 221.151 191.744 220.497 191.683C219.842 191.615 219.594 191.246 219.722 191.163C219.85 191.073 222.122 190.04 222.709 189.738C223.295 189.437 224.115 189.143 224.83 190.115C225.545 191.095 227.027 191.555 227.553 191.291C228.087 191.027 234.023 182.857 234.023 182.857L230.164 177.927L233.113 174.633Z" fill="#FFC384"/>
<path d="M197.8 173.066C197.8 173.066 193.775 179.918 192.925 181.169C192.075 182.421 193.55 184.592 196.213 187.418C198.876 190.252 202.457 193.509 202.675 193.976C202.901 194.443 203.254 196.064 204.134 195.544C205.015 195.024 206.083 194.511 206.692 195.129C207.302 195.74 208.167 196.449 208.806 196.388C209.438 196.32 209.476 196.011 209.31 195.996C209.145 195.981 206.88 193.908 206.421 193.916C206.655 193.637 207.053 193.328 207.332 193.283C207.61 193.237 210.22 195.144 211.063 194.293C210.988 194.021 210.634 193.75 210.634 193.75C210.634 193.75 211.439 193.976 211.665 193.569C211.018 192.853 209.4 191.511 208.866 191.285C208.332 191.059 207.572 191.142 207.324 191.293C207.46 190.856 207.806 190.516 208.107 190.494C208.415 190.471 210.454 191.745 211.108 191.685C211.763 191.617 212.011 191.247 211.883 191.165C211.755 191.074 209.483 190.041 208.896 189.74C208.31 189.438 207.49 189.144 206.775 190.117C206.06 191.097 204.578 191.557 204.052 191.293C203.518 191.029 197.582 182.858 197.582 182.858L200.952 175.84L197.8 173.066Z" fill="#FFC384"/>
<path d="M222.129 149.442C222.129 149.442 221.836 159.256 214.998 159.075C210.559 158.932 209.002 152.382 209.002 152.382C209.002 152.382 207.264 152.103 207.121 149.879C206.978 147.663 207.828 146.977 208.355 147.746C208.204 145.907 208.889 144.271 208.889 144.271C208.889 144.271 218.593 141.716 219.857 141.61C221.106 141.512 222.129 149.442 222.129 149.442Z" fill="#FFC384"/>
<path d="M220.166 144.731C220.166 144.731 220 150.58 220.798 153.445C221.595 156.309 219.489 167.337 217.804 167.691C221.038 168.128 226.004 158.879 225.221 150.889C224.446 142.899 222.227 139.063 220.595 139.666C219.015 137.231 210.845 136.281 208.159 140.208C203.728 146.706 204.165 166.515 212.44 167.291C211.311 166.447 209.483 157.018 209.777 155.563C210.108 152.126 209.604 147.927 209.604 147.927C209.604 147.927 213.779 146.412 216.457 144.844C215.043 146.058 213.568 147.151 213.568 147.151C213.568 147.151 218.15 147.392 220.166 144.731Z" fill="black"/>
</g>
<defs>
<clipPath id="clip0_648_8383">
<rect width="247" height="278" fill="white"/>
</clipPath>
</defs>
</svg>
