<svg width="391" height="221" viewBox="0 0 391 221" fill="none" xmlns="http://www.w3.org/2000/svg">
<path d="M359.166 219.758V217.34H363.047C363.754 217.34 364.291 217.149 364.659 216.768C365.026 216.372 365.21 215.834 365.21 215.156C365.21 214.477 365.026 213.954 364.659 213.586C364.291 213.204 363.754 213.014 363.047 213.014H359.166V211.168H362.835C363.867 211.168 364.786 211.296 365.592 211.55C366.412 211.791 367.048 212.201 367.501 212.78C367.967 213.36 368.201 214.138 368.201 215.113V215.41C368.201 216.329 367.996 217.114 367.586 217.764C367.19 218.401 366.589 218.895 365.783 219.249C364.991 219.588 364.008 219.758 362.835 219.758H359.166ZM356.642 219.758V204.063H359.59V219.758H356.642ZM359.166 212.526V210.681H362.474C363.195 210.681 363.726 210.49 364.065 210.108C364.404 209.726 364.574 209.217 364.574 208.581C364.574 207.945 364.404 207.436 364.065 207.054C363.726 206.672 363.195 206.481 362.474 206.481H359.166V204.063H362.199C363.952 204.063 365.281 204.431 366.186 205.166C367.105 205.902 367.564 206.955 367.564 208.326V208.623C367.564 209.585 367.331 210.355 366.865 210.935C366.412 211.501 365.783 211.911 364.977 212.165C364.171 212.406 363.245 212.526 362.199 212.526H359.166Z" fill="#455E86"/>
<path d="M336.166 219.652V204.169H340.281L344.162 213.416H344.544L348.404 204.169H352.582V219.652H349.591V206.439L349.973 206.481L345.795 216.492H342.72L338.52 206.481L338.923 206.439V219.652H336.166Z" fill="#455E86"/>
<path d="M326.024 220.055C324.808 220.055 323.776 219.857 322.928 219.461C322.08 219.051 321.387 218.5 320.849 217.807C320.312 217.1 319.916 216.294 319.662 215.389C319.421 214.47 319.301 213.508 319.301 212.505V211.317C319.301 209.889 319.542 208.602 320.022 207.457C320.503 206.312 321.238 205.407 322.228 204.742C323.218 204.063 324.483 203.724 326.024 203.724C327.551 203.724 328.81 204.063 329.8 204.742C330.789 205.407 331.517 206.312 331.984 207.457C332.465 208.602 332.705 209.889 332.705 211.317V212.505C332.705 213.508 332.578 214.47 332.323 215.389C332.083 216.294 331.694 217.1 331.157 217.807C330.634 218.5 329.948 219.051 329.1 219.461C328.251 219.857 327.226 220.055 326.024 220.055ZM326.024 217.298C327.283 217.298 328.209 216.866 328.803 216.004C329.397 215.127 329.693 213.77 329.693 211.932C329.693 209.981 329.389 208.588 328.781 207.754C328.174 206.905 327.254 206.481 326.024 206.481C324.78 206.481 323.847 206.905 323.225 207.754C322.617 208.588 322.313 209.967 322.313 211.89C322.313 213.742 322.617 215.106 323.225 215.983C323.833 216.859 324.766 217.298 326.024 217.298Z" fill="#455E86"/>
<path d="M309.753 220.055C308.537 220.055 307.505 219.857 306.657 219.461C305.808 219.051 305.116 218.5 304.578 217.807C304.041 217.1 303.645 216.294 303.391 215.389C303.15 214.47 303.03 213.508 303.03 212.505V211.317C303.03 209.889 303.27 208.602 303.751 207.457C304.232 206.312 304.967 205.407 305.957 204.742C306.947 204.063 308.212 203.724 309.753 203.724C311.28 203.724 312.539 204.063 313.528 204.742C314.518 205.407 315.246 206.312 315.713 207.457C316.194 208.602 316.434 209.889 316.434 211.317V212.505C316.434 213.508 316.307 214.47 316.052 215.389C315.812 216.294 315.423 217.1 314.886 217.807C314.363 218.5 313.677 219.051 312.828 219.461C311.98 219.857 310.955 220.055 309.753 220.055ZM309.753 217.298C311.012 217.298 311.938 216.866 312.532 216.004C313.125 215.127 313.422 213.77 313.422 211.932C313.422 209.981 313.118 208.588 312.51 207.754C311.902 206.905 310.983 206.481 309.753 206.481C308.509 206.481 307.576 206.905 306.954 207.754C306.346 208.588 306.042 209.967 306.042 211.89C306.042 213.742 306.346 215.106 306.954 215.983C307.562 216.859 308.495 217.298 309.753 217.298Z" fill="#455E86"/>
<path d="M296.389 219.652V206.036L297.322 206.757H293.229V204.169H299.379V219.652H296.389Z" fill="#455E86"/>
<path d="M48.865 219.758V217.34H52.7462C53.4532 217.34 53.9905 217.149 54.3581 216.768C54.7257 216.372 54.9095 215.834 54.9095 215.156C54.9095 214.477 54.7257 213.954 54.3581 213.586C53.9905 213.204 53.4532 213.014 52.7462 213.014H48.865V211.168H52.5341C53.5663 211.168 54.4853 211.296 55.2913 211.55C56.1113 211.791 56.7476 212.201 57.2001 212.78C57.6666 213.36 57.8999 214.138 57.8999 215.113V215.41C57.8999 216.329 57.6949 217.114 57.2849 217.764C56.889 218.401 56.2881 218.895 55.4821 219.249C54.6903 219.588 53.7077 219.758 52.5341 219.758H48.865ZM46.3412 219.758V204.063H49.2892V219.758H46.3412ZM48.865 212.526V210.681H52.1736C52.8947 210.681 53.4249 210.49 53.7642 210.108C54.1036 209.726 54.2732 209.217 54.2732 208.581C54.2732 207.945 54.1036 207.436 53.7642 207.054C53.4249 206.672 52.8947 206.481 52.1736 206.481H48.865V204.063H51.8979C53.6511 204.063 54.9802 204.431 55.8851 205.166C56.8042 205.902 57.2637 206.955 57.2637 208.326V208.623C57.2637 209.585 57.0304 210.355 56.5638 210.935C56.1113 211.501 55.4821 211.911 54.6762 212.165C53.8703 212.406 52.9442 212.526 51.8979 212.526H48.865Z" fill="#455E86"/>
<path d="M25.8654 219.652V204.169H29.9799L33.8612 213.416H34.2429L38.1029 204.169H42.281V219.652H39.2906V206.439L39.6724 206.481L35.4942 216.492H32.419L28.2196 206.481L28.6226 206.439V219.652H25.8654Z" fill="#455E86"/>
<path d="M15.7236 220.055C14.5076 220.055 13.4754 219.857 12.6271 219.461C11.7787 219.051 11.0859 218.5 10.5486 217.807C10.0113 217.1 9.61545 216.294 9.36095 215.389C9.12058 214.47 9.0004 213.508 9.0004 212.505V211.317C9.0004 209.889 9.24076 208.602 9.7215 207.457C10.2022 206.312 10.9375 205.407 11.9272 204.742C12.917 204.063 14.1824 203.724 15.7236 203.724C17.2506 203.724 18.509 204.063 19.4987 204.742C20.4885 205.407 21.2167 206.312 21.6832 207.457C22.164 208.602 22.4043 209.889 22.4043 211.317V212.505C22.4043 213.508 22.2771 214.47 22.0226 215.389C21.7822 216.294 21.3934 217.1 20.8561 217.807C20.333 218.5 19.6472 219.051 18.7989 219.461C17.9505 219.857 16.9254 220.055 15.7236 220.055ZM15.7236 217.298C16.982 217.298 17.9081 216.866 18.5019 216.004C19.0958 215.127 19.3927 213.77 19.3927 211.932C19.3927 209.981 19.0887 208.588 18.4807 207.754C17.8727 206.905 16.9537 206.481 15.7236 206.481C14.4793 206.481 13.5461 206.905 12.924 207.754C12.316 208.588 12.012 209.967 12.012 211.89C12.012 213.742 12.316 215.106 12.924 215.983C13.532 216.859 14.4652 217.298 15.7236 217.298Z" fill="#455E86"/>
<g clip-path="url(#clip0_550_137)">
<path d="M369.19 175.88C366.89 127.78 345.9 82.48 310.69 49.63C275.48 16.78 228.83 -1.01002 180.69 0.0299763C132.55 1.06998 86.71 20.9 52.96 55.24C19.21 89.59 0.21 135.76 0 183.91L65.46 184.19C65.59 153.1 77.86 123.3 99.65 101.12C121.44 78.95 151.03 66.16 182.11 65.48C213.19 64.8 243.3 76.29 266.04 97.5C288.77 118.71 302.33 147.95 303.81 179L369.19 175.88Z" fill="#455D83"/>
<path d="M369.19 175.88C367.52 140.87 355.92 107.06 335.75 78.4C315.58 49.74 287.67 27.41 255.28 14.01C222.88 0.619971 187.35 -3.28003 152.83 2.76997C118.31 8.81997 86.22 24.56 60.31 48.17L104.4 96.56C121.13 81.32 141.84 71.16 164.13 67.25C186.42 63.35 209.36 65.86 230.27 74.51C251.18 83.16 269.2 97.57 282.22 116.08C295.24 134.58 302.73 156.41 303.81 179.01L369.19 175.88Z" fill="#5F8DD4"/>
<path d="M369.19 175.88C366.95 128.95 346.91 84.65 313.15 51.98C279.39 19.31 234.46 0.73002 187.48 0.0200195L186.49 65.47C216.81 65.93 245.83 77.92 267.62 99.01C289.41 120.1 302.35 148.71 303.8 179L369.19 175.88Z" fill="#587CB4"/>
<path d="M369.4 184.27C369.34 159.58 364.33 135.14 354.67 112.42C345.01 89.7 330.88 69.14 313.14 51.97L267.62 99.01C279.08 110.1 288.19 123.37 294.43 138.04C300.67 152.71 303.9 168.48 303.94 184.42L369.4 184.27Z" fill="#5071A2"/>
</g>
<path d="M270.251 177.913V164.586H390.901L270.251 177.913Z" fill="black"/>
<path d="M239.915 180.357C237.647 180.357 235.704 179.992 234.088 179.261C232.471 178.505 231.154 177.488 230.137 176.211C229.147 174.933 228.403 173.46 227.908 171.791C227.439 170.097 227.204 168.311 227.204 166.433V164.204C227.204 161.597 227.66 159.237 228.573 157.125C229.486 155.013 230.88 153.331 232.758 152.08C234.635 150.828 237.021 150.202 239.915 150.202C242.809 150.202 245.182 150.828 247.033 152.08C248.91 153.331 250.305 155.013 251.218 157.125C252.13 159.237 252.587 161.597 252.587 164.204V166.433C252.587 168.311 252.339 170.097 251.844 171.791C251.374 173.46 250.631 174.933 249.614 176.211C248.624 177.488 247.32 178.505 245.703 179.261C244.113 179.992 242.183 180.357 239.915 180.357ZM239.915 174.451C242.027 174.451 243.591 173.721 244.608 172.261C245.651 170.775 246.173 168.48 246.173 165.377C246.173 162.092 245.638 159.732 244.569 158.298C243.526 156.838 241.975 156.108 239.915 156.108C237.803 156.108 236.226 156.838 235.183 158.298C234.14 159.732 233.618 162.066 233.618 165.299C233.618 168.428 234.127 170.735 235.144 172.222C236.186 173.708 237.777 174.451 239.915 174.451Z" fill="#08080C"/>
<path d="M212.725 180.357C210.509 180.357 208.58 179.953 206.937 179.144C205.32 178.31 204.082 177.189 203.222 175.781C202.361 174.373 201.931 172.782 201.931 171.009H208.11C208.11 172.209 208.514 173.186 209.323 173.943C210.131 174.673 211.265 175.038 212.725 175.038C213.69 175.038 214.511 174.855 215.189 174.49C215.867 174.125 216.389 173.63 216.754 173.004C217.119 172.352 217.301 171.622 217.301 170.814C217.301 169.562 216.897 168.532 216.089 167.724C215.307 166.916 214.185 166.512 212.725 166.512C211.943 166.512 211.252 166.629 210.653 166.864C210.079 167.098 209.583 167.385 209.166 167.724L206.272 162.835L214.916 157.203L214.564 156.538H203.104V151.063H222.347V157.008L212.373 163.344L209.245 162.483C209.766 162.327 210.314 162.209 210.887 162.131C211.487 162.027 212.126 161.975 212.804 161.975C215.02 161.975 216.923 162.34 218.514 163.07C220.104 163.8 221.33 164.83 222.19 166.16C223.077 167.463 223.52 168.989 223.52 170.736V171.205C223.52 172.952 223.077 174.516 222.19 175.898C221.33 177.28 220.091 178.375 218.475 179.183C216.884 179.966 214.968 180.357 212.725 180.357Z" fill="#08080C"/>
<path d="M192.122 179.614V172.613H199.005V179.614H192.122Z" fill="#08080C"/>
<path d="M168.218 179.613V173.747C168.218 172.521 168.413 171.452 168.804 170.54C169.222 169.627 169.873 168.819 170.76 168.115C171.646 167.385 172.82 166.707 174.28 166.081L178.895 164.087C180.068 163.591 180.929 162.978 181.476 162.248C182.05 161.518 182.337 160.593 182.337 159.472C182.337 158.324 181.985 157.386 181.281 156.656C180.577 155.926 179.547 155.561 178.191 155.561C176.835 155.561 175.805 155.939 175.101 156.695C174.397 157.451 174.045 158.468 174.045 159.745H167.827C167.827 157.946 168.218 156.33 169 154.896C169.782 153.436 170.942 152.288 172.481 151.454C174.019 150.62 175.922 150.202 178.191 150.202C180.459 150.202 182.35 150.607 183.862 151.415C185.4 152.223 186.56 153.305 187.343 154.661C188.151 156.017 188.555 157.542 188.555 159.237V159.706C188.555 161.896 187.955 163.709 186.756 165.143C185.557 166.551 183.705 167.802 181.202 168.897L176.626 170.892C175.844 171.231 175.284 171.583 174.945 171.948C174.632 172.313 174.475 172.808 174.475 173.434V175.39L172.95 174.099H188.594V179.613H168.218Z" fill="#08080C"/>
<path d="M153.399 180.435C151.287 180.435 149.475 180.096 147.963 179.418C146.451 178.714 145.212 177.736 144.247 176.485C143.309 175.207 142.605 173.747 142.135 172.104C141.692 170.462 141.47 168.702 141.47 166.824V165.182C141.47 160.436 142.683 156.864 145.108 154.465C147.533 152.041 151.105 150.828 155.824 150.828C156.789 150.828 157.74 150.854 158.679 150.906C159.618 150.958 160.53 151.037 161.417 151.141V156.499C160.556 156.421 159.631 156.356 158.64 156.304C157.649 156.225 156.632 156.186 155.589 156.186C153.503 156.186 151.861 156.538 150.661 157.242C149.462 157.92 148.615 158.95 148.119 160.332C147.624 161.714 147.376 163.422 147.376 165.455V168.428L145.968 169.366C145.994 167.411 146.385 165.781 147.142 164.478C147.924 163.148 148.993 162.157 150.349 161.505C151.704 160.853 153.269 160.528 155.042 160.528C157.049 160.528 158.783 160.932 160.244 161.74C161.704 162.522 162.825 163.63 163.607 165.064C164.389 166.498 164.78 168.193 164.78 170.149C164.78 172.209 164.311 174.021 163.372 175.585C162.434 177.123 161.104 178.323 159.383 179.183C157.688 180.018 155.694 180.435 153.399 180.435ZM153.204 175.116C154.351 175.116 155.316 174.907 156.098 174.49C156.906 174.073 157.519 173.512 157.936 172.808C158.379 172.078 158.601 171.231 158.601 170.266C158.601 169.275 158.392 168.428 157.975 167.724C157.558 166.994 156.958 166.433 156.176 166.042C155.42 165.625 154.481 165.416 153.36 165.416C152.343 165.416 151.405 165.599 150.544 165.964C149.71 166.303 149.045 166.837 148.549 167.567C148.054 168.271 147.806 169.171 147.806 170.266C147.806 171.205 148.002 172.039 148.393 172.769C148.81 173.499 149.423 174.073 150.231 174.49C151.04 174.907 152.03 175.116 153.204 175.116Z" fill="#08080C"/>
<path d="M125.674 150.241C127.786 150.241 129.598 150.593 131.111 151.297C132.623 151.975 133.848 152.953 134.787 154.231C135.752 155.482 136.456 156.929 136.899 158.572C137.368 160.215 137.603 161.975 137.603 163.852V165.495C137.603 170.24 136.391 173.825 133.966 176.25C131.541 178.649 127.969 179.848 123.249 179.848C122.285 179.848 121.333 179.822 120.394 179.77C119.456 179.718 118.543 179.639 117.657 179.535V174.177C118.517 174.255 119.443 174.334 120.433 174.412C121.424 174.464 122.441 174.49 123.484 174.49C125.57 174.49 127.213 174.151 128.412 173.473C129.611 172.769 130.459 171.726 130.954 170.344C131.45 168.962 131.697 167.255 131.697 165.221V162.248L133.105 161.31C133.079 163.265 132.675 164.908 131.893 166.238C131.137 167.541 130.081 168.519 128.725 169.171C127.369 169.823 125.805 170.149 124.032 170.149C122.024 170.149 120.29 169.758 118.83 168.975C117.37 168.167 116.249 167.046 115.466 165.612C114.684 164.178 114.293 162.483 114.293 160.528C114.293 158.468 114.762 156.669 115.701 155.13C116.64 153.566 117.956 152.366 119.651 151.532C121.372 150.672 123.38 150.241 125.674 150.241ZM125.87 155.56C124.723 155.56 123.745 155.769 122.937 156.186C122.154 156.603 121.542 157.177 121.098 157.907C120.681 158.611 120.473 159.445 120.473 160.41C120.473 161.401 120.681 162.261 121.098 162.991C121.516 163.695 122.102 164.256 122.858 164.673C123.641 165.064 124.592 165.26 125.713 165.26C126.73 165.26 127.656 165.09 128.49 164.751C129.351 164.386 130.029 163.852 130.524 163.148C131.019 162.418 131.267 161.505 131.267 160.41C131.267 159.472 131.058 158.637 130.641 157.907C130.25 157.177 129.651 156.603 128.842 156.186C128.034 155.769 127.043 155.56 125.87 155.56Z" fill="#08080C"/>
<defs>
<clipPath id="clip0_550_137">
<rect width="369.4" height="184.42" fill="white"/>
</clipPath>
</defs>
</svg>
