<svg width="35" height="35" viewBox="0 0 35 35" fill="none" xmlns="http://www.w3.org/2000/svg">
<circle cx="17.9419" cy="17.9736" r="17" fill="#F4C600"/>
<path d="M10.9172 23.8036C10.3859 24.4131 10.4492 25.3379 11.0587 25.8692C11.6682 26.4005 12.593 26.3372 13.1243 25.7277L12.0208 24.7656L10.9172 23.8036ZM25.324 11.0808C25.2687 10.2741 24.57 9.66498 23.7633 9.72025L10.6178 10.6209C9.81115 10.6762 9.20202 11.3749 9.25728 12.1816C9.31255 12.9882 10.0113 13.5974 10.818 13.5421L22.5029 12.7415L23.3034 24.4264C23.3587 25.2331 24.0574 25.8422 24.8641 25.787C25.6708 25.7317 26.2799 25.033 26.2247 24.2263L25.324 11.0808ZM12.0208 24.7656L13.1243 25.7277L24.967 12.1429L23.8634 11.1809L22.7598 10.2188L10.9172 23.8036L12.0208 24.7656Z" fill="white"/>
</svg>
