<svg width="120" height="61" viewBox="0 0 120 61" fill="none" xmlns="http://www.w3.org/2000/svg">
<path d="M28.5532 55.3881L31.7543 55.0713C31.9441 56.1472 32.3339 56.9358 32.9262 57.4431C33.5132 57.9415 34.307 58.197 35.3068 58.197C36.3642 58.197 37.1654 57.9718 37.7 57.5206C38.2376 57.0746 38.5079 56.5503 38.5079 55.9515C38.5079 55.566 38.3942 55.2411 38.1667 54.9672C37.9422 54.694 37.5487 54.4599 36.9838 54.2649C36.5998 54.1261 35.7211 53.892 34.3513 53.5501C32.5887 53.1167 31.3518 52.5791 30.6437 51.9411C29.6424 51.0439 29.1417 49.9511 29.1417 48.664C29.1417 47.8325 29.378 47.0602 29.8477 46.3358C30.318 45.6165 30.9967 45.0657 31.8798 44.6847C32.7674 44.311 33.8329 44.1205 35.0831 44.1205C37.1315 44.1205 38.6674 44.5672 39.7019 45.4644C40.7335 46.3616 41.2762 47.5542 41.3286 49.0539L38.0419 49.1971C37.9009 48.3605 37.5974 47.758 37.1352 47.3932C36.6714 47.0247 35.9788 46.8431 35.0535 46.8431C34.0973 46.8431 33.3463 47.038 32.8073 47.4323C32.4595 47.6797 32.2852 48.0171 32.2852 48.438C32.2852 48.8279 32.4477 49.158 32.774 49.4305C33.1876 49.7775 34.1962 50.1408 35.7957 50.5189C37.3966 50.8963 38.5795 51.2861 39.3452 51.6893C40.1125 52.0925 40.7121 52.6434 41.147 53.3456C41.5797 54.0478 41.7953 54.9103 41.7953 55.9375C41.7953 56.8701 41.5369 57.7503 41.0178 58.5603C40.4987 59.3755 39.7661 59.9825 38.818 60.3768C37.8706 60.7756 36.6877 60.9713 35.2736 60.9713C33.2141 60.9713 31.6324 60.4987 30.5292 59.5446C29.426 58.5965 28.7659 57.2098 28.5532 55.3881ZM44.54 47.2854V44.3981H47.6599V47.2854H44.54ZM44.54 60.6862V48.89H47.6599V60.6862H44.54ZM50.6268 48.89H53.5045V50.4931C54.5316 49.2459 55.7611 48.6167 57.1825 48.6167C57.9372 48.6167 58.5929 48.7718 59.1453 49.0849C59.7042 49.3973 60.1591 49.8654 60.515 50.4931C61.0312 49.8647 61.5894 49.3973 62.1898 49.0849C62.7923 48.7718 63.4296 48.6167 64.1148 48.6167C64.9773 48.6167 65.715 48.7984 66.3131 49.1499C66.9112 49.4969 67.358 50.0168 67.6563 50.6976C67.869 51.2005 67.9768 52.0157 67.9768 53.1433V60.687H64.8555V53.9408C64.8555 52.7704 64.7514 52.0164 64.535 51.6738C64.2441 51.2315 63.8017 51.0063 63.2036 51.0063C62.7613 51.0063 62.3544 51.1407 61.9675 51.4087C61.5843 51.6731 61.3059 52.0681 61.1375 52.5799C60.9662 53.096 60.8791 53.9105 60.8791 55.0203V60.687H57.7578V54.2184C57.7578 53.0694 57.7009 52.3325 57.5909 51.9987C57.4816 51.6657 57.3066 51.4183 57.0747 51.2537C56.8407 51.0927 56.5253 51.0063 56.1236 51.0063C55.6422 51.0063 55.2095 51.1362 54.8277 51.4006C54.4408 51.6568 54.1646 52.0334 53.997 52.5193C53.8301 53.0089 53.7474 53.8197 53.7474 54.9509V60.687H50.6261V48.89H50.6268ZM81.5342 54.6947L84.7212 55.7049C84.2309 57.4822 83.4201 58.8047 82.28 59.6672C81.1487 60.5304 79.7007 60.9595 77.9536 60.9595C75.7944 60.9595 74.0126 60.2225 72.6207 58.7486C71.2288 57.2651 70.5354 55.2448 70.5354 52.6877C70.5354 49.9777 71.2332 47.8709 72.6333 46.3705C74.0333 44.8707 75.872 44.1205 78.1559 44.1205C80.146 44.1205 81.7631 44.7105 83.0073 45.8898C83.7531 46.5831 84.3033 47.5852 84.6769 48.89L81.4205 49.6653C81.23 48.8198 80.8268 48.153 80.2109 47.6627C79.604 47.1724 78.8582 46.9302 77.9868 46.9302C76.7817 46.9302 75.7974 47.3629 75.0472 48.2306C74.2969 49.0982 73.9196 50.4975 73.9196 52.4403C73.9196 54.4997 74.2888 55.9692 75.0346 56.8405C75.7716 57.7163 76.7337 58.149 77.9167 58.149C78.7932 58.149 79.5471 57.8721 80.1762 57.3176C80.8061 56.763 81.2573 55.8872 81.5342 54.6947ZM89.8547 52.4883L87.0199 51.9721C87.3404 50.832 87.8868 49.9902 88.6629 49.4401C89.4427 48.8944 90.5961 48.6167 92.1305 48.6167C93.5224 48.6167 94.5592 48.7858 95.2437 49.1152C95.9201 49.4445 96.4008 49.861 96.6785 50.3727C96.9561 50.8807 97.0949 51.8075 97.0949 53.1647L97.0647 56.811C97.0647 57.8426 97.1119 58.6113 97.2116 59.1045C97.312 59.5941 97.5025 60.1228 97.7758 60.687H94.6847C94.6064 60.4787 94.5016 60.1708 94.3849 59.7639C94.3384 59.5779 94.2985 59.456 94.2771 59.3947C93.7395 59.9153 93.171 60.3015 92.5647 60.5651C91.9585 60.8206 91.3124 60.9513 90.6182 60.9513C89.4087 60.9513 88.4465 60.622 87.748 59.9626C87.0494 59.3032 86.6987 58.471 86.6987 57.4616C86.6987 56.7985 86.8589 56.204 87.1757 55.679C87.4962 55.1547 87.9429 54.7597 88.5152 54.4828C89.0868 54.2051 89.9197 53.9629 90.9993 53.7539C92.4562 53.4807 93.4663 53.2208 94.0297 52.9867V52.6744C94.0297 52.0726 93.8828 51.6472 93.5882 51.391C93.2891 51.1355 92.7338 51.0055 91.9105 51.0055C91.3507 51.0055 90.9217 51.1185 90.6094 51.3393C90.2963 51.552 90.0452 51.9382 89.8547 52.4883ZM94.029 55.0196C93.631 55.1503 92.9982 55.3105 92.1298 55.4966C91.2636 55.6827 90.6995 55.8651 90.4307 56.0386C90.0231 56.3332 89.82 56.6936 89.82 57.1396C89.82 57.5782 89.9847 57.9548 90.3103 58.2716C90.6345 58.5921 91.048 58.7486 91.5546 58.7486C92.118 58.7486 92.6511 58.5662 93.1628 58.197C93.5446 57.9157 93.792 57.5686 93.9086 57.161C93.9906 56.8967 94.0297 56.3894 94.0297 55.6391V55.0196H94.029ZM103.163 60.6862H100.042V48.89H102.939V50.5632C103.436 49.7694 103.883 49.2496 104.278 48.9978C104.677 48.7467 105.123 48.6167 105.627 48.6167C106.341 48.6167 107.022 48.8161 107.682 49.2104L106.714 51.9293C106.194 51.5911 105.704 51.422 105.253 51.422C104.811 51.422 104.442 51.5387 104.139 51.7824C103.835 52.0201 103.597 52.458 103.424 53.0864C103.25 53.7148 103.163 55.0336 103.163 57.0407V60.6862ZM119.846 60.6862H116.95V58.9517C116.469 59.6281 115.9 60.1265 115.242 60.4566C114.587 60.7867 113.928 60.9506 113.26 60.9506C111.904 60.9506 110.742 60.4042 109.774 59.3113C108.812 58.2192 108.327 56.6929 108.327 54.742C108.327 52.7394 108.8 51.2175 109.736 50.1807C110.677 49.1403 111.869 48.616 113.304 48.616C114.621 48.616 115.762 49.1661 116.725 50.2634V44.3974H119.846V60.6862ZM111.518 54.5308C111.518 55.7876 111.691 56.6988 112.038 57.2659C112.54 58.0767 113.247 58.4843 114.149 58.4843C114.869 58.4843 115.479 58.1763 115.982 57.5694C116.486 56.9579 116.737 56.043 116.737 54.8291C116.737 53.477 116.49 52.4964 116.004 51.9027C115.514 51.3039 114.889 51.0055 114.122 51.0055C113.385 51.0055 112.766 51.3039 112.267 51.8894C111.765 52.4794 111.518 53.3596 111.518 54.5308Z" fill="#F4C600"/>
<path fill-rule="evenodd" clip-rule="evenodd" d="M27.5762 7.42537C29.3617 8.02201 30.8577 8.91698 32.054 10.111L27.8745 30.6945C25.8136 31.7866 21.9354 31.1663 21.3624 31.0024L23.924 18.7077C22.3607 19.616 20.5952 20.584 18.2411 21.9243C16.7554 20.4327 15.6411 18.1664 15.3413 16.3787C19.7253 13.7492 23.9218 11.0724 27.5762 7.42537Z" fill="#F4C600"/>
<path d="M44.6809 29.1903H48.8929V31.111C49.5227 30.3268 50.1593 29.7678 50.8032 29.4296C51.4485 29.0929 52.2327 28.9215 53.158 28.9215C54.4103 28.9215 55.388 29.2989 56.0962 30.0403C56.8013 30.7861 57.1558 31.9343 57.1558 33.4872V40.9873H52.6123V34.5018C52.6123 33.7604 52.4757 33.2398 52.2025 32.9319C51.9263 32.6196 51.543 32.4682 51.0461 32.4682C50.4997 32.4682 50.0537 32.6764 49.7162 33.0885C49.3743 33.5042 49.2037 34.25 49.2037 35.3251V40.9866H44.6809V29.1903ZM72.9506 36.209H63.8895C63.967 36.9371 64.1671 37.4747 64.4794 37.8343C64.9122 38.346 65.4852 38.5978 66.1874 38.5978C66.6297 38.5978 67.0551 38.49 67.4538 38.264C67.6997 38.1252 67.9604 37.8779 68.2424 37.5227L72.6996 37.9303C72.0136 39.1177 71.1991 39.9676 70.2325 40.4837C69.2696 40.9955 67.891 41.2554 66.0877 41.2554C64.5274 41.2554 63.3002 41.0346 62.3978 40.5923C61.5043 40.1544 60.7615 39.4529 60.173 38.4944C59.5852 37.5323 59.2906 36.4091 59.2906 35.1125C59.2906 33.2657 59.8806 31.7741 61.0613 30.6384C62.242 29.4946 63.8762 28.9215 65.957 28.9215C67.6436 28.9215 68.9794 29.1793 69.9548 29.6932C70.9303 30.2005 71.6805 30.9411 72.1871 31.9085C72.6996 32.8795 72.9506 34.1451 72.9506 35.6973V36.209ZM68.3547 34.0462C68.2639 33.1697 68.0298 32.5413 67.6524 32.1691C67.2663 31.7874 66.7678 31.6013 66.1483 31.6013C65.4239 31.6013 64.8523 31.8878 64.4182 32.4556C64.1494 32.8152 63.9714 33.3395 63.902 34.0469L68.3547 34.0462Z" fill="#455E86"/>
<path fill-rule="evenodd" clip-rule="evenodd" d="M22.4331 0.503414C24.5228 0.503414 26.9079 0.802473 28.9977 1.40059C21.5691 8.49682 11.6706 14.6486 0.947998 19.9003C1.84444 8.85939 11.0917 0.503414 22.4331 0.503414ZM37.6505 6.76818C41.5301 10.6478 43.9189 16.0221 43.9189 21.9848C43.9189 30.9374 38.2486 38.6975 30.188 41.9835L37.6505 6.76818ZM18.5527 43.1716C11.0917 41.6852 4.83135 36.6078 2.1435 29.4466C5.72484 28.5538 8.70732 27.359 11.6905 26.1665C13.1866 29.7456 16.4681 32.7325 20.6432 33.3262L18.5527 43.1716Z" fill="#455E86"/>
</svg>
